<svg xmlns="http://www.w3.org/2000/svg" xmlns:xlink="http://www.w3.org/1999/xlink" width="42px" height="46px" viewBox="0 0 42 46" version="1.1">
    <!-- Generator: Sketch 53.2 (72643) - https://sketchapp.com -->
    <title>MENTOR/INTEROGATIF/fond grisClair</title>
    <desc>Created with Sketch.</desc>
    <defs>
        <polygon id="path-confused-orange" points="0 0.164 41.811 0.164 41.811 41.9745 0 41.9745"/>
        <polygon id="path-confused-orange-2" points="0.058 0.0031 25.03 0.0031 25.03 2 0.058 2"/>
    </defs>
    <g id="MENTOR/INTEROGATIF/fond-grisClair" stroke="none" stroke-width="1" fill="none" fill-rule="evenodd">
        <g id="Group-27" transform="translate(0.000000, -1.000000)">
            <path d="M41.0144,21.9057 C41.0144,33.0107 32.0114,42.0147 20.9064,42.0147 C9.7994,42.0147 0.7964,33.0107 0.7964,21.9057 C0.7964,10.7997 9.7994,1.7967 20.9064,1.7967 C32.0114,1.7967 41.0144,10.7997 41.0144,21.9057" id="Fill-1" fill="#F9F9F7"/>
            <g id="Group-5" transform="translate(0.000000, 0.836200)">
                <mask id="mask-confused-orange-2" fill="white">
                    <use xlink:href="#path-confused-orange"/>
                </mask>
                <g id="Clip-4"/>
                <path d="M20.906,1.7575 C10.257,1.7575 1.594,10.4215 1.594,21.0695 C1.594,31.7175 10.257,40.3815 20.906,40.3815 C31.554,40.3815 40.218,31.7175 40.218,21.0695 C40.218,10.4215 31.554,1.7575 20.906,1.7575 M20.906,41.9745 C9.379,41.9745 0,32.5965 0,21.0695 C0,9.5425 9.379,0.1635 20.906,0.1635 C32.433,0.1635 41.811,9.5425 41.811,21.0695 C41.811,32.5965 32.433,41.9745 20.906,41.9745" id="Fill-3" fill="#F59100" mask="url(#mask-confused-orange-2)"/>
            </g>
            <path d="M7.9812,14.5371 C7.8942,14.5371 7.8052,14.5241 7.7172,14.4971 C7.2482,14.3521 6.9842,13.8531 7.1292,13.3841 C7.1902,13.1891 8.6622,8.6031 13.8312,7.6411 C14.3112,7.5511 14.7792,7.8701 14.8692,8.3531 C14.9602,8.8371 14.6402,9.3021 14.1572,9.3921 C10.0352,10.1601 8.8432,13.8721 8.8322,13.9091 C8.7132,14.2911 8.3612,14.5371 7.9812,14.5371" id="Fill-6" fill="#4F5D5B"/>
            <path d="M26.9187,15.2812 C25.9497,15.2812 24.8957,15.1282 23.7707,14.7462 C23.3047,14.5882 23.0547,14.0822 23.2127,13.6162 C23.3697,13.1512 23.8747,12.9022 24.3427,13.0592 C28.8997,14.6062 32.0907,11.5062 32.1227,11.4742 C32.4717,11.1282 33.0357,11.1302 33.3827,11.4792 C33.7297,11.8272 33.7277,12.3912 33.3777,12.7382 C33.2487,12.8662 30.7637,15.2812 26.9187,15.2812" id="Fill-8" fill="#4F5D5B"/>
            <path d="M12.4001,24.9672 C12.4001,25.9002 11.2051,26.6562 9.7311,26.6562 C8.2561,26.6562 7.0611,25.9002 7.0611,24.9672 C7.0611,24.0342 8.2561,23.2782 9.7311,23.2782 C11.2051,23.2782 12.4001,24.0342 12.4001,24.9672" id="Fill-10" fill="#F4BA6C"/>
            <path d="M34.5798,24.2446 C34.5798,25.1776 33.3858,25.9336 31.9108,25.9336 C30.4358,25.9336 29.2408,25.1776 29.2408,24.2446 C29.2408,23.3116 30.4358,22.5556 31.9108,22.5556 C33.3858,22.5556 34.5798,23.3116 34.5798,24.2446" id="Fill-12" fill="#F4BA6C"/>
            <path d="M25.7009,35.5854 C25.7009,33.8524 24.0559,32.4464 22.0279,32.4464 C20.0009,32.4464 18.3559,33.8524 18.3559,35.5854 C18.3559,35.6634 18.3599,35.7404 18.3659,35.8164 C18.3669,35.8254 18.3669,35.8334 18.3669,35.8414 L18.3669,36.8154 C19.3719,37.0904 20.5349,37.2384 21.8799,37.2014 C23.3529,37.1604 24.6159,36.9234 25.6959,36.5584 L25.6959,35.7404 C25.6989,35.6894 25.7009,35.6374 25.7009,35.5854" id="Fill-14" fill="#4F5D5B"/>
            <path d="M17.5183,18.6152 C17.5183,20.6932 15.8143,22.3782 13.7113,22.3782 C11.6103,22.3782 9.9063,20.6932 9.9063,18.6152 C9.9063,16.5372 11.6103,14.8522 13.7113,14.8522 C15.8143,14.8522 17.5183,16.5372 17.5183,18.6152" id="Fill-16" fill="#4F5D5B"/>
            <path d="M15.5974,16.913 C15.5974,17.797 14.9104,18.515 14.0624,18.515 C13.2134,18.515 12.5264,17.797 12.5264,16.913 C12.5264,16.028 13.2134,15.311 14.0624,15.311 C14.9104,15.311 15.5974,16.028 15.5974,16.913" id="Fill-18" fill="#FCFCFC"/>
            <path d="M32.3669,17.8608 C32.3669,19.9388 30.6629,21.6238 28.5609,21.6238 C26.4589,21.6238 24.7559,19.9388 24.7559,17.8608 C24.7559,15.7828 26.4589,14.0978 28.5609,14.0978 C30.6629,14.0978 32.3669,15.7828 32.3669,17.8608" id="Fill-20" fill="#4F5D5B"/>
            <path d="M30.0017,16.1582 C30.0017,17.0432 29.3147,17.7602 28.4657,17.7602 C27.6177,17.7602 26.9307,17.0432 26.9307,16.1582 C26.9307,15.2742 27.6177,14.5562 28.4657,14.5562 C29.3147,14.5562 30.0017,15.2742 30.0017,16.1582" id="Fill-22" fill="#FCFCFC"/>
            <g id="Group-26" transform="translate(9.000000, 46.836200)">
                <mask id="mask-confused-orange-4" fill="white">
                    <use xlink:href="#path-confused-orange-2"/>
                </mask>
                <g id="Clip-25"/>
                <path d="M25.03,1.0021 C25.03,1.5531 19.44,2.0001 12.545,2.0001 C5.648,2.0001 0.058,1.5531 0.058,1.0021 C0.058,0.4511 5.648,0.0031 12.545,0.0031 C19.44,0.0031 25.03,0.4511 25.03,1.0021" id="Fill-24" fill="#FCFCFC" mask="url(#mask-confused-orange-4)"/>
            </g>
        </g>
    </g>
</svg>