<svg xmlns="http://www.w3.org/2000/svg" xmlns:xlink="http://www.w3.org/1999/xlink" width="88px" height="88px" viewBox="0 0 88 88" version="1.1">
    <title>47003987-5681-47FD-A23B-FFC4145F2C0D@1,5x</title>
    <g id="Mes-Bénéficiaires" stroke="none" stroke-width="1" fill="none" fill-rule="evenodd">
        <g id="02_20_UpDéjeuner-Transfer-erreur" transform="translate(-754.000000, -180.000000)">
            <g id="Group-17" transform="translate(754.000000, 180.000000)">
                <path d="M52,74.5946943 C52,70.9538516 48.6405718,68 44.4989789,68 C40.3594282,68 37,70.9538516 37,74.5946943 C37,74.7585637 37.0081688,74.9203323 37.0204221,75.0799999 C37.0224643,75.0968071 37.0224643,75.1157151 37.0224643,75.1325222 L37.0224643,77.1787892 C39.0748809,77.756534 41.449966,78.0674658 44.1967325,77.987632 C47.2049013,77.9035963 49.7842069,77.4035845 51.989789,76.6388605 L51.989789,74.9203323 C51.9959156,74.8131869 52,74.7039406 52,74.5946943" id="Fill-1" fill="#4F5D5B"/>
                <path d="M35,37 C35,41.4177518 31.4182869,45 26.9978981,45 C22.5817131,45 19,41.4177518 19,37 C19,32.5822482 22.5817131,29 26.9978981,29 C31.4182869,29 35,32.5822482 35,37" id="Fill-3" fill="#4F5D5B"/>
                <path d="M31,34.5 C31,36.4335206 29.4340606,38 27.4988603,38 C25.5659394,38 24,36.4335206 24,34.5 C24,32.5686642 25.5659394,31 27.4988603,31 C29.4340606,31 31,32.5686642 31,34.5" id="Fill-5" fill="#FCFCFC"/>
                <path d="M67,36 C67,40.4177518 63.4182869,44 59,44 C54.5817131,44 51,40.4177518 51,36 C51,31.5822482 54.5817131,28 59,28 C63.4182869,28 67,31.5822482 67,36" id="Fill-7" fill="#4F5D5B"/>
                <path d="M62,32.5 C62,34.4313358 60.4340606,36 58.4988603,36 C56.5659394,36 55,34.4313358 55,32.5 C55,30.5664794 56.5659394,29 58.4988603,29 C60.4340606,29 62,30.5664794 62,32.5" id="Fill-9" fill="#FCFCFC"/>
                <path d="M44.0010634,3.01365493 C21.3997148,3.01365493 3.01578171,21.3997148 3.01578171,43.9989366 C3.01578171,66.6002852 21.3997148,84.9863451 44.0010634,84.9863451 C66.6002852,84.9863451 84.9863451,66.6002852 84.9863451,43.9989366 C84.9863451,21.3997148 66.6002852,3.01365493 44.0010634,3.01365493 M44.0010634,88 C19.7386954,88 0,68.2613046 0,43.9989366 C0,19.7386954 19.7386954,0 44.0010634,0 C68.2613046,0 88,19.7386954 88,43.9989366 C88,68.2613046 68.2613046,88 44.0010634,88" id="Fill-11" fill="#4E5B59"/>
                <path d="M25.6203476,17 C25.5383696,17 25.4543421,17.0086979 25.3703147,17.0239192 C15.0841216,19.0570501 12.1780006,28.703006 12.0611819,29.1139812 C11.8377918,29.8793952 12.2456324,30.6969965 12.9670391,30.9383628 C13.6618029,31.1688568 14.467237,30.731788 14.694726,29.9794209 C14.7951491,29.6402033 17.2688361,21.5990074 25.8744795,19.8985706 C26.6204796,19.752881 27.1143972,18.987467 26.977084,18.1937849 C26.8541169,17.493605 26.272073,17 25.6203476,17" id="Fill-13" fill="#4E5B59"/>
                <path d="M69.6509309,31.9981132 C70.4222194,31.9669011 71.0262908,31.317688 70.9991181,30.5519495 C70.9719453,29.786211 70.3239794,29.180695 69.5526909,29.1994223 C69.5506007,29.1994223 69.533879,29.2015031 69.5108867,29.2035839 C68.8545599,29.2202304 61.0016311,29.2660082 56.6226357,21.6918559 C56.2547583,21.0447236 55.3496963,20.8033495 54.7059108,21.1758147 C54.0307721,21.5628456 53.8008487,22.4180589 54.187538,23.0880801 C59.3294611,31.9773051 68.610005,32.0210021 69.6509309,31.9981132" id="Fill-15" fill="#4E5B59"/>
            </g>
        </g>
    </g>
</svg>