<?xml version="1.0" encoding="UTF-8"?>
<svg width="120px" height="137px" viewBox="0 0 120 137" version="1.1" xmlns="http://www.w3.org/2000/svg" xmlns:xlink="http://www.w3.org/1999/xlink">
    <!-- Generator: sketchtool 61.2 (101010) - https://sketch.com -->
    <title>D656EFCC-1273-4008-BA5E-C9B382471D48@1,5x</title>
    <desc>Created with sketchtool.</desc>
    <defs>
        <polygon id="path-115" points="0 0.74944186 119.459429 0.74944186 119.459429 120.349779 0 120.349779"></polygon>
    </defs>
    <g id="112---Page-Vrac" stroke="none" stroke-width="1" fill="none" fill-rule="evenodd">
        <g id="Nav-obsolete" transform="translate(-660.000000, -237.000000)">
            <g id="Group-181" transform="translate(660.000000, 236.000000)">
                <path d="M117,60.8333333 C117,92.5900094 91.2566761,118.333333 59.5028594,118.333333 C27.7433239,118.333333 2,92.5900094 2,60.8333333 C2,29.0766572 27.7433239,3.33333333 59.5028594,3.33333333 C91.2566761,3.33333333 117,29.0766572 117,60.8333333" id="Fill-178" fill="#F9F9F7"></path>
                <g id="Group-99" transform="translate(0.000000, 0.333333)">
                    <mask id="mask-87" fill="white">
                        <use xlink:href="#path-115"></use>
                    </mask>
                    <g id="Clip-41"></g>
                    <path d="M59.7308571,5.30759302 C29.308,5.30759302 4.55085714,30.0906628 4.55085714,60.5488953 C4.55085714,91.0071279 29.308,115.790198 59.7308571,115.790198 C90.1537143,115.790198 114.908,91.0071279 114.908,60.5488953 C114.908,30.0906628 90.1537143,5.30759302 59.7308571,5.30759302 M59.7308571,120.349779 C26.7965714,120.349779 -0.000571428571,93.5214767 -0.000571428571,60.5488953 C-0.000571428571,27.576314 26.7965714,0.748011628 59.7308571,0.748011628 C92.6651429,0.748011628 119.459429,27.576314 119.459429,60.5488953 C119.459429,93.5214767 92.6651429,120.349779 59.7308571,120.349779" id="Fill-31" fill="#4F5D5B" mask="url(#mask-87)"></path>
                </g>
                <path d="M41,64.0078844 L41,126.333333 L60,126.333333 L60,57.3333333 L59.5260178,57.3333333 C57.0310683,63.6923706 47.0599939,64.274637 41,64.0078844" id="Fill-61" fill="#FFFFFF"></path>
                <path d="M43.1405893,124.232552 L56.8594107,124.232552 L56.8594107,64.0885775 C53.1158148,66.4227365 47.9405893,67.1301442 43.1405893,67.1530562 L43.1405893,124.232552 Z M62,129.333333 L38,129.333333 L38,61.8804345 L40.6814191,62.0007225 C44.7944678,62.1811544 54.5734215,62.0580024 56.5621167,56.9629486 L57.2,55.3333333 L62,55.3333333 L62,129.333333 Z" id="Fill-81" fill="#4F5D5B"></path>
                <path d="M84.5262433,57.3333333 L84,57.3333333 L84,126.333333 L103,126.333333 L103,64.3689986 C96.1879112,63.933034 87.2359602,62.3727397 84.5262433,57.3333333" id="Fill-101" fill="#FFFFFF"></path>
                <path d="M87.1399711,124.232552 L100.857143,124.232552 L100.857143,67.2590242 C94.9235209,66.6747684 90.3405483,65.397425 87.1399711,63.4413138 L87.1399711,124.232552 Z M106,129.333333 L82,129.333333 L82,55.3333333 L86.6349206,55.3333333 L87.3593074,56.6880047 C88.989899,59.7352994 94.9062049,61.8059705 103.593074,62.3615863 L106,62.5191062 L106,129.333333 Z" id="Fill-121" fill="#4F5D5B"></path>
                <path d="M79.1937156,85.3333333 C78.9507399,85.3333333 78.7105896,85.221829 78.5495476,85.0131156 C76.5238089,82.3284335 74.373757,80.9675083 72.1615486,80.9675083 C72.1361209,80.9675083 72.1106933,80.9675083 72.0852656,80.9675083 C68.336095,81.021831 65.4881945,84.9530748 65.4627669,84.993102 C65.2028394,85.3590651 64.6971111,85.4419786 64.3354729,85.1789427 C63.9738348,84.9159067 63.8919011,84.4069893 64.1518285,84.0410263 C64.2874429,83.8523265 67.4856803,79.4064471 72.0541873,79.3349699 C74.8540577,79.2749291 77.4505067,80.8674403 79.8350582,84.0210126 C80.1034616,84.3783985 80.0384797,84.8901749 79.6824921,85.1646472 C79.5355766,85.2790107 79.3660588,85.3333333 79.1937156,85.3333333" id="Fill-141" fill="#4F5D5B"></path>
                <path d="M97,134.333333 C97,135.989646 81.1065994,137.333333 61.5,137.333333 C41.8934006,137.333333 26,135.989646 26,134.333333 C26,132.677021 41.8934006,131.333333 61.5,131.333333 C81.1065994,131.333333 97,132.677021 97,134.333333" id="Fill-161" fill="#FCFCFC"></path>
            </g>
        </g>
    </g>
</svg>