<svg xmlns="http://www.w3.org/2000/svg" xmlns:xlink="http://www.w3.org/1999/xlink" width="42px" height="46px" viewBox="0 0 42 46" version="1.1">
    <!-- Generator: Sketch 52.6 (67491) - http://www.bohemiancoding.com/sketch -->
    <title>MENTOR/LUNETTE /  / fond grisClair</title>
    <desc>Created with Sketch.</desc>
    <defs>
        <polygon id="go-path-1" points="0 49 41 49 41 0 0 0"/>
    </defs>
    <g id="MENTOR/LUNETTE-/--/-fond-grisClair" stroke="none" stroke-width="1" fill="none" fill-rule="evenodd">
        <g id="Group-30" transform="translate(1.000000, 0.000000)">
            <path d="M40,25.5 C40,36.2696554 31.2686857,45 20.5,45 C9.73034462,45 1,36.2696554 1,25.5 C1,14.7313143 9.73034462,6 20.5,6 C31.2686857,6 40,14.7313143 40,25.5" id="Fill-1" fill="#F9F9F7"/>
            <path d="M20.5,6.56210088 C10.0582875,6.56210088 1.56213824,15.0580469 1.56213824,25.4995097 C1.56213824,35.9419531 10.0582875,44.4369185 20.5,44.4369185 C30.9417125,44.4369185 39.4378618,35.9419531 39.4378618,25.4995097 C39.4378618,15.0580469 30.9417125,6.56210088 20.5,6.56210088 M20.5,46 C9.19631667,46 0,36.8029227 0,25.4995097 C0,14.1960967 9.19631667,5 20.5,5 C31.8036833,5 41,14.1960967 41,25.4995097 C41,36.8029227 31.8036833,46 20.5,46" id="Fill-3" fill="#F59100"/>
            <path d="M4.83971904,7 C4.69728918,7 4.55297282,6.96367478 4.42091864,6.8882301 C4.01909662,6.66003322 3.88043973,6.1524116 4.1124778,5.75562845 C4.26151037,5.50228335 7.82508682,-0.443875296 15.2135183,0.0264896971 C15.6766512,0.0553635878 16.0275381,0.450283899 15.9982975,0.90760907 C15.9681137,1.36493424 15.5681781,1.70676385 15.1059885,1.68254704 C8.74474988,1.27458691 5.59997384,6.53149784 5.56790354,6.58458854 C5.41226825,6.85097347 5.13023825,7 4.83971904,7" id="Fill-7" fill="#4F5D5B"/>
            <path d="M39.1358449,10 C38.8027543,10 38.4852015,9.79607435 38.3434195,9.45380718 C38.2307708,9.18634691 35.5058375,2.88822109 27.7524991,1.81735525 C27.2785977,1.75177112 26.944536,1.29370698 27.0076581,0.794652749 C27.068838,0.294573772 27.502924,-0.0569161657 27.9768254,0.00764321049 C36.7284644,1.21582582 39.802026,8.41675815 39.9272991,8.72213425 C40.1186077,9.1842974 39.9195302,9.72229221 39.4805887,9.9231436 C39.36794,9.97540595 39.2504358,10 39.1358449,10" id="Fill-9" fill="#4F5D5B"/>
            <path d="M17,24 C17,25.657289 15.6565522,27 14,27 C12.3434478,27 11,25.657289 11,24 C11,22.342711 12.3434478,21 14,21 C15.6565522,21 17,22.342711 17,24" id="Fill-11" fill="#4F5D5B"/>
            <path d="M30,23 C30,24.657289 28.6565522,26 27,26 C25.3434478,26 24,24.657289 24,23 C24,21.342711 25.3434478,20 27,20 C28.6565522,20 30,21.342711 30,23" id="Fill-13" fill="#4F5D5B"/>
            <path d="M15,22.4994179 C15,23.3282887 14.5522267,24 14,24 C13.4477733,24 13,23.3282887 13,22.4994179 C13,21.6717113 13.4477733,21 14,21 C14.5522267,21 15,21.6717113 15,22.4994179" id="Fill-15" fill="#FCFCFC"/>
            <path d="M29,22.4994179 C29,23.3282887 28.5524079,24 28.0004047,24 C27.4475921,24 27,23.3282887 27,22.4994179 C27,21.6717113 27.4475921,21 28.0004047,21 C28.5524079,21 29,21.6717113 29,22.4994179" id="Fill-17" fill="#FCFCFC"/>
            <path d="M37,28.5 C37,29.3285968 35.8810861,30 34.5,30 C33.1189139,30 32,29.3285968 32,28.5 C32,27.6714032 33.1189139,27 34.5,27 C35.8810861,27 37,27.6714032 37,28.5" id="Fill-19" fill="#F4BA6C"/>
            <path d="M8.05921053,18.6979693 C7.34177632,18.6979693 6.75855263,19.2623701 6.75855263,19.9554772 L6.75855263,24.0445228 C6.75855263,24.7376299 7.34177632,25.3020307 8.05921053,25.3020307 L16.9398026,25.3020307 C17.6582237,25.3020307 18.2414474,24.7376299 18.2414474,24.0445228 L18.2414474,19.9554772 C18.2414474,19.2623701 17.6582237,18.6979693 16.9398026,18.6979693 L8.05921053,18.6979693 Z M16.9398026,27 L8.05921053,27 C6.37269737,27 5,25.6738488 5,24.0445228 L5,19.9554772 C5,18.3251978 6.37269737,17 8.05921053,17 L16.9398026,17 C18.6263158,17 20,18.3251978 20,19.9554772 L20,24.0445228 C20,25.6738488 18.6263158,27 16.9398026,27 Z" id="Fill-21" fill="#4F5D5B"/>
            <path d="M23.0601974,18.6987607 C22.3417763,18.6987607 21.7585526,19.2631077 21.7585526,19.9561487 L21.7585526,24.0438513 C21.7585526,24.7378456 22.3417763,25.3021926 23.0601974,25.3021926 L31.9398026,25.3021926 C32.6582237,25.3021926 33.2414474,24.7378456 33.2414474,24.0438513 L33.2414474,19.9561487 C33.2414474,19.2631077 32.6582237,18.6987607 31.9398026,18.6987607 L23.0601974,18.6987607 Z M31.9398026,27 L23.0601974,27 C21.3726974,27 20,25.6739752 20,24.0438513 L20,19.9561487 C20,18.3260248 21.3726974,17 23.0601974,17 L31.9398026,17 C33.6273026,17 35,18.3260248 35,19.9561487 L35,24.0438513 C35,25.6739752 33.6273026,27 31.9398026,27 Z" id="Fill-23" fill="#4F5D5B"/>
            <mask id="go-mask-2" fill="white">
                <use xlink:href="#go-path-1"/>
            </mask>
            <g id="Clip-26"/>
            <polygon id="Fill-25" fill="#4F5D5B" mask="url(#go-mask-2)" points="18 22 22 22 22 19 18 19"/>
            <path d="M9,30.5 C9,31.3285968 7.88087657,32 6.49953175,32 C5.11912343,32 4,31.3285968 4,30.5 C4,29.6714032 5.11912343,29 6.49953175,29 C7.88087657,29 9,29.6714032 9,30.5" id="Fill-27" fill="#F4BA6C" mask="url(#go-mask-2)"/>
            <path d="M29,36 C29,36 26.1417569,39.7232225 21,38.8740665" id="Fill-28" fill="#FFFFFF" mask="url(#go-mask-2)"/>
            <path d="M20.534323,38.1678051 C20.685933,38.1023836 20.8573612,38.078594 21.0327531,38.1093223 C25.7326615,38.922135 28.3793947,35.396312 28.4051585,35.3606276 C28.6935146,34.9671073 29.246445,34.8828523 29.6388473,35.1713017 C30.0322404,35.4587598 30.1174591,36.011869 29.8291029,36.404398 C29.6953294,36.5867853 26.4976477,40.8461222 20.732506,39.8489397 C20.2519123,39.765676 19.929865,39.3087167 20.0131019,38.8289589 C20.0656204,38.5226673 20.2687579,38.2817972 20.534323,38.1678051" id="Fill-29" fill="#4F5D5B" mask="url(#go-mask-2)"/>
        </g>
    </g>
</svg>