<?xml version="1.0" encoding="UTF-8"?>
<svg width="42px" height="46px" viewBox="0 0 42 46" version="1.1" xmlns="http://www.w3.org/2000/svg" xmlns:xlink="http://www.w3.org/1999/xlink">
    <!-- Generator: Sketch 52.6 (67491) - http://www.bohemiancoding.com/sketch -->
    <title>MENTOR/LUNETTE / fond orange</title>
    <desc>Created with Sketch.</desc>
    <defs>
        <polygon id="path-1" points="0.000292857143 0.14242619 40.8155 0.14242619 40.8155 40.9579262 0.000292857143 40.9579262"></polygon>
        <polygon id="path-3" points="0 49 41 49 41 0 0 0"></polygon>
        <polygon id="path-5" points="0 0.00011 5.339 0.00011 5.339 3.37791 0 3.37791"></polygon>
    </defs>
    <g id="MENTOR/LUNETTE-/-fond-orange" stroke="none" stroke-width="1" fill="none" fill-rule="evenodd">
        <g id="Group-30">
            <path d="M40,25.4995151 C40,36.2694383 31.2696554,45 20.5,45 C9.73034462,45 1,36.2694383 1,25.4995151 C1,14.7305617 9.73034462,6 20.5,6 C31.2696554,6 40,14.7305617 40,25.4995151" id="Fill-1" fill="#F9F9F7"></path>
            <g id="Group-5" transform="translate(0.000000, 5.000000)">
                <mask id="mask-2" fill="white">
                    <use xlink:href="#path-1"></use>
                </mask>
                <g id="Clip-4"></g>
                <path d="M20.4075548,1.69847381 C10.0130786,1.69847381 1.55536429,10.1552119 1.55536429,20.5506643 C1.55536429,30.9451405 10.0130786,39.4028548 20.4075548,39.4028548 C30.8030071,39.4028548 39.2597452,30.9451405 39.2597452,20.5506643 C39.2597452,10.1552119 30.8030071,1.69847381 20.4075548,1.69847381 M20.4075548,40.9579262 C9.15500714,40.9579262 0.000292857143,31.8032119 0.000292857143,20.5506643 C0.000292857143,9.29714048 9.15500714,0.14242619 20.4075548,0.14242619 C31.6601024,0.14242619 40.8157929,9.29714048 40.8157929,20.5506643 C40.8157929,31.8032119 31.6601024,40.9579262 20.4075548,40.9579262" id="Fill-3" fill="#AF6B15" mask="url(#mask-2)"></path>
            </g>
            <path d="M4.83971904,7 C4.69823242,7 4.55297282,6.96367478 4.42091864,6.88916152 C4.01909662,6.66003322 3.88043973,6.1524116 4.1124778,5.75562845 C4.26151037,5.50228335 7.82508682,-0.443875296 15.2135183,0.0264896971 C15.6766512,0.0553635878 16.0275381,0.450283899 15.9982975,0.90760907 C15.9681137,1.36493424 15.5681781,1.70676385 15.1059885,1.68254704 C8.74474988,1.27458691 5.59997384,6.53149784 5.56790354,6.58458854 C5.41226825,6.85097347 5.13023825,7 4.83971904,7" id="Fill-9" fill="#4F5D5B"></path>
            <path d="M39.1354453,10 C38.8023602,10 38.4848126,9.79607435 38.343033,9.45483193 C38.2303861,9.18737166 35.5054977,2.88822109 27.7522871,1.81735525 C27.2783934,1.75177112 26.9453083,1.29370698 27.0074583,0.794652749 C27.0686372,0.294573772 27.502716,-0.0569161657 27.9775808,0.00764321049 C36.7281045,1.21582582 39.8016154,8.41675815 39.9268865,8.72213425 C40.119163,9.1842974 39.9191178,9.72229221 39.4801835,9.92416835 C39.3675366,9.97540595 39.2500343,10 39.1354453,10" id="Fill-11" fill="#4F5D5B"></path>
            <path d="M17,24 C17,25.657289 15.6565522,27 14,27 C12.3434478,27 11,25.657289 11,24 C11,22.342711 12.3434478,21 14,21 C15.6565522,21 17,22.342711 17,24" id="Fill-13" fill="#4F5D5B"></path>
            <path d="M30,23 C30,24.657289 28.6565522,26 27,26 C25.3434478,26 24,24.657289 24,23 C24,21.342711 25.3434478,20 27,20 C28.6565522,20 30,21.342711 30,23" id="Fill-15" fill="#4F5D5B"></path>
            <path d="M15,22.5005821 C15,23.3282887 14.5515985,24 14.0004047,24 C13.4475921,24 13,23.3282887 13,22.5005821 C13,21.6717113 13.4475921,21 14.0004047,21 C14.5515985,21 15,21.6717113 15,22.5005821" id="Fill-17" fill="#FCFCFC"></path>
            <path d="M29,22.5005821 C29,23.3282887 28.5524079,24 28.0004047,24 C27.4484015,24 27,23.3282887 27,22.5005821 C27,21.6717113 27.4484015,21 28.0004047,21 C28.5524079,21 29,21.6717113 29,22.5005821" id="Fill-19" fill="#FCFCFC"></path>
            <path d="M8.06019737,18.6979693 C7.34177632,18.6979693 6.75855263,19.2623701 6.75855263,19.9554772 L6.75855263,24.0445228 C6.75855263,24.7376299 7.34177632,25.3020307 8.06019737,25.3020307 L16.9398026,25.3020307 C17.6582237,25.3020307 18.2414474,24.7376299 18.2414474,24.0445228 L18.2414474,19.9554772 C18.2414474,19.2623701 17.6582237,18.6979693 16.9398026,18.6979693 L8.06019737,18.6979693 Z M16.9398026,27 L8.06019737,27 C6.37269737,27 5,25.6738488 5,24.0445228 L5,19.9554772 C5,18.3251978 6.37269737,17 8.06019737,17 L16.9398026,17 C18.6273026,17 20,18.3251978 20,19.9554772 L20,24.0445228 C20,25.6738488 18.6273026,27 16.9398026,27 Z" id="Fill-21" fill="#4F5D5B"></path>
            <path d="M23.0601974,18.6979693 C22.3417763,18.6979693 21.7585526,19.2623701 21.7585526,19.9554772 L21.7585526,24.0435695 C21.7585526,24.7376299 22.3417763,25.3020307 23.0601974,25.3020307 L31.9398026,25.3020307 C32.6582237,25.3020307 33.2414474,24.7376299 33.2414474,24.0435695 L33.2414474,19.9554772 C33.2414474,19.2623701 32.6582237,18.6979693 31.9398026,18.6979693 L23.0601974,18.6979693 Z M31.9398026,27 L23.0601974,27 C21.3726974,27 20,25.6738488 20,24.0435695 L20,19.9554772 C20,18.3251978 21.3726974,17 23.0601974,17 L31.9398026,17 C33.6273026,17 35,18.3251978 35,19.9554772 L35,24.0435695 C35,25.6738488 33.6273026,27 31.9398026,27 Z" id="Fill-23" fill="#4F5D5B"></path>
            <mask id="mask-4" fill="white">
                <use xlink:href="#path-3"></use>
            </mask>
            <g id="Clip-26"></g>
            <polygon id="Fill-25" fill="#4F5D5B" mask="url(#mask-4)" points="18 22 22 22 22 19 18 19"></polygon>
            <path d="M9,30.5 C9,31.3285968 7.88087657,32 6.50046825,32 C5.11912343,32 4,31.3285968 4,30.5 C4,29.6714032 5.11912343,29 6.50046825,29 C7.88087657,29 9,29.6714032 9,30.5" id="Fill-27" fill="#F4BA6C" mask="url(#mask-4)"></path>
            <path d="M29,36 C29,36 26.1411383,39.7232225 21,38.8740665" id="Fill-28" fill="#FFFFFF" mask="url(#mask-4)"></path>
            <path d="M20.534323,38.1678051 C20.685933,38.1023836 20.8573612,38.0795852 21.0327531,38.1093223 C25.7326615,38.922135 28.3793947,35.396312 28.4051585,35.3606276 C28.6935146,34.9671073 29.246445,34.8828523 29.6388473,35.1713017 C30.0322404,35.4587598 30.1174591,36.011869 29.8291029,36.404398 C29.6953294,36.5867853 26.4976477,40.8461222 20.732506,39.8489397 C20.2519123,39.765676 19.929865,39.3087167 20.0131019,38.8289589 C20.0656204,38.5226673 20.2687579,38.2817972 20.534323,38.1678051" id="Fill-29" fill="#4F5D5B" mask="url(#mask-4)"></path>
        </g>
        <g id="Group-3" transform="translate(31.000000, 28.000000)">
            <mask id="mask-6" fill="white">
                <use xlink:href="#path-5"></use>
            </mask>
            <g id="Clip-2"></g>
            <path d="M5.3397,1.68911 C5.3397,2.62211 4.1447,3.37811 2.6697,3.37811 C1.1947,3.37811 -0.0003,2.62211 -0.0003,1.68911 C-0.0003,0.75611 1.1947,0.00011 2.6697,0.00011 C4.1447,0.00011 5.3397,0.75611 5.3397,1.68911" id="Fill-1" fill="#F4BA6C" mask="url(#mask-6)"></path>
        </g>
    </g>
</svg>