<svg xmlns="http://www.w3.org/2000/svg" xmlns:xlink="http://www.w3.org/1999/xlink" width="42px" height="46px" viewBox="0 0 42 46" version="1.1">
    <!-- Generator: Sketch 52.6 (67491) - http://www.bohemiancoding.com/sketch -->
    <title>MENTOR/HAPPY ++ /  / fond grisClair</title>
    <desc>Created with Sketch.</desc>
    <defs>
        <polygon id="path-happy-orange" points="0.0007 0.368 41.8107 0.368 41.8107 42.18 0.0007 42.18"/>
    </defs>
    <g id="MENTOR/HAPPY-++-/--/-fond-grisClair" stroke="none" stroke-width="1" fill="none" fill-rule="evenodd">
        <g id="Group-31">
            <path d="M41.0141,21.9055 C41.0141,33.0115 32.0111,42.0145 20.9061,42.0145 C9.7991,42.0145 0.7961,33.0115 0.7961,21.9055 C0.7961,10.8005 9.7991,1.7965 20.9061,1.7965 C32.0111,1.7965 41.0141,10.8005 41.0141,21.9055" id="Fill-1" fill="#F9F9F7"/>
            <g id="ho-Group-5" transform="translate(0.000000, 0.631500)">
                <mask id="ho-mask-2" fill="white">
                    <use xlink:href="#path-happy-orange"/>
                </mask>
                <g id="Clip-4"/>
                <path d="M20.9057,1.962 C10.2577,1.962 1.5937,10.626 1.5937,21.274 C1.5937,31.922 10.2577,40.586 20.9057,40.586 C31.5537,40.586 40.2177,31.922 40.2177,21.274 C40.2177,10.626 31.5537,1.962 20.9057,1.962 M20.9057,42.18 C9.3787,42.18 0.0007,32.801 0.0007,21.274 C0.0007,9.747 9.3787,0.368 20.9057,0.368 C32.4327,0.368 41.8107,9.747 41.8107,21.274 C41.8107,32.801 32.4327,42.18 20.9057,42.18" id="Fill-3" fill="#F59100" mask="url(#ho-mask-2)"/>
            </g>
            <path d="M5.6821,17.5725 C5.5951,17.5725 5.5061,17.5595 5.4191,17.5325 C4.9491,17.3875 4.6861,16.8885 4.8301,16.4195 C4.8911,16.2245 6.3631,11.6385 11.5321,10.6765 C12.0121,10.5865 12.4801,10.9055 12.5711,11.3885 C12.6611,11.8725 12.3411,12.3375 11.8581,12.4275 C7.7361,13.1955 6.5441,16.9065 6.5331,16.9445 C6.4141,17.3265 6.0621,17.5725 5.6821,17.5725" id="Fill-6" fill="#4F5D5B"/>
            <path d="M16.1157,19.3665 C16.1157,21.4445 14.4117,23.1295 12.3087,23.1295 C10.2077,23.1295 8.5037,21.4445 8.5037,19.3665 C8.5037,17.2885 10.2077,15.6035 12.3087,15.6035 C14.4117,15.6035 16.1157,17.2885 16.1157,19.3665" id="Fill-8" fill="#4F5D5B"/>
            <path d="M14.6391,18.3177 C14.6391,19.2017 13.9521,19.9197 13.1031,19.9197 C12.2551,19.9197 11.5681,19.2017 11.5681,18.3177 C11.5681,17.4327 12.2551,16.7157 13.1031,16.7157 C13.9521,16.7157 14.6391,17.4327 14.6391,18.3177" id="Fill-10" fill="#FCFCFC"/>
            <path d="M11.4751,27.5447 C11.4751,28.4777 10.2801,29.2337 8.8051,29.2337 C7.3311,29.2337 6.1361,28.4777 6.1361,27.5447 C6.1361,26.6117 7.3311,25.8557 8.8051,25.8557 C10.2801,25.8557 11.4751,26.6117 11.4751,27.5447" id="Fill-12" fill="#FCE1CE"/>
            <path d="M30.9643,14.9949 C30.9643,17.0729 29.2603,18.7569 27.1583,18.7569 C25.0563,18.7569 23.3523,17.0729 23.3523,14.9949 C23.3523,12.9169 25.0563,11.2319 27.1583,11.2319 C29.2603,11.2319 30.9643,12.9169 30.9643,14.9949" id="Fill-17" fill="#4F5D5B"/>
            <path d="M29.4877,13.9456 C29.4877,14.8306 28.8007,15.5476 27.9527,15.5476 C27.1037,15.5476 26.4167,14.8306 26.4167,13.9456 C26.4167,13.0606 27.1037,12.3436 27.9527,12.3436 C28.8007,12.3436 29.4877,13.0606 29.4877,13.9456" id="Fill-19" fill="#FCFCFC"/>
            <path d="M22.4477,9.5222 C22.1987,9.5222 21.9517,9.4182 21.7757,9.2172 C21.4527,8.8462 21.4907,8.2832 21.8617,7.9602 C22.0147,7.8262 25.6797,4.7022 30.5817,6.6032 C31.0397,6.7802 31.2677,7.2962 31.0897,7.7552 C30.9127,8.2132 30.3957,8.4412 29.9367,8.2632 C26.0277,6.7472 23.0617,9.2772 23.0327,9.3022 C22.8637,9.4502 22.6547,9.5222 22.4477,9.5222" id="Fill-21" fill="#4F5D5B"/>
            <path d="M36.8227,21.5506 C36.8227,21.5506 23.6657,18.1336 12.7907,32.8076 C12.7907,32.8076 15.6417,38.7246 23.4237,38.5136 L22.8617,36.9836 C22.8577,36.9706 22.8517,36.9586 22.8467,36.9466 C22.7947,36.8286 22.7457,36.7096 22.7007,36.5866 C21.7017,33.8636 22.9947,30.8836 25.5887,29.9326 C28.1827,28.9806 31.0957,30.4166 32.0947,33.1396 C32.1257,33.2216 32.1527,33.3036 32.1787,33.3856 L32.6497,34.6696 C38.3097,29.4526 36.8227,21.5506 36.8227,21.5506" id="Fill-23" fill="#F2900B"/>
            <path d="M13.7719,32.8728 C14.5119,34.0698 17.0139,37.3698 22.2379,37.6728 L22.0879,37.2678 C22.0349,37.1488 21.9789,37.0108 21.9269,36.8708 C21.3709,35.3538 21.4119,33.7198 22.0419,32.2678 C22.6769,30.8018 23.8359,29.6978 25.3039,29.1588 C26.7739,28.6208 28.3719,28.7128 29.8039,29.4188 C31.2239,30.1188 32.3119,31.3388 32.8689,32.8558 C32.9009,32.9428 32.9299,33.0308 32.9589,33.1188 L32.9739,33.1608 C36.4799,29.1578 36.2629,23.9218 36.0849,22.2438 C34.9989,22.0628 32.3419,21.7748 28.9689,22.4998 C24.9699,23.3598 19.1229,25.8628 13.7719,32.8728 M23.0099,39.3438 C15.1169,39.3438 12.1719,33.4218 12.0479,33.1648 L11.8329,32.7168 L12.1279,32.3168 C17.8999,24.5288 24.3339,21.7928 28.7149,20.8698 C33.4979,19.8608 36.8879,20.7158 37.0299,20.7528 L37.5359,20.8848 L37.6319,21.3978 C37.6969,21.7388 39.1359,29.8118 33.2089,35.2758 L32.3009,36.1118 L31.3929,33.6338 C31.3719,33.5628 31.3469,33.4938 31.3219,33.4228 C30.9119,32.3058 30.1139,31.4088 29.0759,30.8968 C28.0499,30.3918 26.9139,30.3238 25.8729,30.7058 C24.8319,31.0878 24.0069,31.8748 23.5519,32.9228 C23.0919,33.9848 23.0639,35.1858 23.4739,36.3028 C23.5119,36.4068 23.5539,36.5088 23.5979,36.6088 C23.6129,36.6408 23.6259,36.6718 23.6369,36.7038 L24.5919,39.3068 L23.4459,39.3368 C23.2989,39.3408 23.1539,39.3438 23.0099,39.3438" id="Fill-25" fill="#4F5D5B"/>
            <path d="M32.0952,33.1394 C31.0962,30.4164 28.1832,28.9804 25.5882,29.9324 C22.9942,30.8844 21.7012,33.8634 22.7002,36.5864 C22.7452,36.7094 22.7942,36.8284 22.8472,36.9464 C22.8522,36.9584 22.8582,36.9714 22.8622,36.9834 L23.4232,38.5144 C24.8672,38.4744 26.4402,38.1604 28.1392,37.4714 C30.0002,36.7154 31.4782,35.7504 32.6502,34.6694 L32.1792,33.3854 C32.1532,33.3034 32.1252,33.2214 32.0952,33.1394" id="Fill-27" fill="#F2900B"/>
            <path d="M27.2426,30.4612 C26.7796,30.4612 26.3166,30.5432 25.8726,30.7062 C24.8316,31.0872 24.0076,31.8752 23.5526,32.9232 C23.0926,33.9852 23.0636,35.1862 23.4736,36.3032 C23.5126,36.4072 23.5546,36.5092 23.5976,36.6082 C23.6126,36.6402 23.6256,36.6712 23.6376,36.7032 L23.9876,37.6582 C25.2346,37.5562 26.5236,37.2372 27.8286,36.7082 C29.2966,36.1112 30.5906,35.3452 31.6826,34.4242 L31.3926,33.6342 C31.3716,33.5632 31.3466,33.4932 31.3216,33.4232 C30.9116,32.3062 30.1136,31.4082 29.0756,30.8972 C28.4886,30.6072 27.8646,30.4612 27.2426,30.4612 Z M22.8536,39.3532 L22.0886,37.2682 C22.0346,37.1492 21.9786,37.0102 21.9276,36.8712 C21.3706,35.3542 21.4116,33.7192 22.0416,32.2672 C22.6776,30.8012 23.8366,29.6972 25.3046,29.1592 C26.7736,28.6202 28.3716,28.7122 29.8046,29.4192 C31.2236,30.1182 32.3116,31.3392 32.8686,32.8562 C32.9006,32.9432 32.9296,33.0312 32.9586,33.1192 L33.6126,34.9022 L33.2086,35.2752 C31.8886,36.4922 30.2876,37.4872 28.4486,38.2342 C26.7546,38.9222 25.0716,39.2932 23.4456,39.3372 L22.8536,39.3532 Z" id="Fill-29" fill="#4F5D5B"/>
        </g>
    </g>
</svg>