<?xml version="1.0" encoding="UTF-8"?>
<svg width="43px" height="46px" viewBox="0 0 43 46" version="1.1" xmlns="http://www.w3.org/2000/svg" xmlns:xlink="http://www.w3.org/1999/xlink">
    <!-- Generator: sketchtool 61 (101010) - https://sketch.com -->
    <title>C07AE217-82C3-47B3-A67F-F9F0B42348BC@1,5x</title>
    <desc>Created with sketchtool.</desc>
    <g id="Asset-Artboard-Page" stroke="none" stroke-width="1" fill="none" fill-rule="evenodd">
        <g id="MENTOR/HAPPY-PLUS-/-fond-grisClair-MENTOR/OHHH/fond-grisClair" transform="translate(0.233954, 0.000000)">
            <g id="Group-38" transform="translate(0.000000, 3.000000)">
                <path d="M40,20.5 C40,31.2692991 31.26956,40 20.4998319,40 C9.73043996,40 1,31.2692991 1,20.5 C1,9.73070092 9.73043996,1 20.4998319,1 C31.26956,1 40,9.73070092 40,20.5" id="Fill-1" fill="#F9F9F6"></path>
                <path d="M20.50017,1.56266897 C10.057983,1.56266897 1.56299601,10.0577264 1.56299601,20.5 C1.56299601,30.9419336 10.057983,39.437671 20.50017,39.437671 C30.942017,39.437671 39.437004,30.9419336 39.437004,20.5 C39.437004,10.0577264 30.942017,1.56266897 20.50017,1.56266897 M20.50017,41 C9.19641421,41 0,31.8038495 0,20.5 C0,9.19615047 9.19641421,0 20.50017,0 C31.8035858,0 41,9.19615047 41,20.5 C41,31.8038495 31.8035858,41 20.50017,41" id="Fill-3" fill="#F19208"></path>
                <path d="M5.91465357,16 C5.82533034,16 5.73458363,15.9851503 5.64454866,15.9538457 C5.16234557,15.7860847 4.89188479,15.2085534 5.04099409,14.6647348 C5.10291537,14.4391806 6.61358115,9.13183268 11.9185269,8.01730567 C12.411762,7.91416075 12.8918299,8.2825928 12.9843559,8.84246503 C13.076882,9.40233725 12.7494821,9.94013566 12.2534001,10.0444846 C8.02246828,10.933056 6.79970087,15.2298245 6.78795718,15.2727681 C6.66624983,15.7158498 6.30504235,16 5.91465357,16" id="Fill-5" fill="#4F5D5B"></path>
                <path d="M16,18 C16,20.2089937 14.2092652,22 11.9998178,22 C9.79073475,22 8,20.2089937 8,18 C8,15.7910063 9.79073475,14 11.9998178,14 C14.2092652,14 16,15.7910063 16,18" id="Fill-7" fill="#4F5D5B"></path>
                <path d="M14,16.5001624 C14,17.3286781 13.3284037,18 12.5,18 C11.6715963,18 11,17.3286781 11,16.5001624 C11,15.6713219 11.6715963,15 12.5,15 C13.3284037,15 14,15.6713219 14,16.5001624" id="Fill-9" fill="#FCFCFC"></path>
                <path d="M28,15.5002019 C28,16.3286233 27.328,17 26.4997895,17 C25.6715789,17 25,16.3286233 25,15.5002019 C25,14.6713767 25.6715789,14 26.4997895,14 C27.328,14 28,14.6713767 28,15.5002019" id="Fill-11" fill="#FCFCFC"></path>
                <path d="M31,16 C31,18.2089937 29.2089824,20 26.9996356,20 C24.7906532,20 23,18.2089937 23,16 C23,13.7910063 24.7906532,12 26.9996356,12 C29.2089824,12 31,13.7910063 31,16" id="Fill-13" fill="#4F5D5B"></path>
                <path d="M29,15.5 C29,16.3284261 28.3286666,17 27.4998306,17 C26.6713334,17 26,16.3284261 26,15.5 C26,14.6715739 26.6713334,14 27.4998306,14 C28.3286666,14 29,14.6715739 29,15.5" id="Fill-15" fill="#FCFCFC"></path>
                <path d="M34.0577425,13 C33.7222644,13 33.3977977,12.8287015 33.2271223,12.5270901 C31.1500212,8.85205511 27.1675956,8.79950957 26.9514068,8.79950957 L26.9448,8.79950957 C26.4265341,8.79950957 26.0036996,8.40086408 26,7.9062354 C25.9959917,7.41055582 26.4111183,7.00560486 26.9304853,7 C27.137498,7.00070061 32.2438118,6.99684727 34.8868945,11.6726997 C35.133915,12.1102289 34.9628726,12.6560019 34.5048019,12.8917562 C34.3620218,12.9649696 34.2089645,13 34.0577425,13" id="Fill-17" fill="#4F5D5B"></path>
                <path d="M11,24.5 C11,25.3284199 10.3284199,26 9.5,26 C8.6718982,26 8,25.3284199 8,24.5 C8,23.6715801 8.6718982,23 9.5,23 C10.3284199,23 11,23.6715801 11,24.5" id="Fill-19" fill="#F4BA6C"></path>
                <path d="M33,21.5 C33,22.3284199 32.3286669,23 31.4998409,23 C30.6716513,23 30,22.3284199 30,21.5 C30,20.6715801 30.6716513,20 31.4998409,20 C32.3286669,20 33,20.6715801 33,21.5" id="Fill-21" fill="#F4BA6C"></path>
                <path d="M29,30.5001842 C29,31.880905 27.880905,33 26.5001842,33 C25.1194635,33 24,31.880905 24,30.5001842 C24,29.1194635 25.1194635,28 26.5001842,28 C27.880905,28 29,29.1194635 29,30.5001842" id="Fill-34" fill="#F09011"></path>
                <path d="M25.9998251,29.2525512 C25.0362703,29.2525512 24.2525512,30.0366202 24.2525512,31.0001749 C24.2525512,31.9637297 25.0362703,32.7474488 25.9998251,32.7474488 C26.9633798,32.7474488 27.7474488,31.9637297 27.7474488,31.0001749 C27.7474488,30.0366202 26.9633798,29.2525512 25.9998251,29.2525512 M25.9998251,34 C24.3456178,34 23,32.6543822 23,31.0001749 C23,29.3459677 24.3456178,28 25.9998251,28 C27.6543822,28 29,29.3459677 29,31.0001749 C29,32.6543822 27.6543822,34 25.9998251,34" id="Fill-36" fill="#4F5D5B"></path>
            </g>
        </g>
    </g>
</svg>