<svg xmlns="http://www.w3.org/2000/svg" xmlns:xlink="http://www.w3.org/1999/xlink" width="91.624" height="91.624" viewBox="0 0 91.624 91.624" version="1.1">
    <!-- Generator: Sketch 52.6 (67491) - http://www.bohemiancoding.com/sketch -->
    <title>MENTOR/HAPPY</title>
    <defs>
      <rect id="Rectangle_Happy" data-name="Rectangle 733" width="91.624" height="91.624" fill="none"/>
    </defs>
    <g id="MENTOR_HAPPY" transform="translate(0 -0.794)" >
      <circle id="Ellipse_9" data-name="Ellipse 9" cx="44.243" cy="44.243" r="44.243" transform="translate(1.568 1.569)" fill="none" stroke="#4e5b59" stroke-width="1.417"/>
      <path id="Tracé_16698" data-name="Tracé 16698" d="M25.429,20.972a8.415,8.415,0,1,1-8.415-8.319,8.367,8.367,0,0,1,8.415,8.319" transform="translate(10.444 15.366)" fill="#4f5d5b"/>
      <path id="Tracé_16699" data-name="Tracé 16699" d="M18.452,17.3a3.4,3.4,0,1,1-3.395-3.541A3.471,3.471,0,0,1,18.452,17.3" transform="translate(14.157 16.715)" fill="#fcfcfc"/>
      <path id="Tracé_16700" data-name="Tracé 16700" d="M39.823,19.806a8.415,8.415,0,1,1-8.415-8.319,8.367,8.367,0,0,1,8.415,8.319" transform="translate(27.923 13.95)" fill="#4f5d5b"/>
      <path id="Tracé_16701" data-name="Tracé 16701" d="M32.843,16.139A3.4,3.4,0,1,1,29.449,12.6a3.471,3.471,0,0,1,3.395,3.541" transform="translate(31.637 15.299)" fill="#fcfcfc"/>
      <path id="Tracé_16702" data-name="Tracé 16702" d="M13.987,25.547a3.614,3.614,0,1,1-3.614-3.614,3.615,3.615,0,0,1,3.614,3.614" transform="translate(8.208 26.635)" fill="#f4ba6c"/>
      <path id="Tracé_16703" data-name="Tracé 16703" d="M38.98,23.288a3.614,3.614,0,1,1-3.614-3.614,3.615,3.615,0,0,1,3.614,3.614" transform="translate(38.559 23.892)" fill="#f4ba6c"/>
      <path id="Tracé_16704" data-name="Tracé 16704" d="M12.165,30.3l-1.034.277.168,1.054A20.4,20.4,0,0,0,24.568,46.886a19.251,19.251,0,0,0,3.791.934,29.155,29.155,0,0,0,5.722.425,32,32,0,0,0,6.26-.786l2.56-.709,1.143-.436a21.833,21.833,0,0,0,13.291-14.81l.177-.859-.771-.419c-.6-.326-14.978-7.85-44.575.071M41.3,44.783l-.576.155a28.89,28.89,0,0,1-6.71.939c-.288.009-.571.011-.853.011A26.337,26.337,0,0,1,28.1,45.42l-.633-.126v-1.24c-.018-.295-.024-.427-.024-.565,0-3.173,3.111-5.755,6.933-5.755s6.935,2.582,6.935,5.755ZM54.519,32.657a19.481,19.481,0,0,1-9.748,10.764l-1.023.5-.1-1.136a1.232,1.232,0,0,0-.044-.2c-.022-.1-.047-.195-.062-.292-.04-.23-.08-.463-.142-.691a8.274,8.274,0,0,0-.286-.806c-.1-.25-.182-.454-.283-.649a8.605,8.605,0,0,0-.456-.737c-.188-.283-.288-.436-.4-.578-.188-.233-.4-.443-.616-.658L41.2,38.02a4.307,4.307,0,0,0-.354-.341,8.161,8.161,0,0,0-.675-.5l-.3-.21c-.124-.089-.244-.177-.376-.255a8.208,8.208,0,0,0-.782-.376l-.4-.184c-.122-.058-.241-.117-.368-.164a9.51,9.51,0,0,0-1.034-.288l-.405-.1c-.093-.027-.184-.055-.281-.073a10.587,10.587,0,0,0-3.727,0,1.883,1.883,0,0,0-.233.064l-.281.08a10.28,10.28,0,0,0-1.24.337c-.113.044-.217.1-.321.151l-.545.259a6.516,6.516,0,0,0-.717.35,3.035,3.035,0,0,0-.292.208l-.489.352a6.124,6.124,0,0,0-.593.438,3.028,3.028,0,0,0-.248.261l-.414.436a5.606,5.606,0,0,0-.467.507,3.318,3.318,0,0,0-.206.323l-.323.523a4.541,4.541,0,0,0-.319.525,2.714,2.714,0,0,0-.14.381l-.206.571a4.294,4.294,0,0,0-.19.554,3.09,3.09,0,0,0-.051.419l-.08.644a3.016,3.016,0,0,0-.06.512v1.2l-1.1-.478A17.874,17.874,0,0,1,14.118,33.1l-.259-.8.815-.2c21.889-5.483,34.83-2.139,39.383-.445l.731.272Z" transform="translate(13.517 32.406)" fill="#4f5d5b"/>
      <path id="Tracé_16705" data-name="Tracé 16705" d="M18.85,37c0,.115,0,.23.016.343.007.08.009.151.009.221v.6a26.122,26.122,0,0,0,5.742.443,27.952,27.952,0,0,0,6.524-.912l0-.463c0-.075.007-.153.007-.228,0-2.741-2.759-4.971-6.149-4.971S18.85,34.259,18.85,37m11.515,0,0,.08a27.859,27.859,0,0,1-5.766.74,25.7,25.7,0,0,1-4.936-.314c0-.071-.007-.142-.013-.224s-.013-.186-.013-.281c0-2.307,2.407-4.185,5.365-4.185S30.365,34.693,30.365,37" transform="translate(22.891 38.895)" fill="#fff"/>
      <path id="Tracé_16706" data-name="Tracé 16706" d="M12.448,29.968l-1.716.461.281,1.754c.08.5,2.055,11.818,13.782,15.875a20.066,20.066,0,0,0,3.939.97,29.57,29.57,0,0,0,4.9.443c.312,0,.629,0,.946-.013A32.494,32.494,0,0,0,41,48.65l.35-.082,2.248-.633,1.089-.368.25-.155A22.623,22.623,0,0,0,58.587,32.091l.295-1.428-1.282-.7c-.607-.33-15.233-8-45.151,0m45.373,1.966a21.847,21.847,0,0,1-13.293,14.81l-1.143.436-2.56.706a32.15,32.15,0,0,1-6.26.788,29.523,29.523,0,0,1-5.722-.425,19.675,19.675,0,0,1-3.791-.934A20.4,20.4,0,0,1,11.786,32.058L11.618,31l1.034-.277c29.6-7.921,43.978-.4,44.573-.073l.771.421Z" transform="translate(13.033 31.98)" fill="#fff"/>
      <path id="Tracé_16707" data-name="Tracé 16707" d="M25.431,31.675c-3.824,0-6.935,2.582-6.935,5.755,0,.137.009.27.027.565v1.24l.633.126a26.33,26.33,0,0,0,5.06.467c.283,0,.567,0,.855-.011a28.854,28.854,0,0,0,6.707-.939l.578-.155.011-1.293c0-3.173-3.111-5.755-6.935-5.755" transform="translate(22.461 38.466)" fill="#fff"/>
      <path id="Tracé_16708" data-name="Tracé 16708" d="M20.472,8.159a1.612,1.612,0,0,0-.27.024A18.89,18.89,0,0,0,5.821,20.5,1.492,1.492,0,0,0,6.8,22.353a1.53,1.53,0,0,0,1.867-.977A15.918,15.918,0,0,1,20.746,11.111a1.488,1.488,0,0,0-.275-2.952" transform="translate(6.989 9.908)" fill="#4e5b59"/>
      <path id="Tracé_16709" data-name="Tracé 16709" d="M27.092,6.791a1.489,1.489,0,0,0,.022,2.978h.044a15.83,15.83,0,0,1,13.43,8.366,1.52,1.52,0,0,0,2.013.6,1.492,1.492,0,0,0,.6-2.02A18.941,18.941,0,0,0,27.092,6.791" transform="translate(31.115 8.247)" fill="#4e5b59"/>
    </g>
</svg>