<?xml version="1.0" encoding="UTF-8"?>
<svg width="42px" height="46px" viewBox="0 0 42 46" version="1.1" xmlns="http://www.w3.org/2000/svg" xmlns:xlink="http://www.w3.org/1999/xlink">
    <!-- Generator: Sketch 52.6 (67491) - http://www.bohemiancoding.com/sketch -->
    <title>MENTOR/bouche droite /  / fond grisClair</title>
    <desc>Created with Sketch.</desc>
    <defs>
        <polygon id="path-1" points="0.0003 0.11 41.811 0.11 41.811 41.921 0.0003 41.921"></polygon>
    </defs>
    <g id="MENTOR/bouche-droite-/--/-fond-grisClair" stroke="none" stroke-width="1" fill="none" fill-rule="evenodd">
        <g id="Group-20" transform="translate(0.000000, -1.000000)">
            <path d="M41.0147,21.9052 C41.0147,33.0112 32.0117,42.0142 20.9057,42.0142 C9.7997,42.0142 0.7967,33.0112 0.7967,21.9052 C0.7967,10.8002 9.7997,1.7972 20.9057,1.7972 C32.0117,1.7972 41.0147,10.8002 41.0147,21.9052" id="Fill-1" fill="#F9F9F7"></path>
            <g id="Group-5" transform="translate(0.000000, 0.889700)">
                <mask id="mask-2" fill="white">
                    <use xlink:href="#path-1"></use>
                </mask>
                <g id="Clip-4"></g>
                <path d="M20.9053,1.704 C10.2573,1.704 1.5933,10.367 1.5933,21.016 C1.5933,31.664 10.2573,40.328 20.9053,40.328 C31.5533,40.328 40.2173,31.664 40.2173,21.016 C40.2173,10.367 31.5533,1.704 20.9053,1.704 M20.9053,41.921 C9.3783,41.921 0.0003,32.543 0.0003,21.016 C0.0003,9.489 9.3783,0.11 20.9053,0.11 C32.4323,0.11 41.8113,9.489 41.8113,21.016 C41.8113,32.543 32.4323,41.921 20.9053,41.921" id="Fill-3" fill="#F59100" mask="url(#mask-2)"></path>
            </g>
            <path d="M12.6162,22.9199 C11.8442,22.9199 11.1762,22.3389 11.0862,21.5539 C10.9882,20.7099 11.5962,19.9439 12.4402,19.8459 L35.8432,17.1479 C36.6852,17.0489 37.4532,17.6579 37.5512,18.5029 C37.6472,19.3469 37.0402,20.1129 36.1962,20.2109 L12.7932,22.9089 C12.7332,22.9159 12.6752,22.9199 12.6162,22.9199 Z" id="Fill-6" fill="#4F5D5B"></path>
            <path d="M17.8926,12.5913 C17.8926,14.6693 16.1886,16.3543 14.0866,16.3543 C11.9846,16.3543 10.2806,14.6693 10.2806,12.5913 C10.2806,10.5133 11.9846,8.8283 14.0866,8.8283 C16.1886,8.8283 17.8926,10.5133 17.8926,12.5913" id="Fill-8" fill="#4F5D5B"></path>
            <path d="M16.416,11.5419 C16.416,12.4269 15.729,13.1439 14.881,13.1439 C14.032,13.1439 13.345,12.4269 13.345,11.5419 C13.345,10.6579 14.032,9.9399 14.881,9.9399 C15.729,9.9399 16.416,10.6579 16.416,11.5419" id="Fill-10" fill="#FCFCFC"></path>
            <path d="M32.7422,11.8364 C32.7422,13.9144 31.0382,15.5994 28.9352,15.5994 C26.8342,15.5994 25.1302,13.9144 25.1302,11.8364 C25.1302,9.7584 26.8342,8.0734 28.9352,8.0734 C31.0382,8.0734 32.7422,9.7584 32.7422,11.8364" id="Fill-12" fill="#4F5D5B"></path>
            <path d="M31.2657,10.7875 C31.2657,11.6715 30.5787,12.3895 29.7297,12.3895 C28.8817,12.3895 28.1947,11.6715 28.1947,10.7875 C28.1947,9.9025 28.8817,9.1855 29.7297,9.1855 C30.5787,9.1855 31.2657,9.9025 31.2657,10.7875" id="Fill-14" fill="#FCFCFC"></path>
            <path d="M8.9141,19.7617 C8.9141,20.6947 7.7191,21.4507 6.2441,21.4507 C4.7691,21.4507 3.5751,20.6947 3.5751,19.7617 C3.5751,18.8287 4.7691,18.0727 6.2441,18.0727 C7.7191,18.0727 8.9141,18.8287 8.9141,19.7617" id="Fill-16" fill="#F4BA6C"></path>
            <path d="M33.9522,47.8915 C33.9522,48.4425 28.3622,48.8895 21.4672,48.8895 C14.5702,48.8895 8.9802,48.4425 8.9802,47.8915 C8.9802,47.3405 14.5702,46.8935 21.4672,46.8935 C28.3622,46.8935 33.9522,47.3405 33.9522,47.8915" id="Fill-18" fill="#FCFCFC"></path>
        </g>
    </g>
</svg>