<svg xmlns="http://www.w3.org/2000/svg" xmlns:xlink="http://www.w3.org/1999/xlink" width="42px" height="48px" viewBox="0 0 42 48" version="1.1">
    <title>img mentor clin doeil@1,5x</title>
    <defs>
        <polygon id="path-1-m" points="0.0003 0.322 41.9683 0.322 41.9683 42.2902 0.0003 42.2902"/>
    </defs>
    <g id="Import-Fichier" stroke="none" stroke-width="1" fill="none" fill-rule="evenodd">
        <g id="03-05_UpDéjeuner-pop-in-info-OK-Copy">
            <g id="Bloc-info-m">
                <g id="Group-4-m">
                    <g id="Group-30-m">
                        <path d="M41.1689,21.9843 C41.1689,33.1313 32.1319,42.1693 20.9839,42.1693 C9.8369,42.1693 0.7999,33.1313 0.7999,21.9843 C0.7999,10.8373 9.8369,1.7993 20.9839,1.7993 C32.1319,1.7993 41.1689,10.8373 41.1689,21.9843" id="Fill-1" fill="#F9F9F7"/>
                        <g id="Group-5-m">
                            <mask id="mask-2-m" fill="white">
                                <use xlink:href="#path-1-m"/>
                            </mask>
                            <g id="Clip-4-m"/>
                            <path d="M20.9843,1.9212 C10.2963,1.9212 1.5993,10.6172 1.5993,21.3062 C1.5993,31.9942 10.2963,40.6912 20.9843,40.6912 C31.6723,40.6912 40.3693,31.9942 40.3693,21.3062 C40.3693,10.6172 31.6723,1.9212 20.9843,1.9212 M20.9843,42.2902 C9.4143,42.2902 0.0003,32.8772 0.0003,21.3062 C0.0003,9.7352 9.4143,0.3212 20.9843,0.3212 C32.5553,0.3212 41.9683,9.7352 41.9683,21.3062 C41.9683,32.8772 32.5553,42.2902 20.9843,42.2902" id="Fill-3" fill="#F59100" mask="url(#mask-2-m)"/>
                        </g>
                        <path d="M8.0107,14.5883 C7.9237,14.5883 7.8347,14.5753 7.7467,14.5483 C7.2757,14.4023 7.0107,13.9023 7.1567,13.4303 C7.2167,13.2343 8.6947,8.6323 13.8827,7.6663 C14.3647,7.5763 14.8347,7.8953 14.9257,8.3813 C15.0157,8.8663 14.6957,9.3333 14.2097,9.4233 C10.0727,10.1943 8.8767,13.9203 8.8647,13.9583 C8.7457,14.3413 8.3927,14.5883 8.0107,14.5883" id="Fill-6" fill="#4F5D5B"/>
                        <path d="M14.6913,15.7084 C14.6913,16.4224 14.1353,17.0014 13.4513,17.0014 C12.7663,17.0014 12.2113,16.4224 12.2113,15.7084 C12.2113,14.9944 12.7663,14.4154 13.4513,14.4154 C14.1353,14.4154 14.6913,14.9944 14.6913,15.7084" id="Fill-8" fill="#FCFCFC"/>
                        <path d="M29.4403,15.4496 C29.4403,16.1636 28.8853,16.7426 28.2003,16.7426 C27.5153,16.7426 26.9613,16.1636 26.9613,15.4496 C26.9613,14.7356 27.5153,14.1566 28.2003,14.1566 C28.8853,14.1566 29.4403,14.7356 29.4403,15.4496" id="Fill-10" fill="#FCFCFC"/>
                        <path d="M10.5263,25.6976 C10.5263,26.6346 9.3263,27.3926 7.8463,27.3926 C6.3663,27.3926 5.1673,26.6346 5.1673,25.6976 C5.1673,24.7616 6.3663,24.0026 7.8463,24.0026 C9.3263,24.0026 10.5263,24.7616 10.5263,25.6976" id="Fill-12" fill="#F4BA6C"/>
                        <path d="M36.8456,24.5458 C36.8456,25.4818 35.6456,26.2408 34.1656,26.2408 C32.6856,26.2408 31.4866,25.4818 31.4866,24.5458 C31.4866,23.6088 32.6856,22.8508 34.1656,22.8508 C35.6456,22.8508 36.8456,23.6088 36.8456,24.5458" id="Fill-14" fill="#F4BA6C"/>
                        <path d="M26.6737,35.3646 C26.6657,35.2796 26.6367,35.2006 26.6227,35.1176 C26.6027,34.9976 26.5807,34.8796 26.5497,34.7636 C26.5117,34.6256 26.4607,34.4926 26.4067,34.3606 C26.3627,34.2506 26.3197,34.1416 26.2657,34.0356 C26.1977,33.9076 26.1187,33.7886 26.0377,33.6676 C25.9727,33.5696 25.9097,33.4706 25.8357,33.3786 C25.7427,33.2636 25.6367,33.1586 25.5307,33.0526 C25.4477,32.9696 25.3697,32.8836 25.2787,32.8066 C25.1607,32.7066 25.0297,32.6196 24.9017,32.5316 C24.8047,32.4646 24.7137,32.3936 24.6107,32.3346 C24.4667,32.2516 24.3117,32.1856 24.1557,32.1166 C24.0537,32.0706 23.9567,32.0166 23.8497,31.9776 C23.6707,31.9126 23.4817,31.8696 23.2927,31.8246 C23.1967,31.8026 23.1077,31.7686 23.0107,31.7516 C22.7197,31.6996 22.4197,31.6716 22.1117,31.6716 C21.7967,31.6716 21.4887,31.6996 21.1917,31.7536 C21.1077,31.7686 21.0317,31.8006 20.9497,31.8196 C20.7407,31.8686 20.5297,31.9156 20.3337,31.9886 C20.2327,32.0266 20.1427,32.0826 20.0447,32.1266 C19.8797,32.2016 19.7097,32.2696 19.5577,32.3606 C19.4597,32.4186 19.3777,32.4936 19.2857,32.5576 C19.1487,32.6546 19.0037,32.7436 18.8797,32.8536 C18.7937,32.9286 18.7267,33.0186 18.6477,33.0996 C18.5357,33.2156 18.4167,33.3246 18.3197,33.4496 C18.2487,33.5426 18.1997,33.6466 18.1377,33.7446 C18.0547,33.8736 17.9637,33.9976 17.8977,34.1346 C17.8457,34.2406 17.8197,34.3566 17.7777,34.4676 C17.7257,34.6076 17.6627,34.7436 17.6287,34.8906 C17.6017,35.0066 17.6007,35.1306 17.5847,35.2496 C17.5657,35.3956 17.5327,35.5376 17.5307,35.6876 C14.7507,34.4766 13.6517,32.1186 13.2527,30.8886 C23.2047,28.3976 29.0517,29.9786 30.9227,30.6756 C30.5087,31.8016 29.3847,34.0296 26.6737,35.3646 L26.6737,35.3646 Z M24.8997,36.0296 C23.9887,36.2756 22.9957,36.4146 21.9377,36.4436 C21.0097,36.4696 20.1367,36.4016 19.3307,36.2426 L19.3307,35.9726 C19.3307,35.9406 19.3287,35.9086 19.3257,35.8706 C19.3217,35.8196 19.3197,35.7676 19.3197,35.7156 C19.3197,34.4716 20.5717,33.4596 22.1117,33.4596 C23.6517,33.4596 24.9027,34.4716 24.9027,35.7156 C24.9027,35.7516 24.9027,35.7866 24.9007,35.8216 L24.8997,36.0296 Z M32.4357,29.3816 C32.1587,29.2316 25.5197,25.7476 11.9367,29.3836 L11.1567,29.5916 L11.2837,30.3876 C11.3207,30.6146 12.2177,35.7536 17.5427,37.5946 L17.5427,37.6326 L18.1987,37.8126 C18.1997,37.8126 18.1997,37.8126 18.1997,37.8126 L19.3307,38.1216 L19.3307,38.0346 C20.0417,38.1546 20.7777,38.2366 21.5577,38.2366 C21.6987,38.2366 21.8427,38.2346 21.9867,38.2316 C23.0117,38.2026 23.9837,38.0756 24.8997,37.8646 L24.8997,37.9376 L26.0787,37.5396 L26.6867,37.3346 L26.6867,37.3026 C31.8077,35.2456 32.8417,30.5536 32.8837,30.3466 L33.0177,29.6976 L32.4357,29.3816 Z" id="Fill-18" fill="#4F5D5B"/>
                        <path d="M16.7343,18.7055 C16.7683,20.7905 15.0863,22.5095 12.9753,22.5435 C10.8663,22.5785 9.1293,20.9155 9.0943,18.8305 C9.0603,16.7445 10.7433,15.0255 12.8523,14.9915 C14.9623,14.9565 16.7003,16.6195 16.7343,18.7055" id="Fill-20" fill="#4F5D5B"/>
                        <path d="M16.3603,17.747 C16.3743,18.635 15.6963,19.366 14.8443,19.379 C13.9943,19.393 13.2923,18.685 13.2773,17.797 C13.2623,16.91 13.9413,16.179 14.7923,16.165 C15.6433,16.151 16.3453,16.859 16.3603,17.747" id="Fill-22" fill="#FCFCFC"/>
                        <path d="M31.6249,17.7045 C31.6589,19.7895 29.9769,21.5085 27.8659,21.5435 C25.7569,21.5775 24.0199,19.9145 23.9849,17.8295 C23.9509,15.7435 25.6339,14.0245 27.7429,13.9905 C29.8529,13.9555 31.5909,15.6185 31.6249,17.7045" id="Fill-24" fill="#4F5D5B"/>
                        <path d="M30.9735,16.4525 C30.9885,17.3405 30.3095,18.0715 29.4585,18.0855 C28.6075,18.0995 27.9055,17.3905 27.8905,16.5035 C27.8765,15.6155 28.5545,14.8845 29.4065,14.8705 C30.2565,14.8565 30.9585,15.5645 30.9735,16.4525" id="Fill-26" fill="#FCFCFC"/>
                        <path d="M33.9706,17.4496 L33.9636,17.4496 C33.7596,17.4486 28.9266,17.3586 26.5076,12.6676 C26.2816,12.2286 26.4526,11.6896 26.8926,11.4636 C27.3306,11.2376 27.8696,11.4096 28.0966,11.8476 C30.0096,15.5586 33.8196,15.6586 33.9816,15.6616 C34.4736,15.6696 34.8676,16.0736 34.8636302,16.5656 C34.8576,17.0556 34.4596,17.4496 33.9706,17.4496" id="Fill-28" fill="#4F5D5B"/>
                    </g>
                </g>
            </g>
        </g>
    </g>
</svg>