<svg xmlns="http://www.w3.org/2000/svg" xmlns:xlink="http://www.w3.org/1999/xlink" width="57px" height="28px" viewBox="0 0 57 28" version="1.1">
    <!-- Generator: Sketch 53.2 (72643) - https://sketchapp.com -->
    <title>MENTOR/bulle/fondblanc</title>
    <desc>Created with Sketch.</desc>
    <defs>
        <polygon id="path-1" points="0.0191724216 0.657851352 6.167 0.657851352 6.167 6.81292093 0.0191724216 6.81292093"/>
    </defs>
    <g id="MENTOR/bulle/fondblanc" stroke="none" stroke-width="1" fill="none" fill-rule="evenodd">
        <path d="M39.7346,6.9221 C39.1566,6.9221 38.6866,7.3911 38.6866,7.9681 C38.6866,8.5451 39.1566,9.0151 39.7346,9.0151 C40.3126,9.0151 40.7836,8.5451 40.7836,7.9681 C40.7836,7.3911 40.3126,6.9221 39.7346,6.9221 M39.7346,10.3201 C38.4366,10.3201 37.3806,9.2651 37.3806,7.9681 C37.3806,6.6721 38.4366,5.6161 39.7346,5.6161 C41.0336,5.6161 42.0886,6.6721 42.0886,7.9681 C42.0886,9.2651 41.0336,10.3201 39.7346,10.3201" id="Fill-1" fill="#F29008"/>
        <path d="M18.092,2.7986 L20.117,2.7846 L20.104,0.7626 C20.101,0.3086 20.496,0.0046 21.102,0.0006 C21.669,-0.0034 22.125,0.2956 22.128,0.7486 L22.142,2.7716 L24.149,2.7586 C24.546,2.7566 24.927,3.2066 24.931,3.7736 C24.935,4.3786 24.559,4.7776 24.161,4.7806 L22.155,4.7936 L22.168,6.7966 C22.171,7.1936 21.72,7.5936 21.152,7.5976 C20.546,7.6016 20.147,7.2076 20.144,6.8096 L20.13,4.8076 L18.106,4.8206 C17.651,4.8236 17.346,4.4286 17.342,3.8236 C17.338,3.2566 17.638,2.8016 18.092,2.7986" id="Fill-3" fill="#76B0BE"/>
        <g id="Group-7" transform="translate(51.000000, 14.820400)">
            <mask id="mask-2" fill="white">
                <use xlink:href="#path-1"/>
            </mask>
            <g id="Clip-6"/>
            <path d="M0.6262,2.9249 L2.2672,2.9139 L2.2562,1.2749 C2.2542,0.9079 2.5742,0.6609 3.0642,0.6579 C3.5242,0.6539 3.8942,0.8969 3.8972,1.2639 L3.9072,2.9029 L5.5322,2.8919 C5.8552,2.8899 6.1642,3.2559 6.1672,3.7149 C6.1702,4.2049 5.8652,4.5289 5.5432,4.5299 L3.9182,4.5409 L3.9292,6.1639 C3.9312,6.4859 3.5652,6.8099 3.1052,6.8129 C2.6142,6.8159 2.2902,6.4959 2.2882,6.1749 L2.2772,4.5519 L0.6382,4.5629 C0.2692,4.5659 0.0222,4.2449 0.0192,3.7559 C0.0162,3.2959 0.2582,2.9269 0.6262,2.9249" id="Fill-5" fill="#76B0BE" mask="url(#mask-2)"/>
        </g>
        <path d="M4.6389,12.7063 L6.1329,12.0283 L5.4549,10.5363 C5.3039,10.2023 5.4949,9.8453 5.9429,9.6433 C6.3619,9.4533 6.7969,9.5243 6.9499,9.8583 L7.6259,11.3513 L9.1069,10.6793 C9.3999,10.5463 9.8299,10.7533 10.0209,11.1723 C10.2229,11.6183 10.0759,12.0383 9.7839,12.1703 L8.3029,12.8423 L8.9739,14.3203 C9.1069,14.6133 8.9049,15.0583 8.4859,15.2483 C8.0389,15.4503 7.6129,15.2903 7.4799,14.9983 L6.8099,13.5203 L5.3159,14.1983 C4.9809,14.3503 4.6239,14.1583 4.4219,13.7123 C4.2329,13.2933 4.3029,12.8583 4.6389,12.7063" id="Fill-8" fill="#F29008"/>
        <path d="M3.3547,24.4221 C2.7767,24.4221 2.3057,24.8911 2.3057,25.4681 C2.3057,26.0451 2.7767,26.5141 3.3547,26.5141 C3.9327,26.5141 4.4027,26.0451 4.4027,25.4681 C4.4027,24.8911 3.9327,24.4221 3.3547,24.4221 M3.3547,27.8201 C2.0557,27.8201 1.0007,26.7651 1.0007,25.4681 C1.0007,24.1721 2.0557,23.1161 3.3547,23.1161 C4.6527,23.1161 5.7087,24.1721 5.7087,25.4681 C5.7087,26.7651 4.6527,27.8201 3.3547,27.8201" id="Fill-10" fill="#76B0BE"/>
    </g>
</svg>