<?xml version="1.0" encoding="UTF-8"?>
<svg width="42px" height="46px" viewBox="0 0 42 46" version="1.1" xmlns="http://www.w3.org/2000/svg" xmlns:xlink="http://www.w3.org/1999/xlink">
    <!-- Generator: Sketch 52.6 (67491) - http://www.bohemiancoding.com/sketch -->
    <title>MENTOR/CLIN D'OEIL / fond grisClair</title>
    <desc>Created with Sketch.</desc>
    <defs>
        <polygon id="path-1" points="0.0001 0.1695 42.096 0.1695 42.096 42.2655 0.0001 42.2655"></polygon>
    </defs>
    <g id="MENTOR/CLIN-D'OEIL-/-fond-grisClair" stroke="none" stroke-width="1" fill="none" fill-rule="evenodd">
        <g id="Group-25">
            <path d="M41.2933,22.0481 C41.2933,33.2291 32.2303,42.2941 21.0483,42.2941 C9.8663,42.2941 0.8023,33.2291 0.8023,22.0481 C0.8023,10.8661 9.8663,1.8021 21.0483,1.8021 C32.2303,1.8021 41.2933,10.8661 41.2933,22.0481" id="Fill-1" fill="#F9F9F7"></path>
            <g id="wo-Group-5" transform="translate(0.000000, 0.830800)">
                <mask id="wo-mask-2" fill="white">
                    <use xlink:href="#path-1"></use>
                </mask>
                <g id="Clip-4"></g>
                <path d="M21.0481,1.7735 C10.3261,1.7735 1.6051,10.4965 1.6051,21.2175 C1.6051,31.9385 10.3261,40.6605 21.0481,40.6605 C31.7691,40.6605 40.4911,31.9385 40.4911,21.2175 C40.4911,10.4965 31.7691,1.7735 21.0481,1.7735 M21.0481,42.2655 C9.4421,42.2655 0.0001,32.8235 0.0001,21.2175 C0.0001,9.6115 9.4421,0.1695 21.0481,0.1695 C32.6531,0.1695 42.0961,9.6115 42.0961,21.2175 C42.0961,32.8235 32.6531,42.2655 21.0481,42.2655" id="Fill-3" fill="#F59100" mask="url(#wo-mask-2)"></path>
            </g>
            <path d="M5.721,16.6389 C5.633,16.6389 5.544,16.6259 5.456,16.5989 C4.983,16.4529 4.717,15.9509 4.864,15.4769 C4.924,15.2819 6.407,10.6649 11.611,9.6959 C12.094,9.6049 12.565,9.9259 12.656,10.4129 C12.746,10.8999 12.425,11.3679 11.939,11.4589 C7.788,12.2319 6.589,15.9689 6.577,16.0069 C6.458,16.3919 6.104,16.6389 5.721,16.6389" id="Fill-6" fill="#4F5D5B"></path>
            <path d="M31.1751,17.6853 C31.1751,19.7773 29.4601,21.4733 27.3441,21.4733 C25.2271,21.4733 23.5121,19.7773 23.5121,17.6853 C23.5121,15.5933 25.2271,13.8973 27.3441,13.8973 C29.4601,13.8973 31.1751,15.5933 31.1751,17.6853" id="Fill-8" fill="#4F5D5B"></path>
            <path d="M29.6888,16.6292 C29.6888,17.5202 28.9968,18.2412 28.1428,18.2412 C27.2898,18.2412 26.5968,17.5202 26.5968,16.6292 C26.5968,15.7382 27.2898,15.0162 28.1428,15.0162 C28.9968,15.0162 29.6888,15.7382 29.6888,16.6292" id="Fill-10" fill="#FCFCFC"></path>
            <path d="M34.0345,14.1414 C33.7155,14.1414 33.4065,13.9704 33.2445,13.6704 C31.2685,10.0074 27.4805,9.9554 27.2755,9.9554 L27.2685,9.9554 C26.7765,9.9554 26.3745,9.5584 26.3705,9.0644 C26.3665,8.5714 26.7625,8.1674 27.2555,8.1624 C27.4545,8.1604 32.3085,8.1594 34.8225,12.8184 C35.0575,13.2544 34.8945,13.7984 34.4595,14.0334 C34.3235,14.1064 34.1785,14.1414 34.0345,14.1414" id="Fill-12" fill="#4F5D5B"></path>
            <path d="M11.427,27.5667 C11.427,28.4757 10.691,29.2127 9.781,29.2127 C8.872,29.2127 8.135,28.4757 8.135,27.5667 C8.135,26.6577 8.872,25.9207 9.781,25.9207 C10.691,25.9207 11.427,26.6577 11.427,27.5667" id="Fill-14" fill="#F4BA6C"></path>
            <path d="M35.1995,23.3821 C35.1995,24.2911 34.4625,25.0281 33.5535,25.0281 C32.6435,25.0281 31.9075,24.2911 31.9075,23.3821 C31.9075,22.4731 32.6435,21.7361 33.5535,21.7361 C34.4625,21.7361 35.1995,22.4731 35.1995,23.3821" id="Fill-16" fill="#F4BA6C"></path>
            <path d="M26.2757,36.1067 C26.2677,36.0217 26.2387,35.9417 26.2237,35.8577 C26.2037,35.7377 26.1827,35.6197 26.1507,35.5037 C26.1127,35.3647 26.0617,35.2317 26.0077,35.0997 C25.9637,34.9887 25.9207,34.8797 25.8657,34.7737 C25.7977,34.6457 25.7187,34.5247 25.6377,34.4037 C25.5717,34.3057 25.5097,34.2077 25.4347,34.1147 C25.3407,33.9987 25.2357,33.8937 25.1297,33.7877 C25.0457,33.7037 24.9667,33.6177 24.8767,33.5407 C24.7567,33.4397 24.6267,33.3537 24.4967,33.2637 C24.3997,33.1977 24.3087,33.1267 24.2067,33.0667 C24.0617,32.9837 23.9067,32.9187 23.7527,32.8487 C23.6477,32.8027 23.5497,32.7487 23.4417,32.7097 C23.2627,32.6447 23.0737,32.6017 22.8847,32.5567 C22.7897,32.5337 22.6987,32.4997 22.6007,32.4827 C22.3087,32.4307 22.0077,32.4017 21.6997,32.4017 C21.3827,32.4017 21.0747,32.4307 20.7757,32.4847 C20.6827,32.5017 20.5987,32.5357 20.5077,32.5577 C20.3077,32.6057 20.1047,32.6497 19.9167,32.7207 C19.8107,32.7597 19.7167,32.8177 19.6157,32.8637 C19.4537,32.9377 19.2877,33.0037 19.1367,33.0937 C19.0407,33.1507 18.9587,33.2257 18.8667,33.2897 C18.7277,33.3867 18.5837,33.4777 18.4577,33.5877 C18.3717,33.6637 18.3037,33.7537 18.2247,33.8357 C18.1127,33.9507 17.9937,34.0607 17.8967,34.1867 C17.8257,34.2777 17.7767,34.3817 17.7137,34.4797 C17.6307,34.6087 17.5397,34.7337 17.4717,34.8727 C17.4207,34.9807 17.3927,35.0967 17.3517,35.2097 C17.2987,35.3487 17.2377,35.4847 17.2027,35.6307 C17.1737,35.7517 17.1727,35.8787 17.1577,36.0027 C17.1387,36.1457 17.1067,36.2837 17.1057,36.4307 C14.3157,35.2157 13.2127,32.8507 12.8137,31.6177 C22.7967,29.1177 28.6607,30.7047 30.5367,31.4027 C30.1227,32.5317 28.9947,34.7677 26.2757,36.1067 Z M24.4957,36.7737 C23.5817,37.0207 22.5857,37.1597 21.5247,37.1887 C20.5947,37.2137 19.7187,37.1467 18.9097,36.9867 L18.9097,36.7167 C18.9097,36.6837 18.9087,36.6517 18.9057,36.6157 C18.9007,36.5637 18.8987,36.5117 18.8987,36.4587 C18.8987,35.2107 20.1547,34.1957 21.6997,34.1957 C23.2437,34.1957 24.4997,35.2107 24.4997,36.4587 C24.4997,36.4937 24.4987,36.5287 24.4967,36.5637 L24.4957,36.7737 Z M32.0537,30.1057 C31.7777,29.9547 25.1177,26.4607 11.4927,30.1067 L10.7117,30.3157 L10.8387,31.1147 C10.8767,31.3427 11.7747,36.4967 17.1167,38.3437 L17.1167,38.3807 L17.7757,38.5617 L18.9097,38.8727 L18.9097,38.7847 C19.6237,38.9047 20.3607,38.9877 21.1427,38.9877 C21.2857,38.9877 21.4287,38.9857 21.5747,38.9817 C22.6007,38.9537 23.5767,38.8257 24.4957,38.6147 L24.4957,38.6877 L25.6777,38.2877 L26.2887,38.0827 L26.2887,38.0497 C31.4237,35.9877 32.4617,31.2807 32.5047,31.0737 L32.6377,30.4227 L32.0537,30.1057 Z" id="Fill-18" fill="#4F5D5B"></path>
            <path d="M11.5433,22.5716 C10.3363,22.5716 8.9793,22.3156 7.5543,21.5886 C7.1123,21.3636 6.9383,20.8226 7.1633,20.3826 C7.3883,19.9406 7.9283,19.7656 8.3693,19.9906 C12.0983,21.8946 15.2623,19.7486 15.3953,19.6556 C15.8003,19.3746 16.3583,19.4726 16.6423,19.8776 C16.9263,20.2816 16.8303,20.8376 16.4273,21.1226 C16.3103,21.2056 14.3303,22.5716 11.5433,22.5716" id="Fill-20" fill="#4F5D5B"></path>
        </g>
    </g>
</svg>