<?xml version="1.0" encoding="UTF-8"?>
<svg width="925px" height="411px" viewBox="0 0 925 411" version="1.1" xmlns="http://www.w3.org/2000/svg" xmlns:xlink="http://www.w3.org/1999/xlink">
    <title>2F224406-68D1-4384-B2C1-16789B766716@1,5x</title>
    <defs>
        <polygon id="path-1" points="0 0.34107863 5.05340066 0.34107863 5.05340066 5.45232137 0 5.45232137"></polygon>
    </defs>
    <g id="Financeur_Extranet-/-UI" stroke="none" stroke-width="1" fill="none" fill-rule="evenodd">
        <g id="Page_404" transform="translate(-258.000000, -246.000000)">
            <g id="Group" transform="translate(195.000000, 199.000000)">
                <g id="V2/Image-Fond-/-404" transform="translate(63.000000, 24.000000)">
                    <g id="Group-199">
                        <g id="Group-198" transform="translate(0.000000, 24.000000)">
                            <path d="M189.3364,197.1496 L192.6224,191.4416 L192.6224,280.3346 L186.7924,280.3346 C197.3634,289.6236 215.6674,297.7466 247.3264,299.0306 C255.2844,299.3566 263.3304,299.1456 271.1384,298.4946 L271.1384,280.3346 L242.6024,280.3346 L242.6024,123.3016 L192.1034,123.3016 L138.6544,207.7456 C142.4034,209.1046 146.1164,210.9056 149.6404,213.2856 C156.8804,218.1766 162.5174,224.8996 166.5224,233.3646 L189.3364,197.1496 Z" id="Fill-61"></path>
                            <path d="M166.5224,233.3646 L189.3364,197.1496 L192.6224,191.4416 L192.6224,280.3346 L186.7924,280.3346 C197.3634,289.6236 215.6674,297.7466 247.3264,299.0306 C255.2844,299.3566 263.3304,299.1456 271.1384,298.4946 L271.1384,280.3346 L242.6024,280.3346 L242.6024,123.3016 L192.1034,123.3016 L138.6544,207.7456 C142.4034,209.1046 146.1164,210.9056 149.6404,213.2856 C156.8804,218.1766 162.5174,224.8996 166.5224,233.3646 Z" id="Stroke-63" stroke="#585856" stroke-width="1.417"></path>
                            <path d="M234.2685,333.4466 C214.4435,332.6426 197.1905,328.7376 184.3765,322.1546 C179.3785,319.5876 175.0935,316.6376 171.4995,313.3346 L123.9345,313.3346 L152.6155,267.8046 C148.6975,259.1806 143.1055,252.3656 135.8555,247.4656 C132.3395,245.0896 128.6255,243.3076 124.8785,241.9716 L74.1265,322.1556 L76.3745,353.6286 L179.6225,353.6286 L179.6225,408.1066 L229.6025,408.1066 L229.6025,353.6286 L258.1385,353.6286 L258.1385,332.9346 C252.8405,333.3656 247.4255,333.6016 241.9765,333.6016 C239.4115,333.6016 236.8385,333.5506 234.2685,333.4466" id="Fill-65"></path>
                            <path d="M234.2685,333.4466 C214.4435,332.6426 197.1905,328.7376 184.3765,322.1546 C179.3785,319.5876 175.0935,316.6376 171.4995,313.3346 L123.9345,313.3346 L152.6155,267.8046 C148.6975,259.1806 143.1055,252.3656 135.8555,247.4656 C132.3395,245.0896 128.6255,243.3076 124.8785,241.9716 L74.1265,322.1556 L76.3745,353.6286 L179.6225,353.6286 L179.6225,408.1066 L229.6025,408.1066 L229.6025,353.6286 L258.1385,353.6286 L258.1385,332.9346 C252.8405,333.3656 247.4255,333.6016 241.9765,333.6016 C239.4115,333.6016 236.8385,333.5506 234.2685,333.4466 Z" id="Stroke-67" stroke="#585856" stroke-width="1.417"></path>
                            <path d="M172.7568,279.2904 C171.6108,271.0184 169.5228,263.7044 166.5228,257.3644 L165.6158,258.8054 C168.3508,264.8244 170.2768,271.7164 171.3528,279.4854 C172.7028,289.2374 177.1198,297.5484 184.4998,304.3344 L186.7928,304.3344 C176.5978,295.3764 173.5928,285.3344 172.7568,279.2904" id="Fill-69" fill="#F59100"></path>
                            <path d="M98.8828,229.7005 L99.2268,231.0755 C99.4618,231.0165 119.1098,226.2815 137.8788,232.9715 L138.6548,231.7455 C119.3638,224.7515 99.1248,229.6405 98.8828,229.7005" id="Fill-71" fill="#F59100"></path>
                            <path d="M701.6496,292.0627 C706.9396,289.7237 711.4446,287.2567 715.1506,284.8227 L681.3066,284.8227 L733.7076,201.6377 L736.9946,195.9297 L736.9946,251.2937 C746.4206,238.3077 762.0696,223.6847 779.5246,219.1467 C782.1066,218.4757 784.5856,218.0787 786.9746,217.8987 L786.9746,127.7907 L736.4746,127.7907 L631.4986,293.6437 L632.0896,301.9077 C635.1646,302.3397 638.2846,302.6607 641.4516,302.8557 C657.7786,303.8647 672.2436,301.5127 683.5366,298.4427 C691.1496,296.3737 697.3206,293.9767 701.6496,292.0627 Z" id="Fill-73"></path>
                            <path d="M683.5366,298.4427 C691.1496,296.3737 697.3206,293.9767 701.6496,292.0627 C706.9396,289.7237 711.4446,287.2567 715.1506,284.8227 L681.3066,284.8227 L733.7076,201.6377 L736.9946,195.9297 L736.9946,251.2937 C746.4206,238.3077 762.0696,223.6847 779.5246,219.1467 C782.1066,218.4757 784.5856,218.0787 786.9746,217.8987 L786.9746,127.7907 L736.4746,127.7907 L631.4986,293.6437 L632.0896,301.9077 C635.1646,302.3397 638.2846,302.6607 641.4516,302.8557 C657.7786,303.8647 672.2436,301.5127 683.5366,298.4427 Z" id="Stroke-75" stroke="#585856" stroke-width="1.417"></path>
                            <path d="M752.6811,270.6087 L754.7821,299.0947 L737.1111,300.3977 C733.4221,303.3977 728.7971,306.4357 723.4801,309.2717 C713.8401,314.4147 693.8661,323.0877 668.4221,323.3887 C665.5651,323.4227 662.7431,323.3407 659.9501,323.1637 L662.8471,343.0157 L757.5051,336.0377 L761.1881,385.9837 L807.0101,382.6047 L803.3281,332.6587 L829.4901,330.7297 L826.7661,293.7877 L800.6041,295.7157 L796.1751,235.6367 C794.0651,235.9687 791.9251,236.5037 789.7541,237.2417 C774.1581,242.5477 760.2731,257.9147 752.6811,270.6087" id="Fill-77"></path>
                            <path d="M752.6811,270.6087 L754.7821,299.0947 L737.1111,300.3977 C733.4221,303.3977 728.7971,306.4357 723.4801,309.2717 C713.8401,314.4147 693.8661,323.0877 668.4221,323.3887 C665.5651,323.4227 662.7431,323.3407 659.9501,323.1637 L662.8471,343.0157 L757.5051,336.0377 L761.1881,385.9837 L807.0101,382.6047 L803.3281,332.6587 L829.4901,330.7297 L826.7661,293.7877 L800.6041,295.7157 L796.1751,235.6367 C794.0651,235.9687 791.9251,236.5037 789.7541,237.2417 C774.1581,242.5477 760.2731,257.9147 752.6811,270.6087 Z" id="Stroke-79" stroke="#585856" stroke-width="1.417"></path>
                            <path d="M719.7885,297.7142 L722.3585,297.7142 C729.4925,292.7382 733.7435,287.6672 733.7465,283.6482 C733.7505,280.0332 736.6875,273.6802 741.6325,266.6442 L741.6325,264.1862 C735.7915,272.2312 732.3335,279.6492 732.3305,283.6462 C732.3265,287.0072 728.0555,292.2822 719.7885,297.7142" id="Fill-81" fill="#F59100"></path>
                            <path d="M791.6127,230.7904 L791.6127,232.1844 C807.7487,230.8484 821.4557,240.0844 832.4357,259.7334 L833.6737,259.0424 C825.7197,244.8114 812.2047,229.2354 791.6127,230.7904" id="Fill-83" fill="#F59100"></path>
                            <path d="M577.5307,286.8636 C551.8257,263.5306 511.3077,257.9906 481.8427,257.4526 C448.2077,256.8376 409.1367,262.5036 377.3237,272.6076 C351.0187,280.9626 334.2117,290.9166 332.3627,299.2346 C329.9387,310.1426 302.4637,319.8806 271.1377,322.4946 L271.1377,323.9346 C303.3877,321.3106 331.1557,311.1986 333.7467,299.5416 C335.4577,291.8396 352.3207,282.0366 377.7527,273.9586 C409.4267,263.8976 448.3337,258.2656 481.8177,258.8696 C511.0387,259.4036 551.1987,264.8766 576.5787,287.9126 C593.8657,303.6036 614.1007,313.1016 636.8307,316.2396 L636.7277,314.8006 C614.4047,311.6586 594.5257,302.2896 577.5307,286.8636" id="Fill-85" fill="#F59100"></path>
                            <path d="M706.8618,306.2513 C712.8568,303.6003 718.1168,300.6743 722.3588,297.7143 L719.7888,297.7143 C716.0828,300.1493 711.5778,302.6153 706.2888,304.9553 C701.9588,306.8693 695.7878,309.2663 688.1748,311.3353 C676.8818,314.4053 662.4178,316.7573 646.0908,315.7483 C642.9228,315.5523 639.8028,315.2323 636.7278,314.8003 L636.8308,316.2393 C639.8458,316.6553 642.9008,316.9713 646.0028,317.1623 C673.6298,318.8703 695.9918,311.0593 706.8618,306.2513" id="Fill-87" fill="#F59100"></path>
                            <path d="M784.1635,232.0394 C766.7075,236.5774 751.0595,251.2004 741.6325,264.1854 L741.6325,266.6434 C750.8835,253.4784 767.1755,237.9204 784.5195,233.4114 C786.9335,232.7834 789.2985,232.3754 791.6125,232.1844 L791.6125,230.7904 C789.2245,230.9714 786.7455,231.3684 784.1635,232.0394" id="Fill-89" fill="#F59100"></path>
                            <path d="M247.3261,323.0306 C215.6671,321.7466 197.3641,313.6236 186.7921,304.3346 L184.4991,304.3346 C188.0931,307.6376 192.3791,310.5876 197.3761,313.1546 C210.1911,319.7376 227.4431,323.6426 247.2681,324.4466 C249.8381,324.5516 252.4111,324.6016 254.9771,324.6016 C260.4251,324.6016 265.8401,324.3656 271.1381,323.9346 L271.1381,322.4946 C263.3301,323.1456 255.2841,323.3566 247.3261,323.0306" id="Fill-91" fill="#F59100"></path>
                            <path d="M518.0546,386.388 C474.0546,395.388 540.0546,325.388 556.0546,313.388 C556.0546,313.388 562.0546,377.388 518.0546,386.388 Z" id="Fill-93" fill="#F7F7F7"></path>
                            <path d="M556.0546,313.388 C556.0546,313.388 562.0546,377.388 518.0546,386.388 C474.0546,395.388 540.0546,325.388 556.0546,313.388 Z" id="Stroke-95" stroke="#585856" stroke-width="1.417"></path>
                            <g id="Group-100" transform="translate(332.000000, 312.000000)">
                                <path d="M32.747,87.1068 C32.747,87.1068 -1.945,64.3878 1.055,15.3878 C4.055,-33.6122 62.778,56.1698 59.416,70.7788" id="Fill-97" fill="#F7F7F7"></path>
                                <path d="M32.747,87.1068 C32.747,87.1068 -1.945,64.3878 1.055,15.3878 C4.055,-33.6122 62.778,56.1698 59.416,70.7788" id="Stroke-99" stroke="#585856" stroke-width="1.417"></path>
                            </g>
                            <path d="M566.5571,274.1371 C566.5571,341.1021 512.2711,395.3881 445.3061,395.3881 C378.3401,395.3881 324.0551,341.1021 324.0551,274.1371 C324.0551,207.1711 378.3401,152.8851 445.3061,152.8851 C512.2711,152.8851 566.5571,207.1711 566.5571,274.1371" id="Fill-101" fill="#EDECEC"></path>
                            <path d="M566.5571,274.1371 C566.5571,341.1021 512.2711,395.3881 445.3061,395.3881 C378.3401,395.3881 324.0551,341.1021 324.0551,274.1371 C324.0551,207.1711 378.3401,152.8851 445.3061,152.8851 C512.2711,152.8851 566.5571,207.1711 566.5571,274.1371 Z" id="Stroke-103" stroke="#585856" stroke-width="1.417"></path>
                            <path d="M508.705,198.057 C508.705,205.936 502.319,212.323 494.44,212.323 C486.562,212.323 480.175,205.936 480.175,198.057 C480.175,190.179 486.562,183.792 494.44,183.792 C502.319,183.792 508.705,190.179 508.705,198.057" id="Fill-105" fill="#CECECE"></path>
                            <path d="M361.9184,285.848 C358.5144,289.252 352.9944,289.252 349.5894,285.848 C346.1854,282.444 346.1854,276.924 349.5894,273.52 C352.9944,270.116 358.5144,270.116 361.9184,273.52 C365.3224,276.924 365.3224,282.444 361.9184,285.848" id="Fill-107" fill="#CECECE"></path>
                            <path d="M412.1323,219.1947 C412.1323,226.8037 405.9643,232.9717 398.3553,232.9717 C390.7463,232.9717 384.5783,226.8037 384.5783,219.1947 C384.5783,211.5867 390.7463,205.4187 398.3553,205.4187 C405.9643,205.4187 412.1323,211.5867 412.1323,219.1947" id="Fill-109" fill="#CECECE"></path>
                            <path d="M472.559,270.6585 C470.2,273.0165 466.376,273.0165 464.017,270.6585 C461.659,268.2995 461.659,264.4745 464.017,262.1165 C466.376,259.7585 470.2,259.7585 472.559,262.1165 C474.917,264.4745 474.917,268.2995 472.559,270.6585" id="Fill-111" fill="#CECECE"></path>
                            <path d="M461.0551,359.1683 C461.0551,376.4823 447.0191,390.5193 429.7051,390.5193 C412.3911,390.5193 398.3551,376.4823 398.3551,359.1683 C398.3551,341.8553 412.3911,327.8183 429.7051,327.8183 C447.0191,327.8183 461.0551,341.8553 461.0551,359.1683" id="Fill-113" fill="#CECECE"></path>
                            <path d="M500.8002,326.5706 C496.0152,331.3546 488.2582,331.3546 483.4742,326.5706 C478.6902,321.7856 478.6902,314.0286 483.4742,309.2446 C488.2582,304.4606 496.0152,304.4606 500.8002,309.2446 C505.5842,314.0286 505.5842,321.7856 500.8002,326.5706" id="Fill-115" fill="#CECECE"></path>
                            <path d="M349.3525,278.0833 C349.3525,278.0833 347.7835,284.1573 337.0195,283.6113 C337.0195,283.6113 313.7295,187.3483 383.2175,155.5523 C452.7055,123.7563 491.6135,144.4413 505.4285,157.3603 C519.2445,170.2793 547.6565,200.8983 546.7115,258.9383 C546.7115,258.9383 543.6895,265.5923 529.7445,261.0533 C529.7445,261.0533 523.0545,189.3883 476.4235,182.3803 C476.4235,182.3803 407.2255,177.9113 380.1475,191.3183 C353.0695,204.7263 349.3525,278.0833 349.3525,278.0833" id="Fill-117" fill="#F7F7F7"></path>
                            <path d="M349.3525,278.0833 C349.3525,278.0833 347.7835,284.1573 337.0195,283.6113 C337.0195,283.6113 313.7295,187.3483 383.2175,155.5523 C452.7055,123.7563 491.6135,144.4413 505.4285,157.3603 C519.2445,170.2793 547.6565,200.8983 546.7115,258.9383 C546.7115,258.9383 543.6895,265.5923 529.7445,261.0533 C529.7445,261.0533 523.0545,189.3883 476.4235,182.3803 C476.4235,182.3803 407.2255,177.9113 380.1475,191.3183 C353.0695,204.7263 349.3525,278.0833 349.3525,278.0833 Z" id="Stroke-119" stroke="#585856" stroke-width="1.417"></path>
                            <path d="M520.3867,103.2044 L508.4967,62.2614 C507.2077,57.8224 502.5657,55.2704 498.1277,56.5584 L497.0677,56.8664 L484.0547,12.0564 C484.3037,11.9184 484.5537,11.7864 484.7867,11.6104 C487.4947,9.5674 488.0337,5.7174 485.9907,3.0104 C483.9477,0.3014 480.0967,-0.2366 477.3887,1.8064 C474.6807,3.8484 474.1417,7.6994 476.1847,10.4074 C477.2537,11.8244 478.8187,12.6304 480.4537,12.8004 L493.5477,57.8894 L492.5727,58.1724 C490.1577,58.8734 488.3087,60.5704 487.3247,62.6844 C465.7797,36.6264 426.2607,32.6854 397.6957,54.2374 C382.5917,65.6334 373.5157,81.9324 371.1277,98.8824 C369.1557,95.9254 365.4277,94.4474 361.8327,95.4914 L360.2387,95.9544 L350.0767,60.9624 C351.5787,59.8424 352.5647,58.0674 352.5647,56.0504 C352.5647,52.6584 349.8157,49.9084 346.4237,49.9084 C343.0317,49.9084 340.2817,52.6584 340.2817,56.0504 C340.2817,59.4414 343.0317,62.1914 346.4237,62.1914 C346.4877,62.1914 346.5467,62.1754 346.6107,62.1734 L356.7177,96.9764 L356.2777,97.1044 C351.8397,98.3924 349.2867,103.0354 350.5757,107.4734 L362.4657,148.4174 C363.7537,152.8554 368.3967,155.4084 372.8347,154.1194 L378.3887,152.5064 C381.3027,151.6604 383.3937,149.3664 384.1297,146.6374 C405.5857,173.1204 445.4047,177.2454 474.1417,155.5634 C488.7427,144.5484 497.7227,128.9494 500.4627,112.6104 C502.5347,115.0114 505.8847,116.1294 509.1297,115.1864 L514.6847,113.5734 C519.1227,112.2854 521.6757,107.6424 520.3867,103.2044" id="Fill-121" fill="#F7F7F7"></path>
                            <path d="M520.3867,103.2044 L508.4967,62.2614 C507.2077,57.8224 502.5657,55.2704 498.1277,56.5584 L497.0677,56.8664 L484.0547,12.0564 C484.3037,11.9184 484.5537,11.7864 484.7867,11.6104 C487.4947,9.5674 488.0337,5.7174 485.9907,3.0104 C483.9477,0.3014 480.0967,-0.2366 477.3887,1.8064 C474.6807,3.8484 474.1417,7.6994 476.1847,10.4074 C477.2537,11.8244 478.8187,12.6304 480.4537,12.8004 L493.5477,57.8894 L492.5727,58.1724 C490.1577,58.8734 488.3087,60.5704 487.3247,62.6844 C465.7797,36.6264 426.2607,32.6854 397.6957,54.2374 C382.5917,65.6334 373.5157,81.9324 371.1277,98.8824 C369.1557,95.9254 365.4277,94.4474 361.8327,95.4914 L360.2387,95.9544 L350.0767,60.9624 C351.5787,59.8424 352.5647,58.0674 352.5647,56.0504 C352.5647,52.6584 349.8157,49.9084 346.4237,49.9084 C343.0317,49.9084 340.2817,52.6584 340.2817,56.0504 C340.2817,59.4414 343.0317,62.1914 346.4237,62.1914 C346.4877,62.1914 346.5467,62.1754 346.6107,62.1734 L356.7177,96.9764 L356.2777,97.1044 C351.8397,98.3924 349.2867,103.0354 350.5757,107.4734 L362.4657,148.4174 C363.7537,152.8554 368.3967,155.4084 372.8347,154.1194 L378.3887,152.5064 C381.3027,151.6604 383.3937,149.3664 384.1297,146.6374 C405.5857,173.1204 445.4047,177.2454 474.1417,155.5634 C488.7427,144.5484 497.7227,128.9494 500.4627,112.6104 C502.5347,115.0114 505.8847,116.1294 509.1297,115.1864 L514.6847,113.5734 C519.1227,112.2854 521.6757,107.6424 520.3867,103.2044 Z" id="Stroke-123" stroke="#585856" stroke-width="1.417"></path>
                            <path d="M531.5546,380.0101 C531.5546,395.4061 523.2716,407.8881 513.0546,407.8881 C502.8376,407.8881 494.5546,395.4061 494.5546,380.0101 C494.5546,364.6141 502.8376,352.1321 513.0546,352.1321 C523.2716,352.1321 531.5546,364.6141 531.5546,380.0101" id="Fill-125" fill="#F7F7F7"></path>
                            <path d="M531.5546,380.0101 C531.5546,395.4061 523.2716,407.8881 513.0546,407.8881 C502.8376,407.8881 494.5546,395.4061 494.5546,380.0101 C494.5546,364.6141 502.8376,352.1321 513.0546,352.1321 C523.2716,352.1321 531.5546,364.6141 531.5546,380.0101 Z" id="Stroke-127" stroke="#585856" stroke-width="1.417"></path>
                            <path d="M476.7387,95.8587 C484.3077,123.1477 472.3337,150.2937 449.9927,156.4897 C427.6517,162.6867 403.4057,145.5877 395.8357,118.2977 C388.2667,91.0087 400.2407,63.8637 422.5817,57.6677 C444.9227,51.4697 469.1697,68.5697 476.7387,95.8587" id="Fill-129" fill="#FFFFFF"></path>
                            <path d="M476.7387,95.8587 C484.3077,123.1477 472.3337,150.2937 449.9927,156.4897 C427.6517,162.6867 403.4057,145.5877 395.8357,118.2977 C388.2667,91.0087 400.2407,63.8637 422.5817,57.6677 C444.9227,51.4697 469.1697,68.5697 476.7387,95.8587 Z" id="Stroke-131" stroke="#585856" stroke-width="1.417" fill="#FEF4E2"></path>
                            <path d="M24.1655,220.8646 C24.6555,222.2196 24.0135,223.6946 22.7305,224.1596 C21.4475,224.6236 20.0095,223.9006 19.5195,222.5466 C19.0285,221.1906 19.6705,219.7156 20.9545,219.2516 C22.2375,218.7866 23.6755,219.5096 24.1655,220.8646" id="Fill-133" fill="#F59100"></path>
                            <path d="M68.2519,221.8831 C68.7429,223.2381 68.0999,224.7131 66.8169,225.1781 C65.5339,225.6421 64.0959,224.9201 63.6059,223.5651 C63.1149,222.2091 63.7579,220.7351 65.0409,220.2701 C66.3239,219.8061 67.7619,220.5281 68.2519,221.8831" id="Fill-135" fill="#F59100"></path>
                            <path d="M46.7763,224.0355 L47.8383,223.6425 L47.4233,222.5205 C47.3313,222.2695 47.4783,222.0245 47.7953,221.9075 C48.0923,221.7975 48.3923,221.8775 48.4853,222.1285 L48.8993,223.2505 L49.9513,222.8605 C50.1593,222.7845 50.4503,222.9625 50.5663,223.2765 C50.6903,223.6115 50.5733,223.9055 50.3643,223.9825 L49.3133,224.3715 L49.7233,225.4815 C49.8043,225.7025 49.6473,226.0105 49.3503,226.1205 C49.0323,226.2375 48.7423,226.0955 48.6613,225.8745 L48.2523,224.7645 L47.1903,225.1565 C46.9523,225.2445 46.7123,225.0835 46.5893,224.7475 C46.4723,224.4325 46.5383,224.1235 46.7763,224.0355" id="Fill-137" fill="#F59100"></path>
                            <path d="M70.3256,214.8421 L71.3866,214.4491 L70.9726,213.3271 C70.8806,213.0761 71.0266,212.8311 71.3446,212.7141 C71.6416,212.6041 71.9416,212.6841 72.0336,212.9351 L72.4486,214.0571 L73.4996,213.6681 C73.7086,213.5911 73.9996,213.7691 74.1156,214.0831 C74.2396,214.4191 74.1216,214.7121 73.9136,214.7891 L72.8616,215.1781 L73.2716,216.2891 C73.3526,216.5091 73.1966,216.8181 72.8986,216.9271 C72.5816,217.0451 72.2916,216.9021 72.2106,216.6821 L71.8006,215.5711 L70.7396,215.9631 C70.5006,216.0511 70.2616,215.8901 70.1376,215.5551 C70.0216,215.2391 70.0866,214.9301 70.3256,214.8421" id="Fill-139" fill="#F59100"></path>
                            <path d="M75.0175,226.5511 L76.0795,226.1581 L75.6645,225.0361 C75.5725,224.7851 75.7185,224.5401 76.0365,224.4231 C76.3335,224.3131 76.6335,224.3931 76.7265,224.6441 L77.1405,225.7661 L78.1925,225.3771 C78.4005,225.3001 78.6915,225.4781 78.8075,225.7921 C78.9315,226.1281 78.8145,226.4211 78.6055,226.4981 L77.5545,226.8871 L77.9645,227.9981 C78.0455,228.2181 77.8885,228.5271 77.5915,228.6371 C77.2735,228.7541 76.9835,228.6111 76.9025,228.3911 L76.4925,227.2801 L75.4315,227.6721 C75.1935,227.7611 74.9535,227.5991 74.8305,227.2641 C74.7135,226.9491 74.7795,226.6391 75.0175,226.5511" id="Fill-141" fill="#F59100"></path>
                            <path d="M47.9638,197.3939 L49.0258,197.0019 L48.6108,195.8799 C48.5188,195.6279 48.6648,195.3839 48.9828,195.2669 C49.2798,195.1569 49.5798,195.2359 49.6728,195.4879 L50.0868,196.6099 L51.1388,196.2199 C51.3468,196.1429 51.6378,196.3219 51.7538,196.6359 C51.8778,196.9709 51.7608,197.2649 51.5518,197.3419 L50.5008,197.7309 L50.9108,198.8409 C50.9918,199.0619 50.8348,199.3699 50.5378,199.4799 C50.2198,199.5969 49.9298,199.4549 49.8488,199.2339 L49.4388,198.1229 L48.3778,198.5159 C48.1398,198.6039 47.8998,198.4419 47.7768,198.1069 C47.6598,197.7919 47.7258,197.4829 47.9638,197.3939" id="Fill-143" fill="#F59100"></path>
                            <path d="M37.2607,222.3597 C37.7507,223.7147 37.1087,225.1897 35.8247,225.6547 C34.5417,226.1187 33.1047,225.3967 32.6147,224.0417 C32.1237,222.6857 32.7657,221.2117 34.0497,220.7467 C35.3327,220.2827 36.7697,221.0047 37.2607,222.3597" id="Fill-145" fill="#F59100"></path>
                            <path d="M25.0439,209.7269 C25.5339,211.0819 24.8919,212.5569 23.6079,213.0219 C22.3259,213.4859 20.8879,212.7629 20.3979,211.4089 C19.9069,210.0529 20.5489,208.5779 21.8329,208.1139 C23.1159,207.6489 24.5529,208.3719 25.0439,209.7269" id="Fill-147" fill="#F59100"></path>
                            <path d="M50.3486,210.2914 L51.7776,209.7634 C52.0326,209.6684 52.1626,209.3854 52.0686,209.1294 L51.5016,207.5934 C51.3366,207.1454 51.5976,206.7094 52.1636,206.5004 C52.6936,206.3044 53.2276,206.4454 53.3926,206.8944 L53.9506,208.4034 C54.0496,208.6734 54.3496,208.8124 54.6196,208.7114 L56.0046,208.1994 C56.3756,208.0624 56.8936,208.3794 57.1006,208.9394 C57.3216,209.5374 57.1126,210.0604 56.7416,210.1974 L55.4496,210.6754 C55.1286,210.7944 54.9636,211.1504 55.0826,211.4724 L55.5986,212.8694 C55.7426,213.2614 55.4636,213.8114 54.9326,214.0074 C54.3676,214.2164 53.8516,213.9614 53.7066,213.5684 L53.1716,212.1174 C53.0636,211.8254 52.7406,211.6774 52.4496,211.7844 L51.0856,212.2894 C50.6606,212.4454 50.2346,212.1574 50.0136,211.5614 C49.8066,211.0004 49.9236,210.4474 50.3486,210.2914" id="Fill-149" fill="#F59100"></path>
                            <path d="M33.8994,201.429 L35.3814,201.781 C35.6474,201.843 35.9124,201.679 35.9754,201.414 L36.3534,199.821 C36.4634,199.357 36.9224,199.138 37.5094,199.277 C38.0594,199.407 38.4254,199.821 38.3154,200.285 L37.9434,201.851 C37.8774,202.131 38.0504,202.411 38.3304,202.478 L39.7674,202.819 C40.1524,202.909 40.4094,203.46 40.2714,204.041 C40.1244,204.661 39.6614,204.982 39.2754,204.89 L37.9354,204.573 C37.6024,204.494 37.2674,204.7 37.1884,205.033 L36.8444,206.483 C36.7474,206.889 36.2114,207.192 35.6614,207.062 C35.0744,206.923 34.7854,206.425 34.8824,206.018 L35.2394,204.513 C35.3114,204.211 35.1244,203.908 34.8224,203.836 L33.4074,203.501 C32.9664,203.397 32.7714,202.921 32.9184,202.301 C33.0564,201.72 33.4594,201.325 33.8994,201.429" id="Fill-151" fill="#F59100"></path>
                            <path d="M846.6708,266.7777 C847.1618,268.1317 846.5188,269.6077 845.2358,270.0717 C843.9528,270.5367 842.5148,269.8137 842.0248,268.4587 C841.5338,267.1037 842.1768,265.6287 843.4598,265.1647 C844.7428,264.6997 846.1808,265.4227 846.6708,266.7777" id="Fill-153" fill="#F59100"></path>
                            <path d="M890.7578,267.7962 C891.2478,269.1502 890.6058,270.6262 889.3218,271.0902 C888.0398,271.5552 886.6018,270.8322 886.1118,269.4782 C885.6208,268.1222 886.2628,266.6472 887.5468,266.1832 C888.8298,265.7182 890.2668,266.4412 890.7578,267.7962" id="Fill-155" fill="#F59100"></path>
                            <path d="M869.2822,269.9476 L870.3432,269.5546 L869.9292,268.4336 C869.8372,268.1816 869.9832,267.9376 870.3012,267.8196 C870.5982,267.7106 870.8982,267.7896 870.9902,268.0416 L871.4052,269.1626 L872.4562,268.7736 C872.6652,268.6966 872.9562,268.8756 873.0722,269.1896 C873.1962,269.5246 873.0782,269.8186 872.8702,269.8956 L871.8192,270.2846 L872.2282,271.3946 C872.3092,271.6156 872.1532,271.9236 871.8552,272.0336 C871.5382,272.1506 871.2482,272.0086 871.1672,271.7876 L870.7572,270.6766 L869.6962,271.0696 C869.4572,271.1576 869.2182,270.9956 869.0942,270.6606 C868.9782,270.3456 869.0442,270.0366 869.2822,269.9476" id="Fill-157" fill="#F59100"></path>
                            <path d="M892.831,260.7552 L893.893,260.3622 L893.478,259.2402 C893.386,258.9892 893.532,258.7442 893.85,258.6272 C894.147,258.5172 894.447,258.5972 894.54,258.8482 L894.954,259.9702 L896.005,259.5812 C896.214,259.5042 896.505,259.6822 896.621,259.9962 C896.745,260.3312 896.627,260.6252 896.419,260.7022 L895.368,261.0912 L895.777,262.2012 C895.858,262.4222 895.702,262.7302 895.404,262.8402 C895.087,262.9572 894.797,262.8152 894.716,262.5942 L894.306,261.4842 L893.245,261.8762 C893.006,261.9642 892.767,261.8032 892.643,261.4672 C892.527,261.1522 892.593,260.8432 892.831,260.7552" id="Fill-159" fill="#F59100"></path>
                            <path d="M897.5234,272.4642 L898.5844,272.0712 L898.1704,270.9492 C898.0784,270.6982 898.2244,270.4532 898.5424,270.3362 C898.8394,270.2262 899.1394,270.3062 899.2314,270.5572 L899.6464,271.6792 L900.6974,271.2902 C900.9064,271.2132 901.1974,271.3912 901.3134,271.7052 C901.4374,272.0402 901.3194,272.3342 901.1114,272.4112 L900.0594,272.8002 L900.4694,273.9112 C900.5504,274.1312 900.3944,274.4402 900.0964,274.5492 C899.7794,274.6662 899.4894,274.5242 899.4084,274.3032 L898.9984,273.1932 L897.9374,273.5852 C897.6984,273.6732 897.4594,273.5122 897.3354,273.1762 C897.2194,272.8612 897.2844,272.5522 897.5234,272.4642" id="Fill-161" fill="#F59100"></path>
                            <path d="M870.4692,243.307 L871.5312,242.914 L871.1172,241.792 C871.0242,241.541 871.1712,241.296 871.4882,241.179 C871.7852,241.07 872.0852,241.149 872.1782,241.401 L872.5922,242.522 L873.6442,242.133 C873.8522,242.056 874.1432,242.234 874.2602,242.548 C874.3832,242.884 874.2662,243.177 874.0572,243.254 L873.0062,243.644 L873.4162,244.754 C873.4972,244.974 873.3402,245.283 873.0432,245.393 C872.7252,245.51 872.4352,245.367 872.3542,245.147 L871.9452,244.036 L870.8832,244.428 C870.6452,244.517 870.4052,244.355 870.2822,244.02 C870.1652,243.705 870.2312,243.395 870.4692,243.307" id="Fill-163" fill="#F59100"></path>
                            <path d="M859.7661,268.2728 C860.2561,269.6278 859.6141,271.1028 858.3311,271.5678 C857.0481,272.0318 855.6101,271.3098 855.1201,269.9548 C854.6291,268.5988 855.2711,267.1248 856.5551,266.6598 C857.8381,266.1958 859.2751,266.9178 859.7661,268.2728" id="Fill-165" fill="#F59100"></path>
                            <path d="M847.5493,255.64 C848.0393,256.994 847.3973,258.47 846.1143,258.934 C844.8313,259.399 843.3933,258.676 842.9033,257.321 C842.4123,255.966 843.0543,254.491 844.3383,254.027 C845.6213,253.562 847.0593,254.285 847.5493,255.64" id="Fill-167" fill="#F59100"></path>
                            <path d="M872.8539,256.2035 L874.2829,255.6755 C874.5379,255.5815 874.6679,255.2975 874.5739,255.0425 L874.0069,253.5065 C873.8419,253.0575 874.1039,252.6225 874.6689,252.4125 C875.1989,252.2175 875.7329,252.3585 875.8979,252.8075 L876.4559,254.3165 C876.5549,254.5865 876.8549,254.7245 877.1249,254.6245 L878.5099,254.1125 C878.8809,253.9745 879.3999,254.2925 879.6059,254.8515 C879.8269,255.4495 879.6179,255.9735 879.2469,256.1105 L877.9549,256.5885 C877.6339,256.7065 877.4689,257.0635 877.5879,257.3855 L878.1039,258.7825 C878.2479,259.1745 877.9689,259.7235 877.4389,259.9195 C876.8729,260.1285 876.3569,259.8735 876.2119,259.4815 L875.6769,258.0295 C875.5689,257.7385 875.2459,257.5905 874.9549,257.6975 L873.5909,258.2015 C873.1659,258.3585 872.7399,258.0705 872.5189,257.4735 C872.3119,256.9135 872.4289,256.3605 872.8539,256.2035" id="Fill-169" fill="#F59100"></path>
                            <path d="M856.4047,247.3421 L857.8867,247.6931 C858.1527,247.7561 858.4177,247.5921 858.4807,247.3261 L858.8587,245.7341 C858.9687,245.2701 859.4277,245.0511 860.0147,245.1901 C860.5657,245.3201 860.9307,245.7341 860.8217,246.1981 L860.4487,247.7641 C860.3827,248.0441 860.5557,248.3241 860.8357,248.3911 L862.2727,248.7311 C862.6577,248.8221 862.9147,249.3731 862.7767,249.9541 C862.6297,250.5741 862.1667,250.8941 861.7807,250.8031 L860.4407,250.4861 C860.1077,250.4061 859.7727,250.6131 859.6937,250.9461 L859.3497,252.3951 C859.2537,252.8021 858.7167,253.1051 858.1667,252.9751 C857.5797,252.8351 857.2907,252.3381 857.3877,251.9311 L857.7447,250.4261 C857.8167,250.1231 857.6297,249.8211 857.3277,249.7491 L855.9127,249.4141 C855.4727,249.3101 855.2767,248.8341 855.4237,248.2141 C855.5617,247.6331 855.9647,247.2381 856.4047,247.3421" id="Fill-171" fill="#F59100"></path>
                            <path d="M914.3618,271.4984 C914.8518,272.8534 914.2098,274.3284 912.9258,274.7934 C911.6438,275.2574 910.2058,274.5354 909.7158,273.1804 C909.2248,271.8244 909.8668,270.3504 911.1508,269.8854 C912.4338,269.4214 913.8708,270.1434 914.3618,271.4984" id="Fill-173" fill="#F59100"></path>
                            <path d="M916.435,264.4574 L917.497,264.0644 L917.082,262.9424 C916.99,262.6914 917.136,262.4464 917.454,262.3294 C917.751,262.2204 918.051,262.2994 918.144,262.5514 L918.558,263.6724 L919.609,263.2834 C919.818,263.2064 920.109,263.3844 920.225,263.6984 C920.349,264.0344 920.232,264.3274 920.023,264.4044 L918.972,264.7944 L919.381,265.9044 C919.463,266.1244 919.306,266.4334 919.008,266.5434 C918.691,266.6604 918.401,266.5174 918.32,266.2974 L917.91,265.1864 L916.849,265.5784 C916.61,265.6674 916.371,265.5054 916.247,265.1704 C916.131,264.8554 916.197,264.5454 916.435,264.4574" id="Fill-175" fill="#F59100"></path>
                            <path d="M921.1274,276.1664 L922.1884,275.7734 L921.7744,274.6524 C921.6824,274.4004 921.8284,274.1564 922.1464,274.0384 C922.4434,273.9294 922.7434,274.0084 922.8354,274.2604 L923.2504,275.3814 L924.3014,274.9924 C924.5104,274.9154 924.8014,275.0934 924.9174,275.4074 C925.0414,275.7434 924.9234,276.0364 924.7154,276.1134 L923.6644,276.5034 L924.0734,277.6134 C924.1544,277.8334 923.9984,278.1424 923.7004,278.2524 C923.3834,278.3694 923.0934,278.2264 923.0124,278.0064 L922.6024,276.8954 L921.5414,277.2884 C921.3024,277.3764 921.0634,277.2144 920.9394,276.8794 C920.8234,276.5644 920.8894,276.2544 921.1274,276.1664" id="Fill-177" fill="#F59100"></path>
                            <g id="Group-181" transform="translate(0.000000, 211.000000)">
                                <mask id="mask-2" fill="white">
                                    <use xlink:href="#path-1"></use>
                                </mask>
                                <g id="Clip-180"></g>
                                <path d="M4.4462,1.3412 C5.3532,2.4612 5.2302,4.0652 4.1702,4.9242 C3.1102,5.7832 1.5142,5.5722 0.6072,4.4522 C-0.3008,3.3322 -0.1768,1.7292 0.8832,0.8692 C1.9442,0.0102 3.5392,0.2212 4.4462,1.3412" id="Fill-179" fill="#F59100" mask="url(#mask-2)"></path>
                            </g>
                            <path d="M4.0981,205.0091 L4.9721,204.2911 L4.2131,203.3661 C4.0431,203.1591 4.1011,202.8801 4.3631,202.6651 C4.6081,202.4641 4.9171,202.4411 5.0881,202.6481 L5.8461,203.5721 L6.7121,202.8601 C6.8841,202.7191 7.2171,202.7921 7.4301,203.0511 C7.6571,203.3271 7.6421,203.6431 7.4711,203.7841 L6.6041,204.4961 L7.3561,205.4111 C7.5051,205.5931 7.4581,205.9351 7.2121,206.1371 C6.9511,206.3521 6.6301,206.3111 6.4821,206.1301 L5.7301,205.2151 L4.8561,205.9331 C4.6601,206.0951 4.3811,206.0211 4.1541,205.7441 C3.9411,205.4851 3.9021,205.1711 4.0981,205.0091" id="Fill-182" fill="#F59100"></path>
                            <path d="M12.3676,214.5345 L13.2426,213.8155 L12.4836,212.8915 C12.3136,212.6845 12.3716,212.4055 12.6336,212.1905 C12.8786,211.9885 13.1876,211.9665 13.3576,212.1735 L14.1166,213.0975 L14.9826,212.3855 C15.1546,212.2445 15.4876,212.3165 15.7006,212.5755 C15.9266,212.8515 15.9126,213.1685 15.7406,213.3085 L14.8746,214.0205 L15.6256,214.9355 C15.7746,215.1175 15.7276,215.4605 15.4826,215.6615 C15.2216,215.8765 14.9006,215.8365 14.7516,215.6545 L14.0006,214.7395 L13.1266,215.4585 C12.9296,215.6195 12.6506,215.5455 12.4236,215.2685 C12.2116,215.0105 12.1716,214.6955 12.3676,214.5345" id="Fill-184" fill="#F59100"></path>
                            <path d="M394.8461,380.7835 C394.8461,396.1795 386.5631,408.6615 376.3461,408.6615 C366.1291,408.6615 357.8461,396.1795 357.8461,380.7835 C357.8461,365.3875 366.1291,352.9055 376.3461,352.9055 C386.5631,352.9055 394.8461,365.3875 394.8461,380.7835" id="Fill-186" fill="#F7F7F7"></path>
                            <path d="M394.8461,380.7835 C394.8461,396.1795 386.5631,408.6615 376.3461,408.6615 C366.1291,408.6615 357.8461,396.1795 357.8461,380.7835 C357.8461,365.3875 366.1291,352.9055 376.3461,352.9055 C386.5631,352.9055 394.8461,365.3875 394.8461,380.7835 Z" id="Stroke-188" stroke="#585856" stroke-width="1.417"></path>
                            <path d="M335.3911,303.1859 C335.3911,303.1859 343.9671,310.5659 353.3411,301.8409 L354.5131,290.7219 C354.5131,290.7219 361.7181,293.1909 359.2751,287.3569 C356.8321,281.5229 352.5441,277.8329 352.1711,272.8469 C351.7971,267.8609 333.7721,268.2089 333.0741,272.2729 C332.3761,276.3359 328.5111,291.6679 335.3911,303.1859" id="Fill-190" fill="#EDECEC"></path>
                            <path d="M335.3911,303.1859 C335.3911,303.1859 343.9671,310.5659 353.3411,301.8409 L354.5131,290.7219 C354.5131,290.7219 361.7181,293.1909 359.2751,287.3569 C356.8321,281.5229 352.5441,277.8329 352.1711,272.8469 C351.7971,267.8609 333.7721,268.2089 333.0741,272.2729 C332.3761,276.3359 328.5111,291.6679 335.3911,303.1859 Z" id="Stroke-192" stroke="#585856" stroke-width="1.417"></path>
                            <path d="M546.6923,283.8773 C546.6923,283.8773 538.4993,291.8773 528.2573,283.8773 L526.2093,272.8773 C526.2093,272.8773 519.0403,275.8773 521.0883,269.8773 C523.1373,263.8773 527.2343,259.8773 527.2343,254.8773 C527.2343,249.8773 545.6683,248.8773 546.6923,252.8773 C547.7163,256.8773 552.8373,271.8773 546.6923,283.8773" id="Fill-194" fill="#EDECEC"></path>
                            <path d="M546.6923,283.8773 C546.6923,283.8773 538.4993,291.8773 528.2573,283.8773 L526.2093,272.8773 C526.2093,272.8773 519.0403,275.8773 521.0883,269.8773 C523.1373,263.8773 527.2343,259.8773 527.2343,254.8773 C527.2343,249.8773 545.6683,248.8773 546.6923,252.8773 C547.7163,256.8773 552.8373,271.8773 546.6923,283.8773 Z" id="Stroke-196" stroke="#585856" stroke-width="1.417"></path>
                        </g>
                    </g>
                </g>
            </g>
        </g>
    </g>
</svg>