<svg width="370" height="378" viewBox="0 0 370 378" fill="none" xmlns="http://www.w3.org/2000/svg">
<rect x="1.5" y="233.439" width="53" height="134" rx="1.5" fill="#2599CD" stroke="black" stroke-width="3"/>
<rect x="367.937" y="144.5" width="53" height="134" rx="1.5" transform="rotate(-180 367.937 144.5)" fill="#2599CD" stroke="black" stroke-width="3"/>
<path d="M54.5 241.939H75.5C81 240.105 92.1 235.639 92.5 232.439C92.9 229.239 92.6667 191.105 92.5 172.439C95 167.605 102.2 157.939 111 157.939C122 157.939 129.5 160.939 129.5 172.439C129.5 181.639 129.5 204.605 129.5 214.939C141 215.605 167.9 217.539 183.5 219.939H290.5C299 226.939 310.9 244.239 290.5 257.439H240.75M191 257.439H240.75M56 356.939H83C95.1667 362.439 124 373.939 142 375.939H226C232.5 370.105 242.1 354.039 228.5 336.439M228.5 336.439H187.5M228.5 336.439H236.5C251.3 320.039 242.667 302.939 236.5 296.439M240.75 257.439C249.5 264.439 261.75 282.039 240.75 296.439H236.5M187.5 296.439H236.5" stroke="black" stroke-width="3"/>
<path d="M314.937 136L293.937 136C288.437 137.833 277.337 142.3 276.937 145.5C276.537 148.7 276.77 186.833 276.937 205.5C274.437 210.333 267.237 220 258.437 220C247.437 220 239.937 217 239.937 205.5C239.937 196.3 239.937 173.333 239.937 163C228.437 162.333 201.537 160.4 185.937 158L78.9371 158C70.4371 151 58.5371 133.7 78.9371 120.5L128.687 120.5M178.437 120.5L128.687 120.5M313.437 21L286.437 21C274.27 15.5 245.437 4 227.437 2L143.437 2C136.937 7.83333 127.337 23.9 140.937 41.5M140.937 41.5L181.937 41.5M140.937 41.5L132.937 41.5C118.137 57.9 126.77 75 132.937 81.5M128.687 120.5C119.937 113.5 107.687 95.9 128.687 81.5L132.937 81.5M181.937 81.5L132.937 81.5" stroke="black" stroke-width="3"/>
</svg>
