<svg width="115px" height="115px" xmlns="http://www.w3.org/2000/svg" xmlns:xlink="http://www.w3.org/1999/xlink" viewBox="0 0 115 115" version="1.1">
    <!-- Generator: Sketch 52.6 (67491) - http://www.bohemiancoding.com/sketch -->
    <title>illustration/email-validation</title>
    <desc>Created with Sketch.</desc>
    <defs>
        <polygon id="path-1" points="0 0.969568966 114.111 0.969568966 114.111 114.008621 0 114.008621"/>
    </defs>
    <g id="illustration/email-validation" stroke="none" stroke-width="1" fill="none" fill-rule="evenodd">
        <g id="Group-58">
            <path d="M78.6669,20.3112802 C78.5559,20.3112802 78.4409,20.2825302 78.3369,20.2230474 C73.8989,17.6960216 69.0929,15.9789526 64.0519,15.1204181 C63.6899,15.0579612 63.4469,14.7179181 63.5089,14.3600302 C63.5719,14.0011509 63.9109,13.7562802 64.2769,13.8227026 C69.4719,14.7080043 74.4249,16.4776164 78.9989,19.0819698 C79.3169,19.2624009 79.4269,19.6649009 79.2439,19.9801595 C79.1209,20.193306 78.8969,20.3112802 78.6669,20.3112802 M34.2759,20.4401595 C34.0479,20.4401595 33.8249,20.3241681 33.7009,20.1139957 C33.5179,19.7987371 33.6239,19.3962371 33.9409,19.2138233 C38.4999,16.5817112 43.4419,14.7843405 48.6299,13.8673147 C48.9929,13.8058491 49.3359,14.0427888 49.3999,14.4006767 C49.4649,14.7575733 49.2249,15.1005905 48.8629,15.1650302 C43.8289,16.0523147 39.0339,17.7981336 34.6089,20.3519267 C34.5039,20.4124009 34.3899,20.4401595 34.2759,20.4401595 M98.2719,43.300375 C98.0029,43.300375 97.7489,43.135806 97.6489,42.8701164 C95.8859,38.1233922 93.3129,33.7484353 90.0019,29.8691681 C89.7659,29.5905905 89.7999,29.1752026 90.0799,28.9402457 C90.3609,28.7072716 90.7779,28.7399871 91.0169,29.0175733 C94.4259,33.015806 97.0779,37.5226164 98.8959,42.4150733 C99.0219,42.7561078 98.8469,43.1348147 98.5019,43.2597284 C98.4269,43.2884784 98.3489,43.300375 98.2719,43.300375 M14.8059,43.5472284 C14.7299,43.5472284 14.6539,43.5343405 14.5799,43.5075733 C14.2349,43.3836509 14.0569,43.0069267 14.1819,42.6658922 C15.9709,37.7625302 18.5949,33.2368836 21.9839,29.2168405 C22.2199,28.9392543 22.6389,28.9015819 22.9199,29.134556 C23.1999,29.3685216 23.2379,29.7829181 23.0029,30.0624871 C19.7139,33.9635647 17.1659,38.3543836 15.4299,43.1130043 C15.3329,43.3806767 15.0779,43.5472284 14.8059,43.5472284 M98.3329,73.5780905 C98.2569,73.5780905 98.1799,73.5652026 98.1049,73.5384353 C97.7609,73.4135216 97.5829,73.0367974 97.7079,72.6947716 C99.4489,67.9500302 100.3329,62.9604181 100.3329,57.8627457 L100.3319,57.683306 C100.3319,57.3204612 100.6289,57.0260216 100.9959,57.0260216 C101.3619,57.0260216 101.6589,57.3204612 101.6589,57.683306 L101.6599,57.8518405 C101.6599,63.1140819 100.7509,68.255375 98.9569,73.1448578 C98.8579,73.4125302 98.6039,73.5780905 98.3329,73.5780905 M14.8659,73.6574009 C14.5949,73.6574009 14.3409,73.4918405 14.2419,73.2251595 C12.4379,68.3386509 11.5179,63.2013233 11.5089,57.9519698 C11.5079,57.589125 11.8059,57.293694 12.1719,57.293694 L12.1729,57.293694 C12.5389,57.293694 12.8359,57.5871422 12.8359,57.9499871 C12.8459,63.0446853 13.7379,68.0313233 15.4899,72.7711078 C15.6149,73.1131336 15.4379,73.4918405 15.0949,73.6177457 C15.0199,73.6435216 14.9419,73.6574009 14.8659,73.6574009 M78.8139,96.6474871 C78.5849,96.6474871 78.3619,96.5305043 78.2389,96.3193405 C78.0559,96.0050733 78.1639,95.6015819 78.4809,95.4191681 C82.9039,92.8772716 86.8149,89.6186078 90.1069,85.7304181 C90.3439,85.4498578 90.7639,85.4151595 91.0429,85.6501164 C91.3239,85.8840819 91.3599,86.2994698 91.1239,86.5780474 C87.7339,90.5822284 83.7039,93.9400302 79.1459,96.5592543 C79.0419,96.6197284 78.9279,96.6474871 78.8139,96.6474871 M34.4219,96.6861509 C34.3109,96.6861509 34.1949,96.6574009 34.0919,96.5969267 C29.5319,93.9905905 25.4949,90.6387371 22.0939,86.6365388 C21.8569,86.3589526 21.8949,85.9425733 22.1739,85.7086078 C22.4559,85.4746422 22.8729,85.5103319 23.1099,85.7879181 C26.4109,89.6731336 30.3289,92.9258491 34.7549,95.4578319 C35.0719,95.6382629 35.1819,96.0417543 34.9979,96.3560216 C34.8759,96.5671853 34.6509,96.6861509 34.4219,96.6861509 M56.5849,102.550159 C53.9709,102.550159 51.3529,102.327099 48.8029,101.885935 C48.4409,101.82447 48.1989,101.482444 48.2629,101.125547 C48.3249,100.765677 48.6699,100.529728 49.0299,100.590203 C54.0079,101.449728 59.2449,101.442789 64.2179,100.575332 C64.5689,100.512875 64.9229,100.751797 64.9869,101.109685 C65.0509,101.466582 64.8099,101.808608 64.4479,101.872056 C61.8719,102.321151 59.2279,102.549168 56.5849,102.550159" id="Fill-1" fill="#76B0BD"/>
            <g id="Group-5" transform="translate(0.000000, 0.021810)">
                <mask id="mask-2" fill="white">
                    <use xlink:href="#path-1"/>
                </mask>
                <g id="Clip-4"/>
                <path d="M53.621,2.77288793 C53.17,2.77288793 52.792,2.42491379 52.765,1.97284483 C52.736,1.50491379 53.097,1.10043103 53.569,1.07267241 C55.767,0.941810345 58.012,0.935862069 60.199,1.05284483 C60.673,1.07862069 61.035,1.47913793 61.009,1.94806034 C60.984,2.41797414 60.564,2.77387931 60.106,2.75206897 C57.983,2.63806034 55.804,2.64400862 53.674,2.77090517 C53.655,2.77189655 53.638,2.77288793 53.621,2.77288793 M73.004,4.94599138 C72.924,4.94599138 72.842,4.93508621 72.762,4.9112931 C70.712,4.31150862 68.604,3.82573276 66.497,3.46586207 C66.03,3.38556034 65.717,2.94637931 65.797,2.48340517 C65.878,2.02043103 66.326,1.71310345 66.789,1.78844828 C68.961,2.15922414 71.134,2.66086207 73.247,3.27948276 C73.702,3.41331897 73.961,3.88521552 73.827,4.3362931 C73.717,4.70607759 73.376,4.94599138 73.004,4.94599138 M40.782,5.04215517 C40.414,5.04215517 40.072,4.80521552 39.961,4.43741379 C39.823,3.98831897 40.08,3.5124569 40.534,3.37663793 C42.642,2.74612069 44.812,2.23159483 46.984,1.84693966 C47.455,1.76465517 47.897,2.07297414 47.979,2.53594828 C48.062,2.99892241 47.752,3.44008621 47.285,3.52336207 C45.179,3.89512931 43.074,4.3937931 41.03,5.00547414 C40.947,5.03025862 40.864,5.04215517 40.782,5.04215517 M84.998,10.0347414 C84.852,10.0347414 84.706,9.99806034 84.571,9.92172414 C82.714,8.86590517 80.775,7.90724138 78.813,7.07448276 C78.378,6.88810345 78.176,6.38844828 78.362,5.95719828 C78.55,5.52396552 79.055,5.3237069 79.489,5.51008621 C81.513,6.36862069 83.51,7.35603448 85.426,8.44655172 C85.837,8.67952586 85.978,9.19900862 85.743,9.6074569 C85.584,9.88107759 85.295,10.0347414 84.998,10.0347414 M28.828,10.198319 C28.531,10.198319 28.244,10.0466379 28.085,9.775 C27.847,9.36952586 27.985,8.84806034 28.394,8.61211207 C30.301,7.51168103 32.29,6.51336207 34.309,5.64293103 C34.742,5.4575431 35.248,5.65185345 35.437,6.08409483 C35.627,6.51435345 35.428,7.01599138 34.993,7.20336207 C33.036,8.04702586 31.107,9.01659483 29.259,10.0823276 C29.123,10.1606466 28.975,10.198319 28.828,10.198319 M95.482,17.7298276 C95.272,17.7298276 95.06,17.6534914 94.895,17.4988362 C93.334,16.0494397 91.672,14.6743966 89.955,13.4133621 C89.575,13.1347845 89.495,12.6014224 89.777,12.2237069 C90.06,11.8469828 90.595,11.766681 90.977,12.04625 C92.747,13.3459483 94.46,14.7636207 96.068,16.2586207 C96.415,16.5798276 96.433,17.1181466 96.108,17.4601724 C95.939,17.6396121 95.711,17.7298276 95.482,17.7298276 M18.392,17.9509052 C18.165,17.9509052 17.937,17.861681 17.769,17.6852155 C17.443,17.3431897 17.458,16.8048707 17.802,16.4826724 C19.399,14.9807328 21.103,13.5541379 22.868,12.2425431 C23.249,11.96 23.786,12.038319 24.069,12.4130603 C24.354,12.7897845 24.277,13.3221552 23.897,13.6046983 C22.185,14.8766379 20.532,16.2596121 18.982,17.7169397 C18.816,17.8725862 18.604,17.9509052 18.392,17.9509052 M103.904,27.6009914 C103.626,27.6009914 103.353,27.4671552 103.188,27.2203017 C102.006,25.4576293 100.706,23.7415517 99.326,22.1236207 C99.019,21.76375 99.064,21.2274138 99.428,20.9250431 C99.789,20.621681 100.329,20.6643103 100.636,21.0251724 C102.059,22.6926724 103.398,24.4603017 104.617,26.2794828 C104.88,26.6700862 104.772,27.1984914 104.377,27.4582328 C104.231,27.5553879 104.066,27.6009914 103.904,27.6009914 M10.025,27.8726293 C9.864,27.8726293 9.701,27.8270259 9.556,27.7328448 C9.159,27.4760776 9.05,26.9476724 9.308,26.5550862 C10.517,24.7269828 11.848,22.950431 13.262,21.2740086 C13.565,20.9141379 14.106,20.8655603 14.471,21.1689224 C14.834,21.4693103 14.882,22.0056466 14.577,22.3665086 C13.207,23.9903879 11.917,25.7143966 10.744,27.4889655 C10.579,27.7368103 10.306,27.8726293 10.025,27.8726293 M109.806,39.12875 C109.457,39.12875 109.128,38.9156034 109.001,38.5706034 C108.264,36.5878448 107.398,34.6209483 106.429,32.7274138 C106.214,32.3090517 106.383,31.7955172 106.806,31.5843534 C107.228,31.3692241 107.745,31.53875 107.959,31.9561207 C108.959,33.9101293 109.851,35.9375 110.611,37.9846983 C110.775,38.4248707 110.547,38.9136207 110.101,39.0762069 C110.005,39.1109052 109.904,39.12875 109.806,39.12875 M4.19,39.4390517 C4.094,39.4390517 3.994,39.4231897 3.898,39.3884914 C3.452,39.2288793 3.222,38.7411207 3.383,38.2989655 C4.131,36.2468103 5.012,34.2125 6.001,32.2535345 C6.213,31.8331897 6.726,31.661681 7.152,31.8738362 C7.577,32.0830172 7.748,32.5955603 7.536,33.0149138 C6.577,34.9143966 5.723,36.8872414 4.997,38.8769397 C4.871,39.2249138 4.541,39.4390517 4.19,39.4390517 M112.85,51.6984483 C112.421,51.6984483 112.051,51.3792241 111.999,50.9479741 C111.748,48.8482328 111.365,46.7365948 110.866,44.6735345 C110.755,44.2155172 111.039,43.7565086 111.5,43.6464655 C111.96,43.5344397 112.424,43.8179741 112.534,44.275 C113.051,46.4034914 113.443,48.5805603 113.703,50.7467241 C113.759,51.2126724 113.423,51.6369828 112.952,51.6915086 C112.918,51.6964655 112.884,51.6984483 112.85,51.6984483 M1.22,52.0315517 C1.187,52.0315517 1.154,52.029569 1.122,52.0256034 C0.65,51.9730603 0.312,51.5507328 0.365,51.0837931 C0.614,48.9067241 0.994,46.7276724 1.496,44.6051293 C1.604,44.1481034 2.066,43.864569 2.527,43.9726293 C2.988,44.0787069 3.274,44.5357328 3.167,44.99375 C2.682,47.0508621 2.312,49.1654741 2.071,51.2761207 C2.021,51.7093534 1.65,52.0315517 1.22,52.0315517 M112.88,64.8481034 C112.847,64.8481034 112.814,64.8461207 112.78,64.8421552 C112.309,64.7886207 111.973,64.3662931 112.026,63.8993534 C112.271,61.7986207 112.394,59.6572414 112.394,57.5327155 L112.394,57.3106466 C112.394,56.8407328 112.779,56.4590517 113.253,56.4590517 C113.726,56.4590517 114.111,56.8407328 114.111,57.3106466 L114.111,57.5327155 C114.111,59.721681 113.983,61.9304741 113.731,64.0946552 C113.682,64.5278879 113.31,64.8481034 112.88,64.8481034 M1.244,64.9601293 C0.815,64.9601293 0.444,64.6409052 0.392,64.2076724 C0.136,62.0464655 0.004,59.8396552 -4.23516474e-22,57.6477155 C-0.001,57.1768103 0.383,56.7951293 0.856,56.7941379 L0.858,56.7941379 C1.332,56.7941379 1.716,57.1748276 1.717,57.64375 C1.721,59.7702586 1.849,61.9116379 2.098,64.0093966 C2.153,64.4753448 1.816,64.8976724 1.346,64.954181 C1.311,64.9581466 1.278,64.9601293 1.244,64.9601293 M109.882,77.4346552 C109.785,77.4346552 109.685,77.4178017 109.589,77.3831034 C109.143,77.2225 108.914,76.73375 109.076,76.2925862 C109.806,74.3018966 110.425,72.2447845 110.917,70.1807328 C111.026,69.7217241 111.495,69.4401724 111.949,69.5472414 C112.411,69.6553017 112.696,70.113319 112.588,70.5713362 C112.08,72.6998276 111.441,74.8213793 110.688,76.8735345 C110.562,77.2195259 110.232,77.4346552 109.882,77.4346552 M4.266,77.5357759 C3.915,77.5357759 3.586,77.3216379 3.459,76.9776293 C2.702,74.9254741 2.059,72.8068966 1.548,70.6803879 C1.439,70.2233621 1.724,69.7643534 2.184,69.6553017 C2.644,69.5502155 3.108,69.8297845 3.219,70.2868103 C3.714,72.3488793 4.337,74.4020259 5.071,76.3927155 C5.233,76.8338793 5.005,77.3226293 4.56,77.4842241 C4.463,77.5189224 4.363,77.5357759 4.266,77.5357759 M104.021,88.989181 C103.859,88.989181 103.695,88.9425862 103.55,88.8474138 C103.154,88.5896552 103.045,88.0622414 103.306,87.6696552 C104.481,85.9010345 105.564,84.0431897 106.525,82.1486638 C106.737,81.7303017 107.25,81.5607759 107.678,81.7709483 C108.101,81.9821121 108.272,82.4936638 108.059,82.9140086 C107.068,84.8670259 105.951,86.7813793 104.739,88.6065086 C104.574,88.8533621 104.3,88.989181 104.021,88.989181 M10.145,89.0744397 C9.866,89.0744397 9.594,88.9396121 9.429,88.6917672 C8.21,86.8656466 7.091,84.9542672 6.1,83.0101724 C5.887,82.5898276 6.057,82.0782759 6.48,81.8661207 C6.907,81.6549569 7.421,81.8244828 7.633,82.2418534 C8.594,84.1284483 9.679,85.9823276 10.86,87.7539224 C11.121,88.1455172 11.014,88.672931 10.618,88.931681 C10.473,89.0278448 10.308,89.0744397 10.145,89.0744397 M95.638,98.8940517 C95.41,98.8940517 95.183,98.8038362 95.014,98.6273707 C94.688,98.2863362 94.704,97.7480172 95.048,97.4248276 C96.605,95.9665086 98.09,94.4050862 99.462,92.7851724 C99.767,92.423319 100.307,92.3787069 100.671,92.6800862 C101.033,92.9814655 101.081,93.5187931 100.775,93.8786638 C99.361,95.5491379 97.832,97.1581466 96.226,98.662069 C96.06,98.8167241 95.849,98.8940517 95.638,98.8940517 M18.547,98.9604741 C18.335,98.9604741 18.124,98.8841379 17.958,98.7294828 C16.35,97.2295259 14.816,95.6225 13.399,93.9559914 C13.095,93.5951293 13.142,93.0587931 13.504,92.7564224 C13.864,92.4550431 14.406,92.4996552 14.714,92.8595259 C16.087,94.4764655 17.574,96.0349138 19.135,97.4902586 C19.48,97.8124569 19.497,98.3507759 19.172,98.6937931 C19.003,98.8722414 18.775,98.9604741 18.547,98.9604741 M85.188,106.624828 C84.892,106.624828 84.604,106.473147 84.445,106.199526 C84.208,105.794052 84.348,105.272586 84.758,105.036638 C86.602,103.978836 88.408,102.798103 90.124,101.527155 C90.505,101.246595 91.04,101.324914 91.325,101.700647 C91.608,102.077371 91.53,102.609741 91.15,102.891293 C89.382,104.200905 87.519,105.417328 85.618,106.509828 C85.481,106.587155 85.334,106.624828 85.188,106.624828 M29.014,106.677371 C28.868,106.677371 28.721,106.64069 28.586,106.563362 C26.681,105.473836 24.815,104.257414 23.042,102.952759 C22.662,102.67319 22.583,102.139828 22.866,101.762112 C23.147,101.386379 23.684,101.306078 24.066,101.587629 C25.785,102.852629 27.595,104.032371 29.444,105.089181 C29.854,105.324138 29.995,105.844612 29.759,106.252069 C29.6,106.523707 29.31,106.677371 29.014,106.677371 M73.221,111.759181 C72.85,111.759181 72.51,111.520259 72.398,111.152457 C72.263,110.701379 72.52,110.228491 72.974,110.092672 C75.017,109.484957 77.051,108.749353 79.017,107.90569 C79.451,107.723276 79.956,107.918578 80.144,108.349828 C80.333,108.781078 80.133,109.281724 79.697,109.468103 C77.671,110.337543 75.575,111.095948 73.468,111.721509 C73.385,111.747284 73.302,111.759181 73.221,111.759181 M40.998,111.789914 C40.917,111.789914 40.836,111.779009 40.754,111.755216 C38.642,111.131638 36.544,110.377198 34.516,109.511724 C34.08,109.325345 33.879,108.826681 34.066,108.39444 C34.254,107.962198 34.763,107.762931 35.192,107.94931 C37.161,108.788017 39.196,109.519655 41.243,110.123405 C41.698,110.258233 41.956,110.731121 41.821,111.182198 C41.71,111.551983 41.369,111.789914 40.998,111.789914 M60.376,114.002672 C59.925,114.002672 59.547,113.653707 59.52,113.201638 C59.493,112.731724 59.854,112.330216 60.327,112.302457 C62.468,112.177543 64.616,111.929698 66.717,111.562888 C67.182,111.479612 67.627,111.790905 67.71,112.253879 C67.792,112.716853 67.48,113.158017 67.014,113.23931 C64.849,113.618017 62.634,113.873793 60.428,114.00069 C60.41,114.001681 60.393,114.002672 60.376,114.002672 M53.848,114.008621 C53.831,114.008621 53.814,114.007629 53.798,114.006638 C51.589,113.884698 49.373,113.631897 47.209,113.258147 C46.742,113.177845 46.43,112.736681 46.512,112.273707 C46.593,111.810733 47.036,111.494483 47.505,111.582716 C49.601,111.944569 51.751,112.188448 53.894,112.308405 C54.367,112.334181 54.729,112.73569 54.703,113.205603 C54.678,113.657672 54.299,114.008621 53.848,114.008621" id="Fill-3" fill="#76B0BD" mask="url(#mask-2)"/>
            </g>
            <path d="M39.578,64.4605733 C39.578,65.0167371 40.004,65.460875 40.536,65.460875 L50.846,65.460875 C51.144,66.3303147 51.947,66.9459612 52.876,66.9459612 L58.988,66.9459612 C59.917,66.9459612 60.72,66.3303147 61.018,65.460875 L71.338,65.460875 C71.87,65.460875 72.295,65.0167371 72.295,64.4605733 C72.295,63.9034181 71.87,63.4592802 71.338,63.4592802 L60.207,63.4592802 C59.675,63.4592802 59.249,63.9034181 59.249,64.4605733 L59.249,64.6826422 C59.249,64.8234181 59.133,64.9453578 58.998,64.9453578 L52.886,64.9453578 C52.75,64.9453578 52.635,64.8234181 52.635,64.6826422 L52.635,64.4605733 C52.625,63.9034181 52.199,63.4592802 51.667,63.4592802 L40.536,63.4592802 C40.004,63.4592802 39.578,63.9034181 39.578,64.4605733" id="Fill-6" fill="#76B0BD"/>
            <path d="M77.7303,66.8354224 C77.7303,68.2501207 76.6273,69.4021034 75.2743,69.4021034 L36.6093,69.4021034 C35.2553,69.4021034 34.1533,68.2501207 34.1533,66.8354224 L34.1533,65.4603793 L36.6583,65.4603793 C37.1903,65.4603793 37.6153,65.0162414 37.6153,64.4600776 L37.6153,28.5017586 L72.3443,28.5017586 C72.3803,28.5017586 72.4113,28.4849052 72.4463,28.4809397 C72.4603,28.481931 72.4733,28.4898621 72.4883,28.4898621 L74.2583,28.4898621 L74.2583,64.4600776 C74.2583,65.0162414 74.6933,65.4603793 75.2253,65.4603793 L77.7303,65.4603793 L77.7303,66.8354224 Z M78.6873,63.4597759 L76.1733,63.4597759 L76.1733,27.6382672 C76.1733,27.475681 76.1283,27.3289569 76.0643,27.1951207 C75.9813,26.7341293 75.5913,26.3742586 75.1043,26.3742586 L72.4883,26.3742586 C72.4523,26.3742586 72.4213,26.3911121 72.3863,26.3950776 C72.3713,26.3940862 72.3593,26.3861552 72.3443,26.3861552 L36.7143,26.3861552 C36.1673,26.3861552 35.7193,26.8302931 35.7193,27.3725776 L35.7193,27.5163276 C35.7193,27.5202931 35.7213,27.5232672 35.7213,27.5262414 C35.7173,27.5649052 35.7003,27.5986121 35.7003,27.6382672 L35.7003,63.4597759 L33.1963,63.4597759 C32.6643,63.4597759 32.2383,63.9039138 32.2383,64.4600776 L32.2383,66.8354224 C32.2383,69.3505517 34.2013,71.4017155 36.6093,71.4017155 L75.2743,71.4017155 C77.6823,71.4017155 79.6453,69.3505517 79.6453,66.8354224 L79.6453,64.4600776 C79.6453,63.9039138 79.2193,63.4597759 78.6873,63.4597759 Z" id="Fill-8" fill="#76B0BD"/>
            <path d="M69.4139,54.6010086 C69.4139,54.6010086 68.5939,54.6029914 67.9839,54.6029914 L66.2069,54.6029914 L51.5989,54.6138966 C51.5829,54.6238103 51.5609,54.638681 51.5599,54.638681 L46.6829,60.0387241 L46.6559,54.6327328 C46.5109,54.5395431 46.3499,54.4721293 46.1649,54.4721293 L44.2109,54.4721293 C43.5479,54.4721293 42.9779,54.0468276 42.7379,53.444069 C42.6519,53.2388534 42.6019,53.0138103 42.6019,52.7758793 L42.6019,37.5552328 L51.3719,49.0701034 C51.5739,49.3357931 51.8809,49.4755776 52.1919,49.4755776 C52.4079,49.4755776 52.6259,49.4091552 52.8099,49.2703621 L69.2919,36.9356207 L69.2919,36.9376034 L69.4209,36.8414397 L69.4209,36.8771293 L69.4429,36.8602759 L69.4029,53.1714397 C69.4319,53.6294569 69.4319,53.8059224 69.4139,54.6010086 M44.1879,33.7780776 L67.8249,33.7780776 C68.3689,33.7780776 68.8489,34.0645862 69.1379,34.5007931 L69.1099,34.5206207 L69.1079,34.5206207 L52.3929,47.0298448 L42.8669,34.5206207 L42.8649,34.5206207 C43.1509,34.0745 43.6369,33.7780776 44.1879,33.7780776 M67.8339,31.7774741 L44.1979,31.7774741 C42.2649,31.7774741 40.6879,33.4241552 40.6879,35.4455776 L40.6879,52.7857931 C40.6879,54.8062241 42.2649,56.4538966 44.1979,56.4538966 L45.1939,56.4538966 L45.1939,60.8496724 C45.1939,61.6675603 45.8329,62.3238534 46.6159,62.3238534 C47.0219,62.3238534 47.4089,62.142431 47.6809,61.8093276 L52.1089,56.4538966 L67.8339,56.4538966 C69.7679,56.4538966 71.3449,54.8062241 71.3449,52.7857931 L71.3449,35.4455776 C71.3449,33.4241552 69.7679,31.7774741 67.8339,31.7774741" id="Fill-10" fill="#76B0BD"/>
            <path d="M67.9843,54.6028922 C68.5933,54.6028922 69.4143,54.6009095 69.4143,54.6009095 L66.2073,54.6028922 L67.9843,54.6028922 Z" id="Fill-12" fill="#F2900A"/>
            <path d="M69.4208,36.8772284 L69.3748,52.3873578 L69.3808,52.6272716 C69.3808,53.1517112 69.3628,52.4418836 69.3808,53.1517112 L69.4138,54.6011078 C69.4318,53.8060216 69.4318,53.6285647 69.4028,53.1715388 L69.4428,36.860375 L69.4208,36.8772284 Z" id="Fill-14" fill="#F2900A"/>
            <path d="M69.3807,52.6269741 L69.3747,52.3870603 L69.4207,36.876931 L52.8227,49.2989138 C52.6387,49.4367155 52.4207,49.5041293 52.2047,49.5041293 C51.8937,49.5041293 51.5857,49.3643448 51.3837,49.0986552 L42.6147,37.5827931 L42.6147,52.8054224 C42.6147,53.0314569 42.6597,53.2465862 42.7377,53.4438707 C42.9787,54.0476207 43.5477,54.471931 44.2107,54.471931 L46.1647,54.471931 C46.3497,54.471931 46.5107,54.5403362 46.6557,54.6325345 L46.6827,60.0395172 L51.5607,54.6384828 C51.5617,54.6384828 51.5827,54.6246034 51.5987,54.6136983 C51.6047,54.6097328 51.6127,54.6027931 51.6137,54.6027931 L66.2067,54.6027931 L69.4137,54.6008103 L69.3807,53.1514138 C69.3627,52.4415862 69.3807,53.1514138 69.3807,52.6269741" id="Fill-16" fill="#F2900A"/>
            <path d="M7.913,105.402457 C7.913,106.775517 6.791,107.887845 5.406,107.887845 C4.021,107.887845 2.899,106.775517 2.899,105.402457 C2.899,104.030388 4.021,102.917069 5.406,102.917069 C6.791,102.917069 7.913,104.030388 7.913,105.402457 Z" id="Stroke-18" stroke="#76B0BD" stroke-width="0.728"/>
            <path d="M98.9637,82.0517069 L100.1877,82.0427845 L100.1787,80.8303276 C100.1777,80.5576983 100.4157,80.3752845 100.7817,80.3733017 C101.1247,80.3703276 101.4007,80.5497672 101.4017,80.8223966 L101.4107,82.0348534 L102.6227,82.0279138 C102.8627,82.025931 103.0937,82.2955862 103.0957,82.6366207 C103.0987,82.9994655 102.8707,83.2383879 102.6307,83.2403707 L101.4187,83.2483017 L101.4267,84.4498534 C101.4287,84.6877845 101.1557,84.9276983 100.8127,84.929681 C100.4457,84.9326552 100.2047,84.6957155 100.2027,84.4577845 L100.1947,83.2562328 L98.9717,83.2641638 C98.6967,83.2661466 98.5127,83.0292069 98.5107,82.6663621 C98.5087,82.3253276 98.6897,82.0526983 98.9637,82.0517069" id="Fill-20" fill="#76B0BD"/>
            <path d="M9.7323,78.9934009 L10.9403,78.9844784 L10.9323,77.7859009 C10.9303,77.5182284 11.1673,77.336806 11.5283,77.3348233 C11.8673,77.3328405 12.1393,77.5102974 12.1403,77.7779698 L12.1493,78.9765474 L13.3463,78.9696078 C13.5843,78.9686164 13.8113,79.234306 13.8133,79.5703836 C13.8163,79.9292629 13.5913,80.1662026 13.3543,80.1681853 L12.1573,80.175125 L12.1653,81.361806 C12.1663,81.5967629 11.8973,81.8337026 11.5583,81.8366767 C11.1973,81.8386595 10.9583,81.6056853 10.9563,81.3697371 L10.9483,80.183056 L9.7403,80.1909871 C9.4683,80.1929698 9.2873,79.9590043 9.2843,79.600125 C9.2823,79.2640474 9.4613,78.9943922 9.7323,78.9934009" id="Fill-22" fill="#3FB28C"/>
            <path d="M98.5575,6.91893534 L99.7815,6.91001293 L99.7735,5.69755603 C99.7715,5.42492672 100.0105,5.24251293 100.3765,5.24053017 C100.7195,5.23755603 100.9955,5.41699569 100.9965,5.689625 L101.0045,6.9020819 L102.2175,6.89514224 C102.4575,6.89315948 102.6875,7.16281466 102.6905,7.50384914 C102.6925,7.86669397 102.4655,8.10561638 102.2255,8.10759914 L101.0125,8.11553017 L101.0215,9.3170819 C101.0225,9.55501293 100.7495,9.79492672 100.4075,9.79690948 C100.0405,9.79988362 99.7985,9.56294397 99.7975,9.32501293 L99.7885,8.12346121 L98.5665,8.13139224 C98.2905,8.133375 98.1075,7.89643534 98.1045,7.53359052 C98.1025,7.19354741 98.2835,6.91992672 98.5575,6.91893534" id="Fill-24" fill="#3FB28C"/>
            <path d="M29.9901,17.0176207 C29.9901,18.390681 28.8681,19.5030086 27.4831,19.5030086 C26.0981,19.5030086 24.9761,18.390681 24.9761,17.0176207 C24.9761,15.6455517 26.0981,14.5322328 27.4831,14.5322328 C28.8681,14.5322328 29.9901,15.6455517 29.9901,17.0176207 Z" id="Stroke-26" stroke="#76B0BD" stroke-width="0.728"/>
            <path d="M100.6444,30.7023233 C100.6444,42.6167198 91.2944,52.2747371 79.7624,52.2747371 C68.2304,52.2747371 58.8814,42.6167198 58.8814,30.7023233 C58.8814,18.7879267 68.2304,9.12990948 79.7624,9.12990948 C91.2944,9.12990948 100.6444,18.7879267 100.6444,30.7023233" id="Fill-28" fill="#3FB28C"/>
            <path d="M90.621,31.7673621 C90.384,32.0241293 90.339,32.4137414 90.519,32.7171034 C90.519,32.7230517 90.751,33.1305086 90.779,33.6896466 C90.818,34.4530086 90.463,35.1281379 89.719,35.7051207 C89.454,35.9143017 89.347,36.2751638 89.46,36.6013276 C89.46,36.6072759 89.702,37.3755948 89.308,38.1042586 C88.93,38.803181 88.09,39.3038276 86.815,39.5833966 C85.796,39.8104224 84.408,39.851069 82.706,39.7122759 L82.627,39.7122759 C79.002,39.793569 75.338,39.3038276 75.299,39.2978793 L75.293,39.2978793 L74.724,39.2274914 C74.757,39.0649052 74.774,38.8904224 74.774,38.7159397 L74.774,29.2452931 C74.774,28.9954655 74.734,28.7505948 74.667,28.5245603 C74.768,28.1339569 75.051,27.2655086 75.716,26.5259397 C78.247,24.4519741 80.722,17.4577931 80.829,17.1554224 C80.874,17.0334828 80.885,16.8986552 80.862,16.764819 C80.767,16.1124914 80.801,15.314431 80.935,15.0765 C81.234,15.0814569 82.041,15.1696897 82.525,15.8616724 C83.1,16.6835259 83.078,18.1517586 82.458,20.0968448 C81.511,23.061069 81.432,24.6215 82.182,25.3085259 C82.554,25.6525345 83.05,25.6703793 83.411,25.5365431 C83.755,25.4542586 84.082,25.3848621 84.392,25.332319 C84.414,25.3263707 84.442,25.3204224 84.465,25.3144741 C86.195,24.9248621 89.296,24.6849483 90.373,25.6991293 C91.286,26.5606379 90.638,27.7017155 90.564,27.8246466 C90.356,28.1508103 90.418,28.5761121 90.7,28.8378362 C90.706,28.8437845 91.298,29.4207672 91.325,30.1950345 C91.349,30.7135259 91.111,31.2439138 90.621,31.7673621 Z M68.99,39.5655517 C68.533,39.5655517 68.167,39.1818879 68.167,38.7159397 L68.167,29.2452931 C68.167,28.7733966 68.539,28.395681 68.99,28.395681 L72.429,28.395681 C72.886,28.395681 73.252,28.7793448 73.252,29.2452931 L73.252,38.7099914 C73.252,39.1818879 72.88,39.5596034 72.429,39.5596034 L68.99,39.5596034 L68.99,39.5655517 Z M92.064,32.4484397 C92.616,31.7207672 92.882,30.9405517 92.848,30.1365431 C92.814,29.2522328 92.431,28.5592586 92.115,28.1339569 C92.481,27.1901638 92.622,25.7050776 91.399,24.5521034 C90.503,23.7074483 88.98,23.3287414 86.872,23.4338276 C85.39,23.5032241 84.149,23.7887414 84.099,23.8006379 L84.093,23.8006379 C83.811,23.853181 83.512,23.9166293 83.208,23.9860259 C83.185,23.6132672 83.247,22.6883103 83.912,20.6024483 C84.701,18.1220172 84.657,16.2225345 83.766,14.953569 C82.83,13.6201638 81.336,13.5150776 80.896,13.5150776 C80.474,13.5150776 80.085,13.6955086 79.808,14.0276207 C79.183,14.7790862 79.256,16.1650345 79.335,16.8054655 C78.591,18.8675345 76.505,23.9225776 74.74,25.3263707 C74.706,25.3491724 74.679,25.3789138 74.65,25.4076638 C74.131,25.97275 73.782,26.5834397 73.545,27.1207672 C73.213,26.9333966 72.835,26.8293017 72.429,26.8293017 L68.99,26.8293017 C67.693,26.8293017 66.644,27.9178362 66.644,29.2522328 L66.644,38.7159397 C66.644,40.0543017 67.699,41.1378793 68.99,41.1378793 L72.429,41.1378793 C72.931,41.1378793 73.398,40.9752931 73.782,40.6957241 L75.106,40.8593017 C75.309,40.8880517 78.918,41.3599483 82.621,41.2846034 C83.292,41.3361552 83.924,41.3658966 84.51,41.3658966 C85.519,41.3658966 86.398,41.2846034 87.132,41.1210259 C88.856,40.742319 90.035,39.9849052 90.632,38.8725776 C91.089,38.0229655 91.089,37.1783103 91.016,36.6419741 C92.138,35.5940862 92.335,34.4341724 92.296,33.6192586 C92.272,33.1483534 92.171,32.7458534 92.064,32.4484397 Z" id="Fill-30" fill="#FAFBFC"/>
            <path d="M61.6512,112.275293 L61.5842,104.285767 L67.2552,105.702448 C67.6982,105.812491 68.1682,105.662793 68.4652,105.314819 C68.7622,104.967836 68.8362,104.484043 68.6512,104.069647 L58.8842,82.0223621 C58.6932,81.5911121 58.2592,81.3155086 57.7822,81.3214569 C57.3042,81.3293879 56.8752,81.6178793 56.6882,82.056069 L47.2172,104.391845 C47.0402,104.81219 47.1192,105.293009 47.4212,105.633052 C47.7222,105.972103 48.1942,106.106931 48.6352,105.983009 L54.2862,104.39581 L54.3522,112.385336 C54.3542,112.700595 54.4372,113.499647 54.6632,113.718741 C54.8882,113.937836 55.2262,113.98344 55.5442,113.978483 L60.3752,113.848612 C61.0352,113.838698 61.7182,113.855552 61.7132,113.201241 L61.6512,112.275293 Z" id="Fill-32" fill="#3FB28C"/>
            <path d="M58.9315,74.465375 C58.9265,73.8110647 58.3885,73.2886078 57.7285,73.2975302 C57.0675,73.3084353 56.5355,73.8467543 56.5405,74.5010647 L56.5655,78.2256767 C56.5685,78.5518405 56.7025,78.8462802 56.9205,79.0584353 C57.1385,79.2686078 57.4385,79.3974871 57.7685,79.3925302 C58.4285,79.3826164 58.9605,78.8442974 58.9555,78.1889957 L58.9315,74.465375 Z" id="Fill-34" fill="#F2900A"/>
            <path d="M53.7684,80.9674353 C54.2314,80.4965302 54.2264,79.7480388 53.7564,79.2920043 L51.0824,76.698556 C50.6134,76.2425216 49.8574,76.2534267 49.3934,76.7233405 C48.9294,77.1932543 48.9344,77.9437284 49.4044,78.3997629 L52.0784,80.9922198 C52.5474,81.4472629 53.3044,81.4373491 53.7684,80.9674353" id="Fill-36" fill="#F2900A"/>
            <path d="M50.8319,83.2580172 L47.0759,83.3155172 C46.4159,83.3244397 45.8849,83.8627586 45.8899,84.5180603 C45.8919,84.8452155 46.0269,85.1386638 46.2449,85.3498276 C46.4619,85.5609914 46.7629,85.6888793 47.0929,85.6839224 L50.8489,85.6284052 C51.5089,85.6184914 52.0399,85.0801724 52.0349,84.4258621 C52.0309,83.7705603 51.4919,83.2481034 50.8319,83.2580172" id="Fill-38" fill="#F2900A"/>
            <path d="M61.7899,80.8463879 C62.2599,81.3024224 63.0169,81.2905259 63.4799,80.8206121 L66.1179,78.1468621 C66.5819,77.6779397 66.5769,76.9274655 66.1059,76.471431 C65.6379,76.0163879 64.8799,76.0282845 64.4169,76.4972069 L61.7779,79.1709569 C61.3139,79.6398793 61.3199,80.3903534 61.7899,80.8463879" id="Fill-40" fill="#F2900A"/>
            <path d="M63.9237,85.0830474 C64.1417,85.2952026 64.4417,85.4230905 64.7717,85.4181336 L68.5277,85.361625 C69.1877,85.3517112 69.7187,84.8133922 69.7137,84.1580905 C69.7097,83.5037802 69.1707,82.9813233 68.5117,82.9922284 L64.7557,83.0477457 C64.0957,83.0576595 63.5647,83.5959784 63.5687,84.2512802 C63.5697,84.577444 63.7057,84.8718836 63.9237,85.0830474" id="Fill-42" fill="#F2900A"/>
            <path d="M8.7255,6.73503448 C8.7255,8.10710345 7.6025,9.22042241 6.2175,9.22042241 C4.8335,9.22042241 3.7105,8.10710345 3.7105,6.73503448 C3.7105,5.36197414 4.8335,4.24865517 6.2175,4.24865517 C7.6025,4.24865517 8.7255,5.36197414 8.7255,6.73503448" id="Fill-44" fill="#3FB28C"/>
            <path d="M104.4364,53.2378621 L105.6604,53.229931 L105.6524,52.0164828 C105.6504,51.7448448 105.8894,51.562431 106.2554,51.5594569 C106.5984,51.5574741 106.8744,51.7359224 106.8754,52.0085517 L106.8834,53.2210086 L108.0954,53.214069 C108.3354,53.2130776 108.5664,53.4827328 108.5694,53.8227759 C108.5714,54.1856207 108.3444,54.4245431 108.1044,54.4265259 L106.8914,54.4344569 L106.9004,55.6360086 C106.9014,55.8739397 106.6284,56.1138534 106.2864,56.1158362 C105.9194,56.1188103 105.6774,55.8828621 105.6764,55.644931 L105.6674,54.4433793 L104.4454,54.4513103 C104.1694,54.4532931 103.9864,54.2153621 103.9834,53.8525172 C103.9814,53.5124741 104.1624,53.2398448 104.4364,53.2378621" id="Fill-46" fill="#76B0BD"/>
            <path d="M111.7421,108.515983 C111.7421,109.904905 110.6051,111.032103 109.2041,111.032103 C107.8021,111.032103 106.6651,109.904905 106.6651,108.515983 C106.6651,107.126069 107.8021,105.999862 109.2041,105.999862 C110.6051,105.999862 111.7421,107.126069 111.7421,108.515983 Z" id="Stroke-48" stroke="#76B0BD" stroke-width="0.737"/>
            <path d="M111.6649,17.2335431 C111.6649,18.6234569 110.5289,19.7496638 109.1269,19.7496638 C107.7259,19.7496638 106.5889,18.6234569 106.5889,17.2335431 C106.5889,15.8446207 107.7259,14.7174224 109.1269,14.7174224 C110.5289,14.7174224 111.6649,15.8446207 111.6649,17.2335431" id="Fill-50" fill="#3FB28C"/>
            <path d="M1.5018,17.2731983 L2.7098,17.2652672 L2.7018,16.0666897 C2.6998,15.7980259 2.9368,15.6175948 3.2978,15.6146207 C3.6368,15.6126379 3.9088,15.7900948 3.9098,16.0577672 L3.9188,17.2563448 L5.1158,17.2494052 C5.3538,17.2484138 5.5808,17.5141034 5.5828,17.850181 C5.5858,18.2090603 5.3608,18.446 5.1238,18.4479828 L3.9268,18.4549224 L3.9348,19.6425948 C3.9358,19.8765603 3.6668,20.1135 3.3278,20.1164741 C2.9668,20.1184569 2.7278,19.8854828 2.7258,19.6495345 L2.7178,18.4628534 L1.5098,18.4707845 C1.2378,18.4727672 1.0568,18.2388017 1.0538,17.8799224 C1.0518,17.5438448 1.2308,17.275181 1.5018,17.2731983" id="Fill-52" fill="#76B0BD"/>
            <path d="M83.5975,78.81525 C83.5975,80.1883103 82.4745,81.3006379 81.0895,81.3006379 C79.7055,81.3006379 78.5825,80.1883103 78.5825,78.81525 C78.5825,77.4421897 79.7055,76.3298621 81.0895,76.3298621 C82.4745,76.3298621 83.5975,77.4421897 83.5975,78.81525" id="Fill-54" fill="#3FB28C"/>
            <path d="M29.5419,46.7416509 C29.5419,48.1147112 28.4199,49.2280302 27.0349,49.2280302 C25.6509,49.2280302 24.5279,48.1147112 24.5279,46.7416509 C24.5279,45.3695819 25.6509,44.2562629 27.0349,44.2562629 C28.4199,44.2562629 29.5419,45.3695819 29.5419,46.7416509 Z" id="Stroke-56" stroke="#76B0BD" stroke-width="0.728"/>
        </g>
    </g>
</svg>