<?xml version="1.0" encoding="UTF-8"?>
<svg width="107px" height="93px" viewBox="0 0 107 93" version="1.1" xmlns="http://www.w3.org/2000/svg" xmlns:xlink="http://www.w3.org/1999/xlink">
    <!-- Generator: sketchtool 57.1 (101010) - https://sketch.com -->
    <title>F86CCCCE-951B-4C99-9590-551CF0B20C32@1,5x</title>
    <desc>Created with sketchtool.</desc>
    <defs>
        <polygon id="mask-cc-1" points="0 91 106 91 106 0 0 0"></polygon>
    </defs>
    <g id="Financeur_Cadhoc_prospect-/-UI" stroke="none" stroke-width="1" fill="none" fill-rule="evenodd">
        <g id="01_05_Commande-Prospect-Cadhoc" transform="translate(-771.000000, -378.000000)">
            <g id="Group-127" transform="translate(771.000000, 379.000000)">
                <path d="M8.47869875,90.0248262 C39.4923582,93.1860949 70.5068301,87.3708121 101.521302,90.5312744 C102.337023,90.6151448 103,90.0183746 103,89.1925738 L103,48.7847853 C70.9991878,45.7719026 38.999188,52.6194365 7,49.6065539 L7,88.4288694 C7,89.2232188 7.66216496,89.9417623 8.47869875,90.0248262 Z" id="Stroke-1" stroke="#4A494A" stroke-width="0.916"></path>
                <path d="M4.478698,86.025254 C35.4931699,89.1857104 66.5076418,83.3704384 97.5213013,86.5317012 C98.337835,86.6139586 99,86.0188024 99,85.1921967 L99,44.7844838 C67,41.7724132 35,48.6191278 3,45.6062508 L3,84.4293001 C3,85.2236481 3.66216422,85.9413838 4.478698,86.025254" id="Fill-3" fill="#FFFFFF"></path>
                <path d="M4.478698,86.025254 C35.4931699,89.1857104 66.5076418,83.3704384 97.5213013,86.5317012 C98.337835,86.6139586 99,86.0188024 99,85.1921967 L99,44.7844838 C67,41.7724132 35,48.6191278 3,45.6062508 L3,84.4293001 C3,85.2236481 3.66216422,85.9413838 4.478698,86.025254 Z" id="Stroke-5" stroke="#4A494A" stroke-width="0.916"></path>
                <path d="M87.6405637,0.216595643 L87.8126843,1.00812323 L88.6044389,0.815744698 C88.7829008,0.772674878 88.9350916,0.899013017 88.9858219,1.13637558 C89.0347404,1.35746733 88.9550214,1.56420246 88.7783713,1.60727228 L87.9857108,1.79965081 L88.1569254,2.58447865 C88.1904437,2.73953 88.0455,2.93095142 87.8235551,2.98454942 C87.5871157,3.04197585 87.398689,2.93190853 87.3651708,2.77685718 L87.194862,1.99107224 L86.4103545,2.18249366 C86.255446,2.21982084 86.060678,2.0800832 86.0117595,1.85803435 C85.9610292,1.62162889 86.0815136,1.42829325 86.2373281,1.39096607 L87.0209296,1.19954465 L86.8488091,0.408017067 C86.8098555,0.23095225 86.9403047,0.0749437903 87.1758382,0.0175173634 C87.3977831,-0.0370377422 87.6016101,0.0376166128 87.6405637,0.216595643" id="Fill-7" fill="#E10B17"></path>
                <path d="M87.6405637,0.216595643 L87.8126843,1.00812323 L88.6044389,0.815744698 C88.7829008,0.772674878 88.9350916,0.899013017 88.9858219,1.13637558 C89.0347404,1.35746733 88.9550214,1.56420246 88.7783713,1.60727228 L87.9857108,1.79965081 L88.1569254,2.58447865 C88.1904437,2.73953 88.0455,2.93095142 87.8235551,2.98454942 C87.5871157,3.04197585 87.398689,2.93190853 87.3651708,2.77685718 L87.194862,1.99107224 L86.4103545,2.18249366 C86.255446,2.21982084 86.060678,2.0800832 86.0117595,1.85803435 C85.9610292,1.62162889 86.0815136,1.42829325 86.2373281,1.39096607 L87.0209296,1.19954465 L86.8488091,0.408017067 C86.8098555,0.23095225 86.9403047,0.0749437903 87.1758382,0.0175173634 C87.3977831,-0.0370377422 87.6016101,0.0376166128 87.6405637,0.216595643 Z" id="Stroke-9" stroke="#8F181A" stroke-width="0.327"></path>
                <path d="M87.6405637,8.21610349 L87.8126843,9.0076003 L88.6044389,8.81618632 C88.7829008,8.7721611 88.9350916,8.8994514 88.9858219,9.13584767 C89.0347404,9.35788789 88.9550214,9.56365792 88.7783713,9.60768314 L87.9866167,9.79909712 L88.1569254,10.5848515 C88.1904437,10.7398968 88.0455,10.9303538 87.8235551,10.9849067 C87.5871157,11.0413739 87.3995949,10.9322679 87.3651708,10.7762655 L87.194862,9.99146817 L86.4103545,10.1828822 C86.255446,10.2202079 86.060678,10.0804757 86.0117595,9.85843545 C85.9610292,9.62203919 86.0815136,9.42871106 86.2373281,9.39138534 L87.0209296,9.19997136 L86.8488091,8.40847454 C86.8098555,8.2314166 86.9403047,8.07541421 87.1758382,8.01703294 C87.3977831,7.96343703 87.6016101,8.03808848 87.6405637,8.21610349" id="Fill-11" fill="#E10B17"></path>
                <path d="M87.6405637,8.21610349 L87.8126843,9.0076003 L88.6044389,8.81618632 C88.7829008,8.7721611 88.9350916,8.8994514 88.9858219,9.13584767 C89.0347404,9.35788789 88.9550214,9.56365792 88.7783713,9.60768314 L87.9866167,9.79909712 L88.1569254,10.5848515 C88.1904437,10.7398968 88.0455,10.9303538 87.8235551,10.9849067 C87.5871157,11.0413739 87.3995949,10.9322679 87.3651708,10.7762655 L87.194862,9.99146817 L86.4103545,10.1828822 C86.255446,10.2202079 86.060678,10.0804757 86.0117595,9.85843545 C85.9610292,9.62203919 86.0815136,9.42871106 86.2373281,9.39138534 L87.0209296,9.19997136 L86.8488091,8.40847454 C86.8098555,8.2314166 86.9403047,8.07541421 87.1758382,8.01703294 C87.3977831,7.96343703 87.6016101,8.03808848 87.6405637,8.21610349 Z" id="Stroke-13" stroke="#8F181A" stroke-width="0.327"></path>
                <path d="M101.733214,20.3601893 L101.951008,21.3568806 C101.989991,21.5350851 102.158632,21.6470225 102.327274,21.6058295 L103.34082,21.3586716 C103.637426,21.2870316 103.890812,21.4983696 103.976404,21.893285 C104.057759,22.2631264 103.925558,22.6069983 103.628951,22.6786383 L102.632355,22.9204232 C102.454391,22.9643027 102.343376,23.1523577 102.384053,23.3404126 L102.595067,24.3066569 C102.651846,24.5663518 102.409476,24.8851498 102.039142,24.9738042 C101.64508,25.0705182 101.331525,24.8869408 101.275593,24.6281413 L101.078986,23.726373 C101.029834,23.5016026 100.817973,23.3619046 100.606111,23.4129481 L99.6832421,23.6368231 C99.4239236,23.699508 99.1010466,23.4675736 99.0205392,23.0977322 C98.9332523,22.7019213 99.1366393,22.3804369 99.3951104,22.3177519 L100.353572,22.0849219 C100.54679,22.0374604 100.66628,21.8350775 100.621365,21.631799 L100.413741,20.6798828 C100.349335,20.3834723 100.565434,20.1237774 100.960343,20.0288544 C101.32983,19.9384089 101.668808,20.0637789 101.733214,20.3601893" id="Fill-15" fill="#E10B17"></path>
                <path d="M101.733214,20.3601893 L101.951008,21.3568806 C101.989991,21.5350851 102.158632,21.6470225 102.327274,21.6058295 L103.34082,21.3586716 C103.637426,21.2870316 103.890812,21.4983696 103.976404,21.893285 C104.057759,22.2631264 103.925558,22.6069983 103.628951,22.6786383 L102.632355,22.9204232 C102.454391,22.9643027 102.343376,23.1523577 102.384053,23.3404126 L102.595067,24.3066569 C102.651846,24.5663518 102.409476,24.8851498 102.039142,24.9738042 C101.64508,25.0705182 101.331525,24.8869408 101.275593,24.6281413 L101.078986,23.726373 C101.029834,23.5016026 100.817973,23.3619046 100.606111,23.4129481 L99.6832421,23.6368231 C99.4239236,23.699508 99.1010466,23.4675736 99.0205392,23.0977322 C98.9332523,22.7019213 99.1366393,22.3804369 99.3951104,22.3177519 L100.353572,22.0849219 C100.54679,22.0374604 100.66628,21.8350775 100.621365,21.631799 L100.413741,20.6798828 C100.349335,20.3834723 100.565434,20.1237774 100.960343,20.0288544 C101.32983,19.9384089 101.668808,20.0637789 101.733214,20.3601893 Z" id="Stroke-17" stroke="#8F181A" stroke-width="0.327"></path>
                <path d="M72.8241568,35.5017096 L72.4340356,35.9810144 L72.9209752,36.4100217 C73.0298959,36.5054389 73.0263364,36.6637278 72.9095848,36.807963 C72.8006641,36.9418429 72.6397747,36.9854833 72.530854,36.8893265 L72.0432025,36.4603191 L71.6566408,36.9351859 C71.5804675,37.0291237 71.3982211,37.0232064 71.2615363,36.9026405 C71.1163087,36.774678 71.092816,36.6001164 71.1697012,36.5061785 L71.5569748,36.0320514 L71.0743066,35.6074821 C70.9782001,35.5224203 70.9703692,35.331586 71.0800018,35.1969664 C71.1967534,35.0534709 71.3690332,35.0438552 71.4644278,35.1274376 L71.947096,35.552007 L72.3372172,35.0727022 C72.4247809,34.9647107 72.5785513,34.9780247 72.7244908,35.1059873 C72.8611756,35.2265531 72.9117205,35.3937181 72.8241568,35.5017096" id="Fill-19" fill="#E10B17"></path>
                <path d="M72.8241568,35.5017096 L72.4340356,35.9810144 L72.9209752,36.4100217 C73.0298959,36.5054389 73.0263364,36.6637278 72.9095848,36.807963 C72.8006641,36.9418429 72.6397747,36.9854833 72.530854,36.8893265 L72.0432025,36.4603191 L71.6566408,36.9351859 C71.5804675,37.0291237 71.3982211,37.0232064 71.2615363,36.9026405 C71.1163087,36.774678 71.092816,36.6001164 71.1697012,36.5061785 L71.5569748,36.0320514 L71.0743066,35.6074821 C70.9782001,35.5224203 70.9703692,35.331586 71.0800018,35.1969664 C71.1967534,35.0534709 71.3690332,35.0438552 71.4644278,35.1274376 L71.947096,35.552007 L72.3372172,35.0727022 C72.4247809,34.9647107 72.5785513,34.9780247 72.7244908,35.1059873 C72.8611756,35.2265531 72.9117205,35.3937181 72.8241568,35.5017096 Z" id="Stroke-21" stroke="#8F181A" stroke-width="0.327"></path>
                <path d="M67.6480131,26.0026358 L67.0582908,26.7267503 C66.952812,26.8562937 66.9679946,27.0506089 67.0926513,27.1602225 L67.8413909,27.8195653 C68.0603393,28.0113892 68.0523485,28.3286045 67.8190166,28.6150948 C67.5992692,28.8841465 67.2788374,28.9705088 67.0614872,28.7786849 L66.3247338,28.1309678 C66.1936844,28.0147109 65.9963112,28.031319 65.8852388,28.1675057 L65.3130963,28.8700296 C65.1596726,29.0593623 64.7960904,29.0452454 64.5228045,28.8052579 C64.2319387,28.5486623 64.185592,28.2007219 64.3390157,28.0130501 L64.8720032,27.3578593 C65.0046508,27.1950996 64.9854728,26.9517905 64.8288528,26.8131126 L64.1480351,26.2135591 C63.9570546,26.0449865 63.9402739,25.6621691 64.1600214,25.3931174 C64.3933532,25.1066271 64.7369584,25.085867 64.928738,25.2552699 L65.6359253,25.8780748 C65.7781619,26.0026358 65.9907176,25.9843669 66.1105799,25.8365545 L66.6739325,25.1456562 C66.8489314,24.9297505 67.157377,24.9554931 67.4482427,25.2120888 C67.7215287,25.4520763 67.823012,25.7875605 67.6480131,26.0026358" id="Fill-23" fill="#E10B17"></path>
                <path d="M67.6480131,26.0026358 L67.0582908,26.7267503 C66.952812,26.8562937 66.9679946,27.0506089 67.0926513,27.1602225 L67.8413909,27.8195653 C68.0603393,28.0113892 68.0523485,28.3286045 67.8190166,28.6150948 C67.5992692,28.8841465 67.2788374,28.9705088 67.0614872,28.7786849 L66.3247338,28.1309678 C66.1936844,28.0147109 65.9963112,28.031319 65.8852388,28.1675057 L65.3130963,28.8700296 C65.1596726,29.0593623 64.7960904,29.0452454 64.5228045,28.8052579 C64.2319387,28.5486623 64.185592,28.2007219 64.3390157,28.0130501 L64.8720032,27.3578593 C65.0046508,27.1950996 64.9854728,26.9517905 64.8288528,26.8131126 L64.1480351,26.2135591 C63.9570546,26.0449865 63.9402739,25.6621691 64.1600214,25.3931174 C64.3933532,25.1066271 64.7369584,25.085867 64.928738,25.2552699 L65.6359253,25.8780748 C65.7781619,26.0026358 65.9907176,25.9843669 66.1105799,25.8365545 L66.6739325,25.1456562 C66.8489314,24.9297505 67.157377,24.9554931 67.4482427,25.2120888 C67.7215287,25.4520763 67.823012,25.7875605 67.6480131,26.0026358 Z" id="Stroke-25" stroke="#8F181A" stroke-width="0.327"></path>
                <path d="M80.7342401,28.6219086 L79.9416667,28.8931343 C79.8000583,28.9427592 79.7184168,29.1181575 79.7588763,29.2858554 L80.005246,30.2954653 C80.0774951,30.5897922 79.9192695,30.8567399 79.6057081,30.9645457 C79.3109315,31.0646511 79.0277147,30.9500005 78.956188,30.6556735 L78.7134308,29.6631757 C78.6708038,29.4860662 78.5140231,29.3842496 78.3644673,29.4347301 L77.5950137,29.699111 C77.3891035,29.7692703 77.1217816,29.5425359 77.0314701,29.1746272 C76.9361012,28.7819061 77.0690397,28.4567775 77.2749498,28.3857626 L77.9923841,28.1402049 C78.1701171,28.0786016 78.2734334,27.8570008 78.221414,27.6456672 L77.998164,26.7284623 C77.9345848,26.4700707 78.1072603,26.132108 78.4013144,26.0311471 C78.7155983,25.9233413 78.9843652,26.1098624 79.047222,26.3682541 L79.2798643,27.3213942 C79.3268263,27.513049 79.4958893,27.6234216 79.6577275,27.5686631 L80.4141763,27.3085602 C80.6497086,27.2281337 80.869346,27.4317668 80.9647149,27.8244879 C81.0550264,28.1932522 80.9697724,28.5406265 80.7342401,28.6219086" id="Fill-27" fill="#E10B17"></path>
                <path d="M80.7342401,28.6219086 L79.9416667,28.8931343 C79.8000583,28.9427592 79.7184168,29.1181575 79.7588763,29.2858554 L80.005246,30.2954653 C80.0774951,30.5897922 79.9192695,30.8567399 79.6057081,30.9645457 C79.3109315,31.0646511 79.0277147,30.9500005 78.956188,30.6556735 L78.7134308,29.6631757 C78.6708038,29.4860662 78.5140231,29.3842496 78.3644673,29.4347301 L77.5950137,29.699111 C77.3891035,29.7692703 77.1217816,29.5425359 77.0314701,29.1746272 C76.9361012,28.7819061 77.0690397,28.4567775 77.2749498,28.3857626 L77.9923841,28.1402049 C78.1701171,28.0786016 78.2734334,27.8570008 78.221414,27.6456672 L77.998164,26.7284623 C77.9345848,26.4700707 78.1072603,26.132108 78.4013144,26.0311471 C78.7155983,25.9233413 78.9843652,26.1098624 79.047222,26.3682541 L79.2798643,27.3213942 C79.3268263,27.513049 79.4958893,27.6234216 79.6577275,27.5686631 L80.4141763,27.3085602 C80.6497086,27.2281337 80.869346,27.4317668 80.9647149,27.8244879 C81.0550264,28.1932522 80.9697724,28.5406265 80.7342401,28.6219086 Z" id="Stroke-29" stroke="#8F181A" stroke-width="0.327"></path>
                <path d="M88.7334845,29.3597064 L88.9512596,30.3572057 C88.9902388,30.5344991 89.1588663,30.6464268 89.3266464,30.6061328 L90.3409533,30.3589965 C90.6366869,30.2873628 90.8908991,30.4977868 90.9764839,30.893563 C91.0578318,31.263372 90.9247941,31.6072138 90.6290605,31.6788475 L89.6325485,31.9206112 C89.4545999,31.9644869 89.3435939,32.1516299 89.3842678,32.3405638 L89.595264,33.3067234 C89.6511907,33.5655001 89.4096891,33.8842701 89.0393865,33.9738122 C88.6453575,34.0705177 88.3318291,33.8869563 88.2759024,33.6272842 L88.0793116,32.725595 C88.0301639,32.5017396 87.8183203,32.3620539 87.6064768,32.4130929 L86.6836863,32.6369483 C86.4243898,32.6996277 86.1015403,32.4677136 86.0201923,32.0970092 C85.9337602,31.7021284 86.13713,31.3806722 86.3955791,31.3179927 L87.3539593,31.0851832 C87.5471606,31.0377259 87.6666404,30.8344652 87.6217295,30.6321 L87.4141229,29.6802672 C87.3497224,29.3838828 87.5658028,29.1242106 87.9606792,29.0284005 C88.3301343,28.9388584 88.669084,29.0642174 88.7334845,29.3597064" id="Fill-31" fill="#E10B17"></path>
                <path d="M88.7334845,29.3597064 L88.9512596,30.3572057 C88.9902388,30.5344991 89.1588663,30.6464268 89.3266464,30.6061328 L90.3409533,30.3589965 C90.6366869,30.2873628 90.8908991,30.4977868 90.9764839,30.893563 C91.0578318,31.263372 90.9247941,31.6072138 90.6290605,31.6788475 L89.6325485,31.9206112 C89.4545999,31.9644869 89.3435939,32.1516299 89.3842678,32.3405638 L89.595264,33.3067234 C89.6511907,33.5655001 89.4096891,33.8842701 89.0393865,33.9738122 C88.6453575,34.0705177 88.3318291,33.8869563 88.2759024,33.6272842 L88.0793116,32.725595 C88.0301639,32.5017396 87.8183203,32.3620539 87.6064768,32.4130929 L86.6836863,32.6369483 C86.4243898,32.6996277 86.1015403,32.4677136 86.0201923,32.0970092 C85.9337602,31.7021284 86.13713,31.3806722 86.3955791,31.3179927 L87.3539593,31.0851832 C87.5471606,31.0377259 87.6666404,30.8344652 87.6217295,30.6321 L87.4141229,29.6802672 C87.3497224,29.3838828 87.5658028,29.1242106 87.9606792,29.0284005 C88.3301343,28.9388584 88.669084,29.0642174 88.7334845,29.3597064 Z" id="Stroke-33" stroke="#8F181A" stroke-width="0.327"></path>
                <path d="M76.9540315,16.0241301 C77.2161493,17.3797325 76.3307397,18.6911387 74.9751944,18.9540295 C73.6196491,19.2161584 72.308298,18.3307115 72.0461802,16.9751092 C71.7833004,15.6202688 72.669472,14.3081006 74.0242553,14.0459717 C75.3798006,13.7838429 76.6911517,14.6692897 76.9540315,16.0241301" id="Fill-35" fill="#E10B17"></path>
                <path d="M76.9540315,16.0241301 C77.2161493,17.3797325 76.3307397,18.6911387 74.9751944,18.9540295 C73.6196491,19.2161584 72.308298,18.3307115 72.0461802,16.9751092 C71.7833004,15.6202688 72.669472,14.3081006 74.0242553,14.0459717 C75.3798006,13.7838429 76.6911517,14.6692897 76.9540315,16.0241301 Z" id="Stroke-37" stroke="#8F181A" stroke-width="0.297"></path>
                <path d="M75.972399,5.21521667 C76.1297364,6.02820144 75.5984482,6.81557462 74.7854163,6.97217115 C73.9723844,7.13023119 73.1849655,6.59897382 73.0276281,5.7852573 C72.8702907,4.97227253 73.4008471,4.18563111 74.2146108,4.02757106 C75.0276428,3.87024278 75.8150616,4.40223191 75.972399,5.21521667" id="Fill-39" fill="#E10B17"></path>
                <path d="M75.972399,5.21521667 C76.1297364,6.02820144 75.5984482,6.81557462 74.7854163,6.97217115 C73.9723844,7.13023119 73.1849655,6.59897382 73.0276281,5.7852573 C72.8702907,4.97227253 73.4008471,4.18563111 74.2146108,4.02757106 C75.0276428,3.87024278 75.8150616,4.40223191 75.972399,5.21521667 Z" id="Stroke-41" stroke="#8F181A" stroke-width="0.185"></path>
                <path d="M88.9724289,17.2145018 C89.1297572,18.0274789 88.5977681,18.8155764 87.7847833,18.9721714 C86.9717986,19.13023 86.1844254,18.5989776 86.0278289,17.7852688 C85.8697688,16.9722917 86.4010262,16.1856577 87.2147427,16.0275991 C88.0277275,15.8702723 88.8143689,16.4015247 88.9724289,17.2145018" id="Fill-43" fill="#E10B17"></path>
                <path d="M88.9724289,17.2145018 C89.1297572,18.0274789 88.5977681,18.8155764 87.7847833,18.9721714 C86.9717986,19.13023 86.1844254,18.5989776 86.0278289,17.7852688 C85.8697688,16.9722917 86.4010262,16.1856577 87.2147427,16.0275991 C88.0277275,15.8702723 88.8143689,16.4015247 88.9724289,17.2145018 Z" id="Stroke-45" stroke="#8F181A" stroke-width="0.185"></path>
                <path d="M103.733903,13.193237 L104.125638,13.9593899 C104.196005,14.0964319 104.358503,14.1469211 104.489081,14.0739923 L105.274728,13.6324125 C105.50324,13.5033847 105.757868,13.6163842 105.913112,13.9193192 C106.058924,14.204623 106.022652,14.5171749 105.793415,14.6462028 L105.021551,15.0805698 C104.883718,15.1583071 104.832212,15.3386255 104.906207,15.4828802 L105.287061,16.2257921 C105.388622,16.4245431 105.256592,16.7435063 104.970045,16.9045908 C104.664637,17.0768951 104.367208,16.9999592 104.264922,16.8004068 L103.910184,16.1079841 C103.822406,15.9356798 103.617833,15.8707652 103.453159,15.9629279 L102.739331,16.3652384 C102.53911,16.4782379 102.222095,16.3636355 102.076282,16.0791331 C101.921039,15.7761982 102.019699,15.4636463 102.219919,15.3506467 L102.962039,14.9331094 C103.110754,14.8489608 103.166612,14.6550183 103.086089,14.4987424 L102.71249,13.7678517 C102.595694,13.5402498 102.719018,13.2765842 103.023701,13.1042799 C103.310974,12.9431955 103.617108,12.9656351 103.733903,13.193237" id="Fill-47" fill="#E10B17"></path>
                <path d="M103.733903,13.193237 L104.125638,13.9593899 C104.196005,14.0964319 104.358503,14.1469211 104.489081,14.0739923 L105.274728,13.6324125 C105.50324,13.5033847 105.757868,13.6163842 105.913112,13.9193192 C106.058924,14.204623 106.022652,14.5171749 105.793415,14.6462028 L105.021551,15.0805698 C104.883718,15.1583071 104.832212,15.3386255 104.906207,15.4828802 L105.287061,16.2257921 C105.388622,16.4245431 105.256592,16.7435063 104.970045,16.9045908 C104.664637,17.0768951 104.367208,16.9999592 104.264922,16.8004068 L103.910184,16.1079841 C103.822406,15.9356798 103.617833,15.8707652 103.453159,15.9629279 L102.739331,16.3652384 C102.53911,16.4782379 102.222095,16.3636355 102.076282,16.0791331 C101.921039,15.7761982 102.019699,15.4636463 102.219919,15.3506467 L102.962039,14.9331094 C103.110754,14.8489608 103.166612,14.6550183 103.086089,14.4987424 L102.71249,13.7678517 C102.595694,13.5402498 102.719018,13.2765842 103.023701,13.1042799 C103.310974,12.9431955 103.617108,12.9656351 103.733903,13.193237 Z" id="Stroke-49" stroke="#8F181A" stroke-width="0.319"></path>
                <path d="M96.1532332,7.16049291 L96.2294119,7.69232963 L96.7596455,7.60663082 C96.8788161,7.58814677 96.9730966,7.67972687 96.9957239,7.83852172 C97.017597,7.98723436 96.9542405,8.11914331 96.8358241,8.13762736 L96.3055905,8.22332617 L96.3810149,8.7492816 C96.3960998,8.85346447 96.2920141,8.97109029 96.1426738,8.99545563 C95.9842825,9.02066116 95.8658662,8.93748291 95.8515356,8.83330004 L95.7753569,8.30734461 L95.250403,8.39136305 C95.1463173,8.40816674 95.024884,8.30566424 95.0037652,8.1569516 C94.9803836,7.99815675 95.0693844,7.87801038 95.1742243,7.86036651 L95.6991782,7.77634807 L95.6229996,7.24619172 C95.605652,7.12604535 95.698424,7.03110451 95.8568153,7.00505879 C96.0061556,6.98153363 96.1366398,7.04118672 96.1532332,7.16049291" id="Fill-51" fill="#E10B17"></path>
                <path d="M96.1532332,7.16049291 L96.2294119,7.69232963 L96.7596455,7.60663082 C96.8788161,7.58814677 96.9730966,7.67972687 96.9957239,7.83852172 C97.017597,7.98723436 96.9542405,8.11914331 96.8358241,8.13762736 L96.3055905,8.22332617 L96.3810149,8.7492816 C96.3960998,8.85346447 96.2920141,8.97109029 96.1426738,8.99545563 C95.9842825,9.02066116 95.8658662,8.93748291 95.8515356,8.83330004 L95.7753569,8.30734461 L95.250403,8.39136305 C95.1463173,8.40816674 95.024884,8.30566424 95.0037652,8.1569516 C94.9803836,7.99815675 95.0693844,7.87801038 95.1742243,7.86036651 L95.6991782,7.77634807 L95.6229996,7.24619172 C95.605652,7.12604535 95.698424,7.03110451 95.8568153,7.00505879 C96.0061556,6.98153363 96.1366398,7.04118672 96.1532332,7.16049291 Z" id="Stroke-53" stroke="#8F181A" stroke-width="0.253"></path>
                <path d="M93.5022855,24.1354019 C93.9795882,24.4130941 94.1419763,25.0252636 93.8645359,25.5030883 C93.5870955,25.9802204 92.9750172,26.1415727 92.4977145,25.864573 C92.0204118,25.5875732 91.8580237,24.9754037 92.1354641,24.4975791 C92.413562,24.0197545 93.0249828,23.8584021 93.5022855,24.1354019" id="Fill-55" fill="#E10B17"></path>
                <path d="M93.5022855,24.1354019 C93.9795882,24.4130941 94.1419763,25.0252636 93.8645359,25.5030883 C93.5870955,25.9802204 92.9750172,26.1415727 92.4977145,25.864573 C92.0204118,25.5875732 91.8580237,24.9754037 92.1354641,24.4975791 C92.413562,24.0197545 93.0249828,23.8584021 93.5022855,24.1354019 Z" id="Stroke-57" stroke="#8F181A" stroke-width="0.134"></path>
                <path d="M96.7513492,13.0677351 C96.989902,13.2071734 97.0707873,13.5125803 96.9324618,13.750736 C96.7935502,13.9901257 96.487593,14.0709506 96.2490402,13.9321292 C96.0099013,13.7939249 95.9290161,13.487901 96.0679277,13.2491283 C96.2062531,13.0103556 96.5127964,12.9289137 96.7513492,13.0677351" id="Fill-59" fill="#E10B17"></path>
                <path d="M96.7513492,13.0677351 C96.989902,13.2071734 97.0707873,13.5125803 96.9324618,13.750736 C96.7935502,13.9901257 96.487593,14.0709506 96.2490402,13.9321292 C96.0099013,13.7939249 95.9290161,13.487901 96.0679277,13.2491283 C96.2062531,13.0103556 96.5127964,12.9289137 96.7513492,13.0677351 Z" id="Stroke-61" stroke="#8F181A" stroke-width="0.075"></path>
                <path d="M87.6405637,0.216595643 L87.8126843,1.00812323 L88.6044389,0.815744698 C88.7829008,0.772674878 88.9350916,0.899013017 88.9858219,1.13637558 C89.0347404,1.35746733 88.9550214,1.56420246 88.7783713,1.60727228 L87.9857108,1.79965081 L88.1569254,2.58447865 C88.1904437,2.73953 88.0455,2.93095142 87.8235551,2.98454942 C87.5871157,3.04197585 87.398689,2.93190853 87.3651708,2.77685718 L87.194862,1.99107224 L86.4103545,2.18249366 C86.255446,2.21982084 86.060678,2.0800832 86.0117595,1.85803435 C85.9610292,1.62162889 86.0815136,1.42829325 86.2373281,1.39096607 L87.0209296,1.19954465 L86.8488091,0.408017067 C86.8098555,0.23095225 86.9403047,0.0749437903 87.1758382,0.0175173634 C87.3977831,-0.0370377422 87.6016101,0.0376166128 87.6405637,0.216595643" id="Fill-63" fill="#E10B17"></path>
                <path d="M87.6405637,0.216595643 L87.8126843,1.00812323 L88.6044389,0.815744698 C88.7829008,0.772674878 88.9350916,0.899013017 88.9858219,1.13637558 C89.0347404,1.35746733 88.9550214,1.56420246 88.7783713,1.60727228 L87.9857108,1.79965081 L88.1569254,2.58447865 C88.1904437,2.73953 88.0455,2.93095142 87.8235551,2.98454942 C87.5871157,3.04197585 87.398689,2.93190853 87.3651708,2.77685718 L87.194862,1.99107224 L86.4103545,2.18249366 C86.255446,2.21982084 86.060678,2.0800832 86.0117595,1.85803435 C85.9610292,1.62162889 86.0815136,1.42829325 86.2373281,1.39096607 L87.0209296,1.19954465 L86.8488091,0.408017067 C86.8098555,0.23095225 86.9403047,0.0749437903 87.1758382,0.0175173634 C87.3977831,-0.0370377422 87.6016101,0.0376166128 87.6405637,0.216595643 Z" id="Stroke-65" stroke="#8F181A" stroke-width="0.327"></path>
                <path d="M87.6405637,8.21610349 L87.8126843,9.0076003 L88.6044389,8.81618632 C88.7829008,8.7721611 88.9350916,8.8994514 88.9858219,9.13584767 C89.0347404,9.35788789 88.9550214,9.56365792 88.7783713,9.60768314 L87.9866167,9.79909712 L88.1569254,10.5848515 C88.1904437,10.7398968 88.0455,10.9303538 87.8235551,10.9849067 C87.5871157,11.0413739 87.3995949,10.9322679 87.3651708,10.7762655 L87.194862,9.99146817 L86.4103545,10.1828822 C86.255446,10.2202079 86.060678,10.0804757 86.0117595,9.85843545 C85.9610292,9.62203919 86.0815136,9.42871106 86.2373281,9.39138534 L87.0209296,9.19997136 L86.8488091,8.40847454 C86.8098555,8.2314166 86.9403047,8.07541421 87.1758382,8.01703294 C87.3977831,7.96343703 87.6016101,8.03808848 87.6405637,8.21610349" id="Fill-67" fill="#E10B17"></path>
                <path d="M87.6405637,8.21610349 L87.8126843,9.0076003 L88.6044389,8.81618632 C88.7829008,8.7721611 88.9350916,8.8994514 88.9858219,9.13584767 C89.0347404,9.35788789 88.9550214,9.56365792 88.7783713,9.60768314 L87.9866167,9.79909712 L88.1569254,10.5848515 C88.1904437,10.7398968 88.0455,10.9303538 87.8235551,10.9849067 C87.5871157,11.0413739 87.3995949,10.9322679 87.3651708,10.7762655 L87.194862,9.99146817 L86.4103545,10.1828822 C86.255446,10.2202079 86.060678,10.0804757 86.0117595,9.85843545 C85.9610292,9.62203919 86.0815136,9.42871106 86.2373281,9.39138534 L87.0209296,9.19997136 L86.8488091,8.40847454 C86.8098555,8.2314166 86.9403047,8.07541421 87.1758382,8.01703294 C87.3977831,7.96343703 87.6016101,8.03808848 87.6405637,8.21610349 Z" id="Stroke-69" stroke="#8F181A" stroke-width="0.327"></path>
                <path d="M101.733214,20.3601893 L101.951008,21.3568806 C101.989991,21.5350851 102.158632,21.6470225 102.327274,21.6058295 L103.34082,21.3586716 C103.637426,21.2870316 103.890812,21.4983696 103.976404,21.893285 C104.057759,22.2631264 103.925558,22.6069983 103.628951,22.6786383 L102.632355,22.9204232 C102.454391,22.9643027 102.343376,23.1523577 102.384053,23.3404126 L102.595067,24.3066569 C102.651846,24.5663518 102.409476,24.8851498 102.039142,24.9738042 C101.64508,25.0705182 101.331525,24.8869408 101.275593,24.6281413 L101.078986,23.726373 C101.029834,23.5016026 100.817973,23.3619046 100.606111,23.4129481 L99.6832421,23.6368231 C99.4239236,23.699508 99.1010466,23.4675736 99.0205392,23.0977322 C98.9332523,22.7019213 99.1366393,22.3804369 99.3951104,22.3177519 L100.353572,22.0849219 C100.54679,22.0374604 100.66628,21.8350775 100.621365,21.631799 L100.413741,20.6798828 C100.349335,20.3834723 100.565434,20.1237774 100.960343,20.0288544 C101.32983,19.9384089 101.668808,20.0637789 101.733214,20.3601893" id="Fill-71" fill="#E10B17"></path>
                <path d="M101.733214,20.3601893 L101.951008,21.3568806 C101.989991,21.5350851 102.158632,21.6470225 102.327274,21.6058295 L103.34082,21.3586716 C103.637426,21.2870316 103.890812,21.4983696 103.976404,21.893285 C104.057759,22.2631264 103.925558,22.6069983 103.628951,22.6786383 L102.632355,22.9204232 C102.454391,22.9643027 102.343376,23.1523577 102.384053,23.3404126 L102.595067,24.3066569 C102.651846,24.5663518 102.409476,24.8851498 102.039142,24.9738042 C101.64508,25.0705182 101.331525,24.8869408 101.275593,24.6281413 L101.078986,23.726373 C101.029834,23.5016026 100.817973,23.3619046 100.606111,23.4129481 L99.6832421,23.6368231 C99.4239236,23.699508 99.1010466,23.4675736 99.0205392,23.0977322 C98.9332523,22.7019213 99.1366393,22.3804369 99.3951104,22.3177519 L100.353572,22.0849219 C100.54679,22.0374604 100.66628,21.8350775 100.621365,21.631799 L100.413741,20.6798828 C100.349335,20.3834723 100.565434,20.1237774 100.960343,20.0288544 C101.32983,19.9384089 101.668808,20.0637789 101.733214,20.3601893 Z" id="Stroke-73" stroke="#8F181A" stroke-width="0.327"></path>
                <path d="M67.6480131,26.0026358 L67.0582908,26.7267503 C66.952812,26.8562937 66.9679946,27.0506089 67.0926513,27.1602225 L67.8413909,27.8195653 C68.0603393,28.0113892 68.0523485,28.3286045 67.8190166,28.6150948 C67.5992692,28.8841465 67.2788374,28.9705088 67.0614872,28.7786849 L66.3247338,28.1309678 C66.1936844,28.0147109 65.9963112,28.031319 65.8852388,28.1675057 L65.3130963,28.8700296 C65.1596726,29.0593623 64.7960904,29.0452454 64.5228045,28.8052579 C64.2319387,28.5486623 64.185592,28.2007219 64.3390157,28.0130501 L64.8720032,27.3578593 C65.0046508,27.1950996 64.9854728,26.9517905 64.8288528,26.8131126 L64.1480351,26.2135591 C63.9570546,26.0449865 63.9402739,25.6621691 64.1600214,25.3931174 C64.3933532,25.1066271 64.7369584,25.085867 64.928738,25.2552699 L65.6359253,25.8780748 C65.7781619,26.0026358 65.9907176,25.9843669 66.1105799,25.8365545 L66.6739325,25.1456562 C66.8489314,24.9297505 67.157377,24.9554931 67.4482427,25.2120888 C67.7215287,25.4520763 67.823012,25.7875605 67.6480131,26.0026358" id="Fill-75" fill="#E10B17"></path>
                <path d="M67.6480131,26.0026358 L67.0582908,26.7267503 C66.952812,26.8562937 66.9679946,27.0506089 67.0926513,27.1602225 L67.8413909,27.8195653 C68.0603393,28.0113892 68.0523485,28.3286045 67.8190166,28.6150948 C67.5992692,28.8841465 67.2788374,28.9705088 67.0614872,28.7786849 L66.3247338,28.1309678 C66.1936844,28.0147109 65.9963112,28.031319 65.8852388,28.1675057 L65.3130963,28.8700296 C65.1596726,29.0593623 64.7960904,29.0452454 64.5228045,28.8052579 C64.2319387,28.5486623 64.185592,28.2007219 64.3390157,28.0130501 L64.8720032,27.3578593 C65.0046508,27.1950996 64.9854728,26.9517905 64.8288528,26.8131126 L64.1480351,26.2135591 C63.9570546,26.0449865 63.9402739,25.6621691 64.1600214,25.3931174 C64.3933532,25.1066271 64.7369584,25.085867 64.928738,25.2552699 L65.6359253,25.8780748 C65.7781619,26.0026358 65.9907176,25.9843669 66.1105799,25.8365545 L66.6739325,25.1456562 C66.8489314,24.9297505 67.157377,24.9554931 67.4482427,25.2120888 C67.7215287,25.4520763 67.823012,25.7875605 67.6480131,26.0026358 Z" id="Stroke-77" stroke="#8F181A" stroke-width="0.327"></path>
                <path d="M80.7342401,28.6219086 L79.9416667,28.8931343 C79.8000583,28.9427592 79.7184168,29.1181575 79.7588763,29.2858554 L80.005246,30.2954653 C80.0774951,30.5897922 79.9192695,30.8567399 79.6057081,30.9645457 C79.3109315,31.0646511 79.0277147,30.9500005 78.956188,30.6556735 L78.7134308,29.6631757 C78.6708038,29.4860662 78.5140231,29.3842496 78.3644673,29.4347301 L77.5950137,29.699111 C77.3891035,29.7692703 77.1217816,29.5425359 77.0314701,29.1746272 C76.9361012,28.7819061 77.0690397,28.4567775 77.2749498,28.3857626 L77.9923841,28.1402049 C78.1701171,28.0786016 78.2734334,27.8570008 78.221414,27.6456672 L77.998164,26.7284623 C77.9345848,26.4700707 78.1072603,26.132108 78.4013144,26.0311471 C78.7155983,25.9233413 78.9843652,26.1098624 79.047222,26.3682541 L79.2798643,27.3213942 C79.3268263,27.513049 79.4958893,27.6234216 79.6577275,27.5686631 L80.4141763,27.3085602 C80.6497086,27.2281337 80.869346,27.4317668 80.9647149,27.8244879 C81.0550264,28.1932522 80.9697724,28.5406265 80.7342401,28.6219086" id="Fill-79" fill="#E10B17"></path>
                <path d="M80.7342401,28.6219086 L79.9416667,28.8931343 C79.8000583,28.9427592 79.7184168,29.1181575 79.7588763,29.2858554 L80.005246,30.2954653 C80.0774951,30.5897922 79.9192695,30.8567399 79.6057081,30.9645457 C79.3109315,31.0646511 79.0277147,30.9500005 78.956188,30.6556735 L78.7134308,29.6631757 C78.6708038,29.4860662 78.5140231,29.3842496 78.3644673,29.4347301 L77.5950137,29.699111 C77.3891035,29.7692703 77.1217816,29.5425359 77.0314701,29.1746272 C76.9361012,28.7819061 77.0690397,28.4567775 77.2749498,28.3857626 L77.9923841,28.1402049 C78.1701171,28.0786016 78.2734334,27.8570008 78.221414,27.6456672 L77.998164,26.7284623 C77.9345848,26.4700707 78.1072603,26.132108 78.4013144,26.0311471 C78.7155983,25.9233413 78.9843652,26.1098624 79.047222,26.3682541 L79.2798643,27.3213942 C79.3268263,27.513049 79.4958893,27.6234216 79.6577275,27.5686631 L80.4141763,27.3085602 C80.6497086,27.2281337 80.869346,27.4317668 80.9647149,27.8244879 C81.0550264,28.1932522 80.9697724,28.5406265 80.7342401,28.6219086 Z" id="Stroke-81" stroke="#8F181A" stroke-width="0.327"></path>
                <path d="M88.7334845,29.3597064 L88.9512596,30.3572057 C88.9902388,30.5344991 89.1588663,30.6464268 89.3266464,30.6061328 L90.3409533,30.3589965 C90.6366869,30.2873628 90.8908991,30.4977868 90.9764839,30.893563 C91.0578318,31.263372 90.9247941,31.6072138 90.6290605,31.6788475 L89.6325485,31.9206112 C89.4545999,31.9644869 89.3435939,32.1516299 89.3842678,32.3405638 L89.595264,33.3067234 C89.6511907,33.5655001 89.4096891,33.8842701 89.0393865,33.9738122 C88.6453575,34.0705177 88.3318291,33.8869563 88.2759024,33.6272842 L88.0793116,32.725595 C88.0301639,32.5017396 87.8183203,32.3620539 87.6064768,32.4130929 L86.6836863,32.6369483 C86.4243898,32.6996277 86.1015403,32.4677136 86.0201923,32.0970092 C85.9337602,31.7021284 86.13713,31.3806722 86.3955791,31.3179927 L87.3539593,31.0851832 C87.5471606,31.0377259 87.6666404,30.8344652 87.6217295,30.6321 L87.4141229,29.6802672 C87.3497224,29.3838828 87.5658028,29.1242106 87.9606792,29.0284005 C88.3301343,28.9388584 88.669084,29.0642174 88.7334845,29.3597064" id="Fill-83" fill="#E10B17"></path>
                <path d="M88.7334845,29.3597064 L88.9512596,30.3572057 C88.9902388,30.5344991 89.1588663,30.6464268 89.3266464,30.6061328 L90.3409533,30.3589965 C90.6366869,30.2873628 90.8908991,30.4977868 90.9764839,30.893563 C91.0578318,31.263372 90.9247941,31.6072138 90.6290605,31.6788475 L89.6325485,31.9206112 C89.4545999,31.9644869 89.3435939,32.1516299 89.3842678,32.3405638 L89.595264,33.3067234 C89.6511907,33.5655001 89.4096891,33.8842701 89.0393865,33.9738122 C88.6453575,34.0705177 88.3318291,33.8869563 88.2759024,33.6272842 L88.0793116,32.725595 C88.0301639,32.5017396 87.8183203,32.3620539 87.6064768,32.4130929 L86.6836863,32.6369483 C86.4243898,32.6996277 86.1015403,32.4677136 86.0201923,32.0970092 C85.9337602,31.7021284 86.13713,31.3806722 86.3955791,31.3179927 L87.3539593,31.0851832 C87.5471606,31.0377259 87.6666404,30.8344652 87.6217295,30.6321 L87.4141229,29.6802672 C87.3497224,29.3838828 87.5658028,29.1242106 87.9606792,29.0284005 C88.3301343,28.9388584 88.669084,29.0642174 88.7334845,29.3597064 Z" id="Stroke-85" stroke="#8F181A" stroke-width="0.327"></path>
                <path d="M76.9540315,16.0241301 C77.2161493,17.3797325 76.3307397,18.6911387 74.9751944,18.9540295 C73.6196491,19.2161584 72.308298,18.3307115 72.0461802,16.9751092 C71.7833004,15.6202688 72.669472,14.3081006 74.0242553,14.0459717 C75.3798006,13.7838429 76.6911517,14.6692897 76.9540315,16.0241301" id="Fill-87" fill="#E10B17"></path>
                <path d="M76.9540315,16.0241301 C77.2161493,17.3797325 76.3307397,18.6911387 74.9751944,18.9540295 C73.6196491,19.2161584 72.308298,18.3307115 72.0461802,16.9751092 C71.7833004,15.6202688 72.669472,14.3081006 74.0242553,14.0459717 C75.3798006,13.7838429 76.6911517,14.6692897 76.9540315,16.0241301 Z" id="Stroke-89" stroke="#8F181A" stroke-width="0.297"></path>
                <path d="M75.972399,5.21521667 C76.1297364,6.02820144 75.5984482,6.81557462 74.7854163,6.97217115 C73.9723844,7.13023119 73.1849655,6.59897382 73.0276281,5.7852573 C72.8702907,4.97227253 73.4008471,4.18563111 74.2146108,4.02757106 C75.0276428,3.87024278 75.8150616,4.40223191 75.972399,5.21521667" id="Fill-91" fill="#E10B17"></path>
                <path d="M75.972399,5.21521667 C76.1297364,6.02820144 75.5984482,6.81557462 74.7854163,6.97217115 C73.9723844,7.13023119 73.1849655,6.59897382 73.0276281,5.7852573 C72.8702907,4.97227253 73.4008471,4.18563111 74.2146108,4.02757106 C75.0276428,3.87024278 75.8150616,4.40223191 75.972399,5.21521667 Z" id="Stroke-93" stroke="#8F181A" stroke-width="0.185"></path>
                <path d="M88.9724289,17.2145018 C89.1297572,18.0274789 88.5977681,18.8155764 87.7847833,18.9721714 C86.9717986,19.13023 86.1844254,18.5989776 86.0278289,17.7852688 C85.8697688,16.9722917 86.4010262,16.1856577 87.2147427,16.0275991 C88.0277275,15.8702723 88.8143689,16.4015247 88.9724289,17.2145018" id="Fill-95" fill="#E10B17"></path>
                <path d="M88.9724289,17.2145018 C89.1297572,18.0274789 88.5977681,18.8155764 87.7847833,18.9721714 C86.9717986,19.13023 86.1844254,18.5989776 86.0278289,17.7852688 C85.8697688,16.9722917 86.4010262,16.1856577 87.2147427,16.0275991 C88.0277275,15.8702723 88.8143689,16.4015247 88.9724289,17.2145018 Z" id="Stroke-97" stroke="#8F181A" stroke-width="0.185"></path>
                <path d="M103.733903,13.193237 L104.125638,13.9593899 C104.196005,14.0964319 104.358503,14.1469211 104.489081,14.0739923 L105.274728,13.6324125 C105.50324,13.5033847 105.757868,13.6163842 105.913112,13.9193192 C106.058924,14.204623 106.022652,14.5171749 105.793415,14.6462028 L105.021551,15.0805698 C104.883718,15.1583071 104.832212,15.3386255 104.906207,15.4828802 L105.287061,16.2257921 C105.388622,16.4245431 105.256592,16.7435063 104.970045,16.9045908 C104.664637,17.0768951 104.367208,16.9999592 104.264922,16.8004068 L103.910184,16.1079841 C103.822406,15.9356798 103.617833,15.8707652 103.453159,15.9629279 L102.739331,16.3652384 C102.53911,16.4782379 102.222095,16.3636355 102.076282,16.0791331 C101.921039,15.7761982 102.019699,15.4636463 102.219919,15.3506467 L102.962039,14.9331094 C103.110754,14.8489608 103.166612,14.6550183 103.086089,14.4987424 L102.71249,13.7678517 C102.595694,13.5402498 102.719018,13.2765842 103.023701,13.1042799 C103.310974,12.9431955 103.617108,12.9656351 103.733903,13.193237" id="Fill-99" fill="#E10B17"></path>
                <path d="M103.733903,13.193237 L104.125638,13.9593899 C104.196005,14.0964319 104.358503,14.1469211 104.489081,14.0739923 L105.274728,13.6324125 C105.50324,13.5033847 105.757868,13.6163842 105.913112,13.9193192 C106.058924,14.204623 106.022652,14.5171749 105.793415,14.6462028 L105.021551,15.0805698 C104.883718,15.1583071 104.832212,15.3386255 104.906207,15.4828802 L105.287061,16.2257921 C105.388622,16.4245431 105.256592,16.7435063 104.970045,16.9045908 C104.664637,17.0768951 104.367208,16.9999592 104.264922,16.8004068 L103.910184,16.1079841 C103.822406,15.9356798 103.617833,15.8707652 103.453159,15.9629279 L102.739331,16.3652384 C102.53911,16.4782379 102.222095,16.3636355 102.076282,16.0791331 C101.921039,15.7761982 102.019699,15.4636463 102.219919,15.3506467 L102.962039,14.9331094 C103.110754,14.8489608 103.166612,14.6550183 103.086089,14.4987424 L102.71249,13.7678517 C102.595694,13.5402498 102.719018,13.2765842 103.023701,13.1042799 C103.310974,12.9431955 103.617108,12.9656351 103.733903,13.193237 Z" id="Stroke-101" stroke="#8F181A" stroke-width="0.319"></path>
                <path d="M96.1532332,7.16049291 L96.2294119,7.69232963 L96.7596455,7.60663082 C96.8788161,7.58814677 96.9730966,7.67972687 96.9957239,7.83852172 C97.017597,7.98723436 96.9542405,8.11914331 96.8358241,8.13762736 L96.3055905,8.22332617 L96.3810149,8.7492816 C96.3960998,8.85346447 96.2920141,8.97109029 96.1426738,8.99545563 C95.9842825,9.02066116 95.8658662,8.93748291 95.8515356,8.83330004 L95.7753569,8.30734461 L95.250403,8.39136305 C95.1463173,8.40816674 95.024884,8.30566424 95.0037652,8.1569516 C94.9803836,7.99815675 95.0693844,7.87801038 95.1742243,7.86036651 L95.6991782,7.77634807 L95.6229996,7.24619172 C95.605652,7.12604535 95.698424,7.03110451 95.8568153,7.00505879 C96.0061556,6.98153363 96.1366398,7.04118672 96.1532332,7.16049291" id="Fill-103" fill="#E10B17"></path>
                <path d="M96.1532332,7.16049291 L96.2294119,7.69232963 L96.7596455,7.60663082 C96.8788161,7.58814677 96.9730966,7.67972687 96.9957239,7.83852172 C97.017597,7.98723436 96.9542405,8.11914331 96.8358241,8.13762736 L96.3055905,8.22332617 L96.3810149,8.7492816 C96.3960998,8.85346447 96.2920141,8.97109029 96.1426738,8.99545563 C95.9842825,9.02066116 95.8658662,8.93748291 95.8515356,8.83330004 L95.7753569,8.30734461 L95.250403,8.39136305 C95.1463173,8.40816674 95.024884,8.30566424 95.0037652,8.1569516 C94.9803836,7.99815675 95.0693844,7.87801038 95.1742243,7.86036651 L95.6991782,7.77634807 L95.6229996,7.24619172 C95.605652,7.12604535 95.698424,7.03110451 95.8568153,7.00505879 C96.0061556,6.98153363 96.1366398,7.04118672 96.1532332,7.16049291 Z" id="Stroke-105" stroke="#8F181A" stroke-width="0.253"></path>
                <path d="M93.5022855,24.1354019 C93.9795882,24.4130941 94.1419763,25.0252636 93.8645359,25.5030883 C93.5870955,25.9802204 92.9750172,26.1415727 92.4977145,25.864573 C92.0204118,25.5875732 91.8580237,24.9754037 92.1354641,24.4975791 C92.413562,24.0197545 93.0249828,23.8584021 93.5022855,24.1354019" id="Fill-107" fill="#E10B17"></path>
                <path d="M93.5022855,24.1354019 C93.9795882,24.4130941 94.1419763,25.0252636 93.8645359,25.5030883 C93.5870955,25.9802204 92.9750172,26.1415727 92.4977145,25.864573 C92.0204118,25.5875732 91.8580237,24.9754037 92.1354641,24.4975791 C92.413562,24.0197545 93.0249828,23.8584021 93.5022855,24.1354019 Z" id="Stroke-109" stroke="#8F181A" stroke-width="0.134"></path>
                <path d="M96.7513492,13.0677351 C96.989902,13.2071734 97.0707873,13.5125803 96.9324618,13.750736 C96.7935502,13.9901257 96.487593,14.0709506 96.2490402,13.9321292 C96.0099013,13.7939249 95.9290161,13.487901 96.0679277,13.2491283 C96.2062531,13.0103556 96.5127964,12.9289137 96.7513492,13.0677351" id="Fill-111" fill="#E10B17"></path>
                <path d="M96.7513492,13.0677351 C96.989902,13.2071734 97.0707873,13.5125803 96.9324618,13.750736 C96.7935502,13.9901257 96.487593,14.0709506 96.2490402,13.9321292 C96.0099013,13.7939249 95.9290161,13.487901 96.0679277,13.2491283 C96.2062531,13.0103556 96.5127964,12.9289137 96.7513492,13.0677351 Z" id="Stroke-113" stroke="#8F181A" stroke-width="0.075"></path>
                <path d="M92.9907022,2.40526498 C93.0434443,2.67600772 92.8664653,2.93854612 92.5951365,2.99070219 C92.3238078,3.04344428 92.0618554,2.86646527 92.0091133,2.59513651 C91.9569572,2.32380776 92.1339362,2.06185537 92.405265,2.00911328 C92.6760077,1.95695721 92.9385461,2.13393623 92.9907022,2.40526498" id="Fill-115" fill="#E10B17"></path>
                <path d="M92.9907022,2.40526498 C93.0434443,2.67600772 92.8664653,2.93854612 92.5951365,2.99070219 C92.3238078,3.04344428 92.0618554,2.86646527 92.0091133,2.59513651 C91.9569572,2.32380776 92.1339362,2.06185537 92.405265,2.00911328 C92.6760077,1.95695721 92.9385461,2.13393623 92.9907022,2.40526498 Z" id="Stroke-117" stroke="#8F181A" stroke-width="0.077"></path>
                <path d="M96.6269074,38.3972267 C96.5030863,38.3881441 96.3784506,38.3798871 96.2538148,38.3724559 L96.2538148,41.953492 C64.4179383,39.781916 32.5820617,43.7535056 0.74699979,41.5901865 C0.747814403,38.207317 0.747814403,34.8219704 0.74699979,31.4374495 C0.74699979,30.8429497 1.2439135,30.3863407 1.85568759,30.4193685 C20.2724501,31.4077246 38.6883981,30.4086345 57.1051606,29.7629415 L57.1051606,29.3814708 L57.1051606,29 C38.6892127,29.6580783 20.2732647,30.6687282 1.85568759,29.6911061 C0.83334873,29.6382617 0,30.3979004 0,31.3936877 L0,42.2664302 C32.3336049,44.5800256 64.6672097,40.4688937 97,42.7932231 L97,38.4219975 C96.8761789,38.4145663 96.7507285,38.404658 96.6269074,38.3972267" id="Fill-119" fill="#4A494A"></path>
                <mask id="mask-cc-2" fill="white">
                    <use xlink:href="#mask-cc-1"></use>
                </mask>
                <g id="Clip-122"></g>
                <polygon id="Fill-121" fill="#F29008" mask="url(#mask-cc-2)" points="3 40 10 40 10 33 3 33"></polygon>
                <path d="M72.8241568,35.5017096 L72.4340356,35.9810144 L72.9209752,36.4100217 C73.0298959,36.5054389 73.0263364,36.6637278 72.9095848,36.807963 C72.8006641,36.9418429 72.6397747,36.9854833 72.530854,36.8893265 L72.0432025,36.4603191 L71.6566408,36.9351859 C71.5804675,37.0291237 71.3982211,37.0232064 71.2615363,36.9026405 C71.1163087,36.774678 71.092816,36.6001164 71.1697012,36.5061785 L71.5569748,36.0320514 L71.0743066,35.6074821 C70.9782001,35.5224203 70.9703692,35.331586 71.0800018,35.1969664 C71.1967534,35.0534709 71.3690332,35.0438552 71.4644278,35.1274376 L71.947096,35.552007 L72.3372172,35.0727022 C72.4247809,34.9647107 72.5785513,34.9780247 72.7244908,35.1059873 C72.8611756,35.2265531 72.9117205,35.3937181 72.8241568,35.5017096" id="Fill-123" fill="#E10B17" mask="url(#mask-cc-2)"></path>
                <path d="M72.8241568,35.5017096 L72.4340356,35.9810144 L72.9209752,36.4100217 C73.0298959,36.5054389 73.0263364,36.6637278 72.9095848,36.807963 C72.8006641,36.9418429 72.6397747,36.9854833 72.530854,36.8893265 L72.0432025,36.4603191 L71.6566408,36.9351859 C71.5804675,37.0291237 71.3982211,37.0232064 71.2615363,36.9026405 C71.1163087,36.774678 71.092816,36.6001164 71.1697012,36.5061785 L71.5569748,36.0320514 L71.0743066,35.6074821 C70.9782001,35.5224203 70.9703692,35.331586 71.0800018,35.1969664 C71.1967534,35.0534709 71.3690332,35.0438552 71.4644278,35.1274376 L71.947096,35.552007 L72.3372172,35.0727022 C72.4247809,34.9647107 72.5785513,34.9780247 72.7244908,35.1059873 C72.8611756,35.2265531 72.9117205,35.3937181 72.8241568,35.5017096 Z" id="Stroke-124" stroke="#8F181A" stroke-width="0.327" mask="url(#mask-cc-2)"></path>
                <path d="M1.47869801,82.0248278 C32.4923577,85.1860914 63.5068298,79.3708179 94.521302,82.5312751 C95.3370233,82.6143389 96,82.0191827 96,81.1925767 L96,40.7848536 C63.9991875,37.7719758 31.9991875,44.6186922 0,41.6066208 L0,80.4288735 C0,81.2232216 0.661351749,81.941764 1.47869801,82.0248278" id="Fill-125" fill="#C51620" mask="url(#mask-cc-2)"></path>
                <path d="M1.47869801,82.0248278 C32.4923577,85.1860914 63.5068298,79.3708179 94.521302,82.5312751 C95.3370233,82.6143389 96,82.0191827 96,81.1925767 L96,40.7848536 C63.9991875,37.7719758 31.9991875,44.6186922 0,41.6066208 L0,80.4288735 C0,81.2232216 0.661351749,81.941764 1.47869801,82.0248278 Z" id="Stroke-126" stroke="#4A494A" stroke-width="0.916" mask="url(#mask-cc-2)"></path>
            </g>
        </g>
    </g>
</svg>