<?xml version="1.0" encoding="UTF-8"?>
<svg width="134px" height="138px" viewBox="0 0 134 138" version="1.1" xmlns="http://www.w3.org/2000/svg" xmlns:xlink="http://www.w3.org/1999/xlink">
    <!-- Generator: sketchtool 57.1 (101010) - https://sketch.com -->
    <title>DE1E60CB-CBF3-4C9B-815F-E0C615660BE0@1,5x</title>
    <desc>Created with sketchtool.</desc>
    <defs>
        <polygon id="path-1" points="0.285330797 0.114032621 5.77363636 0.114032621 5.77363636 5.61585068 0.285330797 5.61585068"></polygon>
        <polygon id="path-3" points="0 0.30952353 5.48819907 0.30952353 5.48819907 5.81134159 0 5.81134159"></polygon>
    </defs>
    <g id="Financeur_Cadhoc_prospect-/-UI" stroke="none" stroke-width="1" fill="none" fill-rule="evenodd">
        <g id="01_09_Commande-Prospect-Cadhoc" transform="translate(-595.000000, -304.000000)">
            <g id="Group-87" transform="translate(595.000000, 304.000000)">
                <path d="M65.1271017,134 L65.1271017,96.9672527 C76.9212222,96.4231366 74.8620723,90 74.8620723,90 L60.1976851,90 C59.2522531,90 58.3507218,90.179661 57.5166093,90.4927844 C54.7310081,89.6812301 51.6098804,90.6211137 49.8104761,93.0650163 L42.3358667,103.218941 C40.0572136,106.31373 40.7648503,110.636886 43.9157677,112.874436 L45.3848718,113.917496 C47.593493,115.486193 50.4141102,115.608876 52.6891049,114.479065 L51.0804594,130.904185 C53.616245,131.693666 56.7661171,132.500087 61.1953798,133.445618 C62.4559558,133.714596 63.7761113,133.89169 65.1271017,134" id="Fill-1" fill="#EDECEC"></path>
                <path d="M65.1271017,134 L65.1271017,96.9672527 C76.9212222,96.4231366 74.8620723,90 74.8620723,90 L60.1976851,90 C59.2522531,90 58.3507218,90.179661 57.5166093,90.4927844 C54.7310081,89.6812301 51.6098804,90.6211137 49.8104761,93.0650163 L42.3358667,103.218941 C40.0572136,106.31373 40.7648503,110.636886 43.9157677,112.874436 L45.3848718,113.917496 C47.593493,115.486193 50.4141102,115.608876 52.6891049,114.479065 L51.0804594,130.904185 C53.616245,131.693666 56.7661171,132.500087 61.1953798,133.445618 C62.4559558,133.714596 63.7761113,133.89169 65.1271017,134 Z" id="Stroke-3" stroke="#585856" stroke-width="1.417"></path>
                <path d="M58.5911378,125.325576 L44.5992077,120.43057 L52.6259848,107.039964 C53.6087495,105.400171 53.0742543,103.334613 51.4323309,102.426037 C49.7898881,101.51746 47.6617766,102.109694 46.6784925,103.750006 L37.2445751,119.48673 C36.7485179,119.878268 36.3605024,120.416568 36.1553269,121.070515 C35.5938213,122.859144 36.6025576,124.821503 38.4091408,125.453668 L56.5570435,131.80281 C58.3636267,132.434976 60.2829266,131.49684 60.8444322,129.708211 C61.4064573,127.919581 60.397721,125.957223 58.5911378,125.325576" id="Fill-5" fill="#FFFFFF"></path>
                <path d="M58.5911378,125.325576 L44.5992077,120.43057 L52.6259848,107.039964 C53.6087495,105.400171 53.0742543,103.334613 51.4323309,102.426037 C49.7898881,101.51746 47.6617766,102.109694 46.6784925,103.750006 L37.2445751,119.48673 C36.7485179,119.878268 36.3605024,120.416568 36.1553269,121.070515 C35.5938213,122.859144 36.6025576,124.821503 38.4091408,125.453668 L56.5570435,131.80281 C58.3636267,132.434976 60.2829266,131.49684 60.8444322,129.708211 C61.4064573,127.919581 60.397721,125.957223 58.5911378,125.325576 Z" id="Stroke-7" stroke="#585856" stroke-width="1.417"></path>
                <path d="M19,20.9959688 C19.0021527,19.3391299 20.3470718,17.9973161 22.0037628,18 C23.6609912,18.0021544 25.0021476,19.3471937 25,21.0040326 C24.9973097,22.6608716 23.6523906,24.0021478 21.9956997,24 C20.3390088,23.9978471 18.9978524,22.6528078 19,20.9959688" id="Fill-9" fill="#585856"></path>
                <path d="M123.007442,27.7910212 C123.122582,26.1383042 124.556448,24.8917725 126.208758,25.0074412 C127.861606,25.1231099 129.108236,26.5563254 128.992558,28.2090424 C128.87688,29.8617594 127.443552,31.1077531 125.791242,30.9926224 C124.138394,30.8769537 122.891764,29.4437382 123.007442,27.7910212 Z" id="Stroke-11" stroke="#585856" stroke-width="1.62"></path>
                <g id="Group-15" transform="translate(128.000000, 48.000000)">
                    <mask id="mask-2" fill="white">
                        <use xlink:href="#path-1"></use>
                    </mask>
                    <g id="Clip-14"></g>
                    <path d="M5.17767273,3.74083636 L3.71421818,3.64865455 L3.62149091,5.11265455 C3.60076364,5.43992727 3.30021818,5.64065455 2.86221818,5.61338182 C2.45203636,5.5872 2.13785455,5.34774545 2.15858182,5.01992727 L2.25130909,3.55592727 L0.801490909,3.46429091 C0.514036364,3.44629091 0.261490909,3.10101818 0.287127273,2.69029091 C0.314945455,2.25283636 0.606763636,1.98283636 0.893672727,2.00138182 L2.34403636,2.09301818 L2.43567273,0.6432 C2.45367273,0.356290909 2.80003636,0.0901090909 3.21021818,0.115745455 C3.64712727,0.143018182 3.91658182,0.449018182 3.89858182,0.735927273 L3.80694545,2.1852 L5.2704,2.27738182 C5.59821818,2.29810909 5.79894545,2.59974545 5.77112727,3.0372 C5.74494545,3.44792727 5.50658182,3.76156364 5.17767273,3.74083636" id="Fill-13" fill="#585856" mask="url(#mask-2)"></path>
                </g>
                <path d="M18.4570168,62.2960258 L17.1237818,62.2122528 L17.0393055,63.5422101 C17.0209195,63.8401245 16.7466199,64.0225413 16.3480905,63.9977565 C15.9739101,63.973963 15.6881814,63.7558559 15.7070643,63.4584372 L15.7910437,62.1279842 L14.4702317,62.044707 C14.2083551,62.0283489 13.9782814,61.7145722 14.0016366,61.3413117 C14.0269795,60.9437621 14.2928314,60.6983916 14.5542111,60.7152454 L15.87552,60.7985226 L15.9590025,59.4809578 C15.9754009,59.2202207 16.2909447,58.9778244 16.6646282,59.0016179 C17.0631576,59.0264028 17.3081389,59.3039936 17.2917406,59.5652264 L17.2082581,60.8822955 L18.5414931,60.9660685 C18.8401417,60.984905 19.0230081,61.2590259 18.9976652,61.6565756 C18.9738131,62.0293403 18.7566593,62.3148623 18.4570168,62.2960258" id="Fill-16" fill="#585856"></path>
                <path d="M43.4569654,23.2960258 L42.1236173,23.2117571 L42.0396308,24.5422101 C42.0207462,24.8401245 41.7464234,25.0225413 41.3478602,24.9977565 C40.974145,24.973963 40.6878951,24.7558559 40.7067796,24.4584372 L40.7907662,23.1279842 L39.4703391,23.044707 C39.2079433,23.0278532 38.9778501,22.7140765 39.0017042,22.3413117 C39.0270493,21.9432664 39.2924268,21.6983916 39.5538286,21.7152454 L40.8752496,21.7985226 L40.9587392,20.4809578 C40.9751389,20.2202207 41.2907096,19.9778244 41.6644247,20.0016179 C42.062988,20.0264028 42.3079901,20.3039936 42.2915903,20.5652264 L42.2081008,21.8817998 L43.5414489,21.9660685 C43.8406198,21.984905 44.0230047,22.2585302 43.9976597,22.6565756 C43.9743025,23.0293403 43.7566333,23.3148623 43.4569654,23.2960258" id="Fill-18" fill="#585856"></path>
                <path d="M111.456965,12.2965005 L110.123617,12.2122308 L110.039631,13.5427001 C110.020746,13.8401225 109.746423,14.0225415 109.34786,13.9977563 C108.973648,13.9744582 108.687895,13.7563485 108.70678,13.4584305 L108.790766,12.1279612 L107.470339,12.0446829 C107.207943,12.0283247 106.97785,11.7145441 107.001704,11.3417747 C107.027049,10.9437245 107.292427,10.6983511 107.553829,10.715205 L108.87525,10.7984833 L108.958739,9.48139795 C108.975139,9.22016199 109.29071,8.97825848 109.664425,9.00155656 C110.062988,9.02634176 110.30799,9.30443165 110.29159,9.56517191 L110.208101,10.8822572 L111.541449,10.9665269 C111.84062,10.9853636 112.023005,11.2589922 111.99766,11.6565467 C111.974302,12.0298118 111.756633,12.3148415 111.456965,12.2965005" id="Fill-20" fill="#585856"></path>
                <path d="M111.457017,40.2960789 L110.123782,40.211809 L110.039305,41.5422822 C110.020919,41.8402011 109.74662,42.022125 109.34809,41.9978354 C108.97391,41.9740416 108.688181,41.7559312 108.707064,41.4580123 L108.791044,40.127539 L107.470232,40.0442605 C107.208355,40.0279023 106.978281,39.7141208 107.001637,39.3413503 C107.02698,38.9432989 107.292831,38.6979247 107.554211,38.7152744 L108.87552,38.7985529 L108.959003,37.480968 C108.975401,37.2197313 109.290945,36.9778271 109.664628,37.0016209 C110.063158,37.0264062 110.308139,37.3040012 110.291741,37.5647422 L110.208258,38.8818314 L111.541493,38.9661013 C111.840142,38.9849381 112.023008,39.2585675 111.997665,39.6566189 C111.973813,40.0293894 111.756659,40.3149157 111.457017,40.2960789" id="Fill-22" fill="#585856"></path>
                <path d="M90.0074418,5.79095475 C90.1231196,4.13877574 91.5564484,2.89224407 93.2092961,3.00737475 C94.8616058,3.12304342 96.108236,4.55625894 95.9925582,6.20897594 C95.8774184,7.86223093 94.4440896,9.10822461 92.7912419,8.99255594 C91.1383942,8.87688727 89.891764,7.44367175 90.0074418,5.79095475" id="Fill-24" fill="#585856"></path>
                <g id="Group-28" transform="translate(0.000000, 79.000000)">
                    <mask id="mask-4" fill="white">
                        <use xlink:href="#path-3"></use>
                    </mask>
                    <g id="Clip-27"></g>
                    <path d="M4.89218182,3.93632727 L3.42872727,3.84414545 L3.336,5.30814545 C3.31527273,5.63541818 3.01472727,5.83614545 2.57672727,5.80887273 C2.16654545,5.78269091 1.85236364,5.54323636 1.87309091,5.21541818 L1.96581818,3.75141818 L0.516,3.65978182 C0.228545455,3.64178182 -0.0245454545,3.29650909 0.00163636364,2.88632727 C0.0294545455,2.44832727 0.320727273,2.17832727 0.608181818,2.19687273 L2.05854545,2.28850909 L2.15018182,0.838690909 C2.16818182,0.551781818 2.514,0.2856 2.92472727,0.311236364 C3.36163636,0.338509091 3.63109091,0.644509091 3.61309091,0.931418182 L3.52145455,2.38069091 L4.98436364,2.47341818 C5.31272727,2.49414545 5.51345455,2.79523636 5.48563636,3.23269091 C5.45945455,3.64341818 5.22109091,3.95705455 4.89218182,3.93632727" id="Fill-26" fill="#585856" mask="url(#mask-4)"></path>
                </g>
                <path d="M57.4569654,3.29600479 L56.1236173,3.21223083 L56.0396308,4.54270013 C56.0207462,4.84012247 55.7469204,5.02254151 55.3478602,4.99775632 C54.974145,4.97396253 54.6878951,4.75634851 54.7067796,4.45843046 L54.7912631,3.12796117 L53.4703391,3.04468291 C53.2079433,3.02832468 52.9778501,2.71454411 53.0017042,2.34127906 C53.0270493,1.94372453 53.2924268,1.69835109 53.5538286,1.71520502 L54.8752496,1.79848328 L54.9587392,0.480902288 C54.9751389,0.220162031 55.2907096,-0.0217414772 55.6644247,0.00155660658 C56.062988,0.0263418021 56.3079901,0.304431696 56.2915903,0.565171953 L56.2081008,1.88225724 L57.5414489,1.9660312 C57.8406198,1.98486795 58.0230047,2.25899221 57.9976597,2.65654675 C57.9743025,3.02981179 57.7566333,3.31484154 57.4569654,3.29600479" id="Fill-29" fill="#585856"></path>
                <path d="M7.76147433,39.9009228 C6.15913811,40.3215803 4.51968837,39.3640734 4.09906839,37.7615941 C3.67844841,36.1596527 4.63586985,34.5195187 6.23820607,34.0988611 C7.8400044,33.6787415 9.47999202,34.6362484 9.90114988,36.2381898 C10.321232,37.8406691 9.36381055,39.4808031 7.76147433,39.9009228" id="Fill-31" fill="#585856"></path>
                <path d="M80.7613468,18.9011411 C79.1590493,19.3212607 77.5201771,18.3637537 77.0990294,16.7612744 C76.6784196,15.1593331 77.6363557,13.519199 79.2386532,13.0990794 C80.8404128,12.6784219 82.4798229,13.6359288 82.9009706,15.2378702 C83.3215804,16.8403495 82.3636443,18.4804835 80.7613468,18.9011411" id="Fill-33" fill="#585856"></path>
                <path d="M72,104.000213 C72,104.552436 71.5523404,105 71,105 C70.4480851,105 70,104.552436 70,104.000213 C70,103.44799 70.4480851,103 71,103 C71.5523404,103 72,103.44799 72,104.000213" id="Fill-35" fill="#585856"></path>
                <path d="M65.2936345,90.0234506 L59,90.0234506 C59,90.0234506 61.2438398,96.6120457 64.0246407,97 L64.2361396,96.1761707 C64.2361396,96.1761707 65.6837782,96.2730318 67.1468172,96.030879 C68.610883,95.7887262 72.2207392,94.7711747 72.8547228,93.5114704 C73.4892197,92.2517661 73.7669405,92.7386206 73.9281314,91.2342146 C74.0898357,89.7298085 73.9281314,90.0234506 73.9281314,90.0234506 L73.4892197,90 C73.4892197,90 71.9522587,93.330493 69.6960986,93.4936276 C67.4399384,93.6567621 65.8788501,93.1724565 65.2936345,90.0234506" id="Fill-37" fill="#D7D7D7"></path>
                <path d="M73.9973581,89.8796847 L73.8055694,84.5863617 C73.7279919,82.4667964 71.9636438,80.8647436 69.8631267,81.0090295 L69.6664894,81.0218076 C67.5659723,81.1660935 65.9260713,83.000814 66.0025713,85.1203793 L66.1954374,90.4137023 C66.2719374,92.5327353 68.037363,94.1347881 70.1373414,93.9910346 L70.3339787,93.9771917 C72.4344958,93.8339706 74.0749355,91.9987177 73.9973581,89.8796847" id="Fill-39" fill="#FCFCFC"></path>
                <path d="M73.9973581,89.8796847 L73.8055694,84.5863617 C73.7279919,82.4667964 71.9636438,80.8647436 69.8631267,81.0090295 L69.6664894,81.0218076 C67.5659723,81.1660935 65.9260713,83.000814 66.0025713,85.1203793 L66.1954374,90.4137023 C66.2719374,92.5327353 68.037363,94.1347881 70.1373414,93.9910346 L70.3339787,93.9771917 C72.4344958,93.8339706 74.0749355,91.9987177 73.9973581,89.8796847 Z" id="Stroke-41" stroke="#585856" stroke-width="1.417"></path>
                <path d="M67.6848392,60.328651 C65.2565096,63.9504704 51.1719887,68.9467105 51.1719887,68.9467105 C51.1719887,68.9467105 41.488456,56.9063695 46.3801267,47.246972 C51.2717974,37.5875745 55.9283167,24.4404221 72.1506247,34.770142 C88.3734552,45.1003815 90.8017848,44.4295395 93.0952943,42.4170134 C95.3893264,40.405007 93.0080271,64.9715429 89.4525386,67.4855116 L85.8975727,70 L85.8975727,57.0710921 C85.8975727,57.0710921 83.7190261,52.6874955 72.9041541,53.820808" id="Stroke-43" stroke="#585856" stroke-width="1.134" stroke-linecap="round" stroke-linejoin="round"></path>
                <path d="M91.3002114,66.3595425 L90.8017533,65.8594274 C89.8687018,64.9232745 88.3556736,64.9232745 87.4226222,65.8594274 L86.2652646,67.0211531 L86.2652646,54.059316 C79.7915389,38.5583528 69.8613173,46.6388583 64.5937566,47.1139676 C59.3267151,47.5890769 63.5303791,43 63.5303791,43 C56.1807171,43 53.126103,52.7324481 53.126103,60.10602 L53.1074108,67.3154917 L51.7615737,65.9651809 C50.7153308,64.9154602 49.0190153,64.9154602 47.9732915,65.9651809 L47.7842928,66.153766 C46.7385691,67.2034868 46.7385691,68.9054409 47.7842928,69.9551617 L51.321269,73.5033741 C51.6862858,73.8701251 52.1328212,74.1003865 52.6016835,74.2108286 C53.3732552,80.8482936 58.9923327,86 65.8149791,86 L72.9579887,86 C80.1788824,86 86.0529006,80.2283592 86.2553992,73.0329533 C87.0674707,73.2725918 87.9787146,73.0819229 88.6189218,72.4395876 L91.3002114,69.7493852 C92.2332629,68.8137532 92.2332629,67.2956955 91.3002114,66.3595425" id="Fill-45" fill="#FFFFFF"></path>
                <path d="M91.3002114,66.3595425 L90.8017533,65.8594274 C89.8687018,64.9232745 88.3556736,64.9232745 87.4226222,65.8594274 L86.2652646,67.0211531 L86.2652646,54.059316 C79.7915389,38.5583528 69.8613173,46.6388583 64.5937566,47.1139676 C59.3267151,47.5890769 63.5303791,43 63.5303791,43 C56.1807171,43 53.126103,52.7324481 53.126103,60.10602 L53.1074108,67.3154917 L51.7615737,65.9651809 C50.7153308,64.9154602 49.0190153,64.9154602 47.9732915,65.9651809 L47.7842928,66.153766 C46.7385691,67.2034868 46.7385691,68.9054409 47.7842928,69.9551617 L51.321269,73.5033741 C51.6862858,73.8701251 52.1328212,74.1003865 52.6016835,74.2108286 C53.3732552,80.8482936 58.9923327,86 65.8149791,86 L72.9579887,86 C80.1788824,86 86.0529006,80.2283592 86.2553992,73.0329533 C87.0674707,73.2725918 87.9787146,73.0819229 88.6189218,72.4395876 L91.3002114,69.7493852 C92.2332629,68.8137532 92.2332629,67.2956955 91.3002114,66.3595425 Z" id="Stroke-47" stroke="#585856" stroke-width="1.417"></path>
                <path d="M70,78.823188 C70,78.823188 74.664518,80.0582432 77,76" id="Stroke-49" stroke="#192B2A" stroke-width="1.701" stroke-linecap="round" stroke-linejoin="round"></path>
                <path d="M82,56 C82,56 78.6390817,52.6656206 74,54.6075431" id="Stroke-51" stroke="#192B2A" stroke-width="1.134" stroke-linecap="round" stroke-linejoin="round"></path>
                <path d="M63,54.2244824 C63,54.2244824 58.410609,52.8282617 56,57" id="Stroke-53" stroke="#192B2A" stroke-width="1.134" stroke-linecap="round" stroke-linejoin="round"></path>
                <path d="M67,70.4349091 C67,70.4349091 69.4072539,72.400455 72,69" id="Stroke-55" stroke="#192B2A" stroke-width="1.701" stroke-linecap="round" stroke-linejoin="round"></path>
                <path d="M59,61.5002595 C59,61.7763363 58.7758923,62 58.5002926,62 C58.2235225,62 58,61.7763363 58,61.5002595 C58,61.2241827 58.2235225,61 58.5002926,61 C58.7758923,61 59,61.2241827 59,61.5002595" id="Fill-57" fill="#FFFFFF"></path>
                <path d="M82,64 C82,64 81.4936562,59.4501884 75,61.5567941" id="Stroke-59" stroke="#192B2A" stroke-width="2.338" stroke-linecap="round" stroke-linejoin="round"></path>
                <path d="M64,61.7811765 C64,61.7811765 60.8461853,58.9749481 58,64" id="Stroke-61" stroke="#192B2A" stroke-width="2.082" stroke-linecap="round" stroke-linejoin="round"></path>
                <path d="M93.9683949,110.199016 C92.8814222,108.188754 90.3263503,107.416406 88.2606448,108.473438 C86.193923,109.53047 85.4001636,112.017604 86.4866282,114.027866 L94.5781972,129 C97.1495305,127.856124 99.6288852,126.539587 102,125.061696 L93.9683949,110.199016 Z" id="Fill-63" fill="#FFFFFF"></path>
                <path d="M93.9683949,110.199016 C92.8814222,108.188754 90.3263503,107.416406 88.2606448,108.473438 C86.193923,109.53047 85.4001636,112.017604 86.4866282,114.027866 L94.5781972,129 C97.1495305,127.856124 99.6288852,126.539587 102,125.061696 L93.9683949,110.199016 Z" id="Stroke-65" stroke="#585856" stroke-width="1.417"></path>
                <path d="M69.5,134 C78.4271648,134 86.9205645,132.114635 94.6096591,128.727405 L94.435013,128.407649 C86.7982604,131.766895 78.3639398,133.636712 69.5,133.636712 C35.2382609,133.636712 7.36380295,105.762541 7.36380295,71.4994818 C7.36380295,37.2374585 35.2382609,9.36276949 69.5,9.36276949 C103.761739,9.36276949 131.636197,37.2374585 131.636197,71.4994818 C131.636197,93.8548922 119.768551,113.487459 102.003876,124.435842 L102.178523,124.754561 C120.055136,113.744507 132,93.9917081 132,71.4994818 C132,37.0368988 103.962297,9 69.5,9 C35.0377028,9 7,37.0368988 7,71.4994818 C7,105.962065 35.0377028,134 69.5,134" id="Fill-67" fill="#585856"></path>
                <path d="M95,128.701968 L95.1804431,129 C97.889231,127.924285 100.500569,126.685787 103,125.297066 L102.819557,125 C100.321197,126.389204 97.7093233,127.626736 95,128.701968" id="Fill-69" fill="#585856"></path>
                <path d="M38.3215513,85.6634339 L35.6448154,83.6197643 C34.9251047,83.0706561 34.787042,82.0417343 35.336143,81.3214891 L37.3803104,78.6447176 C37.9299363,77.9249973 38.9588444,77.7869328 39.6785551,78.3365661 L42.3552909,80.3807606 C43.0750017,80.9293439 43.2130643,81.9587906 42.6634384,82.6779859 L40.619796,85.3552824 C40.0701701,86.0750027 39.041262,86.2130672 38.3215513,85.6634339" id="Fill-71" fill="#F59100"></path>
                <path d="M65,97.1046053 L65,134.867417 C73.6921522,135.58819 83.7249804,133.190326 88.018557,132.003696 L86.3184021,115.788676 C87.96373,116.08023 89.7161258,115.785012 91.2393861,114.809849 L92.755405,113.839921 C96.0077855,111.758214 96.9770859,107.402698 94.9205552,104.111328 L88.1721762,93.312307 C86.5377102,90.6972176 83.4855001,89.5472273 80.6686324,90.2266481 C80.0965693,90.0842733 79.5022651,90 78.8872714,90 L74.6345564,90 C74.6345564,90 76.6724665,96.5492391 65,97.1046053" id="Fill-73" fill="#EDECEC"></path>
                <path d="M65,97.1046053 L65,134.867417 C73.6921522,135.58819 83.7249804,133.190326 88.018557,132.003696 L86.3184021,115.788676 C87.96373,116.08023 89.7161258,115.785012 91.2393861,114.809849 L92.755405,113.839921 C96.0077855,111.758214 96.9770859,107.402698 94.9205552,104.111328 L88.1721762,93.312307 C86.5377102,90.6972176 83.4855001,89.5472273 80.6686324,90.2266481 C80.0965693,90.0842733 79.5022651,90 78.8872714,90 L74.6345564,90 C74.6345564,90 76.6724665,96.5492391 65,97.1046053 Z" id="Stroke-75" stroke="#585856" stroke-width="1.417"></path>
                <g id="Group-80" transform="translate(39.000000, 120.000000)">
                    <path d="M0.501109677,5.29576563 L17.1793032,11.3116406 C17.4327226,11.4030156 17.6876903,11.4556094 17.9405935,11.4805781 C18.3772387,12.0755781 19.5091097,13.5901719 20.7323355,15.0017031 C21.7620129,16.1895781 25.5793032,16.9333281 27.0337548,16.5402031 C28.7307871,16.0812031 30.8118194,13.7452969 31.3289806,12.8607656 C31.8461419,11.9762344 32.0252387,10.4356094 30.146529,11.6489844 C24.9749161,14.9889531 22.8061419,10.0297344 22.8061419,10.0297344 C22.8061419,10.0297344 26.8051097,12.0277656 28.7034323,9.99945313 C29.6340129,9.00389063 28.5362065,8.18735938 27.4977548,8.12254688 C25.5101419,7.99876563 19.5369806,5.35632813 19.5369806,5.35632813 C19.5565935,5.39670313 19.298529,5.24635938 19.3171097,5.28673438 C19.2298839,5.24582813 19.1411097,5.20757813 19.0492387,5.17410938 L5.69336774,0.442796875" id="Fill-77" fill="#FCFCFC"></path>
                    <path d="M0.501109677,5.29576563 L17.1793032,11.3116406 C17.4327226,11.4030156 17.6876903,11.4556094 17.9405935,11.4805781 C18.3772387,12.0755781 19.5091097,13.5901719 20.7323355,15.0017031 C21.7620129,16.1895781 25.5793032,16.9333281 27.0337548,16.5402031 C28.7307871,16.0812031 30.8118194,13.7452969 31.3289806,12.8607656 C31.8461419,11.9762344 32.0252387,10.4356094 30.146529,11.6489844 C24.9749161,14.9889531 22.8061419,10.0297344 22.8061419,10.0297344 C22.8061419,10.0297344 26.8051097,12.0277656 28.7034323,9.99945313 C29.6340129,9.00389063 28.5362065,8.18735938 27.4977548,8.12254688 C25.5101419,7.99876563 19.5369806,5.35632813 19.5369806,5.35632813 C19.5565935,5.39670313 19.298529,5.24635938 19.3171097,5.28673438 C19.2298839,5.24582813 19.1411097,5.20757813 19.0492387,5.17410938 L5.69336774,0.442796875" id="Stroke-79" stroke="#585856" stroke-width="1.332" stroke-linecap="round" stroke-linejoin="round"></path>
                </g>
                <path d="M21.1860004,102.724143 L55.2174004,128.839823 C56.3430002,129.703597 57.6855831,130.059177 59,129.992047 L19,99 C19.2190695,100.429135 19.9555602,101.779603 21.1860004,102.724143" id="Fill-81" fill="#585856"></path>
                <path d="M61.5774741,125.612741 C60.3121613,127.264508 57.9340579,127.582871 56.2755072,126.321822 L22.4269619,100.586096 C20.7699675,99.3260806 20.4503969,96.9569632 21.7157097,95.3046795 L30.6268532,83.673574 L35.4172996,77.4200136 C36.6820937,75.7692804 39.0607158,75.4504005 40.7177102,76.7109322 L74.5662555,102.446659 C76.2242874,103.707191 76.543858,106.076825 75.2790639,107.728075 L70.4626783,114.014712 L61.5774741,125.612741 Z M30.255923,83.3913885 L29.8855116,83.1086863 L30.255923,83.3913885 Z M75.7475254,100.903942 L41.8994989,75.1687318 C39.3880682,73.2585534 35.7856358,73.7407494 33.8692498,76.2432072 L20.1676599,94.1273563 C19.4372128,95.0814119 19.0600572,96.1930986 19.0061038,97.3094366 C18.9874276,97.6944699 19.0123292,98.0789863 19.0709517,98.4588513 L58.8559361,129 C59.0852384,128.988113 59.3129843,128.972608 59.5391739,128.933847 C60.916544,128.697658 62.2140214,127.980308 63.1255239,126.789547 L76.8276326,108.905398 C78.7445374,106.40294 78.2594749,102.81412 75.7475254,100.903942 L75.7475254,100.903942 Z" id="Fill-83" fill="#585856"></path>
                <path d="M22.4997763,101.138975 L56.6756384,127.218499 C58.3497035,128.49587 60.7508032,128.173254 62.0288755,126.499945 L71,114.746458 L30.7789609,84 L21.7816464,95.7870062 C20.5040979,97.4613623 20.8267588,99.8621282 22.4997763,101.138975" id="Fill-85" fill="#C50E1F"></path>
            </g>
        </g>
    </g>
</svg>