<?xml version="1.0" encoding="UTF-8"?>
<svg width="120px" height="90px" viewBox="0 0 120 90" version="1.1" xmlns="http://www.w3.org/2000/svg" xmlns:xlink="http://www.w3.org/1999/xlink">
    <!-- Generator: sketchtool 57.1 (101010) - https://sketch.com -->
    <title>C3250E73-BD26-4E87-A98D-78A0392DEE58@1,5x</title>
    <desc>Created with sketchtool.</desc>
    <defs>
        <polygon id="path-c-1" points="0 89.057 119.765 89.057 119.765 0 0 0"></polygon>
    </defs>
    <g id="Financeur_Cadhoc_prospect-/-UI" stroke="none" stroke-width="1" fill="none" fill-rule="evenodd">
        <g id="01_05_Commande-Prospect-Cadhoc" transform="translate(-498.000000, -379.000000)">
            <g id="Group-43" transform="translate(498.000000, 379.000000)">
                <path d="M48.5479,27.5936 L6.6299,27.5936 C3.4329,27.5936 0.8319,31.1456 0.8319,35.5096 L0.8319,48.4096 L96.9049,48.4096 L96.9049,42.8446 L48.5479,42.8446 L48.5479,27.5936 Z" id="Fill-1" fill="#FFFFFF"></path>
                <path d="M97.3213,48.826 L0.4163,48.826 L0.4163,35.51 C0.4163,30.908 3.1983,27.178 6.6303,27.178 L48.5483,27.178 L48.5483,26.762 L6.6303,26.762 C2.9743,26.762 0.0003,30.685 0.0003,35.51 L0.0003,49.242 L97.7373,49.242 L97.7373,42.845 L97.3213,42.845 L97.3213,48.826 Z" id="Fill-3" fill="#4A494A"></path>
                <path d="M0.416,35.5096 L0.416,48.8256 L97.321,48.8256 L97.321,42.8446 L96.905,42.8446 L96.905,48.4096 L0.832,48.4096 L0.832,35.5096 C0.832,31.1456 3.433,27.5936 6.63,27.5936 L48.548,27.5936 L48.548,27.1776 L6.63,27.1776 C3.198,27.1776 0.416,30.9076 0.416,35.5096" id="Fill-5" fill="#4A494A"></path>
                <path d="M6.6299,88.6776 L91.1079,88.6776 C94.5389,88.6776 97.3209,85.5396 97.3209,81.6686 L97.3209,48.8256 L0.4159,48.8256 L0.4159,81.6686 C0.4159,85.5396 3.1979,88.6776 6.6299,88.6776" id="Fill-7" fill="#C51620"></path>
                <path d="M6.6299,88.6776 L91.1079,88.6776 C94.5389,88.6776 97.3209,85.5396 97.3209,81.6686 L97.3209,48.8256 L0.4159,48.8256 L0.4159,81.6686 C0.4159,85.5396 3.1979,88.6776 6.6299,88.6776 Z" id="Stroke-9" stroke="#4A494A" stroke-width="0.758"></path>
                <mask id="mask-c-2" fill="white">
                    <use xlink:href="#path-c-1"></use>
                </mask>
                <g id="Clip-12"></g>
                <polygon id="Fill-11" fill="#F29008" mask="url(#mask-c-2)" points="7.821 43.593 18.247 43.593 18.247 33.168 7.821 33.168"></polygon>
                <path d="M90.2217,0.4901 L90.2527,1.3831 L91.1967,1.3491 C91.4087,1.3431 91.5547,1.5121 91.5647,1.7801 C91.5737,2.0301 91.4397,2.2351 91.2277,2.2421 L90.2847,2.2751 L90.3157,3.1591 C90.3227,3.3351 90.1167,3.5091 89.8527,3.5171 C89.5707,3.5271 89.3787,3.3671 89.3727,3.1921 L89.3417,2.3071 L88.4087,2.3401 C88.2227,2.3461 88.0307,2.1521 88.0217,1.9021 C88.0127,1.6361 88.1917,1.4541 88.3767,1.4471 L89.3107,1.4151 L89.2797,0.5221 C89.2717,0.3221 89.4517,0.1821 89.7347,0.1731 C89.9987,0.1631 90.2147,0.2891 90.2217,0.4901" id="Fill-13" fill="#E10B17" mask="url(#mask-c-2)"></path>
                <path d="M90.2217,0.4901 L90.2527,1.3831 L91.1967,1.3491 C91.4087,1.3431 91.5547,1.5121 91.5647,1.7801 C91.5737,2.0301 91.4397,2.2351 91.2277,2.2421 L90.2847,2.2751 L90.3157,3.1591 C90.3227,3.3351 90.1167,3.5091 89.8527,3.5171 C89.5707,3.5271 89.3787,3.3671 89.3727,3.1921 L89.3417,2.3071 L88.4087,2.3401 C88.2227,2.3461 88.0307,2.1521 88.0217,1.9021 C88.0127,1.6361 88.1917,1.4541 88.3767,1.4471 L89.3107,1.4151 L89.2797,0.5221 C89.2717,0.3221 89.4517,0.1821 89.7347,0.1731 C89.9987,0.1631 90.2147,0.2891 90.2217,0.4901 Z" id="Stroke-14" stroke="#8F181A" stroke-width="0.344" mask="url(#mask-c-2)"></path>
                <path d="M88.4502,10.5047 L88.4812,11.3977 L89.4252,11.3647 C89.6362,11.3577 89.7832,11.5277 89.7932,11.7947 C89.8022,12.0447 89.6682,12.2497 89.4562,12.2577 L88.5122,12.2897 L88.5442,13.1747 C88.5512,13.3497 88.3452,13.5237 88.0812,13.5327 C87.7992,13.5427 87.6072,13.3827 87.6012,13.2067 L87.5702,12.3217 L86.6372,12.3547 C86.4512,12.3607 86.2592,12.1677 86.2502,11.9167 C86.2412,11.6507 86.4202,11.4687 86.6042,11.4617 L87.5392,11.4297 L87.5072,10.5367 C87.5002,10.3367 87.6802,10.1967 87.9632,10.1877 C88.2262,10.1787 88.4432,10.3047 88.4502,10.5047" id="Fill-15" fill="#E10B17" mask="url(#mask-c-2)"></path>
                <path d="M88.4502,10.5047 L88.4812,11.3977 L89.4252,11.3647 C89.6362,11.3577 89.7832,11.5277 89.7932,11.7947 C89.8022,12.0447 89.6682,12.2497 89.4562,12.2577 L88.5122,12.2897 L88.5442,13.1747 C88.5512,13.3497 88.3452,13.5237 88.0812,13.5327 C87.7992,13.5427 87.6072,13.3827 87.6012,13.2067 L87.5702,12.3217 L86.6372,12.3547 C86.4512,12.3607 86.2592,12.1677 86.2502,11.9167 C86.2412,11.6507 86.4202,11.4687 86.6042,11.4617 L87.5392,11.4297 L87.5072,10.5367 C87.5002,10.3367 87.6802,10.1967 87.9632,10.1877 C88.2262,10.1787 88.4432,10.3047 88.4502,10.5047 Z" id="Stroke-16" stroke="#8F181A" stroke-width="0.344" mask="url(#mask-c-2)"></path>
                <path d="M103.3984,29.1688 L103.4404,30.3698 C103.4484,30.5848 103.6274,30.7528 103.8424,30.7458 L105.1344,30.7008 C105.5104,30.6888 105.7734,30.9908 105.7904,31.4678 C105.8054,31.9128 105.5674,32.2778 105.1904,32.2908 L103.9204,32.3348 C103.6944,32.3428 103.5164,32.5328 103.5244,32.7608 L103.5654,33.9258 C103.5774,34.2368 103.2114,34.5478 102.7394,34.5648 C102.2374,34.5808 101.8974,34.2958 101.8854,33.9828 L101.8474,32.8968 C101.8374,32.6268 101.6114,32.4148 101.3404,32.4248 L100.1674,32.4648 C99.8364,32.4768 99.4944,32.1318 99.4784,31.6858 C99.4614,31.2098 99.7804,30.8858 100.1104,30.8748 L101.3314,30.8328 C101.5754,30.8238 101.7674,30.6178 101.7584,30.3738 L101.7174,29.2268 C101.7054,28.8698 102.0274,28.6208 102.5294,28.6038 C103.0014,28.5878 103.3854,28.8118 103.3984,29.1688" id="Fill-17" fill="#E10B17" mask="url(#mask-c-2)"></path>
                <path d="M103.3984,29.1688 L103.4404,30.3698 C103.4484,30.5848 103.6274,30.7528 103.8424,30.7458 L105.1344,30.7008 C105.5104,30.6888 105.7734,30.9908 105.7904,31.4678 C105.8054,31.9128 105.5674,32.2778 105.1904,32.2908 L103.9204,32.3348 C103.6944,32.3428 103.5164,32.5328 103.5244,32.7608 L103.5654,33.9258 C103.5774,34.2368 103.2114,34.5478 102.7394,34.5648 C102.2374,34.5808 101.8974,34.2958 101.8854,33.9828 L101.8474,32.8968 C101.8374,32.6268 101.6114,32.4148 101.3404,32.4248 L100.1674,32.4648 C99.8364,32.4768 99.4944,32.1318 99.4784,31.6858 C99.4614,31.2098 99.7804,30.8858 100.1104,30.8748 L101.3314,30.8328 C101.5754,30.8238 101.7674,30.6178 101.7584,30.3738 L101.7174,29.2268 C101.7054,28.8698 102.0274,28.6208 102.5294,28.6038 C103.0014,28.5878 103.3854,28.8118 103.3984,29.1688 Z" id="Stroke-18" stroke="#8F181A" stroke-width="0.344" mask="url(#mask-c-2)"></path>
                <path d="M118.7158,19.577 L118.0858,20.6 C117.9728,20.784 118.0298,21.023 118.2128,21.137 L119.3138,21.814 C119.6348,22.012 119.6848,22.41 119.4358,22.815 C119.2008,23.195 118.8008,23.367 118.4808,23.17 L117.3988,22.504 C117.2048,22.385 116.9518,22.444 116.8328,22.638 L116.2228,23.631 C116.0588,23.897 115.5818,23.953 115.1808,23.706 C114.7528,23.442 114.6278,23.015 114.7908,22.75 L115.3608,21.823 C115.5018,21.593 115.4308,21.292 115.1998,21.149 L114.1988,20.533 C113.9188,20.36 113.8238,19.884 114.0588,19.503 C114.3078,19.098 114.7518,19.005 115.0328,19.178 L116.0728,19.818 C116.2808,19.946 116.5548,19.882 116.6838,19.673 L117.2838,18.695 C117.4718,18.39 117.8768,18.362 118.3048,18.625 C118.7058,18.873 118.9028,19.272 118.7158,19.577" id="Fill-19" fill="#E10B17" mask="url(#mask-c-2)"></path>
                <path d="M118.7158,19.577 L118.0858,20.6 C117.9728,20.784 118.0298,21.023 118.2128,21.137 L119.3138,21.814 C119.6348,22.012 119.6848,22.41 119.4358,22.815 C119.2008,23.195 118.8008,23.367 118.4808,23.17 L117.3988,22.504 C117.2048,22.385 116.9518,22.444 116.8328,22.638 L116.2228,23.631 C116.0588,23.897 115.5818,23.953 115.1808,23.706 C114.7528,23.442 114.6278,23.015 114.7908,22.75 L115.3608,21.823 C115.5018,21.593 115.4308,21.292 115.1998,21.149 L114.1988,20.533 C113.9188,20.36 113.8238,19.884 114.0588,19.503 C114.3078,19.098 114.7518,19.005 115.0328,19.178 L116.0728,19.818 C116.2808,19.946 116.5548,19.882 116.6838,19.673 L117.2838,18.695 C117.4718,18.39 117.8768,18.362 118.3048,18.625 C118.7058,18.873 118.9028,19.272 118.7158,19.577 Z" id="Stroke-20" stroke="#8F181A" stroke-width="0.344" mask="url(#mask-c-2)"></path>
                <path d="M107.9932,13.9461 L107.4402,14.3891 L107.9092,14.9731 C108.0142,15.1041 107.9752,15.2781 107.8102,15.4111 C107.6562,15.5361 107.4622,15.5481 107.3572,15.4171 L106.8892,14.8341 L106.3422,15.2731 C106.2332,15.3601 106.0252,15.3121 105.8942,15.1491 C105.7542,14.9741 105.7652,14.7771 105.8742,14.6901 L106.4212,14.2511 L105.9572,13.6731 C105.8652,13.5581 105.8962,13.3441 106.0522,13.2191 C106.2172,13.0871 106.4172,13.1141 106.5092,13.2281 L106.9722,13.8061 L107.5242,13.3631 C107.6482,13.2631 107.8222,13.3111 107.9632,13.4861 C108.0942,13.6491 108.1162,13.8461 107.9932,13.9461" id="Fill-21" fill="#E10B17" mask="url(#mask-c-2)"></path>
                <path d="M107.9932,13.9461 L107.4402,14.3891 L107.9092,14.9731 C108.0142,15.1041 107.9752,15.2781 107.8102,15.4111 C107.6562,15.5361 107.4622,15.5481 107.3572,15.4171 L106.8892,14.8341 L106.3422,15.2731 C106.2332,15.3601 106.0252,15.3121 105.8942,15.1491 C105.7542,14.9741 105.7652,14.7771 105.8742,14.6901 L106.4212,14.2511 L105.9572,13.6731 C105.8652,13.5581 105.8962,13.3441 106.0522,13.2191 C106.2172,13.0871 106.4172,13.1141 106.5092,13.2281 L106.9722,13.8061 L107.5242,13.3631 C107.6482,13.2631 107.8222,13.3111 107.9632,13.4861 C108.0942,13.6491 108.1162,13.8461 107.9932,13.9461 Z" id="Stroke-22" stroke="#8F181A" stroke-width="0.273" mask="url(#mask-c-2)"></path>
                <path d="M62.9521,41.6034 L62.2561,42.1634 L62.8471,42.8994 C62.9781,43.0634 62.9311,43.2844 62.7231,43.4514 C62.5271,43.6084 62.2831,43.6244 62.1501,43.4584 L61.5591,42.7224 L60.8701,43.2774 C60.7331,43.3874 60.4711,43.3274 60.3051,43.1214 C60.1281,42.9004 60.1421,42.6514 60.2791,42.5414 L60.9691,41.9874 L60.3841,41.2584 C60.2671,41.1144 60.3071,40.8434 60.5031,40.6874 C60.7111,40.5194 60.9641,40.5544 61.0801,40.6994 L61.6651,41.4274 L62.3611,40.8684 C62.5171,40.7424 62.7371,40.8024 62.9141,41.0234 C63.0791,41.2294 63.1081,41.4774 62.9521,41.6034" id="Fill-23" fill="#E10B17" mask="url(#mask-c-2)"></path>
                <path d="M62.9521,41.6034 L62.2561,42.1634 L62.8471,42.8994 C62.9781,43.0634 62.9311,43.2844 62.7231,43.4514 C62.5271,43.6084 62.2831,43.6244 62.1501,43.4584 L61.5591,42.7224 L60.8701,43.2774 C60.7331,43.3874 60.4711,43.3274 60.3051,43.1214 C60.1281,42.9004 60.1421,42.6514 60.2791,42.5414 L60.9691,41.9874 L60.3841,41.2584 C60.2671,41.1144 60.3071,40.8434 60.5031,40.6874 C60.7111,40.5194 60.9641,40.5544 61.0801,40.6994 L61.6651,41.4274 L62.3611,40.8684 C62.5171,40.7424 62.7371,40.8024 62.9141,41.0234 C63.0791,41.2294 63.1081,41.4774 62.9521,41.6034 Z" id="Stroke-24" stroke="#8F181A" stroke-width="0.344" mask="url(#mask-c-2)"></path>
                <path d="M58.5,27.7137 L57.563,28.4667 C57.396,28.6017 57.369,28.8467 57.503,29.0147 L58.313,30.0227 C58.548,30.3157 58.462,30.7077 58.091,31.0057 C57.743,31.2847 57.309,31.3137 57.072,31.0197 L56.277,30.0277 C56.135,29.8517 55.876,29.8227 55.699,29.9657 L54.791,30.6957 C54.547,30.8917 54.08,30.7837 53.784,30.4167 C53.47,30.0257 53.495,29.5807 53.738,29.3857 L54.586,28.7037 C54.797,28.5347 54.83,28.2267 54.661,28.0157 L53.925,27.0997 C53.719,26.8417 53.79,26.3607 54.138,26.0807 C54.509,25.7827 54.959,25.8447 55.165,26.1027 L55.93,27.0537 C56.083,27.2447 56.362,27.2757 56.554,27.1217 L57.447,26.4027 C57.726,26.1797 58.117,26.2877 58.433,26.6797 C58.728,27.0477 58.778,27.4897 58.5,27.7137" id="Fill-25" fill="#E10B17" mask="url(#mask-c-2)"></path>
                <path d="M58.5,27.7137 L57.563,28.4667 C57.396,28.6017 57.369,28.8467 57.503,29.0147 L58.313,30.0227 C58.548,30.3157 58.462,30.7077 58.091,31.0057 C57.743,31.2847 57.309,31.3137 57.072,31.0197 L56.277,30.0277 C56.135,29.8517 55.876,29.8227 55.699,29.9657 L54.791,30.6957 C54.547,30.8917 54.08,30.7837 53.784,30.4167 C53.47,30.0257 53.495,29.5807 53.738,29.3857 L54.586,28.7037 C54.797,28.5347 54.83,28.2267 54.661,28.0157 L53.925,27.0997 C53.719,26.8417 53.79,26.3607 54.138,26.0807 C54.509,25.7827 54.959,25.8447 55.165,26.1027 L55.93,27.0537 C56.083,27.2447 56.362,27.2757 56.554,27.1217 L57.447,26.4027 C57.726,26.1797 58.117,26.2877 58.433,26.6797 C58.728,27.0477 58.778,27.4897 58.5,27.7137 Z" id="Stroke-26" stroke="#8F181A" stroke-width="0.344" mask="url(#mask-c-2)"></path>
                <path d="M75.3535,34.2391 L74.1565,34.3471 C73.9425,34.3671 73.7855,34.5561 73.8035,34.7701 L73.9195,36.0571 C73.9545,36.4321 73.6655,36.7111 73.1915,36.7541 C72.7475,36.7951 72.3695,36.5771 72.3345,36.2011 L72.2205,34.9361 C72.2015,34.7101 72.0005,34.5441 71.7745,34.5641 L70.6145,34.6701 C70.3025,34.6981 69.9725,34.3491 69.9305,33.8801 C69.8855,33.3791 70.1515,33.0231 70.4625,32.9951 L71.5455,32.8971 C71.8155,32.8731 72.0135,32.6351 71.9895,32.3651 L71.8835,31.1941 C71.8545,30.8661 72.1795,30.5051 72.6245,30.4651 C73.0985,30.4221 73.4395,30.7211 73.4685,31.0511 L73.5785,32.2661 C73.6005,32.5101 73.8165,32.6901 74.0605,32.6691 L75.2035,32.5641 C75.5585,32.5321 75.8255,32.8401 75.8705,33.3401 C75.9125,33.8091 75.7095,34.2061 75.3535,34.2391" id="Fill-27" fill="#E10B17" mask="url(#mask-c-2)"></path>
                <path d="M75.3535,34.2391 L74.1565,34.3471 C73.9425,34.3671 73.7855,34.5561 73.8035,34.7701 L73.9195,36.0571 C73.9545,36.4321 73.6655,36.7111 73.1915,36.7541 C72.7475,36.7951 72.3695,36.5771 72.3345,36.2011 L72.2205,34.9361 C72.2015,34.7101 72.0005,34.5441 71.7745,34.5641 L70.6145,34.6701 C70.3025,34.6981 69.9725,34.3491 69.9305,33.8801 C69.8855,33.3791 70.1515,33.0231 70.4625,32.9951 L71.5455,32.8971 C71.8155,32.8731 72.0135,32.6351 71.9895,32.3651 L71.8835,31.1941 C71.8545,30.8661 72.1795,30.5051 72.6245,30.4651 C73.0985,30.4221 73.4395,30.7211 73.4685,31.0511 L73.5785,32.2661 C73.6005,32.5101 73.8165,32.6901 74.0605,32.6691 L75.2035,32.5641 C75.5585,32.5321 75.8255,32.8401 75.8705,33.3401 C75.9125,33.8091 75.7095,34.2061 75.3535,34.2391 Z" id="Stroke-28" stroke="#8F181A" stroke-width="0.344" mask="url(#mask-c-2)"></path>
                <path d="M89.7852,34.6571 L89.8272,35.8581 C89.8352,36.0731 90.0142,36.2411 90.2292,36.2341 L91.5212,36.1891 C91.8982,36.1761 92.1602,36.4791 92.1772,36.9551 C92.1922,37.4011 91.9542,37.7661 91.5782,37.7791 L90.3082,37.8231 C90.0812,37.8311 89.9032,38.0211 89.9122,38.2491 L89.9532,39.4141 C89.9642,39.7251 89.5982,40.0361 89.1272,40.0531 C88.6242,40.0691 88.2842,39.7841 88.2732,39.4711 L88.2342,38.3851 C88.2242,38.1151 87.9982,37.9031 87.7272,37.9131 L86.5542,37.9531 C86.2232,37.9651 85.8812,37.6201 85.8652,37.1741 C85.8482,36.6981 86.1682,36.3741 86.4972,36.3631 L87.7182,36.3201 C87.9632,36.3121 88.1542,36.1061 88.1452,35.8621 L88.1052,34.7151 C88.0932,34.3581 88.4142,34.1091 88.9162,34.0921 C89.3882,34.0761 89.7722,34.3001 89.7852,34.6571" id="Fill-29" fill="#E10B17" mask="url(#mask-c-2)"></path>
                <path d="M89.7852,34.6571 L89.8272,35.8581 C89.8352,36.0731 90.0142,36.2411 90.2292,36.2341 L91.5212,36.1891 C91.8982,36.1761 92.1602,36.4791 92.1772,36.9551 C92.1922,37.4011 91.9542,37.7661 91.5782,37.7791 L90.3082,37.8231 C90.0812,37.8311 89.9032,38.0211 89.9122,38.2491 L89.9532,39.4141 C89.9642,39.7251 89.5982,40.0361 89.1272,40.0531 C88.6242,40.0691 88.2842,39.7841 88.2732,39.4711 L88.2342,38.3851 C88.2242,38.1151 87.9982,37.9031 87.7272,37.9131 L86.5542,37.9531 C86.2232,37.9651 85.8812,37.6201 85.8652,37.1741 C85.8482,36.6981 86.1682,36.3741 86.4972,36.3631 L87.7182,36.3201 C87.9632,36.3121 88.1542,36.1061 88.1452,35.8621 L88.1052,34.7151 C88.0932,34.3581 88.4142,34.1091 88.9162,34.0921 C89.3882,34.0761 89.7722,34.3001 89.7852,34.6571 Z" id="Stroke-30" stroke="#8F181A" stroke-width="0.344" mask="url(#mask-c-2)"></path>
                <path d="M72.5156,17.7723 C72.5156,19.6783 70.9696,21.2233 69.0636,21.2233 C67.1576,21.2233 65.6126,19.6783 65.6126,17.7723 C65.6126,15.8663 67.1576,14.3203 69.0636,14.3203 C70.9696,14.3203 72.5156,15.8663 72.5156,17.7723" id="Fill-31" fill="#E10B17" mask="url(#mask-c-2)"></path>
                <path d="M72.5156,17.7723 C72.5156,19.6783 70.9696,21.2233 69.0636,21.2233 C67.1576,21.2233 65.6126,19.6783 65.6126,17.7723 C65.6126,15.8663 67.1576,14.3203 69.0636,14.3203 C70.9696,14.3203 72.5156,15.8663 72.5156,17.7723 Z" id="Stroke-32" stroke="#8F181A" stroke-width="0.312" mask="url(#mask-c-2)"></path>
                <path d="M74.6719,3.4452 C74.6719,4.6352 73.7059,5.6012 72.5159,5.6012 C71.3239,5.6012 70.3589,4.6352 70.3589,3.4452 C70.3589,2.2542 71.3239,1.2882 72.5159,1.2882 C73.7059,1.2882 74.6719,2.2542 74.6719,3.4452" id="Fill-33" fill="#E10B17" mask="url(#mask-c-2)"></path>
                <path d="M74.6719,3.4452 C74.6719,4.6352 73.7059,5.6012 72.5159,5.6012 C71.3239,5.6012 70.3589,4.6352 70.3589,3.4452 C70.3589,2.2542 71.3239,1.2882 72.5159,1.2882 C73.7059,1.2882 74.6719,2.2542 74.6719,3.4452 Z" id="Stroke-34" stroke="#8F181A" stroke-width="0.195" mask="url(#mask-c-2)"></path>
                <path d="M88.0215,22.3583 C88.0215,23.5493 87.0555,24.5153 85.8655,24.5153 C84.6735,24.5153 83.7085,23.5493 83.7085,22.3583 C83.7085,21.1683 84.6735,20.2023 85.8655,20.2023 C87.0555,20.2023 88.0215,21.1683 88.0215,22.3583" id="Fill-35" fill="#E10B17" mask="url(#mask-c-2)"></path>
                <path d="M88.0215,22.3583 C88.0215,23.5493 87.0555,24.5153 85.8655,24.5153 C84.6735,24.5153 83.7085,23.5493 83.7085,22.3583 C83.7085,21.1683 84.6735,20.2023 85.8655,20.2023 C87.0555,20.2023 88.0215,21.1683 88.0215,22.3583 Z" id="Stroke-36" stroke="#8F181A" stroke-width="0.195" mask="url(#mask-c-2)"></path>
                <path d="M100.5215,1.8456 C100.5215,2.7286 99.8045,3.4456 98.9205,3.4456 C98.0385,3.4456 97.3215,2.7286 97.3215,1.8456 C97.3215,0.9616 98.0385,0.2446 98.9205,0.2446 C99.8045,0.2446 100.5215,0.9616 100.5215,1.8456" id="Fill-37" fill="#E10B17" mask="url(#mask-c-2)"></path>
                <path d="M100.5215,1.8456 C100.5215,2.7286 99.8045,3.4456 98.9205,3.4456 C98.0385,3.4456 97.3215,2.7286 97.3215,1.8456 C97.3215,0.9616 98.0385,0.2446 98.9205,0.2446 C99.8045,0.2446 100.5215,0.9616 100.5215,1.8456 Z" id="Stroke-38" stroke="#8F181A" stroke-width="0.145" mask="url(#mask-c-2)"></path>
                <path d="M111.5635,7.8846 C111.5635,8.3806 111.1625,8.7816 110.6665,8.7816 C110.1695,8.7816 109.7685,8.3806 109.7685,7.8846 C109.7685,7.3896 110.1695,6.9876 110.6665,6.9876 C111.1625,6.9876 111.5635,7.3896 111.5635,7.8846" id="Fill-39" fill="#E10B17" mask="url(#mask-c-2)"></path>
                <path d="M111.5635,7.8846 C111.5635,8.3806 111.1625,8.7816 110.6665,8.7816 C110.1695,8.7816 109.7685,8.3806 109.7685,7.8846 C109.7685,7.3896 110.1695,6.9876 110.6665,6.9876 C111.1625,6.9876 111.5635,7.3896 111.5635,7.8846 Z" id="Stroke-40" stroke="#8F181A" stroke-width="0.081" mask="url(#mask-c-2)"></path>
                <path d="M98.9209,18.6698 C98.9209,19.1648 98.5199,19.5668 98.0239,19.5668 C97.5279,19.5668 97.1259,19.1648 97.1259,18.6698 C97.1259,18.1738 97.5279,17.7728 98.0239,17.7728 C98.5199,17.7728 98.9209,18.1738 98.9209,18.6698" id="Fill-41" fill="#E10B17" mask="url(#mask-c-2)"></path>
                <path d="M98.9209,18.6698 C98.9209,19.1648 98.5199,19.5668 98.0239,19.5668 C97.5279,19.5668 97.1259,19.1648 97.1259,18.6698 C97.1259,18.1738 97.5279,17.7728 98.0239,17.7728 C98.5199,17.7728 98.9209,18.1738 98.9209,18.6698 Z" id="Stroke-42" stroke="#8F181A" stroke-width="0.081" mask="url(#mask-c-2)"></path>
            </g>
        </g>
    </g>
</svg>