<svg xmlns="http://www.w3.org/2000/svg" xmlns:xlink="http://www.w3.org/1999/xlink" width="283px" height="179px" viewBox="0 0 283 179" version="1.1">
    <!-- Generator: sketchtool 62 (101010) - https://sketch.com -->
    <title>63E172D0-7A10-49EE-8E4B-DB892BE7C75D@1,5x</title>
    <desc>Created with sketchtool.</desc>
    <defs>
        <path d="M11.1486168,0.111225541 C5.0666354,0.111225541 0.136187048,5.04149035 0.136187048,11.1236553 L0.136187048,11.1236553 L0.136187048,166.949537 C0.136187048,173.031334 5.0666354,177.961966 11.1486168,177.961966 L11.1486168,177.961966 L271.041959,177.961966 C277.123757,177.961966 282.054389,173.031334 282.054389,166.949537 L282.054389,166.949537 L282.054389,11.1236553 C282.054389,5.04149035 277.123757,0.111225541 271.041959,0.111225541 L271.041959,0.111225541 L11.1486168,0.111225541 Z" id="path-4c-1"/>
    </defs>
    <g id="Financeur_Déjeuner_extranet-/-UI" stroke="none" stroke-width="1" fill="none" fill-rule="evenodd">
        <g id="12_01_UpDéjeuner" transform="translate(-1041.000000, -540.000000)">
            <g id="Group-4c-44" transform="translate(1041.000000, 540.000000)">
                <g id="Group-4c-5" transform="translate(0.000000, 0.091770)">
                    <mask id="mask-4c-2" fill="white">
                        <use xlink:href="#path-4c-1"/>
                    </mask>
                    <g id="Clip-2"/>
                    <polygon id="Fill-1" fill="#3E4646" mask="url(#mask-4c-2)" points="0.136187048 177.961966 282.054389 177.961966 282.054389 0.111225541 0.136187048 0.111225541"/>
                    <path d="M133.545221,44.5515004 L119.643497,47.6575563 L119.643497,93.5757176 C119.643497,102.331884 117.746973,109.05901 108.059706,109.05901 C97.2078739,109.05901 96.0484486,101.158693 96.0484486,94.7509274 L96.0484486,44.5515004 L82.1448889,47.6575563 L82.1448889,96.7770309 C82.1448889,115.467143 94.9951097,122.621185 107.42282,122.621185 C123.649085,122.621185 133.545221,112.050353 133.545221,98.8073559 L133.545221,44.5515004 Z" id="Fill-3" fill="#4D5455" mask="url(#mask-4c-2)"/>
                    <path d="M167.755977,110.234275 C158.804156,110.234275 152.272684,102.653319 152.272684,93.7906986 C152.272684,84.9247749 158.804156,77.3438183 167.755977,77.3438183 C176.709082,77.3438183 183.238352,84.9247749 183.238352,93.7906986 C183.238352,102.653319 176.709082,110.234275 167.755977,110.234275 L167.755977,110.234275 Z M153.574537,61.7995901 L140.159562,65.0864333 L140.159562,140.135041 L153.537095,137.027333 L153.537095,117.821105 C157.856353,120.844935 163.038252,122.610227 168.612193,122.610227 C183.684172,122.610227 195.906133,109.717242 195.906133,93.8112551 C195.906133,77.9052686 183.684172,65.0122829 168.612193,65.0122829 C163.012373,65.0122829 157.904808,66.7291207 153.574537,69.782684 L153.574537,61.7995901 Z" id="Fill-4" fill="#4D5455" mask="url(#mask-4c-2)"/>
                </g>
                <path d="M7.65954869,138.605433 L17.1300548,151.454552 L17.1300548,125.409605 L7.65954869,138.605433 Z M18.7729257,156.452727 L5.62830602,138.618831 L18.7729257,120.303692 L18.7729257,156.452727 Z" id="Fill-6" fill="#4D5455"/>
                <g id="Group-4c-43" transform="translate(17.619888, 16.059793)">
                    <path d="M67.6848345,56.0833682 C67.9770309,56.4788979 68.2084755,56.9181103 68.3676051,57.3910942 C68.5261841,57.8642616 68.6133658,58.3697321 68.6133658,58.901816 C68.6133658,59.4316974 68.5261841,59.937168 68.3676051,60.4110695 C68.2084755,60.8844205 67.9757461,61.3260189 67.6837332,61.7215487 C67.2832479,62.2582211 67.3963088,63.0162433 67.9340825,63.4165452 C68.4707549,63.8150116 69.230429,63.7006658 69.6287119,63.1645441 C70.0703103,62.5713412 70.4230751,61.9023361 70.6631461,61.1845092 C70.9054195,60.4672329 71.0372016,59.6972805 71.0372016,58.9019996 C71.0372016,58.1067186 70.9054195,57.335665 70.6653486,56.6191229 C70.4230751,55.9007454 70.0703103,55.2337592 69.6299966,54.636702 C69.2313467,54.1022321 68.4727738,53.9886205 67.9361014,54.3887388 C67.3985113,54.7862875 67.2836149,55.5455945 67.6848345,56.0833682 M71.8365205,53.8228834 C72.7496344,55.3020363 73.2712565,57.0353927 73.2727249,58.901816 C73.2716236,60.7671381 72.7496344,62.5015958 71.8365205,63.9807486 C71.4874265,64.5502748 71.662157,65.2947151 72.232968,65.6456445 C72.8034118,65.9971245 73.5496875,65.8194573 73.9000663,65.2504818 C75.0396692,63.406634 75.6969277,61.2250716 75.6956448,58.901816 C75.6967442,56.5774592 75.0396692,54.3975487 73.9000663,52.5507642 C73.5496875,51.9803204 72.8034118,51.8041215 72.232968,52.1557851 C71.662157,52.5079993 71.4874265,53.254642 71.8365205,53.8228834 M76.2394734,51.5212856 C77.5053522,53.6894495 78.2286853,56.2052391 78.2286853,58.901816 C78.2286853,61.5976588 77.5053522,64.1132649 76.237271,66.2806946 C75.8986387,66.8592142 76.0968625,67.601452 76.6731796,67.9399007 C77.2516993,68.2763304 77.9933864,68.0825116 78.3305503,67.5050932 C79.8069501,64.9781077 80.6516034,62.0344852 80.6516034,58.9016325 C80.6516034,55.7700645 79.8067665,52.8229548 78.3305503,50.297254 C77.9933864,49.7198356 77.2539018,49.5250992 76.6742809,49.8635478 C76.0968625,50.1999776 75.8999235,50.942766 76.2394734,51.5212856 M80.6271925,49.2121626 C82.2564815,52.0708058 83.1837281,55.3726994 83.1859306,58.9016325 C83.1837281,62.4316669 82.2564815,65.7324591 80.6271925,68.5890834 C80.2971867,69.1732928 80.4998154,69.9131446 81.0818224,70.2435175 C81.6638293,70.574808 82.4014785,70.3708946 82.7353387,69.790356 C84.5645033,66.5787644 85.6106841,62.8583985 85.6106841,58.9016325 C85.6106841,54.9446829 84.5645033,51.2243171 82.7353387,48.0107065 C82.403681,47.4286996 81.6638293,47.2262544 81.0818224,47.5573615 C80.502385,47.890304 80.2973703,48.6290545 80.6271925,49.2121626" id="Fill-7" fill="#FF8900"/>
                    <path d="M32.1608651,16.5656127 C32.1608651,15.227786 32.5327181,13.9824637 33.1644645,12.9313273 L33.1644645,0.0566956593 L0.137453478,0.0566956593 L0.137453478,33.0837067 L33.1644645,33.0837067 L33.1644645,20.2002651 C32.5327181,19.1485781 32.1608651,17.9038064 32.1608651,16.5656127" id="Fill-9" fill="#FF8900"/>
                    <path d="M13.250908,16.5274362 C13.250908,18.2308756 12.8772196,19.5386016 10.9667465,19.5386016 C8.82923392,19.5386016 8.59944122,18.0021841 8.59944122,16.7561277 L8.59944122,6.99526058 L5.85899807,7.59984297 L5.85899807,17.1501891 C5.85899807,20.7833733 8.392224,22.1747938 10.8415719,22.1747938 C14.0399486,22.1747938 15.9913512,20.120425 15.9913512,17.5442506 L15.9913512,6.99526058 L13.250908,7.59984297 L13.250908,16.5274362 Z" id="Fill-11" fill="#FFFFFF"/>
                    <path d="M22.7360423,19.7672747 C20.9705662,19.7672747 19.6830296,18.2925268 19.6830296,16.5701828 C19.6830296,14.8458199 20.9705662,13.3712555 22.7360423,13.3712555 C24.500417,13.3712555 25.7872195,14.8460034 25.7872195,16.5701828 C25.7872195,18.2925268 24.5006006,19.7672747 22.7360423,19.7672747 M22.9041653,10.9738496 C21.8003528,10.9738496 20.7938167,11.3077097 19.9394357,11.9016468 L19.9394357,10.3490777 L17.2953513,10.9879822 L17.2953513,25.5816541 L19.9328283,24.9765211 L19.9328283,21.2420226 C20.7835385,21.8302699 21.8060426,22.1731236 22.9041653,22.1731236 C25.8755024,22.1731236 28.2848385,19.666511 28.2848385,16.5734866 C28.2848385,13.4802786 25.8755024,10.9738496 22.9041653,10.9738496" id="Fill-13" fill="#FFFFFF"/>
                    <path d="M41.8301639,20.6996605 C40.729655,21.801087 40.0026511,22.1742248 38.549194,22.1742248 C35.5371109,22.1742248 33.3355426,19.4947171 33.3355426,16.566512 C33.3355426,13.6383069 35.5372944,10.9589828 38.549194,10.9589828 C39.6078555,10.9589828 40.7087314,11.2708181 41.6851669,12.0807823 L41.6851669,7.59468548 L44.3226438,7.26174302 L44.3226438,21.841833 L41.8301639,22.0908974 L41.8301639,20.6996605 Z M38.8808516,19.7654393 C40.6465112,19.7654393 41.9342313,18.290875 41.9342313,16.566512 C41.9342313,14.8428832 40.6465112,13.3683189 38.8808516,13.3683189 C37.1153756,13.3683189 35.8280226,14.8428832 35.8280226,16.566512 C35.8280226,18.290875 37.1153756,19.7654393 38.8808516,19.7654393 L38.8808516,19.7654393 Z" id="Fill-15" fill="#FFFFFF"/>
                    <path d="M56.1213243,20.782841 C54.8341548,21.6766832 53.2553395,22.1742615 51.698549,22.1742615 C48.5822149,22.1742615 45.8412212,19.7440018 45.8412212,16.5665487 C45.8412212,13.3887286 48.5822149,10.9595701 51.698549,10.9595701 C53.8780924,10.9595701 55.7898502,12.2678468 56.7242549,14.2197999 L49.4953289,18.7066309 C49.704198,19.1425396 50.2849201,19.7652925 51.5524508,19.7652925 C52.9014734,19.7652925 53.8988325,19.2455058 54.9998919,18.5186854 L56.1213243,20.782841 Z M53.4003365,13.8466621 C52.9014734,13.3479826 52.2583475,13.161689 51.5526343,13.161689 C49.8912257,13.161689 48.5614748,14.5107116 48.4164779,16.1308236 C48.4164779,16.3602492 48.4164779,16.5871053 48.4577745,16.8367203 L53.4003365,13.8466621 Z M49.849195,9.60944622 L51.8015152,6.57643952 L55.0208155,6.57643952 L51.9255886,9.60944622 L49.849195,9.60944622 Z" id="Fill-17" fill="#FFFFFF"/>
                    <path d="M60.5891222,11.0429158 L60.5891222,22.2587085 C60.5891222,24.5015733 59.1558544,25.914101 56.8094727,25.914101 C56.4767138,25.914101 56.164695,25.8931774 55.8737833,25.8722538 L55.0647368,23.5664345 C55.271954,23.5875417 55.4797218,23.6288383 55.8334044,23.6288383 C56.9752098,23.6288383 57.9510946,23.067755 57.9510946,21.7811361 L57.9510946,11.2925309 L60.5891222,11.0429158 Z M61.1081747,8.46710852 L59.3215915,10.2338693 L57.5361096,8.46710852 L59.3215915,6.70273373 L61.1081747,8.46710852 Z" id="Fill-19" fill="#FFFFFF"/>
                    <path d="M72.2826524,20.782841 C70.9952993,21.6766832 69.416484,22.1742615 67.8596935,22.1742615 C64.7444606,22.1742615 62.0025492,19.7440018 62.0025492,16.5665487 C62.0025492,13.3887286 64.7444606,10.9595701 67.8596935,10.9595701 C70.0403381,10.9595701 71.9508111,12.2678468 72.8855829,14.2197999 L65.6564734,18.7066309 C65.8642412,19.1425396 66.4462481,19.7652925 67.7135953,19.7652925 C69.0626179,19.7652925 70.0612617,19.2455058 71.1610364,18.5186854 L72.2826524,20.782841 Z M69.5612974,13.8466621 C69.0626179,13.3479826 68.4196755,13.161689 67.7137788,13.161689 C66.0523702,13.161689 64.7237206,14.5107116 64.5776223,16.1308236 C64.5776223,16.3602492 64.5776223,16.5871053 64.6191025,16.8367203 L69.5612974,13.8466621 Z" id="Fill-21" fill="#FFFFFF"/>
                    <path d="M83.6043662,21.8418697 L81.1118863,22.0077903 L81.1118863,20.6372934 L81.0700391,20.6372934 C80.1772981,21.8418697 79.3054807,22.1737109 77.8309164,22.1737109 C75.6486199,22.1737109 74.1962639,20.7821068 74.1962639,18.5399761 L74.1962639,11.2919619 L76.8337409,10.9595701 L76.8337409,17.8342629 C76.8337409,18.9556954 77.353344,19.8895494 78.5369967,19.8895494 C80.1985888,19.8895494 80.9672564,18.6238541 80.9672564,17.2941033 L80.9672564,11.2919619 L83.6045498,10.9595701 L83.6045498,21.8418697 L83.6043662,21.8418697 Z" id="Fill-23" fill="#FFFFFF"/>
                    <path d="M85.746449,11.2919619 L88.2389289,11.0428975 L88.2389289,12.4967218 L88.2791243,12.4967218 C89.1737007,11.2921455 90.0453345,10.959203 91.5198988,10.959203 C93.7003599,10.959203 95.1541842,12.3517248 95.1541842,14.5938555 L95.1541842,21.8420532 L92.5167073,22.0090751 L92.5167073,15.2997522 C92.5167073,14.179054 91.9969206,13.2442822 90.8134515,13.2442822 C89.1525935,13.2442822 88.3839259,14.5112622 88.3839259,15.8399119 L88.3839259,21.8420532 L85.746449,22.0090751 L85.746449,11.2919619 Z" id="Fill-25" fill="#FFFFFF"/>
                    <path d="M106.931391,20.782841 C105.644221,21.6766832 104.065406,22.1742615 102.508615,22.1742615 C99.3933823,22.1742615 96.6512873,19.7440018 96.6512873,16.5665487 C96.6512873,13.3887286 99.3933823,10.9595701 102.508615,10.9595701 C104.688159,10.9595701 106.599733,12.2678468 107.534138,14.2197999 L100.306496,18.7066309 C100.514264,19.1425396 101.09517,19.7652925 102.362517,19.7652925 C103.712641,19.7652925 104.71,19.2455058 105.809958,18.5186854 L106.931391,20.782841 Z M104.21132,13.8466621 C103.712824,13.3479826 103.068414,13.161689 102.362517,13.161689 C100.700925,13.161689 99.3713575,14.5107116 99.226544,16.1308236 C99.226544,16.3602492 99.226544,16.5871053 99.2680242,16.8367203 L104.21132,13.8466621 Z" id="Fill-27" fill="#FFFFFF"/>
                    <path d="M111.192357,12.9533338 L111.233837,12.9533338 C112.147318,11.3128489 113.331154,10.9799064 115.158483,10.9595334 L114.244819,13.7627474 C112.230095,13.7627474 111.338638,14.9475013 111.338638,16.7753811 L111.338638,21.841833 L108.700244,22.0088548 L108.700244,11.2917417 L111.192724,11.0426772 L111.192724,12.9533338 L111.192357,12.9533338 Z" id="Fill-29" fill="#FFFFFF"/>
                    <path d="M209.592271,60.8741606 L210.326249,60.8361677 C212.685479,60.8466295 215.135377,61.2171977 217.613908,61.9469548 C220.268638,62.7337929 222.753776,63.8873449 224.994255,65.3666813 C225.059596,65.4109145 225.123468,65.4617553 225.188992,65.505805 C224.376091,66.6109023 223.614214,67.7435307 222.897672,68.9108483 C220.429603,67.3320329 217.765329,66.2093157 214.962482,65.60767 C211.896622,64.9561012 209.390927,64.8854381 206.14171,65.4870838 C198.310404,66.9186997 191.529867,72.4827299 187.439484,80.3013715 L183.194743,80.3013715 C188.2511,68.8271538 198.231114,61.1848946 209.592271,60.8741606 L209.592271,60.8741606 Z M235.892523,45.8036822 C242.852011,45.8315486 249.462589,48.8447329 254.511788,54.290563 C256.465026,56.4014622 258.119277,58.7966657 259.425535,61.4106494 C260.317908,63.1847519 261.049134,65.0743013 261.614255,67.0301088 C261.817985,67.7372903 261.981887,68.4584209 262.137529,69.1982727 C262.667227,71.6410131 262.934462,74.0336471 262.932092,76.5424621 C262.927671,77.7969614 262.819015,79.0503594 262.667227,80.3011879 L258.351456,80.3011879 C258.492965,79.1566294 258.59171,78.0063811 258.596299,76.832089 C258.600336,75.4149728 258.492965,73.9611486 258.223528,72.0789408 C258.217104,72.0214926 258.180763,71.7337011 258.169383,71.67662 C257.595085,68.4736548 256.610574,65.5333361 255.251824,62.9316495 L255.023132,62.5019812 C253.425596,59.5001764 251.216686,56.831314 248.631702,54.7760276 C244.859394,51.7740392 240.443226,50.1765027 235.87784,50.159617 C230.021429,50.1397946 224.467127,52.7262473 220.189349,57.4412191 C219.696909,57.2628178 219.22833,57.0343098 218.72598,56.8849079 C217.655756,56.572889 216.595993,56.3724628 215.53623,56.1716695 C220.719413,49.5451234 228.00487,45.7761193 235.892523,45.8036822 L235.892523,45.8036822 Z M253.812683,80.301555 L249.158279,80.301555 C249.332276,79.2082043 249.424413,78.0904426 249.4279,76.9844276 C249.435976,75.3641321 249.222702,73.6830847 248.779268,71.8460279 C248.383922,70.2288526 247.909837,68.8702858 247.347836,67.7163667 C246.594035,66.1456271 245.597594,64.6908852 244.384574,63.3897666 C243.079602,61.9977955 241.598613,60.9371149 239.98309,60.2347055 C238.473836,59.5954339 237.1573,59.2944275 235.841866,59.289839 C233.363518,59.2801113 230.960973,60.2249778 228.801986,61.9407144 C228.288073,61.5512414 227.757274,61.1793884 227.220418,60.8255223 C226.509749,60.3540068 225.732639,59.9887612 224.983059,59.5767128 C228.130779,56.858478 231.905473,55.3697811 235.857834,55.3858026 C239.521669,55.4000653 243.061798,56.6784248 246.085811,59.0875774 C248.162021,60.73779 249.928599,62.8672268 251.219072,65.2822527 L251.407017,65.6542892 C252.503305,67.7448155 253.298953,70.133228 253.762209,72.7284906 L253.814885,73.097407 C254.009805,74.5126877 254.103961,75.6959733 254.100568,76.8166716 C254.095335,77.9955522 253.989983,79.1557117 253.812683,80.301555 L253.812683,80.301555 Z M244.732567,79.3743084 C244.68448,79.6777008 244.607393,79.9913716 244.536546,80.301555 L241.893012,80.301555 C242.789975,79.1841605 243.793023,78.1256824 244.920146,77.1553038 C244.907848,77.8898329 244.855906,78.6340896 244.732567,79.3743084 L244.732567,79.3743084 Z M236.215187,80.301555 L231.758273,80.301555 C233.997284,75.5599698 237.467117,71.3512027 241.968447,68.0272843 C242.533936,68.7348329 243.040874,69.4743176 243.428328,70.2826299 C243.617559,70.6801786 243.803118,71.117005 243.967203,71.6006342 C240.704037,74.0169449 238.106021,76.9910351 236.215187,80.301555 L236.215187,80.301555 Z M222.673386,80.301555 C224.279732,75.5408816 226.755877,71.0692845 230.011151,67.1323409 C230.273981,67.0394694 230.528368,66.9019975 230.757977,66.6907424 C232.303388,65.2604113 234.055282,64.5067941 235.823512,64.5148056 C236.45434,64.5170723 237.142434,64.6886827 237.904677,64.9610568 C232.903933,69.1081543 229.143922,74.4168796 226.858843,80.3019221 L222.673386,80.3019221 L222.673386,80.301555 Z M218.886395,77.2244986 C217.33511,76.2328293 215.718302,75.4456241 214.01211,75.0119179 C211.031228,74.2792242 208.027588,74.4165125 205.056802,75.4318586 C202.324618,76.3785604 199.858017,78.0673165 197.787497,80.3013715 L192.841815,80.3013715 C196.300635,75.2099581 201.259349,71.6639557 206.836777,70.6442047 C209.583277,70.1396519 211.583869,70.1963659 214.143892,70.7471709 C216.386389,71.2227244 218.50408,72.1431799 220.488336,73.378591 C219.897152,74.6374953 219.365068,75.9178738 218.886395,77.2244986 L218.886395,77.2244986 Z M206.849258,80.301555 C208.926386,79.6811881 211.011957,79.6107086 213.070547,80.1216853 C213.267119,80.1706906 213.459653,80.2441068 213.654573,80.301555 L206.849258,80.301555 Z M185.078419,121.653779 C185.076216,121.649374 185.074197,121.646254 185.071628,121.643685 C178.664045,110.991361 175.074911,99.1544677 174.396729,86.4343771 L264.434538,86.4343771 L264.434538,56.0501657 C263.921543,56.0283244 263.405977,56.0162107 262.888026,56.0141918 C262.491946,56.0130905 262.088707,56.0174955 261.690975,56.0329129 C260.810348,54.5961579 259.839051,53.2421796 258.772314,51.9588645 C260.146665,51.8360759 261.523402,51.764128 262.903994,51.7687165 C263.416623,51.7707355 263.926498,51.7832162 264.434538,51.8032222 L264.434538,46.5770901 C263.933289,46.5591031 263.430572,46.5466223 262.925285,46.5447869 C259.997263,46.5330403 257.078786,46.8217495 254.215554,47.3492449 C248.897468,43.0041072 242.550821,40.6054165 235.912896,40.5820551 C225.836523,40.5415444 216.568462,45.7937392 210.487949,54.9834283 C210.364242,55.1783483 210.295047,55.40135 210.226403,55.6140735 C210.067824,55.6204974 209.888872,55.6293073 209.52326,55.6513322 C195.683389,56.0285079 183.650841,65.8352602 178.243554,80.301555 L169.512349,80.301555 C169.112782,80.301555 168.727714,80.4634377 168.445612,80.7521469 C168.167181,81.0408561 168.016494,81.4292278 168.027602,81.833384 C168.734505,104.497148 176.719067,124.395691 190.531774,138.995603 L199.238752,138.995603 C193.721524,134.117647 189.033349,128.36971 185.078419,121.653779 L185.078419,121.653779 Z" id="Fill-31" fill="#FF8900"/>
                    <path d="M178.74528,89.6892109 C178.566328,89.6892109 178.395452,89.7631777 178.269911,89.8901877 C178.146021,90.0151788 178.068383,90.1911941 178.08068,90.3664753 C179.395197,108.273053 190.522523,127.335019 203.940986,138.995713 L264.434465,138.995713 L264.434465,89.6892109 L178.74528,89.6892109 Z" id="Fill-33" fill="#FFFFFF"/>
                    <path d="M243.453877,34.7278808 C243.781497,35.3403555 244.49914,35.5429842 245.058388,35.1858144 C245.616535,34.8264421 245.803563,34.0407052 245.476126,33.4309837 C244.778673,32.1311499 244.415079,30.4607478 246.460271,27.0703878 C249.096463,22.7006556 247.337227,18.700207 246.036476,17.1927889 C245.807601,16.9284906 245.502006,16.7954237 245.190905,16.7943117 C244.905499,16.7930377 244.61679,16.9064657 244.388282,17.1384609 C243.91695,17.6184193 243.890153,18.4272823 244.323309,18.9457842 C244.42499,19.0665538 246.758891,21.9217098 244.503362,25.659512 C242.338135,29.2488299 242.016388,32.0461706 243.453877,34.7278808" id="Fill-35" fill="#FF8900"/>
                    <path d="M228.724037,36.2643167 C229.049638,36.8760571 229.768749,37.0783188 230.327814,36.7222502 C230.885777,36.3626944 231.073171,35.5769575 230.745552,34.9668689 C230.048098,33.6677693 229.684871,31.9966331 231.729696,28.6068236 C234.366072,24.237275 232.606652,20.2362758 231.305901,18.7294083 C231.077209,18.4649264 230.771431,18.3318596 230.46033,18.3309339 C230.174924,18.3298406 229.886215,18.4430851 229.657707,18.6750803 C229.186559,19.1552222 229.159578,19.9642687 229.593101,20.4825871 C229.694782,20.6031732 232.028316,23.4597975 229.772971,27.1964985 C227.607376,30.7850822 227.285997,33.5826065 228.724037,36.2643167" id="Fill-37" fill="#FF8900"/>
                    <path d="M235.546219,38.1706967 C235.875674,38.7815195 236.593134,38.9846988 237.151464,38.6273455 C237.708326,38.2679732 237.897372,37.4822363 237.568284,36.8736161 C236.874868,35.5739658 236.507237,33.9017283 238.555365,30.5119189 C241.188988,26.1434716 239.43067,22.1430229 238.130836,20.6354213 C237.901961,20.3700217 237.595265,20.2369549 237.2871,20.2358457 C236.998758,20.2347524 236.710049,20.3490981 236.48356,20.5810933 C236.009108,21.0610517 235.983045,21.868997 236.420055,22.3886001 C236.519717,22.5091862 238.85215,25.3645257 236.599007,29.1023279 C234.433229,32.6905446 234.109464,35.4880688 235.546219,38.1706967" id="Fill-39" fill="#FF8900"/>
                    <path d="M186.158408,138.459188 C185.518218,138.459188 184.999349,138.97824 184.999349,139.618613 C184.999349,140.258986 185.518218,140.777671 186.158408,140.777671 L264.434575,140.777671 L264.434575,138.459004 L186.158408,138.459004 L186.158408,138.459188 Z" id="Fill-41" fill="#FF8900"/>
                </g>
            </g>
        </g>
    </g>
</svg>