<svg width="74px" height="54px" viewBox="0 0 74 54" version="1.1" xmlns="http://www.w3.org/2000/svg" xmlns:xlink="http://www.w3.org/1999/xlink">
    <title>1C3E8B2D-29DA-4A00-A93B-8978DC87FCA2@1,5x</title>
    <g id="Import-Fichier" stroke="none" stroke-width="1" fill="none" fill-rule="evenodd">
        <g id="04_01_UpDéjeuner-REcap-All" transform="translate(-728.000000, -474.000000)" fill-rule="nonzero">
            <g id="picto-recharge-carte-02" transform="translate(728.000000, 474.000000)">
                <path d="M5.7575,11.5515 L5.7605,11.5515 C5.5735,11.5515 5.4165,11.4705 5.2395,11.4485 C5.4175,11.4705 5.5745,11.5515 5.7575,11.5515" id="Path" fill="#FFFFFF"></path>
                <path d="M5.7575,11.5515 L5.7605,11.5515 C5.5735,11.5515 5.4165,11.4705 5.2395,11.4485 C5.4175,11.4705 5.5745,11.5515 5.7575,11.5515" id="Path" fill="#FFFFFF"></path>
                <g id="Group">
                    <g transform="translate(0.000000, 16.060606)">
                        <path d="M23.1795055,9.13607576 C23.1770989,9.19871212 23.1770989,9.25733333 23.1899341,9.32398485 L24.5015275,8.52416667 C24.3707692,8.38524242 24.2047143,8.3394697 24.0161978,8.33545455 C23.5733846,8.3394697 23.218011,8.7000303 23.1795055,9.13607576 Z" id="Path" fill="#FF7E0A"></path>
                        <path d="M16.3808791,8.39246847 C15.9091868,8.39568182 15.5634396,8.78595455 15.5658462,9.25010606 C15.5626374,9.71265152 15.8995604,10.1093485 16.3624286,10.1157727 C16.8349231,10.1157727 17.1766593,9.71666667 17.1830769,9.25251515 C17.1870879,8.78675758 16.8445495,8.39166667 16.3808791,8.39246847 Z" id="Path" fill="#FF7E0A"></path>
                        <path d="M32.3542418,9.14009091 C32.351033,9.20513636 32.351033,9.26616667 32.3662747,9.32960606 L33.6810769,8.52737879 C33.5479121,8.39809091 33.3786484,8.34348485 33.1917363,8.34509091 C32.7441099,8.34348485 32.3983626,8.70484848 32.3542418,9.14009091 Z" id="Path" fill="#FF7E0A"></path>
                        <path d="M56.3857936,2.75278788 C56.3985165,1.37960606 55.3091319,0.269015152 53.9566264,0.268212121 L2.68495604,0.249738521 C1.33565934,0.247333333 0.231835165,1.36033333 0.223010989,2.73190909 L-9.88765882e-05,33.7577879 C-0.012032967,35.1277576 1.07574725,36.2423636 2.42424176,36.2423636 L53.6991209,36.2608333 C55.050022,36.2608333 56.1522418,35.1494394 56.1602637,33.7778636 L56.3857936,2.75278788 Z M19.8174945,6.56557576 L20.667022,6.56718182 L19.8383516,7.37984848 L19.2864396,7.38306061 L19.8174945,6.56557576 Z M6.07905495,13.6956818 L6.14563736,4.81015152 L14.8911978,4.80774242 L14.8655275,8.27201515 C14.6922527,8.55628788 14.5951868,8.88874242 14.5943846,9.25331818 C14.587967,9.6114697 14.6858352,9.94633333 14.8542967,10.2265909 L14.8246154,13.6980909 L6.07905495,13.6956818 Z M17.142967,10.7397273 L17.146978,10.362303 C16.8517692,10.6642424 16.6592418,10.7549848 16.274989,10.7565909 C15.4768022,10.7557879 14.8992198,10.0370758 14.9056374,9.25090909 C14.9112527,8.46233333 15.4984615,7.74442424 16.2942418,7.7460303 C16.5718022,7.74522727 16.8662088,7.82633333 17.1172967,8.04636364 L17.1309341,6.83940909 L17.8304505,6.74786364 L17.8055824,10.6706667 L17.142967,10.7397273 Z M18.2130929,9.25171212 C18.2219231,8.39809091 18.9495165,7.74522727 19.7805934,7.74842715 C20.3573736,7.7460303 20.8595495,8.09936364 21.1002088,8.62213636 L19.1781429,9.82507576 C19.2350989,9.94472727 19.3827033,10.1149697 19.7188242,10.1125606 C20.0814176,10.1125606 20.3421319,9.97283333 20.6381429,9.77930303 L20.9309451,10.3912121 C20.5843956,10.6305152 20.1656484,10.7630152 19.7597363,10.7622158 C18.9326703,10.7614091 18.2106923,10.1061364 18.2130929,9.25171212 Z M21.1026154,11.7708182 C21.015978,11.7643939 20.9309451,11.7627879 20.8571429,11.7627879 L20.6461648,11.1324091 C20.6983077,11.1452576 20.7544615,11.1565 20.8459121,11.1492727 C21.1523516,11.155697 21.4090549,10.998303 21.4098571,10.6546061 L21.4347253,7.83436364 L22.1262198,7.76931818 L22.1101758,10.7871061 C22.1061648,11.3877727 21.7219121,11.7684091 21.1026154,11.7708182 Z M21.7973187,7.54768182 L21.324022,7.07630303 L21.8053407,6.60171212 L22.2722198,7.07068182 L21.7973187,7.54768182 Z M23.9993516,10.1109545 C24.3587363,10.1141667 24.6250659,9.97684848 24.9154615,9.77609091 L25.2114725,10.3912121 C24.8641209,10.6313182 24.4485824,10.7646212 24.0354505,10.7622121 C23.2107912,10.7638182 22.4888132,10.1117576 22.4984396,9.25492424 C22.5024505,8.4005 23.230044,7.74522727 24.0555055,7.74922407 C24.6346923,7.74843939 25.1416813,8.1009697 25.3799341,8.62454545 L23.4562637,9.83390909 C23.5148242,9.94874242 23.664033,10.1133636 23.9993516,10.1109545 Z M27.5458681,10.7228636 L27.5458681,10.3510606 L27.5386484,10.3534697 C27.2955824,10.6754848 27.066956,10.7654242 26.6778901,10.7678333 C26.0995055,10.7654242 25.7192637,10.3936212 25.721659,9.78171212 L25.7353077,7.8359697 L26.4356264,7.74442424 L26.4195824,9.59621212 C26.4155714,9.89815152 26.5519451,10.1495 26.8688132,10.1511061 C27.306011,10.1462879 27.5145824,9.81222727 27.5153846,9.4524697 L27.5298242,7.83918182 L28.2301429,7.75004545 L28.2036703,10.6746818 L27.5458681,10.7228636 Z M29.6757033,26.6959394 C29.5313077,26.6638182 29.423011,26.5730758 29.2874396,26.5240909 C29.423011,26.5730758 29.5321099,26.6638182 29.6773077,26.6959394 L29.6757033,26.6959394 Z M30.5685495,10.7244697 L30.5757692,8.91122727 C30.5781758,8.61089394 30.4458132,8.36195455 30.1321538,8.36356061 C29.6925495,8.36918182 29.4855824,8.70725758 29.4815714,9.05978788 L29.4695385,10.6738788 L28.770022,10.7212576 L28.7876703,7.83516667 L29.4526923,7.77092424 L29.4438681,8.15798485 L29.4591099,8.16280303 C29.6973626,7.84078788 29.9316044,7.75084848 30.3270879,7.7460303 C30.8990549,7.75165152 31.2776923,8.12506061 31.2752971,8.72412121 L31.260044,10.678697 L30.5685495,10.7244697 Z M33.1772967,10.123 C33.5342747,10.1213939 33.8022088,9.97765152 34.0966154,9.79054545 L34.3846044,10.3936212 C34.0412637,10.6305152 33.6249231,10.7702424 33.2077802,10.7702424 C32.3855275,10.7670303 31.6627473,10.1125606 31.664349,9.25733333 C31.6795934,8.40290909 32.4071868,7.74763636 33.227033,7.75163316 C33.8062198,7.75406061 34.3116044,8.10418182 34.5578791,8.62615152 L32.6326044,9.83230303 C32.6911648,9.95356061 32.841978,10.1197879 33.1772967,10.123 Z M36.3411648,8.50810606 C35.8052967,8.50730303 35.5646374,8.82690909 35.5678462,9.31675758 L35.551,10.678697 L34.8490769,10.7220606 L34.8723407,7.84480303 L35.5285385,7.77092424 L35.5277363,8.2864697 L35.538967,8.28566667 C35.7900549,7.84319697 36.1045165,7.75887879 36.5818242,7.75245455 L36.3411648,8.50810606 Z" id="Shape" fill="#FF7E0A"></path>
                        <path d="M19.7348681,8.33705927 C19.2936593,8.33625758 18.9439011,8.69681818 18.9005824,9.13527273 C18.894967,9.19790909 18.8941648,9.25572727 18.9094066,9.32157576 L20.221,8.51774242 C20.0918462,8.38765152 19.9225824,8.33866667 19.7348681,8.33705927 Z" id="Path" fill="#FF7E0A"></path>
                        <path d="M9.60391209,6.84021212 L9.58786813,9.23324242 C9.58465934,9.69659091 9.48197802,10.0515303 8.97498901,10.0467121 C8.40783516,10.0483182 8.35007692,9.63556061 8.35087912,9.30310606 L8.37013187,6.67077273 L7.64574725,6.83539394 L7.6272967,9.40589394 C7.61927473,10.3863939 8.28910989,10.7573939 8.93568132,10.7550065 C9.7836044,10.759 10.3058352,10.2049091 10.3074396,9.51590909 L10.3323077,6.67398485 L9.60391209,6.84021212 Z" id="Path" fill="#FF7E0A"></path>
                        <path d="M12.1540989,7.74442424 C11.8588901,7.7460303 11.5917582,7.83356061 11.3631319,7.99737879 L11.3663407,7.57578788 L10.666022,7.74843939 L10.6395495,11.6728485 L11.3398681,11.5162576 L11.3446813,10.5044394 C11.5709011,10.6634394 11.8388352,10.759803 12.1372527,10.7573939 C12.9145824,10.7614091 13.5579451,10.0836515 13.5627582,9.25251515 C13.573989,8.42218182 12.9362418,7.74763636 12.1540989,7.74442424 Z M12.0915275,10.1189848 C11.6262527,10.1109545 11.2813077,9.71506061 11.2901319,9.2485 C11.2925385,8.78756061 11.6358791,8.38845455 12.1035604,8.39407576 C12.568033,8.39006061 12.9073626,8.79077273 12.9033516,9.24930303 C12.9033516,9.7174697 12.5568022,10.1133636 12.0915275,10.1189848 Z" id="Shape" fill="#FF7E0A"></path>
                        <path d="M18.9005824,9.13527273 C18.9439011,8.69681818 19.2936593,8.33625758 19.7348681,8.33705927 C19.9225824,8.33866667 20.0918462,8.38765152 20.2201978,8.51854545 L18.9086044,9.32237879 C18.8941648,9.25572727 18.894967,9.19790909 18.9005824,9.13527273 Z" id="Path" fill="#FF7E0A"></path>
                        <path d="M13.7488681,4.27613636 L13.7488681,4.27613636 C13.6221209,4.2745303 13.5138242,4.22072727 13.3910879,4.20065152 C13.5138242,4.22072727 13.6213187,4.2745303 13.7488681,4.27613636" id="Path" fill="#FFFFFF"></path>
                    </g>
                    <path d="M29.6612637,45.2411212 L29.6628681,45.2411212 C29.5168681,45.209 29.4085714,45.1182576 29.273,45.0708788 C29.4077692,45.1182576 29.5168681,45.209 29.6612637,45.2411212 Z" id="Path" fill="#FF7E0A"></path>
                    <g transform="translate(35.296703, 0.000000)">
                        <path d="M18.6294396,0 C8.47521978,0 0.243868132,8.25113636 0.243868132,18.4343636 C0.243868132,28.6175909 8.47602198,36.8719394 18.6294396,36.8719394 C28.7868681,36.8719394 37.019022,28.6175909 37.019022,18.4343636 C37.019022,8.25113636 28.7868681,0 18.6294396,0 Z M29.2296813,20.3584242 L20.5787802,20.3584242 L20.5787802,29.0255303 C20.5787802,29.3901061 19.8295275,30.2188333 18.5957473,30.2188333 C17.361967,30.2188333 16.6792967,29.5129697 16.6792967,29.0255303 L16.6792967,20.3584242 L7.96582418,20.3584242 C6.94302198,20.3584242 6.91253846,18.6319091 6.91253846,18.4343636 C6.91253846,17.3173485 7.3746044,16.4436515 7.96582418,16.4436515 L16.6800989,16.4436515 L16.6800989,7.70909091 C16.6800989,6.70048485 18.2764725,6.64989394 18.5965495,6.64989394 C19.7083956,6.64989394 20.5795824,7.11484848 20.5795824,7.70909091 L20.5795824,16.4436515 L29.2296813,16.4436515 C29.6139341,16.4436515 30.3495495,17.2193788 30.3495495,18.4343636 C30.3487473,19.6726364 29.6869341,20.3584242 29.2296813,20.3584242 Z" id="Shape" fill="#3AA887"></path>
                        <path d="M29.2296813,16.4436515 L20.5787802,16.4436515 L20.5787802,7.70909091 C20.5787802,7.11484848 19.7075934,6.64989394 18.5957473,6.64989394 C18.2764725,6.64989394 16.6792967,6.70048485 16.6792967,7.70909091 L16.6792967,16.4436515 L7.96582418,16.4436515 C7.37540659,16.4436515 6.91253846,17.3181515 6.91253846,18.4343636 C6.91253846,18.6311061 6.94221978,20.3584242 7.96582418,20.3584242 L16.6800989,20.3584242 L16.6800989,29.0255303 C16.6800989,29.5129697 17.3627692,30.2188333 18.5965495,30.2188333 C19.8303297,30.2188333 20.5795824,29.3901061 20.5795824,29.0255303 L20.5795824,20.3584242 L29.2296813,20.3584242 C29.6869341,20.3584242 30.3495495,19.6726364 30.3495495,18.4343636 C30.3487473,17.2185758 29.6139341,16.4436515 29.2296813,16.4436515 Z" id="Path" fill="#FFFFFF"></path>
                    </g>
                </g>
            </g>
        </g>
    </g>
</svg>