<svg width="68px" height="66px" viewBox="0 0 68 66" version="1.1" xmlns="http://www.w3.org/2000/svg" xmlns:xlink="http://www.w3.org/1999/xlink">
    <title>77415BAA-1290-4B37-9F87-21815A673DC7@1,5x</title>
    <g id="Import-Fichier" stroke="none" stroke-width="1" fill="none" fill-rule="evenodd">
        <g id="04_01_UpDéjeuner-REcap-All" transform="translate(-728.000000, -329.000000)" fill-rule="nonzero">
            <g id="picto-commande-carte-03" transform="translate(728.000000, 329.000000)">
                <path d="M26.7235,60.544 L26.7235,60.544 C26.5665,60.544 26.4305,60.479 26.2765,60.456 C26.4305,60.478 26.5665,60.544 26.7235,60.544" id="Path" fill="#FFFFFF"></path>
                <path d="M53.6316046,9.80563278 C48.6447669,6.006265 42.6715218,4 36.3545286,4 C21.7909034,4 9.77300653,14.9126899 8.21479273,28.8902769 L6.76396561,26.3908672 C6.49937371,25.9446624 5.91483596,25.7922459 5.47200434,26.0484823 C5.02086961,26.3014053 4.86587854,26.8751761 5.12659567,27.321381 L8.1583317,32.534467 C8.31276923,32.7989869 8.58843192,32.9723883 8.89343221,32.9966866 C8.92221626,33 8.95100032,33 8.97701668,33 C9.25544706,33 9.51893188,32.8790608 9.70049285,32.671421 L14.148183,27.4583349 C14.4847351,27.0640401 14.4321488,26.4742545 14.0341539,26.1418098 C13.6317306,25.8115741 13.0405504,25.8601706 12.7012307,26.2555699 L10.0558652,29.3580188 C11.3843601,16.1844841 22.6721383,5.8637887 36.3550821,5.8637887 C42.2519388,5.8637887 47.8255284,7.73641315 52.4774746,11.2800967 C52.8948434,11.5932132 53.4860237,11.5208706 53.8032018,11.1122177 C54.121487,10.7024603 54.0462057,10.1159881 53.6316046,9.80563278" id="Path" fill="#414041"></path>
                <path d="M27.6516607,59.6010545 C33.6690099,61.5386907 40.0118768,61.4620018 45.9980653,59.380367 C59.7950112,54.5897931 67.4789001,40.3521391 64.208142,26.6761348 L66.434461,28.5481165 C66.8339854,28.8846649 67.4393929,28.8366654 67.7715879,28.4477037 C68.1121296,28.0587419 68.0670579,27.4695063 67.6686464,27.134613 L63.022367,23.2234788 C62.7869926,23.0265152 62.469265,22.9542401 62.168787,23.0287221 C62.1404086,23.0386531 62.1136994,23.0414117 62.0869903,23.0502392 C61.8249067,23.1434796 61.615685,23.344857 61.5149693,23.6036131 L59.0727513,29.9748612 C58.8863436,30.4581668 59.1361855,30.993334 59.6258533,31.1781597 C60.1177468,31.354158 60.6630586,31.1174707 60.8494663,30.6336133 L62.3034457,26.8399952 C65.5174469,39.6818008 58.3282337,53.1233246 45.3631666,57.6247979 C39.7765024,59.5657445 33.8570868,59.6380196 28.24427,57.8338993 C27.7440298,57.6733491 27.2081775,57.9376224 27.0473662,58.426997 C26.884329,58.915268 27.1558721,59.4443663 27.6516607,59.6010545" id="Path" fill="#414041"></path>
                <g id="Group" transform="translate(33.000000, 0.000000)">
                    <path d="M27.86,13.9231373 C27.86,21.4178039 21.7225098,27.4943529 14.1520784,27.4943529 C6.58219608,27.4943529 0.443058824,21.4183529 0.443058824,13.9231373 C0.443058824,6.42792157 6.58219608,0.351372549 14.1520784,0.351372549 C21.7225098,0.351372549 27.86,6.42847059 27.86,13.9231373" id="Path" fill="#FF7E0A"></path>
                    <path d="M16.9894118,21.0598431 C14.3283137,21.0598431 11.9247059,19.7839216 10.5620392,17.6916078 L12.0070588,17.6916078 C12.6362353,17.6916078 13.1473725,17.2084706 13.1473725,16.6100392 C13.1473725,16.014902 12.6362353,15.5279216 12.0070588,15.5279216 L9.63968627,15.5279216 C9.51780392,15.0233725 9.464,14.5742745 9.464,14.1356078 C9.464,13.8841569 9.49090196,13.637098 9.52878431,13.3894902 L12.0070588,13.3894902 C12.6362353,13.3894902 13.1473725,12.907451 13.1473725,12.3101176 C13.1473725,11.7138824 12.6362353,11.227451 12.0070588,11.227451 L10.1898039,11.227451 C11.4201569,8.80682353 14.0768627,7.21466667 16.9894118,7.21466667 C17.6180392,7.21466667 18.1291765,6.72988235 18.1291765,6.13529412 C18.1291765,5.53686275 17.6174902,5.04988235 16.9894118,5.04988235 C12.7795294,5.04988235 9.09835294,7.52431373 7.74392157,11.226902 L4.63317647,11.226902 C4.00454902,11.226902 3.49231373,11.7133333 3.49231373,12.3095686 C3.49231373,12.906902 4.00509804,13.3889412 4.63317647,13.3889412 L7.24101961,13.3889412 C7.20698039,13.6294118 7.17843137,13.8808627 7.17843137,14.1350588 C7.17843137,14.6028235 7.21905882,15.065098 7.29482353,15.5273725 L4.63317647,15.5273725 C4.00454902,15.5273725 3.49231373,16.0143529 3.49231373,16.6094902 C3.49231373,17.2079216 4.00509804,17.6910588 4.63317647,17.6910588 L7.98219608,17.6910588 C9.53482353,21.056 13.0392157,23.2196863 16.9894118,23.2196863 C17.6180392,23.2196863 18.1291765,22.7332549 18.1291765,22.1392157 C18.1291765,21.5418824 17.6180392,21.0598431 16.9894118,21.0598431" id="Path" fill="#FFFFFF"></path>
                </g>
                <g id="Group" transform="translate(0.000000, 32.000000)" fill="#FF7E0A">
                    <path d="M16.7429872,11.7283279 C16.7518077,11.7712459 16.7611795,11.8102623 16.7810256,11.8531803 L17.5208462,11.0923607 C17.4105897,11.0210164 17.2920641,11.0176721 17.1652692,11.0472131 C16.8714359,11.1252459 16.6961282,11.428459 16.7429872,11.7283279 Z" id="Path"></path>
                    <path d="M12.0879615,12.3821311 C11.7742821,12.4640656 11.61,12.7856721 11.6888333,13.0978033 C11.7638077,13.4099344 12.0548846,13.6195082 12.3652564,13.545377 C12.6794872,13.4651148 12.8404615,13.1384918 12.767141,12.8252459 C12.6910641,12.5103279 12.3961282,12.3029836 12.0879615,12.3821311 Z" id="Path"></path>
                    <path d="M22.8578077,10.1743607 C22.8671795,10.2183934 22.8765513,10.2596393 22.8975,10.3003279 L23.6389744,9.53727869 C23.5287179,9.47262295 23.4068846,9.46481967 23.2822949,9.49770492 C22.9840513,9.57183607 22.8142564,9.87393443 22.8578077,10.1743607 Z" id="Path"></path>
                    <path d="M37.8014103,1.79642623 C37.5797949,0.870065574 36.6668718,0.307672131 35.7660769,0.536754098 L1.59541026,9.22570492 C0.695717949,9.45311475 0.147192308,10.3889508 0.370461538,11.3141967 L5.42461538,32.2353443 C5.64623077,33.1594754 6.55860256,33.7246557 7.45719231,33.4955738 L41.6300641,24.806623 C42.5303077,24.577541 43.0782821,23.6428197 42.8544615,22.7175738 L37.8014103,1.79642623 Z M14.0714744,10.5689836 L14.6370897,10.4262951 L14.2219744,11.1140984 L13.8548205,11.2094098 L14.0714744,10.5689836 Z M6.11151282,17.6995082 L4.66660256,11.7077049 L10.4942051,10.2217377 L11.0576154,12.5582623 C10.9898077,12.7789836 10.9809872,13.0192131 11.0416282,13.264459 C11.097859,13.506918 11.2185897,13.7159344 11.3779103,13.8753443 L11.9407692,16.2174426 L6.11151282,17.6995082 Z M12.9893077,13.8324262 L12.9286667,13.5777049 C12.7825769,13.8307541 12.6695641,13.9249508 12.4143205,13.9912787 C11.8817821,14.1261639 11.3762564,13.7399016 11.2489103,13.2103934 C11.1204615,12.6780984 11.3922436,12.0956393 11.9225769,11.9618689 C12.1072564,11.9139344 12.3167436,11.9183934 12.5218205,12.0242951 L12.3277692,11.2099672 L12.7787179,11.029377 L13.419859,13.6741311 L12.9893077,13.8324262 Z M13.4523846,12.6491148 C13.3151154,12.0727869 13.6910897,11.5103934 14.2451282,11.3710492 C14.6288205,11.2718361 15.0224359,11.424 15.2705128,11.7350164 L14.1911026,12.8715082 C14.2489872,12.9422951 14.3757821,13.0320328 14.5990513,12.9735082 C14.8410641,12.9121967 14.9915641,12.7739672 15.1558462,12.593377 L15.4535385,12.9551148 C15.2627949,13.1747213 15.0058974,13.3352459 14.7352179,13.4038033 C14.1850385,13.5437049 13.5946154,13.2248852 13.4523846,12.6491148 Z M15.8008462,13.8547213 C15.741859,13.8653115 15.6845256,13.8781311 15.6354615,13.8909508 L15.390141,13.502459 C15.4270769,13.502459 15.4656667,13.5007869 15.5257564,13.4796066 C15.7308333,13.4322295 15.8758205,13.2822951 15.8184872,13.0509836 L15.3620256,11.1486557 L15.8124231,10.9875738 L16.3074744,13.0214426 C16.4050513,13.4260984 16.2132051,13.7482623 15.8008462,13.8547213 Z M15.5555256,10.8944918 L15.161359,10.6576066 L15.4022692,10.2568525 L15.7920256,10.4931803 L15.5555256,10.8944918 Z M17.4524872,12.2455738 C17.6928462,12.1870492 17.8477564,12.0488197 18.0070769,11.8648852 L18.3069744,12.2282951 C18.1162308,12.448459 17.8609872,12.6089836 17.5858974,12.677541 C17.0362692,12.8185574 16.4463974,12.5025246 16.3085769,11.9239672 C16.168,11.3476393 16.5434231,10.7835738 17.0941538,10.646459 C17.4800513,10.5478033 17.8775256,10.6988525 18.1239487,11.0109836 L17.0445385,12.1508197 C17.1029744,12.2182623 17.2297692,12.3040984 17.4524872,12.2455738 Z M19.9189231,12.0555082 L19.8566282,11.8052459 L19.8522179,11.8080328 C19.7447179,12.0660984 19.6074487,12.1653115 19.3477949,12.2327541 C18.9624487,12.3291803 18.6460128,12.1435738 18.5451282,11.7316721 L18.228141,10.4196066 L18.6790897,10.2390164 L18.9789872,11.4880984 C19.0275,11.6920984 19.1598077,11.8381311 19.3715,11.7851803 C19.6614744,11.7077049 19.7447179,11.4479672 19.6846282,11.2055082 L19.4233205,10.1169508 L19.8753718,9.93803279 L20.3472692,11.9105902 L19.9189231,12.0555082 Z M21.9333077,11.5438361 L21.6345128,10.3220656 C21.5854487,10.1197377 21.4553462,9.97481967 21.2469615,10.0288852 C20.9553333,10.1074754 20.8737436,10.37 20.9310769,10.608 L21.1940385,11.6965574 L20.7353718,11.8470492 L20.2640256,9.90180328 L20.6962308,9.7457377 L20.7552179,10.0077049 L20.7662436,10.0082623 C20.8704359,9.75131148 21.0121154,9.65098361 21.2750769,9.5807541 C21.6565641,9.48711475 21.9718974,9.67383607 22.0700256,10.0779344 L22.3875641,11.3961311 L21.9333077,11.5438361 Z M23.5711667,10.6960656 C23.8098718,10.6347541 23.9636795,10.492623 24.1285128,10.3159344 L24.4217949,10.6732131 C24.2327051,10.8911475 23.9785641,11.0555738 23.7007179,11.1263607 C23.151641,11.2640328 22.5612179,10.9457705 22.4189872,10.37 C22.2855769,9.792 22.6604487,9.2284918 23.2078718,9.09137705 C23.5937692,8.99495082 23.9895897,9.14488525 24.2415256,9.45422951 L23.1604615,10.5929508 C23.2183462,10.6642951 23.3473462,10.7506885 23.5711667,10.6960656 Z M25.4085897,9.07186885 C25.051359,9.16272131 24.9444103,9.41855738 25.0293077,9.74740984 L25.2470641,10.667082 L24.7861923,10.8153443 L24.3192564,8.87455738 L24.7442949,8.71347541 L24.8297436,9.06072131 L24.8374615,9.0584918 C24.9311795,8.7184918 25.1252308,8.60757377 25.4427692,8.52285246 L25.4085897,9.07186885 Z" id="Shape"></path>
                    <path d="M14.3134872,11.7751475 C14.0196538,11.8492787 13.846,12.1519344 13.8912051,12.4540328 C13.8983718,12.4969508 13.9071923,12.5359672 13.9275897,12.5777705 L14.666859,11.8147213 C14.5599103,11.7489508 14.4386282,11.7444918 14.3134872,11.7751475 Z" id="Path"></path>
                    <path d="M7.31110256,12.486918 L7.70196154,14.1005246 C7.77803846,14.4132131 7.76921795,14.6690492 7.43017949,14.751541 C7.052,14.849082 6.9445,14.5809836 6.88992308,14.356918 L6.46157692,12.5816721 L6.00676923,12.8152131 L6.42519231,14.5486557 C6.58451282,15.2097049 7.09279487,15.3457049 7.52279487,15.2342295 C8.08841026,15.0932131 8.34365385,14.6317049 8.22898718,14.1674098 L7.76976923,12.2505902 L7.31110256,12.486918 Z" id="Path"></path>
                    <path d="M9.16230769,12.6630492 C8.96660256,12.7143279 8.80232051,12.8185574 8.67773077,12.9679344 L8.60937179,12.6831148 L8.17110256,12.9177705 L8.81114103,15.5636393 L9.25161538,15.3390164 L9.08512821,14.6573443 C9.26208974,14.726459 9.45724359,14.7454098 9.65625641,14.6935738 C10.1739103,14.5642623 10.4897949,13.999082 10.3536282,13.438918 C10.2218718,12.8781967 9.68437179,12.532623 9.16230769,12.6630492 Z M9.51953846,14.2716393 C9.2080641,14.3452131 8.91147436,14.1373115 8.83980769,13.8218361 C8.76317949,13.5108197 8.92525641,13.1841967 9.23838462,13.1083934 C9.54710256,13.0270164 9.84038462,13.2388197 9.91480769,13.5487213 C9.99253846,13.8636393 9.82825641,14.1891475 9.51953846,14.2716393 Z" id="Shape"></path>
                    <path d="M13.8912051,12.4545902 C13.846,12.1524918 14.0191026,11.8498361 14.3134872,11.7757049 C14.4391795,11.7444918 14.5599103,11.7495082 14.6674103,11.8152787 L13.928141,12.5783279 C13.9077436,12.5365246 13.8983718,12.4975082 13.8912051,12.4545902 Z" id="Path"></path>
                </g>
            </g>
        </g>
    </g>
</svg>