<?xml version="1.0" encoding="UTF-8"?>
<svg width="115px" height="115px" viewBox="0 0 115 115" version="1.1" xmlns="http://www.w3.org/2000/svg" xmlns:xlink="http://www.w3.org/1999/xlink">
    <!-- Generator: sketchtool 60 (101010) - https://sketch.com -->
    <title>AF46262C-426A-4B53-B6EE-7CB528ABA95F@1,5x</title>
    <desc>Created with sketchtool.</desc>
    <defs>
        <polygon id="path-cn-1" points="0 0.238502811 114.851105 0.238502811 114.851105 114 0 114"></polygon>
        <polygon id="path-cn-3" points="0 0.238502811 114.851105 0.238502811 114.851105 114 0 114"></polygon>
        <polygon id="path-cn-5" points="0 114.762 114.851711 114.762 114.851711 1 0 1"></polygon>
    </defs>
    <g id="Asset-Artboard-Page" stroke="none" stroke-width="1" fill="none" fill-rule="evenodd">
        <g id="illustration/Carte/Ajouter/supplémentaire">
            <g id="Group-18">
                <path d="M79.1771974,20.4433 C79.0642149,20.4433 78.9492149,20.4153 78.8443026,20.3553 C74.3764518,17.8123 69.5383816,16.0843 64.4662763,15.2193 C64.1021096,15.1573 63.8579868,14.8153 63.9205307,14.4543 C63.9820658,14.0923 64.3280746,13.8483 64.6922412,13.9133 C69.9196974,14.8043 74.9050482,16.5853 79.5111009,19.2063 C79.8308816,19.3883 79.9408377,19.7933 79.7572412,20.1103 C79.6341711,20.3243 79.4082061,20.4433 79.1771974,20.4433 M34.4986886,20.5743 C34.2686886,20.5743 34.0447412,20.4573 33.9206623,20.2453 C33.7350482,19.9293 33.8429868,19.5233 34.1617588,19.3393 C38.7506623,16.6913 43.7249167,14.8813 48.9463202,13.9603 C49.3094781,13.8953 49.6564956,14.1363 49.721057,14.4963 C49.7856184,14.8563 49.5445219,15.2003 49.1803553,15.2643 C44.1143026,16.1583 39.2873289,17.9153 34.8346096,20.4853 C34.7286886,20.5463 34.6126798,20.5743 34.4986886,20.5743 M98.9087763,43.5803 C98.6374167,43.5803 98.3811886,43.4143 98.2813202,43.1463 C96.5068904,38.3693 93.9173728,33.9673 90.5843904,30.0613 C90.3463202,29.7823 90.3806184,29.3643 90.6630746,29.1283 C90.9465395,28.8913 91.3671974,28.9263 91.6052675,29.2063 C95.0391272,33.2293 97.7073289,37.7663 99.5362325,42.6883 C99.6633377,43.0313 99.4857939,43.4123 99.1397851,43.5393 C99.0631184,43.5673 98.985443,43.5803 98.9087763,43.5803 M14.9022851,43.8293 C14.8266272,43.8293 14.7499605,43.8163 14.6753114,43.7893 C14.3282939,43.6653 14.1487325,43.2853 14.2738202,42.9413 C16.0744781,38.0043 18.7174605,33.4513 22.1281184,29.4083 C22.3641711,29.1273 22.7868465,29.0903 23.0693026,29.3243 C23.3527675,29.5593 23.3900921,29.9773 23.1530307,30.2573 C19.84325,34.1823 17.2789518,38.6013 15.53075,43.3913 C15.4328991,43.6613 15.1756623,43.8293 14.9022851,43.8293 M98.9693026,74.0513 C98.8936447,74.0513 98.8159693,74.0383 98.7413202,74.0113 C98.3943026,73.8863 98.21575,73.5063 98.3418465,73.1623 C100.094083,68.3863 100.98382,63.3643 100.98382,58.2353 L100.982811,58.0553 C100.982811,57.6893 101.282417,57.3923 101.651627,57.3923 C102.020838,57.3923 102.319434,57.6893 102.319434,58.0553 L102.320443,58.2303 C102.320443,63.5193 101.404478,68.6933 99.5977675,73.6153 C99.4989079,73.8843 99.2426798,74.0513 98.9693026,74.0513 M14.9628114,74.1313 C14.690443,74.1313 14.4342149,73.9643 14.3353553,73.6953 C12.5195658,68.7793 11.5935132,63.6083 11.5834229,58.3263 C11.5824167,57.9603 11.8810132,57.6633 12.2502237,57.6623 L12.2512325,57.6623 C12.6194342,57.6623 12.9190395,57.9583 12.9200482,58.3233 C12.930136,63.4503 13.8289518,68.4693 15.5902675,73.2403 C15.7173728,73.5843 15.5398289,73.9643 15.1928114,74.0903 C15.1171535,74.1183 15.0394781,74.1313 14.9628114,74.1313 M79.3275044,97.2663 C79.0964956,97.2663 78.8725482,97.1483 78.7484693,96.9353 C78.563864,96.6193 78.6728114,96.2143 78.9915833,96.0303 C83.4422851,93.4743 87.3795219,90.1933 90.6933377,86.2803 C90.9303991,86.0013 91.3520658,85.9643 91.6345219,86.1993 C91.9169781,86.4343 91.9543026,86.8523 91.7162325,87.1323 C88.3025482,91.1643 84.2472851,94.5433 79.6614079,97.1763 C79.5564956,97.2373 79.4414956,97.2663 79.3275044,97.2663 M34.6459693,97.3063 C34.5329868,97.3063 34.4179868,97.2783 34.3130746,97.2173 C29.7231623,94.5933 25.6608377,91.2213 22.2380746,87.1933 C22.0000044,86.9143 22.0363202,86.4963 22.3187763,86.2603 C22.6022412,86.0243 23.0228991,86.0603 23.2609693,86.3403 C26.5828553,90.2493 30.5261447,93.5233 34.9808816,96.0703 C35.3006623,96.2533 35.4106184,96.6583 35.2260132,96.9753 C35.1019342,97.1883 34.8769781,97.3063 34.6459693,97.3063 M56.9519342,103.2093 C54.3250921,103.2093 51.6901798,102.9843 49.1208377,102.5413 C48.7566711,102.4793 48.513557,102.1353 48.5771096,101.7753 C48.6406623,101.4143 48.9917149,101.1713 49.3498289,101.2353 C54.3674605,102.1003 59.6261886,102.0943 64.63575,101.2213 C64.9968904,101.1553 65.3459254,101.3983 65.4094781,101.7593 C65.4740395,102.1193 65.2309254,102.4633 64.8667588,102.5263 C62.2721974,102.9793 59.6090395,103.2093 56.9519342,103.2093" id="Fill-1" fill="#76B0BD"></path>
                <g id="Group-5" transform="translate(0.000000, 0.762000)">
                    <mask id="mask-cn-2" fill="white">
                        <use xlink:href="#path-cn-1"></use>
                    </mask>
                    <g id="Clip-4"></g>
                    <path d="M53.9676842,2.0534 C53.5147456,2.0534 53.1344386,1.7024 53.106193,1.2484 C53.0779474,0.7764 53.4411053,0.3704 53.9162368,0.3424 C56.1224211,0.2114 58.3750088,0.2034 60.5892632,0.3234 C61.0664123,0.3484 61.4315877,0.7524 61.4053596,1.2244 C61.3791316,1.6974 60.9554474,2.0614 60.4964561,2.0324 C58.3457544,1.9164 56.1597456,1.9234 54.0211491,2.0514 C54.0029912,2.0534 53.9858421,2.0534 53.9676842,2.0534 M73.4783421,4.2404 C73.3976404,4.2404 73.3149211,4.2284 73.2332105,4.2044 C71.1702719,3.6004 69.0488246,3.1114 66.9293947,2.7504 C66.459307,2.6704 66.1435614,2.2274 66.2242632,1.7614 C66.3039561,1.2954 66.7488246,0.9844 67.2219386,1.0624 C69.4079474,1.4344 71.5949649,1.9394 73.7224649,2.5624 C74.1804474,2.6964 74.4417193,3.1724 74.3065439,3.6264 C74.1955789,3.9984 73.8515877,4.2404 73.4783421,4.2404 M41.0463246,4.3374 C40.6761053,4.3374 40.3331228,4.0984 40.2201404,3.7284 C40.0819386,3.2754 40.341193,2.7974 40.7971579,2.6604 C42.919614,2.0264 45.1036053,1.5084 47.289614,1.1214 C47.7576842,1.0364 48.2075965,1.3484 48.2913246,1.8144 C48.3750526,2.2804 48.0623333,2.7244 47.5932544,2.8074 C45.4728158,3.1824 43.3543947,3.6844 41.2965,4.3004 C41.2137807,4.3254 41.1290439,4.3374 41.0463246,4.3374 M85.549307,9.3614 C85.4040439,9.3614 85.2557544,9.3244 85.1205789,9.2474 C83.2513246,8.1844 81.3013684,7.2204 79.326193,6.3814 C78.8873772,6.1954 78.6836053,5.6924 78.8712368,5.2574 C79.0598772,4.8234 79.5662807,4.6214 80.0061053,4.8074 C82.0428158,5.6714 84.0522895,6.6664 85.9800526,7.7624 C86.3946579,7.9974 86.5368947,8.5214 86.2998333,8.9314 C86.1404474,9.2074 85.8489123,9.3614 85.549307,9.3614 M29.0157105,9.5264 C28.7181228,9.5264 28.4286053,9.3744 28.2672018,9.1004 C28.0281228,8.6924 28.1673333,8.1684 28.5799211,7.9294 C30.499614,6.8224 32.5020263,5.8174 34.5306667,4.9424 C34.9694825,4.7534 35.4779035,4.9524 35.6675526,5.3854 C35.8582105,5.8194 35.6584737,6.3244 35.2206667,6.5124 C33.2525526,7.3614 31.3106667,8.3364 29.4484737,9.4104 C29.3122895,9.4894 29.1629912,9.5264 29.0157105,9.5264 M96.1010614,17.1064 C95.8892193,17.1064 95.6773772,17.0294 95.5109298,16.8744 C93.9392632,15.4144 92.2657105,14.0314 90.5376842,12.7624 C90.1553596,12.4814 90.0736491,11.9454 90.3581228,11.5644 C90.6425965,11.1844 91.1832982,11.1034 91.5666316,11.3864 C93.3481228,12.6944 95.072114,14.1204 96.6922018,15.6254 C97.0402281,15.9484 97.0573772,16.4904 96.7315439,16.8354 C96.5610614,17.0144 96.3310614,17.1064 96.1010614,17.1064 M18.5123772,17.3284 C18.283386,17.3284 18.0554035,17.2384 17.8849211,17.0614 C17.5570702,16.7184 17.571193,16.1764 17.9172018,15.8504 C19.526193,14.3384 21.242114,12.9024 23.0165439,11.5834 C23.3988684,11.3004 23.9405789,11.3764 24.2260614,11.7544 C24.5125526,12.1334 24.4348772,12.6694 24.0535614,12.9534 C22.3315877,14.2324 20.667114,15.6254 19.1065439,17.0934 C18.9390877,17.2504 18.7252281,17.3284 18.5123772,17.3284 M104.577772,27.0394 C104.298342,27.0394 104.023956,26.9054 103.857509,26.6574 C102.668167,24.8824 101.359789,23.1564 99.9707105,21.5264 C99.6620263,21.1654 99.7074211,20.6254 100.072596,20.3204 C100.436763,20.0154 100.9815,20.0594 101.289175,20.4214 C102.72264,22.1004 104.07036,23.8794 105.297026,25.7094 C105.560316,26.1034 105.452377,26.6354 105.054921,26.8964 C104.908649,26.9934 104.742202,27.0394 104.577772,27.0394 M10.0911491,27.3134 C9.92873684,27.3134 9.76531579,27.2674 9.61904386,27.1724 C9.22057895,26.9134 9.10860526,26.3824 9.37088596,25.9874 C10.5864561,24.1484 11.9250965,22.3604 13.3484737,20.6734 C13.6541316,20.3104 14.1998772,20.2614 14.5650526,20.5654 C14.9312368,20.8684 14.9796579,21.4084 14.6729912,21.7714 C13.2929912,23.4084 11.9947018,25.1424 10.8144386,26.9264 C10.649,27.1774 10.3736053,27.3134 10.0911491,27.3134 M110.51843,38.6404 C110.166368,38.6404 109.835491,38.4264 109.707377,38.0804 C108.964921,36.0814 108.094351,34.1024 107.118868,32.1984 C106.902991,31.7774 107.072465,31.2614 107.497158,31.0474 C107.92286,30.8314 108.442377,31.0024 108.658254,31.4234 C109.665009,33.3864 110.562816,35.4274 111.328474,37.4884 C111.492904,37.9324 111.263912,38.4244 110.816018,38.5884 C110.718167,38.6234 110.617289,38.6404 110.51843,38.6404 M4.21807895,38.9544 C4.12022807,38.9544 4.02136842,38.9374 3.92452632,38.9034 C3.47562281,38.7424 3.24360526,38.2514 3.40601754,37.8064 C4.15957018,35.7394 5.0462807,33.6924 6.03992105,31.7234 C6.25277193,31.2994 6.7712807,31.1284 7.199,31.3414 C7.62571053,31.5524 7.79821053,32.0674 7.58535965,32.4904 C6.62097368,34.3994 5.7615,36.3844 5.03014035,38.3884 C4.90303509,38.7374 4.57215789,38.9544 4.21807895,38.9544 M113.584088,51.2914 C113.152333,51.2914 112.779088,50.9714 112.72764,50.5364 C112.471412,48.4174 112.08707,46.2924 111.585711,44.2204 C111.473737,43.7614 111.760228,43.2984 112.224263,43.1884 C112.686281,43.0754 113.153342,43.3614 113.265316,43.8214 C113.781807,45.9564 114.179263,48.1484 114.442553,50.3334 C114.499044,50.8024 114.161105,51.2284 113.686982,51.2844 C113.652684,51.2894 113.617377,51.2914 113.584088,51.2914 M1.22908772,51.6264 C1.19579825,51.6264 1.16351754,51.6244 1.13022807,51.6204 C0.656105263,51.5674 0.315140351,51.1434 0.369614035,50.6734 C0.620798246,48.4844 1.00312281,46.2904 1.50750877,44.1544 C1.61645614,43.6934 2.08452632,43.4074 2.54452632,43.5154 C3.00957018,43.6224 3.29807895,44.0834 3.18913158,44.5434 C2.70088596,46.6164 2.32965789,48.7424 2.08553509,50.8664 C2.03610526,51.3034 1.66185088,51.6264 1.22908772,51.6264 M113.611325,64.5254 C113.579044,64.5254 113.545754,64.5234 113.511456,64.5194 C113.038342,64.4654 112.698386,64.0404 112.75286,63.5714 C112.999,61.4584 113.124088,59.3024 113.124088,57.1634 L113.124088,56.9444 C113.121061,56.4714 113.505404,56.0854 113.982553,56.0824 C113.983561,56.0824 113.985579,56.0824 113.987596,56.0824 C114.461719,56.0824 114.848079,56.4624 114.851105,56.9334 L114.851105,57.1694 C114.851105,59.3674 114.722991,61.5894 114.468781,63.7674 C114.418342,64.2034 114.045096,64.5254 113.611325,64.5254 M1.25228947,64.6374 C0.820535088,64.6374 0.447289474,64.3164 0.395842105,63.8814 C0.137596491,61.7064 0.00443859649,59.4854 -0.000605263158,57.2784 C-0.000605263158,56.8044 0.384745614,56.4204 0.861894737,56.4194 L0.863912281,56.4194 C1.34005263,56.4194 1.72641228,56.8024 1.72742105,57.2744 C1.73145614,59.4164 1.86057895,61.5714 2.11176316,63.6804 C2.16724561,64.1504 1.82829825,64.5754 1.35417544,64.6314 C1.31987719,64.6354 1.28557895,64.6374 1.25228947,64.6374 M110.595096,77.1924 C110.497246,77.1924 110.396368,77.1754 110.299526,77.1404 C109.850623,76.9784 109.619614,76.4874 109.783035,76.0424 C110.519439,74.0404 111.14286,71.9704 111.637158,69.8914 C111.747114,69.4314 112.207114,69.1434 112.676193,69.2544 C113.140228,69.3634 113.427728,69.8244 113.318781,70.2844 C112.808342,72.4284 112.164746,74.5634 111.406149,76.6284 C111.279044,76.9764 110.947158,77.1924 110.595096,77.1924 M4.29474561,77.2944 C3.94268421,77.2944 3.61180702,77.0794 3.48369298,76.7324 C2.7210614,74.6684 2.0744386,72.5364 1.55996491,70.3964 C1.449,69.9364 1.7365,69.4744 2.20053509,69.3654 C2.66457018,69.2574 3.12961404,69.5394 3.24057895,69.9994 C3.73891228,72.0744 4.36636842,74.1424 5.10579825,76.1434 C5.27022807,76.5884 5.0392193,77.0794 4.59132456,77.2424 C4.49347368,77.2774 4.39259649,77.2944 4.29474561,77.2944 M104.695798,88.8214 C104.532377,88.8214 104.366939,88.7754 104.220667,88.6794 C103.823211,88.4194 103.713254,87.8884 103.975535,87.4934 C105.159833,85.7114 106.250316,83.8424 107.216719,81.9374 C107.430579,81.5144 107.950096,81.3444 108.376807,81.5564 C108.802509,81.7694 108.974,82.2844 108.76014,82.7064 C107.763474,84.6714 106.638693,86.5984 105.41707,88.4364 C105.251632,88.6854 104.976237,88.8214 104.695798,88.8214 M10.2122018,88.9064 C9.93176316,88.9064 9.65737719,88.7714 9.49092982,88.5224 C8.26527193,86.6854 7.13847368,84.7614 6.14079825,82.8034 C5.92492105,82.3804 6.09641228,81.8654 6.52211404,81.6524 C6.94781579,81.4394 7.46733333,81.6084 7.68220175,82.0304 C8.65062281,83.9294 9.74413158,85.7964 10.9314561,87.5774 C11.1947456,87.9724 11.0857982,88.5034 10.6873333,88.7644 C10.5410614,88.8604 10.3756228,88.9064 10.2122018,88.9064 M96.2564123,98.7894 C96.0274211,98.7894 95.7984298,98.6994 95.6289561,98.5204 C95.3011053,98.1774 95.3172456,97.6354 95.6632544,97.3104 C97.2278596,95.8454 98.7228596,94.2744 100.105886,92.6404 C100.413561,92.2794 100.958298,92.2324 101.323474,92.5354 C101.688649,92.8404 101.736061,93.3804 101.429395,93.7424 C100.002991,95.4264 98.4625965,97.0454 96.8495702,98.5554 C96.6831228,98.7114 96.4692632,98.7894 96.2564123,98.7894 M18.6677281,98.8574 C18.4548772,98.8574 18.2420263,98.7804 18.0755789,98.6244 C16.4605351,97.1174 14.917114,95.5004 13.4876842,93.8194 C13.1800088,93.4574 13.2264123,92.9174 13.5915877,92.6134 C13.9567632,92.3084 14.5015,92.3544 14.8091754,92.7164 C16.1952281,94.3464 17.6932544,95.9154 19.2598772,97.3774 C19.6068947,97.7014 19.6240439,98.2434 19.296193,98.5884 C19.1267193,98.7664 18.8967193,98.8574 18.6677281,98.8574 M85.7399649,106.5704 C85.4423772,106.5704 85.1518509,106.4174 84.9914561,106.1434 C84.7523772,105.7344 84.8936053,105.2104 85.306193,104.9734 C87.1653596,103.9054 88.9831667,102.7164 90.7081667,101.4404 C91.0915,101.1584 91.6322018,101.2364 91.9176842,101.6144 C92.2031667,101.9924 92.1244825,102.5294 91.7421579,102.8124 C89.9626842,104.1284 88.088386,105.3544 86.1717193,106.4544 C86.0355351,106.5334 85.8872456,106.5704 85.7399649,106.5704 M29.2033421,106.6224 C29.0570702,106.6224 28.9087807,106.5854 28.7725965,106.5074 C26.8488684,105.4074 24.9715439,104.1844 23.1930789,102.8724 C22.8097456,102.5904 22.7310614,102.0534 23.0155351,101.6744 C23.299,101.2954 23.8397018,101.2164 24.2240439,101.4984 C25.9500526,102.7714 27.7698772,103.9574 29.6350965,105.0244 C30.048693,105.2604 30.1909298,105.7834 29.9518509,106.1934 C29.7924649,106.4684 29.5019386,106.6224 29.2033421,106.6224 M73.6952281,111.7354 C73.324,111.7354 72.9810175,111.4954 72.8680351,111.1254 C72.7318509,110.6724 72.9911053,110.1954 73.4480789,110.0584 C75.509,109.4464 77.5547895,108.7054 79.5289561,107.8594 C79.9657544,107.6714 80.4741754,107.8714 80.6638246,108.3054 C80.8534737,108.7394 80.6527281,109.2434 80.2149211,109.4304 C78.1792193,110.3034 76.0698772,111.0674 73.9443947,111.6994 C73.8616754,111.7234 73.7779474,111.7354 73.6952281,111.7354 M41.2652281,111.7684 C41.1835175,111.7684 41.1007982,111.7564 41.0190877,111.7324 C38.8915877,111.1054 36.7782105,110.3454 34.7394825,109.4754 C34.3016754,109.2874 34.0999211,108.7844 34.2885614,108.3494 C34.476193,107.9154 34.9836053,107.7154 35.4234298,107.9024 C37.4006228,108.7464 39.4484298,109.4824 41.5113684,110.0914 C41.9683421,110.2254 42.2286053,110.7024 42.0934298,111.1564 C41.9814561,111.5274 41.6374649,111.7684 41.2652281,111.7684 M60.7688246,113.9934 C60.3148772,113.9934 59.9345702,113.6424 59.9073333,113.1874 C59.8800965,112.7154 60.2432544,112.3104 60.7193947,112.2824 C62.8731228,112.1584 65.0369386,111.9074 67.149307,111.5394 C67.6204035,111.4594 68.0672895,111.7684 68.1500088,112.2344 C68.2327281,112.6994 67.919,113.1434 67.4489123,113.2254 C65.2709737,113.6064 63.0405789,113.8644 60.8202719,113.9924 C60.8031228,113.9934 60.7859737,113.9934 60.7688246,113.9934 M54.1966754,114.0004 C54.1795263,114.0004 54.163386,113.9994 54.1462368,113.9984 C51.9269386,113.8744 49.6965439,113.6214 47.5165877,113.2454 C47.0465,113.1644 46.7317632,112.7214 46.8134737,112.2554 C46.896193,111.7894 47.3481228,111.4814 47.8121579,111.5584 C49.9265439,111.9234 52.0903596,112.1684 54.2440877,112.2884 C54.7202281,112.3154 55.0843947,112.7204 55.0581667,113.1924 C55.0319386,113.6474 54.6506228,114.0004 54.1966754,114.0004" id="Fill-3" fill="#76B0BD" mask="url(#mask-cn-2)"></path>
                </g>
                <path d="M79.1771974,20.4433 C79.0642149,20.4433 78.9492149,20.4153 78.8443026,20.3553 C74.3764518,17.8123 69.5383816,16.0843 64.4662763,15.2193 C64.1021096,15.1573 63.8579868,14.8153 63.9205307,14.4543 C63.9820658,14.0923 64.3280746,13.8483 64.6922412,13.9133 C69.9196974,14.8043 74.9050482,16.5853 79.5111009,19.2063 C79.8308816,19.3883 79.9408377,19.7933 79.7572412,20.1103 C79.6341711,20.3243 79.4082061,20.4433 79.1771974,20.4433 M34.4986886,20.5743 C34.2686886,20.5743 34.0447412,20.4573 33.9206623,20.2453 C33.7350482,19.9293 33.8429868,19.5233 34.1617588,19.3393 C38.7506623,16.6913 43.7249167,14.8813 48.9463202,13.9603 C49.3094781,13.8953 49.6564956,14.1363 49.721057,14.4963 C49.7856184,14.8563 49.5445219,15.2003 49.1803553,15.2643 C44.1143026,16.1583 39.2873289,17.9153 34.8346096,20.4853 C34.7286886,20.5463 34.6126798,20.5743 34.4986886,20.5743 M98.9087763,43.5803 C98.6374167,43.5803 98.3811886,43.4143 98.2813202,43.1463 C96.5068904,38.3693 93.9173728,33.9673 90.5843904,30.0613 C90.3463202,29.7823 90.3806184,29.3643 90.6630746,29.1283 C90.9465395,28.8913 91.3671974,28.9263 91.6052675,29.2063 C95.0391272,33.2293 97.7073289,37.7663 99.5362325,42.6883 C99.6633377,43.0313 99.4857939,43.4123 99.1397851,43.5393 C99.0631184,43.5673 98.985443,43.5803 98.9087763,43.5803 M14.9022851,43.8293 C14.8266272,43.8293 14.7499605,43.8163 14.6753114,43.7893 C14.3282939,43.6653 14.1487325,43.2853 14.2738202,42.9413 C16.0744781,38.0043 18.7174605,33.4513 22.1281184,29.4083 C22.3641711,29.1273 22.7868465,29.0903 23.0693026,29.3243 C23.3527675,29.5593 23.3900921,29.9773 23.1530307,30.2573 C19.84325,34.1823 17.2789518,38.6013 15.53075,43.3913 C15.4328991,43.6613 15.1756623,43.8293 14.9022851,43.8293 M98.9693026,74.0513 C98.8936447,74.0513 98.8159693,74.0383 98.7413202,74.0113 C98.3943026,73.8863 98.21575,73.5063 98.3418465,73.1623 C100.094083,68.3863 100.98382,63.3643 100.98382,58.2353 L100.982811,58.0553 C100.982811,57.6893 101.282417,57.3923 101.651627,57.3923 C102.020838,57.3923 102.319434,57.6893 102.319434,58.0553 L102.320443,58.2303 C102.320443,63.5193 101.404478,68.6933 99.5977675,73.6153 C99.4989079,73.8843 99.2426798,74.0513 98.9693026,74.0513 M14.9628114,74.1313 C14.690443,74.1313 14.4342149,73.9643 14.3353553,73.6953 C12.5195658,68.7793 11.5935132,63.6083 11.5834229,58.3263 C11.5824167,57.9603 11.8810132,57.6633 12.2502237,57.6623 L12.2512325,57.6623 C12.6194342,57.6623 12.9190395,57.9583 12.9200482,58.3233 C12.930136,63.4503 13.8289518,68.4693 15.5902675,73.2403 C15.7173728,73.5843 15.5398289,73.9643 15.1928114,74.0903 C15.1171535,74.1183 15.0394781,74.1313 14.9628114,74.1313 M79.3275044,97.2663 C79.0964956,97.2663 78.8725482,97.1483 78.7484693,96.9353 C78.563864,96.6193 78.6728114,96.2143 78.9915833,96.0303 C83.4422851,93.4743 87.3795219,90.1933 90.6933377,86.2803 C90.9303991,86.0013 91.3520658,85.9643 91.6345219,86.1993 C91.9169781,86.4343 91.9543026,86.8523 91.7162325,87.1323 C88.3025482,91.1643 84.2472851,94.5433 79.6614079,97.1763 C79.5564956,97.2373 79.4414956,97.2663 79.3275044,97.2663 M34.6459693,97.3063 C34.5329868,97.3063 34.4179868,97.2783 34.3130746,97.2173 C29.7231623,94.5933 25.6608377,91.2213 22.2380746,87.1933 C22.0000044,86.9143 22.0363202,86.4963 22.3187763,86.2603 C22.6022412,86.0243 23.0228991,86.0603 23.2609693,86.3403 C26.5828553,90.2493 30.5261447,93.5233 34.9808816,96.0703 C35.3006623,96.2533 35.4106184,96.6583 35.2260132,96.9753 C35.1019342,97.1883 34.8769781,97.3063 34.6459693,97.3063 M56.9519342,103.2093 C54.3250921,103.2093 51.6901798,102.9843 49.1208377,102.5413 C48.7566711,102.4793 48.513557,102.1353 48.5771096,101.7753 C48.6406623,101.4143 48.9917149,101.1713 49.3498289,101.2353 C54.3674605,102.1003 59.6261886,102.0943 64.63575,101.2213 C64.9968904,101.1553 65.3459254,101.3983 65.4094781,101.7593 C65.4740395,102.1193 65.2309254,102.4633 64.8667588,102.5263 C62.2721974,102.9793 59.6090395,103.2093 56.9519342,103.2093" id="Fill-6" fill="#76B0BD"></path>
                <g id="Group-10" transform="translate(0.000000, 0.762000)">
                    <mask id="mask-cn-4" fill="white">
                        <use xlink:href="#path-cn-3"></use>
                    </mask>
                    <g id="Clip-9"></g>
                    <path d="M53.9676842,2.0534 C53.5147456,2.0534 53.1344386,1.7024 53.106193,1.2484 C53.0779474,0.7764 53.4411053,0.3704 53.9162368,0.3424 C56.1224211,0.2114 58.3750088,0.2034 60.5892632,0.3234 C61.0664123,0.3484 61.4315877,0.7524 61.4053596,1.2244 C61.3791316,1.6974 60.9554474,2.0614 60.4964561,2.0324 C58.3457544,1.9164 56.1597456,1.9234 54.0211491,2.0514 C54.0029912,2.0534 53.9858421,2.0534 53.9676842,2.0534 M73.4783421,4.2404 C73.3976404,4.2404 73.3149211,4.2284 73.2332105,4.2044 C71.1702719,3.6004 69.0488246,3.1114 66.9293947,2.7504 C66.459307,2.6704 66.1435614,2.2274 66.2242632,1.7614 C66.3039561,1.2954 66.7488246,0.9844 67.2219386,1.0624 C69.4079474,1.4344 71.5949649,1.9394 73.7224649,2.5624 C74.1804474,2.6964 74.4417193,3.1724 74.3065439,3.6264 C74.1955789,3.9984 73.8515877,4.2404 73.4783421,4.2404 M41.0463246,4.3374 C40.6761053,4.3374 40.3331228,4.0984 40.2201404,3.7284 C40.0819386,3.2754 40.341193,2.7974 40.7971579,2.6604 C42.919614,2.0264 45.1036053,1.5084 47.289614,1.1214 C47.7576842,1.0364 48.2075965,1.3484 48.2913246,1.8144 C48.3750526,2.2804 48.0623333,2.7244 47.5932544,2.8074 C45.4728158,3.1824 43.3543947,3.6844 41.2965,4.3004 C41.2137807,4.3254 41.1290439,4.3374 41.0463246,4.3374 M85.549307,9.3614 C85.4040439,9.3614 85.2557544,9.3244 85.1205789,9.2474 C83.2513246,8.1844 81.3013684,7.2204 79.326193,6.3814 C78.8873772,6.1954 78.6836053,5.6924 78.8712368,5.2574 C79.0598772,4.8234 79.5662807,4.6214 80.0061053,4.8074 C82.0428158,5.6714 84.0522895,6.6664 85.9800526,7.7624 C86.3946579,7.9974 86.5368947,8.5214 86.2998333,8.9314 C86.1404474,9.2074 85.8489123,9.3614 85.549307,9.3614 M29.0157105,9.5264 C28.7181228,9.5264 28.4286053,9.3744 28.2672018,9.1004 C28.0281228,8.6924 28.1673333,8.1684 28.5799211,7.9294 C30.499614,6.8224 32.5020263,5.8174 34.5306667,4.9424 C34.9694825,4.7534 35.4779035,4.9524 35.6675526,5.3854 C35.8582105,5.8194 35.6584737,6.3244 35.2206667,6.5124 C33.2525526,7.3614 31.3106667,8.3364 29.4484737,9.4104 C29.3122895,9.4894 29.1629912,9.5264 29.0157105,9.5264 M96.1010614,17.1064 C95.8892193,17.1064 95.6773772,17.0294 95.5109298,16.8744 C93.9392632,15.4144 92.2657105,14.0314 90.5376842,12.7624 C90.1553596,12.4814 90.0736491,11.9454 90.3581228,11.5644 C90.6425965,11.1844 91.1832982,11.1034 91.5666316,11.3864 C93.3481228,12.6944 95.072114,14.1204 96.6922018,15.6254 C97.0402281,15.9484 97.0573772,16.4904 96.7315439,16.8354 C96.5610614,17.0144 96.3310614,17.1064 96.1010614,17.1064 M18.5123772,17.3284 C18.283386,17.3284 18.0554035,17.2384 17.8849211,17.0614 C17.5570702,16.7184 17.571193,16.1764 17.9172018,15.8504 C19.526193,14.3384 21.242114,12.9024 23.0165439,11.5834 C23.3988684,11.3004 23.9405789,11.3764 24.2260614,11.7544 C24.5125526,12.1334 24.4348772,12.6694 24.0535614,12.9534 C22.3315877,14.2324 20.667114,15.6254 19.1065439,17.0934 C18.9390877,17.2504 18.7252281,17.3284 18.5123772,17.3284 M104.577772,27.0394 C104.298342,27.0394 104.023956,26.9054 103.857509,26.6574 C102.668167,24.8824 101.359789,23.1564 99.9707105,21.5264 C99.6620263,21.1654 99.7074211,20.6254 100.072596,20.3204 C100.436763,20.0154 100.9815,20.0594 101.289175,20.4214 C102.72264,22.1004 104.07036,23.8794 105.297026,25.7094 C105.560316,26.1034 105.452377,26.6354 105.054921,26.8964 C104.908649,26.9934 104.742202,27.0394 104.577772,27.0394 M10.0911491,27.3134 C9.92873684,27.3134 9.76531579,27.2674 9.61904386,27.1724 C9.22057895,26.9134 9.10860526,26.3824 9.37088596,25.9874 C10.5864561,24.1484 11.9250965,22.3604 13.3484737,20.6734 C13.6541316,20.3104 14.1998772,20.2614 14.5650526,20.5654 C14.9312368,20.8684 14.9796579,21.4084 14.6729912,21.7714 C13.2929912,23.4084 11.9947018,25.1424 10.8144386,26.9264 C10.649,27.1774 10.3736053,27.3134 10.0911491,27.3134 M110.51843,38.6404 C110.166368,38.6404 109.835491,38.4264 109.707377,38.0804 C108.964921,36.0814 108.094351,34.1024 107.118868,32.1984 C106.902991,31.7774 107.072465,31.2614 107.497158,31.0474 C107.92286,30.8314 108.442377,31.0024 108.658254,31.4234 C109.665009,33.3864 110.562816,35.4274 111.328474,37.4884 C111.492904,37.9324 111.263912,38.4244 110.816018,38.5884 C110.718167,38.6234 110.617289,38.6404 110.51843,38.6404 M4.21807895,38.9544 C4.12022807,38.9544 4.02136842,38.9374 3.92452632,38.9034 C3.47562281,38.7424 3.24360526,38.2514 3.40601754,37.8064 C4.15957018,35.7394 5.0462807,33.6924 6.03992105,31.7234 C6.25277193,31.2994 6.7712807,31.1284 7.199,31.3414 C7.62571053,31.5524 7.79821053,32.0674 7.58535965,32.4904 C6.62097368,34.3994 5.7615,36.3844 5.03014035,38.3884 C4.90303509,38.7374 4.57215789,38.9544 4.21807895,38.9544 M113.584088,51.2914 C113.152333,51.2914 112.779088,50.9714 112.72764,50.5364 C112.471412,48.4174 112.08707,46.2924 111.585711,44.2204 C111.473737,43.7614 111.760228,43.2984 112.224263,43.1884 C112.686281,43.0754 113.153342,43.3614 113.265316,43.8214 C113.781807,45.9564 114.179263,48.1484 114.442553,50.3334 C114.499044,50.8024 114.161105,51.2284 113.686982,51.2844 C113.652684,51.2894 113.617377,51.2914 113.584088,51.2914 M1.22908772,51.6264 C1.19579825,51.6264 1.16351754,51.6244 1.13022807,51.6204 C0.656105263,51.5674 0.315140351,51.1434 0.369614035,50.6734 C0.620798246,48.4844 1.00312281,46.2904 1.50750877,44.1544 C1.61645614,43.6934 2.08452632,43.4074 2.54452632,43.5154 C3.00957018,43.6224 3.29807895,44.0834 3.18913158,44.5434 C2.70088596,46.6164 2.32965789,48.7424 2.08553509,50.8664 C2.03610526,51.3034 1.66185088,51.6264 1.22908772,51.6264 M113.611325,64.5254 C113.579044,64.5254 113.545754,64.5234 113.511456,64.5194 C113.038342,64.4654 112.698386,64.0404 112.75286,63.5714 C112.999,61.4584 113.124088,59.3024 113.124088,57.1634 L113.124088,56.9444 C113.121061,56.4714 113.505404,56.0854 113.982553,56.0824 C113.983561,56.0824 113.985579,56.0824 113.987596,56.0824 C114.461719,56.0824 114.848079,56.4624 114.851105,56.9334 L114.851105,57.1694 C114.851105,59.3674 114.722991,61.5894 114.468781,63.7674 C114.418342,64.2034 114.045096,64.5254 113.611325,64.5254 M1.25228947,64.6374 C0.820535088,64.6374 0.447289474,64.3164 0.395842105,63.8814 C0.137596491,61.7064 0.00443859649,59.4854 -0.000605263158,57.2784 C-0.000605263158,56.8044 0.384745614,56.4204 0.861894737,56.4194 L0.863912281,56.4194 C1.34005263,56.4194 1.72641228,56.8024 1.72742105,57.2744 C1.73145614,59.4164 1.86057895,61.5714 2.11176316,63.6804 C2.16724561,64.1504 1.82829825,64.5754 1.35417544,64.6314 C1.31987719,64.6354 1.28557895,64.6374 1.25228947,64.6374 M110.595096,77.1924 C110.497246,77.1924 110.396368,77.1754 110.299526,77.1404 C109.850623,76.9784 109.619614,76.4874 109.783035,76.0424 C110.519439,74.0404 111.14286,71.9704 111.637158,69.8914 C111.747114,69.4314 112.207114,69.1434 112.676193,69.2544 C113.140228,69.3634 113.427728,69.8244 113.318781,70.2844 C112.808342,72.4284 112.164746,74.5634 111.406149,76.6284 C111.279044,76.9764 110.947158,77.1924 110.595096,77.1924 M4.29474561,77.2944 C3.94268421,77.2944 3.61180702,77.0794 3.48369298,76.7324 C2.7210614,74.6684 2.0744386,72.5364 1.55996491,70.3964 C1.449,69.9364 1.7365,69.4744 2.20053509,69.3654 C2.66457018,69.2574 3.12961404,69.5394 3.24057895,69.9994 C3.73891228,72.0744 4.36636842,74.1424 5.10579825,76.1434 C5.27022807,76.5884 5.0392193,77.0794 4.59132456,77.2424 C4.49347368,77.2774 4.39259649,77.2944 4.29474561,77.2944 M104.695798,88.8214 C104.532377,88.8214 104.366939,88.7754 104.220667,88.6794 C103.823211,88.4194 103.713254,87.8884 103.975535,87.4934 C105.159833,85.7114 106.250316,83.8424 107.216719,81.9374 C107.430579,81.5144 107.950096,81.3444 108.376807,81.5564 C108.802509,81.7694 108.974,82.2844 108.76014,82.7064 C107.763474,84.6714 106.638693,86.5984 105.41707,88.4364 C105.251632,88.6854 104.976237,88.8214 104.695798,88.8214 M10.2122018,88.9064 C9.93176316,88.9064 9.65737719,88.7714 9.49092982,88.5224 C8.26527193,86.6854 7.13847368,84.7614 6.14079825,82.8034 C5.92492105,82.3804 6.09641228,81.8654 6.52211404,81.6524 C6.94781579,81.4394 7.46733333,81.6084 7.68220175,82.0304 C8.65062281,83.9294 9.74413158,85.7964 10.9314561,87.5774 C11.1947456,87.9724 11.0857982,88.5034 10.6873333,88.7644 C10.5410614,88.8604 10.3756228,88.9064 10.2122018,88.9064 M96.2564123,98.7894 C96.0274211,98.7894 95.7984298,98.6994 95.6289561,98.5204 C95.3011053,98.1774 95.3172456,97.6354 95.6632544,97.3104 C97.2278596,95.8454 98.7228596,94.2744 100.105886,92.6404 C100.413561,92.2794 100.958298,92.2324 101.323474,92.5354 C101.688649,92.8404 101.736061,93.3804 101.429395,93.7424 C100.002991,95.4264 98.4625965,97.0454 96.8495702,98.5554 C96.6831228,98.7114 96.4692632,98.7894 96.2564123,98.7894 M18.6677281,98.8574 C18.4548772,98.8574 18.2420263,98.7804 18.0755789,98.6244 C16.4605351,97.1174 14.917114,95.5004 13.4876842,93.8194 C13.1800088,93.4574 13.2264123,92.9174 13.5915877,92.6134 C13.9567632,92.3084 14.5015,92.3544 14.8091754,92.7164 C16.1952281,94.3464 17.6932544,95.9154 19.2598772,97.3774 C19.6068947,97.7014 19.6240439,98.2434 19.296193,98.5884 C19.1267193,98.7664 18.8967193,98.8574 18.6677281,98.8574 M85.7399649,106.5704 C85.4423772,106.5704 85.1518509,106.4174 84.9914561,106.1434 C84.7523772,105.7344 84.8936053,105.2104 85.306193,104.9734 C87.1653596,103.9054 88.9831667,102.7164 90.7081667,101.4404 C91.0915,101.1584 91.6322018,101.2364 91.9176842,101.6144 C92.2031667,101.9924 92.1244825,102.5294 91.7421579,102.8124 C89.9626842,104.1284 88.088386,105.3544 86.1717193,106.4544 C86.0355351,106.5334 85.8872456,106.5704 85.7399649,106.5704 M29.2033421,106.6224 C29.0570702,106.6224 28.9087807,106.5854 28.7725965,106.5074 C26.8488684,105.4074 24.9715439,104.1844 23.1930789,102.8724 C22.8097456,102.5904 22.7310614,102.0534 23.0155351,101.6744 C23.299,101.2954 23.8397018,101.2164 24.2240439,101.4984 C25.9500526,102.7714 27.7698772,103.9574 29.6350965,105.0244 C30.048693,105.2604 30.1909298,105.7834 29.9518509,106.1934 C29.7924649,106.4684 29.5019386,106.6224 29.2033421,106.6224 M73.6952281,111.7354 C73.324,111.7354 72.9810175,111.4954 72.8680351,111.1254 C72.7318509,110.6724 72.9911053,110.1954 73.4480789,110.0584 C75.509,109.4464 77.5547895,108.7054 79.5289561,107.8594 C79.9657544,107.6714 80.4741754,107.8714 80.6638246,108.3054 C80.8534737,108.7394 80.6527281,109.2434 80.2149211,109.4304 C78.1792193,110.3034 76.0698772,111.0674 73.9443947,111.6994 C73.8616754,111.7234 73.7779474,111.7354 73.6952281,111.7354 M41.2652281,111.7684 C41.1835175,111.7684 41.1007982,111.7564 41.0190877,111.7324 C38.8915877,111.1054 36.7782105,110.3454 34.7394825,109.4754 C34.3016754,109.2874 34.0999211,108.7844 34.2885614,108.3494 C34.476193,107.9154 34.9836053,107.7154 35.4234298,107.9024 C37.4006228,108.7464 39.4484298,109.4824 41.5113684,110.0914 C41.9683421,110.2254 42.2286053,110.7024 42.0934298,111.1564 C41.9814561,111.5274 41.6374649,111.7684 41.2652281,111.7684 M60.7688246,113.9934 C60.3148772,113.9934 59.9345702,113.6424 59.9073333,113.1874 C59.8800965,112.7154 60.2432544,112.3104 60.7193947,112.2824 C62.8731228,112.1584 65.0369386,111.9074 67.149307,111.5394 C67.6204035,111.4594 68.0672895,111.7684 68.1500088,112.2344 C68.2327281,112.6994 67.919,113.1434 67.4489123,113.2254 C65.2709737,113.6064 63.0405789,113.8644 60.8202719,113.9924 C60.8031228,113.9934 60.7859737,113.9934 60.7688246,113.9934 M54.1966754,114.0004 C54.1795263,114.0004 54.163386,113.9994 54.1462368,113.9984 C51.9269386,113.8744 49.6965439,113.6214 47.5165877,113.2454 C47.0465,113.1644 46.7317632,112.7214 46.8134737,112.2554 C46.896193,111.7894 47.3481228,111.4814 47.8121579,111.5584 C49.9265439,111.9234 52.0903596,112.1684 54.2440877,112.2884 C54.7202281,112.3154 55.0843947,112.7204 55.0581667,113.1924 C55.0319386,113.6474 54.6506228,114.0004 54.1966754,114.0004" id="Fill-8" fill="#76B0BD" mask="url(#mask-cn-4)"></path>
                </g>
                <mask id="mask-cn-6" fill="white">
                    <use xlink:href="#path-cn-5"></use>
                </mask>
                <g id="Clip-12"></g>
                <polygon id="Fill-11" fill="#F2900A" mask="url(#mask-cn-6)" points="28.8054825 64.084 75.2271491 64.084 75.2271491 44.511 28.8054825 44.511"></polygon>
                <polygon id="Fill-13" fill="#F2900A" mask="url(#mask-cn-6)" points="31.2759649 42.685 36.915 42.685 36.915 37.916 31.2759649 37.916"></polygon>
                <path d="M80.3859079,52.4179 L77.2345044,49.2879 L80.527136,57.7629 C81.4905132,60.2469 80.2426623,63.0349 77.7378816,63.9929 L76.7402061,64.3779 L80.3395044,67.9459 L78.9635395,69.3099 L74.055864,64.4449 L63.46275,53.9469 C62.2138904,52.7139 60.2013904,52.6949 58.9283202,53.9029 C57.6562588,55.1109 57.5886711,57.1049 58.7780132,58.3949 L66.7493289,67.0159 C67.0358202,67.3249 67.0872675,67.7819 66.8764342,68.1459 C64.657136,71.9929 64.7509518,76.7379 67.1235833,80.4959 L67.54525,81.1639 L83.5423553,81.1639 L83.5423553,59.9409 C83.5352939,57.1179 82.3994167,54.4139 80.3859079,52.4179" id="Fill-14" fill="#FEFEFE" mask="url(#mask-cn-6)"></path>
                <path d="M67.54525,81.164 L67.1235833,80.496 C64.7509518,76.738 64.657136,71.993 66.8764342,68.146 C67.0872675,67.782 67.0358202,67.325 66.7493289,67.016 L58.7780132,58.394 C57.5886711,57.105 57.6562588,55.111 58.9283202,53.903 C60.2013904,52.695 62.2138904,52.714 63.46275,53.947 L74.055864,64.445 L78.9635395,69.31 L80.3395044,67.946 L76.7402061,64.378 L77.7378816,63.993 C80.2426623,63.035 81.4905132,60.247 80.527136,57.763 L77.2345044,49.288 L80.3859079,52.418 C82.3994167,54.414 83.5352939,57.118 83.5423553,59.941 L83.5423553,81.164 L67.54525,81.164 Z M75.7606886,50.86 L78.7123553,58.457 C79.2913904,59.949 78.5418728,61.622 77.0377939,62.196 L75.3501184,62.842 C75.6194605,62.234 75.7596798,61.577 75.7606886,60.914 L75.7606886,50.86 Z M31.9860395,63.807 C30.3740219,63.807 29.0666535,62.511 29.0666535,60.914 L29.0666535,39.698 C29.0666535,38.101 30.3740219,36.806 31.9860395,36.806 L70.8963904,36.806 C72.5073991,36.806 73.8147675,38.101 73.8147675,39.698 L73.8147675,45.828 L73.8066974,45.828 L73.8147675,45.85 L73.8147675,60.914 C73.8077061,61.081 73.7855132,61.248 73.7481886,61.413 L64.8377061,52.579 C62.8352939,50.639 59.6425307,50.624 57.6209518,52.543 C55.5993728,54.464 55.4783202,57.627 57.3475746,59.693 L61.1466096,63.807 L31.9860395,63.807 Z M85.4882763,59.941 C85.4791974,56.606 84.1395482,53.411 81.760864,51.052 L75.7606886,45.093 L75.7606886,39.698 C75.7566535,37.037 73.5817412,34.88 70.8963904,34.877 L31.9860395,34.877 C29.3006886,34.88 27.1247675,37.037 27.1217412,39.698 L27.1217412,60.914 C27.1288026,63.376 29.0121798,65.435 31.4826623,65.685 L41.5290219,65.735 L61.85275,65.197 L64.4594167,67.81 C62.8816974,71.895 63.1328816,77.81 65.4742412,81.518 L66.0320921,82.404 L66.0320921,101.55 C72.9916096,99.808 79.5334956,97.032 85.4882763,93.399 L85.4882763,59.941 Z" id="Fill-15" fill="#76B0BD" mask="url(#mask-cn-6)"></path>
                <path d="M105.348575,30.6782 C105.348575,42.3312 95.8187061,51.7792 84.0624781,51.7792 C72.3072588,51.7792 62.7773904,42.3312 62.7773904,30.6782 C62.7773904,19.0242 72.3072588,9.5772 84.0624781,9.5772 C95.8187061,9.5772 105.348575,19.0242 105.348575,30.6782" id="Fill-16" fill="#3FB28C" mask="url(#mask-cn-6)"></path>
                <path d="M79.9105746,42.916 L79.9105746,34.758 L71.6779868,34.758 C69.8339518,34.758 68.60325,33.157 68.60325,30.717 C68.60325,28.429 69.8339518,26.601 71.6779868,26.601 L79.9105746,26.601 L79.9105746,18.518 C79.9105746,16.916 81.7556184,15.392 84.0626798,15.392 C86.5240833,15.392 88.140136,16.916 88.140136,18.518 L88.140136,26.601 L96.2910132,26.601 C97.9070658,26.601 99.5221096,28.429 99.5221096,30.717 C99.5221096,33.157 97.9070658,34.758 96.2910132,34.758 L88.140136,34.758 L88.140136,42.916 C88.140136,44.748 86.5240833,45.964 84.0626798,45.964 C81.7556184,45.964 79.9105746,44.748 79.9105746,42.916" id="Fill-17" fill="#F9F9F9" mask="url(#mask-cn-6)"></path>
            </g>
        </g>
    </g>
</svg>