<?xml version="1.0" encoding="UTF-8"?>
<svg xmlns="http://www.w3.org/2000/svg" width="189.883" height="189.954" viewBox="0 0 189.883 189.954">
  <g id="Groupe_19840" data-name="Groupe 19840" transform="translate(-0.087 -0.023)">
    <g id="Groupe_4460" data-name="Groupe 4460" transform="translate(3.197 3.439)" opacity="0.15">
      <path id="Tracé_3495" data-name="Tracé 3495" d="M702.429,315.665a91.782,91.782,0,1,1-91.783-91.782h0a91.781,91.781,0,0,1,91.781,91.782" transform="translate(-518.866 -223.882)" fill="#0096b5"/>
    </g>
    <path id="Tracé_3496" data-name="Tracé 3496" d="M625.171,250.346a79.811,79.811,0,0,1,14.51,1.328.507.507,0,1,1-.185,1,78.793,78.793,0,0,0-14.325-1.311c-.43,0-.866,0-1.3.011h0c-.275,0-.554.01-.828.018a.507.507,0,1,1-.027-1.014c.279-.007.561-.013.84-.018h0C624.3,250.35,624.736,250.346,625.171,250.346Zm-16.515,1.73a.507.507,0,0,1,.105,1,77.9,77.9,0,0,0-13.73,4.283.507.507,0,1,1-.39-.936,78.917,78.917,0,0,1,13.909-4.339A.51.51,0,0,1,608.656,252.076Zm44.861,3.534a.506.506,0,0,1,.183.034,79.244,79.244,0,0,1,13.049,6.482.507.507,0,1,1-.533.863,78.228,78.228,0,0,0-12.881-6.4.507.507,0,0,1,.183-.98Zm-71.471,7.559a.507.507,0,0,1,.278.931,78.779,78.779,0,0,0-11.261,8.949.507.507,0,1,1-.7-.733,79.8,79.8,0,0,1,11.407-9.065A.5.5,0,0,1,582.045,263.169Zm96.005,7.585a.5.5,0,0,1,.34.131,79.922,79.922,0,0,1,9.854,10.732.507.507,0,1,1-.806.615,78.908,78.908,0,0,0-9.729-10.6.507.507,0,0,1,.341-.883ZM561.207,283.1a.507.507,0,0,1,.411.8,78.464,78.464,0,0,0-7.307,12.389.507.507,0,0,1-.917-.433,79.49,79.49,0,0,1,7.4-12.55A.506.506,0,0,1,561.207,283.1Zm134.316,10.593a.507.507,0,0,1,.453.279,78.946,78.946,0,0,1,5.331,13.56.507.507,0,0,1-.974.282,77.922,77.922,0,0,0-5.262-13.386.507.507,0,0,1,.452-.735ZM548.914,309.174a.507.507,0,0,1,.491.635A78.235,78.235,0,0,0,547.072,324a.507.507,0,1,1-1.011-.072,79.249,79.249,0,0,1,2.363-14.376A.507.507,0,0,1,548.914,309.174Zm154.632,12.205a.507.507,0,0,1,.5.458c.21,2.149.334,4.338.369,6.508v0a80.563,80.563,0,0,1-.274,8.06.507.507,0,0,1-1.01-.085,79.534,79.534,0,0,0,.27-7.96v0c-.035-2.142-.157-4.3-.365-6.424a.507.507,0,0,1,.455-.554Zm-156.69,16.555a.507.507,0,0,1,.5.451,78.193,78.193,0,0,0,2.9,14.088.507.507,0,1,1-.97.3,79.216,79.216,0,0,1-2.937-14.271.507.507,0,0,1,.448-.56A.517.517,0,0,1,546.856,337.934ZM701.1,350.109a.507.507,0,0,1,.489.642,78.974,78.974,0,0,1-5.157,13.627.507.507,0,1,1-.911-.445,77.966,77.966,0,0,0,5.091-13.451A.507.507,0,0,1,701.1,350.109Zm-145.844,15.4a.507.507,0,0,1,.45.273,78.5,78.5,0,0,0,7.8,12.087.507.507,0,1,1-.8.625,79.506,79.506,0,0,1-7.9-12.244.507.507,0,0,1,.449-.742Zm133.2,10.5a.507.507,0,0,1,.407.809,79.94,79.94,0,0,1-9.714,10.859.507.507,0,0,1-.691-.742,78.928,78.928,0,0,0,9.59-10.721A.506.506,0,0,1,688.451,376.017ZM573.035,388.209a.505.505,0,0,1,.335.127,78.758,78.758,0,0,0,11.61,8.491.507.507,0,1,1-.521.87,79.772,79.772,0,0,1-11.76-8.6.507.507,0,0,1,.336-.887Zm94.309,7.451a.507.507,0,0,1,.272.935,79.185,79.185,0,0,1-12.964,6.65.507.507,0,1,1-.377-.941,78.165,78.165,0,0,0,12.8-6.564A.5.5,0,0,1,667.344,395.66Zm-69.572,7.358a.506.506,0,0,1,.176.032,77.914,77.914,0,0,0,13.891,3.729.507.507,0,1,1-.171,1A78.926,78.926,0,0,1,597.6,404a.507.507,0,0,1,.176-.983Zm42.815,3.371a.507.507,0,0,1,.1,1,80.007,80.007,0,0,1-14.254,1.514l-.237,0h-.007a.507.507,0,0,1-.007-1.014l.234,0a78.994,78.994,0,0,0,14.073-1.494A.509.509,0,0,1,640.587,406.389Z" transform="translate(-530.148 -234.641)" fill="#4f4f4e"/>
    <path id="Tracé_3497" data-name="Tracé 3497" d="M607.722,217.214a96.22,96.22,0,0,1,9.852.506.491.491,0,0,1-.1.977,95.224,95.224,0,0,0-9.751-.5c-.516,0-1.04,0-1.557.013-1.024.017-2.061.05-3.081.1a.491.491,0,1,1-.047-.981c1.031-.05,2.078-.084,3.113-.1C606.671,217.218,607.2,217.214,607.722,217.214ZM593.3,218.305a.491.491,0,0,1,.074.976,93.957,93.957,0,0,0-9.56,1.976.491.491,0,1,1-.249-.95,94.949,94.949,0,0,1,9.661-2A.5.5,0,0,1,593.3,218.305Zm33.924.928a.493.493,0,0,1,.1.011,94.628,94.628,0,0,1,9.534,2.532.491.491,0,1,1-.3.935,93.642,93.642,0,0,0-9.435-2.506.491.491,0,0,1,.1-.972Zm-52.885,4.037a.491.491,0,0,1,.173.951,93.78,93.78,0,0,0-8.942,3.919.491.491,0,0,1-.441-.878,94.77,94.77,0,0,1,9.036-3.96A.49.49,0,0,1,574.334,223.27Zm71.54,1.978a.489.489,0,0,1,.2.042,95.093,95.093,0,0,1,8.8,4.456.491.491,0,1,1-.489.852,94.109,94.109,0,0,0-8.71-4.41.491.491,0,0,1,.2-.94Zm-89.058,6.815a.491.491,0,0,1,.265.9,94.587,94.587,0,0,0-7.938,5.683.491.491,0,0,1-.612-.768,95.58,95.58,0,0,1,8.021-5.742A.489.489,0,0,1,556.816,232.063ZM662.878,235a.489.489,0,0,1,.287.093,95.836,95.836,0,0,1,7.694,6.174.491.491,0,0,1-.653.733,94.85,94.85,0,0,0-7.615-6.11.491.491,0,0,1,.287-.889ZM541.49,244.282a.491.491,0,0,1,.344.841,94.941,94.941,0,0,0-6.6,7.192.491.491,0,1,1-.757-.626,95.925,95.925,0,0,1,6.671-7.266A.489.489,0,0,1,541.49,244.282Zm136.022,3.757a.49.49,0,0,1,.363.16,95.788,95.788,0,0,1,6.263,7.621.491.491,0,0,1-.79.583,94.792,94.792,0,0,0-6.2-7.542.491.491,0,0,1,.363-.822ZM529,259.386a.491.491,0,0,1,.408.763,94.4,94.4,0,0,0-4.983,8.4.491.491,0,1,1-.869-.457,95.373,95.373,0,0,1,5.035-8.483A.49.49,0,0,1,529,259.386Zm160.159,4.419a.491.491,0,0,1,.423.242,94.991,94.991,0,0,1,4.558,8.749.491.491,0,1,1-.893.408,94.032,94.032,0,0,0-4.511-8.658.491.491,0,0,1,.423-.74ZM519.883,276.739a.491.491,0,0,1,.456.673,93.651,93.651,0,0,0-3.135,9.245.491.491,0,1,1-.945-.266,94.656,94.656,0,0,1,3.168-9.342A.491.491,0,0,1,519.883,276.739Zm177.409,4.9a.491.491,0,0,1,.465.335,94.671,94.671,0,0,1,2.641,9.5.491.491,0,1,1-.959.213,93.7,93.7,0,0,0-2.614-9.406.491.491,0,0,1,.466-.647ZM514.567,295.6a.492.492,0,0,1,.484.574,94.4,94.4,0,0,0-1.149,9.695.491.491,0,0,1-.98-.065,95.369,95.369,0,0,1,1.161-9.8A.491.491,0,0,1,514.567,295.6Zm186.982,5.167a.491.491,0,0,1,.487.435c.359,3.113.566,6.289.617,9.44,0,0,0,.005,0,.008,0,.13,0,.264.006.4a.491.491,0,1,1-.982.012q0-.2-.006-.4s0-.005,0-.008c-.051-3.115-.256-6.259-.611-9.34a.491.491,0,0,1,.488-.547ZM513.267,315.165a.491.491,0,0,1,.49.473,95.174,95.174,0,0,0,.855,9.725.491.491,0,1,1-.972.136,96.167,96.167,0,0,1-.863-9.826.491.491,0,0,1,.473-.508Zm188.516,5.209.045,0a.491.491,0,0,1,.445.533,95.17,95.17,0,0,1-1.4,9.765.491.491,0,0,1-.963-.19,94.144,94.144,0,0,0,1.388-9.663A.491.491,0,0,1,701.783,320.374Zm-185.79,14.2a.491.491,0,0,1,.476.373,93.645,93.645,0,0,0,2.847,9.338.491.491,0,0,1-.923.335,94.65,94.65,0,0,1-2.877-9.436.491.491,0,0,1,.477-.61ZM697.987,339.6a.491.491,0,0,1,.469.636,94.7,94.7,0,0,1-3.4,9.26.491.491,0,0,1-.9-.386,93.7,93.7,0,0,0,3.364-9.164A.491.491,0,0,1,697.987,339.6ZM522.681,353a.491.491,0,0,1,.442.276,94.1,94.1,0,0,0,4.723,8.544.491.491,0,1,1-.834.519,95.109,95.109,0,0,1-4.773-8.634.491.491,0,0,1,.441-.706Zm167.6,4.626a.491.491,0,0,1,.428.73,95.481,95.481,0,0,1-5.243,8.356.491.491,0,0,1-.8-.564,94.485,94.485,0,0,0,5.189-8.27A.491.491,0,0,1,690.282,357.625ZM533.043,369.638a.49.49,0,0,1,.388.19,94.868,94.868,0,0,0,6.382,7.388.491.491,0,0,1-.709.679,95.841,95.841,0,0,1-6.449-7.465.491.491,0,0,1,.387-.792Zm145.976,4.029a.491.491,0,0,1,.37.813,95.946,95.946,0,0,1-6.847,7.1.491.491,0,1,1-.671-.717,94.953,94.953,0,0,0,6.777-7.028A.49.49,0,0,1,679.018,373.667ZM546.606,383.789a.489.489,0,0,1,.317.117,94.8,94.8,0,0,0,7.763,5.921.491.491,0,0,1-.554.811,95.79,95.79,0,0,1-7.843-5.983.491.491,0,0,1,.318-.865ZM664.7,387.055a.491.491,0,0,1,.3.882,95.487,95.487,0,0,1-8.16,5.543.491.491,0,1,1-.509-.84,94.5,94.5,0,0,0,8.076-5.485A.489.489,0,0,1,664.7,387.055Zm-101.915,7.8a.489.489,0,0,1,.233.059,93.992,93.992,0,0,0,8.817,4.193.491.491,0,0,1-.375.908,95,95,0,0,1-8.909-4.237.491.491,0,0,1,.234-.923Zm85.151,2.357a.491.491,0,0,1,.21.935,94.689,94.689,0,0,1-9.131,3.734.491.491,0,1,1-.324-.927,93.7,93.7,0,0,0,9.036-3.7A.49.49,0,0,1,647.936,397.211ZM580.9,402.336a.491.491,0,0,1,.139.02,93.7,93.7,0,0,0,9.494,2.27.491.491,0,1,1-.178.966,94.682,94.682,0,0,1-9.594-2.294.491.491,0,0,1,.139-.962Zm48.531,1.335a.491.491,0,0,1,.112.969,95.123,95.123,0,0,1-9.707,1.757.491.491,0,1,1-.124-.974,94.147,94.147,0,0,0,9.606-1.738A.492.492,0,0,1,629.432,403.67Zm-29.256,2.223.039,0c2.46.193,4.964.291,7.443.291.516,0,1.039,0,1.555-.013q.382-.006.764-.015a.491.491,0,1,1,.024.982q-.386.009-.772.016c-.521.008-1.05.013-1.571.013-2.5,0-5.035-.1-7.52-.294a.491.491,0,0,1,.038-.98Z" transform="translate(-512.689 -217.19)" fill="#4f4f4e"/>
    <g id="Groupe_20672" data-name="Groupe 20672" transform="translate(0 9)">
      <g id="boite" transform="translate(-389 -718)">
        <path id="Tracé_17410" data-name="Tracé 17410" d="M416.966,3171.285h92.5l.276.114,21.028,8.71v54.044H437.049l-20.083-18.588Zm91.9,3h-88.9v39.97l18.258,16.9H527.77v-49.04Z" transform="translate(15 -2378)" fill="#76b0bd"/>
        <path id="Tracé_17411" data-name="Tracé 17411" d="M437.475,3232.809c0-.308-.127-30.49-.006-50.6l-19.879-7.681,1.081-2.8,20.58,7.952c5.235-.023,15.255,0,26.826.028,11.073.026,23.619.055,35.556.055,10.053,0,19.672-.021,27.626-.082l.023,3c-17.414.134-42.808.074-63.212.027-10.727-.025-20.121-.048-25.595-.032V3232.8Z" transform="translate(15 -2378)" fill="#76b0bd"/>
        <rect id="Rectangle_760" data-name="Rectangle 760" width="20" height="7" transform="translate(515 841)" fill="#fff"/>
        <path id="Rectangle_760_-_Contour" data-name="Rectangle 760 - Contour" d="M1,1V6H19V1H1M0,0H20V7H0Z" transform="translate(515 841)" fill="#707070"/>
        <circle id="Ellipse_93" data-name="Ellipse 93" cx="3" cy="3" r="3" transform="translate(532 825)" fill="#fff"/>
        <path id="Ellipse_93_-_Contour" data-name="Ellipse 93 - Contour" d="M3,1A2,2,0,1,0,5,3,2,2,0,0,0,3,1M3,0A3,3,0,1,1,0,3,3,3,0,0,1,3,0Z" transform="translate(532 825)" fill="#707070"/>
        <path id="Tracé_17412" data-name="Tracé 17412" d="M1,.5H-2v-1H1Z" transform="translate(534.5 828.5)" fill="#707070"/>
      </g>
      <g id="fichier_commande" data-name="fichier commande" transform="translate(76.163 24.457)">
        <path id="Tracé_3502" data-name="Tracé 3502" d="M678.8,347.6H618.574a1.275,1.275,0,0,1-1.274-1.273V265.582a1.274,1.274,0,0,1,1.274-1.273H678.8a1.272,1.272,0,0,1,1.273,1.272h0v80.746A1.273,1.273,0,0,1,678.8,347.6" transform="translate(-617.3 -264.309)" fill="#fff"/>
        <path id="Rectangle_236" data-name="Rectangle 236" d="M617.876,263.809H679.5a1.078,1.078,0,0,1,1.076,1.076v82.14A1.078,1.078,0,0,1,679.5,348.1H617.876a1.077,1.077,0,0,1-1.076-1.076V264.885A1.077,1.077,0,0,1,617.876,263.809ZM679.5,347.1a.076.076,0,0,0,.076-.076v-82.14a.076.076,0,0,0-.076-.076H617.876a.076.076,0,0,0-.076.076v82.141a.076.076,0,0,0,.076.076Z" transform="translate(-617.3 -264.309)" fill="#4f4f4e"/>
        <path id="Ligne_85" data-name="Ligne 85" d="M37.226.5H0A.5.5,0,0,1-.5,0,.5.5,0,0,1,0-.5H37.226a.5.5,0,0,1,.5.5A.5.5,0,0,1,37.226.5Z" transform="translate(10.067 10.577)" fill="#4f4f4e"/>
        <path id="Ligne_86" data-name="Ligne 86" d="M28.057.5H0A.5.5,0,0,1-.5,0,.5.5,0,0,1,0-.5H28.057a.5.5,0,0,1,.5.5A.5.5,0,0,1,28.057.5Z" transform="translate(10.067 20.57)" fill="#4f4f4e"/>
        <path id="Ligne_87" data-name="Ligne 87" d="M17.884.5H0A.5.5,0,0,1-.5,0,.5.5,0,0,1,0-.5H17.884a.5.5,0,0,1,.5.5A.5.5,0,0,1,17.884.5Z" transform="translate(10.007 30.986)" fill="#4f4f4e"/>
        <path id="Tracé_3503" data-name="Tracé 3503" d="M729.294,393.823l-6.724-6.725,4.8-2.767a1.12,1.12,0,0,0,.559-1.056,1.136,1.136,0,0,0-.71-1l-21.375-8.544a1.12,1.12,0,0,0-1.22.248,1.137,1.137,0,0,0-.253,1.215l8.51,21.413a1.137,1.137,0,0,0,.972.708,1.119,1.119,0,0,0,1.056-.56l2.775-4.794,6.724,6.725a1.134,1.134,0,0,0,.814.359,1.113,1.113,0,0,0,.8-.327l3.284-3.284a1.127,1.127,0,0,0,0-1.594h0Z" transform="translate(-663.099 -321.871)" fill="#6dbd8e"/>
        <path id="Tracé_3504" data-name="Tracé 3504" d="M725.239,399.548h-.02a1.642,1.642,0,0,1-1.166-.51l-6.259-6.259-2.449,4.231a1.621,1.621,0,0,1-1.4.813c-.04,0-.081,0-.121,0a1.647,1.647,0,0,1-1.4-1.019l-8.511-21.416a1.633,1.633,0,0,1,1.514-2.231,1.61,1.61,0,0,1,.614.121l21.37,8.542a1.652,1.652,0,0,1,.215,2.951l-4.239,2.441,6.289,6.291a1.627,1.627,0,0,1-.009,2.294l-3.283,3.283A1.6,1.6,0,0,1,725.239,399.548Zm-7.659-8.4,7.2,7.2a.637.637,0,0,0,.455.2h.008a.609.609,0,0,0,.434-.18l3.284-3.284a.627.627,0,0,0,.027-.86l-.008-.005-.047-.053-7.174-7.175,5.37-3.092a.623.623,0,0,0,.31-.584V383.3a.638.638,0,0,0-.4-.559L705.662,374.2a.618.618,0,0,0-.679.136.638.638,0,0,0-.143.681l8.509,21.41a.64.64,0,0,0,.543.394l.048,0a.62.62,0,0,0,.538-.311Z" transform="translate(-663.099 -321.871)" fill="#4e4e4d"/>
        <path id="Tracé_3505" data-name="Tracé 3505" d="M693.618,391.249l-3.164,3.165a.523.523,0,0,0-.142.339.486.486,0,0,0,.825.347l3.166-3.167a.48.48,0,0,0,0-.679h0l-.006-.006a.442.442,0,0,0-.339-.139.451.451,0,0,0-.339.139" transform="translate(-655.736 -331.062)" fill="#4e4e4d"/>
        <path id="Tracé_3506" data-name="Tracé 3506" d="M694.3,391.927l-3.166,3.166a.481.481,0,0,1-.679,0l-.006-.008a.476.476,0,0,1-.145-.346.507.507,0,0,1,.138-.339l3.166-3.167a.455.455,0,0,1,.339-.139.44.44,0,0,1,.341.139.482.482,0,0,1,.026.679l-.013.014" transform="translate(-655.732 -331.054)" fill="#4e4e4d"/>
        <path id="Tracé_3507" data-name="Tracé 3507" d="M710.532,353.108a.473.473,0,0,0-.139.339l-.007,4.477a.5.5,0,0,0,.147.346.479.479,0,0,0,.818-.339l.028-4.5a.488.488,0,0,0-.486-.485.477.477,0,0,0-.359.159" transform="translate(-666.304 -310.972)" fill="#4e4e4d"/>
        <path id="Tracé_3508" data-name="Tracé 3508" d="M691.887,361.158h0a.48.48,0,0,0,0,.678h0L695.053,365a.48.48,0,0,0,.679,0h0l.007-.006a.461.461,0,0,0,.139-.339.45.45,0,0,0-.139-.339l-3.173-3.173a.481.481,0,0,0-.679.014" transform="translate(-656.492 -315.217)" fill="#4e4e4d"/>
        <path id="Tracé_3509" data-name="Tracé 3509" d="M695.711,364.345a.447.447,0,0,1,.139.339.457.457,0,0,1-.139.339.481.481,0,0,1-.679.014l-.006-.007-3.173-3.173a.484.484,0,0,1,.692-.678Z" transform="translate(-656.478 -315.231)" fill="#4e4e4d"/>
        <path id="Tracé_3510" data-name="Tracé 3510" d="M684.2,379.608a.485.485,0,1,0,0,.971l4.437.034a.482.482,0,1,0,.006-.965h0Z" transform="translate(-652.262 -325.007)" fill="#4e4e4d"/>
        <path id="Tracé_3511" data-name="Tracé 3511" d="M689.083,380.127a.48.48,0,0,1-.474.486h-4.482a.491.491,0,0,1-.486-.486.545.545,0,0,1,.521-.519l4.443.04a.479.479,0,0,1,.479.479" transform="translate(-652.225 -325.007)" fill="#4e4e4d"/>
        <path id="Tracé_3512" data-name="Tracé 3512" d="M725.109,359.773l-3.159,3.16a.481.481,0,0,0-.014.679l.008.006a.471.471,0,0,0,.339.142.518.518,0,0,0,.338-.142l3.167-3.166a.48.48,0,1,0-.663-.663Z" transform="translate(-672.314 -314.457)" fill="#4e4e4d"/>
      </g>
    </g>
  </g>
</svg>
