<?xml version="1.0" encoding="UTF-8"?>
<svg data-name="Groupe 4464" viewBox="0 0 190 190" xmlns="http://www.w3.org/2000/svg">
<defs>
<clipPath id="a">
<rect width="190" height="190" fill="none" data-name="Rectangle 238"/>
</clipPath>
<clipPath id="b">
<rect width="182.26" height="182.27" fill="none" data-name="Rectangle 234"/>
</clipPath>
</defs>
<g clip-path="url(#a)" data-name="Groupe 4463">
<g data-name="Groupe 4462">
<g clip-path="url(#a)" data-name="Groupe 4461">
<g transform="translate(3.842 4.133)" opacity=".15" data-name="Groupe 4460">
<g data-name="Groupe 4459">
<g clip-path="url(#b)" data-name="Groupe 4458">
<path transform="translate(-3.053 -3.284)" d="m185.32 94.417a91.133 91.133 0 1 1-91.132-91.132 91.132 91.132 0 0 1 91.132 91.132" fill="#0096b5" data-name="Tracé 3495"/>
</g>
</g>
</g>
<path transform="translate(4.003 4.001)" d="m166.49 89.763a75.505 75.505 0 1 1-76.719-74.271 75.5 75.5 0 0 1 76.719 74.271z" fill="none" stroke="#4f4f4e" stroke-dasharray="14.497 14.497" stroke-linecap="round" stroke-linejoin="round" stroke-width="1.014" data-name="Tracé 3496"/>
<path transform="translate(.127 .127)" d="M189.243,93.342A94.382,94.382,0,1,1,93.342.5,94.38,94.38,0,0,1,189.243,93.342Z" fill="none" stroke="#4f4f4e" stroke-dasharray="9.818 9.818" stroke-linecap="round" stroke-linejoin="round" stroke-width=".982" data-name="Tracé 3497"/>
<rect transform="translate(25.991 43.885)" width="136.08" height="78.193" fill="#fff" data-name="Rectangle 235"/>
<path transform="translate(32.506 24.294)" d="m129.56 94.009v3.775h-3.775" fill="none" stroke="#f59100" stroke-linecap="round" stroke-linejoin="round" stroke-width=".982" data-name="Tracé 3498"/>
<line transform="translate(35.829 122.08)" x1="110.34" fill="none" stroke="#f59100" stroke-dasharray="5.781 9.635" stroke-linecap="round" stroke-linejoin="round" stroke-width=".982" data-name="Ligne 81"/>
<path transform="translate(5.337 24.294)" d="m24.43 97.784h-3.776v-3.775" fill="none" stroke="#f59100" stroke-linecap="round" stroke-linejoin="round" stroke-width=".982" data-name="Tracé 3499"/>
<line transform="translate(25.992 53.75)" y1="52.373" fill="none" stroke="#f59100" stroke-dasharray="5.807 9.679" stroke-linecap="round" stroke-linejoin="round" stroke-width=".982" data-name="Ligne 82"/>
<path transform="translate(5.337 9.012)" d="m20.654 38.648v-3.775h3.776" fill="none" stroke="#f59100" stroke-linecap="round" stroke-linejoin="round" stroke-width=".982" data-name="Tracé 3500"/>
<line transform="translate(41.892 43.884)" x2="110.34" fill="none" stroke="#f59100" stroke-dasharray="5.781 9.635" stroke-linecap="round" stroke-linejoin="round" stroke-width=".982" data-name="Ligne 83"/>
<path transform="translate(32.506 9.012)" d="m125.79 34.873h3.775v3.775" fill="none" stroke="#f59100" stroke-linecap="round" stroke-linejoin="round" stroke-width=".982" data-name="Tracé 3501"/>
<line transform="translate(162.07 59.84)" y2="52.373" fill="none" stroke="#f59100" stroke-dasharray="5.807 9.679" stroke-linecap="round" stroke-linejoin="round" stroke-width=".982" data-name="Ligne 84"/>
<path transform="translate(11.469 11.738)" d="m118.29 145.52h-72.38a1.531 1.531 0 0 1-1.531-1.53v-97.037a1.531 1.531 0 0 1 1.531-1.53h72.379a1.53 1.53 0 0 1 1.53 1.53v97.037a1.53 1.53 0 0 1-1.53 1.53" fill="#fff" data-name="Tracé 3502"/>
<path transform="translate(55.851 57.159)" d="M1.216,0H74.224a1.217,1.217,0,0,1,1.217,1.217V98.88a1.217,1.217,0,0,1-1.217,1.217H1.216A1.216,1.216,0,0,1,0,98.881V1.216A1.216,1.216,0,0,1,1.216,0Z" fill="none" stroke="#4f4f4e" stroke-linecap="round" stroke-linejoin="round" data-name="Rectangle 236"/>
<line transform="translate(67.949 69.87)" x2="44.736" fill="none" stroke="#4f4f4e" stroke-linecap="round" stroke-linejoin="round" data-name="Ligne 85"/>
<line transform="translate(67.949 81.879)" x2="33.718" fill="none" stroke="#4f4f4e" stroke-linecap="round" stroke-linejoin="round" data-name="Ligne 86"/>
<line transform="translate(67.877 94.397)" x2="21.493" fill="none" stroke="#4f4f4e" stroke-linecap="round" stroke-linejoin="round" data-name="Ligne 87"/>
<path transform="translate(21.636 24.516)" d="M113.765,119.111l-8.083-8.083,5.774-3.325a1.346,1.346,0,0,0,.672-1.268,1.364,1.364,0,0,0-.856-1.2L85.589,94.97a1.346,1.346,0,0,0-1.466.3,1.364,1.364,0,0,0-.3,1.46l10.227,25.733a1.366,1.366,0,0,0,1.168.851,1.345,1.345,0,0,0,1.268-.673l3.337-5.761,8.083,8.083a1.362,1.362,0,0,0,.978.432,1.335,1.335,0,0,0,.964-.393l3.946-3.946a1.354,1.354,0,0,0,0-1.917Z" fill="#6dbd8e" data-name="Tracé 3503"/>
<path transform="translate(21.636 24.516)" d="M113.765,119.111l-8.083-8.083,5.774-3.325a1.346,1.346,0,0,0,.672-1.268,1.364,1.364,0,0,0-.856-1.2L85.589,94.97a1.346,1.346,0,0,0-1.466.3,1.364,1.364,0,0,0-.3,1.46l10.227,25.733a1.366,1.366,0,0,0,1.168.851,1.345,1.345,0,0,0,1.268-.673l3.337-5.761,8.083,8.083a1.362,1.362,0,0,0,.978.432,1.335,1.335,0,0,0,.964-.393l3.946-3.946a1.354,1.354,0,0,0,0-1.917Z" fill="none" stroke="#4e4e4d" data-name="Tracé 3504"/>
<path transform="translate(20.002 26.556)" d="M81.374,102.932l-3.8,3.8a.625.625,0,0,0-.169.408.584.584,0,0,0,.992.417l3.8-3.805a.576.576,0,0,0,0-.815l-.008-.008a.531.531,0,0,0-.408-.167.54.54,0,0,0-.408.167" fill="#4e4e4d" data-name="Tracé 3505"/>
<path transform="translate(20.001 26.555)" d="M82.2,103.758l-3.805,3.8a.578.578,0,0,1-.815,0l-.008-.009a.569.569,0,0,1-.175-.415.608.608,0,0,1,.166-.408l3.8-3.805a.547.547,0,0,1,.408-.167.53.53,0,0,1,.409.167.579.579,0,0,1,.031.815l-.015.016" fill="#4e4e4d" data-name="Tracé 3506"/>
<path transform="translate(22.348 22.097)" d="M86.654,85.7a.571.571,0,0,0-.167.408l-.009,5.38a.6.6,0,0,0,.176.415.575.575,0,0,0,.983-.408l.033-5.4a.587.587,0,0,0-.584-.583.575.575,0,0,0-.432.191" fill="#4e4e4d" data-name="Tracé 3507"/>
<path transform="translate(20.169 23.039)" d="M78.218,89.329h0a.576.576,0,0,0,0,.815l3.8,3.8a.576.576,0,0,0,.815,0l.009-.008a.557.557,0,0,0,.167-.408.545.545,0,0,0-.167-.408l-3.813-3.813a.578.578,0,0,0-.815.016" fill="#4e4e4d" data-name="Tracé 3508"/>
<path transform="translate(20.166 23.042)" d="M82.833,93.139a.54.54,0,0,1,.167.408.552.552,0,0,1-.167.408.578.578,0,0,1-.815.016l-.008-.009L78.2,90.149a.582.582,0,0,1,.832-.814Z" fill="#4e4e4d" data-name="Tracé 3509"/>
<path transform="translate(19.231 25.212)" d="M75,97.563a.589.589,0,0,0-.584.584A.588.588,0,0,0,75,98.73l5.332.04a.58.58,0,0,0,.008-1.159Z" fill="#4e4e4d" data-name="Tracé 3510"/>
<path transform="translate(19.222 25.212)" d="M80.923,98.186a.577.577,0,0,1-.569.584H74.968a.589.589,0,0,1-.584-.584.656.656,0,0,1,.624-.623l5.339.048a.576.576,0,0,1,.575.575" fill="#4e4e4d" data-name="Tracé 3511"/>
<path transform="translate(23.682 22.871)" d="M95.615,88.746l-3.8,3.8a.578.578,0,0,0-.016.815l.009.008a.563.563,0,0,0,.408.169.622.622,0,0,0,.406-.169l3.805-3.8a.577.577,0,1,0-.8-.8Z" fill="#4e4e4d" data-name="Tracé 3512"/>
</g>
</g>
</g>
</svg>