<svg id="Groupe_4464" data-name="Groupe 4464" xmlns="http://www.w3.org/2000/svg" xmlns:xlink="http://www.w3.org/1999/xlink" width="190" height="189.999" viewBox="0 0 190 189.999">
  <defs>
    <clipPath id="clip-path">
      <rect id="Rectangle_238" data-name="Rectangle 238" width="190" height="189.999" fill="none"/>
    </clipPath>
    <clipPath id="clip-path-3">
      <rect id="Rectangle_234" data-name="Rectangle 234" width="182.265" height="182.266" fill="none"/>
    </clipPath>
  </defs>
  <g id="Groupe_4463" data-name="Groupe 4463" clip-path="url(#clip-path)">
    <g id="Groupe_4462" data-name="Groupe 4462">
      <g id="Groupe_4461" data-name="Groupe 4461" clip-path="url(#clip-path)">
        <g id="Groupe_4460" data-name="Groupe 4460" transform="translate(3.842 4.133)" opacity="0.15">
          <g id="Groupe_4459" data-name="Groupe 4459">
            <g id="Groupe_4458" data-name="Groupe 4458" clip-path="url(#clip-path-3)">
              <path id="Tracé_3495" data-name="Tracé 3495" d="M185.318,94.417A91.133,91.133,0,1,1,94.186,3.285a91.132,91.132,0,0,1,91.132,91.132" transform="translate(-3.053 -3.284)" fill="#0096b5"/>
            </g>
          </g>
        </g>
        <path id="Tracé_3496" data-name="Tracé 3496" d="M166.489,89.763A75.505,75.505,0,1,1,89.77,15.492,75.5,75.5,0,0,1,166.489,89.763Z" transform="translate(4.003 4.001)" fill="none" stroke="#4f4f4e" stroke-linecap="round" stroke-linejoin="round" stroke-width="1.014" stroke-dasharray="14.497 14.497"/>
        <path id="Tracé_3497" data-name="Tracé 3497" d="M189.243,93.342A94.382,94.382,0,1,1,93.342.5,94.38,94.38,0,0,1,189.243,93.342Z" transform="translate(0.127 0.127)" fill="none" stroke="#4f4f4e" stroke-linecap="round" stroke-linejoin="round" stroke-width="0.982" stroke-dasharray="9.818 9.818"/>
        <rect id="Rectangle_235" data-name="Rectangle 235" width="136.077" height="78.193" transform="translate(25.991 43.885)" fill="#fff"/>
        <path id="Tracé_3498" data-name="Tracé 3498" d="M129.562,94.009v3.775h-3.775" transform="translate(32.506 24.294)" fill="none" stroke="#f59100" stroke-linecap="round" stroke-linejoin="round" stroke-width="0.982"/>
        <line id="Ligne_81" data-name="Ligne 81" x1="110.338" transform="translate(35.829 122.078)" fill="none" stroke="#f59100" stroke-linecap="round" stroke-linejoin="round" stroke-width="0.982" stroke-dasharray="5.781 9.635"/>
        <path id="Tracé_3499" data-name="Tracé 3499" d="M24.43,97.784H20.654V94.009" transform="translate(5.337 24.294)" fill="none" stroke="#f59100" stroke-linecap="round" stroke-linejoin="round" stroke-width="0.982"/>
        <line id="Ligne_82" data-name="Ligne 82" y1="52.373" transform="translate(25.992 53.75)" fill="none" stroke="#f59100" stroke-linecap="round" stroke-linejoin="round" stroke-width="0.982" stroke-dasharray="5.807 9.679"/>
        <path id="Tracé_3500" data-name="Tracé 3500" d="M20.654,38.648V34.873H24.43" transform="translate(5.337 9.012)" fill="none" stroke="#f59100" stroke-linecap="round" stroke-linejoin="round" stroke-width="0.982"/>
        <line id="Ligne_83" data-name="Ligne 83" x2="110.338" transform="translate(41.892 43.884)" fill="none" stroke="#f59100" stroke-linecap="round" stroke-linejoin="round" stroke-width="0.982" stroke-dasharray="5.781 9.635"/>
        <path id="Tracé_3501" data-name="Tracé 3501" d="M125.787,34.873h3.775v3.775" transform="translate(32.506 9.012)" fill="none" stroke="#f59100" stroke-linecap="round" stroke-linejoin="round" stroke-width="0.982"/>
        <line id="Ligne_84" data-name="Ligne 84" y2="52.373" transform="translate(162.068 59.84)" fill="none" stroke="#f59100" stroke-linecap="round" stroke-linejoin="round" stroke-width="0.982" stroke-dasharray="5.807 9.679"/>
        <path id="Tracé_3502" data-name="Tracé 3502" d="M118.293,145.518H45.913a1.531,1.531,0,0,1-1.531-1.53V46.951a1.531,1.531,0,0,1,1.531-1.53h72.379a1.53,1.53,0,0,1,1.53,1.53v97.037a1.53,1.53,0,0,1-1.53,1.53" transform="translate(11.469 11.738)" fill="#fff"/>
        <path id="Rectangle_236" data-name="Rectangle 236" d="M1.216,0H74.224a1.217,1.217,0,0,1,1.217,1.217V98.88a1.217,1.217,0,0,1-1.217,1.217H1.216A1.216,1.216,0,0,1,0,98.881V1.216A1.216,1.216,0,0,1,1.216,0Z" transform="translate(55.851 57.159)" fill="none" stroke="#4f4f4e" stroke-linecap="round" stroke-linejoin="round" stroke-width="1"/>
        <line id="Ligne_85" data-name="Ligne 85" x2="44.736" transform="translate(67.949 69.87)" fill="none" stroke="#4f4f4e" stroke-linecap="round" stroke-linejoin="round" stroke-width="1"/>
        <line id="Ligne_86" data-name="Ligne 86" x2="33.718" transform="translate(67.949 81.879)" fill="none" stroke="#4f4f4e" stroke-linecap="round" stroke-linejoin="round" stroke-width="1"/>
        <line id="Ligne_87" data-name="Ligne 87" x2="21.493" transform="translate(67.877 94.397)" fill="none" stroke="#4f4f4e" stroke-linecap="round" stroke-linejoin="round" stroke-width="1"/>
        <path id="Tracé_3503" data-name="Tracé 3503" d="M113.765,119.111l-8.083-8.083,5.774-3.325a1.346,1.346,0,0,0,.672-1.268,1.364,1.364,0,0,0-.856-1.2L85.589,94.97a1.346,1.346,0,0,0-1.466.3,1.364,1.364,0,0,0-.3,1.46l10.227,25.733a1.366,1.366,0,0,0,1.168.851,1.345,1.345,0,0,0,1.268-.673l3.337-5.761,8.083,8.083a1.362,1.362,0,0,0,.978.432,1.335,1.335,0,0,0,.964-.393l3.946-3.946a1.354,1.354,0,0,0,0-1.917Z" transform="translate(21.636 24.516)" fill="#6dbd8e"/>
        <path id="Tracé_3504" data-name="Tracé 3504" d="M113.765,119.111l-8.083-8.083,5.774-3.325a1.346,1.346,0,0,0,.672-1.268,1.364,1.364,0,0,0-.856-1.2L85.589,94.97a1.346,1.346,0,0,0-1.466.3,1.364,1.364,0,0,0-.3,1.46l10.227,25.733a1.366,1.366,0,0,0,1.168.851,1.345,1.345,0,0,0,1.268-.673l3.337-5.761,8.083,8.083a1.362,1.362,0,0,0,.978.432,1.335,1.335,0,0,0,.964-.393l3.946-3.946a1.354,1.354,0,0,0,0-1.917Z" transform="translate(21.636 24.516)" fill="none" stroke="#4e4e4d" stroke-width="1"/>
        <path id="Tracé_3505" data-name="Tracé 3505" d="M81.374,102.932l-3.8,3.8a.625.625,0,0,0-.169.408.584.584,0,0,0,.992.417l3.8-3.805a.576.576,0,0,0,0-.815l-.008-.008a.531.531,0,0,0-.408-.167.54.54,0,0,0-.408.167" transform="translate(20.002 26.556)" fill="#4e4e4d"/>
        <path id="Tracé_3506" data-name="Tracé 3506" d="M82.2,103.758l-3.805,3.8a.578.578,0,0,1-.815,0l-.008-.009a.569.569,0,0,1-.175-.415.608.608,0,0,1,.166-.408l3.8-3.805a.547.547,0,0,1,.408-.167.53.53,0,0,1,.409.167.579.579,0,0,1,.031.815l-.015.016" transform="translate(20.001 26.555)" fill="#4e4e4d"/>
        <path id="Tracé_3507" data-name="Tracé 3507" d="M86.654,85.7a.571.571,0,0,0-.167.408l-.009,5.38a.6.6,0,0,0,.176.415.575.575,0,0,0,.983-.408l.033-5.4a.587.587,0,0,0-.584-.583.575.575,0,0,0-.432.191" transform="translate(22.348 22.097)" fill="#4e4e4d"/>
        <path id="Tracé_3508" data-name="Tracé 3508" d="M78.218,89.329h0a.576.576,0,0,0,0,.815l3.8,3.8a.576.576,0,0,0,.815,0l.009-.008a.557.557,0,0,0,.167-.408.545.545,0,0,0-.167-.408l-3.813-3.813a.578.578,0,0,0-.815.016" transform="translate(20.169 23.039)" fill="#4e4e4d"/>
        <path id="Tracé_3509" data-name="Tracé 3509" d="M82.833,93.139a.54.54,0,0,1,.167.408.552.552,0,0,1-.167.408.578.578,0,0,1-.815.016l-.008-.009L78.2,90.149a.582.582,0,0,1,.832-.814Z" transform="translate(20.166 23.042)" fill="#4e4e4d"/>
        <path id="Tracé_3510" data-name="Tracé 3510" d="M75,97.563a.589.589,0,0,0-.584.584A.588.588,0,0,0,75,98.73l5.332.04a.58.58,0,0,0,.008-1.159Z" transform="translate(19.231 25.212)" fill="#4e4e4d"/>
        <path id="Tracé_3511" data-name="Tracé 3511" d="M80.923,98.186a.577.577,0,0,1-.569.584H74.968a.589.589,0,0,1-.584-.584.656.656,0,0,1,.624-.623l5.339.048a.576.576,0,0,1,.575.575" transform="translate(19.222 25.212)" fill="#4e4e4d"/>
        <path id="Tracé_3512" data-name="Tracé 3512" d="M95.615,88.746l-3.8,3.8a.578.578,0,0,0-.016.815l.009.008a.563.563,0,0,0,.408.169.622.622,0,0,0,.406-.169l3.805-3.8a.577.577,0,1,0-.8-.8Z" transform="translate(23.682 22.871)" fill="#4e4e4d"/>
      </g>
    </g>
  </g>
</svg>
