<?xml version="1.0" encoding="UTF-8"?>
<svg xmlns="http://www.w3.org/2000/svg" width="150.5" height="150.5" viewBox="0 0 150.5 150.5">
  <defs>
    <style>
      .cls-1 {
        fill: #4e4e4d;
      }

      .cls-2 {
        fill: #fff;
      }

      .cls-2, .cls-3, .cls-4, .cls-5, .cls-6 {
        stroke: #4f4f4e;
        stroke-linecap: round;
        stroke-linejoin: round;
      }

      .cls-2, .cls-4, .cls-5, .cls-6 {
        stroke-width: .98px;
      }

      .cls-7 {
        fill: #6dbd8e;
        stroke: #4e4e4d;
        stroke-miterlimit: 10;
      }

      .cls-8 {
        fill: #0096b5;
        opacity: .15;
      }

      .cls-3 {
        stroke-dasharray: 0 0 14.5 14.5;
        stroke-width: 1.01px;
      }

      .cls-3, .cls-4, .cls-5 {
        fill: none;
      }

      .cls-4 {
        stroke-dasharray: 0 0 9.82 9.82;
      }

      .cls-6 {
        fill: #f59100;
      }
    </style>
  </defs>
  <g id="grille">
    <g id="material_system_icon_keylines"/>
  </g>
  <g id="Calque_1_-_copie" data-name="Calque 1 - copie"/>
  <g id="Calque_4" data-name="Calque 4">
    <g>
      <circle class="cls-8" cx="75.13" cy="75.21" r="72.42"/>
      <path class="cls-3" d="M135.14,74.02c.54,33.13-25.89,60.43-59.02,60.96C-3.51,133.12-5.33,19.44,74.18,15c33.13-.54,60.43,25.89,60.96,59.02h0Z"/>
      <path class="cls-4" d="M150.14,73.79c.67,41.42-32.36,75.53-73.77,76.21C-23.17,147.66-25.44,5.56,73.94,.01c41.42-.67,75.53,32.36,76.21,73.77h0Z"/>
      <g>
        <rect class="cls-2" x="21.53" y="40.94" width="107.44" height="68.61" rx="5.06" ry="5.06"/>
        <line class="cls-5" x1="26.87" y1="51.92" x2="121.53" y2="51.92"/>
        <line class="cls-5" x1="71.69" y1="47.08" x2="71.69" y2="102.96"/>
        <line class="cls-5" x1="115.82" y1="47.08" x2="115.82" y2="102.96"/>
      </g>
      <g>
        <rect class="cls-6" x="27.09" y="57.33" width="10.49" height="10.49" rx="2.04" ry="2.04"/>
        <rect class="cls-2" x="27.09" y="73.18" width="10.49" height="10.49" rx="2.04" ry="2.04"/>
        <rect class="cls-2" x="27.09" y="89.04" width="10.49" height="10.49" rx="2.04" ry="2.04"/>
      </g>
      <path class="cls-7" d="M56.19,81.74l-6.57-6.57,4.69-2.7c.37-.21,.58-.61,.55-1.03-.02-.43-.29-.81-.7-.98l-20.88-8.35c-.41-.17-.88-.07-1.19,.24-.31,.31-.41,.78-.25,1.19l8.32,20.93c.16,.39,.53,.66,.95,.69,.42,.03,.82-.18,1.03-.55l2.71-4.68,6.57,6.57c.21,.22,.49,.35,.79,.35,.29,0,.58-.11,.78-.32l3.21-3.21c.43-.43,.43-1.13,0-1.56l-.02-.02Z"/>
      <g>
        <g>
          <path class="cls-1" d="M25.94,68.34l-2.46,2.46c-.07,.07-.11,.17-.11,.26,0,.1,.04,.2,.11,.27,.15,.15,.38,.15,.53,0h0l2.46-2.46c.15-.15,.15-.38,0-.53h0c-.07-.08-.16-.12-.26-.11-.1,0-.19,.04-.26,.11Z"/>
          <path class="cls-1" d="M26.47,68.87l-2.46,2.46c-.15,.15-.38,.15-.53,0h0c-.07-.08-.11-.17-.11-.27,0-.1,.04-.19,.11-.26l2.46-2.46c.07-.07,.16-.11,.26-.11,.1,0,.2,.04,.26,.11,.15,.14,.16,.37,.02,.53h-.01Z"/>
        </g>
        <path class="cls-1" d="M31.99,50.94c-.07,.07-.11,.16-.11,.26v3.47c0,.1,.04,.2,.11,.27,.15,.15,.38,.15,.53,0h0c.07-.07,.11-.16,.11-.26l.02-3.49c0-.21-.17-.38-.38-.38-.11,0-.21,.04-.28,.12Z"/>
        <path class="cls-1" d="M26.32,56.36c.07,.07,.11,.16,.11,.26,0,.1-.04,.19-.11,.26h0c-.14,.15-.38,.15-.53,.01h0l-2.46-2.47c-.14-.15-.14-.38,.01-.53h0c.15-.15,.38-.15,.53,0h0l2.46,2.46Z"/>
        <path class="cls-1" d="M24.93,62.59c0,.21-.16,.37-.37,.38h-3.48c-.21,0-.38-.17-.38-.38,0-.1,.04-.19,.11-.26,.07-.09,.18-.14,.29-.14l3.45,.03c.21,0,.37,.17,.37,.37Z"/>
        <path class="cls-1" d="M43.34,62.59c0,.21-.16,.37-.37,.38h-3.48c-.21,0-.38-.17-.38-.38,0-.1,.04-.19,.11-.26,.07-.09,.18-.14,.29-.14l3.45,.03c.21,0,.37,.17,.37,.37Z"/>
        <path class="cls-1" d="M41.07,53.93l-2.45,2.45c-.15,.14-.15,.38-.01,.53h0c.07,.08,.16,.11,.26,.11h0c.1,0,.19-.04,.26-.11l2.46-2.46c.17-.11,.22-.34,.1-.52-.11-.17-.34-.22-.52-.1-.04,.03-.08,.06-.1,.1h-.01Z"/>
      </g>
    </g>
  </g>
</svg>