<svg xmlns="http://www.w3.org/2000/svg" xmlns:xlink="http://www.w3.org/1999/xlink" width="190" height="190" viewBox="0 0 190 190">
<defs>
<clipPath id="clip-path">
<rect id="Rectangle_238" data-name="Rectangle 238" width="190" height="190" fill="none"/>
</clipPath>
<clipPath id="clip-path-3">
<rect id="Rectangle_234" data-name="Rectangle 234" width="182.265" height="182.266" fill="none"/>
</clipPath>
</defs>
<g id="Groupe_4463" data-name="Groupe 4463" clip-path="url(#clip-path)">
<g id="Groupe_4462" data-name="Groupe 4462">
<g id="Groupe_4461" data-name="Groupe 4461" clip-path="url(#clip-path)">
<g id="cercle_bleu" data-name="cercle bleu" transform="translate(3.842 3.881)" opacity="0.15">
<g id="Groupe_4459" data-name="Groupe 4459">
<g id="Groupe_4458" data-name="Groupe 4458" clip-path="url(#clip-path-3)">
<path id="Tracé_3495" data-name="Tracé 3495" d="M185.318,94.417A91.133,91.133,0,1,1,94.186,3.285a91.132,91.132,0,0,1,91.132,91.132" transform="translate(-3.053 -3.284)" fill="#0096b5"/>
</g>
</g>
</g>
<g id="pointillé">
<path id="Tracé_3496" data-name="Tracé 3496" d="M166.489,89.763A75.505,75.505,0,1,1,89.77,15.492,75.5,75.5,0,0,1,166.489,89.763Z" transform="translate(4.002 3.75)" fill="none" stroke="#4f4f4e" stroke-linecap="round" stroke-linejoin="round" stroke-width="1.014" stroke-dasharray="14.497 14.497"/>
<path id="Tracé_3497" data-name="Tracé 3497" d="M189.243,93.342A94.382,94.382,0,1,1,93.342.5,94.38,94.38,0,0,1,189.243,93.342Z" transform="translate(0.127 -0.125)" fill="none" stroke="#4f4f4e" stroke-linecap="round" stroke-linejoin="round" stroke-width="0.982" stroke-dasharray="9.818 9.818"/>
</g>
<g id="Site">
<rect id="Rectangle_235" data-name="Rectangle 235" width="136.077" height="78.193" transform="translate(25.992 43.633)" fill="#fff"/>
<path id="Tracé_3498" data-name="Tracé 3498" d="M129.562,94.009v3.775h-3.775" transform="translate(32.506 24.043)" fill="none" stroke="#f59100" stroke-linecap="round" stroke-linejoin="round" stroke-width="0.982"/>
<line id="Ligne_81" data-name="Ligne 81" x1="110.338" transform="translate(35.83 121.826)" fill="none" stroke="#f59100" stroke-linecap="round" stroke-linejoin="round" stroke-width="0.982" stroke-dasharray="5.781 9.635"/>
<path id="Tracé_3499" data-name="Tracé 3499" d="M24.43,97.784H20.654V94.009" transform="translate(5.338 24.043)" fill="none" stroke="#f59100" stroke-linecap="round" stroke-linejoin="round" stroke-width="0.982"/>
<line id="Ligne_82" data-name="Ligne 82" y1="52.373" transform="translate(25.992 53.498)" fill="none" stroke="#f59100" stroke-linecap="round" stroke-linejoin="round" stroke-width="0.982" stroke-dasharray="5.807 9.679"/>
<path id="Tracé_3500" data-name="Tracé 3500" d="M20.654,38.648V34.873H24.43" transform="translate(5.338 8.76)" fill="none" stroke="#f59100" stroke-linecap="round" stroke-linejoin="round" stroke-width="0.982"/>
<line id="Ligne_83" data-name="Ligne 83" x2="110.338" transform="translate(41.893 43.633)" fill="none" stroke="#f59100" stroke-linecap="round" stroke-linejoin="round" stroke-width="0.982" stroke-dasharray="5.781 9.635"/>
<path id="Tracé_3501" data-name="Tracé 3501" d="M125.787,34.873h3.775v3.775" transform="translate(32.506 8.76)" fill="none" stroke="#f59100" stroke-linecap="round" stroke-linejoin="round" stroke-width="0.982"/>
<line id="Ligne_84" data-name="Ligne 84" y2="52.373" transform="translate(162.068 59.588)" fill="none" stroke="#f59100" stroke-linecap="round" stroke-linejoin="round" stroke-width="0.982" stroke-dasharray="5.807 9.679"/>
</g>
<g id="Click" transform="translate(12.576 -18.354)">
<path id="Tracé_3503" data-name="Tracé 3503" d="M113.765,119.111l-8.083-8.083,5.774-3.325a1.346,1.346,0,0,0,.672-1.268,1.364,1.364,0,0,0-.856-1.2L85.589,94.97a1.346,1.346,0,0,0-1.466.3,1.364,1.364,0,0,0-.3,1.46l10.227,25.733a1.366,1.366,0,0,0,1.168.851,1.345,1.345,0,0,0,1.268-.673l3.337-5.761,8.083,8.083a1.362,1.362,0,0,0,.978.432,1.335,1.335,0,0,0,.964-.393l3.946-3.946a1.354,1.354,0,0,0,0-1.917Z" transform="translate(21.637 24.264)" fill="#6dbd8e"/>
<path id="Tracé_3504" data-name="Tracé 3504" d="M113.765,119.111l-8.083-8.083,5.774-3.325a1.346,1.346,0,0,0,.672-1.268,1.364,1.364,0,0,0-.856-1.2L85.589,94.97a1.346,1.346,0,0,0-1.466.3,1.364,1.364,0,0,0-.3,1.46l10.227,25.733a1.366,1.366,0,0,0,1.168.851,1.345,1.345,0,0,0,1.268-.673l3.337-5.761,8.083,8.083a1.362,1.362,0,0,0,.978.432,1.335,1.335,0,0,0,.964-.393l3.946-3.946a1.354,1.354,0,0,0,0-1.917Z" transform="translate(21.637 24.264)" fill="none" stroke="#4e4e4d" stroke-miterlimit="10" stroke-width="1"/>
<path id="Tracé_3505" data-name="Tracé 3505" d="M81.374,102.932l-3.8,3.8a.625.625,0,0,0-.169.408.584.584,0,0,0,.992.417l3.8-3.805a.576.576,0,0,0,0-.815l-.008-.008a.531.531,0,0,0-.408-.167.54.54,0,0,0-.408.167" transform="translate(20.002 26.305)" fill="#4e4e4d"/>
<path id="Tracé_3506" data-name="Tracé 3506" d="M82.2,103.758l-3.805,3.8a.578.578,0,0,1-.815,0l-.008-.009a.569.569,0,0,1-.175-.415.608.608,0,0,1,.166-.408l3.8-3.805a.547.547,0,0,1,.408-.167.53.53,0,0,1,.409.167.579.579,0,0,1,.031.815l-.015.016" transform="translate(20 26.303)" fill="#4e4e4d"/>
<path id="Tracé_3507" data-name="Tracé 3507" d="M86.654,85.7a.571.571,0,0,0-.167.408l-.009,5.38a.6.6,0,0,0,.176.415.575.575,0,0,0,.983-.408l.033-5.4a.587.587,0,0,0-.584-.583.575.575,0,0,0-.432.191" transform="translate(22.348 21.846)" fill="#4e4e4d"/>
<path id="Tracé_3508" data-name="Tracé 3508" d="M78.218,89.329h0a.576.576,0,0,0,0,.815l3.8,3.8a.576.576,0,0,0,.815,0l.009-.008a.557.557,0,0,0,.167-.408.545.545,0,0,0-.167-.408l-3.813-3.813a.578.578,0,0,0-.815.016" transform="translate(20.17 22.787)" fill="#4e4e4d"/>
<path id="Tracé_3509" data-name="Tracé 3509" d="M82.833,93.139a.54.54,0,0,1,.167.408.552.552,0,0,1-.167.408.578.578,0,0,1-.815.016l-.008-.009L78.2,90.149a.582.582,0,0,1,.832-.814Z" transform="translate(20.166 22.791)" fill="#4e4e4d"/>
<path id="Tracé_3510" data-name="Tracé 3510" d="M75,97.563a.589.589,0,0,0-.584.584A.588.588,0,0,0,75,98.73l5.332.04a.58.58,0,0,0,.008-1.159Z" transform="translate(19.23 24.961)" fill="#4e4e4d"/>
<path id="Tracé_3511" data-name="Tracé 3511" d="M80.923,98.186a.577.577,0,0,1-.569.584H74.968a.589.589,0,0,1-.584-.584.656.656,0,0,1,.624-.623l5.339.048a.576.576,0,0,1,.575.575" transform="translate(19.223 24.961)" fill="#4e4e4d"/>
<path id="Tracé_3512" data-name="Tracé 3512" d="M95.615,88.746l-3.8,3.8a.578.578,0,0,0-.016.815l.009.008a.563.563,0,0,0,.408.169.622.622,0,0,0,.406-.169l3.805-3.8a.577.577,0,1,0-.8-.8Z" transform="translate(23.682 22.619)" fill="#4e4e4d"/>
</g>
<g id="Actions_illustrations" transform="translate(61.404 49.911)">
<g id="Transfert_bnf" transform="translate(0 0.003)">
<g id="Groupe_21218" data-name="Groupe 21218" opacity="0.6">
<path id="Tracé_18081" data-name="Tracé 18081" d="M45.377,41.755H45.26a3.219,3.219,0,0,0,3.2-2.623,3.251,3.251,0,0,0-.634-2.564l.653-4.631a6.244,6.244,0,0,0-5.226-7.03l-.107-.02a8.116,8.116,0,0,0-4.709-3.578l-.234-.068a9.364,9.364,0,0,0-10.481,4.076,12.551,12.551,0,0,0-1.043,11.076,3.194,3.194,0,0,0-.8,2.623,3.236,3.236,0,0,0,3.218,2.74h0A8.229,8.229,0,0,0,32.36,47.04v1.8a1.664,1.664,0,0,0-.488.292l-1.619,1.375a1.753,1.753,0,0,0-.6,1.375l-3.959,2.73a8.037,8.037,0,0,0-3.461,6.62v3.89a.965.965,0,1,0,1.931.029v-3.9a6.118,6.118,0,0,1,2.652-5.041l3.783-2.6,1.541,2.057a1.81,1.81,0,0,0,1.443.722,1.571,1.571,0,0,0,.429-.059l.371,1.453a1.681,1.681,0,0,0,.371.7l-.926,6.591a.957.957,0,0,0,.809,1.082h.136a.954.954,0,0,0,.946-.819l.887-6.279h1.346l.887,6.279a.954.954,0,0,0,.946.819.883.883,0,0,0,.6-.224,1.013,1.013,0,0,0,.332-.917l-.926-6.542a1.624,1.624,0,0,0,.371-.7l.371-1.453a1.68,1.68,0,0,0,.429.059,1.824,1.824,0,0,0,1.443-.722L43.943,53.6,45.7,54.81a.915.915,0,0,0,.536.166.965.965,0,0,0,.858-.527,1.025,1.025,0,0,0-.341-1.238l-1.921-1.326a1.705,1.705,0,0,0-.6-1.375l-1.619-1.375a1.712,1.712,0,0,0-.5-.293v-1.8a8.248,8.248,0,0,0,3.276-5.294h0Zm.185-1.94V37.231a1.288,1.288,0,0,1,0,2.574h0Zm1.219-8.171-.527,3.764a3.282,3.282,0,0,0-.692-.088v-.039A7.19,7.19,0,0,0,44.285,31.2a8.2,8.2,0,0,0,0-4.1,4.33,4.33,0,0,1,2.506,4.534Zm-17.4-5.363a7.51,7.51,0,0,1,8.385-3.247l.156.039a6.366,6.366,0,0,1,3.764,2.847,6.284,6.284,0,0,1,.887,3.52l-.556-.478a1.59,1.59,0,0,0-2.038-.029l-.8.644H34.544a5.509,5.509,0,0,0-5.509,5.509V35.3a2.9,2.9,0,0,0-.644.078,10.584,10.584,0,0,1,.995-9.1h0ZM27.788,38.528a1.289,1.289,0,0,1,1.238-1.287v2.584a1.289,1.289,0,0,1-1.238-1.287h0Zm3.169,1.823V35.1a3.6,3.6,0,0,1,3.6-3.6h5a.994.994,0,0,0,.6-.214l.858-.692.8.683a5.28,5.28,0,0,1,1.843,4.007v4.973a6.348,6.348,0,1,1-12.695.1h0Zm.76,11.486,1.394-1.18,3.237,1.589V53.6l-2.7.819Zm7,3.939-.351,1.365H36.2l-.351-1.365,1.433-.439ZM42.9,51.837,40.97,54.42l-2.7-.819V52.246l3.237-1.589Zm-2.7-2.691-2.945,1.443L34.31,49.146V48.054a8.213,8.213,0,0,0,5.889,0Z" transform="translate(-0.556 -0.525)" fill="#585857"/>
<path id="Tracé_18082" data-name="Tracé 18082" d="M50.787,56.662a.963.963,0,1,0-1.414,1.307,6.136,6.136,0,0,1,1.6,4.134v3.939a.965.965,0,1,0,1.931.029V62.1A8.075,8.075,0,0,0,50.8,56.662h0Z" transform="translate(-1.228 -1.411)" fill="#585857"/>
<path id="Tracé_18083" data-name="Tracé 18083" d="M28.575,61.27a.967.967,0,0,0-.965.965v3.842a.965.965,0,1,0,1.931.029V62.235a.967.967,0,0,0-.965-.965Z" transform="translate(-0.69 -1.534)" fill="#585857"/>
<path id="Tracé_18084" data-name="Tracé 18084" d="M46.725,61.27a.967.967,0,0,0-.965.965v3.842a.965.965,0,1,0,1.931.029V62.235a.967.967,0,0,0-.965-.965h0Z" transform="translate(-1.144 -1.534)" fill="#585857"/>
<path id="Tracé_18085" data-name="Tracé 18085" d="M1.921,41.709a6.085,6.085,0,0,1,1.16-3.588A.951.951,0,0,0,3.1,37a.962.962,0,0,0-1.57-.01A7.956,7.956,0,0,0,0,41.709v3.939a.974.974,0,0,0,.751.965.967.967,0,0,0,1.18-.936V41.709Z" transform="translate(0 -0.917)" fill="#585857"/>
<path id="Tracé_18086" data-name="Tracé 18086" d="M22.845,33.95a.915.915,0,0,0,.536.166.946.946,0,0,0,.878-.6,1.036,1.036,0,0,0-.37-1.16l-1.248-.868a1.74,1.74,0,0,0-.595-1.375l-1.609-1.375a1.664,1.664,0,0,0-.488-.292v-1.8A8.267,8.267,0,0,0,23.2,21.353h-.029a3.2,3.2,0,0,0,3.159-2.516,3.242,3.242,0,0,0-.9-2.993l.331-.653a5.358,5.358,0,0,0,.361-3.939l-.049-.166.312-1.4a5.389,5.389,0,0,0-1.619-5.168l-.448-.41a5.271,5.271,0,0,0-5.012-2.974l-.419.02L16.995.39a5.223,5.223,0,0,0-3.949,0l-1.892.761-.419-.02A5.287,5.287,0,0,0,5.724,4.1l-.458.419A5.338,5.338,0,0,0,3.657,9.662l.322,1.424-.049.166a5.385,5.385,0,0,0,.361,3.929l.4.78a3.214,3.214,0,0,0,2.389,5.392h0a8.243,8.243,0,0,0,3.247,5.285v1.8a1.664,1.664,0,0,0-.488.292L8.229,30.108a1.713,1.713,0,0,0-.595,1.375L5.1,33.248a1.051,1.051,0,0,0-.371,1.16.946.946,0,0,0,.878.6.99.99,0,0,0,.536-.166L8.512,33.2l1.521,2.057a1.787,1.787,0,0,0,1.424.722,1.9,1.9,0,0,0,.517-.078l2.194-.673v9.4a.965.965,0,1,0,1.931.029V35.227l2.194.673a1.843,1.843,0,0,0,.517.078,1.787,1.787,0,0,0,1.424-.722L21.753,33.2l1.073.751Zm.448-14.557V16.809a1.288,1.288,0,0,1,0,2.574ZM5.646,18.106a1.289,1.289,0,0,1,1.238-1.287V19.4a1.289,1.289,0,0,1-1.238-1.287Zm1.238-5.4v2.223a2.751,2.751,0,0,0-.634.078l-.868-1.687a.658.658,0,0,1-.049-.488l.488-1.658a.3.3,0,0,0,0-.1l-.78-3.452a.669.669,0,0,1,.2-.644l1.94-1.755a.243.243,0,0,0,.049-.068,3.447,3.447,0,0,1,3.383-2.184L11.252,3a1.112,1.112,0,0,0,.4-.068l2.116-.848a3.455,3.455,0,0,1,2.574,0l2.116.848a.935.935,0,0,0,.4.068l.634-.029a3.447,3.447,0,0,1,3.383,2.184.175.175,0,0,0,.049.068l1.94,1.755a.692.692,0,0,1,.2.644l-.78,3.452v.1l.488,1.658a.649.649,0,0,1-.049.488l-.848,1.658a2.528,2.528,0,0,0-.468-.039V12.909a.273.273,0,0,0-.02-.107,1.972,1.972,0,0,0-2.282-1.472l-1.375.273a.518.518,0,0,1-.507-.166,2.034,2.034,0,0,0-2.623-.468l-1.219.722a.449.449,0,0,1-.468,0l-2.057-1.219a.385.385,0,0,0-.371-.01l-1.794.9a.547.547,0,0,1-.351.049l-1.121-.244a1.972,1.972,0,0,0-2.311,1.453.489.489,0,0,0-.019.117ZM8.8,19.939V12.968l.351.078a4.726,4.726,0,0,0,3.1-.39l.283-.146s.078-.02.107,0l.293.175a4.321,4.321,0,0,0,4.417,0l.224-.137s.088-.019.117,0a4.733,4.733,0,0,0,3.491.653l.3-.059h0v6.708a6.347,6.347,0,1,1-12.695.078h0Zm6.279,8.229a8.225,8.225,0,0,0,2.945-.546v1.092l-2.945,1.443-2.945-1.443V27.622A8.225,8.225,0,0,0,15.084,28.168Zm-3.6,5.821L9.555,31.4l1.394-1.18,3.237,1.589V33.17Zm7.322,0-2.7-.819V31.814l3.237-1.589,1.394,1.18-1.931,2.584Z" transform="translate(-0.088 -0.003)" fill="#585857"/>
<path id="Tracé_18087" data-name="Tracé 18087" d="M7.311,45.686V41.845a.965.965,0,1,0-1.931-.029v3.842a.965.965,0,1,0,1.931.029Z" transform="translate(-0.134 -1.024)" fill="#585857"/>
<path id="Tracé_18088" data-name="Tracé 18088" d="M23.54,41.825v3.842a.965.965,0,1,0,1.931.029V41.855a.965.965,0,1,0-1.931-.029Z" transform="translate(-0.588 -1.024)" fill="#585857"/>
<path id="Tracé_18089" data-name="Tracé 18089" d="M13.011,62.08a11.564,11.564,0,0,1-2.243-6.435H12.3a1.327,1.327,0,0,0,1.092-.546,1.285,1.285,0,0,0-.146-1.658L8.584,48.81a1.289,1.289,0,0,0-1.814,0L2.11,53.442A1.285,1.285,0,0,0,1.964,55.1a1.327,1.327,0,0,0,1.092.546h1.55a9.736,9.736,0,0,0,5.48,8.346l2.1,1a1.251,1.251,0,0,0,.556.127,1.286,1.286,0,0,0,1.131-.682,1.3,1.3,0,0,0-.117-1.375l-.722-.995ZM6.576,55.265V54.69a.957.957,0,0,0-.956-.956H4.626l3.11-3.13,3.11,3.13H9.852a.957.957,0,0,0-.956.956v.5a13.656,13.656,0,0,0,1.94,7.04,7.831,7.831,0,0,1-4.251-6.952Z" transform="translate(-0.043 -1.213)" fill="#f59100"/>
<path id="Tracé_18090" data-name="Tracé 18090" d="M37.045,5.2a11.776,11.776,0,0,1,2.213,6.464H37.591a1.03,1.03,0,0,0-.556.166,1.344,1.344,0,0,0-.234,2.048l4.6,4.661a1.238,1.238,0,0,0,.9.371,1.278,1.278,0,0,0,.9-.371l4.6-4.661a1.338,1.338,0,0,0-.234-2.048.933.933,0,0,0-.556-.166H45.332a10.2,10.2,0,0,0-.215-1.716A.942.942,0,0,0,44,9.218a.971.971,0,0,0-.722,1.151,8.2,8.2,0,0,1,.185,1.687V12.9a.7.7,0,0,0,.7.7H45.42l-3.11,3.149L39.2,13.605h1.258a.7.7,0,0,0,.7-.7v-.761a13.8,13.8,0,0,0-1.94-7.079,7.581,7.581,0,0,1,2.525,2.057.686.686,0,0,0,.614.263.987.987,0,0,0,.751-1.609,9.568,9.568,0,0,0-3.159-2.5L37.766,2.207a.952.952,0,0,0-.712-.059,1.316,1.316,0,0,0-.741,2.038l.741,1.024Z" transform="translate(-0.902 -0.055)" fill="#f59100"/>
</g>
</g>
</g>
</g>
</g>
</g>
</svg>