<?xml version="1.0" encoding="UTF-8"?>
<svg data-name="Groupe 4478" viewBox="0 0 190 190" xmlns="http://www.w3.org/2000/svg">
<defs>
<clipPath id="a">
<rect width="190" height="190" fill="none" data-name="Rectangle 250"/>
</clipPath>
<clipPath id="b">
<rect width="182.74" height="182.28" fill="none" data-name="Rectangle 244"/>
</clipPath>
</defs>
<g clip-path="url(#a)" data-name="Groupe 4477">
<g data-name="Groupe 4476">
<g clip-path="url(#a)" data-name="Groupe 4475">
<g transform="translate(3.352 4.134)" opacity=".15" data-name="Groupe 4474">
<g data-name="Groupe 4473">
<g clip-path="url(#b)" data-name="Groupe 4472">
<path transform="translate(-2.657 -3.285)" d="M185.4,94.424A91.372,91.372,0,1,1,94.03,3.286,91.255,91.255,0,0,1,185.4,94.424" fill="#0096b5" data-name="Tracé 3531"/>
</g>
</g>
</g>
<path transform="translate(4.033 4.002)" d="m166.41 89.769a75.6 75.6 0 0 1-74.466 76.725c-100.47-2.352-102.77-145.42-2.454-151a75.613 75.613 0 0 1 76.92 74.275z" fill="none" stroke="#4f4f4e" stroke-dasharray="14.497 14.497" stroke-linecap="round" stroke-linejoin="round" stroke-width="1.014" data-name="Tracé 3532"/>
<path transform="translate(.128 .127)" d="M189.238,93.349a94.5,94.5,0,0,1-93.082,95.905C-29.433,186.314-32.3,7.487,93.088.5A94.518,94.518,0,0,1,189.238,93.349Z" fill="none" stroke="#4f4f4e" stroke-dasharray="9.818 9.818" stroke-linecap="round" stroke-linejoin="round" stroke-width=".982" data-name="Tracé 3533"/>
<path transform="translate(5.62 10.71)" d="M150.644,127.783H27.86a6.378,6.378,0,0,1-6.386-6.371V47.8a6.378,6.378,0,0,1,6.386-6.371H150.644a6.379,6.379,0,0,1,6.387,6.371v73.61a6.379,6.379,0,0,1-6.387,6.371" fill="#fff" data-name="Tracé 3534"/>
<path transform="translate(27.094 52.143)" d="M5.062,0H130.5a5.061,5.061,0,0,1,5.061,5.061V81.289a5.062,5.062,0,0,1-5.062,5.062H5.062A5.062,5.062,0,0,1,0,81.289V5.062A5.062,5.062,0,0,1,5.062,0Z" fill="none" stroke="#4f4f4e" stroke-linecap="round" stroke-linejoin="round" stroke-width=".982" data-name="Rectangle 245"/>
<line transform="translate(33.826 65.961)" x2="119.44" fill="none" stroke="#4f4f4e" stroke-linecap="round" stroke-linejoin="round" stroke-width=".982" data-name="Ligne 95"/>
<line transform="translate(90.376 59.865)" y2="70.328" fill="none" stroke="#4f4f4e" stroke-linecap="round" stroke-linejoin="round" stroke-width=".982" data-name="Ligne 96"/>
<line transform="translate(146.06 59.865)" y2="70.328" fill="none" stroke="#4f4f4e" stroke-linecap="round" stroke-linejoin="round" stroke-width=".982" data-name="Ligne 97"/>
<path transform="translate(7.074 14.946)" d="m37.7 71.02h-8.1a2.566 2.566 0 0 1-2.569-2.564v-8.075a2.566 2.566 0 0 1 2.569-2.564h8.1a2.567 2.567 0 0 1 2.57 2.564v8.076a2.567 2.567 0 0 1-2.57 2.563" fill="#f59100" data-name="Tracé 3535"/>
<path transform="translate(34.105 72.762)" d="M2.037,0H11.2a2.036,2.036,0,0,1,2.036,2.036v9.13A2.037,2.037,0,0,1,11.2,13.2H2.037A2.037,2.037,0,0,1,0,11.166V2.037A2.037,2.037,0,0,1,2.037,0Z" fill="none" stroke="#4f4f4e" stroke-linecap="round" stroke-linejoin="round" stroke-width=".982" data-name="Rectangle 246"/>
<path transform="translate(7.074 19.045)" d="m37.7 86.876h-8.1a2.566 2.566 0 0 1-2.569-2.564v-8.075a2.566 2.566 0 0 1 2.569-2.564h8.1a2.567 2.567 0 0 1 2.57 2.564v8.076a2.567 2.567 0 0 1-2.57 2.564" fill="#fff" data-name="Tracé 3536"/>
<path transform="translate(34.105 92.717)" d="M2.037,0H11.2a2.036,2.036,0,0,1,2.036,2.036v9.13A2.037,2.037,0,0,1,11.2,13.2H2.037A2.037,2.037,0,0,1,0,11.166V2.037A2.037,2.037,0,0,1,2.037,0Z" fill="none" stroke="#4f4f4e" stroke-linecap="round" stroke-linejoin="round" stroke-width=".982" data-name="Rectangle 247"/>
<path transform="translate(7.074 23.143)" d="m37.7 102.73h-8.1a2.566 2.566 0 0 1-2.569-2.564v-8.075a2.566 2.566 0 0 1 2.569-2.564h8.1a2.567 2.567 0 0 1 2.57 2.564v8.076a2.567 2.567 0 0 1-2.57 2.564" fill="#fff" data-name="Tracé 3537"/>
<path transform="translate(34.105 112.67)" d="M2.037,0H11.2a2.036,2.036,0,0,1,2.036,2.036v9.13A2.037,2.037,0,0,1,11.2,13.2H2.037A2.037,2.037,0,0,1,0,11.166V2.037A2.037,2.037,0,0,1,2.037,0Z" fill="none" stroke="#4f4f4e" stroke-linecap="round" stroke-linejoin="round" stroke-width=".982" data-name="Rectangle 248"/>
<path transform="translate(8.299 16.16)" d="M62.528,87.323l-8.293-8.272,5.924-3.4a1.376,1.376,0,0,0,.69-1.3,1.4,1.4,0,0,0-.879-1.227L33.62,62.617a1.391,1.391,0,0,0-1.816,1.8L42.3,90.751a1.4,1.4,0,0,0,1.2.87,1.379,1.379,0,0,0,1.3-.688l3.424-5.895,8.293,8.272a1.4,1.4,0,0,0,1,.442,1.382,1.382,0,0,0,.99-.4l4.049-4.039a1.384,1.384,0,0,0,0-1.961Z" fill="#6dbd8e" data-name="Tracé 3538"/>
<path transform="translate(8.299 16.16)" d="M62.528,87.323l-8.293-8.272,5.924-3.4a1.376,1.376,0,0,0,.69-1.3,1.4,1.4,0,0,0-.879-1.227L33.62,62.617a1.391,1.391,0,0,0-1.816,1.8L42.3,90.751a1.4,1.4,0,0,0,1.2.87,1.379,1.379,0,0,0,1.3-.688l3.424-5.895,8.293,8.272a1.4,1.4,0,0,0,1,.442,1.382,1.382,0,0,0,.99-.4l4.049-4.039a1.384,1.384,0,0,0,0-1.961Z" fill="none" stroke="#4e4e4d" data-name="Tracé 3539"/>
<path transform="translate(6.104 17.765)" d="M26.557,68.858l-3.1,3.091a.5.5,0,0,0-.136.331.475.475,0,0,0,.808.337l3.1-3.091a.466.466,0,0,0,0-.662l-.006-.006a.43.43,0,0,0-.332-.136.439.439,0,0,0-.332.136" fill="#4e4e4d" data-name="Tracé 3540"/>
<path transform="translate(6.103 17.763)" d="M27.23,69.528l-3.1,3.091a.471.471,0,0,1-.664,0l-.006-.006a.472.472,0,0,1-.144-.339.508.508,0,0,1,.138-.331l3.1-3.091a.446.446,0,0,1,.333-.136.434.434,0,0,1,.332.136.467.467,0,0,1,.025.662l-.013.014" fill="#4e4e4d" data-name="Tracé 3541"/>
<path transform="translate(8.328 13.261)" d="M31.964,51.457a.462.462,0,0,0-.136.331l-.008,4.37a.5.5,0,0,0,.144.339.469.469,0,0,0,.8-.332l.025-4.388a.478.478,0,0,0-.474-.474.473.473,0,0,0-.352.156" fill="#4e4e4d" data-name="Tracé 3542"/>
<path transform="translate(6.063 14.032)" d="M27.074,57.508a.436.436,0,0,1,.136.331.448.448,0,0,1-.136.331.471.471,0,0,1-.664.014l-.006-.008-3.105-3.1a.473.473,0,0,1,.676-.662Z" fill="#4e4e4d" data-name="Tracé 3543"/>
<path transform="translate(5.405 16.201)" d="M25.974,63.179a.47.47,0,0,1-.464.474H21.124a.478.478,0,0,1-.474-.474.531.531,0,0,1,.507-.506l4.349.039a.467.467,0,0,1,.468.467" fill="#4e4e4d" data-name="Tracé 3544"/>
<path transform="translate(10.224 16.201)" d="M44.388,63.179a.47.47,0,0,1-.464.474H39.538a.478.478,0,0,1-.474-.474.531.531,0,0,1,.507-.506l4.349.039a.467.467,0,0,1,.468.467" fill="#4e4e4d" data-name="Tracé 3545"/>
<path transform="translate(10.062 14.026)" d="M41.682,54.456,38.59,57.541a.468.468,0,0,0-.014.662l.008.006a.464.464,0,0,0,.332.136.5.5,0,0,0,.332-.136l3.1-3.091a.468.468,0,1,0-.519-.779.459.459,0,0,0-.131.13Z" fill="#4e4e4d" data-name="Tracé 3546"/>
</g>
</g>
</g>
</svg>