<?xml version="1.0" encoding="UTF-8"?>
<svg xmlns="http://www.w3.org/2000/svg" width="150.5" height="150.5" viewBox="0 0 150.5 150.5">
  <defs>
    <style>
      .cls-1, .cls-2, .cls-3, .cls-4, .cls-5, .cls-6, .cls-7 {
        stroke-linecap: round;
        stroke-linejoin: round;
      }

      .cls-1, .cls-2, .cls-4, .cls-6 {
        stroke: #4f4f4e;
      }

      .cls-1, .cls-8 {
        fill: #fff;
      }

      .cls-2, .cls-3, .cls-4, .cls-5, .cls-6, .cls-7 {
        fill: none;
      }

      .cls-9 {
        fill: #4e4e4d;
      }

      .cls-3 {
        stroke-dasharray: 0 0 5.78 9.64;
      }

      .cls-3, .cls-5, .cls-6, .cls-7 {
        stroke-width: .98px;
      }

      .cls-3, .cls-5, .cls-7 {
        stroke: #f59100;
      }

      .cls-10 {
        fill: #6dbd8e;
        stroke: #4e4e4d;
        stroke-miterlimit: 10;
      }

      .cls-11 {
        fill: #0096b5;
        opacity: .15;
      }

      .cls-4 {
        stroke-dasharray: 0 0 14.5 14.5;
        stroke-width: 1.01px;
      }

      .cls-6 {
        stroke-dasharray: 0 0 9.82 9.82;
      }

      .cls-7 {
        stroke-dasharray: 0 0 5.81 9.68;
      }
    </style>
  </defs>
  <g id="grille">
    <g id="material_system_icon_keylines"/>
  </g>
  <g id="Calque_1_-_copie" data-name="Calque 1 - copie"/>
  <g id="Calque_4" data-name="Calque 4">
    <g>
      <circle class="cls-11" cx="75.13" cy="75.21" r="72.42"/>
      <path class="cls-4" d="M135.14,74.02c.54,33.13-25.89,60.43-59.02,60.97C-3.51,133.12-5.33,19.44,74.18,15c33.13-.54,60.43,25.89,60.96,59.02h0Z"/>
      <path class="cls-6" d="M150.14,73.79c.67,41.42-32.36,75.53-73.77,76.21C-23.17,147.66-25.44,5.56,73.94,.01c41.42-.67,75.53,32.36,76.21,73.77h0Z"/>
      <g>
        <rect class="cls-8" x="20.32" y="34.38" width="108.13" height="62.14"/>
        <g>
          <polyline class="cls-5" points="128.45 93.52 128.45 96.52 125.45 96.52"/>
          <line class="cls-3" x1="115.81" y1="96.52" x2="28.13" y2="96.52"/>
          <polyline class="cls-5" points="23.32 96.52 20.32 96.52 20.32 93.52"/>
          <line class="cls-7" x1="20.32" y1="83.84" x2="20.32" y2="42.22"/>
          <polyline class="cls-5" points="20.32 37.38 20.32 34.38 23.32 34.38"/>
          <line class="cls-3" x1="32.95" y1="34.38" x2="120.63" y2="34.38"/>
          <polyline class="cls-5" points="125.45 34.38 128.45 34.38 128.45 37.38"/>
          <line class="cls-7" x1="128.45" y1="47.06" x2="128.45" y2="88.68"/>
        </g>
      </g>
      <g>
        <rect class="cls-1" x="44.04" y="44.93" width="59.95" height="79.54" rx="1.22" ry="1.22"/>
        <line class="cls-2" x1="53.66" y1="55.03" x2="89.21" y2="55.03"/>
        <line class="cls-2" x1="53.66" y1="64.58" x2="80.45" y2="64.58"/>
        <line class="cls-2" x1="53.6" y1="74.52" x2="70.68" y2="74.52"/>
      </g>
      <g id="Calque_1" data-name="Calque 1">
        <g>
          <path class="cls-10" d="M107.26,113.64l-6.42-6.42,4.59-2.64c.36-.21,.57-.6,.53-1.01-.02-.42-.29-.8-.68-.95l-20.41-8.16c-.4-.16-.86-.07-1.16,.24-.3,.3-.4,.76-.24,1.16l8.13,20.45c.15,.38,.51,.65,.93,.68,.41,.03,.8-.18,1.01-.53l2.65-4.58,6.42,6.42c.2,.22,.48,.34,.78,.34,.29,0,.56-.11,.77-.31l3.14-3.14c.42-.42,.42-1.1,0-1.52l-.02-.02Z"/>
          <g>
            <path class="cls-9" d="M80.22,102.41l-3.02,3.02c-.08,.09-.13,.2-.13,.32,0,.12,.05,.24,.14,.33,.18,.18,.47,.18,.65,0h0l3.02-3.02c.18-.18,.18-.47,0-.65h0c-.08-.1-.2-.14-.32-.14-.12,0-.24,.05-.32,.13Z"/>
            <path class="cls-9" d="M80.87,103.06l-3.02,3.02c-.18,.18-.47,.18-.65,0h0c-.09-.09-.14-.21-.14-.34,0-.12,.05-.24,.13-.32l3.02-3.02c.08-.09,.2-.14,.32-.13,.12,0,.24,.04,.32,.13,.19,.17,.2,.46,.03,.65h-.01Z"/>
          </g>
          <g>
            <path class="cls-9" d="M86.28,85.17c-.09,.09-.13,.2-.13,.32v4.27c0,.12,.05,.24,.13,.33,.18,.18,.47,.18,.65,0h0c.09-.09,.13-.2,.13-.32l.03-4.29c0-.26-.21-.46-.46-.46-.13,0-.26,.05-.34,.15Z"/>
            <g>
              <path class="cls-9" d="M77.84,88.8h0c-.18,.18-.18,.47,0,.65h0l3.02,3.02c.18,.18,.47,.18,.65,0h0c.09-.09,.14-.21,.13-.33,0-.12-.05-.24-.13-.32l-3.03-3.03c-.18-.18-.47-.17-.65,.01h0Z"/>
              <path class="cls-9" d="M81.51,91.83c.09,.08,.14,.2,.13,.32,0,.12-.05,.24-.13,.32h0c-.18,.18-.47,.19-.65,.01h0l-3.03-3.04c-.18-.18-.17-.47,.01-.65h0c.18-.18,.47-.18,.65,0h0l3.02,3.02Z"/>
              <g>
                <path class="cls-9" d="M74.54,97.07c-.12,0-.24,.05-.33,.14-.09,.09-.13,.2-.13,.32,0,.26,.21,.46,.46,.46l4.24,.03c.25,0,.46-.2,.46-.46,0-.25-.2-.46-.46-.46h0l-4.24-.04Z"/>
                <path class="cls-9" d="M79.24,97.57c0,.25-.2,.46-.45,.46h-4.28c-.26,0-.46-.21-.46-.46,0-.12,.05-.24,.13-.32,.09-.11,.22-.17,.36-.17l4.24,.04c.25,0,.46,.2,.46,.46Z"/>
              </g>
            </g>
          </g>
          <path class="cls-9" d="M94.46,88.21l-3.02,3.02c-.18,.18-.19,.47-.01,.65h0c.09,.09,.2,.14,.32,.14h0c.12,0,.24-.05,.32-.13l3.02-3.02c.21-.14,.27-.42,.13-.64-.14-.21-.42-.27-.64-.13-.05,.03-.09,.08-.13,.13h-.01Z"/>
        </g>
      </g>
    </g>
  </g>
</svg>