<?xml version="1.0" encoding="UTF-8"?>
<svg width="115px" height="115px" viewBox="0 0 115 115" version="1.1" xmlns="http://www.w3.org/2000/svg" xmlns:xlink="http://www.w3.org/1999/xlink">
    <!-- Generator: Sketch 52.6 (67491) - http://www.bohemiancoding.com/sketch -->
    <title>illustration/Email/vérification</title>
    <desc>Created with Sketch.</desc>
    <g id="illustration/Email/vérification" stroke="none" stroke-width="1" fill="none" fill-rule="evenodd">
        <g id="Group-27">
            <path d="M78.7766,19.5137 C78.6646,19.5137 78.5496,19.4857 78.4456,19.4257 C74.0006,16.8727 69.1866,15.1387 64.1386,14.2707 C63.7776,14.2087 63.5346,13.8647 63.5956,13.5027 C63.6586,13.1407 63.9986,12.8957 64.3646,12.9597 C69.5666,13.8537 74.5266,15.6407 79.1086,18.2717 C79.4266,18.4547 79.5366,18.8617 79.3536,19.1807 C79.2306,19.3937 79.0066,19.5137 78.7766,19.5137 M34.3236,19.6457 C34.0946,19.6457 33.8716,19.5277 33.7476,19.3157 C33.5636,18.9977 33.6706,18.5917 33.9886,18.4067 C38.5536,15.7477 43.5036,13.9307 48.6966,13.0067 C49.0576,12.9437 49.4036,13.1827 49.4686,13.5447 C49.5326,13.9067 49.2926,14.2517 48.9306,14.3167 C43.8906,15.2137 39.0886,16.9767 34.6566,19.5557 C34.5506,19.6177 34.4366,19.6457 34.3236,19.6457 M98.4106,42.7347 C98.1396,42.7347 97.8846,42.5687 97.7866,42.2997 C96.0206,37.5057 93.4436,33.0867 90.1266,29.1667 C89.8896,28.8867 89.9246,28.4677 90.2046,28.2297 C90.4866,27.9937 90.9046,28.0277 91.1426,28.3077 C94.5586,32.3467 97.2136,36.8997 99.0346,41.8407 C99.1606,42.1847 98.9846,42.5667 98.6396,42.6937 C98.5636,42.7217 98.4866,42.7347 98.4106,42.7347 M14.8256,42.9867 C14.7506,42.9867 14.6736,42.9737 14.5996,42.9467 C14.2546,42.8217 14.0756,42.4407 14.2006,42.0957 C15.9916,37.1407 18.6206,32.5707 22.0146,28.5117 C22.2496,28.2297 22.6706,28.1917 22.9516,28.4287 C23.2326,28.6627 23.2706,29.0827 23.0346,29.3647 C19.7416,33.3047 17.1896,37.7397 15.4506,42.5477 C15.3526,42.8187 15.0976,42.9867 14.8256,42.9867 M98.4706,73.3197 C98.3956,73.3197 98.3186,73.3067 98.2446,73.2797 C97.8976,73.1537 97.7196,72.7717 97.8456,72.4267 C99.5886,67.6337 100.4736,62.5937 100.4736,57.4457 L100.4726,57.2637 C100.4726,56.8967 100.7706,56.5987 101.1376,56.5987 C101.5056,56.5987 101.8016,56.8967 101.8016,57.2637 L101.8026,57.4347 C101.8026,62.7487 100.8926,67.9427 99.0956,72.8817 C98.9976,73.1517 98.7426,73.3197 98.4706,73.3197 M14.8866,73.4007 C14.6156,73.4007 14.3616,73.2337 14.2616,72.9637 C12.4556,68.0307 11.5336,62.8407 11.5246,57.5377 C11.5236,57.1707 11.8196,56.8727 12.1876,56.8717 L12.1886,56.8717 C12.5556,56.8717 12.8536,57.1687 12.8536,57.5347 C12.8636,62.6817 13.7576,67.7197 15.5116,72.5067 C15.6366,72.8517 15.4606,73.2337 15.1156,73.3597 C15.0406,73.3877 14.9636,73.4007 14.8866,73.4007 M78.9256,96.6197 C78.6956,96.6197 78.4726,96.5007 78.3486,96.2877 C78.1656,95.9707 78.2736,95.5637 78.5916,95.3797 C83.0196,92.8147 86.9366,89.5227 90.2346,85.5947 C90.4706,85.3117 90.8916,85.2767 91.1716,85.5127 C91.4526,85.7487 91.4896,86.1687 91.2536,86.4497 C87.8556,90.4967 83.8206,93.8887 79.2576,96.5307 C79.1526,96.5907 79.0396,96.6197 78.9256,96.6197 M34.4706,96.6617 C34.3596,96.6617 34.2446,96.6327 34.1396,96.5727 C29.5746,93.9387 25.5316,90.5547 22.1266,86.5127 C21.8886,86.2317 21.9256,85.8117 22.2066,85.5757 C22.4886,85.3377 22.9056,85.3727 23.1436,85.6557 C26.4496,89.5787 30.3736,92.8637 34.8036,95.4207 C35.1226,95.6037 35.2316,96.0107 35.0476,96.3287 C34.9246,96.5417 34.7016,96.6617 34.4706,96.6617 M56.6636,102.5847 C54.0476,102.5847 51.4266,102.3597 48.8726,101.9147 C48.5106,101.8517 48.2686,101.5077 48.3326,101.1457 C48.3946,100.7847 48.7386,100.5447 49.1006,100.6037 C54.0856,101.4717 59.3236,101.4667 64.3096,100.5897 C64.6636,100.5227 65.0146,100.7667 65.0796,101.1297 C65.1436,101.4907 64.9016,101.8357 64.5396,101.8997 C61.9586,102.3537 59.3086,102.5847 56.6636,102.5847" id="Fill-1" fill="#76B0BD"></path>
            <path d="M53.6945,1.8208 C53.2435,1.8208 52.8645,1.4698 52.8385,1.0128 C52.8085,0.5398 53.1705,0.1328 53.6435,0.1038 C55.8405,-0.0282 58.0875,-0.0332 60.2835,0.0838 C60.7565,0.1098 61.1205,0.5148 61.0935,0.9878 C61.0695,1.4628 60.6665,1.8328 60.1905,1.7998 C58.0605,1.6858 55.8795,1.6918 53.7475,1.8198 C53.7295,1.8208 53.7125,1.8208 53.6945,1.8208 M73.1055,4.0158 C73.0255,4.0158 72.9425,4.0048 72.8615,3.9808 C70.8095,3.3748 68.6985,2.8828 66.5895,2.5208 C66.1225,2.4398 65.8075,1.9958 65.8875,1.5278 C65.9685,1.0598 66.4145,0.7488 66.8815,0.8268 C69.0555,1.2008 71.2325,1.7068 73.3485,2.3318 C73.8035,2.4668 74.0635,2.9448 73.9285,3.3998 C73.8195,3.7738 73.4765,4.0158 73.1055,4.0158 M40.8385,4.1128 C40.4685,4.1128 40.1275,3.8738 40.0155,3.5018 C39.8785,3.0478 40.1345,2.5688 40.5905,2.4308 C42.7005,1.7938 44.8745,1.2738 47.0485,0.8858 C47.5175,0.8028 47.9635,1.1148 48.0465,1.5818 C48.1295,2.0488 47.8175,2.4948 47.3505,2.5788 C45.2415,2.9538 43.1325,3.4588 41.0865,4.0758 C41.0035,4.1018 40.9205,4.1128 40.8385,4.1128 M85.1165,9.1558 C84.9715,9.1558 84.8245,9.1188 84.6895,9.0418 C82.8295,7.9738 80.8885,7.0068 78.9235,6.1648 C78.4875,5.9778 78.2855,5.4728 78.4715,5.0368 C78.6605,4.5998 79.1655,4.3978 79.5995,4.5848 C81.6265,5.4518 83.6275,6.4498 85.5455,7.5508 C85.9565,7.7868 86.0985,8.3118 85.8625,8.7238 C85.7035,9.0008 85.4145,9.1558 85.1165,9.1558 M28.8685,9.3218 C28.5715,9.3218 28.2835,9.1688 28.1245,8.8948 C27.8855,8.4848 28.0245,7.9578 28.4335,7.7198 C30.3425,6.6088 32.3355,5.5998 34.3565,4.7208 C34.7915,4.5338 35.2985,4.7298 35.4875,5.1658 C35.6765,5.6008 35.4775,6.1078 35.0425,6.2968 C33.0825,7.1498 31.1505,8.1278 29.2995,9.2048 C29.1635,9.2838 29.0145,9.3218 28.8685,9.3218 M95.6155,16.9288 C95.4055,16.9288 95.1935,16.8518 95.0285,16.6968 C93.4645,15.2308 91.7985,13.8418 90.0815,12.5698 C89.6995,12.2878 89.6195,11.7498 89.9015,11.3678 C90.1835,10.9878 90.7225,10.9068 91.1025,11.1888 C92.8745,12.4998 94.5905,13.9308 96.2035,15.4428 C96.5495,15.7678 96.5675,16.3118 96.2425,16.6578 C96.0735,16.8388 95.8445,16.9288 95.6155,16.9288 M18.4185,17.1528 C18.1895,17.1528 17.9635,17.0628 17.7945,16.8848 C17.4665,16.5398 17.4815,15.9968 17.8265,15.6698 C19.4275,14.1508 21.1345,12.7098 22.8995,11.3868 C23.2805,11.1018 23.8185,11.1808 24.1025,11.5598 C24.3875,11.9388 24.3105,12.4778 23.9305,12.7628 C22.2185,14.0458 20.5625,15.4438 19.0085,16.9168 C18.8425,17.0748 18.6305,17.1528 18.4185,17.1528 M104.0485,26.8998 C103.7705,26.8998 103.4975,26.7648 103.3325,26.5158 C102.1475,24.7328 100.8455,22.9998 99.4655,21.3658 C99.1575,21.0038 99.2035,20.4618 99.5665,20.1548 C99.9285,19.8508 100.4695,19.8938 100.7765,20.2558 C102.2015,21.9408 103.5435,23.7268 104.7635,25.5648 C105.0265,25.9608 104.9195,26.4928 104.5235,26.7568 C104.3775,26.8528 104.2125,26.8998 104.0485,26.8998 M10.0395,27.1748 C9.8785,27.1748 9.7155,27.1288 9.5695,27.0328 C9.1725,26.7728 9.0615,26.2398 9.3215,25.8428 C10.5325,23.9968 11.8645,22.2028 13.2795,20.5098 C13.5845,20.1458 14.1275,20.0978 14.4905,20.4018 C14.8545,20.7058 14.9025,21.2488 14.5985,21.6128 C13.2245,23.2548 11.9335,24.9948 10.7585,26.7858 C10.5935,27.0378 10.3195,27.1748 10.0395,27.1748 M109.9595,38.5428 C109.6095,38.5428 109.2805,38.3278 109.1525,37.9808 C108.4155,35.9758 107.5485,33.9898 106.5775,32.0768 C106.3625,31.6538 106.5315,31.1368 106.9545,30.9218 C107.3785,30.7058 107.8945,30.8768 108.1095,31.2988 C109.1115,33.2718 110.0055,35.3198 110.7655,37.3858 C110.9295,37.8318 110.7015,38.3258 110.2565,38.4898 C110.1585,38.5258 110.0575,38.5428 109.9595,38.5428 M4.1955,38.8588 C4.0985,38.8588 4.0005,38.8418 3.9045,38.8068 C3.4575,38.6458 3.2255,38.1528 3.3875,37.7068 C4.1365,35.6328 5.0195,33.5778 6.0085,31.6008 C6.2205,31.1758 6.7375,31.0048 7.1625,31.2168 C7.5875,31.4298 7.7585,31.9458 7.5475,32.3708 C6.5865,34.2878 5.7305,36.2798 5.0045,38.2908 C4.8785,38.6408 4.5475,38.8588 4.1955,38.8588 M113.0095,51.2398 C112.5815,51.2398 112.2095,50.9188 112.1575,50.4828 C111.9035,48.3578 111.5225,46.2248 111.0215,44.1438 C110.9105,43.6818 111.1945,43.2178 111.6565,43.1078 C112.1205,42.9948 112.5825,43.2798 112.6925,43.7418 C113.2085,45.8878 113.6025,48.0878 113.8635,50.2788 C113.9205,50.7498 113.5835,51.1778 113.1125,51.2338 C113.0785,51.2378 113.0435,51.2398 113.0095,51.2398 M1.2205,51.5778 C1.1885,51.5778 1.1565,51.5758 1.1235,51.5718 C0.6505,51.5188 0.3125,51.0928 0.3665,50.6208 C0.6155,48.4238 0.9965,46.2218 1.4985,44.0778 C1.6065,43.6158 2.0695,43.3288 2.5305,43.4368 C2.9925,43.5448 3.2795,44.0078 3.1715,44.4688 C2.6845,46.5488 2.3155,48.6838 2.0735,50.8158 C2.0245,51.2538 1.6525,51.5778 1.2205,51.5778 M113.0375,64.5238 C113.0055,64.5238 112.9715,64.5218 112.9385,64.5178 C112.4665,64.4638 112.1295,64.0368 112.1825,63.5658 C112.4275,61.4438 112.5515,59.2798 112.5515,57.1348 L112.5515,56.9088 C112.5515,56.4338 112.9375,56.0498 113.4115,56.0498 C113.8855,56.0498 114.2705,56.4338 114.2705,56.9088 L114.2705,57.1348 C114.2705,59.3458 114.1425,61.5758 113.8905,63.7628 C113.8405,64.2008 113.4685,64.5238 113.0375,64.5238 M1.2465,64.6358 C0.8165,64.6358 0.4455,64.3148 0.3925,63.8778 C0.1355,61.6938 0.0045,59.4638 0.0005,57.2488 C-0.0005,56.7748 0.3825,56.3888 0.8575,56.3888 L0.8595,56.3888 C1.3345,56.3888 1.7175,56.7718 1.7185,57.2458 C1.7225,59.3948 1.8505,61.5578 2.1005,63.6758 C2.1555,64.1478 1.8185,64.5748 1.3475,64.6308 C1.3135,64.6338 1.2795,64.6358 1.2465,64.6358 M110.0355,77.2378 C109.9375,77.2378 109.8395,77.2198 109.7425,77.1848 C109.2965,77.0228 109.0655,76.5298 109.2275,76.0838 C109.9595,74.0708 110.5805,71.9938 111.0725,69.9088 C111.1815,69.4468 111.6495,69.1638 112.1055,69.2708 C112.5685,69.3798 112.8535,69.8418 112.7455,70.3038 C112.2375,72.4538 111.5975,74.5948 110.8425,76.6708 C110.7165,77.0198 110.3855,77.2378 110.0355,77.2378 M4.2725,77.3398 C3.9215,77.3398 3.5915,77.1238 3.4655,76.7758 C2.7065,74.7028 2.0625,72.5628 1.5505,70.4158 C1.4425,69.9538 1.7265,69.4908 2.1885,69.3808 C2.6485,69.2738 3.1145,69.5558 3.2235,70.0178 C3.7195,72.1008 4.3435,74.1748 5.0795,76.1848 C5.2425,76.6308 5.0125,77.1238 4.5675,77.2868 C4.4695,77.3228 4.3705,77.3398 4.2725,77.3398 M104.1675,88.9098 C104.0045,88.9098 103.8405,88.8638 103.6955,88.7678 C103.2985,88.5068 103.1895,87.9738 103.4505,87.5778 C104.6295,85.7848 105.7145,83.9088 106.6735,81.9998 C106.8875,81.5758 107.4005,81.4038 107.8285,81.6178 C108.2525,81.8308 108.4235,82.3468 108.2105,82.7718 C107.2195,84.7398 106.1015,86.6748 104.8855,88.5228 C104.7195,88.7738 104.4455,88.9098 104.1675,88.9098 M10.1605,88.9948 C9.8815,88.9948 9.6075,88.8598 9.4425,88.6098 C8.2215,86.7638 7.1005,84.8318 6.1105,82.8678 C5.8955,82.4448 6.0665,81.9278 6.4895,81.7138 C6.9185,81.4998 7.4315,81.6708 7.6435,82.0938 C8.6055,83.9988 9.6925,85.8708 10.8765,87.6608 C11.1375,88.0568 11.0295,88.5908 10.6335,88.8518 C10.4875,88.9488 10.3225,88.9948 10.1605,88.9948 M95.7715,98.9138 C95.5435,98.9138 95.3155,98.8238 95.1465,98.6448 C94.8205,98.2998 94.8365,97.7558 95.1805,97.4298 C96.7405,95.9568 98.2265,94.3798 99.6005,92.7428 C99.9065,92.3788 100.4475,92.3308 100.8115,92.6368 C101.1735,92.9428 101.2215,93.4838 100.9165,93.8478 C99.5005,95.5348 97.9685,97.1598 96.3615,98.6788 C96.1955,98.8358 95.9825,98.9138 95.7715,98.9138 M18.5725,98.9818 C18.3605,98.9818 18.1495,98.9048 17.9835,98.7488 C16.3745,97.2348 14.8385,95.6118 13.4185,93.9248 C13.1135,93.5628 13.1595,93.0208 13.5225,92.7148 C13.8845,92.4098 14.4265,92.4538 14.7335,92.8188 C16.1105,94.4538 17.5995,96.0278 19.1615,97.4968 C19.5065,97.8218 19.5235,98.3658 19.1985,98.7118 C19.0295,98.8918 18.8005,98.9818 18.5725,98.9818 M85.3075,106.7238 C85.0105,106.7238 84.7215,106.5708 84.5625,106.2948 C84.3255,105.8838 84.4655,105.3588 84.8765,105.1208 C86.7255,104.0488 88.5335,102.8548 90.2505,101.5738 C90.6325,101.2908 91.1695,101.3688 91.4525,101.7488 C91.7365,102.1288 91.6585,102.6678 91.2775,102.9508 C89.5075,104.2718 87.6445,105.5018 85.7375,106.6078 C85.6015,106.6858 85.4535,106.7238 85.3075,106.7238 M29.0535,106.7758 C28.9085,106.7758 28.7605,106.7388 28.6255,106.6608 C26.7155,105.5578 24.8475,104.3308 23.0745,103.0128 C22.6935,102.7298 22.6145,102.1918 22.8975,101.8098 C23.1815,101.4308 23.7175,101.3508 24.0995,101.6338 C25.8195,102.9118 27.6325,104.1028 29.4855,105.1718 C29.8955,105.4088 30.0365,105.9348 29.7995,106.3458 C29.6405,106.6208 29.3515,106.7758 29.0535,106.7758 M73.3225,111.9078 C72.9525,111.9078 72.6105,111.6678 72.4995,111.2958 C72.3635,110.8408 72.6215,110.3618 73.0755,110.2258 C75.1255,109.6108 77.1605,108.8678 79.1275,108.0178 C79.5625,107.8298 80.0675,108.0298 80.2565,108.4658 C80.4455,108.9008 80.2445,109.4068 79.8085,109.5948 C77.7815,110.4718 75.6825,111.2378 73.5695,111.8718 C73.4865,111.8968 73.4035,111.9078 73.3225,111.9078 M41.0565,111.9408 C40.9755,111.9408 40.8935,111.9288 40.8115,111.9038 C38.6965,111.2748 36.5935,110.5128 34.5635,109.6398 C34.1285,109.4518 33.9265,108.9458 34.1145,108.5108 C34.3025,108.0738 34.8085,107.8758 35.2445,108.0608 C37.2115,108.9078 39.2505,109.6468 41.3015,110.2568 C41.7565,110.3928 42.0155,110.8708 41.8815,111.3258 C41.7695,111.6988 41.4275,111.9408 41.0565,111.9408 M60.4615,114.1738 C60.0085,114.1738 59.6305,113.8208 59.6035,113.3648 C59.5765,112.8908 59.9375,112.4848 60.4115,112.4568 C62.5525,112.3318 64.7065,112.0808 66.8095,111.7108 C67.2785,111.6218 67.7215,111.9398 67.8045,112.4078 C67.8865,112.8748 67.5745,113.3208 67.1065,113.4028 C64.9385,113.7848 62.7185,114.0438 60.5115,114.1728 C60.4945,114.1738 60.4775,114.1738 60.4615,114.1738 M53.9225,114.1808 C53.9065,114.1808 53.8895,114.1808 53.8735,114.1798 C51.6655,114.0548 49.4455,113.8008 47.2765,113.4238 C46.8075,113.3428 46.4945,112.8978 46.5755,112.4298 C46.6585,111.9618 47.1115,111.6508 47.5695,111.7308 C49.6735,112.0968 51.8285,112.3428 53.9695,112.4638 C54.4445,112.4908 54.8055,112.8968 54.7795,113.3698 C54.7545,113.8278 54.3745,114.1808 53.9225,114.1808" id="Fill-3" fill="#76B0BD"></path>
            <path d="M37.509,72.3638 C37.509,73.0518 38.031,73.6028 38.685,73.6028 L51.349,73.6028 C51.716,74.6798 52.702,75.4438 53.843,75.4438 L61.351,75.4438 C62.491,75.4438 63.478,74.6798 63.845,73.6028 L76.521,73.6028 C77.174,73.6028 77.697,73.0518 77.697,72.3638 C77.697,71.6748 77.174,71.1238 76.521,71.1238 L62.847,71.1238 C62.195,71.1238 61.671,71.6748 61.671,72.3638 L61.671,72.6388 C61.671,72.8148 61.529,72.9648 61.363,72.9648 L53.855,72.9648 C53.689,72.9648 53.546,72.8148 53.546,72.6388 L53.546,72.3638 C53.534,71.6748 53.012,71.1238 52.358,71.1238 L38.685,71.1238 C38.031,71.1238 37.509,71.6748 37.509,72.3638" id="Fill-5" fill="#76B0BD"></path>
            <path d="M85.548,71.1241 L82.46,71.1241 L82.46,42.5651 C82.46,42.3651 82.405,42.1831 82.326,42.0161 C82.225,41.4451 81.746,41.0001 81.147,41.0001 L77.934,41.0001 C77.262,41.0001 76.712,41.5501 76.712,42.2221 L76.712,42.3991 C76.712,43.0711 77.262,43.6211 77.934,43.6211 L80.109,43.6211 L80.109,72.3641 C80.109,73.0521 80.643,73.6031 81.296,73.6031 L84.372,73.6031 L84.372,75.3061 C84.372,77.0591 83.019,78.4861 81.356,78.4861 L33.862,78.4861 C32.199,78.4861 30.845,77.0591 30.845,75.3061 L30.845,73.6031 L33.921,73.6031 C34.575,73.6031 35.098,73.0521 35.098,72.3641 L35.098,43.6361 L37.204,43.6361 C37.876,43.6361 38.426,43.0861 38.426,42.4151 L38.426,42.2371 C38.426,41.5641 37.876,41.0151 37.204,41.0151 L33.991,41.0151 C33.319,41.0151 32.77,41.5641 32.77,42.2371 L32.77,42.4151 C32.77,42.4191 32.772,42.4221 32.772,42.4271 C32.767,42.4751 32.745,42.5161 32.745,42.5651 L32.745,71.1241 L29.669,71.1241 C29.016,71.1241 28.492,71.6751 28.492,72.3641 L28.492,75.3061 C28.492,78.4231 30.903,80.9651 33.862,80.9651 L81.356,80.9651 C84.314,80.9651 86.725,78.4231 86.725,75.3061 L86.725,72.3641 C86.725,71.6751 86.202,71.1241 85.548,71.1241" id="Fill-7" fill="#76B0BD"></path>
            <path d="M53.6584,40.3121 C53.4314,40.4831 53.1644,40.5671 52.8994,40.5671 C52.5164,40.5671 52.1394,40.3941 51.8904,40.0651 L41.1204,25.7971 L41.1204,44.6571 C41.1204,45.7961 41.9994,46.7231 43.0804,46.7231 L45.4794,46.7231 C45.7064,46.7231 45.9054,46.8071 46.0844,46.9221 L46.1164,53.6211 L52.2564,46.7241 C52.2584,46.7241 52.2604,46.7231 52.2624,46.7231 L72.1254,46.7231 C72.9254,46.7231 73.7204,45.8361 74.0244,45.1111 L74.0734,24.9011 L53.6584,40.3121 Z" id="Fill-9" fill="#F2900A"></path>
            <path d="M40.802,22.0376 L41.446,22.0376 C41.796,21.4776 42.397,21.1066 43.08,21.1066 L72.114,21.1066 C72.781,21.1066 73.371,21.4616 73.726,22.0016 L73.678,22.0376 L73.916,22.0376 L73.916,25.0196 L74.073,24.9016 L74.073,44.6566 L74.085,44.6566 C74.085,44.9536 74.024,45.2336 73.916,45.4886 L73.916,46.9226 L51.628,46.9226 C51.535,46.9856 51.447,47.0576 51.372,47.1486 L46.656,52.8946 L46.656,47.9626 C46.656,47.5126 46.421,47.1396 46.084,46.9226 L40.802,46.9226 L40.802,22.0376 Z M43.092,49.2026 L44.316,49.2026 L44.316,54.6476 C44.316,55.6626 45.1,56.4756 46.062,56.4756 C46.561,56.4756 47.036,56.2506 47.369,55.8376 L52.81,49.2026 L72.125,49.2026 C74.501,49.2026 76.437,47.1606 76.437,44.6566 L76.437,23.1716 C76.437,20.6676 74.501,18.6276 72.125,18.6276 L43.092,18.6276 C40.716,18.6276 38.781,20.6676 38.781,23.1716 L38.781,44.6566 C38.781,47.1606 40.716,49.2026 43.092,49.2026 Z" id="Fill-11" fill="#76B0BD"></path>
            <path d="M45.4797,46.7232 L43.0807,46.7232 C41.9997,46.7232 41.1207,45.7962 41.1207,44.6572 L41.1207,25.7972 L51.8907,40.0652 C52.1397,40.3932 52.5167,40.5672 52.8997,40.5672 C53.1647,40.5672 53.4317,40.4832 53.6587,40.3122 L73.9167,25.0202 L73.9167,22.0372 L73.6777,22.0372 L53.1457,37.5372 L41.4457,22.0372 L40.8017,22.0372 L40.8017,46.9222 L46.0837,46.9222 C45.9057,46.8072 45.7067,46.7232 45.4797,46.7232" id="Fill-13" fill="#76B0BD"></path>
            <path d="M62.6281,103.3838 L62.4941,91.0898 L69.4331,92.8658 C69.9761,93.0048 70.5491,92.8218 70.9111,92.3948 C71.2731,91.9678 71.3581,91.3718 71.1311,90.8598 L59.0771,63.6318 C58.8421,63.0978 58.3101,62.7558 57.7271,62.7618 C57.1431,62.7678 56.6181,63.1218 56.3941,63.6608 L44.9351,91.1468 C44.7191,91.6628 44.8171,92.2568 45.1891,92.6768 C45.5591,93.0958 46.1371,93.2668 46.6761,93.1158 L53.5731,91.1868 L53.7071,103.4808 C53.7121,103.8688 53.8691,104.2388 54.1471,104.5098 C54.4241,104.7808 54.7961,104.9308 55.1851,104.9258 L61.1841,104.8608 C61.9901,104.8518 62.6371,104.1908 62.6281,103.3838" id="Fill-15" fill="#3FB28C"></path>
            <path d="M59.0949,54.3155 C59.0859,53.5085 58.4249,52.8625 57.6179,52.8705 C56.8109,52.8795 56.1639,53.5405 56.1729,54.3475 L56.2239,58.9385 C56.2279,59.3415 56.3949,59.7045 56.6619,59.9665 C56.9289,60.2275 57.2959,60.3875 57.6989,60.3825 C58.5069,60.3745 59.1539,59.7135 59.1449,58.9055 L59.0949,54.3155 Z" id="Fill-17" fill="#F2900A"></path>
            <path d="M52.8186,62.3033 C53.3816,61.7273 53.3716,60.8023 52.7956,60.2383 L49.5136,57.0273 C48.9376,56.4633 48.0126,56.4733 47.4486,57.0503 C46.8836,57.6263 46.8936,58.5523 47.4706,59.1153 L50.7526,62.3263 C51.3296,62.8903 52.2536,62.8803 52.8186,62.3033" id="Fill-19" fill="#F2900A"></path>
            <path d="M49.2414,65.1128 L44.6504,65.1628 C43.8444,65.1718 43.1964,65.8328 43.2064,66.6398 C43.2104,67.0428 43.3774,67.4058 43.6444,67.6678 C43.9124,67.9288 44.2794,68.0888 44.6824,68.0838 L49.2734,68.0338 C50.0804,68.0258 50.7264,67.3638 50.7184,66.5578 C50.7094,65.7508 50.0484,65.1038 49.2414,65.1128" id="Fill-21" fill="#F2900A"></path>
            <path d="M62.6223,62.1963 C63.1983,62.7603 64.1243,62.7503 64.6883,62.1733 L67.8993,58.8923 C68.4633,58.3153 68.4533,57.3903 67.8763,56.8263 C67.3003,56.2623 66.3753,56.2723 65.8103,56.8483 L62.6003,60.1313 C62.0353,60.7073 62.0463,61.6323 62.6223,62.1963" id="Fill-23" fill="#F2900A"></path>
            <path d="M65.2531,67.4302 C65.5211,67.6922 65.8881,67.8522 66.2911,67.8472 L70.8811,67.7972 C71.6881,67.7892 72.3351,67.1272 72.3261,66.3202 C72.3171,65.5132 71.6561,64.8672 70.8501,64.8752 L66.2591,64.9262 C65.4521,64.9342 64.8061,65.5962 64.8141,66.4032 C64.8181,66.8052 64.9861,67.1692 65.2531,67.4302" id="Fill-25" fill="#F2900A"></path>
        </g>
    </g>
</svg>