<?xml version="1.0" encoding="UTF-8"?>
<svg width="115px" height="115px" viewBox="0 0 115 115" version="1.1" xmlns="http://www.w3.org/2000/svg" xmlns:xlink="http://www.w3.org/1999/xlink">
    <!-- Generator: Sketch 52.6 (67491) - http://www.bohemiancoding.com/sketch -->
    <title>illustration/Email/lien expiré</title>
    <desc>Created with Sketch.</desc>
    <g id="illustration/Email/lien-expiré" stroke="none" stroke-width="1" fill="none" fill-rule="evenodd">
        <g id="Group-29">
            <path d="M101.5096,66.2357 C97.0056,90.6577 73.5566,106.8037 49.1346,102.2997 C24.7126,97.7967 8.5666,74.3467 13.0706,49.9247 C17.5736,25.5037 41.0236,9.3567 65.4456,13.8607 C89.8666,18.3647 106.0136,41.8137 101.5096,66.2357 Z" id="Stroke-1" stroke="#76B0BD" stroke-width="1.345" stroke-linecap="round" stroke-dasharray="15.692,15.692"></path>
            <path d="M114.6639,57.7665 C114.6639,89.1905 89.1899,114.6635 57.7669,114.6635 C26.3429,114.6635 0.8689,89.1905 0.8689,57.7665 C0.8689,26.3425 26.3429,0.8695 57.7669,0.8695 C89.1899,0.8695 114.6639,26.3425 114.6639,57.7665 Z" id="Stroke-3" stroke="#76B0BD" stroke-width="1.738" stroke-linecap="round" stroke-linejoin="round" stroke-dasharray="6.619,6.619"></path>
            <path d="M112.6288,21.5384 C112.6288,30.6494 105.2428,38.0344 96.1328,38.0344 C87.0228,38.0344 79.6368,30.6494 79.6368,21.5384 C79.6368,12.4284 87.0228,5.0424 96.1328,5.0424 C105.2428,5.0424 112.6288,12.4284 112.6288,21.5384" id="Fill-5" fill="#C51720"></path>
            <path d="M98.4637,24.598 C98.4637,25.341 97.5087,25.643 96.8517,25.643 C95.9927,25.643 95.2357,25.341 95.2357,24.598 C95.2357,20.965 94.8077,16.12 94.8077,12.486 C94.8077,11.523 95.6977,10.973 96.8517,10.973 C97.9707,10.973 98.9257,11.523 98.9257,12.486 C98.9257,16.12 98.4637,20.965 98.4637,24.598 M99.1237,29.497 C99.1237,30.488 98.1017,31.369 96.8837,31.369 C95.5987,31.369 94.6437,30.488 94.6437,29.497 C94.6437,28.478 95.5987,27.626 96.8837,27.626 C98.1017,27.626 99.1237,28.478 99.1237,29.497" id="Fill-7" fill="#FEFEFE"></path>
            <path d="M37.9237,73.1634 C37.9237,73.8594 38.4517,74.4164 39.1127,74.4164 L51.9157,74.4164 C52.2877,75.5054 53.2847,76.2774 54.4387,76.2774 L62.0287,76.2774 C63.1817,76.2774 64.1787,75.5054 64.5507,74.4164 L77.3657,74.4164 C78.0267,74.4164 78.5547,73.8594 78.5547,73.1634 C78.5547,72.4674 78.0267,71.9104 77.3657,71.9104 L63.5417,71.9104 C62.8817,71.9104 62.3537,72.4674 62.3537,73.1634 L62.3537,73.4414 C62.3537,73.6194 62.2087,73.7714 62.0407,73.7714 L54.4497,73.7714 C54.2817,73.7714 54.1377,73.6194 54.1377,73.4414 L54.1377,73.1634 C54.1257,72.4674 53.5977,71.9104 52.9367,71.9104 L39.1127,71.9104 C38.4517,71.9104 37.9237,72.4674 37.9237,73.1634" id="Fill-9" fill="#76B0BD"></path>
            <path d="M86.493,71.91 L83.371,71.91 L83.371,43.036 C83.371,42.833 83.316,42.65 83.236,42.481 C83.133,41.904 82.649,41.453 82.043,41.453 L78.795,41.453 C78.115,41.453 77.559,42.009 77.559,42.689 L77.559,42.868 C77.559,43.548 78.115,44.103 78.795,44.103 L80.993,44.103 L80.993,73.163 C80.993,73.86 81.533,74.416 82.194,74.416 L85.305,74.416 L85.305,76.139 C85.305,77.91 83.935,79.354 82.254,79.354 L34.237,79.354 C32.555,79.354 31.186,77.91 31.186,76.139 L31.186,74.416 L34.297,74.416 C34.958,74.416 35.486,73.86 35.486,73.163 L35.486,44.119 L37.615,44.119 C38.295,44.119 38.85,43.563 38.85,42.884 L38.85,42.704 C38.85,42.025 38.295,41.469 37.615,41.469 L34.367,41.469 C33.687,41.469 33.132,42.025 33.132,42.704 L33.132,42.884 C33.132,42.888 33.135,42.892 33.135,42.896 C33.129,42.944 33.108,42.986 33.108,43.036 L33.108,71.91 L29.997,71.91 C29.337,71.91 28.808,72.467 28.808,73.163 L28.808,76.139 C28.808,79.29 31.246,81.86 34.237,81.86 L82.254,81.86 C85.245,81.86 87.682,79.29 87.682,76.139 L87.682,73.163 C87.682,72.467 87.154,71.91 86.493,71.91" id="Fill-11" fill="#76B0BD"></path>
            <path d="M65.7684,94.2435 C65.1864,94.2435 64.7124,94.7275 64.7124,95.3225 L64.7134,95.3225 L64.7134,98.5345 C64.7134,99.1425 64.2194,99.6375 63.6094,99.6375 C63.0004,99.6375 62.5064,99.1425 62.5064,98.5345 L62.5064,93.5155 C62.5064,92.9205 62.0334,92.4365 61.4504,92.4365 C60.8684,92.4365 60.3954,92.9205 60.3954,93.5155 L60.3954,97.0935 C60.3954,97.7025 59.9014,98.1965 59.2904,98.1965 C58.6824,98.1965 58.1884,97.7025 58.1884,97.0935 L58.1884,92.0755 C58.1884,91.4805 57.7144,90.9975 57.1324,90.9975 C56.5504,90.9975 56.0774,91.4805 56.0774,92.0755 L56.0774,95.6535 C56.0774,96.2635 55.5824,96.7575 54.9734,96.7575 C54.3654,96.7575 53.8704,96.2635 53.8704,95.6535 L53.8704,85.3505 C53.8704,84.7565 53.3974,84.2725 52.8144,84.2725 C52.2324,84.2725 51.7584,84.7565 51.7584,85.3505 L51.7584,101.3055 C51.7584,101.7645 51.4734,102.1765 51.0434,102.3375 C50.6134,102.4995 50.1264,102.3775 49.8254,102.0315 L45.5684,97.1625 C45.3684,96.9725 45.1064,96.8685 44.8284,96.8665 C44.5434,96.8695 44.2794,96.9725 44.0824,97.1695 C43.6624,97.5895 43.9554,98.3495 44.2774,98.9125 C45.5044,101.0705 46.8564,103.1305 48.0494,104.9485 C48.9524,106.3235 49.8034,107.6215 50.4454,108.7275 C50.8644,109.4515 51.7214,111.2145 52.1794,112.1675 L64.6274,112.1675 C65.4094,109.6455 66.8244,104.6945 66.8244,102.8535 L66.8244,95.3225 C66.8244,94.7275 66.3504,94.2435 65.7684,94.2435" id="Fill-13" fill="#FEFEFE"></path>
            <path d="M66.6805,102.9964 C66.6805,104.8384 65.2655,109.7884 64.4845,112.3104 L52.0355,112.3104 C51.5775,111.3584 50.7215,109.5944 50.3015,108.8714 C49.6595,107.7654 48.8085,106.4664 47.9065,105.0924 C46.7135,103.2734 45.3615,101.2134 44.1335,99.0564 C43.8125,98.4924 43.5195,97.7324 43.9395,97.3124 C44.1355,97.1164 44.4005,97.0134 44.6845,97.0094 C44.9625,97.0114 45.2245,97.1164 45.4255,97.3064 L49.6815,102.1744 C49.9845,102.5204 50.4695,102.6424 50.9005,102.4814 C51.3295,102.3194 51.6155,101.9084 51.6155,101.4484 L51.6155,85.4944 C51.6155,84.8994 52.0895,84.4154 52.6705,84.4154 C53.2535,84.4154 53.7275,84.8994 53.7275,85.4944 L53.7275,95.7974 C53.7275,96.4064 54.2215,96.9004 54.8305,96.9004 C55.4405,96.9004 55.9345,96.4064 55.9345,95.7974 L55.9345,92.2184 C55.9345,91.6244 56.4085,91.1414 56.9895,91.1414 C57.5715,91.1414 58.0445,91.6244 58.0445,92.2184 L58.0445,97.2364 C58.0445,97.8464 58.5385,98.3394 59.1485,98.3394 C59.7575,98.3394 60.2515,97.8464 60.2515,97.2364 L60.2515,93.6584 C60.2515,93.0644 60.7255,92.5804 61.3075,92.5804 C61.8895,92.5804 62.3635,93.0644 62.3635,93.6584 L62.3635,98.6774 C62.3635,99.2864 62.8575,99.7804 63.4665,99.7804 C64.0765,99.7804 64.5705,99.2864 64.5705,98.6774 L64.5705,95.4654 C64.5705,94.8704 65.0435,94.3874 65.6245,94.3874 C66.2065,94.3874 66.6805,94.8704 66.6805,95.4654 L66.6805,102.9964 Z M65.6245,92.1804 C65.1675,92.1804 64.7345,92.2754 64.3385,92.4464 C63.8585,91.2334 62.6815,90.3734 61.3075,90.3734 C60.7965,90.3734 60.3135,90.4924 59.8825,90.7034 C59.3375,89.6534 58.2455,88.9334 56.9895,88.9334 C56.6195,88.9334 56.2655,88.9964 55.9345,89.1114 L55.9345,85.4944 C55.9345,83.6834 54.4705,82.2084 52.6705,82.2084 C50.8715,82.2084 49.4085,83.6834 49.4085,85.4944 L49.4085,98.5094 L47.0585,95.8214 C47.0415,95.8024 47.0255,95.7844 47.0085,95.7674 C46.3905,95.1494 45.5705,94.8074 44.6955,94.8034 L44.6785,94.8034 C43.8065,94.8034 42.9905,95.1394 42.3785,95.7514 C41.2995,96.8314 41.2405,98.4334 42.2155,100.1474 C43.4775,102.3664 44.8505,104.4574 46.0615,106.3034 C46.9455,107.6514 47.7825,108.9254 48.3925,109.9784 C48.9225,110.8924 50.3285,113.8564 50.3435,113.8864 C50.5265,114.2724 50.9145,114.5174 51.3405,114.5174 L65.2935,114.5174 C65.7735,114.5174 66.1985,114.2084 66.3445,113.7524 C66.6045,112.9434 68.8875,105.7674 68.8875,102.9964 L68.8875,95.4654 C68.8875,93.6534 67.4245,92.1804 65.6245,92.1804 Z" id="Fill-15" fill="#76B0BD"></path>
            <path d="M31.6551,20.972 L40.3481,29.666 L34.1461,33.249 C33.6621,33.53 33.3801,34.061 33.4201,34.62 C33.4601,35.178 33.8151,35.664 34.3351,35.871 L61.9931,46.903 C62.5351,47.12 63.1541,46.993 63.5671,46.58 C63.9801,46.167 64.1071,45.548 63.8911,45.006 L52.8601,17.345 C52.6531,16.826 52.1671,16.47 51.6081,16.43 C51.0511,16.389 50.5181,16.671 50.2381,17.156 L46.6561,23.358 L37.9631,14.664 C37.6881,14.389 37.3171,14.236 36.9291,14.236 C36.5431,14.236 36.1711,14.389 35.8961,14.664 L31.6551,18.907 C31.0841,19.477 31.0841,20.402 31.6551,20.972" id="Fill-17" fill="#3FB28C"></path>
            <path d="M68.4959,53.5751 C69.0669,54.1451 69.9909,54.1451 70.5619,53.5751 C71.1329,53.0041 71.1329,52.0791 70.5619,51.5091 L67.3149,48.2621 C67.0299,47.9771 66.6569,47.8341 66.2829,47.8341 C65.9089,47.8341 65.5349,47.9771 65.2499,48.2621 C64.6799,48.8321 64.6799,49.7581 65.2499,50.3281 L68.4959,53.5751 Z" id="Fill-19" fill="#F2900A"></path>
            <path d="M67.3963,43.4754 C67.3963,44.2824 68.0503,44.9354 68.8573,44.9354 L73.4483,44.9354 C74.2543,44.9354 74.9093,44.2824 74.9093,43.4754 C74.9093,42.6674 74.2543,42.0144 73.4483,42.0144 L68.8573,42.0144 C68.0503,42.0144 67.3963,42.6674 67.3963,43.4754" id="Fill-21" fill="#F2900A"></path>
            <path d="M67.9881,38.9657 L71.2341,35.7187 C71.8051,35.1497 71.8051,34.2237 71.2341,33.6537 C70.9491,33.3687 70.5761,33.2257 70.2011,33.2257 C69.8281,33.2257 69.4541,33.3687 69.1691,33.6537 L65.9231,36.9007 C65.3511,37.4707 65.3511,38.3957 65.9231,38.9657 C66.4931,39.5367 67.4181,39.5367 67.9881,38.9657" id="Fill-23" fill="#F2900A"></path>
            <path d="M60.4637,50.4081 C59.6567,50.4081 59.0027,51.0621 59.0027,51.8701 L59.0027,56.4611 C59.0027,57.2671 59.6557,57.9211 60.4637,57.9211 C61.2697,57.9211 61.9237,57.2671 61.9237,56.4611 L61.9237,51.8691 C61.9237,51.0621 61.2697,50.4081 60.4637,50.4081" id="Fill-25" fill="#F2900A"></path>
            <path d="M54.9227,48.5072 C54.5477,48.5072 54.1737,48.6492 53.8887,48.9342 L50.6437,52.1812 C50.0717,52.7512 50.0717,53.6762 50.6437,54.2472 C51.2137,54.8172 52.1387,54.8172 52.7087,54.2472 L55.9547,51.0012 C56.5257,50.4302 56.5257,49.5052 55.9547,48.9342 C55.6697,48.6492 55.2957,48.5072 54.9227,48.5072" id="Fill-27" fill="#F2900A"></path>
        </g>
    </g>
</svg>