<?xml version="1.0" encoding="UTF-8"?>
<svg width="60px" height="64px" viewBox="0 0 60 64" version="1.1" xmlns="http://www.w3.org/2000/svg" xmlns:xlink="http://www.w3.org/1999/xlink">
    <!-- Generator: sketchtool 57.1 (101010) - https://sketch.com -->
    <title>14D84A68-7F6B-43D0-BFC8-7DF5AACED0D5@1,5x</title>
    <desc>Created with sketchtool.</desc>
    <defs>
        <polygon id="mask-go-1" points="0 63 60 63 60 0 0 0"></polygon>
    </defs>
    <g id="Financeur_Cadhoc_prospect-/-UI" stroke="none" stroke-width="1" fill="none" fill-rule="evenodd">
        <g id="04_02_01_Commande-Prospect-Cadhoc" transform="translate(-62.000000, -82.000000)">
            <g id="TITRE-CADHOC" transform="translate(62.000000, 82.000000)">
                <g id="Group-go-4">
                    <g id="Group-go-39">
                        <path d="M48.7982117,63 L16.2017883,63 C14.4322002,63 13,61.5229015 13,59.7004467 L13,31.30072 C13,29.4782652 14.4322002,28 16.2017883,28 L48.7982117,28 C50.5666676,28 52,29.4782652 52,31.30072 L52,59.7004467 C52,61.5229015 50.5666676,63 48.7982117,63" id="Fill-1" fill="#D7D7D7"></path>
                        <path d="M48.7982117,63 L16.2017883,63 C14.4322002,63 13,61.5229015 13,59.7004467 L13,31.30072 C13,29.4782652 14.4322002,28 16.2017883,28 L48.7982117,28 C50.5666676,28 52,29.4782652 52,31.30072 L52,59.7004467 C52,61.5229015 50.5666676,63 48.7982117,63 Z" id="Stroke-3" stroke="#4A494A" stroke-width="0.327"></path>
                        <path d="M15.0053672,45 L15.0053672,57.3474975 C15.0053672,57.5823244 14.780716,60 17.2382329,59.9988432 L22,60" id="Stroke-5" stroke="#4A494A" stroke-width="0.463" stroke-linecap="round" stroke-linejoin="round"></path>
                        <mask id="mask-go-2" fill="white">
                            <use xlink:href="#mask-go-1"></use>
                        </mask>
                        <g id="Clip-go-8"></g>
                        <polygon id="Fill-7" fill="#4E5B59" mask="url(#mask-go-2)" points="28 63 34 63 34 28 28 28"></polygon>
                        <polygon id="Stroke-9" stroke="#4A494A" stroke-width="0.326" mask="url(#mask-go-2)" points="28 63 34 63 34 28 28 28"></polygon>
                        <path d="M4.38250302,37.6000407 L0.499679426,31.6091291 C-0.416921554,30.1959362 -0.037319128,28.3046831 1.35031291,27.3602225 L31.9731184,6.52962002 C33.3781103,5.57349945 35.285381,5.94778567 36.2332297,7.36331052 L40.6044443,13.9045745 C41.5627089,15.3387553 40.6553665,16.7088061 39.2144976,17.6474367 L8.61599593,38.5036912 C7.19827345,39.4283298 5.30604795,39.0237275 4.38250302,37.6000407" id="Fill-10" fill="#D7D7D7" mask="url(#mask-go-2)"></path>
                        <path d="M4.38250302,37.6000407 L0.499679426,31.6091291 C-0.416921554,30.1959362 -0.037319128,28.3046831 1.35031291,27.3602225 L31.9731184,6.52962002 C33.3781103,5.57349945 35.285381,5.94778567 36.2332297,7.36331052 L40.6044443,13.9045745 C41.5627089,15.3387553 40.6553665,16.7088061 39.2144976,17.6474367 L8.61599593,38.5036912 C7.19827345,39.4283298 5.30604795,39.0237275 4.38250302,37.6000407 Z" id="Stroke-11" stroke="#4A494A" stroke-width="0.313" mask="url(#mask-go-2)"></path>
                        <polygon id="Fill-12" fill="#4E5B59" mask="url(#mask-go-2)" points="26 26.4461538 19.764217 31 12 19.5526627 18.235783 15"></polygon>
                        <polygon id="Stroke-13" stroke="#4A494A" stroke-width="0.349" mask="url(#mask-go-2)" points="26 26.4461538 19.764217 31 12 19.5526627 18.235783 15"></polygon>
                        <path d="M18.1741585,7.00986809 C21.2051681,6.82959176 23.8099979,9.14094919 23.9902588,12.1734119 C24.169326,15.2058747 21.8581662,17.8097334 18.8271566,17.9900098 C15.7949533,18.17148 13.1901235,15.8589287 13.0098626,12.8264659 C12.8296016,9.79519706 15.1419552,7.19014442 18.1741585,7.00986809" id="Fill-14" fill="#D7D7D7" mask="url(#mask-go-2)"></path>
                        <path d="M18.1741585,7.00986809 C21.2051681,6.82959176 23.8099979,9.14094919 23.9902588,12.1734119 C24.169326,15.2058747 21.8581662,17.8097334 18.8271566,17.9900098 C15.7949533,18.17148 13.1901235,15.8589287 13.0098626,12.8264659 C12.8296016,9.79519706 15.1419552,7.19014442 18.1741585,7.00986809 Z" id="Stroke-15" stroke="#4A494A" stroke-width="0.313" mask="url(#mask-go-2)"></path>
                        <path d="M18,9.00453964 C18,9.00453964 20.6397967,8.80713502 21.6468168,11.0158107 C22.6526266,13.2244864 21.1905108,15 21.1905108,15" id="Stroke-16" stroke="#4A494A" stroke-width="0.443" stroke-linecap="round" stroke-linejoin="round" mask="url(#mask-go-2)"></path>
                        <path d="M11.6438149,9.01075048 C14.9511668,8.81419546 17.7926944,11.3364622 17.9892495,14.6438128 C18.1858046,17.9522996 15.663537,20.7926901 12.3561851,20.9892451 C9.04883323,21.1858001 6.20730557,18.6646696 6.01075048,15.3561828 C5.81419539,12.0488321 8.33646304,9.2073055 11.6438149,9.01075048" id="Fill-17" fill="#D7D7D7" mask="url(#mask-go-2)"></path>
                        <path d="M11.6438149,9.01075048 C14.9511668,8.81419546 17.7926944,11.3364622 17.9892495,14.6438128 C18.1858046,17.9522996 15.663537,20.7926901 12.3561851,20.9892451 C9.04883323,21.1858001 6.20730557,18.6646696 6.01075048,15.3561828 C5.81419539,12.0488321 8.33646304,9.2073055 11.6438149,9.01075048 Z" id="Stroke-18" stroke="#4A494A" stroke-width="0.313" mask="url(#mask-go-2)"></path>
                        <path d="M53.8331223,1.98242421 C53.2879196,1.87981292 52.9214422,1.35630533 53.0144155,0.814745744 C53.1064862,0.271285953 53.622804,-0.085003245 54.1671041,0.0176080441 C54.7123069,0.120219333 55.0778815,0.642776824 54.9858109,1.18623662 C54.8937402,1.7277962 54.3774224,2.0850355 53.8331223,1.98242421" id="Fill-19" fill="#979797" mask="url(#mask-go-2)"></path>
                        <path d="M53.8331223,1.98242421 C53.2879196,1.87981292 52.9214422,1.35630533 53.0144155,0.814745744 C53.1064862,0.271285953 53.622804,-0.085003245 54.1671041,0.0176080441 C54.7123069,0.120219333 55.0778815,0.642776824 54.9858109,1.18623662 C54.8937402,1.7277962 54.3774224,2.0850355 53.8331223,1.98242421 Z" id="Stroke-20" stroke="#4A494A" stroke-width="0.185" mask="url(#mask-go-2)"></path>
                        <path d="M42.8331332,20.9823905 C42.2879233,20.8797792 41.9214412,20.3562716 42.0144157,19.814712 C42.1064876,19.2722023 42.6228122,18.914963 43.1671194,19.0175743 C43.7114266,19.1201856 44.0779087,19.6436932 43.9858368,20.1862029 C43.893765,20.7287126 43.3774404,21.0850018 42.8331332,20.9823905" id="Fill-21" fill="#979797" mask="url(#mask-go-2)"></path>
                        <path d="M42.8331332,20.9823905 C42.2879233,20.8797792 41.9214412,20.3562716 42.0144157,19.814712 C42.1064876,19.2722023 42.6228122,18.914963 43.1671194,19.0175743 C43.7114266,19.1201856 44.0779087,19.6436932 43.9858368,20.1862029 C43.893765,20.7287126 43.3774404,21.0850018 42.8331332,20.9823905 Z" id="Stroke-22" stroke="#4A494A" stroke-width="0.185" mask="url(#mask-go-2)"></path>
                        <path d="M47.395297,11.2543902 L47.3096102,11.7845134 L47.8395987,11.8818145 C47.9570213,11.9030642 48.020493,12.0216149 47.9940465,12.1804282 C47.9697156,12.3280575 47.8713346,12.4331874 47.7528541,12.4119377 L47.2228656,12.3146366 L47.1371789,12.8402862 C47.1202531,12.9442977 46.9859047,13.0214675 46.8378041,12.9946259 C46.6780671,12.9655474 46.5902646,12.848115 46.6082483,12.7441035 L46.6928772,12.2184539 L46.168178,12.1222712 C46.0645076,12.1032584 45.9798787,11.9656948 46.0042095,11.8169471 C46.0295982,11.6581339 46.1501944,11.5731352 46.2549226,11.5921481 L46.7796218,11.6883307 L46.8653085,11.1582076 C46.8854079,11.0385384 47.0017726,10.9781446 47.1604518,11.0072231 C47.3085524,11.0340648 47.4153964,11.1358395 47.395297,11.2543902" id="Fill-23" fill="#979797" mask="url(#mask-go-2)"></path>
                        <path d="M47.395297,11.2543902 L47.3096102,11.7845134 L47.8395987,11.8818145 C47.9570213,11.9030642 48.020493,12.0216149 47.9940465,12.1804282 C47.9697156,12.3280575 47.8713346,12.4331874 47.7528541,12.4119377 L47.2228656,12.3146366 L47.1371789,12.8402862 C47.1202531,12.9442977 46.9859047,13.0214675 46.8378041,12.9946259 C46.6780671,12.9655474 46.5902646,12.848115 46.6082483,12.7441035 L46.6928772,12.2184539 L46.168178,12.1222712 C46.0645076,12.1032584 45.9798787,11.9656948 46.0042095,11.8169471 C46.0295982,11.6581339 46.1501944,11.5731352 46.2549226,11.5921481 L46.7796218,11.6883307 L46.8653085,11.1582076 C46.8854079,11.0385384 47.0017726,10.9781446 47.1604518,11.0072231 C47.3085524,11.0340648 47.4153964,11.1358395 47.395297,11.2543902 Z" id="Stroke-24" stroke="#4A494A" stroke-width="0.185" mask="url(#mask-go-2)"></path>
                        <path d="M45.3952996,24.2543466 L45.3085548,24.7843789 L45.8385442,24.8816633 C45.9570249,24.9029093 46.0204967,25.0214398 45.9940501,25.1802258 C45.9697193,25.3289479 45.871338,25.4329416 45.7528573,25.4116956 L45.2228679,25.3144112 L45.137181,25.8399706 C45.1202552,25.9439643 44.9848487,26.0222391 44.8378057,25.9942838 C44.6780684,25.9652103 44.5902657,25.8477981 44.6082494,25.7438044 L44.6928784,25.218245 L44.1681783,25.1220788 C44.0645077,25.1030692 43.9798787,24.9655292 44.0042095,24.816807 C44.0295982,24.658021 44.1501946,24.5730369 44.2549231,24.5920465 L44.7796232,24.6882127 L44.8653101,24.1581804 C44.8854095,24.0385318 45.0017745,23.9781484 45.1593961,24.0072219 C45.3085548,24.0351771 45.415399,24.1358162 45.3952996,24.2543466" id="Fill-25" fill="#979797" mask="url(#mask-go-2)"></path>
                        <path d="M45.3952996,24.2543466 L45.3085548,24.7843789 L45.8385442,24.8816633 C45.9570249,24.9029093 46.0204967,25.0214398 45.9940501,25.1802258 C45.9697193,25.3289479 45.871338,25.4329416 45.7528573,25.4116956 L45.2228679,25.3144112 L45.137181,25.8399706 C45.1202552,25.9439643 44.9848487,26.0222391 44.8378057,25.9942838 C44.6780684,25.9652103 44.5902657,25.8477981 44.6082494,25.7438044 L44.6928784,25.218245 L44.1681783,25.1220788 C44.0645077,25.1030692 43.9798787,24.9655292 44.0042095,24.816807 C44.0295982,24.658021 44.1501946,24.5730369 44.2549231,24.5920465 L44.7796232,24.6882127 L44.8653101,24.1581804 C44.8854095,24.0385318 45.0017745,23.9781484 45.1593961,24.0072219 C45.3085548,24.0351771 45.415399,24.1358162 45.3952996,24.2543466 Z" id="Stroke-26" stroke="#4A494A" stroke-width="0.185" mask="url(#mask-go-2)"></path>
                        <path d="M38.3952996,23.2543466 L38.3085548,23.7843789 L38.8385442,23.8816633 C38.9570249,23.9029093 39.0204967,24.0214398 38.9940501,24.1802258 C38.9697193,24.3289479 38.871338,24.4329416 38.7528573,24.4116956 L38.2228679,24.3144112 L38.137181,24.8399706 C38.1202552,24.9439643 37.9848487,25.0222391 37.8367478,24.9942838 C37.6780684,24.9652103 37.5902657,24.8477981 37.6071915,24.7438044 L37.6928784,24.218245 L37.1681783,24.1220788 C37.0645077,24.1030692 36.9798787,23.9655292 37.0042095,23.816807 C37.0295982,23.658021 37.1501946,23.5730369 37.2549231,23.5920465 L37.7796232,23.6882127 L37.8653101,23.1581804 C37.8854095,23.0385318 38.0017745,22.9781484 38.1593961,23.0072219 C38.3085548,23.0340589 38.415399,23.1358162 38.3952996,23.2543466" id="Fill-27" fill="#979797" mask="url(#mask-go-2)"></path>
                        <path d="M38.3952996,23.2543466 L38.3085548,23.7843789 L38.8385442,23.8816633 C38.9570249,23.9029093 39.0204967,24.0214398 38.9940501,24.1802258 C38.9697193,24.3289479 38.871338,24.4329416 38.7528573,24.4116956 L38.2228679,24.3144112 L38.137181,24.8399706 C38.1202552,24.9439643 37.9848487,25.0222391 37.8367478,24.9942838 C37.6780684,24.9652103 37.5902657,24.8477981 37.6071915,24.7438044 L37.6928784,24.218245 L37.1681783,24.1220788 C37.0645077,24.1030692 36.9798787,23.9655292 37.0042095,23.816807 C37.0295982,23.658021 37.1501946,23.5730369 37.2549231,23.5920465 L37.7796232,23.6882127 L37.8653101,23.1581804 C37.8854095,23.0385318 38.0017745,22.9781484 38.1593961,23.0072219 C38.3085548,23.0340589 38.415399,23.1358162 38.3952996,23.2543466 Z" id="Stroke-28" stroke="#4A494A" stroke-width="0.185" mask="url(#mask-go-2)"></path>
                        <path d="M57.3952529,19.2543466 L57.3095688,19.7843789 L57.8395411,19.8816633 C57.958018,19.9029093 58.0204299,20.0214398 57.9939842,20.1802258 C57.9707119,20.3289479 57.871276,20.4329416 57.7527991,20.4116956 L57.2228268,20.3144112 L57.1382004,20.8399706 C57.1202173,20.9439643 56.9858731,21.0222391 56.837777,20.9942838 C56.6791026,20.9652103 56.590245,20.8477981 56.6082281,20.7438044 L56.6939122,20.218245 L56.169229,20.1220788 C56.0645039,20.1030692 55.9798776,19.9655292 56.0042077,19.816807 C56.0295956,19.658021 56.1501881,19.5730369 56.2549132,19.5920465 L56.7795964,19.6882127 L56.8652805,19.1581804 C56.8853793,19.0385318 57.0017405,18.9781484 57.1604149,19.0072219 C57.3095688,19.0351771 57.4153517,19.1358162 57.3952529,19.2543466" id="Fill-29" fill="#979797" mask="url(#mask-go-2)"></path>
                        <path d="M57.3952529,19.2543466 L57.3095688,19.7843789 L57.8395411,19.8816633 C57.958018,19.9029093 58.0204299,20.0214398 57.9939842,20.1802258 C57.9707119,20.3289479 57.871276,20.4329416 57.7527991,20.4116956 L57.2228268,20.3144112 L57.1382004,20.8399706 C57.1202173,20.9439643 56.9858731,21.0222391 56.837777,20.9942838 C56.6791026,20.9652103 56.590245,20.8477981 56.6082281,20.7438044 L56.6939122,20.218245 L56.169229,20.1220788 C56.0645039,20.1030692 55.9798776,19.9655292 56.0042077,19.816807 C56.0295956,19.658021 56.1501881,19.5730369 56.2549132,19.5920465 L56.7795964,19.6882127 L56.8652805,19.1581804 C56.8853793,19.0385318 57.0017405,18.9781484 57.1604149,19.0072219 C57.3095688,19.0351771 57.4153517,19.1358162 57.3952529,19.2543466 Z" id="Stroke-30" stroke="#4A494A" stroke-width="0.185" mask="url(#mask-go-2)"></path>
                        <path d="M50.8331223,6.98239048 C50.2879196,6.87977919 49.9214422,6.3562716 50.0144155,5.81471202 C50.1064862,5.27220234 50.622804,4.91496303 51.1671041,5.01757432 C51.7123069,5.12018561 52.0778815,5.64369321 51.9858109,6.18620289 C51.8937402,6.72871257 51.3774224,7.08500177 50.8331223,6.98239048" id="Fill-31" fill="#979797" mask="url(#mask-go-2)"></path>
                        <path d="M50.8331223,6.98239048 C50.2879196,6.87977919 49.9214422,6.3562716 50.0144155,5.81471202 C50.1064862,5.27220234 50.622804,4.91496303 51.1671041,5.01757432 C51.7123069,5.12018561 52.0778815,5.64369321 51.9858109,6.18620289 C51.8937402,6.72871257 51.3774224,7.08500177 50.8331223,6.98239048 Z" id="Stroke-32" stroke="#4A494A" stroke-width="0.185" mask="url(#mask-go-2)"></path>
                        <path d="M58.8325013,5.98242422 C58.2880177,5.87981301 57.9214168,5.3563058 58.0144214,4.81379651 C58.1056202,4.27128723 58.6230151,3.91499829 59.1674987,4.01760951 C59.7119823,4.12022072 60.0785832,4.64277782 59.9855786,5.18623721 C59.8934769,5.7277964 59.3778879,6.08503544 58.8325013,5.98242422" id="Fill-33" fill="#979797" mask="url(#mask-go-2)"></path>
                        <path d="M58.8325013,5.98242422 C58.2880177,5.87981301 57.9214168,5.3563058 58.0144214,4.81379651 C58.1056202,4.27128723 58.6230151,3.91499829 59.1674987,4.01760951 C59.7119823,4.12022072 60.0785832,4.64277782 59.9855786,5.18623721 C59.8934769,5.7277964 59.3778879,6.08503544 58.8325013,5.98242422 Z" id="Stroke-34" stroke="#4A494A" stroke-width="0.185" mask="url(#mask-go-2)"></path>
                        <path d="M52.7909136,16.5085784 L52.6603349,17.309662 C52.6365933,17.4528023 52.7279984,17.5884089 52.8633254,17.6135212 L53.6776616,17.7629396 C53.9150774,17.8056306 54.0397207,18.0429422 53.9886763,18.3606133 C53.9400061,18.6569389 53.742951,18.8666269 53.5055352,18.8226803 L52.7054439,18.6770287 C52.5618073,18.6506608 52.4252933,18.7523657 52.4015517,18.9042954 L52.2745342,19.6802666 C52.241296,19.888699 51.9718291,20.0431399 51.6750593,19.9891484 C51.3581092,19.9326456 51.1824215,19.695334 51.2156597,19.4881572 L51.3331806,18.7624107 C51.3628575,18.5828575 51.248898,18.410838 51.0791457,18.3794475 L50.3384084,18.2450965 C50.1294824,18.207428 49.9597301,17.9311923 50.0084004,17.6336111 C50.0594448,17.3171957 50.3016089,17.1464318 50.5093477,17.1841003 L51.279762,17.3247294 C51.4328952,17.3523529 51.580093,17.2431143 51.6073958,17.0798841 L51.730852,16.3152134 C51.7700256,16.0766462 52.0038802,15.9573626 52.3208303,16.0138653 C52.6176001,16.0678569 52.8289001,16.2700112 52.7909136,16.5085784" id="Fill-35" fill="#979797" mask="url(#mask-go-2)"></path>
                        <path d="M52.7909136,16.5085784 L52.6603349,17.309662 C52.6365933,17.4528023 52.7279984,17.5884089 52.8633254,17.6135212 L53.6776616,17.7629396 C53.9150774,17.8056306 54.0397207,18.0429422 53.9886763,18.3606133 C53.9400061,18.6569389 53.742951,18.8666269 53.5055352,18.8226803 L52.7054439,18.6770287 C52.5618073,18.6506608 52.4252933,18.7523657 52.4015517,18.9042954 L52.2745342,19.6802666 C52.241296,19.888699 51.9718291,20.0431399 51.6750593,19.9891484 C51.3581092,19.9326456 51.1824215,19.695334 51.2156597,19.4881572 L51.3331806,18.7624107 C51.3628575,18.5828575 51.248898,18.410838 51.0791457,18.3794475 L50.3384084,18.2450965 C50.1294824,18.207428 49.9597301,17.9311923 50.0084004,17.6336111 C50.0594448,17.3171957 50.3016089,17.1464318 50.5093477,17.1841003 L51.279762,17.3247294 C51.4328952,17.3523529 51.580093,17.2431143 51.6073958,17.0798841 L51.730852,16.3152134 C51.7700256,16.0766462 52.0038802,15.9573626 52.3208303,16.0138653 C52.6176001,16.0678569 52.8289001,16.2700112 52.7909136,16.5085784 Z" id="Stroke-36" stroke="#4A494A" stroke-width="0.185" mask="url(#mask-go-2)"></path>
                        <path d="M59.754373,11.0673896 L59.1063929,11.7756201 C58.9913583,11.9019287 58.9957267,12.1004137 59.118042,12.2207076 L59.8548463,12.9409675 C60.0703543,13.1499782 60.0441439,13.4732681 59.7878641,13.7544551 C59.5476018,14.0160944 59.2126908,14.0867671 58.9971828,13.8777564 L58.2734837,13.1695259 C58.1453439,13.0432173 57.9400288,13.049232 57.8191696,13.183059 L57.1901193,13.870238 C57.0226638,14.0536863 56.646981,14.0191018 56.3790521,13.7574625 C56.0921935,13.4777791 56.064527,13.118401 56.2319825,12.9349528 L56.8173488,12.2943876 C56.9644184,12.1349982 56.9571377,11.8838846 56.8027874,11.7335172 L56.1329653,11.079419 C55.9451239,10.8959708 55.9494923,10.5020082 56.1897546,10.2388652 C56.4460343,9.95918182 56.8027874,9.95918182 56.9906288,10.1426301 L57.6852052,10.8222907 C57.8264503,10.9576214 58.0463267,10.9516067 58.1773788,10.807254 L58.7962362,10.1321043 C58.988446,9.92158997 59.3029712,9.96519651 59.5912859,10.2448799 C59.8592147,10.5065192 59.9465828,10.8568752 59.754373,11.0673896" id="Fill-37" fill="#979797" mask="url(#mask-go-2)"></path>
                        <path d="M59.754373,11.0673896 L59.1063929,11.7756201 C58.9913583,11.9019287 58.9957267,12.1004137 59.118042,12.2207076 L59.8548463,12.9409675 C60.0703543,13.1499782 60.0441439,13.4732681 59.7878641,13.7544551 C59.5476018,14.0160944 59.2126908,14.0867671 58.9971828,13.8777564 L58.2734837,13.1695259 C58.1453439,13.0432173 57.9400288,13.049232 57.8191696,13.183059 L57.1901193,13.870238 C57.0226638,14.0536863 56.646981,14.0191018 56.3790521,13.7574625 C56.0921935,13.4777791 56.064527,13.118401 56.2319825,12.9349528 L56.8173488,12.2943876 C56.9644184,12.1349982 56.9571377,11.8838846 56.8027874,11.7335172 L56.1329653,11.079419 C55.9451239,10.8959708 55.9494923,10.5020082 56.1897546,10.2388652 C56.4460343,9.95918182 56.8027874,9.95918182 56.9906288,10.1426301 L57.6852052,10.8222907 C57.8264503,10.9576214 58.0463267,10.9516067 58.1773788,10.807254 L58.7962362,10.1321043 C58.988446,9.92158997 59.3029712,9.96519651 59.5912859,10.2448799 C59.8592147,10.5065192 59.9465828,10.8568752 59.754373,11.0673896 Z" id="Stroke-38" stroke="#4A494A" stroke-width="0.185" mask="url(#mask-go-2)"></path>
                    </g>
                </g>
            </g>
        </g>
    </g>
</svg>