<?xml version="1.0" encoding="UTF-8"?>
<svg xmlns="http://www.w3.org/2000/svg" xmlns:xlink="http://www.w3.org/1999/xlink" width="67" height="65" viewBox="0 0 26 35">
<defs>
<clipPath id="a">
<path d="M0,22.685C0,19.4,6.1,12.457,8.721,9.624H7.562a.687.687,0,1,1,0-1.374h.88c-1.633-1.455-4.394-4.172-4.554-6A1.724,1.724,0,0,1,4.3.92,1.505,1.505,0,0,1,5.488.437c1.364,0,3.492,1.278,4.639,2.04C10.923,1.347,12.08,0,13.062,0S15.2,1.347,15.993,2.478c1.148-.762,3.281-2.04,4.64-2.04A1.519,1.519,0,0,1,21.825.92a1.736,1.736,0,0,1,.41,1.329c-.16,1.828-2.922,4.544-4.554,6h.879a.687.687,0,0,1,0,1.374H17.4c2.622,2.835,8.718,9.787,8.718,13.062,0,5.684-5.858,10.309-13.059,10.309S0,28.37,0,22.685Zm1.375,0c0,4.927,5.243,8.935,11.686,8.935s11.685-4.009,11.685-8.935c0-2.686-6.036-9.718-9.229-13.062H10.6C7.412,12.967,1.375,20,1.375,22.685ZM5.32,1.836l0,0a.384.384,0,0,0-.059.29c.127,1.428,3.237,4.442,5.3,6.119h5.013c2.06-1.676,5.17-4.688,5.3-6.119a.351.351,0,0,0-.068-.3.012.012,0,0,0-.007,0,.579.579,0,0,0-.154-.018c-1,0-3.245,1.339-4.424,2.183a.686.686,0,0,1-.4.129.767.767,0,0,1-.128-.012.688.688,0,0,1-.449-.3A7.45,7.45,0,0,0,13.04,1.374,8.015,8.015,0,0,0,10.886,3.81a.7.7,0,0,1-.449.3.682.682,0,0,1-.128.012A.674.674,0,0,1,9.911,4C8.734,3.151,6.492,1.812,5.488,1.812A.426.426,0,0,0,5.32,1.836Zm5.872,23.348a3.884,3.884,0,0,1-.91-2.069H9.664a.173.173,0,0,1-.172-.174v-.606a.171.171,0,0,1,.172-.172l.533-.013c0-.135.005-.265.014-.386H9.664a.172.172,0,0,1-.172-.172v-.62a.172.172,0,0,1,.172-.171h.673a4.04,4.04,0,0,1,1.035-2.04,3.44,3.44,0,0,1,2.574-1.078,3.7,3.7,0,0,1,1.73.416.173.173,0,0,1,.081.2l-.246.815a.173.173,0,0,1-.253.1,2.7,2.7,0,0,0-1.3-.322,1.991,1.991,0,0,0-1.508.626,2.608,2.608,0,0,0-.656,1.282h3.242a.171.171,0,0,1,.173.171v.62a.172.172,0,0,1-.173.172h-3.4c-.008.113-.014.234-.014.347v.051h3.417a.171.171,0,0,1,.173.172v.606a.172.172,0,0,1-.173.174h-3.3a2.707,2.707,0,0,0,.607,1.334,2.172,2.172,0,0,0,1.616.661,3.085,3.085,0,0,0,1.428-.386.169.169,0,0,1,.149-.009.179.179,0,0,1,.1.114l.21.779a.175.175,0,0,1-.07.186,3.5,3.5,0,0,1-1.94.549A3.422,3.422,0,0,1,11.192,25.184Z" transform="translate(0 0)" fill="none"/>
</clipPath>
</defs>
<g transform="translate(0 0)">
<path d="M0,22.685C0,19.4,6.1,12.457,8.721,9.624H7.562a.687.687,0,1,1,0-1.374h.88c-1.633-1.455-4.394-4.172-4.554-6A1.724,1.724,0,0,1,4.3.92,1.505,1.505,0,0,1,5.488.437c1.364,0,3.492,1.278,4.639,2.04C10.923,1.347,12.08,0,13.062,0S15.2,1.347,15.993,2.478c1.148-.762,3.281-2.04,4.64-2.04A1.519,1.519,0,0,1,21.825.92a1.736,1.736,0,0,1,.41,1.329c-.16,1.828-2.922,4.544-4.554,6h.879a.687.687,0,0,1,0,1.374H17.4c2.622,2.835,8.718,9.787,8.718,13.062,0,5.684-5.858,10.309-13.059,10.309S0,28.37,0,22.685Zm1.375,0c0,4.927,5.243,8.935,11.686,8.935s11.685-4.009,11.685-8.935c0-2.686-6.036-9.718-9.229-13.062H10.6C7.412,12.967,1.375,20,1.375,22.685ZM5.32,1.836l0,0a.384.384,0,0,0-.059.29c.127,1.428,3.237,4.442,5.3,6.119h5.013c2.06-1.676,5.17-4.688,5.3-6.119a.351.351,0,0,0-.068-.3.012.012,0,0,0-.007,0,.579.579,0,0,0-.154-.018c-1,0-3.245,1.339-4.424,2.183a.686.686,0,0,1-.4.129.767.767,0,0,1-.128-.012.688.688,0,0,1-.449-.3A7.45,7.45,0,0,0,13.04,1.374,8.015,8.015,0,0,0,10.886,3.81a.7.7,0,0,1-.449.3.682.682,0,0,1-.128.012A.674.674,0,0,1,9.911,4C8.734,3.151,6.492,1.812,5.488,1.812A.426.426,0,0,0,5.32,1.836Zm5.872,23.348a3.884,3.884,0,0,1-.91-2.069H9.664a.173.173,0,0,1-.172-.174v-.606a.171.171,0,0,1,.172-.172l.533-.013c0-.135.005-.265.014-.386H9.664a.172.172,0,0,1-.172-.172v-.62a.172.172,0,0,1,.172-.171h.673a4.04,4.04,0,0,1,1.035-2.04,3.44,3.44,0,0,1,2.574-1.078,3.7,3.7,0,0,1,1.73.416.173.173,0,0,1,.081.2l-.246.815a.173.173,0,0,1-.253.1,2.7,2.7,0,0,0-1.3-.322,1.991,1.991,0,0,0-1.508.626,2.608,2.608,0,0,0-.656,1.282h3.242a.171.171,0,0,1,.173.171v.62a.172.172,0,0,1-.173.172h-3.4c-.008.113-.014.234-.014.347v.051h3.417a.171.171,0,0,1,.173.172v.606a.172.172,0,0,1-.173.174h-3.3a2.707,2.707,0,0,0,.607,1.334,2.172,2.172,0,0,0,1.616.661,3.085,3.085,0,0,0,1.428-.386.169.169,0,0,1,.149-.009.179.179,0,0,1,.1.114l.21.779a.175.175,0,0,1-.07.186,3.5,3.5,0,0,1-1.94.549A3.422,3.422,0,0,1,11.192,25.184Z" transform="translate(0 0)" fill="none"/>
<g clip-path="url(#a)">
<rect width="27" height="33" fill="#f59100"/>
</g>
</g>
</svg>