<?xml version="1.0" encoding="UTF-8"?>
<svg width="156px" height="155px" viewBox="0 0 156 155" version="1.1" xmlns="http://www.w3.org/2000/svg" xmlns:xlink="http://www.w3.org/1999/xlink">
    <!-- Generator: sketchtool 64 (101010) - https://sketch.com -->
    <title>C8BB5E81-B934-4A95-9598-B85949CD314F@1,5x</title>
    <desc>Created with sketchtool.</desc>
    <defs>
        <polygon id="path-1" points="0.803108808 0.401554404 1.20466321 0.401554404 1.20466321 0.803108808 0.803108808 0.803108808"></polygon>
    </defs>
    <g id="Modif" stroke="none" stroke-width="1" fill="none" fill-rule="evenodd">
        <g id="Bouton-Commander-supprimer" transform="translate(-342.000000, -181.000000)">
            <g id="V2-/-illustration-/-avatar-/-idée" transform="translate(342.000000, 182.000000)">
                <g id="Group-128">
                    <g id="Group-3" transform="translate(0.000000, 152.625207)">
                        <mask id="mask-2" fill="white">
                            <use xlink:href="#path-1"></use>
                        </mask>
                        <g id="Clip-2"></g>
                        <path d="" id="Fill-1" fill="#4A494A" mask="url(#mask-2)"></path>
                    </g>
                    <path d="M41.3045285,83.6764689 C42.5718342,81.4960285 46.5207202,79.4762098 47.9133109,79.085899 C49.3067047,78.694785 51.4582332,79.0152254 49.1019119,81.1691632 C42.6168083,87.0977124 48.4939585,91.9260026 48.4939585,91.9260026 C48.4939585,91.9260026 47.316601,85.6545259 50.7820155,83.7744482 C52.4813938,82.8524793 53.1672487,84.6731269 52.859658,86.134785 C52.4010829,88.3039819 53.0564197,93.7578938 53.4242435,96.482842 C52.8749171,99.8093187 52.8066528,99.3121943 52.8749171,99.8093187 L56.867171,119.948878 L77.3761606,116.34292 C79.9196062,115.895588 82.346601,117.584526 82.7955389,120.115122 C83.2452798,122.645718 81.5475078,125.059863 79.0040622,125.506391 L56.9771969,129.379785 C54.4337513,129.827117 51.2767306,130.279267 49.8793212,129.089863 C49.8793212,129.089863 48.0530518,127.55994 48.0514456,124.508127 L45.6903057,103.757402 C45.6083886,103.162298 44.6510829,98.8158731 44.7860052,98.2657435 C44.2423005,97.5670389 42.5140104,95.3159249 40.983285,92.9652254 C39.7697876,91.1028161 40.2179223,85.5445 41.3045285,83.6764689" id="Fill-4" fill="#FCFCFC"></path>
                    <path d="M41.3045285,83.6764689 C42.5718342,81.4960285 46.5207202,79.4762098 47.9133109,79.085899 C49.3067047,78.694785 51.4582332,79.0152254 49.1019119,81.1691632 C42.6168083,87.0977124 48.4939585,91.9260026 48.4939585,91.9260026 C48.4939585,91.9260026 47.316601,85.6545259 50.7820155,83.7744482 C52.4813938,82.8524793 53.1672487,84.6731269 52.859658,86.134785 C52.4010829,88.3039819 53.0564197,93.7578938 53.4242435,96.482842 C52.8749171,99.8093187 52.8066528,99.3121943 52.8749171,99.8093187 L56.867171,119.948878 L77.3761606,116.34292 C79.9196062,115.895588 82.346601,117.584526 82.7955389,120.115122 C83.2452798,122.645718 81.5475078,125.059863 79.0040622,125.506391 L56.9771969,129.379785 C54.4337513,129.827117 51.2767306,130.279267 49.8793212,129.089863 C49.8793212,129.089863 48.0530518,127.55994 48.0514456,124.508127 L45.6903057,103.757402 C45.6083886,103.162298 44.6510829,98.8158731 44.7860052,98.2657435 C44.2423005,97.5670389 42.5140104,95.3159249 40.983285,92.9652254 C39.7697876,91.1028161 40.2179223,85.5445 41.3045285,83.6764689 Z" id="Stroke-6" stroke="#585856" stroke-width="0.826398964" stroke-linecap="round" stroke-linejoin="round"></path>
                    <path d="M52.535443,72.7721788 C51.4496399,72.6476969 50.5983446,71.8831373 50.3220751,70.8728264 L55.1246658,71.4253653 C54.624329,72.345728 53.620443,72.8966606 52.535443,72.7721788" id="Fill-8" fill="#EDECEC"></path>
                    <path d="M52.535443,72.7721788 C51.4496399,72.6476969 50.5983446,71.8831373 50.3220751,70.8728264 L55.1246658,71.4253653 C54.624329,72.345728 53.620443,72.8966606 52.535443,72.7721788 Z" id="Stroke-10" stroke="#585856" stroke-width="0.529248705"></path>
                    <path d="M55.4671114,70.4691036 L55.3619041,70.8562021 C55.3064896,71.0601917 55.2213601,71.2473161 55.1241839,71.4248031 L50.3223964,70.8730674 C50.2685881,70.6779119 50.2300389,70.4771347 50.2220078,70.2659171 L50.2075518,69.8651658 L50.1890803,69.8619534 L55.4799611,70.4699067 L55.4671114,70.4691036 Z" id="Fill-12" fill="#EDECEC"></path>
                    <path d="M55.4671114,70.4691036 L55.3619041,70.8562021 C55.3064896,71.0601917 55.2213601,71.2473161 55.1241839,71.4248031 L50.3223964,70.8730674 C50.2685881,70.6779119 50.2300389,70.4771347 50.2220078,70.2659171 L50.2075518,69.8651658 L50.1890803,69.8619534 L55.4799611,70.4699067 L55.4671114,70.4691036 Z" id="Stroke-14" stroke="#585856" stroke-width="0.529248705"></path>
                    <path d="M55.4671114,70.4691036 L55.4799611,70.4699067 L55.5289508,70.4755285 L55.4149093,71.4585337 L55.1241839,71.4248031 C55.2213601,71.2473161 55.3064896,71.0601917 55.3619041,70.8562021 L55.4671114,70.4691036 Z" id="Fill-16" fill="#EDECEC"></path>
                    <path d="M55.4671114,70.4691036 L55.4799611,70.4699067 L55.5289508,70.4755285 L55.4149093,71.4585337 L55.1241839,71.4248031 C55.2213601,71.2473161 55.3064896,71.0601917 55.3619041,70.8562021 L55.4671114,70.4691036 Z" id="Stroke-18" stroke="#585856" stroke-width="0.529248705"></path>
                    <path d="M50.2218472,70.2659974 C50.2298782,70.477215 50.2692306,70.6779922 50.3222358,70.8731477 L49.8652668,70.8201425 L49.9785052,69.8379404 L50.1889197,69.8620337 L50.2073912,69.8652461 L50.2218472,70.2659974 Z" id="Fill-20" fill="#EDECEC"></path>
                    <path d="M50.2218472,70.2659974 C50.2298782,70.477215 50.2692306,70.6779922 50.3222358,70.8731477 L49.8652668,70.8201425 L49.9785052,69.8379404 L50.1889197,69.8620337 L50.2073912,69.8652461 L50.2218472,70.2659974 Z" id="Stroke-22" stroke="#585856" stroke-width="0.529248705"></path>
                    <path d="M58.4976425,21.4394715 C67.0595855,22.4240829 73.2210363,30.1548083 72.2324093,38.6733834 C71.8276425,42.1628912 70.2953109,45.3247306 67.8032642,47.8191865 C65.6445078,49.9795492 63.527513,52.4073472 61.6787565,54.8407668 L61.5968394,54.9483834 L61.0242228,59.8858964 L47.3183679,58.3101969 L47.8757254,53.5116218 L47.8187047,53.3863368 C46.4967876,50.4814922 44.8423834,47.3525803 43.3943782,45.0155337 C41.5383938,42.0223472 40.7714249,38.5954819 41.1769948,35.1043679 C42.1656218,26.5857927 49.9356995,20.4556632 58.4976425,21.4394715" id="Fill-24" fill="#EDECEC"></path>
                    <path d="M58.4976425,21.4394715 C67.0595855,22.4240829 73.2210363,30.1548083 72.2324093,38.6733834 C71.8276425,42.1628912 70.2953109,45.3247306 67.8032642,47.8191865 C65.6445078,49.9795492 63.527513,52.4073472 61.6787565,54.8407668 L61.5968394,54.9483834 L61.0242228,59.8858964 L47.3183679,58.3101969 L47.8757254,53.5116218 L47.8187047,53.3863368 C46.4967876,50.4814922 44.8423834,47.3525803 43.3943782,45.0155337 C41.5383938,42.0223472 40.7714249,38.5954819 41.1769948,35.1043679 C42.1656218,26.5857927 49.9356995,20.4556632 58.4976425,21.4394715 Z" id="Stroke-26" stroke="#585856" stroke-width="0.529248705"></path>
                    <path d="M59.8293575,61.7415596 C61.0179585,61.8780881 61.8748756,62.9518446 61.7367409,64.1356269 C61.5994093,65.3194093 60.5200311,66.1707047 59.3306269,66.0341762 L47.4703161,64.6713005 C46.2809119,64.534772 45.4247979,63.4602124 45.5621295,62.2764301 C45.6994611,61.0934508 46.7796425,60.2413523 47.9690466,60.3786839 L59.8293575,61.7415596 Z" id="Fill-28" fill="#EDECEC"></path>
                    <path d="M59.8293575,61.7415596 C61.0179585,61.8780881 61.8748756,62.9518446 61.7367409,64.1356269 C61.5994093,65.3194093 60.5200311,66.1707047 59.3306269,66.0341762 L47.4703161,64.6713005 C46.2809119,64.534772 45.4247979,63.4602124 45.5621295,62.2764301 C45.6994611,61.0934508 46.7796425,60.2413523 47.9690466,60.3786839 L59.8293575,61.7415596 Z" id="Stroke-30" stroke="#585856" stroke-width="0.529248705"></path>
                    <path d="M60.4434145,67.6237694 C60.1928446,69.7913601 58.3641658,71.421671 56.1997876,71.4851166 C55.6078964,73.0054016 54.077171,73.945842 52.4211606,73.7547021 C50.763544,73.5643653 49.4882073,72.3018782 49.2617306,70.6876295 C47.1736477,70.1334845 45.7714197,68.1313342 46.0227927,65.966956 L46.0798135,65.4754534 L60.5004352,67.1330699 L60.4434145,67.6237694 Z" id="Fill-32" fill="#EDECEC"></path>
                    <path d="M60.4434145,67.6237694 C60.1928446,69.7913601 58.3641658,71.421671 56.1997876,71.4851166 C55.6078964,73.0054016 54.077171,73.945842 52.4211606,73.7547021 C50.763544,73.5643653 49.4882073,72.3018782 49.2617306,70.6876295 C47.1736477,70.1334845 45.7714197,68.1313342 46.0227927,65.966956 L46.0798135,65.4754534 L60.5004352,67.1330699 L60.4434145,67.6237694 Z" id="Stroke-34" stroke="#585856" stroke-width="0.529248705"></path>
                    <path d="M58.6113627,20.4567876 C67.7186166,21.5040415 74.2719845,29.7262694 73.2199119,38.786943 C72.7886425,42.4989119 71.1599378,45.8639378 68.5080725,48.5166062 C66.4135648,50.6135233 64.356,52.9674352 62.5530207,55.3293782 L61.8976839,60.981658 L46.2161813,59.1794819 L46.8562591,53.6701554 C45.5600415,50.8367876 43.9546269,47.8050518 42.5483834,45.5354663 C40.5735389,42.3511399 39.7575803,38.7050259 40.1896528,34.9914508 C41.2409223,25.9299741 49.505715,19.4103368 58.6113627,20.4567876" id="Fill-36" fill="#EDECEC"></path>
                    <path d="M58.6113627,20.4567876 C67.7186166,21.5040415 74.2719845,29.7262694 73.2199119,38.786943 C72.7886425,42.4989119 71.1599378,45.8639378 68.5080725,48.5166062 C66.4135648,50.6135233 64.356,52.9674352 62.5530207,55.3293782 L61.8976839,60.981658 L46.2161813,59.1794819 L46.8562591,53.6701554 C45.5600415,50.8367876 43.9546269,47.8050518 42.5483834,45.5354663 C40.5735389,42.3511399 39.7575803,38.7050259 40.1896528,34.9914508 C41.2409223,25.9299741 49.505715,19.4103368 58.6113627,20.4567876 Z" id="Stroke-38" stroke="#585856" stroke-width="0.529248705"></path>
                    <path d="M58.0184275,16.4898316 L58.8665104,9.19037565 C58.893013,8.95747409 59.1050337,8.79042746 59.3387383,8.81773316 C59.572443,8.84423575 59.7402927,9.05465026 59.7121839,9.28755181 L58.8649041,16.5878109 C58.8384016,16.8199093 58.6271839,16.986956 58.3926762,16.9596503 C58.1589715,16.9331477 57.9919249,16.7227332 58.0184275,16.4898316" id="Fill-40" fill="#EDECEC"></path>
                    <path d="M58.0184275,16.4898316 L58.8665104,9.19037565 C58.893013,8.95747409 59.1050337,8.79042746 59.3387383,8.81773316 C59.572443,8.84423575 59.7402927,9.05465026 59.7121839,9.28755181 L58.8649041,16.5878109 C58.8384016,16.8199093 58.6271839,16.986956 58.3926762,16.9596503 C58.1589715,16.9331477 57.9919249,16.7227332 58.0184275,16.4898316 Z" id="Stroke-42" stroke="#F8B133" stroke-width="0.529248705"></path>
                    <path d="M44.1898575,11.1229767 L47.2673705,17.8032358 C47.3661528,18.0160596 47.2721891,18.2674326 47.0577591,18.3654119 C46.9838731,18.3983394 46.9067746,18.4095829 46.8320855,18.4007487 C46.688329,18.3846865 46.5574223,18.2963446 46.4931736,18.1566036 L43.4148575,11.4755415 C43.3168782,11.2635207 43.410842,11.0113446 43.625272,10.9141684 C43.838899,10.8161891 44.0918782,10.9101528 44.1898575,11.1229767" id="Fill-44" fill="#EDECEC"></path>
                    <path d="M44.1898575,11.1229767 L47.2673705,17.8032358 C47.3661528,18.0160596 47.2721891,18.2674326 47.0577591,18.3654119 C46.9838731,18.3983394 46.9067746,18.4095829 46.8320855,18.4007487 C46.688329,18.3846865 46.5574223,18.2963446 46.4931736,18.1566036 L43.4148575,11.4755415 C43.3168782,11.2635207 43.410842,11.0113446 43.625272,10.9141684 C43.838899,10.8161891 44.0918782,10.9101528 44.1898575,11.1229767 Z" id="Stroke-46" stroke="#F8B133" stroke-width="0.529248705"></path>
                    <path d="M32.9989378,21.5120725 L39.1105959,25.6376425 C39.3065544,25.7693523 39.3563472,26.032772 39.2246373,26.2263212 C39.1322798,26.3620466 38.9748705,26.4270984 38.8222798,26.4102332 C38.7564249,26.4022021 38.6913731,26.3789119 38.6327461,26.3395596 L32.520285,22.2139896 C32.3251295,22.0822798 32.2753368,21.8188601 32.4070466,21.6253109 C32.5395596,21.4309585 32.8037824,21.3803627 32.9989378,21.5120725" id="Fill-48" fill="#EDECEC"></path>
                    <path d="M32.9989378,21.5120725 L39.1105959,25.6376425 C39.3065544,25.7693523 39.3563472,26.032772 39.2246373,26.2263212 C39.1322798,26.3620466 38.9748705,26.4270984 38.8222798,26.4102332 C38.7564249,26.4022021 38.6913731,26.3789119 38.6327461,26.3395596 L32.520285,22.2139896 C32.3251295,22.0822798 32.2753368,21.8188601 32.4070466,21.6253109 C32.5395596,21.4309585 32.8037824,21.3803627 32.9989378,21.5120725 Z" id="Stroke-50" stroke="#F8B133" stroke-width="0.529248705"></path>
                    <path d="M35.6247021,35.2593679 C35.8608161,35.2730207 36.0415155,35.4705855 36.0286658,35.7042902 C36.0166192,35.9387979 35.815842,36.1178912 35.5813342,36.1066477 L28.2055829,35.7299896 C28.1959456,35.7291865 28.1863083,35.7283834 28.1782772,35.7275803 C27.9558161,35.7018808 27.7895725,35.5099378 27.8016192,35.2850674 C27.8128627,35.0513627 28.0136399,34.8714663 28.2481477,34.883513 L35.6247021,35.2593679 Z" id="Fill-52" fill="#EDECEC"></path>
                    <path d="M35.6247021,35.2593679 C35.8608161,35.2730207 36.0415155,35.4705855 36.0286658,35.7042902 C36.0166192,35.9387979 35.815842,36.1178912 35.5813342,36.1066477 L28.2055829,35.7299896 C28.1959456,35.7291865 28.1863083,35.7283834 28.1782772,35.7275803 C27.9558161,35.7018808 27.7895725,35.5099378 27.8016192,35.2850674 C27.8128627,35.0513627 28.0136399,34.8714663 28.2481477,34.883513 L35.6247021,35.2593679 Z" id="Stroke-54" stroke="#F8B133" stroke-width="0.529248705"></path>
                    <path d="M38.0700881,46.8621218 C38.1817202,47.0685207 38.1038187,47.3255155 37.8966166,47.4363446 L31.3930415,50.9178212 C31.3127306,50.9611891 31.2259948,50.9756451 31.1424715,50.9660078 C31.0083523,50.9507487 30.8846736,50.8728472 30.8156062,50.7451528 C30.7039741,50.539557 30.7818756,50.2825622 30.9890777,50.1717332 L37.4926528,46.6894534 C37.700658,46.5786244 37.958456,46.6557228 38.0700881,46.8621218" id="Fill-56" fill="#EDECEC"></path>
                    <path d="M38.0700881,46.8621218 C38.1817202,47.0685207 38.1038187,47.3255155 37.8966166,47.4363446 L31.3930415,50.9178212 C31.3127306,50.9611891 31.2259948,50.9756451 31.1424715,50.9660078 C31.0083523,50.9507487 30.8846736,50.8728472 30.8156062,50.7451528 C30.7039741,50.539557 30.7818756,50.2825622 30.9890777,50.1717332 L37.4926528,46.6894534 C37.700658,46.5786244 37.958456,46.6557228 38.0700881,46.8621218 Z" id="Stroke-58" stroke="#F8B133" stroke-width="0.529248705"></path>
                    <path d="M70.1740415,21.0218549 C69.9885233,20.8780984 69.9547927,20.6122694 70.0985492,20.4267513 L74.6264767,14.6210777 C74.7710363,14.4363627 75.0384715,14.401829 75.2239896,14.5463886 C75.4103109,14.689342 75.4440415,14.9559741 75.300285,15.1406891 L70.7723575,20.9463627 C70.6775907,21.0684352 70.5290155,21.1246528 70.3860622,21.1077876 C70.3113731,21.0997565 70.2382902,21.0716477 70.1740415,21.0218549" id="Fill-60" fill="#EDECEC"></path>
                    <path d="M70.1740415,21.0218549 C69.9885233,20.8780984 69.9547927,20.6122694 70.0985492,20.4267513 L74.6264767,14.6210777 C74.7710363,14.4363627 75.0384715,14.401829 75.2239896,14.5463886 C75.4103109,14.689342 75.4440415,14.9559741 75.300285,15.1406891 L70.7723575,20.9463627 C70.6775907,21.0684352 70.5290155,21.1246528 70.3860622,21.1077876 C70.3113731,21.0997565 70.2382902,21.0716477 70.1740415,21.0218549 Z" id="Stroke-62" stroke="#F8B133" stroke-width="0.529248705"></path>
                    <path d="M76.5503238,30.6976295 C76.4836658,30.7225259 76.4154016,30.730557 76.3495466,30.7225259 C76.196956,30.7056606 76.0588212,30.6060751 75.9993912,30.4534845 C75.9158679,30.2350389 76.0258938,29.9892876 76.2451425,29.9057642 L83.1422409,27.2755829 C83.3614896,27.1912565 83.608044,27.3012824 83.6923705,27.5189249 C83.7766969,27.7381736 83.666671,27.9831218 83.4466192,28.0674482 L76.5503238,30.6976295 Z" id="Fill-64" fill="#EDECEC"></path>
                    <path d="M76.5503238,30.6976295 C76.4836658,30.7225259 76.4154016,30.730557 76.3495466,30.7225259 C76.196956,30.7056606 76.0588212,30.6060751 75.9993912,30.4534845 C75.9158679,30.2350389 76.0258938,29.9892876 76.2451425,29.9057642 L83.1422409,27.2755829 C83.3614896,27.1912565 83.608044,27.3012824 83.6923705,27.5189249 C83.7766969,27.7381736 83.666671,27.9831218 83.4466192,28.0674482 L76.5503238,30.6976295 Z" id="Stroke-66" stroke="#F8B133" stroke-width="0.529248705"></path>
                    <path d="M84.5516166,42.2061788 L77.2826788,40.8995207 C77.0513834,40.8577591 76.8979896,40.6369041 76.9389482,40.4064119 C76.9807098,40.1759197 77.2023679,40.023329 77.4352694,40.0642876 L84.702601,41.3717487 C84.9346995,41.4135104 85.0880933,41.6343653 85.0463316,41.8640544 C85.0061762,42.0857124 84.8005803,42.2358938 84.5781192,42.2101943 C84.569285,42.2085881 84.5604508,42.207785 84.5516166,42.2061788" id="Fill-68" fill="#EDECEC"></path>
                    <path d="M84.5516166,42.2061788 L77.2826788,40.8995207 C77.0513834,40.8577591 76.8979896,40.6369041 76.9389482,40.4064119 C76.9807098,40.1759197 77.2023679,40.023329 77.4352694,40.0642876 L84.702601,41.3717487 C84.9346995,41.4135104 85.0880933,41.6343653 85.0463316,41.8640544 C85.0061762,42.0857124 84.8005803,42.2358938 84.5781192,42.2101943 C84.569285,42.2085881 84.5604508,42.207785 84.5516166,42.2061788 Z" id="Stroke-70" stroke="#F8B133" stroke-width="0.529248705"></path>
                    <path d="M77.9674896,56.2711839 L72.4316606,51.4051477 C72.2557798,51.2509508 72.2389145,50.9827124 72.3955207,50.8068316 C72.5513238,50.6317539 72.8203653,50.6156917 72.9970492,50.7698886 L78.531272,55.6359249 C78.707956,55.7909249 78.7240181,56.0583601 78.568215,56.2342409 C78.4726451,56.3418575 78.3337073,56.390044 78.2003912,56.374785 C78.1168679,56.3651477 78.0349508,56.330614 77.9674896,56.2711839" id="Fill-72" fill="#EDECEC"></path>
                    <path d="M77.9674896,56.2711839 L72.4316606,51.4051477 C72.2557798,51.2509508 72.2389145,50.9827124 72.3955207,50.8068316 C72.5513238,50.6317539 72.8203653,50.6156917 72.9970492,50.7698886 L78.531272,55.6359249 C78.707956,55.7909249 78.7240181,56.0583601 78.568215,56.2342409 C78.4726451,56.3418575 78.3337073,56.390044 78.2003912,56.374785 C78.1168679,56.3651477 78.0349508,56.330614 77.9674896,56.2711839 Z" id="Stroke-74" stroke="#F8B133" stroke-width="0.529248705"></path>
                    <path d="M95.2390477,128.932534 C95.2422798,129.686653 95.8590674,130.296212 96.6180052,130.292217 C97.3761399,130.288984 97.9881088,129.674606 97.984909,128.920487 C97.9816839,128.165565 97.3640933,127.556808 96.6059585,127.560804 C95.8478238,127.563233 95.2350518,128.178415 95.2390477,128.932534" id="Fill-76" fill="#585856"></path>
                    <path d="M102.568238,113.949896 L109.731969,113.918575 C109.731969,113.918575 107.210207,121.443705 104.047565,121.899067 L103.802617,120.961036 C103.802617,120.961036 102.15544,121.079093 100.488187,120.810052 C98.8217358,120.54101 94.7066062,119.39899 93.9789896,117.96544 C93.2497668,116.531891 92.9373575,117.089249 92.7462176,115.373808 C92.5542746,113.659171 92.7397927,113.992461 92.7397927,113.992461 L93.2393264,113.964352 C93.2393264,113.964352 95.0053627,117.754223 97.5745078,117.929301 C100.14285,118.104378 101.91772,117.543808 102.568238,113.949896" id="Fill-78" fill="#D7D7D7"></path>
                    <path d="M109.942783,90.2907927 C109.96214,94.7809741 113.637969,98.4054041 118.15144,98.3862061 C122.664912,98.3660518 126.30701,94.7094974 126.287812,90.2193161 C126.267658,85.7283316 122.592632,82.1047047 118.079161,82.1239027 C113.565689,82.1432539 109.922788,85.7998083 109.942783,90.2907927" id="Fill-80" fill="#F5F5F5"></path>
                    <path d="M109.942783,90.2907927 C109.96214,94.7809741 113.637969,98.4054041 118.15144,98.3862061 C122.664912,98.3660518 126.30701,94.7094974 126.287812,90.2193161 C126.267658,85.7283316 122.592632,82.1047047 118.079161,82.1239027 C113.565689,82.1432539 109.922788,85.7998083 109.942783,90.2907927 Z" id="Stroke-82" stroke="#585856" stroke-width="0.834430052" stroke-linecap="round" stroke-linejoin="round"></path>
                    <path d="M69.7340223,91.7142228 C69.7533731,96.2052073 73.4292021,99.8288342 77.9426736,99.8096361 C82.4561451,99.7894819 86.0990466,96.1329275 86.0790515,91.6427461 C86.0588912,87.1525648 82.3838653,83.5281347 77.8703938,83.5473328 C73.3569223,83.567487 69.7148238,87.2240415 69.7340223,91.7142228" id="Fill-84" fill="#F5F5F5"></path>
                    <path d="M69.7340223,91.7142228 C69.7533731,96.2052073 73.4292021,99.8288342 77.9426736,99.8096361 C82.4561451,99.7894819 86.0990466,96.1329275 86.0790515,91.6427461 C86.0588912,87.1525648 82.3838653,83.5281347 77.8703938,83.5473328 C73.3569223,83.567487 69.7148238,87.2240415 69.7340223,91.7142228 Z" id="Stroke-86" stroke="#585856" stroke-width="0.834430052" stroke-linecap="round" stroke-linejoin="round"></path>
                    <path d="M76.0043746,102.272694 C76.0237254,106.762876 79.6995544,110.387306 84.2130259,110.368108 C88.7264974,110.347953 92.369399,106.691399 92.3494038,102.201218 C92.3292435,97.7102332 88.6542176,94.0866062 84.1407461,94.1058043 C79.6280777,94.1251554 75.9851762,97.7817098 76.0043746,102.272694" id="Fill-88" fill="#F5F5F5"></path>
                    <path d="M76.0043746,102.272694 C76.0237254,106.762876 79.6995544,110.387306 84.2130259,110.368108 C88.7264974,110.347953 92.369399,106.691399 92.3494038,102.201218 C92.3292435,97.7102332 88.6542176,94.0866062 84.1407461,94.1058043 C79.6280777,94.1251554 75.9851762,97.7817098 76.0043746,102.272694 Z" id="Stroke-90" stroke="#585856" stroke-width="0.834430052" stroke-linecap="round" stroke-linejoin="round"></path>
                    <path d="M103.660631,102.151505 C103.680785,106.64249 107.356614,110.266117 111.869282,110.246919 C116.382754,110.226764 120.025655,106.57021 120.006457,102.080028 C119.986303,97.5898472 116.311277,93.9654171 111.797806,93.9846152 C107.284334,94.0047694 103.641433,97.6613238 103.660631,102.151505" id="Fill-92" fill="#F5F5F5"></path>
                    <path d="M103.660631,102.151505 C103.680785,106.64249 107.356614,110.266117 111.869282,110.246919 C116.382754,110.226764 120.025655,106.57021 120.006457,102.080028 C119.986303,97.5898472 116.311277,93.9654171 111.797806,93.9846152 C107.284334,94.0047694 103.641433,97.6613238 103.660631,102.151505 Z" id="Stroke-94" stroke="#585856" stroke-width="0.834430052" stroke-linecap="round" stroke-linejoin="round"></path>
                    <path d="M93.5810492,113.471886 L93.764158,107.691109 C93.8372409,105.376549 95.7438212,103.619347 98.0222409,103.766316 L98.2358679,103.779969 C100.515091,103.926938 102.302008,105.922663 102.229728,108.237223 L102.046619,114.018 C101.972733,116.33256 100.066153,118.089762 97.7877332,117.942793 L97.5749093,117.92914 C95.2956865,117.782171 93.5079663,115.786446 93.5810492,113.471886" id="Fill-96" fill="#FCFCFC"></path>
                    <path d="M93.5810492,113.471886 L93.764158,107.691109 C93.8372409,105.376549 95.7438212,103.619347 98.0222409,103.766316 L98.2358679,103.779969 C100.515091,103.926938 102.302008,105.922663 102.229728,108.237223 L102.046619,114.018 C101.972733,116.33256 100.066153,118.089762 97.7877332,117.942793 L97.5749093,117.92914 C95.2956865,117.782171 93.5079663,115.786446 93.5810492,113.471886 Z" id="Stroke-98" stroke="#585856" stroke-width="0.826398964"></path>
                    <g id="Group-103" transform="translate(69.870466, 47.417953)">
                        <path d="M29.7182383,33.3453187 C32.4512176,37.384956 48.2250777,42.906329 48.2250777,42.906329 C48.2250777,42.906329 58.9931606,29.3884016 53.4758031,18.6050596 C47.9584456,7.82252073 42.6860363,-6.86473316 24.5976166,4.77231347 C6.50919689,16.4093601 3.78987047,15.6705 1.21510363,13.4306295 C-1.3588601,11.189956 1.42471503,38.6635052 5.41215026,41.4591269 L9.4003886,44.2547487 L9.3361399,29.789956 C9.3361399,29.789956 11.7510881,24.8749301 23.8491192,26.0892306" id="Fill-100" fill="#F5F5F5"></path>
                        <path d="M29.7182383,33.3453187 C32.4512176,37.384956 48.2250777,42.906329 48.2250777,42.906329 C48.2250777,42.906329 58.9931606,29.3884016 53.4758031,18.6050596 C47.9584456,7.82252073 42.6860363,-6.86473316 24.5976166,4.77231347 C6.50919689,16.4093601 3.78987047,15.6705 1.21510363,13.4306295 C-1.3588601,11.189956 1.42471503,38.6635052 5.41215026,41.4591269 L9.4003886,44.2547487 L9.3361399,29.789956 C9.3361399,29.789956 11.7510881,24.8749301 23.8491192,26.0892306" id="Stroke-102" stroke="#585856" stroke-width="0.660958549" stroke-linecap="round" stroke-linejoin="round"></path>
                    </g>
                    <path d="M73.2664922,87.1206813 L73.8246528,86.5601114 C74.8703005,85.5112513 76.5728912,85.5032202 77.6273731,86.5432461 L78.9364404,87.833842 L78.8713886,73.3690492 C86.0808964,56.0387642 97.2963109,65.0070803 103.226466,65.5114326 C109.155819,66.015785 104.403021,60.915954 104.403021,60.915954 C112.673435,60.8799041 116.158927,71.7250855 116.19587,79.9537383 L116.252088,87.9992824 L117.759523,86.4854223 C118.932062,85.309671 120.841052,85.3008368 122.024031,86.4669508 L122.236855,86.6773653 C123.419031,87.8434793 123.427865,89.7428316 122.255326,90.9185829 L118.292788,94.8963808 C117.884005,95.3067694 117.382865,95.5661736 116.855223,95.6922617 C116.01999,103.102547 109.721207,108.879308 102.043487,108.913039 L94.0043679,108.948521 C85.878513,108.983712 79.2400155,102.571692 78.9757927,94.543013 C78.0642642,94.8144637 77.0370881,94.6064585 76.313487,93.8924948 L73.2833575,90.9033238 C72.2288756,89.864101 72.2208446,88.1703446 73.2664922,87.1206813" id="Fill-104" fill="#FFFFFF"></path>
                    <path d="M73.2664922,87.1206813 L73.8246528,86.5601114 C74.8703005,85.5112513 76.5728912,85.5032202 77.6273731,86.5432461 L78.9364404,87.833842 L78.8713886,73.3690492 C86.0808964,56.0387642 97.2963109,65.0070803 103.226466,65.5114326 C109.155819,66.015785 104.403021,60.915954 104.403021,60.915954 C112.673435,60.8799041 116.158927,71.7250855 116.19587,79.9537383 L116.252088,87.9992824 L117.759523,86.4854223 C118.932062,85.309671 120.841052,85.3008368 122.024031,86.4669508 L122.236855,86.6773653 C123.419031,87.8434793 123.427865,89.7428316 122.255326,90.9185829 L118.292788,94.8963808 C117.884005,95.3067694 117.382865,95.5661736 116.855223,95.6922617 C116.01999,103.102547 109.721207,108.879308 102.043487,108.913039 L94.0043679,108.948521 C85.878513,108.983712 79.2400155,102.571692 78.9757927,94.543013 C78.0642642,94.8144637 77.0370881,94.6064585 76.313487,93.8924948 L73.2833575,90.9033238 C72.2288756,89.864101 72.2208446,88.1703446 73.2664922,87.1206813 Z" id="Stroke-106" stroke="#585856" stroke-width="0.826398964"></path>
                    <path d="M97.6483938,101.104894 C97.6483938,101.104894 92.158342,102.631604 89.3844041,97.7061373" id="Stroke-108" stroke="#192B2A" stroke-width="0.991036269" stroke-linecap="round" stroke-linejoin="round"></path>
                    <path d="M83.6316554,75.939158 C83.6316554,75.939158 87.2914223,71.5903238 92.3799197,74.0920078" id="Stroke-110" stroke="#192B2A" stroke-width="0.660958549" stroke-linecap="round" stroke-linejoin="round"></path>
                    <path d="M105.02535,73.5090311 C105.02535,73.5090311 110.477655,71.8546269 113.368044,76.7142383" id="Stroke-112" stroke="#192B2A" stroke-width="0.660958549" stroke-linecap="round" stroke-linejoin="round"></path>
                    <path d="M100.427873,92.1228446 C100.427873,92.1228446 97.7246088,94.5867824 94.781215,90.3568083" id="Stroke-114" stroke="#192B2A" stroke-width="0.991036269" stroke-linecap="round" stroke-linejoin="round"></path>
                    <path d="M109.404057,81.4863912 C109.405666,81.7955881 109.630536,82.0453549 109.906003,82.0445537 C110.182272,82.0429456 110.40393,81.7915725 110.403129,81.4823756 C110.401521,81.1723756 110.17665,80.9226088 109.901184,80.9242073 C109.624915,80.9250181 109.403256,81.1771943 109.404057,81.4863912" id="Fill-116" fill="#FFFFFF"></path>
                    <path d="M106.701438,84.4725104 C106.701438,85.812899 107.419417,86.9003083 108.30364,86.9003083 C109.188666,86.9003083 109.905842,85.812899 109.905842,84.4725104 C109.905842,83.1313187 109.188666,82.0447124 108.30364,82.0447124 C107.419417,82.0447124 106.701438,83.1313187 106.701438,84.4725104" id="Fill-118" fill="#192B2A"></path>
                    <path d="M86.4032642,83.5474896 C86.4032642,84.8886813 87.1204404,85.9752876 88.0054663,85.9752876 C88.8904922,85.9752876 89.6076684,84.8886813 89.6076684,83.5474896 C89.6076684,82.207101 88.8904922,81.1196917 88.0054663,81.1196917 C87.1204404,81.1196917 86.4032642,82.207101 86.4032642,83.5474896" id="Fill-120" fill="#192B2A"></path>
                    <path d="M117.585731,141.581096 L117.50301,141.631692 C113.134098,144.279541 108.476067,146.500137 103.59156,148.241277 L103.473503,121.502573 C90.2840466,120.943609 92.5544352,113.658609 92.5544352,113.658609 C92.5544352,113.658609 90.2840466,120.943609 103.473503,121.502573 L103.59156,148.241277 C95.7170777,151.048946 87.2482953,152.602961 78.4285544,152.662391 L79.4814301,142.359308 C79.6661451,137.857883 80.0572591,134.799645 80.0371813,132.704334 L79.1923109,129.673402 L72.6469741,130.421899 C69.2136839,130.814619 66.1096684,128.363531 65.715342,124.947106 L65.3033472,121.379697 C64.9090207,117.963272 67.3729585,114.876122 70.8062487,114.483402 L80.4837098,113.376718 C81.525342,113.257858 82.5332435,113.404023 83.4479845,113.755785 C84.2093316,113.706795 84.9811192,113.764619 85.7392539,113.9405 C86.3833472,113.779075 87.0547461,113.683505 87.7510415,113.680293 L108.949098,113.587935 C110.006793,113.583117 111.015497,113.781484 111.949513,114.132443 C115.059953,113.199231 118.555083,114.248091 120.578917,117.007573 L128.986663,128.471148 C129.739979,129.498324 130.197751,130.646769 130.389694,131.821718 C126.55485,135.439723 122.342544,138.664205 117.820238,141.43493 C117.702181,141.383531 117.702181,141.63892 117.585731,141.581096" id="Fill-122" fill="#EDECEC"></path>
                    <path d="M117.415552,141.205402 L117.287054,141.284909 C113.091614,143.826749 108.62392,145.970246 103.999619,147.659184 L103.882365,121.110816 L103.491251,121.093951 C98.558557,120.885142 95.1638161,119.662811 93.6740492,117.559469 C92.9801632,116.578873 92.816329,115.579806 92.8155259,114.855402 C92.8155259,114.52693 92.8492565,114.254676 92.882987,114.066749 L108.950785,113.996075 C109.920137,113.963951 110.877443,114.166334 111.804231,114.514883 L111.935137,114.563873 L112.068453,114.523718 C115.096977,113.616205 118.384101,114.709236 120.247313,117.248666 L128.65506,128.712241 C129.304775,129.597267 129.738453,130.593925 129.947262,131.675712 C126.199153,135.19092 122.080811,138.335894 117.701459,141.027111 C117.609101,141.043977 117.507106,141.092966 117.415552,141.205402 L117.415552,141.205402 Z M103.178842,147.953122 C95.3822617,150.699754 87.213842,152.144547 78.8831943,152.248951 L79.8902927,142.400427 C79.9802409,140.218381 80.1143601,138.425842 80.231614,136.843718 C80.3577021,135.146749 80.4572876,133.805557 80.4476503,132.700479 L80.4323912,132.595272 L79.4943601,129.227034 L72.6004741,130.015687 C71.0480648,130.191567 69.5189456,129.758692 68.296614,128.792552 C67.0734793,127.826412 66.3016917,126.444262 66.1242047,124.900687 L65.7114067,121.332474 C65.5331166,119.788899 65.9700078,118.268614 66.9409663,117.051101 C67.9119249,115.834391 69.3013031,115.066619 70.8529093,114.889132 L80.5303705,113.782448 C81.4804482,113.674028 82.408842,113.793692 83.3002927,114.136619 L83.3846192,114.168744 L83.4737642,114.163122 C84.2118212,114.116541 84.9426503,114.175168 85.6445674,114.338199 L85.7425466,114.360687 L85.8389197,114.336593 C86.4862254,114.175168 87.1311218,114.091645 87.7519249,114.088433 L92.0501632,114.069961 C92.018842,114.282785 91.9931425,114.551023 91.9931425,114.859417 C91.9931425,115.715531 92.1882979,116.880842 93.0034534,118.030091 C94.6265363,120.322966 98.0100337,121.621593 103.063997,121.892241 L103.178842,147.953122 Z M77.9740751,153.073744 L78.4318472,153.071334 C86.9142824,153.014313 95.2393083,151.583174 103.183661,148.81807 L103.183661,148.820479 L103.712106,148.632552 C103.717728,148.630142 103.724153,148.628536 103.730578,148.626127 L104.003635,148.528148 C108.770889,146.807889 113.379127,144.608977 117.701459,141.990842 C117.797028,141.97478 117.90063,141.924987 117.994593,141.807733 L118.034749,141.782837 C122.560267,139.010505 126.811925,135.758718 130.672469,132.118225 L130.830681,131.96965 L130.795345,131.75522 C130.583324,130.463821 130.086199,129.27763 129.319231,128.230376 L120.910681,116.766801 C118.870785,113.985635 115.290526,112.766516 111.964852,113.702137 C110.984256,113.350376 109.952262,113.182526 108.947573,113.17851 L87.7495155,113.270868 C87.0917694,113.27408 86.4147487,113.358407 85.7345155,113.520635 C85.0125207,113.362422 84.268842,113.302189 83.5115104,113.342345 C82.5317176,112.980946 81.4700078,112.851645 80.4372098,112.970505 L70.7589456,114.077189 C67.1056036,114.494806 64.4762254,117.791567 64.8954482,121.426438 L65.307443,124.993847 C65.5106295,126.754262 66.3916399,128.330764 67.7858368,129.43263 C69.1808368,130.534495 70.924386,131.02921 72.6936347,130.82763 L78.8912254,130.119288 L79.6260699,132.761516 C79.6324948,133.823225 79.5353187,135.132293 79.4132461,136.783484 C79.294386,138.372034 79.1602668,140.171801 79.0711218,142.342604 L77.9740751,153.073744 Z" id="Fill-124" fill="#585856"></path>
                    <path d="M77.9063731,0.315139896 C120.247876,0.315139896 154.694819,34.5878083 154.694819,76.7140777 C154.694819,98.6309171 145.367513,118.419518 130.458601,132.363896 C126.744223,135.838948 122.683705,138.948585 118.333264,141.639 C118.159793,141.577964 117.988731,141.509699 117.820078,141.43501 C122.342383,138.664285 126.554689,135.439 130.390337,131.821798 C145.075181,117.97058 154.249093,98.3883782 154.249093,76.7140777 C154.249093,34.8319534 120.001321,0.759259067 77.9063731,0.759259067 C35.8114249,0.759259067 1.56365285,34.8319534 1.56365285,76.7140777 C1.56365285,118.596202 35.8114249,152.668896 77.9063731,152.668896 C78.0814508,152.668896 78.2549223,152.663275 78.4283938,152.662472 C87.2481347,152.603041 95.7169171,151.049026 103.591399,148.241358 C108.475907,146.499415 113.133938,144.279622 117.503653,141.631772 L117.552642,142.120062 C113.166062,144.761487 108.493575,146.975658 103.593808,148.711176 C95.7000518,151.507601 87.2168135,153.053585 78.3834197,153.107394 C78.2244041,153.108197 78.0653886,153.113016 77.9063731,153.113016 C35.5648705,153.113016 1.11873057,118.840347 1.11873057,76.7140777 C1.11873057,34.5878083 35.5648705,0.315139896 77.9063731,0.315139896 Z" id="Stroke-126" stroke="#585856" stroke-width="0.630440415"></path>
                </g>
            </g>
        </g>
    </g>
</svg>