<svg xmlns="http://www.w3.org/2000/svg" xmlns:xlink="http://www.w3.org/1999/xlink" viewBox="0 0 116 115" version="1.1">
    <!-- Generator: sketchtool 60.1 (101010) - https://sketch.com -->
    <title>A926E119-736D-4D64-8960-D1C13DFF490E@1,5x</title>
    <desc>Created with sketchtool.</desc>
    <defs>
        <polygon id="path-load-file" points="9.80762904e-05 0.558507004 115.534 0.558507004 115.534 116 9.80762904e-05 116"/>
    </defs>
    <g id="load-file" stroke="none" stroke-width="1" fill="none" Fill-load-file-rule="evenodd">
        <g id="illustration/compte/creation-illustration/motsdepasse/action" transform="translate(0.943741, 0.000000)">
            <g id="Group-load-file-36" transform="translate(-1.000000, -1.000000)">
                <g id="Group-load-file-18" transform="translate(0.000000, 0.442000)">
                    <path d="M79.6475,20.289 C79.5345,20.289 79.4185,20.26 79.3135,20.199 C74.8195,17.618 69.9525,15.865 64.8485,14.987 C64.4835,14.925 64.2375,14.577 64.2995,14.211 C64.3635,13.845 64.7055,13.598 65.0775,13.662 C70.3355,14.566 75.3515,16.374 79.9835,19.033 C80.3055,19.219 80.4165,19.629 80.2315,19.951 C80.1075,20.168 79.8805,20.289 79.6475,20.289 M34.7045,20.422 C34.4725,20.422 34.2475,20.302 34.1225,20.088 C33.9355,19.767 34.0435,19.355 34.3655,19.168 C38.9815,16.48 43.9855,14.643 49.2365,13.709 C49.6005,13.645 49.9505,13.888 50.0165,14.253 C50.0815,14.618 49.8375,14.968 49.4725,15.033 C44.3765,15.94 39.5215,17.723 35.0415,20.33 C34.9345,20.393 34.8185,20.422 34.7045,20.422 M99.5585,74.688 C99.4825,74.688 99.4045,74.676 99.3295,74.647 C98.9795,74.52 98.7995,74.135 98.9265,73.786 C100.6895,68.939 101.5845,63.843 101.5845,58.639 L101.5845,58.456 C101.5845,58.085 101.8845,57.783 102.2555,57.783 C102.6265,57.783 102.9275,58.085 102.9275,58.456 L102.9275,58.639 C102.9275,64 102.0065,69.251 100.1905,74.246 C100.0905,74.518 99.8335,74.688 99.5585,74.688 M15.0525,74.769 C14.7785,74.769 14.5215,74.601 14.4205,74.328 C12.5945,69.339 11.6635,64.091 11.6544975,58.731 C11.6535,58.36 11.9545,58.059 12.3255,58.058 L12.3265,58.058 C12.6975,58.058 12.9985,58.358 12.9985,58.729 C13.0075,63.932 13.9115,69.024 15.6845,73.866 C15.8115,74.215 15.6325,74.602 15.2845,74.728 C15.2085,74.757 15.1295,74.769 15.0525,74.769 M79.7995,98.246 C79.5675,98.246 79.3415,98.126 79.2165,97.911 C79.0315,97.59 79.1405,97.179 79.4615,96.992 C83.9385,94.399 87.8985,91.07 91.2325,87.099 C91.4705,86.812 91.8955,86.778 92.1795,87.016 C92.4635,87.255 92.5015,87.679 92.2615,87.963 C88.8285,92.055 84.7485,95.484 80.1355,98.156 C80.0295,98.217 79.9145,98.246 79.7995,98.246 M34.8525,98.288 C34.7395,98.288 34.6235,98.259 34.5175,98.198 C29.9015,95.535 25.8145,92.112 22.3715,88.026 C22.1315,87.742 22.1685,87.318 22.4525,87.079 C22.7365,86.839 23.1585,86.875 23.4005,87.16 C26.7425,91.127 30.7085,94.448 35.1895,97.033 C35.5105,97.219 35.6215,97.63 35.4355,97.951 C35.3115,98.167 35.0845,98.288 34.8525,98.288" id="Fill-load-file-1" fill="#76B0BD"/>
                    <g id="Group-load-file-5">
                        <mask id="mask-load-file" fill="white">
                            <use xlink:href="#path-load-file"/>
                        </mask>
                        <g id="Clip-load-file"/>
                        <path d="M54.2881,2.4004 C53.8321,2.4004 53.4491,2.0454 53.4221,1.5844 C53.3921,1.1044 53.7581,0.6934 54.2361,0.6644 C56.4611,0.5304 58.7391,0.5234 60.9481,0.6444 C61.4281,0.6714 61.7951,1.0804 61.7681,1.5594 C61.7431,2.0394 61.2901,2.4034 60.8541,2.3794 C58.7131,2.2624 56.5001,2.2694 54.3421,2.3984 C54.3231,2.3994 54.3061,2.4004 54.2881,2.4004 M73.9121,4.6194 C73.8311,4.6194 73.7481,4.6074 73.6661,4.5844 C71.5911,3.9704 69.4571,3.4744 67.3241,3.1074 C66.8511,3.0264 66.5341,2.5774 66.6151,2.1034 C66.6971,1.6314 67.1471,1.3184 67.6191,1.3944 C69.8181,1.7734 72.0181,2.2854 74.1581,2.9174 C74.6181,3.0524 74.8811,3.5364 74.7451,3.9964 C74.6341,4.3744 74.2881,4.6194 73.9121,4.6194 M41.2911,4.7174 C40.9181,4.7174 40.5721,4.4754 40.4591,4.0994 C40.3201,3.6404 40.5801,3.1564 41.0401,3.0174 C43.1731,2.3734 45.3701,1.8474 47.5701,1.4554 C48.0451,1.3724 48.4931,1.6854 48.5781,2.1574 C48.6621,2.6294 48.3481,3.0814 47.8751,3.1664 C45.7411,3.5464 43.6101,4.0554 41.5421,4.6804 C41.4581,4.7064 41.3741,4.7174 41.2911,4.7174 M86.0571,9.8164 C85.9101,9.8164 85.7621,9.7794 85.6251,9.7004 C83.7441,8.6214 81.7821,7.6424 79.7961,6.7924 C79.3541,6.6034 79.1501,6.0924 79.3391,5.6514 C79.5281,5.2104 80.0391,5.0054 80.4791,5.1944 C82.5281,6.0714 84.5511,7.0804 86.4901,8.1934 C86.9061,8.4324 87.0501,8.9624 86.8111,9.3794 C86.6501,9.6594 86.3571,9.8164 86.0571,9.8164 M29.1861,9.9844 C28.8871,9.9844 28.5961,9.8304 28.4341,9.5524 C28.1931,9.1374 28.3341,8.6054 28.7481,8.3644 C30.6821,7.2394 32.6951,6.2194 34.7351,5.3324 C35.1741,5.1414 35.6871,5.3414 35.8791,5.7824 C36.0701,6.2224 35.8681,6.7344 35.4291,6.9254 C33.4501,7.7864 31.4971,8.7754 29.6231,9.8664 C29.4851,9.9464 29.3351,9.9844 29.1861,9.9844 M96.6721,17.6744 C96.4591,17.6744 96.2451,17.5964 96.0781,17.4394 C94.4961,15.9574 92.8121,14.5534 91.0761,13.2674 C90.6901,12.9814 90.6091,12.4374 90.8941,12.0514 C91.1801,11.6684 91.7241,11.5854 92.1091,11.8714 C93.9001,13.1964 95.6361,14.6434 97.2661,16.1714 C97.6161,16.5004 97.6341,17.0494 97.3061,17.4004 C97.1351,17.5834 96.9031,17.6744 96.6721,17.6744 M18.6211,17.9014 C18.3911,17.9014 18.1611,17.8104 17.9901,17.6304 C17.6601,17.2824 17.6751,16.7324 18.0231,16.4024 C19.6421,14.8674 21.3681,13.4104 23.1521,12.0724 C23.5381,11.7834 24.0811,11.8624 24.3691,12.2474 C24.6571,12.6304 24.5791,13.1744 24.1951,13.4634 C22.4641,14.7604 20.7901,16.1734 19.2191,17.6634 C19.0511,17.8234 18.8361,17.9014 18.6211,17.9014 M105.1981,27.7544 C104.9171,27.7544 104.6411,27.6184 104.4741,27.3674 C103.2751,25.5634 101.9601,23.8114 100.5631,22.1604 C100.2531,21.7944 100.2991,21.2464 100.6651,20.9354 C101.0331,20.6274 101.5791,20.6714 101.8901,21.0384 C103.3301,22.7404 104.6851,24.5464 105.9211,26.4054 C106.1861,26.8044 106.0781,27.3434 105.6781,27.6094 C105.5301,27.7084 105.3631,27.7544 105.1981,27.7544 M10.1501,28.0344 C9.9871,28.0344 9.8221,27.9884 9.6751,27.8914 C9.2731,27.6294 9.1621,27.0894 9.4251,26.6884 C10.6481,24.8234 11.9941,23.0084 13.4261,21.2964 C13.7341,20.9264 14.2821,20.8794 14.6501,21.1864 C15.0181,21.4944 15.0671,22.0424 14.7601,22.4104 C13.3711,24.0714 12.0641,25.8324 10.8781,27.6414 C10.7111,27.8964 10.4341,28.0344 10.1501,28.0344 M111.1751,39.5264 C110.8211,39.5264 110.4891,39.3084 110.3591,38.9584 C109.6121,36.9304 108.7361,34.9224 107.7551,32.9894 C107.5371,32.5614 107.7081,32.0384 108.1361,31.8214 C108.5651,31.6034 109.0861,31.7754 109.3041,32.2024 C110.3161,34.1964 111.2201,36.2664 111.9901,38.3574 C112.1561,38.8074 111.9261,39.3064 111.4761,39.4724 C111.3761,39.5084 111.2741,39.5264 111.1751,39.5264 M4.2431,39.8474 C4.1451,39.8474 4.0451,39.8314 3.9481,39.7954 C3.4961,39.6314 3.2631,39.1334 3.4261,38.6824 C4.1841,36.5864 5.0761,34.5084 6.0761,32.5094 C6.2911,32.0814 6.8131,31.9074 7.2421,32.1224 C7.6721,32.3374 7.8461,32.8584 7.6311,33.2884 C6.6601,35.2264 5.7951,37.2404 5.0601,39.2734 C4.9331,39.6274 4.5991,39.8474 4.2431,39.8474 M114.2581,52.3644 C113.8241,52.3644 113.4481,52.0394 113.3961,51.5974 C113.1401,49.4494 112.7541,47.2934 112.2481,45.1894 C112.1361,44.7224 112.4231,44.2534 112.8901,44.1414 C113.3581,44.0304 113.8251,44.3164 113.9371,44.7834 C114.4591,46.9534 114.8571,49.1764 115.1211,51.3914 C115.1791,51.8684 114.8381,52.3004 114.3611,52.3574 C114.3271,52.3614 114.2921,52.3644 114.2581,52.3644 M1.2351,52.7074 C1.2031,52.7074 1.1701,52.7054 1.1371,52.7014 C0.6591,52.6464 0.3171,52.2164 0.3711,51.7394 C0.6231,49.5184 1.0081,47.2924 1.5161,45.1244 C1.6251,44.6564 2.0861,44.3654 2.5591,44.4754 C3.0261,44.5854 3.3161,45.0514 3.2071,45.5194 C2.7161,47.6224 2.3421,49.7814 2.0981,51.9354 C2.0481,52.3794 1.6721,52.7074 1.2351,52.7074 M114.2871,65.7954 C114.2541,65.7954 114.2211,65.7934 114.1861,65.7894 C113.7101,65.7344 113.3681,65.3024 113.4231,64.8264 C113.6711,62.6804 113.7961,60.4934 113.7961,58.3244 L113.7961,58.0944 C113.7961,57.6154 114.1851,57.2264 114.6651,57.2264 C115.1441,57.2264 115.5341,57.6154 115.5341,58.0944 L115.5341,58.3244 C115.5341,60.5594 115.4041,62.8144 115.1491,65.0254 C115.0981,65.4684 114.7231,65.7954 114.2871,65.7954 M1.2601,65.9104 C0.8251,65.9104 0.4501,65.5844 0.3971,65.1424 C0.1381,62.9344 0.0041,60.6794 9.80762904e-05,58.4414 C-0.0009,57.9614 0.3881,57.5714 0.8671,57.5714 L0.8691,57.5714 C1.3491,57.5714 1.7371,57.9594 1.7381,58.4384 C1.7421,60.6104 1.8711,62.7964 2.1241,64.9394 C2.1801,65.4164 1.8391,65.8474 1.3621,65.9034 C1.3281,65.9084 1.2941,65.9104 1.2601,65.9104 M111.2521,78.6484 C111.1531,78.6484 111.0531,78.6314 110.9551,78.5954 C110.5041,78.4324 110.2711,77.9334 110.4351,77.4824 C111.1751,75.4474 111.8031,73.3474 112.3001,71.2404 C112.4111,70.7724 112.8841,70.4844 113.3451,70.5934 C113.8121,70.7044 114.1011,71.1714 113.9911,71.6394 C113.4781,73.8124 112.8311,75.9774 112.0681,78.0764 C111.9401,78.4294 111.6061,78.6484 111.2521,78.6484 M4.3201,78.7544 C3.9661,78.7544 3.6331,78.5354 3.5041,78.1824 C2.7371,76.0884 2.0871,73.9234 1.5691,71.7534 C1.4591,71.2864 1.7471,70.8184 2.2141,70.7074 C2.6811,70.5944 3.1491,70.8834 3.2611,71.3504 C3.7621,73.4564 4.3921,75.5534 5.1371,77.5864 C5.3011,78.0364 5.0691,78.5354 4.6191,78.7004 C4.5201,78.7364 4.4201,78.7544 4.3201,78.7544 M105.3181,90.4504 C105.1541,90.4504 104.9881,90.4034 104.8421,90.3064 C104.4401,90.0434 104.3301,89.5044 104.5941,89.1034 C105.7861,87.2914 106.8831,85.3934 107.8531,83.4634 C108.0681,83.0354 108.5891,82.8614 109.0201,83.0774 C109.4491,83.2934 109.6221,83.8154 109.4061,84.2444 C108.4051,86.2344 107.2741,88.1904 106.0451,90.0584 C105.8781,90.3124 105.6011,90.4504 105.3181,90.4504 M10.2731,90.5374 C9.9911,90.5374 9.7151,90.3994 9.5481,90.1474 C8.3131,88.2814 7.1801,86.3284 6.1791,84.3414 C5.9621,83.9144 6.1351,83.3914 6.5621,83.1744 C6.9951,82.9594 7.5141,83.1314 7.7291,83.5594 C8.7011,85.4854 9.8011,87.3794 10.9971,89.1884 C11.2621,89.5884 11.1521,90.1284 10.7521,90.3924 C10.6041,90.4904 10.4371,90.5374 10.2731,90.5374 M96.8291,100.5644 C96.5991,100.5644 96.3681,100.4734 96.1971,100.2924 C95.8681,99.9434 95.8841,99.3934 96.2321,99.0644 C97.8091,97.5744 99.3111,95.9804 100.7011,94.3254 C101.0091,93.9574 101.5571,93.9094 101.9251,94.2184 C102.2921,94.5274 102.3401,95.0754 102.0311,95.4424 C100.6001,97.1484 99.0511,98.7924 97.4261,100.3274 C97.2581,100.4854 97.0431,100.5644 96.8291,100.5644 M18.7791,100.6334 C18.5651,100.6334 18.3511,100.5554 18.1841,100.3984 C16.5571,98.8674 15.0041,97.2264 13.5681,95.5214 C13.2601,95.1544 13.3071,94.6064 13.6741,94.2974 C14.0391,93.9894 14.5891,94.0344 14.8981,94.4024 C16.2901,96.0554 17.7961,97.6474 19.3751,99.1324 C19.7251,99.4624 19.7411,100.0114 19.4121,100.3604 C19.2411,100.5434 19.0111,100.6334 18.7791,100.6334 M86.2511,108.4614 C85.9511,108.4614 85.6591,108.3054 85.4981,108.0274 C85.2581,107.6124 85.3991,107.0804 85.8141,106.8394 C87.6841,105.7554 89.5131,104.5484 91.2481,103.2544 C91.6341,102.9674 92.1771,103.0464 92.4641,103.4304 C92.7511,103.8154 92.6721,104.3594 92.2871,104.6464 C90.4981,105.9814 88.6141,107.2254 86.6851,108.3424 C86.5491,108.4224 86.3981,108.4614 86.2511,108.4614 M29.3771,108.5134 C29.2291,108.5134 29.0811,108.4764 28.9441,108.3974 C27.0141,107.2844 25.1251,106.0434 23.3311,104.7104 C22.9461,104.4234 22.8661,103.8794 23.1521,103.4944 C23.4381,103.1104 23.9811,103.0294 24.3681,103.3154 C26.1071,104.6084 27.9391,105.8124 29.8111,106.8924 C30.2271,107.1314 30.3701,107.6634 30.1311,108.0794 C29.9701,108.3574 29.6781,108.5134 29.3771,108.5134 M74.1331,113.7024 C73.7591,113.7024 73.4131,113.4594 73.3011,113.0834 C73.1631,112.6234 73.4241,112.1384 73.8831,112.0014 C75.9551,111.3794 78.0131,110.6294 80.0011,109.7684 C80.4421,109.5784 80.9531,109.7814 81.1431,110.2204 C81.3341,110.6614 81.1311,111.1724 80.6901,111.3634 C78.6411,112.2504 76.5181,113.0244 74.3831,113.6654 C74.2991,113.6904 74.2151,113.7024 74.1331,113.7024 M41.5111,113.7354 C41.4291,113.7354 41.3461,113.7234 41.2631,113.6994 C39.1241,113.0624 36.9991,112.2924 34.9461,111.4094 C34.5061,111.2194 34.3031,110.7084 34.4921,110.2674 C34.6831,109.8264 35.1951,109.6264 35.6341,109.8124 C37.6231,110.6694 39.6841,111.4164 41.7591,112.0344 C42.2191,112.1714 42.4801,112.6544 42.3441,113.1144 C42.2311,113.4914 41.8861,113.7354 41.5111,113.7354 M61.1301,115.9934 C60.6731,115.9934 60.2901,115.6364 60.2641,115.1754 C60.2351,114.6964 60.6011,114.2854 61.0801,114.2574 C63.2451,114.1304 65.4221,113.8774 67.5491,113.5034 C68.0201,113.4194 68.4711,113.7354 68.5551,114.2084 C68.6381,114.6804 68.3221,115.1304 67.8501,115.2134 C65.6571,115.6004 63.4131,115.8624 61.1821,115.9924 C61.1641,115.9934 61.1471,115.9934 61.1301,115.9934 M54.5191,116.0004 C54.5031,116.0004 54.4861,116.0004 54.4701,115.9994 C52.2371,115.8734 49.9931,115.6164 47.8001,115.2344 C47.3271,115.1524 47.0101,114.7024 47.0921,114.2294 C47.1751,113.7564 47.6331,113.4424 48.0971,113.5224 C50.2251,113.8924 52.4021,114.1414 54.5671,114.2634 C55.0471,114.2914 55.4131,114.7014 55.3861,115.1804 C55.3601,115.6424 54.9761,116.0004 54.5191,116.0004" id="Fill-load-file-3" fill="#76B0BD" mask="url(#mask-load-file)"/>
                    </g>
                    <path d="M60.2305,113.4892 L59.8565,101.2002 L66.8285,102.8402 C67.3735,102.9682 67.9435,102.7742 68.2965,102.3402 C68.6495,101.9062 68.7235,101.3072 68.4875,100.8012 L55.9015,73.8142 C55.6555,73.2852 55.1165,72.9542 54.5335,72.9712 C53.9495,72.9892 53.4325,73.3532 53.2185,73.8962 L42.3005,101.6012 C42.0945,102.1222 42.2055,102.7142 42.5845,103.1272 C42.9635,103.5392 43.5435,103.6972 44.0805,103.5362 L50.9395,101.4722 L51.3145,113.7612 C51.3265,114.1492 51.4915,114.5152 51.7735,114.7812 C52.0555,115.0472 52.4315,115.1892 52.8195,115.1772 L58.8155,114.9942 C59.6225,114.9692 60.2555,114.2962 60.2305,113.4892" id="Fill-load-file-6" fill="#3FB28C"/>
                    <path d="M55.7364,64.5 C55.7114,63.693 55.0374,63.06 54.2314,63.084 C53.4234,63.108 52.7904,63.782 52.8154,64.589 L52.9554,69.178 C52.9674,69.581 53.1414,69.941 53.4144,70.197 C53.6864,70.453 54.0564,70.605 54.4604,70.594 C55.2664,70.569 55.9004,69.896 55.8764,69.088 L55.7364,64.5 Z" id="Fill-load-file-8" fill="#F2900A"/>
                    <path d="M49.6172,72.6093 C50.1702,72.0213 50.1402,71.0973 49.5532,70.5453 L46.2092,67.3993 C45.6222,66.8463 44.6972,66.8753 44.1442,67.4623 C43.5922,68.0493 43.6202,68.9743 44.2072,69.5273 L47.5522,72.6723 C48.1392,73.2253 49.0632,73.1973 49.6172,72.6093" id="Fill-load-file-10" fill="#F2900A"/>
                    <path d="M46.0958,75.4883 L41.5068,75.6293 C40.6998,75.6533 40.0668,76.3273 40.0918,77.1343 C40.1038,77.5363 40.2788,77.8963 40.5508,78.1533 C40.8228,78.4093 41.1938,78.5613 41.5968,78.5493 L46.1848,78.4083 C46.9918,78.3843 47.6248,77.7113 47.6008,76.9043 C47.5758,76.0973 46.9028,75.4643 46.0958,75.4883" id="Fill-load-file-12" fill="#F2900A"/>
                    <path d="M59.4171,72.3095 C60.0041,72.8625 60.9301,72.8335 61.4821,72.2465 L64.6281,68.9025 C65.1811,68.3155 65.1521,67.3905 64.5641,66.8375 C63.9781,66.2855 63.0531,66.3135 62.5001,66.9005 L59.3541,70.2455 C58.8011,70.8325 58.8291,71.7575 59.4171,72.3095" id="Fill-load-file-14" fill="#F2900A"/>
                    <path d="M62.1505,77.4912 C62.4225,77.7482 62.7935,77.9002 63.1955,77.8882 L67.7845,77.7482 C68.5905,77.7232 69.2245,77.0502 69.2005,76.2422 C69.1745,75.4362 68.5025,74.8032 67.6955,74.8272 L63.1065,74.9682 C62.3005,74.9922 61.6675,75.6662 61.6905,76.4722 C61.7035,76.8762 61.8785,77.2352 62.1505,77.4912" id="Fill-load-file-16" fill="#F2900A"/>
                </g>
                <g id="Group-load-file-35" transform="translate(9.000000, 27.442000)">
                    <path d="M88.8829,26.416 C88.3039,25.684 87.2399,25.559 86.5079,26.139 C85.7759,26.717 85.6519,27.78 86.2309,28.513 L87.3689,29.953 L86.2309,31.394 C85.6519,32.126 85.7759,33.189 86.5079,33.769 C86.8189,34.014 87.1889,34.133 87.5559,34.133 C88.0549,34.133 88.5489,33.913 88.8829,33.491 L90.8509,31.002 C91.3369,30.388 91.3369,29.52 90.8509,28.904 L88.8829,26.416 Z" id="Fill-load-file-19" fill="#FEFEFE"/>
                    <path d="M86.3663,22.2656 L79.5803,22.2656 L79.5803,5.3026 L86.3663,5.3026 C91.0433,5.3026 94.8473,9.1076 94.8473,13.7846 C94.8473,18.4606 91.0433,22.2656 86.3663,22.2656 L86.3663,22.2656 Z M26.6833,22.2656 L26.0103,22.2656 L13.5483,22.2656 C8.8713,22.2656 5.0663,18.4606 5.0663,13.7846 C5.0663,9.1076 8.8713,5.3026 13.5483,5.3026 L75.0873,5.3026 L75.0873,22.2656 L35.0203,22.2656 L26.6833,22.2656 Z M36.8463,26.7576 L77.3343,26.7576 L86.3663,26.7576 L86.3663,26.7586 C93.5203,26.7586 99.3413,20.9386 99.3413,13.7846 C99.3413,6.6296 93.5203,0.8096 86.3663,0.8096 L77.3343,0.8096 L13.5483,0.8096 C6.3933,0.8096 0.5733,6.6296 0.5733,13.7846 C0.5733,20.9386 6.3933,26.7586 13.5483,26.7586 L21.1523,26.7586 L23.8473,26.7966 L36.8463,26.7576 Z" id="Fill-load-file-21" fill="#3FB28C"/>
                    <path d="M87.669,8.6377 C86.899,7.6637 85.486,7.4987 84.514,8.2687 C83.54,9.0377 83.375,10.4507 84.145,11.4237 L85.657,13.3377 L84.145,15.2517 C83.375,16.2247 83.54,17.6377 84.514,18.4077 C84.926,18.7337 85.417,18.8917 85.905,18.8917 C86.568,18.8917 87.226,18.5987 87.669,18.0377 L90.283,14.7317 C90.93,13.9147 90.93,12.7607 90.283,11.9447 L87.669,8.6377 Z" id="Fill-load-file-23" fill="#76B0BD"/>
                    <path d="M13.751,14.1953 C13.807,14.3333 13.877,14.4633 13.958,14.5843 C14.041,14.7083 14.135,14.8223 14.238,14.9253 C14.342,15.0293 14.456,15.1243 14.58,15.2043 C14.701,15.2853 14.831,15.3553 14.966,15.4113 C15.104,15.4673 15.242,15.5093 15.387,15.5393 C15.532,15.5683 15.679,15.5843 15.826,15.5843 C15.973,15.5843 16.119,15.5683 16.265,15.5393 C16.408,15.5093 16.55,15.4673 16.685,15.4113 C16.819,15.3553 16.952,15.2853 17.073,15.2043 C17.194,15.1243 17.312,15.0293 17.415,14.9253 C17.519,14.8223 17.612,14.7083 17.693,14.5843 C17.774,14.4633 17.844,14.3333 17.9,14.1953 C17.956,14.0603 17.999,13.9203 18.028,13.7763 C18.058,13.6323 18.073,13.4833 18.073,13.3383 C18.073,13.1913 18.058,13.0433 18.028,12.8973 C17.999,12.7563 17.956,12.6143 17.9,12.4773 C17.844,12.3423 17.774,12.2123 17.693,12.0913 C17.612,11.9663 17.519,11.8523 17.415,11.7493 C17.312,11.6463 17.194,11.5513 17.073,11.4683 C16.952,11.3873 16.819,11.3183 16.685,11.2613 C16.55,11.2063 16.408,11.1633 16.265,11.1333 C15.534,10.9883 14.76,11.2253 14.238,11.7493 C14.135,11.8523 14.041,11.9663 13.958,12.0913 C13.877,12.2123 13.807,12.3423 13.751,12.4773 C13.694,12.6143 13.652,12.7563 13.623,12.8973 C13.594,13.0433 13.58,13.1913 13.58,13.3383 C13.58,13.4833 13.594,13.6323 13.623,13.7763 C13.652,13.9203 13.694,14.0613 13.751,14.1953" id="Fill-load-file-25" fill="#F2900A"/>
                    <path d="M25.1495,14.6611 C25.2055,14.7981 25.2755,14.9291 25.3565,15.0501 C25.4395,15.1731 25.5335,15.2881 25.6365,15.3911 C25.7405,15.4951 25.8545,15.5891 25.9785,15.6701 C26.0995,15.7511 26.2295,15.8201 26.3645,15.8761 C26.5025,15.9321 26.6435,15.9751 26.7855,16.0051 C26.9305,16.0331 27.0795,16.0501 27.2255,16.0501 C27.3715,16.0501 27.5195,16.0331 27.6635,16.0051 C27.8065,15.9751 27.9485,15.9321 28.0835,15.8761 C28.2205,15.8201 28.3505,15.7511 28.4715,15.6701 C28.5955,15.5891 28.7105,15.4951 28.8135,15.3911 C28.9175,15.2881 29.0105,15.1731 29.0915,15.0501 C29.1725,14.9291 29.2425,14.7981 29.2985,14.6611 C29.3545,14.5261 29.3975,14.3851 29.4265,14.2411 C29.4565,14.0981 29.4715,13.9491 29.4715,13.8031 C29.4715,13.6571 29.4565,13.5091 29.4265,13.3631 C29.3975,13.2221 29.3545,13.0801 29.2985,12.9421 C29.2425,12.8071 29.1725,12.6781 29.0915,12.5571 C29.0105,12.4321 28.9175,12.3181 28.8135,12.2151 C28.2925,11.6911 27.5175,11.4531 26.7855,11.5981 C26.6435,11.6281 26.5025,11.6711 26.3645,11.7271 C26.2295,11.7831 26.0995,11.8521 25.9785,11.9331 C25.8545,12.0161 25.7405,12.1111 25.6365,12.2151 C25.5335,12.3181 25.4395,12.4321 25.3565,12.5571 C25.2755,12.6781 25.2055,12.8071 25.1495,12.9421 C25.0925,13.0801 25.0505,13.2221 25.0215,13.3631 C24.9925,13.5091 24.9785,13.6571 24.9785,13.8031 C24.9785,13.9491 24.9925,14.0981 25.0215,14.2411 C25.0505,14.3851 25.0925,14.5261 25.1495,14.6611" id="Fill-load-file-27" fill="#F2900A"/>
                    <path d="M38.129,14.6425 C38.186,14.7795 38.255,14.9105 38.336,15.0315 C38.417,15.1545 38.511,15.2695 38.614,15.3725 C38.718,15.4765 38.832,15.5705 38.956,15.6515 C39.077,15.7325 39.207,15.8015 39.345,15.8575 C39.48,15.9135 39.621,15.9565 39.765,15.9865 C39.908,16.0145 40.057,16.0315 40.202,16.0315 C40.349,16.0315 40.497,16.0145 40.641,15.9865 C40.784,15.9565 40.926,15.9135 41.061,15.8575 C41.198,15.8015 41.328,15.7325 41.449,15.6515 C41.573,15.5705 41.688,15.4765 41.791,15.3725 C41.895,15.2695 41.988,15.1545 42.069,15.0315 C42.15,14.9105 42.22,14.7795 42.276,14.6425 C42.332,14.5075 42.375,14.3665 42.404,14.2225 C42.434,14.0785 42.449,13.9305 42.449,13.7845 C42.449,13.6385 42.434,13.4905 42.404,13.3435 C42.377,13.2035 42.332,13.0615 42.276,12.9235 C42.22,12.7885 42.15,12.6595 42.069,12.5385 C41.988,12.4135 41.895,12.2995 41.791,12.1965 C41.27,11.6725 40.492,11.4345 39.765,11.5795 C39.621,11.6095 39.48,11.6525 39.342,11.7085 C39.207,11.7645 39.077,11.8335 38.956,11.9145 C38.832,11.9975 38.718,12.0925 38.614,12.1965 C38.511,12.2995 38.417,12.4135 38.336,12.5385 C38.255,12.6595 38.186,12.7885 38.129,12.9235 C38.073,13.0615 38.028,13.2035 38.001,13.3435 C37.972,13.4905 37.956,13.6385 37.956,13.7845 C37.956,13.9305 37.972,14.0795 38.001,14.2225 C38.028,14.3665 38.073,14.5075 38.129,14.6425" id="Fill-load-file-29" fill="#F2900A"/>
                    <path d="M50.0762,14.6425 C50.1332,14.7795 50.2022,14.9105 50.2832,15.0315 C50.3632,15.1545 50.4582,15.2695 50.5612,15.3725 C50.6652,15.4765 50.7792,15.5705 50.9032,15.6515 C51.0242,15.7325 51.1542,15.8015 51.2922,15.8575 C51.4272,15.9135 51.5672,15.9565 51.7122,15.9865 C51.8552,16.0145 52.0042,16.0315 52.1492,16.0315 C52.2962,16.0315 52.4442,16.0145 52.5882,15.9865 C52.7312,15.9565 52.8732,15.9135 53.0082,15.8575 C53.1442,15.8015 53.2752,15.7325 53.3962,15.6515 C53.5202,15.5705 53.6352,15.4765 53.7382,15.3725 C53.8422,15.2695 53.9352,15.1545 54.0162,15.0315 C54.0972,14.9105 54.1672,14.7795 54.2232,14.6425 C54.2792,14.5075 54.3242,14.3665 54.3512,14.2225 C54.3812,14.0785 54.3962,13.9305 54.3962,13.7845 C54.3962,13.6385 54.3812,13.4905 54.3512,13.3435 C54.3242,13.2035 54.2792,13.0615 54.2232,12.9235 C54.1672,12.7885 54.0972,12.6595 54.0162,12.5385 C53.9352,12.4135 53.8422,12.2995 53.7382,12.1965 C53.2172,11.6725 52.4392,11.4345 51.7122,11.5795 C51.5672,11.6095 51.4272,11.6525 51.2922,11.7085 C51.1542,11.7645 51.0242,11.8335 50.9032,11.9145 C50.7792,11.9975 50.6652,12.0925 50.5612,12.1965 C50.4582,12.2995 50.3632,12.4135 50.2832,12.5385 C50.2022,12.6595 50.1332,12.7885 50.0762,12.9235 C50.0202,13.0615 49.9772,13.2035 49.9482,13.3435 C49.9192,13.4905 49.9032,13.6385 49.9032,13.7845 C49.9032,13.9305 49.9192,14.0795 49.9482,14.2225 C49.9772,14.3665 50.0202,14.5075 50.0762,14.6425" id="Fill-load-file-31" fill="#F2900A"/>
                    <path d="M62.0235,14.6425 C62.0795,14.7795 62.1485,14.9105 62.2295,15.0315 C62.3105,15.1545 62.4055,15.2695 62.5085,15.3725 C62.6115,15.4765 62.7265,15.5705 62.8495,15.6515 C62.9705,15.7325 63.1015,15.8015 63.2385,15.8575 C63.3735,15.9135 63.5145,15.9565 63.6585,15.9865 C63.8025,16.0145 63.9505,16.0315 64.0965,16.0315 C64.2425,16.0315 64.3905,16.0145 64.5375,15.9865 C64.6785,15.9565 64.8205,15.9135 64.9575,15.8575 C65.0915,15.8015 65.2215,15.7325 65.3435,15.6515 C65.4665,15.5705 65.5815,15.4765 65.6845,15.3725 C65.7885,15.2695 65.8825,15.1545 65.9655,15.0315 C66.0465,14.9105 66.1165,14.7795 66.1715,14.6425 C66.2285,14.5075 66.2715,14.3665 66.3005,14.2225 C66.3305,14.0785 66.3425,13.9305 66.3425,13.7845 C66.3425,13.6385 66.3305,13.4905 66.3005,13.3435 C66.2715,13.2035 66.2285,13.0615 66.1715,12.9235 C66.1165,12.7885 66.0465,12.6595 65.9655,12.5385 C65.8825,12.4135 65.7885,12.2995 65.6845,12.1965 C65.5815,12.0925 65.4665,11.9975 65.3435,11.9145 C65.2215,11.8335 65.0915,11.7645 64.9575,11.7085 C64.8205,11.6525 64.6785,11.6095 64.5375,11.5795 C64.2475,11.5225 63.9485,11.5225 63.6585,11.5795 C63.5145,11.6095 63.3735,11.6525 63.2385,11.7085 C63.1015,11.7645 62.9705,11.8335 62.8495,11.9145 C62.7265,11.9975 62.6115,12.0925 62.5085,12.1965 C62.4055,12.2995 62.3105,12.4135 62.2295,12.5385 C62.1485,12.6595 62.0795,12.7885 62.0235,12.9235 C61.9665,13.0615 61.9235,13.2035 61.8945,13.3435 C61.8665,13.4905 61.8495,13.6385 61.8495,13.7845 C61.8495,13.9305 61.8665,14.0795 61.8945,14.2225 C61.9235,14.3665 61.9665,14.5075 62.0235,14.6425" id="Fill-load-file-33" fill="#F2900A"/>
                </g>
            </g>
        </g>
    </g>
</svg>