<?xml version="1.0" encoding="UTF-8"?>
<svg xmlns="http://www.w3.org/2000/svg" xmlns:xlink="http://www.w3.org/1999/xlink" width="114.528" height="114.546" viewBox="0 0 115.528 114.546">
<defs>
<clipPath id="a"><rect width="200.527" height="200.546" transform="translate(0.001 0)" fill="none"/>
</clipPath>
<clipPath id="b">
<rect width="200.528" height="200.546" transform="translate(0 0)" fill="none"/>
</clipPath>
</defs>
<g transform="translate(0 0)" clip-path="url(#a)">
<path d="M53.922,114.18h-.049a57.727,57.727,0,0,1-6.6-.756.859.859,0,0,1-.7-.994.872.872,0,0,1,.849-.712.838.838,0,0,1,.144.013,55.952,55.952,0,0,0,6.4.733.859.859,0,0,1-.048,1.716Zm6.539-.006a.859.859,0,0,1-.05-1.717,55.872,55.872,0,0,0,6.4-.746.859.859,0,1,1,.3,1.692,57.492,57.492,0,0,1-6.6.77A.455.455,0,0,1,60.461,114.174Zm-19.4-2.234a.831.831,0,0,1-.245-.037,57.073,57.073,0,0,1-6.249-2.263.86.86,0,0,1,.681-1.58,54.966,54.966,0,0,0,6.057,2.2.86.86,0,0,1-.245,1.684Zm32.266-.032a.859.859,0,0,1-.247-1.682,55.616,55.616,0,0,0,6.052-2.208.859.859,0,1,1,.681,1.577,57.338,57.338,0,0,1-6.24,2.277A.846.846,0,0,1,73.322,111.908Zm-44.269-5.132a.862.862,0,0,1-.427-.115,57.655,57.655,0,0,1-5.551-3.649.859.859,0,0,1,1.025-1.379,55.749,55.749,0,0,0,5.386,3.538.86.86,0,0,1-.432,1.6Zm56.255-.052a.859.859,0,0,1-.431-1.6,56.071,56.071,0,0,0,5.374-3.547.859.859,0,1,1,1.027,1.377,57.862,57.862,0,0,1-5.54,3.657A.862.862,0,0,1,85.307,106.724ZM18.572,98.982a.86.86,0,0,1-.59-.233,57.612,57.612,0,0,1-4.565-4.824.859.859,0,1,1,1.315-1.106A55.857,55.857,0,0,0,19.161,97.5a.859.859,0,0,1-.589,1.485Zm77.2-.068a.86.86,0,0,1-.59-1.484,56.013,56.013,0,0,0,4.42-4.687.859.859,0,1,1,1.316,1.105,57.846,57.846,0,0,1-4.555,4.831A.859.859,0,0,1,95.771,98.914ZM10.16,88.995a.857.857,0,0,1-.718-.385A56.72,56.72,0,0,1,6.11,82.868a.858.858,0,0,1,.379-1.154.864.864,0,0,1,.389-.092.85.85,0,0,1,.765.472,55.477,55.477,0,0,0,3.233,5.567.86.86,0,0,1-.715,1.334Zm94.007-.086a.859.859,0,0,1-.717-1.332A55.78,55.78,0,0,0,106.673,82a.86.86,0,1,1,1.536.771,57.7,57.7,0,0,1-3.325,5.751A.86.86,0,0,1,104.167,88.909ZM4.272,77.34a.86.86,0,0,1-.807-.564A57.159,57.159,0,0,1,1.55,70.416a.86.86,0,0,1,1.673-.4,55.321,55.321,0,0,0,1.856,6.168.861.861,0,0,1-.806,1.155Zm105.763-.1a.864.864,0,0,1-.808-1.155,54.993,54.993,0,0,0,1.845-6.175.868.868,0,0,1,.838-.661.859.859,0,0,1,.835,1.056,57.068,57.068,0,0,1-1.9,6.368A.861.861,0,0,1,110.035,77.238ZM1.246,64.635a.86.86,0,0,1-.853-.758A57.66,57.66,0,0,1,0,57.249a.859.859,0,0,1,1.718,0A56.041,56.041,0,0,0,2.1,63.676a.862.862,0,0,1-.752.955C1.309,64.634,1.276,64.635,1.246,64.635Zm111.792-.112a.726.726,0,0,1-.1-.006.862.862,0,0,1-.756-.952,56.311,56.311,0,0,0,.369-6.431v-.226a.86.86,0,1,1,1.719,0v.226a58.123,58.123,0,0,1-.381,6.628A.857.857,0,0,1,113.037,64.524ZM1.22,51.577a.883.883,0,0,1-.1-.005.857.857,0,0,1-.757-.951A56.945,56.945,0,0,1,1.5,44.078a.859.859,0,0,1,1.673.391,55.347,55.347,0,0,0-1.1,6.347A.856.856,0,0,1,1.22,51.577Zm111.789-.338a.859.859,0,0,1-.852-.757,55.276,55.276,0,0,0-1.136-6.34.858.858,0,0,1,.634-1.036.87.87,0,0,1,.2-.025.852.852,0,0,1,.831.659,56.68,56.68,0,0,1,1.171,6.537.858.858,0,0,1-.751.955A.793.793,0,0,1,113.009,51.24ZM4.195,38.858a.839.839,0,0,1-.291-.052.858.858,0,0,1-.517-1.1A57,57,0,0,1,6.008,31.6a.861.861,0,0,1,1.154-.384.864.864,0,0,1,.385,1.154A54.788,54.788,0,0,0,5,38.291.862.862,0,0,1,4.195,38.858Zm105.764-.316a.863.863,0,0,1-.807-.562,55.024,55.024,0,0,0-2.575-5.9.861.861,0,0,1,.377-1.156.847.847,0,0,1,.388-.094.857.857,0,0,1,.767.471,56.743,56.743,0,0,1,2.656,6.088.859.859,0,0,1-.805,1.157ZM10.039,27.175a.861.861,0,0,1-.717-1.332,57.772,57.772,0,0,1,3.957-5.333.86.86,0,0,1,1.319,1.1,55.682,55.682,0,0,0-3.84,5.173A.856.856,0,0,1,10.039,27.175Zm94.01-.275a.859.859,0,0,1-.716-.383,56.248,56.248,0,0,0-3.866-5.15.857.857,0,0,1,.1-1.211.86.86,0,0,1,1.21.1,57.29,57.29,0,0,1,3.987,5.309.857.857,0,0,1-.715,1.335ZM18.418,17.152a.858.858,0,0,1-.591-1.482A57.535,57.535,0,0,1,22.9,11.387a.86.86,0,0,1,1.031,1.376,56.079,56.079,0,0,0-4.922,4.154A.85.85,0,0,1,18.418,17.152Zm77.2-.223a.854.854,0,0,1-.587-.232,56.144,56.144,0,0,0-4.947-4.127.86.86,0,0,1-.18-1.2.863.863,0,0,1,.691-.348.847.847,0,0,1,.509.169,57.3,57.3,0,0,1,5.1,4.253.86.86,0,0,1-.588,1.487ZM28.868,9.321a.86.86,0,0,1-.436-1.6,57.252,57.252,0,0,1,5.923-3A.86.86,0,0,1,35.042,6.3,55.688,55.688,0,0,0,29.3,9.2.856.856,0,0,1,28.868,9.321Zm56.247-.166a.859.859,0,0,1-.427-.114,55.6,55.6,0,0,0-5.766-2.876.86.86,0,0,1,.339-1.65.845.845,0,0,1,.337.07,56.832,56.832,0,0,1,5.946,2.966.86.86,0,0,1-.429,1.6ZM40.838,4.113a.859.859,0,0,1-.248-1.682A57.107,57.107,0,0,1,47.048.886.873.873,0,0,1,47.2.872a.86.86,0,0,1,.15,1.706,55.49,55.49,0,0,0-6.264,1.5A.822.822,0,0,1,40.838,4.113Zm32.267-.1a.849.849,0,0,1-.244-.035,55.235,55.235,0,0,0-6.272-1.46A.859.859,0,0,1,66.738.814a.88.88,0,0,1,.143.012,57.045,57.045,0,0,1,6.467,1.506.86.86,0,0,1-.243,1.684Zm-19.411-2.2A.859.859,0,0,1,53.643.1C54.784.035,55.956,0,57.126,0c1.051,0,2.113.028,3.157.084a.858.858,0,0,1,.81.9.851.851,0,0,1-.845.815l-.058,0c-1-.054-2.029-.081-3.047-.081-1.136,0-2.279.034-3.4.1Z" transform="translate(-0.107 -0.181)" fill="#76b0bd"/>
</g>
<g transform="translate(0 0)" clip-path="url(#b)">
<path d="M78.283,38.292c0,9.941-17.5,27.5-17.5,27.5s-18.5-17.559-18.5-27.5a18,18,0,1,1,36,0" fill="#5fae8d"/>
<path d="M78.283,38.292c0,9.941-17.5,27.5-17.5,27.5s-18.5-17.559-18.5-27.5a18,18,0,1,1,36,0Z" fill="none" stroke="#575756" stroke-miterlimit="10" stroke-width="1"/>
<path d="M69.283,38.292a9,9,0,1,1-9-9,9,9,0,0,1,9,9" fill="#fff"/>
<circle cx="9" cy="9" r="9" transform="translate(51.283 29.292)" fill="none" stroke="#585857" stroke-miterlimit="10" stroke-width="1"/>
<path d="M54.46,73.792H23.39v6.465H16.453v0H52.837v7.276h7.277v-8.09a5.654,5.654,0,0,0-5.654-5.655" fill="#f59100"/>
<path d="M54.46,73.792H23.39v6.465H16.453v0H52.837v7.276h7.277v-8.09A5.654,5.654,0,0,0,54.46,73.792Z" fill="none" stroke="#585857" stroke-miterlimit="10" stroke-width="1"/>
<path d="M66.107,73.792h31.07v6.465h6.937v0H67.73v7.276H60.453v-8.09a5.654,5.654,0,0,1,5.654-5.655" fill="#f59100"/>
<path d="M66.107,73.792h31.07v6.465h6.937v0H67.73v7.276H60.453v-8.09A5.654,5.654,0,0,1,66.107,73.792Z" fill="none" stroke="#585857" stroke-miterlimit="10" stroke-width="1"/><path d="M45.139,89.636a45.468,45.468,0,0,1-7.79-.67.665.665,0,0,1,.118-1.319.681.681,0,0,1,.11.009,44.534,44.534,0,0,0,15.209-.014.637.637,0,0,1,.117-.011.674.674,0,0,1,.653.551.667.667,0,0,1-.54.77A45.634,45.634,0,0,1,45.139,89.636ZM22.946,83.713a.672.672,0,0,1-.331-.089A45.207,45.207,0,0,1,10.6,73.563a.665.665,0,1,1,1.017-.857,43.9,43.9,0,0,0,11.66,9.765.664.664,0,0,1,.244.908A.67.67,0,0,1,22.946,83.713ZM67.4,83.67a.665.665,0,0,1-.334-1.24A43.9,43.9,0,0,0,78.71,72.645a.665.665,0,0,1,1.019.855,45.2,45.2,0,0,1-12,10.081A.661.661,0,0,1,67.4,83.67ZM3.362,60.451a.671.671,0,0,1-.625-.437A44.946,44.946,0,0,1,0,44.588a.665.665,0,0,1,1.329,0A43.627,43.627,0,0,0,3.987,59.558a.666.666,0,0,1-.4.852A.633.633,0,0,1,3.362,60.451Zm83.584-.081a.655.655,0,0,1-.226-.04.665.665,0,0,1-.4-.853A43.7,43.7,0,0,0,88.949,44.5v-.182a.665.665,0,1,1,1.329,0v.171a45.025,45.025,0,0,1-2.707,15.447A.667.667,0,0,1,86.946,60.37ZM3.3,30.037a.665.665,0,0,1-.625-.891A44.909,44.909,0,0,1,10.49,15.562a.665.665,0,1,1,1.02.853A43.654,43.654,0,0,0,3.926,29.6.667.667,0,0,1,3.3,30.037Zm83.585-.252a.666.666,0,0,1-.624-.436A43.653,43.653,0,0,0,78.6,16.217a.665.665,0,0,1,.077-.937.673.673,0,0,1,.43-.157.664.664,0,0,1,.507.235A44.967,44.967,0,0,1,87.51,28.891a.666.666,0,0,1-.4.853A.659.659,0,0,1,86.886,29.785ZM22.8,6.7a.664.664,0,0,1-.335-1.238A44.66,44.66,0,0,1,37.172.058a.677.677,0,0,1,.116-.01.665.665,0,0,1,.118,1.32A43.45,43.45,0,0,0,23.132,6.606.651.651,0,0,1,22.8,6.7Zm44.453-.131a.665.665,0,0,1-.33-.088A43.4,43.4,0,0,0,52.614,1.321.666.666,0,0,1,52.724,0a.679.679,0,0,1,.116.01A44.738,44.738,0,0,1,67.584,5.323a.665.665,0,0,1-.332,1.242Z" transform="translate(12.417 12.769)" fill="#76b0bd"/></g></svg>