<?xml version="1.0" encoding="UTF-8"?>
<svg width="60px" height="60px" viewBox="0 0 60 60" version="1.1" xmlns="http://www.w3.org/2000/svg" xmlns:xlink="http://www.w3.org/1999/xlink">
    <title>099AE0EF-3CCC-4171-8C36-991B3E115A1B@1,5x</title>
    <g id="Financeur_Cadhoc_prospect-/-UI" stroke="none" stroke-width="1" fill="none" fill-rule="evenodd">
        <g id="00_00_Connexion" transform="translate(-690.000000, -109.000000)" fill="#FFFFFF" fill-rule="nonzero">
            <g id="Illustration/Logo/Up" transform="translate(690.000000, 109.000000)">
                <g id="Group">
                    <path d="M60,0 L60,60 L0,60 L0,0 L60,0 Z M40.925,20 C38.3,20 36.9875,20.675 35,22.6625 L35,22.6625 L35,20 L30.5,20.6 L30.5,46.4 L35.2625,45.8 L35.2625,38.225 C37.025,39.6875 39.0125,40.25 40.8875,40.25 C46.4375,40.25 50.3375,35.075 50.3375,30.2375 C50.3375,24.8375 46.3625,20 40.925,20 Z M27.8,13.5 L22.85,14.1 L22.85,30.225 C22.85,33.3 22.175,35.6625 18.725,35.6625 C14.8625,35.6625 14.45,32.8875 14.45,30.6375 L14.45,30.6375 L14.45,13.5 L9.5,14.1 L9.5,31.35 C9.5,37.9125 14.075,40.425 18.5,40.425 C24.275,40.425 27.8,36.7125 27.8,32.0625 L27.8,32.0625 L27.8,13.5 Z M40.5125,24.5 C43.7,24.5 46.025,27.1625 46.025,30.275 C46.025,33.3875 43.7,36.05 40.5125,36.05 C37.325,36.05 35,33.3875 35,30.275 C35,27.1625 37.325,24.5 40.5125,24.5 Z" id="Combined-Shape"></path>
                </g>
            </g>
        </g>
    </g>
</svg>