<svg xmlns="http://www.w3.org/2000/svg" width="40" height="24" viewBox="0 0 40 24">
    <g fill="none" fill-rule="evenodd">
        <rect width="40" height="24" fill="#006" rx="4"/>
        <path fill="#C00" d="M33.463 11.993c0 4.423-3.57 8.007-7.976 8.007-4.405 0-7.975-3.584-7.975-8.007 0-4.422 3.57-8.006 7.975-8.006 4.405 0 7.976 3.584 7.976 8.006"/>
        <path fill="#06C" d="M19.326 17.078a7.948 7.948 0 0 1-.608-.848h2.827c.17-.272.323-.555.46-.848h-3.746a7.964 7.964 0 0 1-.338-.848h4.42a8.076 8.076 0 0 0 .231-4.237l-4.881.001c.062-.289.14-.572.231-.848h4.42a8.068 8.068 0 0 0-.338-.847H18.26c.137-.293.29-.576.46-.848h2.824a8.09 8.09 0 0 0-.607-.848h-1.61c.248-.301.517-.585.805-.847a7.93 7.93 0 0 0-5.355-2.073c-4.405 0-7.976 3.584-7.976 8.006C6.8 16.416 10.37 20 14.777 20a7.93 7.93 0 0 0 6.16-2.922h-1.611"/>
        <path fill="#006" d="M20.018 14.157c-.34.09-.67.135-1.019.134-1.111 0-1.69-.509-1.69-1.481 0-1.136.737-1.97 1.737-1.97.819 0 1.34.467 1.34 1.201 0 .244-.034.48-.121.816h-1.977c-.07.475.275.683.863.683.352 0 .67-.063 1.023-.206l-.156.823zm-.531-1.97c0-.071.11-.58-.463-.592-.315 0-.542.211-.634.592h1.097zM20.688 11.965c0 .42.235.71.77.925.409.168.473.217.473.367 0 .208-.18.303-.582.3a3.301 3.301 0 0 1-.9-.128l-.144.765c.289.067.693.089 1.052.097 1.067 0 1.56-.35 1.56-1.109 0-.456-.206-.724-.713-.924-.423-.17-.473-.207-.473-.36 0-.181.168-.273.495-.273.199 0 .47.019.728.05l.145-.77a7.815 7.815 0 0 0-.892-.065c-1.131 0-1.522.51-1.52 1.125M16.767 14.237h-.83l.02-.35c-.253.276-.59.404-1.047.404-.54 0-.911-.371-.911-.905 0-.812.644-1.28 1.752-1.28.114 0 .258.008.407.025a.72.72 0 0 0 .04-.215c0-.222-.175-.304-.641-.304-.46.002-.77.07-1.058.148l.142-.745c.498-.127.823-.176 1.192-.176.858 0 1.31.338 1.31.972.008.17-.05.51-.08.659-.034.216-.271 1.47-.296 1.767zm-.728-1.482a1.963 1.963 0 0 0-.223-.013c-.566 0-.852.169-.852.503 0 .209.14.34.358.34.406 0 .7-.341.717-.83zM24.664 14.184a2.572 2.572 0 0 1-.713.107c-.508 0-.786-.26-.786-.724-.016-.128.109-.717.137-.881.028-.165.468-2.565.468-2.565h.987l-.15.794h.507l-.138.81h-.508s-.28 1.407-.28 1.515c0 .17.104.244.34.244.113 0 .2-.01.268-.03l-.132.73M29.075 10.84c-.724 0-1.29.298-1.617.797l.285-.74c-.526-.193-.864.083-1.17.475 0 0-.051.065-.103.125v-.582h-.926c-.126 1.027-.348 2.069-.521 3.098l-.042.224h.997c.094-.522.172-.946.25-1.284.211-.928.567-1.211 1.103-1.086a2.167 2.167 0 0 0-.192.917c0 .829.449 1.507 1.562 1.507 1.124 0 1.938-.602 1.938-1.976 0-.829-.543-1.476-1.564-1.476zm-.29 2.645c-.353.006-.566-.29-.566-.735 0-.525.311-1.12.812-1.12.404 0 .542.322.542.664 0 .748-.305 1.191-.789 1.191zM13.534 14.237h-.993l.59-3.12-1.358 3.12h-.905l-.166-3.103-.591 3.103H9.21l.767-4.06h1.552l.129 2.264.983-2.263h1.676l-.783 4.059"/>
        <path fill="#FFF" d="M20.267 13.907c-.34.09-.67.135-1.018.134-1.112 0-1.691-.51-1.691-1.481 0-1.136.737-1.97 1.737-1.97.819 0 1.341.467 1.341 1.201 0 .243-.035.48-.122.816h-1.976c-.07.474.274.683.862.683.352 0 .67-.063 1.023-.206l-.156.823zm-.531-1.97c0-.071.11-.58-.462-.592-.316 0-.543.21-.635.592h1.097zM20.937 11.714c0 .42.235.71.77.926.41.168.473.216.473.366 0 .209-.18.304-.581.302a3.304 3.304 0 0 1-.9-.13l-.144.765c.288.068.693.09 1.05.098 1.068 0 1.561-.35 1.561-1.11 0-.455-.205-.724-.712-.923-.424-.17-.474-.207-.474-.36 0-.181.168-.273.495-.273.199 0 .47.018.728.05l.145-.77a7.703 7.703 0 0 0-.892-.065c-1.13 0-1.522.51-1.519 1.124M17.016 13.986h-.83l.02-.348c-.252.274-.59.403-1.046.403-.541 0-.912-.372-.912-.906 0-.811.644-1.28 1.752-1.28.114 0 .259.01.408.025a.715.715 0 0 0 .038-.214c0-.222-.174-.304-.64-.304-.46.002-.77.07-1.057.148l.141-.745c.498-.127.823-.176 1.192-.176.858 0 1.311.338 1.311.972.008.17-.051.509-.08.658-.035.217-.272 1.471-.297 1.767zm-.728-1.48a1.855 1.855 0 0 0-.223-.014c-.565 0-.852.168-.852.502 0 .21.14.341.358.341.407 0 .7-.342.717-.83zM24.914 13.934a2.569 2.569 0 0 1-.714.107c-.508 0-.785-.26-.785-.725-.016-.127.108-.716.136-.88.028-.165.468-2.565.468-2.565h.987l-.15.794h.507l-.138.81h-.508s-.28 1.407-.28 1.514c0 .171.104.245.34.245.113 0 .2-.01.268-.03l-.131.73M29.822 12.044c0 .748-.305 1.191-.789 1.191-.352.005-.565-.29-.565-.735 0-.525.311-1.12.812-1.12.404 0 .542.322.542.664zm1.066.02c0-.828-.543-1.475-1.564-1.475-1.175 0-1.935.786-1.935 1.945 0 .829.448 1.507 1.562 1.507 1.123 0 1.937-.602 1.937-1.976zM25.793 10.665c-.126 1.027-.348 2.068-.521 3.098l-.042.224h.997c.359-1.988.48-2.554 1.233-2.355l.362-.94c-.526-.194-.864.082-1.17.475.028-.177.08-.347.068-.502h-.927M13.783 13.987h-.992l.59-3.12-1.359 3.12h-.905l-.165-3.103-.592 3.103h-.901l.767-4.06h1.552l.082 2.514 1.092-2.514h1.614l-.783 4.06"/>
    </g>
</svg>
