<svg xmlns="http://www.w3.org/2000/svg" width="40" height="24" viewBox="0 0 40 24">
    <g fill="none" fill-rule="evenodd">
        <rect width="40" height="24" fill="#006" rx="4"/>
        <path fill="#C00" d="M22.451 12.194a7.806 7.806 0 1 1-15.612 0 7.806 7.806 0 0 1 15.612 0"/>
        <path fill="#F90" d="M25.126 4.388a7.778 7.778 0 0 0-6.029 2.847h1.577c.216.262.414.538.595.827h-2.767a7.842 7.842 0 0 0-.45.826h3.667c.125.268.236.544.33.827h-4.327c-.09.269-.166.545-.227.826h4.781a7.863 7.863 0 0 1-.226 4.133h-4.328c.095.283.205.559.33.827h3.667a7.82 7.82 0 0 1-.45.826h-2.767c.18.288.38.564.595.826h1.577c-.243.295-.506.571-.789.827a7.806 7.806 0 1 0 5.24-13.592"/>
        <path fill="#006" d="M12.823 13.049a1.458 1.458 0 0 0-.19-.014c-.48 0-.723.165-.723.49 0 .201.119.329.304.329.345 0 .594-.329.609-.805zm.616 1.435h-.702l.016-.334c-.214.263-.5.39-.888.39-.46 0-.774-.36-.774-.88 0-.784.547-1.242 1.487-1.242.097 0 .22.01.346.025a.795.795 0 0 0 .033-.209c0-.213-.148-.293-.543-.293-.415-.004-.757.1-.898.145.01-.053.118-.724.118-.724.422-.124.7-.17 1.014-.17.728 0 1.113.326 1.113.944.001.165-.026.37-.069.638-.073.466-.231 1.466-.253 1.71zM10.736 14.484h-.848l.486-3.044-1.084 3.044h-.578l-.07-3.027-.511 3.027h-.793L8 10.524H9.22l.074 2.216.743-2.216h1.355l-.655 3.96M26.173 13.049a1.45 1.45 0 0 0-.189-.014c-.48 0-.723.165-.723.49 0 .201.118.329.303.329.345 0 .594-.329.609-.805zm.617 1.435h-.703l.016-.334c-.214.263-.5.39-.888.39-.46 0-.774-.36-.774-.88 0-.784.548-1.242 1.488-1.242.096 0 .219.01.345.025a.79.79 0 0 0 .033-.209c0-.213-.147-.293-.543-.293-.415-.004-.757.1-.898.145.01-.053.119-.724.119-.724.422-.124.7-.17 1.013-.17.729 0 1.114.326 1.113.944.001.165-.026.37-.069.638-.073.466-.231 1.466-.252 1.71zM17.205 14.435a1.937 1.937 0 0 1-.609.104c-.433 0-.67-.249-.67-.707-.005-.143.063-.517.117-.858.049-.301.368-2.198.368-2.198h.842l-.099.488h.51l-.116.773h-.51c-.098.613-.238 1.376-.24 1.477 0 .166.09.238.291.238a.69.69 0 0 0 .229-.03l-.113.713M19.788 14.409c-.29.088-.568.131-.864.13-.943-.001-1.435-.493-1.435-1.436 0-1.1.625-1.911 1.474-1.911.695 0 1.139.453 1.139 1.165 0 .236-.03.467-.104.792H18.32c-.056.467.242.661.733.661.3 0 .573-.062.875-.202l-.14.8zm-.473-1.91c.004-.067.089-.574-.393-.574-.268 0-.46.204-.538.575h.93zM13.947 12.282c0 .407.198.687.646.899.343.161.396.209.396.355 0 .2-.151.291-.487.291a2.38 2.38 0 0 1-.759-.127l-.116.744c.192.042.364.08.881.095.895 0 1.308-.34 1.308-1.076 0-.442-.173-.702-.598-.898-.355-.162-.396-.199-.396-.35 0-.173.141-.262.415-.262.166 0 .393.018.609.048l.12-.747a5.721 5.721 0 0 0-.746-.062c-.947 0-1.276.495-1.273 1.09M23.91 11.277c.235 0 .455.06.757.213l.139-.859c-.125-.049-.562-.335-.932-.335-.567 0-1.047.282-1.384.746-.492-.163-.694.166-.942.494l-.22.051c.017-.108.032-.215.027-.323h-.778c-.107.996-.295 2.006-.442 3.003l-.039.217h.848c.141-.92.219-1.508.266-1.907l.32-.177c.047-.178.196-.238.495-.23-.039.21-.06.43-.06.66 0 1.053.57 1.71 1.481 1.71.235 0 .437-.032.75-.117l.148-.902c-.281.138-.511.203-.72.203-.492 0-.79-.364-.79-.965 0-.872.443-1.482 1.076-1.482M31.084 10.524l-.188 1.144c-.231-.305-.48-.526-.809-.526-.427 0-.817.325-1.071.802-.355-.074-.722-.199-.722-.199v.003c.028-.267.04-.429.037-.484h-.778c-.106.996-.295 2.006-.442 3.003l-.04.217h.849c.114-.744.202-1.361.266-1.85.29-.263.435-.49.728-.476a2.76 2.76 0 0 0-.206 1.045c0 .805.407 1.336 1.024 1.336.31 0 .548-.107.78-.355l-.04.3h.803l.645-3.96h-.836zm-1.06 3.216c-.288 0-.434-.214-.434-.635 0-.633.273-1.082.657-1.082.292 0 .45.222.45.63 0 .64-.278 1.087-.672 1.087z"/>
        <path fill="#FFF" d="M10.98 14.249h-.848l.486-3.044-1.084 3.044h-.578l-.07-3.026-.511 3.026h-.793l.662-3.96h1.219l.034 2.451.822-2.45h1.316l-.655 3.959M13.067 12.814a1.409 1.409 0 0 0-.19-.013c-.48 0-.723.165-.723.49 0 .2.119.328.304.328.345 0 .594-.328.609-.805zm.616 1.435h-.702l.016-.334c-.214.264-.5.39-.888.39-.46 0-.774-.36-.774-.88 0-.785.547-1.241 1.487-1.241.097 0 .22.008.346.025a.799.799 0 0 0 .033-.21c0-.213-.148-.292-.543-.292a2.815 2.815 0 0 0-.898.144c.01-.053.118-.724.118-.724.422-.124.7-.17 1.014-.17.728 0 1.113.327 1.113.944.001.165-.026.37-.069.638a52.312 52.312 0 0 0-.253 1.71zM25.05 10.396l-.14.86c-.302-.153-.521-.214-.756-.214-.633 0-1.077.611-1.077 1.483 0 .601.298.964.791.964.209 0 .44-.064.72-.203l-.15.902a2.645 2.645 0 0 1-.748.116c-.912 0-1.48-.656-1.48-1.709 0-1.415.785-2.405 1.908-2.405.37 0 .807.157.931.206M26.416 12.814a1.399 1.399 0 0 0-.188-.013c-.48 0-.723.165-.723.49 0 .2.118.328.303.328.345 0 .594-.328.608-.805zm.617 1.435h-.702l.016-.334c-.214.264-.5.39-.888.39-.46 0-.774-.36-.774-.88 0-.785.547-1.241 1.488-1.241.096 0 .219.008.345.025a.795.795 0 0 0 .033-.21c0-.213-.147-.292-.543-.292a2.817 2.817 0 0 0-.897.144l.117-.724c.423-.124.7-.17 1.014-.17.728 0 1.114.327 1.113.944.001.165-.026.37-.069.638-.073.466-.231 1.467-.253 1.71zM17.45 14.2a1.936 1.936 0 0 1-.61.104c-.433 0-.67-.249-.67-.707-.005-.142.063-.516.117-.858.049-.301.367-2.197.367-2.197h.843l-.099.487h.433l-.115.773h-.434c-.098.613-.238 1.376-.24 1.477 0 .166.09.238.291.238.097 0 .171-.01.229-.03l-.113.713M20.032 14.174c-.29.089-.569.13-.864.13-.944 0-1.435-.493-1.435-1.436 0-1.1.625-1.911 1.474-1.911.695 0 1.138.453 1.138 1.165 0 .236-.03.467-.103.792h-1.678c-.057.467.242.662.732.662.302 0 .574-.062.876-.203l-.14.801zm-.473-1.91c.004-.067.089-.574-.392-.574-.269 0-.46.205-.539.575h.93zM14.191 12.047c0 .407.198.688.646.899.343.161.396.209.396.355 0 .201-.151.292-.487.292-.253 0-.488-.04-.76-.127l-.115.743c.192.042.364.08.881.095.895 0 1.308-.34 1.308-1.076 0-.442-.173-.702-.598-.897-.355-.163-.396-.2-.396-.35 0-.174.14-.264.415-.264.166 0 .393.019.609.05l.12-.747a5.769 5.769 0 0 0-.746-.063c-.948 0-1.276.495-1.273 1.09M31.519 14.249h-.802l.04-.3c-.233.248-.471.355-.782.355-.615 0-1.023-.53-1.023-1.336 0-1.07.632-1.974 1.38-1.974.328 0 .577.135.808.44l.188-1.145h.836l-.645 3.96zm-1.25-.744c.394 0 .671-.448.671-1.085 0-.41-.157-.632-.449-.632-.384 0-.657.449-.657 1.082 0 .422.146.635.434.635zM27.797 11.029c-.106.996-.295 2.006-.442 3.003l-.039.217h.848c.303-1.97.376-2.354.852-2.306a3.16 3.16 0 0 1 .321-.934c-.355-.074-.553.127-.813.508.02-.165.058-.325.051-.488h-.778M20.82 11.029c-.106.996-.294 2.006-.442 3.003l-.038.217h.848c.303-1.97.376-2.354.85-2.306a3.18 3.18 0 0 1 .323-.934c-.355-.074-.553.127-.813.508.02-.165.058-.325.051-.488h-.778"/>
    </g>
</svg>
