<?xml version="1.0" encoding="UTF-8"?>
<svg xmlns="http://www.w3.org/2000/svg" width="96.925" height="116.367" viewBox="0 0 96.925 116.367">
<g transform="translate(0 -338.456)">
<g transform="translate(32.472 390.37)">
<g transform="translate(11.82 18.855)">
<ellipse cx="6.078" cy="5.998" rx="6.078" ry="5.998" fill="#4f5d5b"/>
<ellipse cx="2.457" cy="2.552" rx="2.457" ry="2.552" transform="translate(4.897 1.771)" fill="#fcfcfc"/>
</g><ellipse cx="4.259" cy="2.696" rx="4.259" ry="2.696" transform="translate(8.056 35.205)" fill="#fce1ce"/>
<g transform="translate(35.509 11.884)">
<ellipse cx="6.078" cy="5.998" rx="6.078" ry="5.998" fill="#4f5d5b"/>
<ellipse cx="2.457" cy="2.552" rx="2.457" ry="2.552" transform="translate(4.897 1.771)" fill="#fcfcfc"/>
</g>
<g transform="translate(17.132 26.464)">
<path d="M50.752,18.676S29.76,13.22,12.42,36.637c0,0,4.546,9.443,16.957,9.108l-.893-2.441s0-.048-.032-.064l-.239-.574a8.173,8.173,0,0,1,4.61-10.608A8.192,8.192,0,0,1,43.207,37.18a2.917,2.917,0,0,1,.128.4l.75,2.042c9.029-8.327,6.652-20.929,6.652-20.929Z" transform="translate(-10.873 -16.809)" fill="#f2900b"/>
<path d="M29.284,47.56C16.7,47.56,11.992,38.117,11.8,37.7l-.351-.718.479-.638c9.2-12.426,19.477-16.781,26.464-18.265a31.615,31.615,0,0,1,13.272-.191l.814.207.16.814c.1.542,2.393,13.415-7.051,22.141l-1.452,1.34-1.452-3.956c-.032-.112-.08-.223-.112-.335a7.27,7.27,0,0,0-3.589-4.036A6.4,6.4,0,0,0,30.177,37.3,7.237,7.237,0,0,0,30.05,42.7c.064.16.128.335.191.495.016.048.048.1.064.144l1.531,4.147L30,47.528h-.7ZM14.545,37.24A16.646,16.646,0,0,0,28.056,44.9l-.239-.654c-.08-.191-.175-.415-.255-.638a9.806,9.806,0,0,1,.175-7.338A9.022,9.022,0,0,1,40.115,31.72,9.789,9.789,0,0,1,45,37.208c.048.144.1.287.144.415l.032.064c5.6-6.381,5.248-14.739,4.961-17.419a31.01,31.01,0,0,0-11.358.415c-6.381,1.372-15.712,5.36-24.247,16.542Z" transform="translate(-11.45 -17.3)" fill="#4f5d5b"/>
</g>
<g transform="translate(32.616 39.915)">
<path d="M37.515,32.145a8.2,8.2,0,0,0-10.385-5.121,8.186,8.186,0,0,0-4.61,10.608,4.386,4.386,0,0,0,.239.574.121.121,0,0,0,.032.064l.893,2.441a21.553,21.553,0,0,0,7.529-1.659,23.676,23.676,0,0,0,7.194-4.466l-.75-2.042c-.048-.128-.08-.255-.128-.4Z" transform="translate(-20.666 -25.241)" fill="#f2900b"/>
<path d="M23.267,42.558l-1.228-3.334c-.08-.191-.175-.415-.255-.638a9.806,9.806,0,0,1,.175-7.338A9.022,9.022,0,0,1,34.338,26.7a9.789,9.789,0,0,1,4.881,5.487h0c.048.144.1.287.144.415L40.4,35.443l-.638.59a24.982,24.982,0,0,1-7.593,4.722,22.651,22.651,0,0,1-7.976,1.755l-.941.032Zm7-14.181A6.358,6.358,0,0,0,24.384,32.3a7.237,7.237,0,0,0-.128,5.392c.064.16.128.335.191.495.016.048.048.1.064.144l.558,1.531A20.628,20.628,0,0,0,31.2,38.347a22.823,22.823,0,0,0,6.141-3.637l-.463-1.26c-.032-.112-.08-.223-.112-.335a7.27,7.27,0,0,0-3.589-4.036,6.6,6.6,0,0,0-2.919-.7Z" transform="translate(-21.157 -25.732)" fill="#4f5d5b"/>
</g>
<circle cx="31.872" cy="31.872" r="31.872" fill="none" stroke="#4e5b59" stroke-miterlimit="10" stroke-width="1.42"/>
<path d="M14.592,9.29a1.088,1.088,0,0,0-.191.016A13.549,13.549,0,0,0,4.048,18.175a1.07,1.07,0,0,0,2.042.638,11.5,11.5,0,0,1,8.71-7.4,1.069,1.069,0,0,0-.191-2.122Z" transform="translate(1.248 4.397)" fill="#4e5b59"/>
<path d="M22.214,6.126a1.066,1.066,0,0,0-.367,1.468,1.085,1.085,0,0,0,1.468.383l.032-.016a11.388,11.388,0,0,1,11.39.335,1.074,1.074,0,0,0,1.117-1.834A13.659,13.659,0,0,0,22.214,6.126Z" transform="translate(11.779 1.515)" fill="#4e5b59"/>
</g>
<g transform="translate(0 338.456)">
<circle cx="2.841" cy="2.841" r="2.841" transform="translate(35.287 12.321)" fill="#585856"/>
<ellipse cx="1.97" cy="2.149" rx="1.97" ry="2.149" transform="translate(40.969 30.472)" fill="none" stroke="#585856" stroke-miterlimit="10" stroke-width="1.36"/>
<path d="M202.008,59.2s-.789-.319-1.074-.067-.067,1.074-.067,1.074c-.014.239-.234.387-.559.368-.3-.019-.53-.2-.516-.434l.067-1.074L198.8,59a.5.5,0,0,1-.377-.568c.019-.32.234-.52.444-.506l1.065.067.067-1.065a.51.51,0,0,1,.568-.387.484.484,0,0,1,.506.454L201,58.057l1.074.067c.243.014.387.234.368.559C202.424,58.983,202.247,59.212,202.008,59.2Z" transform="translate(-170.629 -56.537)" fill="#585856"/>
<path d="M11.865,80.524,9.936,80.4l-.12,1.928c-.026.429-.42.694-1,.66-.54-.034-.951-.351-.926-.78l.12-1.928L6.1,80.164a.905.905,0,0,1-.677-1.02c.034-.574.42-.934.8-.908l1.911.12.12-1.911a.916.916,0,0,1,1.02-.694.87.87,0,0,1,.909.814l-.12,1.911,1.928.12c.437.026.694.42.66,1C12.61,80.138,12.293,80.549,11.865,80.524Z" transform="translate(12.8 -56.291)" fill="#585856"/>
<path d="M59.44,8.165l-1.586-.1-.1,1.586c-.021.352-.345.571-.825.543-.444-.028-.782-.289-.761-.641l.1-1.586-1.572-.1a.744.744,0,0,1-.557-.839c.028-.472.345-.768.656-.747l1.572.1.1-1.572a.753.753,0,0,1,.839-.571.715.715,0,0,1,.747.67l-.1,1.572,1.586.1c.359.021.571.345.543.825C60.053,7.848,59.792,8.187,59.44,8.165Z" transform="translate(-3.969 -2.219)" fill="#585856"/><path d="M168.546,3.548l-1.429-.089-.089,1.429c-.019.318-.311.515-.743.489-.4-.025-.705-.26-.686-.578l.089-1.429-1.417-.089a.671.671,0,0,1-.5-.756c.025-.426.311-.692.591-.673l1.417.089.089-1.417a.679.679,0,0,1,.756-.515.645.645,0,0,1,.673.6l-.089,1.417,1.429.089c.324.019.515.311.489.743-.025.4-.26.705-.578.686Z" transform="translate(-116.279 12.169)" fill="#585856"/><path d="M162.13,52.56l-2.262-.141-.141,2.262c-.03.5-.493.814-1.176.774-.633-.04-1.116-.412-1.086-.915l.141-2.262-2.242-.141a1.062,1.062,0,0,1-.794-1.2c.04-.674.493-1.1.935-1.066l2.242.141.141-2.242a1.074,1.074,0,0,1,1.2-.814,1.02,1.02,0,0,1,1.066.955l-.141,2.242,2.262.141c.513.03.814.493.774,1.176C163.005,52.108,162.633,52.59,162.13,52.56Z" transform="translate(-91.446 -33.205)" fill="#585856"/><circle cx="4.275" cy="4.275" r="4.275" transform="translate(58.846 33.086)" fill="#585856"/><path d="M4.6,123.169l-1.378-.086-.086,1.378c-.018.306-.3.5-.716.471-.386-.024-.68-.251-.661-.557L1.848,123l-1.365-.086A.647.647,0,0,1,0,122.184c.024-.41.3-.667.569-.649l1.365.086.086-1.365a.654.654,0,0,1,.729-.5.621.621,0,0,1,.649.582l-.086,1.365,1.378.086c.312.018.5.3.471.716-.024.386-.251.68-.557.661Z" transform="translate(0.003 -104.595)" fill="#585856"/><path d="M218.324,112.6l-2.221-.138-.138,2.221c-.03.494-.484.8-1.155.76-.622-.039-1.1-.4-1.066-.9l.138-2.221-2.2-.138a1.043,1.043,0,0,1-.78-1.175c.04-.661.484-1.076.918-1.046l2.2.138.138-2.2a1.055,1.055,0,0,1,1.175-.8,1,1,0,0,1,1.046.938l-.138,2.2,2.221.138c.5.03.8.484.76,1.155C219.183,112.155,218.818,112.628,218.324,112.6Z" transform="translate(-183.939 -69.041)" fill="#585856"/><circle cx="1.386" cy="1.386" r="1.386" transform="translate(13.174 42.231)" fill="#585856"/><circle cx="2.772" cy="2.772" r="2.772" transform="translate(8.43 27.077)" fill="#585856"/><circle cx="1.971" cy="1.971" r="1.971" transform="translate(11.203 6.773)" fill="#585856"/>
</g>
</g>
</svg>
