<?xml version="1.0" encoding="UTF-8"?>
<svg id="Calque_1" data-name="Calque 1" xmlns="http://www.w3.org/2000/svg" viewBox="0 0 179 162">
  <defs>
    <style>
      .cls-1, .cls-2, .cls-3, .cls-4, .cls-5 {
        fill: #f59100;
      }

      .cls-1, .cls-3, .cls-4, .cls-5 {
        stroke: #4e5b59;
      }

      .cls-1, .cls-5 {
        stroke-linecap: round;
        stroke-linejoin: round;
      }

      .cls-3, .cls-4 {
        stroke-miterlimit: 10;
      }

      .cls-3, .cls-5 {
        stroke-width: 1px;
      }
    </style>
  </defs>
  <path class="cls-3" d="m118.98,105.85c0,.23-.02.46-.04.69h13.06c.01-.23.04-.46.04-.69,0-6.21-5.19-11.24-11.59-11.24-2.42,0-4.67.72-6.53,1.95,3.06,2.02,5.07,5.43,5.07,9.29Z"/>
  <path class="cls-3" d="m113.92,96.56c-1.86-1.23-4.11-1.95-6.53-1.95-6.4,0-11.59,5.03-11.59,11.24,0,.23.02.46.04.69h23.12c.01-.23.04-.46.04-.69,0-3.86-2.01-7.27-5.07-9.29Z"/>
  <path class="cls-5" d="m148.07,127.54h-37.58c14.89-3.09,25.42-10.62,25.42-19.43,0-.53-.05-1.05-.12-1.57l-15.78-.04-1.05.04h-63.81c-.07.52-.12,1.04-.12,1.57,0,8.81,10.52,16.34,25.42,19.43h-39.53c-1.77,0-3.21,1.44-3.21,3.21s1.44,3.21,3.21,3.21h107.17c1.77,0,3.21-1.44,3.21-3.21s-1.44-3.21-3.21-3.21Z"/>
  <ellipse class="cls-2" cx="159.85" cy="30.11" rx="2.9" ry="3.06" transform="translate(118.79 187.51) rotate(-86.05)"/>
  <ellipse class="cls-2" cx="121.39" cy="75.31" rx="2.9" ry="3.06" transform="translate(37.89 191.22) rotate(-86.05)"/>
  <path class="cls-2" d="m146.32,24.68l-.08,1.32,1.4.09c.31.02.51.29.48.69-.02.37-.25.66-.56.64l-1.4-.09-.08,1.31c-.02.26-.35.49-.74.46-.42-.03-.68-.29-.66-.55l.08-1.31-1.39-.09c-.27-.02-.53-.33-.51-.7.02-.4.32-.64.59-.62l1.39.09.08-1.32c.02-.3.31-.48.72-.45.39.02.69.24.68.54Z"/>
  <path class="cls-2" d="m127.34,53.23l-.08,1.32,1.4.09c.31.02.51.29.48.69-.02.37-.25.66-.56.64l-1.4-.09-.08,1.31c-.02.26-.35.49-.74.46-.42-.03-.68-.29-.66-.55l.08-1.31-1.39-.09c-.27-.02-.53-.33-.51-.7.02-.4.32-.64.59-.62l1.39.09.08-1.32c.02-.3.31-.48.72-.45.39.02.69.24.68.54Z"/>
  <path class="cls-2" d="m98.37,63.51l-.08,1.32,1.4.09c.31.02.51.29.48.69-.02.37-.25.66-.56.64l-1.4-.09-.08,1.31c-.02.26-.35.49-.74.46-.42-.03-.68-.29-.66-.55l.08-1.31-1.39-.09c-.27-.02-.53-.33-.51-.7.02-.4.32-.64.59-.62l1.39.09.08-1.32c.02-.3.31-.48.72-.45.39.02.69.24.68.54Z"/>
  <path class="cls-2" d="m132.32,73.69l-.08,1.32,1.4.09c.31.02.51.29.48.69-.02.37-.25.66-.56.64l-1.4-.09-.08,1.31c-.02.26-.35.49-.74.46-.42-.03-.68-.29-.66-.55l.08-1.31-1.39-.09c-.27-.02-.53-.33-.51-.7.02-.4.32-.64.59-.62l1.39.09.08-1.32c.02-.3.31-.48.72-.45.39.02.69.24.68.54Z"/>
  <ellipse class="cls-2" cx="131.49" cy="22.64" rx="2.9" ry="3.06" transform="translate(99.83 152.26) rotate(-86.05)"/>
  <ellipse class="cls-2" cx="139.85" cy="62.97" rx="2.9" ry="3.06" transform="translate(67.39 198.15) rotate(-86.05)"/>
  <ellipse class="cls-2" cx="117.69" cy="43.01" rx="2.9" ry="3.06" transform="translate(66.67 157.46) rotate(-86.05)"/>
  <path class="cls-2" d="m107.07,76.27l-.11,1.78c-.02.32.22.59.54.61l1.92.12c.56.04.9.52.86,1.23-.04.66-.45,1.17-1.01,1.13l-1.88-.12c-.34-.02-.63.23-.65.57l-.11,1.73c-.03.46-.61.87-1.31.83-.75-.05-1.21-.52-1.18-.98l.1-1.61c.02-.4-.28-.75-.68-.77l-1.74-.11c-.49-.03-.95-.59-.9-1.25.04-.71.56-1.14,1.05-1.11l1.81.11c.36.02.68-.25.7-.62l.11-1.7c.03-.53.54-.85,1.29-.8.7.04,1.24.43,1.2.96Z"/>
  <path class="cls-2" d="m149.48,47.82l-1.08,1.42c-.19.25-.14.62.11.81l1.53,1.16c.45.34.46.93.04,1.5-.4.53-1.02.72-1.46.39l-1.5-1.14c-.27-.2-.65-.15-.86.12l-1.05,1.38c-.28.37-.99.38-1.55-.04-.59-.45-.72-1.1-.44-1.47l.98-1.29c.24-.32.18-.78-.14-1.02l-1.39-1.06c-.39-.3-.46-1.02-.06-1.54.43-.56,1.1-.64,1.49-.34l1.44,1.1c.29.22.7.16.92-.13l1.03-1.36c.32-.42.92-.41,1.52.04.56.42.79,1.04.47,1.47Z"/>
  <g>
    <ellipse class="cls-4" cx="40.48" cy="34.85" rx="7.37" ry="7.15" transform="translate(-1.58 67.78) rotate(-78.78)"/>
    <path class="cls-4" d="m88.03,23.53c-25.62-4.61-50.53,13.19-55.44,39.57-2.55,13.7.7,27.12,8.01,37.57,1.68,2.41,5.14,2.53,7.06.27l56.02-65.68c1.72-2.02,1.25-5.17-1.02-6.45-4.43-2.51-9.34-4.33-14.63-5.28Z"/>
    <path class="cls-1" d="m43.86,96.76s-16.12-25.92.85-50.39"/>
  </g>
</svg>