<svg xmlns="http://www.w3.org/2000/svg" xmlns:xlink="http://www.w3.org/1999/xlink" width="59px" height="61px" viewBox="0 0 59 61" version="1.1">
    <title>0B6EC340-75E4-429B-B7C3-9C38FD21392A@1,5x</title>
    <defs>
        <polygon id="path-s-g" points="0.000100835525 0.213969231 36.1864502 0.213969231 36.1864502 60.0615385 0.000100835525 60.0615385"/>
        <polygon id="path-3" points="0.875592343 0.269902181 2.764 0.269902181 2.764 1.97587943 0.875592343 1.97587943"/>
    </defs>
    <g id="Import-Fichier" stroke="none" stroke-width="1" fill="none" fill-rule="evenodd">
        <g id="02-01_Erreur-pop-in-message" transform="translate(-841.000000, -70.000000)">
            <g id="Loupe" transform="translate(841.000000, 70.000000)">
                <path d="M33.2545,16.7537908 C33.2545,23.9968369 26.9975,29.8687908 19.2795,29.8687908 C11.5625,29.8687908 5.3055,23.9968369 5.3055,16.7537908 C5.3055,9.51074462 11.5625,3.63879077 19.2795,3.63879077 C26.9975,3.63879077 33.2545,9.51074462 33.2545,16.7537908" id="Fill-1" fill="#FFFFFF"/>
                <path d="M19.2799,3.98236154 C11.7759,3.98236154 5.6709,9.71166923 5.6709,16.7538846 C5.6709,23.7961 11.7759,29.5254077 19.2799,29.5254077 C26.7839,29.5254077 32.8889,23.7961 32.8889,16.7538846 C32.8889,9.71166923 26.7839,3.98236154 19.2799,3.98236154 M19.2799,30.2114231 C11.3729,30.2114231 4.9399,24.1743 4.9399,16.7538846 C4.9399,9.33346923 11.3729,3.29634615 19.2799,3.29634615 C27.1869,3.29634615 33.6199,9.33346923 33.6199,16.7538846 C33.6199,24.1743 27.1869,30.2114231 19.2799,30.2114231" id="Fill-3" fill="#4A494A"/>
                <g id="Group-s-g" transform="translate(0.000000, 0.724774)">
                    <mask id="mask-s-g" fill="white">
                        <use xlink:href="#path-s-g"/>
                    </mask>
                    <g id="Clip-6"/>
                    <path d="M19.2184,0.89914 C15.9244,0.89914 12.6014,1.83572462 9.7344,3.78115538 C2.4864,8.69963231 0.8534,18.23534 6.0934,25.0373092 C7.5054,26.8701246 9.3104,28.3566477 11.4574,29.4584015 L11.7894,29.6292015 L11.5964,29.9342015 C11.5444,30.0149092 11.4964,30.1003092 11.4604,30.19134 L0.8374,56.9797246 C0.6824,57.3720015 0.6984,57.7961862 0.8834,58.1762631 C1.0694,58.55634 1.4004,58.8453862 1.8174,58.9908477 L2.6354,59.27614 C3.0504,59.4216015 3.5044,59.4047092 3.9094,59.2329708 C4.3144,59.0593554 4.6224,58.7477862 4.7774,58.3564477 L15.4004,31.5680631 C15.4384,31.4732785 15.4624,31.3766169 15.4804,31.2808938 L15.5414,30.9270938 L15.9154,31.0002938 C20.3884,31.8796323 25.0664,30.9514938 28.7454,28.4533092 C35.9934,23.5348323 37.6264,13.9991246 32.3854,7.19715538 C29.2174,3.08575538 24.2514,0.89914 19.2184,0.89914 M3.2174,60.0616323 C2.9354,60.0616323 2.6524,60.0147092 2.3804,59.9199246 L1.5624,59.6336938 C0.9624,59.4244169 0.4854,59.00774 0.2184,58.4615554 C-0.0476,57.9153708 -0.0716,57.3044323 0.1524,56.7404169 L10.7754,29.9520323 C10.7824,29.9342015 10.7894,29.9154323 10.7974,29.8976015 C8.6904,28.7648785 6.9094,27.2670938 5.5014,25.4399092 C0.0244,18.3301246 1.7314,8.36460154 9.3064,3.22464769 C16.8804,-1.91342923 27.5004,-0.314290769 32.9774,6.79455538 C38.4544,13.9034015 36.7484,23.8698631 29.1734,29.0098169 C25.4214,31.5558631 20.6784,32.5403092 16.1124,31.7360477 C16.1034,31.7595092 16.0944,31.7829708 16.0854,31.8073708 L5.4624,58.5948169 C5.2394,59.1588323 4.7954,59.6064785 4.2134,59.8561092 C3.8954,59.9931246 3.5574,60.0616323 3.2174,60.0616323" id="Fill-5" fill="#4A494A" mask="url(#mask-s-g)"/>
                </g>
                <path d="M44.068,4.80445385 L43.693,5.21174615 L44.151,5.58525385 C44.255,5.66783846 44.249,5.80391538 44.136,5.92591538 C44.032,6.04040769 43.879,6.07513077 43.776,5.99254615 L43.317,5.61997692 L42.945,6.02351538 C42.872,6.10328462 42.699,6.09577692 42.57,5.99160769 C42.433,5.87993077 42.414,5.73071538 42.487,5.65094615 L42.859,5.24740769 L42.405,4.87859231 C42.315,4.80445385 42.309,4.64022308 42.415,4.52666923 C42.527,4.40466923 42.691,4.39716154 42.781,4.47036154 L43.235,4.83917692 L43.61,4.43188462 C43.694,4.34085385 43.84,4.35305385 43.977,4.46473077 C44.106,4.5689 44.153,4.71342308 44.068,4.80445385" id="Fill-8" fill="#4A494A"/>
                <g id="Group-12" transform="translate(56.000000, 1.663235)">
                    <mask id="mask-4" fill="white">
                        <use xlink:href="#path-3"/>
                    </mask>
                    <g id="Clip-11"/>
                    <path d="M2.6071,0.703001538 L2.2321,1.11123231 L2.6901,1.48380154 C2.7941,1.56638615 2.7881,1.70246308 2.6751,1.82446308 C2.5701,1.93895538 2.4181,1.97461692 2.3151,1.89109385 L1.8561,1.51852462 L1.4841,1.92206308 C1.4111,2.00183231 1.2381,1.99432462 1.1091,1.89015538 C0.9721,1.77847846 0.9521,1.62926308 1.0261,1.54949385 L1.3981,1.14595538 L0.9441,0.77714 C0.8541,0.703001538 0.8481,0.538770769 0.9541,0.425216923 C1.0661,0.303216923 1.2291,0.295709231 1.3201,0.368909231 L1.7731,0.738663077 L2.1491,0.330432308 C2.2331,0.239401538 2.3791,0.251601538 2.5161,0.363278462 C2.6451,0.467447692 2.6921,0.611970769 2.6071,0.703001538" id="Fill-10" fill="#4A494A" mask="url(#mask-4)"/>
                </g>
                <path d="M40.4166,14.3411938 L40.0416,14.7494246 L40.4996,15.1219938 C40.6036,15.2045785 40.5976,15.3406554 40.4846,15.4626554 C40.3796,15.5771477 40.2276,15.6128092 40.1246,15.5292862 L39.6656,15.1567169 L39.2936,15.5602554 C39.2206,15.6400246 39.0476,15.6325169 38.9186,15.5283477 C38.7816,15.4166708 38.7616,15.2674554 38.8356,15.1876862 L39.2076,14.7841477 L38.7536,14.4153323 C38.6636,14.3411938 38.6576,14.1769631 38.7636,14.0634092 C38.8756,13.9414092 39.0386,13.9339015 39.1296,14.0071015 L39.5836,14.3768554 L39.9586,13.9686246 C40.0426,13.8775938 40.1886,13.8897938 40.3256,14.0014708 C40.4546,14.10564 40.5016,14.2501631 40.4166,14.3411938" id="Fill-13" fill="#4A494A"/>
                <path d="M52.8248,7.51032 C52.9168,7.51032 53.0068,7.53190462 53.0878,7.57601231 C53.2118,7.64170462 53.2998,7.74868923 53.3368,7.87725846 L53.5548,8.61395077 C53.5618,8.63835077 53.5748,8.65336615 53.5988,8.66650462 C53.6408,8.68808923 53.7228,8.70310462 53.8308,8.67495077 C53.8848,8.66087385 54.0588,8.60550462 54.0248,8.49101231 L53.8038,7.74024308 C53.7268,7.48216615 53.8878,7.21470462 54.1628,7.14244308 L54.9078,6.94818154 C54.9148,6.94630462 54.9338,6.94067385 54.9508,6.89562769 C54.9718,6.83650462 54.9698,6.75298154 54.9438,6.66758154 C54.9088,6.54745846 54.8528,6.48082769 54.8118,6.45924308 L54.0518,6.63942769 C53.9108,6.67508923 53.7618,6.65913538 53.6328,6.59156615 C53.5038,6.52305846 53.4118,6.41232 53.3718,6.27905846 L53.1618,5.56864308 C53.1548,5.54424308 53.1318,5.51890462 53.0978,5.50201231 C53.0648,5.48512 52.9968,5.45884308 52.8888,5.48699692 C52.8208,5.50482769 52.7608,5.54518154 52.7218,5.59773538 C52.6938,5.63715077 52.6858,5.67468923 52.6918,5.69252 L52.8928,6.37572 C52.9338,6.51461231 52.9158,6.66288923 52.8398,6.78958154 C52.7628,6.91721231 52.6378,7.00824308 52.4888,7.04765846 L51.8148,7.22315077 C51.7818,7.23159692 51.7168,7.32919692 51.7658,7.49718154 C51.8138,7.65765846 51.9308,7.72710462 51.9628,7.71678154 L52.6818,7.52908923 C52.7288,7.51595077 52.7768,7.51032 52.8248,7.51032 M53.7178,9.19204308 C53.5788,9.19204308 53.4468,9.16107385 53.3368,9.10288923 C53.1888,9.02499692 53.0848,8.89830462 53.0398,8.74815077 L52.8208,8.01052 L52.1028,8.20008923 C51.9298,8.24325846 51.7308,8.20290462 51.5638,8.07996615 C51.4158,7.97204308 51.3038,7.81250462 51.2508,7.63044308 C51.1318,7.22408923 51.3158,6.83275077 51.6728,6.73984308 L52.3458,6.56435077 C52.3668,6.55872 52.3848,6.53056615 52.3788,6.50992 L52.1768,5.82578154 C52.1288,5.66155077 52.1658,5.47667385 52.2798,5.31713538 C52.3888,5.16510462 52.5538,5.05436615 52.7468,5.00462769 C52.9598,4.94644308 53.1798,4.96896615 53.3618,5.06562769 C53.5188,5.14915077 53.6318,5.28053538 53.6778,5.43538154 L53.8868,6.14485846 L54.6198,5.97124308 C54.7748,5.93182769 54.9328,5.94778154 55.0758,6.02379692 C55.2538,6.11764308 55.3898,6.29876615 55.4598,6.53338154 C55.5128,6.71638154 55.5128,6.90219692 55.4568,7.05610462 C55.3888,7.24473538 55.2408,7.38175077 55.0508,7.43148923 L54.3058,7.62575077 L54.5408,8.35681231 C54.6448,8.71436615 54.4128,9.04376615 53.9728,9.15825846 C53.8868,9.18078154 53.8018,9.19204308 53.7178,9.19204308" id="Fill-15" fill="#4A494A"/>
                <path d="M11.5963,24.6766585 C11.4943,24.6766585 11.3943,24.6363046 11.3243,24.5574738 C11.2473,24.4720738 3.8143,15.97712 11.3603,8.92833538 C11.4983,8.79882769 11.7243,8.79882769 11.8633,8.92927385 C12.0013,9.05972 12.0003,9.27087385 11.8623,9.40132 C8.8973,12.17072 7.9893,15.4778585 9.1623,19.2326431 C10.0483,22.0667969 11.8503,24.1088892 11.8683,24.1285969 C11.9943,24.2703046 11.9753,24.48052 11.8253,24.5987662 C11.7583,24.65132 11.6773,24.6766585 11.5963,24.6766585" id="Fill-17" fill="#4A494A"/>
                <path d="M44.4889,20.6712108 C44.0189,20.6712108 43.6359,21.0306415 43.6359,21.4717185 C43.6359,21.9127954 44.0189,22.2722262 44.4889,22.2722262 C44.9589,22.2722262 45.3419,21.9127954 45.3419,21.4717185 C45.3419,21.0306415 44.9589,20.6712108 44.4889,20.6712108 M44.4889,22.9394723 C43.6269,22.9394723 42.9259,22.2806723 42.9259,21.4717185 C42.9259,20.6627646 43.6269,20.0039646 44.4889,20.0039646 C45.3509,20.0039646 46.0519,20.6627646 46.0519,21.4717185 C46.0519,22.2806723 45.3509,22.9394723 44.4889,22.9394723" id="Fill-19" fill="#4A494A"/>
                <path d="M45.6969,10.6272323 C45.2269,10.6272323 44.8439,10.9857246 44.8439,11.42774 C44.8439,11.8688169 45.2269,12.2273092 45.6969,12.2273092 C46.1669,12.2273092 46.5499,11.8688169 46.5499,11.42774 C46.5499,10.9857246 46.1669,10.6272323 45.6969,10.6272323 M45.6969,12.8945554 C44.8349,12.8945554 44.1339,12.2357554 44.1339,11.42774 C44.1339,10.6187862 44.8349,9.95998615 45.6969,9.95998615 C46.5589,9.95998615 47.2599,10.6187862 47.2599,11.42774 C47.2599,12.2357554 46.5589,12.8945554 45.6969,12.8945554" id="Fill-21" fill="#4A494A"/>
            </g>
        </g>
    </g>
</svg>