<svg xmlns="http://www.w3.org/2000/svg" xmlns:xlink="http://www.w3.org/1999/xlink" width="222px" height="222px" viewBox="0 0 222 222" version="1.1">
    <title>AFC3F043-4B2B-431B-B371-7C8ED1B0D1DF@1,5x</title>
    <defs>
        <filter id="filter-1">
            <feColorMatrix in="SourceGraphic" type="matrix" values="0 0 0 0 0.345098 0 0 0 0 0.345098 0 0 0 0 0.341176 0 0 0 1.000000 0"/>
        </filter>
    </defs>
    <g id="Suivi-Commande" stroke="none" stroke-width="1" fill="none" fill-rule="evenodd">
        <g id="02_00_NADA--Suivi_commandes" transform="translate(-758.000000, -216.000000)">
            <g id="Group" transform="translate(701.000000, 217.000000)">
                <g id="LIVRABLE2" transform="translate(58.000000, 0.000000)">
                    <path d="M96.4845588,95.6676471 C91.9066176,101.968382 65.3650735,110.667279 65.3650735,110.667279 C65.3650735,110.667279 47.1139706,89.7106618 56.3305147,72.8952206 C65.5470588,56.0797794 74.3268382,33.1981618 104.900368,51.1783088 C135.473897,69.1584559 140.055882,67.9897059 144.379044,64.4875 C148.702206,60.9852941 144.213235,103.747794 137.504044,108.123529 L130.802941,112.499265 L130.802941,89.99375 C130.802941,89.99375 126.698162,82.3665441 106.315809,84.3319853" id="Path" stroke="#585857" stroke-width="0.5" stroke-linecap="round" stroke-linejoin="round"/>
                    <path d="M68.2323529,210.771324 C64.5914196,209.266653 61.0353879,207.56424 57.5801471,205.671691 L57.5397059,206.375368 C61.0147574,208.264672 64.5896027,209.964344 68.2485294,211.466912 C68.2485294,211.26875 68.2485294,211.0625 68.2485294,210.872426 L68.2323529,210.771324 Z" id="Path" stroke="#585857" stroke-width="0.834100751"/>
                    <path d="M219.506618,104.932721 C216.764706,44.4852941 165.327574,-2.46286765 104.872059,0.291176471 C44.4165441,3.04522059 -2.52352941,54.4742647 0.230514706,114.929779 C2.03211175,152.860216 23.2614094,187.182035 56.3952206,205.732353 C56.6378676,205.635294 56.8764706,205.526103 57.1150735,205.408824 C23.942819,187.029107 2.65748535,152.778834 0.865441176,114.897426 C-1.87242647,54.79375 44.7966912,3.66801471 104.904412,0.926102941 C165.012132,-1.81580882 216.117647,44.8573529 218.871691,104.961029 C221.395221,160.333088 181.985294,208.086029 128.764706,217.3875 C128.655515,217.626103 128.542279,217.860662 128.420956,218.091176 C182.179412,208.93125 222.054412,160.786029 219.506618,104.932721 Z" id="Path" stroke="#585857" stroke-width="0.834100751"/>
                    <path d="M80.3202206,156.648897 L42.9161765,142.090074 L55.1051471,130.455147 C56.9761078,128.669891 57.8044896,126.052021 57.3011029,123.515441 L58.5871324,124.983456 L66.3235294,116.567647 L56.5084559,105.648529 L47.8863971,112.737868 L48.2301471,113.142279 C45.4380228,111.931676 42.1923396,112.51166 39.9922794,114.614338 L16.7669118,136.739706 C14.6792819,138.028175 13.0701987,139.963904 12.1849265,142.251838 L11.9867647,142.757353 C10.3038228,147.080301 12.4439664,151.949037 16.7669118,153.631985 L72.9801471,175.522794 C75.002429,176.311167 77.2551102,176.263616 79.2423226,175.390608 C81.2295351,174.5176 82.7883858,172.890695 83.5757353,170.868015 L84.9871324,167.252574 C85.7751356,165.227622 85.7260861,162.972514 84.8507828,160.98374 C83.9754796,158.994966 82.3456857,157.435579 80.3202206,156.648897 Z" id="Path" stroke="#585857" stroke-width="1.32885797" stroke-linecap="round" stroke-linejoin="round"/>
                    <path d="M195.177206,141.544118 L195.177206,141.544118 C195.312433,139.623978 194.512769,137.756589 193.029779,136.529412 L163.976838,112.487132 C162.514225,111.275093 160.559938,110.83613 158.719485,111.30625 L151.076103,105.790074 L141.139706,117.069118 L147.954044,123.616544 C147.528384,125.768195 148.315373,127.980149 150.004412,129.379412 L163.891912,140.872794 L123.212132,155.629779 C119.390441,157.016912 117.2875,160.887132 118.516912,164.276103 L120.971691,171.066176 C122.184926,174.455147 126.297794,176.076838 130.119485,174.705882 L184.193382,155.083824 C188.015074,153.676471 196.406618,144.941176 195.177206,141.544118 Z" id="Path" stroke="#585857" stroke-width="1.32885797" stroke-linecap="round" stroke-linejoin="round"/>
                    <path d="M114.836765,218.932353 C119.507322,218.721126 124.159521,218.210518 128.764706,217.403676 C129.706642,215.355233 130.193667,213.127057 130.192279,210.872426 L130.192279,175.729044 L135.073529,174.301471 C137.672546,173.53441 139.158604,170.806653 138.39375,168.206985 L133.682353,152.244853 C133.314916,150.996085 132.466217,149.944558 131.323139,149.32182 C130.180061,148.699082 128.836341,148.556198 127.587868,148.924632 L120.223529,151.100368 C118.402188,150.391026 116.463778,150.030232 114.509191,150.036765 L83.9154412,150.036765 C81.3566741,150.03344 78.8362185,150.658347 76.5753676,151.856618 L69.4011029,148.985294 C68.1929142,148.500345 66.8415054,148.515552 65.6445346,149.027564 C64.4475639,149.539576 63.503214,150.506396 63.0194853,151.715074 L56.8319853,167.159559 C56.3459151,168.367653 56.360568,169.719514 56.8727101,170.916788 C57.3848522,172.114062 58.352381,173.058324 59.5617647,173.541176 L67.0676471,176.55 C67.4419482,176.698565 67.8331318,176.800436 68.2323529,176.853309 L68.2323529,210.7875 C71.3786765,212.089706 74.59375,213.258456 77.8735294,214.265441 C89.5949857,217.863466 101.84131,219.449636 114.092647,218.956618 C114.343382,218.956618 114.590074,218.956618 114.836765,218.932353 Z" id="Path" stroke="#585857" stroke-width="1.21323529" fill="#EDEDEC" fill-rule="nonzero" stroke-linecap="round" stroke-linejoin="round"/>
                    <path d="M106.801103,148.095588 L106.801103,137.346324 C106.457353,133.662132 103.302941,130.940441 99.7602941,131.280147 L99.4286765,131.308456 C95.8819853,131.636029 93.2897059,134.891544 93.6375,138.587868 L93.6375,149.337132 C93.9852941,153.021324 97.1356618,155.738971 100.678309,155.403309 L101.009926,155.375 C104.552574,155.043382 107.144853,151.791912 106.801103,148.095588" id="Path" stroke="#585857" stroke-width="1.32885797" fill="#FFFFFF" fill-rule="nonzero"/>
                    <path d="M139.962868,104.463603 L139.069118,103.557721 C137.390398,101.864181 134.656848,101.851509 132.9625,103.529412 L130.859559,105.612132 L130.960662,82.2654412 C119.386397,54.2922794 101.373897,68.7661765 91.85,69.5830882 C82.3261029,70.4 89.9613971,62.1619954 89.9613971,62.1619954 C76.6805147,62.1055147 71.0794118,79.6125 71.0227941,92.8974265 L70.9297794,105.883088 L68.5033088,103.456618 C66.6178094,101.564485 63.5576991,101.551833 61.6566176,103.428309 L61.3169118,103.768015 C59.4236542,105.652398 59.4091941,108.712514 61.2845588,110.614706 L67.65,117.032721 C68.2836348,117.66769 69.0820006,118.113094 69.9551471,118.31875 C71.3288236,130.435092 81.552846,139.605952 93.7466912,139.659559 L106.655515,139.716397 C119.666937,139.771386 130.362022,129.466972 130.790809,116.4625 C132.300665,116.923469 133.94171,116.519806 135.065441,115.411029 L139.918382,110.586397 C140.731874,109.780912 141.19158,108.684937 141.196166,107.540143 C141.200683,106.395348 140.749708,105.295753 139.942647,104.483824" id="Path" stroke="#585857" stroke-width="1.32885797" fill="#FFFFFF" fill-rule="nonzero"/>
                    <path d="M159.338235,78.7875 C159.442319,77.2925563 160.738501,76.1649884 162.233457,76.2689045 C163.728412,76.3728206 164.856125,77.6688763 164.752377,79.1638433 C164.648628,80.6588103 163.352699,81.786669 161.857721,81.6830882 C161.139592,81.6333321 160.470659,81.3002769 159.998139,80.7572208 C159.52562,80.2141646 159.288238,79.505612 159.338235,78.7875" id="Path" fill="#F29008" fill-rule="nonzero"/>
                    <path d="M173.290441,57.5113971 L171.984191,57.4305147 L171.903309,58.7367647 C171.883088,59.0279412 171.616176,59.2058824 171.223897,59.1816176 C170.831618,59.1573529 170.580882,58.9470588 170.597059,58.6518382 L170.681985,57.3455882 L169.387868,57.2647059 C169.079051,57.1905068 168.879746,56.8906677 168.930882,56.5772059 C168.955147,56.1727941 169.213971,55.9463235 169.46875,55.9625 L170.762868,56.0433824 L170.84375,54.7492647 C170.917908,54.4373402 171.218053,54.2337331 171.535294,54.2801471 C171.857789,54.2640891 172.132585,54.5117665 172.15,54.8341912 L172.069118,56.1242647 L173.371324,56.2091912 C173.666544,56.2091912 173.844485,56.4922794 173.820221,56.8845588 C173.795956,57.2768382 173.581618,57.5316176 173.290441,57.5113971" id="Path" fill="#F29008" fill-rule="nonzero"/>
                    <path d="M153.199265,24.7297794 L151.897059,24.6691176 L151.812132,25.9713235 C151.812132,26.2665441 151.525,26.4444853 151.136765,26.4202206 C150.748529,26.3959559 150.489706,26.1816176 150.509926,25.8904412 L150.590809,24.5841912 L149.296691,24.5033088 C148.971554,24.4343541 148.76127,24.1180299 148.823529,23.7915441 C148.847794,23.3871324 149.106618,23.1606618 149.365441,23.1768382 L150.659559,23.2577206 L150.740441,21.9676471 C150.814535,21.6552525 151.113968,21.4503769 151.431985,21.4944853 C151.588653,21.4845289 151.742836,21.5373719 151.860459,21.6413359 C151.978083,21.7453 152.049463,21.8918252 152.058824,22.0485294 L151.977941,23.3426471 L153.284191,23.4235294 C153.575368,23.4235294 153.757353,23.7106618 153.729044,24.1029412 C153.700735,24.4952206 153.494485,24.7459559 153.199265,24.7297794" id="Path" fill="#F29008" fill-rule="nonzero"/>
                    <path d="M147.869118,51.9547794 L146.562868,51.8738971 L146.481985,53.1801471 C146.481985,53.4713235 146.194853,53.6492647 145.802574,53.625 C145.410294,53.6007353 145.155515,53.3904412 145.175735,53.0952206 L145.256618,51.7889706 L143.966544,51.7080882 C143.657296,51.6339276 143.456731,51.3348408 143.505515,51.0205882 C143.529779,50.6161765 143.792647,50.3856618 144.047426,50.4058824 L145.341544,50.4867647 L145.422426,49.1926471 C145.496584,48.8807226 145.796729,48.6771155 146.113971,48.7235294 C146.435667,48.7097026 146.709125,48.9561739 146.728676,49.2775735 L146.647794,50.5676471 L147.95,50.6525735 C148.245221,50.6525735 148.423162,50.9397059 148.398897,51.3279412 C148.374632,51.7161765 148.160294,51.975 147.869118,51.9547794" id="Path" fill="#F29008" fill-rule="nonzero"/>
                    <path d="M130.038603,33.8209559 C130.142687,32.3260122 131.438869,31.1984443 132.933824,31.3023604 C134.42878,31.4062765 135.556493,32.7023322 135.452745,34.1972992 C135.348996,35.6922662 134.053067,36.8201249 132.558088,36.7165441 C131.063711,36.6107713 129.936773,35.3156066 130.038603,33.8209559" id="Path" fill="#F29008" fill-rule="nonzero"/>
                    <path d="M180.533456,86.83125 L179.227206,86.7463235 L179.142279,88.0525735 C179.142279,88.34375 178.859191,88.5216912 178.466912,88.4974265 C178.074632,88.4731618 177.819853,88.2628676 177.840074,87.9676471 L177.920956,86.6654412 L176.626838,86.5805147 C176.318022,86.5063156 176.118717,86.2064766 176.169853,85.8930147 C176.194118,85.4886029 176.456985,85.2621324 176.711765,85.2783088 L178.005882,85.3591912 L178.086765,84.0691176 C178.159163,83.7555624 178.459824,83.5498468 178.778309,83.5959559 C179.099219,83.5843038 179.371381,83.8296076 179.393015,84.15 L179.308088,85.4400735 L180.614338,85.525 C180.905515,85.525 181.0875,85.8121324 181.059191,86.2003676 C181.030882,86.5886029 180.824632,86.8474265 180.533456,86.83125" id="Path" fill="#F29008" fill-rule="nonzero"/>
                    <path d="M168.045221,96.3106618 C166.983608,96.5905547 165.857943,96.2031774 165.193394,95.3292576 C164.528846,94.4553379 164.45637,93.2670907 165.00978,92.3188832 C165.563191,91.3706757 166.633432,90.849362 167.721192,90.9981569 C168.808951,91.1469518 169.699875,91.9365337 169.978309,92.9985294 C170.358018,94.4468064 169.492975,95.928963 168.045221,96.3106618" id="Path" fill="#F29008" fill-rule="nonzero"/>
                    <path d="M186.882721,62.7970588 C186.945075,61.9264808 187.701012,61.2710652 188.571639,61.3327256 C189.442267,61.3943861 190.098285,62.1498005 190.037318,63.0204768 C189.976351,63.8911531 189.22146,64.5477727 188.350735,64.4875 C187.479126,64.424929 186.822518,63.6688347 186.882721,62.7970588" id="Path" fill="#F29008" fill-rule="nonzero"/>
                    <path d="M154.849265,66.9827206 L154.088971,66.9382353 L154.040441,67.6985294 C154.040441,67.8683824 153.874632,67.9735294 153.636029,67.9573529 C153.397426,67.9411765 153.259926,67.8198529 153.272059,67.65 L153.320588,66.8897059 L152.564338,66.8411765 C152.414706,66.8411765 152.285294,66.6511029 152.297426,66.4367647 C152.309559,66.2224265 152.463235,66.06875 152.612868,66.0808824 L153.369118,66.1253676 L153.413603,65.3731618 C153.457568,65.1910936 153.632533,65.0721174 153.818015,65.0981618 C154.005654,65.0911632 154.164971,65.2343696 154.177941,65.4216912 L154.129412,66.1738971 L154.889706,66.2224265 C155.059559,66.2224265 155.164706,66.3922794 155.148529,66.6268382 C155.132353,66.8613971 155.011029,67.0029412 154.841176,66.9908088" id="Path" fill="#F29008" fill-rule="nonzero"/>
                    <path d="M167.559926,36.7731618 L166.795588,36.7246324 L166.747059,37.4849265 C166.747059,37.6588235 166.58125,37.7599265 166.342647,37.7477941 C166.104044,37.7356618 165.966544,37.6102941 165.974632,37.4363971 L166.023162,36.6761029 L165.270956,36.6316176 C165.089782,36.5875496 164.973336,36.4111165 165.004044,36.2272059 C164.992485,36.0409549 165.133327,35.8802503 165.319485,35.8672794 L166.071691,35.9158088 L166.120221,35.1636029 C166.162487,34.9803659 166.338688,34.8605494 166.524632,34.8886029 C166.711515,34.8816862 166.869642,35.0254376 166.880515,35.2121324 L166.831985,35.9643382 L167.592279,36.0128676 C167.766176,36.0128676 167.871324,36.1786765 167.855147,36.4172794 C167.838971,36.6558824 167.717647,36.7974265 167.547794,36.7852941" id="Path" fill="#F29008" fill-rule="nonzero"/>
                    <path d="M164.445956,52.6544118 L163.685662,52.6058824 L163.637132,53.3661765 C163.637132,53.5360294 163.471324,53.6411765 163.232721,53.6290441 C162.994118,53.6169118 162.856618,53.4875 162.864706,53.3176471 L162.913235,52.5573529 L162.161029,52.5088235 C161.978618,52.4665237 161.861297,52.2887643 161.894118,52.1044118 C161.894118,51.8738971 162.055882,51.7363971 162.209559,51.7444853 L162.961765,51.7930147 L163.010294,51.0367647 C163.052561,50.8535277 163.228762,50.7337112 163.414706,50.7617647 C163.602345,50.7547661 163.761663,50.8979726 163.774632,51.0852941 L163.726103,51.8415441 L164.486397,51.8900735 C164.660294,51.8900735 164.761397,52.0558824 164.749265,52.2944853 C164.737132,52.5330882 164.611765,52.6705882 164.437868,52.6625" id="Path" fill="#F29008" fill-rule="nonzero"/>
                    <path d="M154.048529,42.0588235 C154.110884,41.1882455 154.866821,40.5328299 155.737448,40.5944903 C156.608076,40.6561508 157.264093,41.4115652 157.203127,42.2822415 C157.14216,43.1529178 156.387269,43.8095374 155.516544,43.7492647 C154.644935,43.6866937 153.988327,42.9305995 154.048529,42.0588235" id="Path" fill="#F29008" fill-rule="nonzero"/>
                    <path d="M183.497794,72.9922794 L182.7375,72.94375 L182.688971,73.7080882 C182.688971,73.8779412 182.523162,73.9830882 182.284559,73.9669118 C182.045956,73.9507353 181.908456,73.8294118 181.920588,73.6595588 L181.969118,72.8952206 L181.212868,72.8507353 C181.032892,72.8049726 180.917277,72.6297983 180.945956,72.4463235 C180.945956,72.2198529 181.111765,72.0783088 181.261397,72.0904412 L182.017647,72.1349265 L182.066176,71.3827206 C182.108443,71.1994836 182.284644,71.079667 182.470588,71.1077206 C182.658228,71.100722 182.817545,71.2439285 182.830515,71.43125 L182.781985,72.1834559 L183.542279,72.2319853 C183.712132,72.2319853 183.817279,72.3977941 183.805147,72.6363971 C183.793015,72.875 183.663603,73.0125 183.49375,73.0003676" id="Path" fill="#F29008" fill-rule="nonzero"/>
                    <path d="M175.943382,72.6363971 C175.324619,72.798878 174.668917,72.5725117 174.282177,72.0629039 C173.895437,71.5532962 173.853868,70.8608661 174.176862,70.3086501 C174.499856,69.7564341 175.123767,69.4532474 175.757525,69.5405345 C176.391283,69.6278215 176.910004,70.0883821 177.071691,70.7073529 C177.292208,71.5515351 176.787281,72.4147978 175.943382,72.6363971" id="Path" fill="#F29008" fill-rule="nonzero"/>
                    <path d="M114.852941,218.932353 C114.60625,218.932353 114.359559,218.932353 114.108824,218.956618 C101.856568,219.444402 89.6102232,217.85276 77.8897059,214.249265 C74.6099265,213.242279 71.3948529,212.073529 68.2485294,210.771324 L68.2485294,210.872426 C68.2485294,211.070588 68.2485294,211.276838 68.2485294,211.466912 C71.3988971,212.761029 74.6180147,213.921691 77.9018382,214.924632 C89.6479463,218.509898 101.914488,220.089017 114.185662,219.595588 C114.416176,219.595588 114.638603,219.595588 114.865074,219.595588 C119.409534,219.387186 123.936783,218.898265 128.420956,218.131618 C128.542279,217.901103 128.655515,217.666544 128.764706,217.427941 C124.164333,218.225961 119.517563,218.72846 114.852941,218.932353 Z" id="Path" stroke="#585857" stroke-width="0.834100751"/>
                    <path d="M101.40625,128.566544 C101.40625,128.566544 110.558088,128.392647 112.54375,119.499632" id="Path" stroke="#585857" stroke-width="1.21323529" stroke-linecap="round" stroke-linejoin="round"/>
                    <path d="M96.8040441,95.9871324 C92.2261029,102.291912 65.6643382,110.986765 65.6643382,110.986765 C65.6643382,110.986765 47.4132353,90.0301471 56.6297794,73.2147059 C65.8463235,56.3992647 74.6261029,33.5176471 105.203676,51.4977941 C135.78125,69.4779412 140.355147,68.3091912 144.678309,64.8069853 C149.001471,61.3047794 144.5125,104.067279 137.803309,108.443015 L131.130515,112.830882 L131.130515,90.3172794" id="Path" stroke="#585857" stroke-width="1.32885797"/>
                    <path d="M123.992647,80.3323529 C123.992647,80.3323529 118.116544,73.3117647 109.947426,77.3477941" id="Path" stroke="#585857" stroke-width="1.21323529" stroke-linecap="round" stroke-linejoin="round"/>
                    <path d="M77.0930147,94.3088235 C77.0930147,94.3088235 86.0952206,95.9628676 89.8117647,87.6400735" id="Path" stroke="#585857" stroke-width="1.21323529" stroke-linecap="round" stroke-linejoin="round"/>
                    <path d="M96.3430147,112.535662 C96.3430147,112.535662 100.686397,116.515074 105.409926,109.704779" id="Path" stroke="#585857" stroke-width="1.21323529" stroke-linecap="round" stroke-linejoin="round"/>
                    <circle id="Oval" fill="#F9F9F9" fill-rule="nonzero" cx="80.8378676" cy="99.5014706" r="11.4650735"/>
                    <g id="Group" transform="translate(83.308824, 87.757353)" fill="#F29008" fill-rule="nonzero" stroke="#585857" stroke-width="0.808823529">
                        <path d="M2.36176471,0.861397059 C1.66200663,0.491874732 0.915017432,0.219747518 0.141544118,0.0525735294 L2.36176471,0.861397059 Z" id="Path"/>
                        <path d="M3.58713235,21.8058824 L0.505514706,23.2253676 C1.5784606,22.8585846 2.61104725,22.3829443 3.58713235,21.8058824 L3.58713235,21.8058824 Z" id="Path"/>
                        <path d="M36.8014706,0.744117647 L39.2036765,0.210294118 C38.3901145,0.324596331 37.5868724,0.503094571 36.8014706,0.744117647 L36.8014706,0.744117647 Z" id="Path"/>
                        <path d="M33.4327206,21.8584559 C34.0554037,22.3534778 34.7424446,22.7616209 35.475,23.0716912 L33.4327206,21.8584559 Z" id="Path"/>
                        <path d="M28.9720588,14.5022059 C27.6132353,8.46433824 30.6503676,5.11176471 30.6503676,5.11176471 C31.9121324,2.62058824 34.7308824,1.35477941 36.7893382,0.744117647 L24.8713235,3.37279412 L24.8713235,3.37279412 C20.9566176,1.12830882 20.0669118,1.50845588 17.4463235,1.41139706 C15.1330882,1.32647059 12.2738971,3.27169118 11.1536765,4.11286765 L11.0525735,4.01176471 L2.36176471,0.861397059 C6.22794118,2.88345588 8.02352941,7.26323529 8.02352941,7.26323529 C10.4216912,12.9492647 8.02352941,16.8113971 8.02352941,16.8113971 C7.33198529,19.1286765 5.33014706,20.7665441 3.575,21.8058824 L10.5147059,18.6029412 C10.8195649,18.364426 11.1086507,18.1064101 11.3801471,17.8305147 L11.4367647,17.7698529 C11.4772059,17.6970588 11.4772059,17.7698529 11.5257353,17.6808824 C11.7657661,17.4251918 11.9899579,17.1550812 12.1970588,16.8720588 C13.9481618,15.1573529 17.1794118,13.9077206 19.4400735,13.9077206 C22.1253676,13.9077206 25.4375,17.1106618 25.4375,17.1106618 L33.4286765,21.8301471 C29.9830882,19.1569853 28.9720588,14.5022059 28.9720588,14.5022059 Z" id="Path"/>
                    </g>
                    <path d="M85.7676471,88.6106618 C85.7676471,88.6106618 88.1294118,86.6128676 85.3955882,85.2459559 C85.3955882,85.2459559 75.83125,82.0794118 70.9904412,85.7433824 C66.1496324,89.4073529 63.3511029,94.9356618 60.9893382,100.213235 L54.7169118,106.611029 L64.5319853,117.530147 L69.2514706,113.991544 C69.2514706,113.991544 72.7900735,116.102574 79.2485294,115.419118 C79.2485294,115.419118 86.2650735,115.172426 87.8827206,112.685294 C89.5003676,110.198162 86.9485294,109.769485 86.9485294,109.769485 C86.9485294,109.769485 80.6154412,114.125 73.5341912,108.786765 C73.5341912,108.786765 67.3871324,104.625368 69.4900735,96.3672794 C71.5930147,88.1091912 79.3658088,87.9191176 79.3658088,87.9191176 C81.5243825,87.6370268 83.7191102,87.8741073 85.7676471,88.6106618 L85.7676471,88.6106618 Z" id="Path" stroke="#585857" stroke-width="1.21323529" fill="#FCFCFC" fill-rule="nonzero" stroke-linecap="round" stroke-linejoin="round"/>
                    <path d="M117.647426,89.2860294 C117.647426,89.2860294 115.15625,87.4014706 117.869853,85.9091912 C117.869853,85.9091912 127.434191,82.2977941 132.517647,85.73125 C137.601103,89.1647059 140.694853,94.5555147 143.335662,99.7198529 L149.996324,105.814338 L140.537132,117.194485 L135.583088,113.878309 C135.583088,113.878309 132.084926,116.151103 125.497059,115.770956 C125.497059,115.770956 118.363235,115.851838 116.6,113.445588 C114.836765,111.039338 117.408824,110.489338 117.408824,110.489338 C117.408824,110.489338 124.037132,114.533456 130.980882,108.871691 C130.980882,108.871691 137.047059,104.423162 134.507353,96.2742647 C131.967647,88.1253676 124.09375,88.2992647 124.09375,88.2992647 C121.897402,88.120294 119.689666,88.458241 117.647426,89.2860294 L117.647426,89.2860294 Z" id="Path" stroke="#585857" stroke-width="1.21323529" fill="#FCFCFC" fill-rule="nonzero" stroke-linecap="round" stroke-linejoin="round"/>
                    <circle id="Oval" fill="#FFFFFF" fill-rule="nonzero" cx="123.54375" cy="99.7158088" r="11"/>
                </g>
            </g>
        </g>
    </g>
</svg>