<svg xmlns="http://www.w3.org/2000/svg" xmlns:xlink="http://www.w3.org/1999/xlink" width="38px" height="26px" viewBox="0 0 38 26" version="1.1">
    <!-- Generator: sketchtool 60.1 (101010) - https://sketch.com -->
    <title>99CCB9BB-8695-4A9B-A958-CB22DA34004C@1,5x</title>
    <desc>Created with sketchtool.</desc>
    <defs>
        <polygon id="path-dj-1" points="0 0.00532527645 2.87024978 0.00532527645 2.87024978 2.80069306 0 2.80069306"/>
        <path d="M7.36699359,0.255918196 C7.4711334,0.151778387 7.63997739,0.151778387 7.7441172,0.255918196 C7.84825701,0.360058005 7.84825701,0.528901995 7.7441172,0.633041804 L7.7441172,0.633041804 L4.37677778,3.99981334 L7.7441172,7.36702915 C7.83090038,7.45381232 7.84536424,7.58552896 7.78750879,7.68728995 L7.7441172,7.74415276 C7.63997739,7.84829257 7.4711334,7.84829257 7.36699359,7.74415276 L7.36699359,7.74415276 L3.99977778,4.37681334 L0.633006248,7.74415276 C0.546223074,7.83093593 0.41450644,7.84539979 0.312745446,7.78754434 L0.25588264,7.74415276 C0.151742831,7.64001295 0.151742831,7.47116896 0.25588264,7.36702915 L0.25588264,7.36702915 L3.62277778,3.99981334 L0.25588264,0.633041804 C0.169099466,0.54625863 0.154635603,0.414541996 0.212491053,0.312781003 L0.25588264,0.255918196 C0.360022449,0.151778387 0.528866439,0.151778387 0.633006248,0.255918196 L0.633006248,0.255918196 L3.99977778,3.62281334 Z" id="path-dj-3"/>
    </defs>
    <g id="Financeur_Déjeuner_extranet-/-UI" stroke="none" stroke-width="1" fill="none" fill-rule="evenodd">
        <g id="03_04_02_UpDéjeuner" transform="translate(-653.000000, -500.000000)">
            <g id="group-dj-11" transform="translate(629.000000, 340.000000)">
                <g id="Formulaire/Elements-de-base/Tableau-2/Ligne-impaire-Copy-Formulaire/Elements-de-base/Tableau-3/Ligne-paire" transform="translate(0.000000, 148.000000)">
                    <g id="ajoutcarte" transform="translate(24.000000, 12.000000)">
                        <g id="Group">
                            <g id="Carte/Chèque-Déjeuner-4C-Copy-4" transform="translate(0.000000, 6.000000)">
                                <g id="group-dj-2">
                                    <g id="group-dj-8" fill="#4E5B59" fill-rule="nonzero">
                                        <g id="group-dj-7">
                                            <g id="group-dj-5">
                                                <rect id="Rectangle-3" x="0" y="0" width="29.7" height="19.2537313" rx="2.23880597"/>
                                            </g>
                                        </g>
                                    </g>
                                    <text id="Up" font-family="ITCKabelStd-Demi, ITC Kabel Std" font-size="10.0298507" font-weight="400" fill="#5A6967">
                                        <tspan x="8" y="13.3059701">Up</tspan>
                                    </text>
                                    <g id="group-dj-9" transform="translate(1.500000, 6.384328)" font-family="Roboto-Regular, Roboto" font-size="1.07462687" font-weight="normal">
                                        <g id="group-dj-10">
                                            <text id="Etablissement-Dupont"/>
                                        </g>
                                    </g>
                                </g>
                                <g id="group-dj-24" transform="translate(1.791045, 1.343284)">
                                    <g id="group-dj-3" transform="translate(0.000000, 0.014398)">
                                        <mask id="mask-dj-2" fill="white">
                                            <use xlink:href="#path-dj-1"/>
                                        </mask>
                                        <g id="Clip-2"/>
                                        <path d="M2.78375542,1.40274882 C2.78375542,1.28987268 2.8155706,1.18460972 2.87024978,1.09579594 L2.87024978,0.00531738715 L-2.02515474e-06,0.00531738715 L-2.02515474e-06,2.80069306 L2.87024978,2.80069306 L2.87024978,1.70964253 C2.8155706,1.62082875 2.78375542,1.51558551 2.78375542,1.40274882" id="Fill-1" fill="#F59100" mask="url(#mask-dj-2)"/>
                                    </g>
                                    <path d="M1.13959305,1.41389246 C1.13959305,1.55806938 1.10708931,1.66871679 0.941127883,1.66871679 C0.755218679,1.66871679 0.735372162,1.53864199 0.735372162,1.43322124 L0.735372162,0.607113073 L0.497213965,0.65819628 L0.497213965,1.46655352 C0.497213965,1.77413755 0.717348285,1.89188532 0.930192048,1.89188532 C1.20814454,1.89188532 1.37775124,1.71792629 1.37775124,1.49998442 L1.37775124,0.607113073 L1.13959305,0.65819628 L1.13959305,1.41389246 Z" id="Fill-4" fill="#FFFFFF"/>
                                    <path d="M1.97849922,0.943838192 C1.88250689,0.943838192 1.7950202,0.972042434 1.72089954,1.02233671 L1.72089954,0.890979892 L1.49104448,0.945021587 L1.49104448,2.18009126 L1.72029199,2.12890944 L1.72029199,1.81284442 C1.79421014,1.86264561 1.88301317,1.8917374 1.97849922,1.8917374 C2.23670645,1.8917374 2.44600619,1.67951527 2.44600619,1.4177878 C2.44600619,1.15606032 2.23670645,0.943838192 1.97849922,0.943838192 M1.96381685,1.68809488 C1.81041138,1.68809488 1.69862284,1.56324674 1.69862284,1.41739333 C1.69862284,1.27153993 1.81041138,1.14679039 1.96381685,1.14679039 C2.11722232,1.14679039 2.22911212,1.27153993 2.22911212,1.41739333 C2.22911212,1.56324674 2.11722232,1.68809488 1.96381685,1.68809488" id="Fill-6" fill="#FFFFFF"/>
                                    <path d="M4.32006616,0.828512427 L4.48969312,0.571853826 L4.76938724,0.571853826 L4.5005277,0.828512427 L4.32006616,0.828512427 Z M4.62867949,1.18706132 C4.58538168,1.1448733 4.5294064,1.12897636 4.46804421,1.12897636 C4.32367093,1.12897636 4.20817636,1.24329229 4.1955799,1.38034913 C4.1955799,1.39969763 4.1955799,1.41904614 4.19912392,1.44015001 L4.62867949,1.18706132 Z M4.8650758,1.77402512 C4.753186,1.84962433 4.61602227,1.89181235 4.48066093,1.89181235 C4.209999,1.89181235 3.9718003,1.68619751 3.9718003,1.41733022 C3.9718003,1.14834459 4.209999,0.942729746 4.48066093,0.942729746 C4.67017491,0.942729746 4.83619709,1.05347577 4.91742605,1.21863824 L4.28940531,1.59827128 C4.30740894,1.63515375 4.35793655,1.68793315 4.46804421,1.68793315 C4.58538168,1.68793315 4.67199755,1.64402921 4.76762535,1.58249268 L4.8650758,1.77402512 Z" id="Fill-8" fill="#FFFFFF"/>
                                    <path d="M5.29852777,0.731823158 L5.14334016,0.881187301 L4.9881323,0.731823158 L5.14334016,0.582459015 L5.29852777,0.731823158 Z M5.25342757,0.949765027 L5.25342757,1.89884763 C5.25342757,2.08866415 5.12890081,2.20818702 4.92494747,2.20818702 C4.89606877,2.20818702 4.86903295,2.20645138 4.84375902,2.20471573 L4.77334439,2.00959366 C4.79144927,2.0113293 4.8094529,2.01480059 4.84015424,2.01480059 C4.93938683,2.01480059 5.02422056,1.96740563 5.02422056,1.85839525 L5.02422056,0.970849178 L5.25342757,0.949765027 Z" id="Fill-10" fill="#FFFFFF"/>
                                    <path d="M6.0331405,1.1870554 C5.98982244,1.14486738 5.93386741,1.12899016 5.87250522,1.12899016 C5.72813194,1.12899016 5.61263737,1.2433061 5.60002065,1.38034321 C5.60002065,1.39969172 5.60002065,1.41905995 5.60358493,1.4401441 L6.0331405,1.1870554 Z M6.26953681,1.77403893 C6.15762676,1.84963813 6.02048328,1.89180643 5.88510169,1.89180643 C5.61446001,1.89180643 5.37624106,1.68621131 5.37624106,1.4173243 C5.37624106,1.14833867 5.61446001,0.942723829 5.88510169,0.942723829 C6.07463592,0.942723829 6.2406581,1.05348958 6.32188706,1.21865204 L5.69386632,1.59828508 C5.71186995,1.63516755 5.76239756,1.68794696 5.87250522,1.68794696 C5.98982244,1.68794696 6.07645856,1.64402329 6.17206611,1.58248676 L6.26953681,1.77403893 Z" id="Fill-12" fill="#FFFFFF"/>
                                    <path d="M7.25337521,1.86369489 L7.03682541,1.87775756 L7.03682541,1.76170598 L7.03326114,1.76170598 C6.95563696,1.86369489 6.87985567,1.89182024 6.75172413,1.89182024 C6.5622304,1.89182024 6.43590125,1.77403301 6.43590125,1.58421649 L6.43590125,0.970843261 L6.66510826,0.942737635 L6.66510826,1.52451423 C6.66510826,1.61936332 6.71020845,1.69853243 6.81304581,1.69853243 C6.95741909,1.69853243 7.02422895,1.59125769 7.02422895,1.47875629 L7.02422895,0.970843261 L7.25337521,0.942737635 L7.25337521,1.86369489 Z" id="Fill-14" fill="#FFFFFF"/>
                                    <path d="M7.43957401,0.97085115 L7.6561238,0.949767 L7.6561238,1.07274144 L7.65974883,1.07274144 C7.73731226,0.97085115 7.8131543,0.942725801 7.94126559,0.942725801 C8.13077957,0.942725801 8.25704797,1.06051303 8.25704797,1.25032955 L8.25704797,1.86370278 L8.02790171,1.87774573 L8.02790171,1.31003181 C8.02790171,1.21518272 7.98274076,1.13611223 7.8799034,1.13611223 C7.73553012,1.13611223 7.66878102,1.24328835 7.66878102,1.35578974 L7.66878102,1.86370278 L7.43957401,1.87774573 L7.43957401,0.97085115 Z" id="Fill-16" fill="#FFFFFF"/>
                                    <path d="M9.04427219,1.1870554 C9.00095413,1.14486738 8.94499911,1.12899016 8.88363692,1.12899016 C8.73926364,1.12899016 8.62376906,1.2433061 8.61115235,1.38034321 C8.61115235,1.39969172 8.61115235,1.41905995 8.61471662,1.4401441 L9.04427219,1.1870554 Z M9.2806685,1.77403893 C9.16875845,1.84963813 9.03161498,1.89180643 8.89623338,1.89180643 C8.6255917,1.89180643 8.38737275,1.68621131 8.38737275,1.4173243 C8.38737275,1.14833867 8.6255917,0.942723829 8.89623338,0.942723829 C9.08576761,0.942723829 9.2517898,1.05348958 9.33301875,1.21865204 L8.70499802,1.59828508 C8.72300165,1.63516755 8.77352926,1.68794696 8.88363692,1.68794696 C9.00095413,1.68794696 9.08759025,1.64402329 9.18319781,1.58248676 L9.2806685,1.77403893 Z" id="Fill-18" fill="#FFFFFF"/>
                                    <path d="M9.65092957,1.1114562 L9.6545951,1.1114562 C9.73400142,0.972584823 9.83683877,0.944459474 9.99563116,0.942723829 L9.91624509,1.18003393 C9.74121097,1.18003393 9.66358679,1.28018857 9.66358679,1.43483854 L9.66358679,1.86370081 L9.43437977,1.87776348 L9.43437977,0.970849178 L9.65092957,0.949765027 L9.65092957,1.1114562 Z" id="Fill-20" fill="#FFFFFF"/>
                                    <path d="M3.36681772,1.6879371 C3.52024345,1.6879371 3.63213324,1.5631284 3.63213324,1.41731444 C3.63213324,1.27142159 3.52024345,1.14661289 3.36681772,1.14661289 C3.21345275,1.14661289 3.10156296,1.27142159 3.10156296,1.41731444 C3.10156296,1.5631284 3.21345275,1.6879371 3.36681772,1.6879371 L3.36681772,1.6879371 Z M3.62312131,1.76700759 C3.527453,1.86012104 3.46430867,1.89181629 3.33793902,1.89181629 C3.07628902,1.89181629 2.88499291,1.6651173 2.88499291,1.41731444 C2.88499291,1.16943268 3.07628902,0.94273369 3.33793902,0.94273369 C3.43000255,0.94273369 3.52563036,0.969123394 3.61046409,1.0376814 L3.61046409,0.658048356 L3.83969135,0.629923007 L3.83969135,1.86369094 L3.62312131,1.88477509 L3.62312131,1.76700759 Z" id="Fill-22" fill="#FFFFFF"/>
                                </g>
                            </g>
                            <circle id="Oval" fill="#6DBD8E" cx="30" cy="8" r="8"/>
                            <g id="Icone/Foncé/croix" transform="translate(30.000000, 8.000000) rotate(45.000000) translate(-30.000000, -8.000000) translate(26.000000, 4.000000)">
                                <mask id="mask-dj-4" fill="white">
                                    <use xlink:href="#path-dj-3"/>
                                </mask>
                                <g id="Combined-Shape" fill-rule="nonzero"/>
                                <g id="🎨-color-couleur/blanc" mask="url(#mask-dj-4)" fill="#FFFFFF" fill-rule="nonzero">
                                    <polygon id="Rectangle" points="0 0 8 0 8 8 0 8"/>
                                </g>
                            </g>
                        </g>
                    </g>
                </g>
            </g>
        </g>
    </g>
</svg>