<svg xmlns="http://www.w3.org/2000/svg" xmlns:xlink="http://www.w3.org/1999/xlink" width="68px" height="53px" viewBox="0 0 68 53" version="1.1">
    <!-- Generator: sketchtool 60.1 (101010) - https://sketch.com -->
    <title>A5B32F89-C9F2-4C85-B65F-89DE34F6A165@1,5x</title>
    <desc>Created with sketchtool.</desc>
    <defs>
        <polygon id="path-1" points="0 0.00743319838 3.90187579 0.00743319838 3.90187579 3.90930073 0 3.90930073"/>
        <polygon id="path-3" points="0.332166667 0.253333333 19.8205 0.253333333 19.8205 19.742 0.332166667 19.742"/>
        <polygon id="path-5" points="0 0 8 0 8 4 0 4"/>
    </defs>
    <g id="Financeur_Déjeuner_extranet-/-UI" stroke="none" stroke-width="1" fill="none" fill-rule="evenodd">
        <g id="03_05_UpDéjeuner" transform="translate(-757.000000, -505.000000)">
            <g id="Group-12" transform="translate(662.000000, 368.000000)">
                <g id="texte">
                    <g id="Group-4">
                        <g id="Group-11" transform="translate(95.000000, 137.000000)">
                            <g id="Carte/Chèque-Déjeuner-4C-Copy-2" transform="translate(0.000000, 29.000000)">
                                <g id="Group-2">
                                    <g id="Group-8" fill="#4E5B59" fill-rule="nonzero">
                                        <g id="Group-7">
                                            <g id="Group-5">
                                                <rect id="Rectangle-3" x="0" y="0" width="39.6" height="24" rx="2.4"/>
                                            </g>
                                        </g>
                                    </g>
                                    <text id="Up" font-family="ITCKabelStd-Demi, ITC Kabel Std" font-size="14.4" font-weight="400" fill="#5A6967">
                                        <tspan x="11" y="17">Up</tspan>
                                    </text>
                                    <g id="Group-9" transform="translate(2.000000, 7.400000)" font-family="Roboto-Regular, Roboto" font-size="2.4" font-weight="normal">
                                        <g id="Group-10">
                                            <text id="Etablissement-Dupont"/>
                                        </g>
                                    </g>
                                </g>
                                <g id="Group-24" transform="translate(2.200000, 1.200000)">
                                    <g id="Group-3" transform="translate(0.000000, 0.020097)">
                                        <mask id="mask-2" fill="white">
                                            <use xlink:href="#path-1"/>
                                        </mask>
                                        <g id="Clip-2"/>
                                        <path d="M3.7842936,1.95800356 C3.7842936,1.80044729 3.82754381,1.65351773 3.90187579,1.5295485 L3.90187579,0.00742218623 L-2.75303644e-06,0.00742218623 L-2.75303644e-06,3.90930073 L3.90187579,3.90930073 L3.90187579,2.38637603 C3.82754381,2.2624068 3.7842936,2.11550478 3.7842936,1.95800356" id="Fill-1" fill="#F59100" mask="url(#mask-2)"/>
                                    </g>
                                    <path d="M1.54918591,1.97355822 C1.54918591,2.17480518 1.50499968,2.32925053 1.27938834,2.32925053 C1.0266596,2.32925053 0.999679838,2.14768777 0.999679838,2.00053798 L0.999679838,0.847428664 L0.675922753,0.918732308 L0.675922753,2.04706429 C0.675922753,2.47640032 0.975177814,2.6407566 1.26452194,2.6407566 C1.64237619,2.6407566 1.872943,2.39793879 1.872943,2.09372826 L1.872943,0.847428664 L1.54918591,0.918732308 L1.54918591,1.97355822 Z" id="Fill-4" fill="#FFFFFF"/>
                                    <path d="M2.68961198,1.31744081 C2.55911806,1.31744081 2.44018688,1.35680923 2.33942575,1.42701166 L2.33942575,1.24365943 L2.02695611,1.31909263 L2.02695611,3.04304405 L2.33859984,2.97160275 L2.33859984,2.53042866 C2.43908567,2.59994283 2.55980632,2.64055012 2.68961198,2.64055012 C3.04062413,2.64055012 3.32515045,2.3443234 3.32515045,1.97899547 C3.32515045,1.61366753 3.04062413,1.31744081 2.68961198,1.31744081 M2.66965247,2.35629911 C2.46110996,2.35629911 2.30914235,2.1820319 2.30914235,1.97844486 C2.30914235,1.77485781 2.46110996,1.60072826 2.66965247,1.60072826 C2.87819498,1.60072826 3.03030024,1.77485781 3.03030024,1.97844486 C3.03030024,2.1820319 2.87819498,2.35629911 2.66965247,2.35629911" id="Fill-6" fill="#FFFFFF"/>
                                    <path d="M5.87278559,1.15646526 L6.10337992,0.798212632 L6.48360178,0.798212632 L6.11810866,1.15646526 L5.87278559,1.15646526 Z M6.29232081,1.65693976 C6.23346089,1.59805231 6.15736696,1.57586283 6.07394996,1.57586283 C5.87768599,1.57586283 5.72068032,1.73542883 5.70355644,1.92673733 C5.70355644,1.95374462 5.70355644,1.9807519 5.70837425,2.01020939 L6.29232081,1.65693976 Z M6.61368275,2.4762434 C6.46157749,2.58176729 6.27511433,2.64065474 6.09110138,2.64065474 C5.72315806,2.64065474 5.39934591,2.35365069 5.39934591,1.97835676 C5.39934591,1.60289765 5.72315806,1.3158936 6.09110138,1.3158936 C6.34873053,1.3158936 6.57442445,1.4704766 6.68484874,1.70101587 L5.83110462,2.23092032 C5.85557911,2.28240211 5.92426737,2.35607336 6.07394996,2.35607336 C6.23346089,2.35607336 6.35120826,2.29479077 6.48120664,2.20889603 L6.61368275,2.4762434 Z" id="Fill-8" fill="#FFFFFF"/>
                                    <path d="M7.20292615,1.02150316 L6.99196097,1.22999061 L6.78096826,1.02150316 L6.99196097,0.813015709 L7.20292615,1.02150316 Z M7.14161603,1.32571368 L7.14161603,2.65047482 C7.14161603,2.91542704 6.97233182,3.08226105 6.69507352,3.08226105 C6.65581522,3.08226105 6.61906219,3.07983838 6.58470429,3.07741571 L6.48898121,2.80505781 C6.51359336,2.80748049 6.53806785,2.81232583 6.57980389,2.81232583 C6.71470267,2.81232583 6.83002737,2.74617036 6.83002737,2.59401004 L6.83002737,1.35514364 L7.14161603,1.32571368 Z" id="Fill-10" fill="#FFFFFF"/>
                                    <path d="M8.2015736,1.6569315 C8.14268615,1.59804405 8.06661976,1.57588211 7.98320275,1.57588211 C7.78693879,1.57588211 7.62993312,1.7354481 7.6127817,1.92672907 C7.6127817,1.95373636 7.6127817,1.98077117 7.61762704,2.01020113 L8.2015736,1.6569315 Z M8.52293555,2.47626267 C8.37080275,2.58178656 8.18436713,2.64064648 8.00032664,2.64064648 C7.63241085,2.64064648 7.30857117,2.35366996 7.30857117,1.9783485 C7.30857117,1.60288939 7.63241085,1.31588534 8.00032664,1.31588534 C8.25798332,1.31588534 8.48367725,1.47049587 8.59410154,1.70103514 L7.74035741,2.2309396 C7.7648319,2.28242138 7.83352016,2.35609263 7.98320275,2.35609263 C8.14268615,2.35609263 8.26046105,2.29478251 8.3904319,2.20888777 L8.52293555,2.47626267 Z" id="Fill-12" fill="#FFFFFF"/>
                                    <path d="M9.86038543,2.60140745 L9.56600324,2.6210366 L9.56600324,2.45904794 L9.56115789,2.45904794 C9.45563401,2.60140745 9.35261538,2.64066575 9.17843077,2.64066575 C8.92082915,2.64066575 8.74909474,2.47625441 8.74909474,2.21130219 L8.74909474,1.35513538 L9.0606834,1.31590462 L9.0606834,2.12796777 C9.0606834,2.2603613 9.12199352,2.37086818 9.26179271,2.37086818 C9.45805668,2.37086818 9.54887935,2.22113053 9.54887935,2.06409733 L9.54887935,1.35513538 L9.86038543,1.31590462 L9.86038543,2.60140745 Z" id="Fill-14" fill="#FFFFFF"/>
                                    <path d="M10.1135079,1.3551464 L10.40789,1.32571644 L10.40789,1.49736826 L10.412818,1.49736826 C10.5182593,1.3551464 10.6213605,1.3158881 10.7955176,1.3158881 C11.0531467,1.3158881 11.2247985,1.48029943 11.2247985,1.74525166 L11.2247985,2.60141846 L10.9132925,2.62102008 L10.9132925,1.82858607 C10.9132925,1.69619255 10.8518998,1.58582332 10.7121006,1.58582332 C10.5158366,1.58582332 10.4250965,1.73542332 10.4250965,1.89245652 L10.4250965,2.60141846 L10.1135079,2.62102008 L10.1135079,1.3551464 Z" id="Fill-16" fill="#FFFFFF"/>
                                    <path d="M12.2949671,1.6569315 C12.2360797,1.59804405 12.1600133,1.57588211 12.0765963,1.57588211 C11.8803323,1.57588211 11.7233266,1.7354481 11.7061752,1.92672907 C11.7061752,1.95373636 11.7061752,1.98077117 11.7110206,2.01020113 L12.2949671,1.6569315 Z M12.6163291,2.47626267 C12.4641963,2.58178656 12.2777606,2.64064648 12.0937202,2.64064648 C11.7258044,2.64064648 11.4019647,2.35366996 11.4019647,1.9783485 C11.4019647,1.60288939 11.7258044,1.31588534 12.0937202,1.31588534 C12.3513768,1.31588534 12.5770708,1.47049587 12.6874951,1.70103514 L11.8337509,2.2309396 C11.8582254,2.28242138 11.9269137,2.35609263 12.0765963,2.35609263 C12.2360797,2.35609263 12.3538546,2.29478251 12.4838254,2.20888777 L12.6163291,2.47626267 Z" id="Fill-18" fill="#FFFFFF"/>
                                    <path d="M13.1196695,1.55140761 L13.1246525,1.55140761 C13.232599,1.35756632 13.3723982,1.31830802 13.5882638,1.31588534 L13.4803448,1.64713069 C13.2423998,1.64713069 13.136876,1.78692988 13.136876,2.00279547 L13.136876,2.60141571 L12.8252873,2.62104486 L12.8252873,1.35514364 L13.1196695,1.32571368 L13.1196695,1.55140761 Z" id="Fill-20" fill="#FFFFFF"/>
                                    <path d="M4.57692032,2.35607887 C4.78549036,2.35607887 4.93759563,2.18186672 4.93759563,1.97833474 C4.93759563,1.77469263 4.78549036,1.60048049 4.57692032,1.60048049 C4.36843287,1.60048049 4.21632761,1.77469263 4.21632761,1.97833474 C4.21632761,2.18186672 4.36843287,2.35607887 4.57692032,2.35607887 L4.57692032,2.35607887 Z M4.92534462,2.4664481 C4.79529117,2.59641895 4.7094515,2.64066024 4.53766202,2.64066024 C4.18196972,2.64066024 3.92191789,2.32422623 3.92191789,1.97833474 C3.92191789,1.63233312 4.18196972,1.31589911 4.53766202,1.31589911 C4.66281506,1.31589911 4.79281344,1.35273474 4.90813814,1.44843028 L4.90813814,0.91852583 L5.21975433,0.87926753 L5.21975433,2.60140194 L4.92534462,2.6308319 L4.92534462,2.4664481 Z" id="Fill-22" fill="#FFFFFF"/>
                                </g>
                            </g>
                            <g id="Group-28" transform="translate(16.000000, 0.000000)">
                                <g id="Group-8" transform="translate(32.000000, 0.000000)">
                                    <mask id="mask-4" fill="white">
                                        <use xlink:href="#path-3"/>
                                    </mask>
                                    <g id="Clip-7"/>
                                    <path d="M19.8205,9.997 C19.8205,15.3786667 15.4571667,19.742 10.0755,19.742 C4.69383333,19.742 0.332166667,15.3786667 0.332166667,9.997 C0.332166667,4.61533333 4.69383333,0.252 10.0755,0.252 C15.4571667,0.252 19.8205,4.61533333 19.8205,9.997" id="Fill-6" fill="#F59100" mask="url(#mask-4)"/>
                                </g>
                                <path d="M42.8818605,4 C41.3146047,4 40.0571163,4.40427126 39.1077209,5.21281379 C38.16,6.02297989 37.635907,7.15786187 37.5337674,8.62070688 L36,8.62070688 L36,9.94230049 L37.5153488,9.94230049 L37.5153488,11.0203572 L36,11.0203572 L36,12.345198 L37.5153488,12.345198 C37.563907,13.8047958 38.0461395,14.9461721 38.9653953,15.7677033 C39.8829767,16.5892344 41.1287442,17 42.7026977,17 C43.4913488,17 44.2582326,16.9155739 45,16.7467216 L44.6768372,14.6409392 C44.1694884,14.8211565 43.600186,14.9104534 42.9722791,14.9104534 C42.0446512,14.9104534 41.3614884,14.6961409 40.9211163,14.2658923 C40.4807442,13.838891 40.2463256,13.1959535 40.216186,12.345198 L43.2234419,12.345198 L43.2234419,11.0203572 L40.216186,11.0203572 L40.216186,9.94230049 L43.2234419,9.94230049 L43.2234419,8.62070688 L40.2346047,8.62070688 C40.3970233,6.94192581 41.3229767,6.10578244 43.015814,6.10578244 C43.56,6.10578244 44.1142326,6.19832646 44.6768372,6.38341451 L45,4.26951418 C44.2163721,4.08929687 43.5097674,4 42.8818605,4" id="Fill-9" fill="#FFFFFF"/>
                                <path d="M4,27 L4,12.6036922 C4,7.85244576 8.09237218,4 13.1415525,4 L26,4" id="Stroke-11" stroke="#4A494A" stroke-width="0.529"/>
                                <g id="Group-15" transform="translate(0.000000, 24.000000)">
                                    <mask id="mask-6" fill="white">
                                        <use xlink:href="#path-5"/>
                                    </mask>
                                    <g id="Clip-14"/>
                                    <polygon id="Fill-13" fill="#4A494A" mask="url(#mask-6)" points="8 0.537202381 7.28449272 0 4.00092443 2.84375 0.717356136 0 0 0.537202381 4.00092443 4"/>
                                </g>
                                <path d="M48,29 L48,37.8239508 C48,42.8905317 43.931989,47 38.9112285,47 L26,47" id="Stroke-16" stroke="#4A494A" stroke-width="0.529"/>
                                <polygon id="Fill-18" fill="#4A494A" points="44 31.4640863 44.7173561 32 47.9990756 29.1551917 51.2826439 32 52 31.4640863 47.9990756 28"/>
                            </g>
                        </g>
                    </g>
                </g>
            </g>
        </g>
    </g>
</svg>