<svg xmlns="http://www.w3.org/2000/svg" xmlns:xlink="http://www.w3.org/1999/xlink" width="67px" height="43px" viewBox="0 0 67 43" version="1.1">
    <!-- Generator: sketchtool 60.1 (101010) - https://sketch.com -->
    <title>874AC5DE-0819-4022-9FEF-13EE21879109@1,5x</title>
    <desc>Created with sketchtool.</desc>
    <defs>
        <polygon id="path-1" points="0 0.0118931174 6.41022451 0.0118931174 6.41022451 6.25488117 0 6.25488117"/>
    </defs>
    <g id="Financeur_Déjeuner_extranet-/-UI" stroke="none" stroke-width="1" fill="none" fill-rule="evenodd">
        <g id="03_05_UpDéjeuner" transform="translate(-758.000000, -370.000000)">
            <g id="Carte/Chèque-Déjeuner-4C-Copy-2" transform="translate(758.000000, 370.000000)">
                <g id="Group-2">
                    <g id="Group-8" fill="#4E5B59" fill-rule="nonzero">
                        <g id="Group-7">
                            <g id="Group-5">
                                <rect id="Rectangle-3" x="0" y="0" width="66.33" height="43" rx="5"/>
                            </g>
                        </g>
                    </g>
                    <text id="Up" font-family="ITCKabelStd-Demi, ITC Kabel Std, Roboto-Regular, Roboto" font-size="22.4" font-weight="400" fill="#5A6967">
                        <tspan x="17.8666667" y="30.0833333">Up</tspan>
                    </text>
                    <g id="Group-9" transform="translate(3.350000, 14.258333)" font-family="Roboto-Regular, Roboto" font-size="2.4" font-weight="normal">
                        <g id="Group-10">
                            <text id="Etablissement-Dupont"/>
                        </g>
                    </g>
                </g>
                <g id="Group-24" transform="translate(4.000000, 3.000000)">
                    <g id="Group-3" transform="translate(0.000000, 0.032155)">
                        <mask id="mask-2" fill="white">
                            <use xlink:href="#path-1"/>
                        </mask>
                        <g id="Clip-2"/>
                        <path d="M6.21705378,3.1328057 C6.21705378,2.88071566 6.28810768,2.64562837 6.41022451,2.4472776 L6.41022451,0.011875498 L-4.52284558e-06,0.011875498 L-4.52284558e-06,6.25488117 L6.41022451,6.25488117 L6.41022451,3.81820165 C6.28810768,3.61985088 6.21705378,3.38480764 6.21705378,3.1328057" id="Fill-1" fill="#F59100" mask="url(#mask-2)"/>
                    </g>
                    <path d="M2.54509114,3.15769315 C2.54509114,3.47968829 2.47249947,3.72680084 2.10185227,3.72680084 C1.68665505,3.72680084 1.64233116,3.43630044 1.64233116,3.20086076 L1.64233116,1.35588586 L1.11044452,1.46997169 L1.11044452,3.27530287 C1.11044452,3.96224052 1.60207784,4.22521056 2.07742891,4.22521056 C2.69818946,4.22521056 3.07697778,3.83670206 3.07697778,3.34996521 L3.07697778,1.35588586 L2.54509114,1.46997169 L2.54509114,3.15769315 Z" id="Fill-4" fill="#FFFFFF"/>
                    <path d="M4.41864826,2.1079053 C4.20426538,2.1079053 4.00887845,2.17089477 3.8433423,2.28321866 L3.8433423,1.98985509 L3.32999933,2.11054821 L3.32999933,4.86887048 L3.84198545,4.7545644 L3.84198545,4.04868586 C4.00706931,4.15990853 4.20539609,4.22488019 4.41864826,4.22488019 C4.99531107,4.22488019 5.46274716,3.75091744 5.46274716,3.16639274 C5.46274716,2.58186805 4.99531107,2.1079053 4.41864826,2.1079053 M4.38585763,3.77007857 C4.04325208,3.77007857 3.793591,3.49125104 3.793591,3.16551177 C3.793591,2.8397725 4.04325208,2.56116521 4.38585763,2.56116521 C4.72846318,2.56116521 4.9783504,2.8397725 4.9783504,3.16551177 C4.9783504,3.49125104 4.72846318,3.77007857 4.38585763,3.77007857" id="Fill-6" fill="#FFFFFF"/>
                    <path d="M9.64814775,1.85034442 L10.0269813,1.27714021 L10.6516315,1.27714021 L10.0511785,1.85034442 L9.64814775,1.85034442 Z M10.3373842,2.65110361 C10.2406857,2.55688369 10.1156743,2.52138053 9.97863208,2.52138053 C9.65619842,2.52138053 9.39826053,2.77668612 9.37012843,3.08277972 C9.37012843,3.12599138 9.37012843,3.16920304 9.37804341,3.21633503 L10.3373842,2.65110361 Z M10.865336,3.96198944 C10.6154487,4.13082766 10.3091164,4.22504758 10.0068094,4.22504758 C9.40233109,4.22504758 8.870354,3.7658411 8.870354,3.16537082 C8.870354,2.56463624 9.40233109,2.10542977 10.0068094,2.10542977 C10.4300573,2.10542977 10.8008402,2.35276256 10.9822515,2.72162539 L9.57967187,3.56947252 C9.61987997,3.65184337 9.73272496,3.76971738 9.97863208,3.76971738 C10.2406857,3.76971738 10.4341279,3.67166523 10.6476966,3.53423365 L10.865336,3.96198944 Z" id="Fill-8" fill="#FFFFFF"/>
                    <path d="M11.8333787,1.63440505 L11.486793,1.96798497 L11.1401621,1.63440505 L11.486793,1.30082513 L11.8333787,1.63440505 Z M11.7326549,2.12114189 L11.7326549,4.24075971 C11.7326549,4.66468327 11.4545451,4.93161768 10.9990494,4.93161768 C10.9345536,4.93161768 10.8741736,4.92774141 10.8177285,4.92386513 L10.6604691,4.4880925 C10.7009034,4.49196878 10.7411115,4.49972133 10.8096778,4.49972133 C11.0312972,4.49972133 11.2207592,4.39387258 11.2207592,4.15041606 L11.2207592,2.16822983 L11.7326549,2.12114189 Z" id="Fill-10" fill="#FFFFFF"/>
                    <path d="M13.4740138,2.6510904 C13.3772701,2.55687048 13.2523039,2.52141137 13.1152617,2.52141137 C12.792828,2.52141137 12.5348901,2.77671696 12.5067128,3.08276651 C12.5067128,3.12597817 12.5067128,3.16923388 12.514673,3.21632181 L13.4740138,2.6510904 Z M14.0019655,3.96202028 C13.7520331,4.13085849 13.445746,4.22503436 13.1433938,4.22503436 C12.5389607,4.22503436 12.0069384,3.76587194 12.0069384,3.1653576 C12.0069384,2.56462303 12.5389607,2.10541655 13.1433938,2.10541655 C13.5666869,2.10541655 13.9374698,2.35279339 14.1188811,2.72165623 L12.7163015,3.56950335 C12.7565096,3.6518742 12.8693546,3.76974821 13.1152617,3.76974821 C13.3772701,3.76974821 13.5707574,3.67165202 13.784281,3.53422044 L14.0019655,3.96202028 Z" id="Fill-12" fill="#FFFFFF"/>
                    <path d="M16.1992046,4.16225192 L15.7155767,4.19365856 L15.7155767,3.9344767 L15.7076165,3.9344767 C15.5342559,4.16225192 15.365011,4.2250652 15.0788505,4.2250652 C14.6556479,4.2250652 14.3735128,3.96200706 14.3735128,3.5380835 L14.3735128,2.16821662 L14.8854084,2.10544738 L14.8854084,3.40474844 C14.8854084,3.61657807 14.9861322,3.79338909 15.2158023,3.79338909 C15.538236,3.79338909 15.6874447,3.55380884 15.6874447,3.30255572 L15.6874447,2.16821662 L16.1992046,2.10544738 L16.1992046,4.16225192 Z" id="Fill-14" fill="#FFFFFF"/>
                    <path d="M16.6150486,2.16823423 L17.0986765,2.1211463 L17.0986765,2.39578921 L17.1067724,2.39578921 C17.2799974,2.16823423 17.4493779,2.10542096 17.7354932,2.10542096 C18.158741,2.10542096 18.4407405,2.36847909 18.4407405,2.79240266 L18.4407405,4.16226954 L17.9289805,4.19363213 L17.9289805,2.92573772 C17.9289805,2.71390808 17.828121,2.53731731 17.5984509,2.53731731 C17.2760173,2.53731731 17.1269443,2.77667731 17.1269443,3.02793043 L17.1269443,4.16226954 L16.6150486,4.19363213 L16.6150486,2.16823423 Z" id="Fill-16" fill="#FFFFFF"/>
                    <path d="M20.1988746,2.6510904 C20.1021309,2.55687048 19.9771647,2.52141137 19.8401225,2.52141137 C19.5176888,2.52141137 19.2597509,2.77671696 19.2315736,3.08276651 C19.2315736,3.12597817 19.2315736,3.16923388 19.2395338,3.21632181 L20.1988746,2.6510904 Z M20.7268263,3.96202028 C20.4768939,4.13085849 20.1706068,4.22503436 19.8682546,4.22503436 C19.2638215,4.22503436 18.7317991,3.76587194 18.7317991,3.1653576 C18.7317991,2.56462303 19.2638215,2.10541655 19.8682546,2.10541655 C20.2915477,2.10541655 20.6623305,2.35279339 20.8437419,2.72165623 L19.4411622,3.56950335 C19.4813703,3.6518742 19.5942153,3.76974821 19.8401225,3.76974821 C20.1021309,3.76974821 20.2956182,3.67165202 20.5091418,3.53422044 L20.7268263,3.96202028 Z" id="Fill-18" fill="#FFFFFF"/>
                    <path d="M21.5537427,2.48225218 L21.5619291,2.48225218 C21.7392698,2.17210611 21.9689399,2.10929283 22.3235763,2.10541655 L22.1462807,2.6354091 C21.7553712,2.6354091 21.5820105,2.85908781 21.5820105,3.20447274 L21.5820105,4.16226513 L21.0701148,4.19367177 L21.0701148,2.16822983 L21.5537427,2.12114189 L21.5537427,2.48225218 Z" id="Fill-20" fill="#FFFFFF"/>
                    <path d="M7.51922625,3.76972619 C7.86187703,3.76972619 8.11176425,3.49098675 8.11176425,3.16533558 C8.11176425,2.83950821 7.86187703,2.56076878 7.51922625,2.56076878 C7.17671115,2.56076878 6.92682393,2.83950821 6.92682393,3.16533558 C6.92682393,3.49098675 7.17671115,3.76972619 7.51922625,3.76972619 L7.51922625,3.76972619 Z M8.09163758,3.94631696 C7.87797836,4.15427032 7.73695603,4.22505639 7.45473047,4.22505639 C6.87037882,4.22505639 6.44315083,3.71876198 6.44315083,3.16533558 C6.44315083,2.61173299 6.87037882,2.10543857 7.45473047,2.10543857 C7.66033903,2.10543857 7.8739078,2.16437558 8.0633698,2.31748845 L8.0633698,1.46964133 L8.57531069,1.40682805 L8.57531069,4.16224311 L8.09163758,4.20933104 L8.09163758,3.94631696 Z" id="Fill-22" fill="#FFFFFF"/>
                </g>
            </g>
        </g>
    </g>
</svg>