<svg xmlns="http://www.w3.org/2000/svg" xmlns:xlink="http://www.w3.org/1999/xlink" width="115px" height="115px" viewBox="0 0 115 115" version="1.1">
    <!-- Generator: Sketch 52.6 (67491) - http://www.bohemiancoding.com/sketch -->
    <title>illustration/compte/utilisateur</title>
    <desc>Created with Sketch.</desc>
    <defs>
        <polygon id="path-1" points="0.00059292046 0.549596682 114.537026 0.549596682 114.537026 114.017094 0.00059292046 114.017094"/>
    </defs>
    <g id="illustration/compte/utilisateur" stroke="none" stroke-width="1" fill="none" fill-rule="evenodd">
        <g id="Group-26" transform="translate(0.000000, -1.000000)">
            <path d="M69.1492026,39.2255171 C69.1492026,47.0219274 64.0029526,53.3420128 57.6541595,53.3420128 C51.3053664,53.3420128 46.1591164,47.0219274 46.1591164,39.2255171 C46.1591164,31.4291068 51.3053664,25.1090214 57.6541595,25.1090214 C64.0029526,25.1090214 69.1492026,31.4291068 69.1492026,39.2255171" id="Fill-1" fill="#FEFEFE"/>
            <path d="M83.344069,77.9370726 C83.2122155,78.2761752 82.9623879,78.5631838 82.6600172,78.7587821 C82.2654483,79.0064744 72.8106638,84.990406 56.9912241,84.990406 C41.1727759,84.990406 31.717,79.020235 31.322431,78.7587821 C31.0071724,78.5631838 30.7712241,78.2761752 30.6393707,77.9370726 C29.942431,76.1904487 29.955319,72.7099786 29.9691983,72.0317735 L29.9691983,71.9924573 C29.9820862,71.8882692 29.9820862,71.7840812 29.9820862,71.6661325 C30.0604052,69.0977991 30.2319138,63.0617735 35.9382931,61.1195513 C35.9789397,61.1067735 36.0176034,61.0930128 36.0691552,61.080235 C42.0273448,59.5803205 46.9316983,56.1912607 46.9842414,56.1519444 C47.7872586,55.591688 48.8906638,55.7872863 49.4567414,56.5824573 C50.022819,57.3776282 49.8245431,58.4725855 49.0225172,59.0328419 C48.7984655,59.1773291 43.5659655,62.8013034 37.0179052,64.4692949 C33.9535517,65.5514744 33.6115259,68.7989957 33.5183362,71.7713034 C33.5183362,71.8882692 33.5064397,71.9924573 33.5064397,72.0966453 C33.4796724,73.2692521 33.5718707,75.0827137 33.7820431,76.1255769 C35.9254052,77.3247222 44.3293276,81.4833974 56.9773448,81.4833974 C69.6808793,81.4833974 78.0312672,77.3375 80.1617414,76.1383547 C80.3719138,75.0954915 80.4502328,73.2830128 80.4373448,72.1094231 C80.4244569,72.005235 80.4244569,71.901047 80.4244569,71.7840812 C80.3322586,68.8107906 79.9902328,65.565235 76.9258793,64.4830556 C70.377819,62.8140812 65.145319,59.2019017 64.9202759,59.0466026 C64.11825,58.4853632 63.9209655,57.390406 64.4870431,56.595235 C65.0521293,55.8000641 66.1575172,55.6044658 66.9595431,56.1657051 C67.0110948,56.2040385 71.9432069,59.5940812 77.8726466,61.0930128 C77.9123017,61.1067735 77.9658362,61.1195513 78.0045,61.1323291 C83.7118707,63.0617735 83.8833793,69.0977991 83.9616983,71.6798932 C83.9616983,71.796859 83.9755776,71.901047 83.9755776,72.005235 L83.9755776,72.0445513 C83.9874741,72.7227564 84.0013534,76.2032265 83.344069,77.9370726 M43.3548017,35.6957051 C43.6839397,28.6954487 47.0506638,25.3712607 49.8116552,23.8192521 C52.5597586,22.2682265 55.4268276,22.033312 56.8861379,22.033312 L57.1091983,22.033312 C59.7660948,22.085406 62.1454052,22.7105342 64.1846724,23.8713462 C66.9198879,25.4233547 70.2330776,28.7475427 70.5612241,35.6957051 C70.6544138,36.6216026 71.4951034,46.3219017 66.4331207,51.9804915 C64.1321293,54.5488248 61.0162241,55.8914744 57.1627328,55.9563462 L56.7413966,55.9563462 C52.8879052,55.8914744 49.772,54.5488248 47.4838966,51.9804915 C42.4219138,46.3219017 43.2626034,36.6216026 43.3548017,35.6957051 M56.9476034,18.6747222 C35.7836379,18.6747222 18.627819,35.6937393 18.627819,56.6866453 C18.627819,77.6805342 35.7836379,94.6995513 56.9476034,94.6995513 C78.111569,94.6995513 95.2683793,77.6805342 95.2683793,56.6866453 C95.2683793,35.6937393 78.111569,18.6747222 56.9476034,18.6747222" id="Fill-3" fill="#E8F4F6"/>
            <path d="M57.6049871,52.9800085 L57.7368405,52.9800085 C60.6425733,52.9534701 62.8523578,52.0413333 64.5089526,50.1905214 C68.6915819,45.5227009 67.7705905,36.6568889 67.7567112,36.5654786 C67.7448147,36.5399231 67.7448147,36.5006068 67.7448147,36.4612906 C67.335375,27.6220171 61.3008491,26.1879573 57.7497284,26.1103077 L57.5920991,26.1103077 C54.7260216,26.1103077 48.0332198,27.1138547 47.5980043,36.4612906 C47.5980043,36.4878291 47.5851164,36.5271453 47.5851164,36.5654786 C47.5722284,36.6441111 46.6780043,45.5482564 50.8467543,50.1905214 C52.4904612,52.0413333 54.7131336,52.9534701 57.6049871,52.9800085" id="Fill-5" fill="#E8F4F6"/>
            <path d="M48.592556,38.5166453 C48.592556,38.4822436 48.605444,38.4478419 48.605444,38.425235 C48.9861336,30.1963462 54.8788922,29.3127137 57.402944,29.3127137 L57.5407457,29.3127137 C60.6665647,29.3815171 65.9793664,30.6445513 66.3382457,38.425235 C66.3382457,38.4596368 66.3382457,38.4940385 66.3501422,38.5166453 C66.3620388,38.5972436 67.1719957,46.4015171 63.4900129,50.5100641 C62.0326853,52.1397222 60.0875991,52.9427564 57.5298405,52.9653632 L57.4128578,52.9653632 C54.8669957,52.9427564 52.9100129,52.1397222 51.4635905,50.5100641 C47.7944957,46.4241239 48.5816509,38.5854487 48.592556,38.5166453 M57.2869526,56.0644658 L57.6567371,56.0644658 C61.0482457,56.0074573 63.7923836,54.8250214 65.8177716,52.5643376 C70.2740216,47.5829701 69.5334612,39.0444658 69.4521681,38.2296368 C69.1626853,32.1130128 66.2460474,29.1869017 63.8389784,27.8206624 C62.0435905,26.7994231 59.948806,26.2489957 57.6111336,26.2027991 L57.4128578,26.2027991 C56.1290216,26.2027991 53.6059612,26.4092094 51.1860043,27.7744658 C48.7551422,29.1407051 45.7919095,32.0668162 45.5024267,38.2296368 C45.422125,39.0444658 44.6805733,47.5829701 49.1378147,52.5643376 C51.151306,54.8250214 53.895444,56.0074573 57.2869526,56.0644658" id="Fill-7" fill="#F2900A"/>
            <path d="M81.259694,70.1923632 C81.259694,70.0999701 81.246806,70.0085598 81.246806,69.9053547 C81.1784009,67.6328761 81.0277112,62.3192863 76.0034009,60.6208248 C75.969694,60.6090299 75.9230991,60.5982179 75.8884009,60.5864231 C70.6677974,59.2663803 66.3265474,56.2822778 66.280944,56.2478761 C65.5750819,55.7544573 64.6015474,55.9264658 64.103875,56.6262949 C63.6062026,57.3271068 63.779694,58.2913376 64.485556,58.7847564 C64.6828405,58.9223632 69.2907716,62.1010812 75.0546509,63.5705256 C77.7512026,64.5229615 78.0535733,67.3802692 78.133875,69.996765 C78.133875,70.0999701 78.133875,70.1923632 78.1447802,70.2837735 C78.1566767,71.3168077 78.0872802,72.913047 77.9018922,73.8300983 C76.027194,74.8857393 68.6771078,78.5362521 57.4943491,78.5362521 C46.3591767,78.5362521 38.9624957,74.8749274 37.0759009,73.8192863 C36.8905129,72.9002692 36.8092198,71.3050128 36.8330129,70.2729615 C36.8330129,70.1805684 36.8439181,70.0891581 36.8439181,69.985953 C36.9252112,67.3684744 37.2255991,64.5111667 39.9231422,63.5577479 C45.6880129,62.0892863 50.2949526,58.8997564 50.4912457,58.7729615 C51.1980991,58.2795427 51.3715905,57.315312 50.8739181,56.6154829 C50.3762457,55.9156538 49.4037026,55.7436453 48.6968491,56.2360812 C48.6512457,56.2714658 44.3337888,59.2545855 39.0893922,60.5746282 C39.0427974,60.5864231 39.0090905,60.5982179 38.9743922,60.6090299 C33.9500819,62.3192863 33.7993922,67.6328761 33.7309871,69.8935598 C33.7309871,69.996765 33.7309871,70.0891581 33.7190905,70.1805684 L33.7190905,70.2149701 C33.707194,70.811594 33.6952974,73.8762949 34.3089612,75.4135598 C34.4249526,75.7123632 34.6331422,75.9649701 34.9107284,76.1369786 C35.2587026,76.3669786 43.5813319,81.6225769 57.5062457,81.6225769 C71.4311595,81.6225769 79.7547802,76.3551838 80.1017629,76.1369786 C80.368444,75.9649701 80.5875388,75.7123632 80.7035302,75.4135598 C81.2824957,73.8871068 81.2705991,70.8233889 81.259694,70.226765 L81.259694,70.1923632 Z" id="Fill-9" fill="#F2900A"/>
            <g id="Group-13" transform="translate(0.000000, 0.433462)">
                <mask id="mask-2" fill="white">
                    <use xlink:href="#path-1"/>
                </mask>
                <g id="Clip-12"/>
                <path d="M53.8196034,2.35926923 C53.3675345,2.35926923 52.9878362,2.01033761 52.961069,1.55721795 C52.9313276,1.08640598 53.2941724,0.681448718 53.7680517,0.652944444 C55.9728793,0.522217949 58.2342155,0.515337607 60.423181,0.633286325 C60.8990431,0.659824786 61.2628793,1.06183333 61.2361121,1.5326453 C61.2103362,2.00444017 60.7780948,2.35926923 60.3299914,2.33862821 C58.2054655,2.22362821 56.0115431,2.22952564 53.8731379,2.35828632 C53.8543017,2.35926923 53.8374483,2.35926923 53.8196034,2.35926923 M73.2754224,4.54033761 C73.1951207,4.54033761 73.1128362,4.52952564 73.0315431,4.5059359 C70.974431,3.90341453 68.8588276,3.41491026 66.7442155,3.05516667 C66.2752931,2.97456838 65.9610259,2.53324359 66.0413276,2.06832906 C66.1226207,1.60341453 66.5717155,1.29674786 67.0366724,1.37144872 C69.2167155,1.74298718 71.39775,2.24623504 73.5193017,2.86743162 C73.9753362,3.00110684 74.236069,3.47585043 74.1012414,3.92798718 C73.9911983,4.29952564 73.648181,4.54033761 73.2754224,4.54033761 M40.9346466,4.6376453 C40.5648621,4.6376453 40.2218448,4.39978205 40.109819,4.0302094 C39.9720172,3.57905556 40.2297759,3.10234615 40.6858103,2.96670513 C42.8004224,2.33371368 44.9784828,1.81670513 47.1595172,1.43042308 C47.6284397,1.34785897 48.0755517,1.65747436 48.1588276,2.12140598 C48.2421034,2.58533761 47.9308103,3.02961111 47.4618879,3.11217521 C45.3462845,3.48666239 43.2336552,3.98696154 41.1834828,4.60127778 C41.1002069,4.62585043 41.016931,4.6376453 40.9346466,4.6376453 M85.3147328,9.6485 C85.169,9.6485 85.0222759,9.61114957 84.8864569,9.53448291 C83.0216724,8.47392735 81.0765862,7.51166239 79.1077069,6.67619231 C78.6695172,6.49042308 78.4672759,5.98815812 78.6546466,5.55469658 C78.8420172,5.12123504 79.3505948,4.91973932 79.784819,5.10550855 C81.8161552,5.96751709 83.8217155,6.95926923 85.744,8.05324359 C86.1564138,8.28815812 86.2991724,8.80909829 86.0622328,9.21897009 C85.9026207,9.49418376 85.6131379,9.6485 85.3147328,9.6485 M28.9349914,9.81362821 C28.638569,9.81362821 28.3500776,9.66226068 28.1894741,9.38901282 C27.9505517,8.98208974 28.0903362,8.45918376 28.5007672,8.22132051 C30.4141293,7.11751709 32.4107672,6.11495299 34.4361552,5.24114957 C34.8723621,5.05538034 35.3799483,5.25097863 35.5702931,5.68345726 C35.7596466,6.1159359 35.5603793,6.61918376 35.1241724,6.80790171 C33.1592586,7.65516667 31.2230948,8.62726068 29.3682241,9.6976453 C29.2314138,9.77627778 29.0827069,9.81362821 28.9349914,9.81362821 M95.8382241,17.3721752 C95.6270603,17.3721752 95.4149052,17.2964915 95.2493448,17.1421752 C93.6809828,15.6845256 92.0115,14.3045256 90.2904655,13.0405085 C89.9077931,12.7603803 89.8274914,12.2256795 90.1100345,11.8462778 C90.3925776,11.4688419 90.9338707,11.3872607 91.3145603,11.6683718 C93.0901207,12.9707222 94.8111552,14.3939701 96.4271034,15.8958504 C96.7740862,16.2182436 96.791931,16.7588419 96.4667586,17.102859 C96.2972328,17.2827308 96.0672328,17.3721752 95.8382241,17.3721752 M18.461069,17.5952949 C18.2330517,17.5952949 18.0050345,17.5068333 17.8355086,17.3289274 C17.5083534,16.9868761 17.5232241,16.4472607 17.8682241,16.1219188 C19.4732672,14.6131581 21.1843879,13.1810641 22.9530086,11.8659359 C23.335681,11.582859 23.8749914,11.6595256 24.1595172,12.0379444 C24.4450345,12.4143974 24.3677069,12.9500812 23.9870172,13.2331581 C22.2709397,14.5079872 20.6113707,15.8968333 19.0539138,17.3613632 C18.8873621,17.5186282 18.6742155,17.5952949 18.461069,17.5952949 M104.291716,27.2818333 C104.013138,27.2818333 103.739517,27.1471752 103.573957,26.9004658 C102.386284,25.1282863 101.081629,23.406235 99.6966724,21.7824744 C99.3893448,21.4217479 99.4349483,20.8831154 99.7987845,20.5784145 C100.161629,20.2766624 100.704905,20.3199103 101.012233,20.6796538 C102.439819,22.3535427 103.784129,24.1286709 105.008483,25.9549103 C105.271198,26.3480726 105.164129,26.877859 104.767578,27.1383291 C104.620853,27.2356368 104.455293,27.2818333 104.291716,27.2818333 M10.0630948,27.5550812 C9.9015,27.5550812 9.73792241,27.5098675 9.59218966,27.4155085 C9.19365517,27.1570043 9.08361207,26.6272179 9.34434483,26.2330726 C10.5568017,24.3979872 11.8921897,22.6149957 13.3108534,20.9322607 C13.6161983,20.5705513 14.1594741,20.5223889 14.5243017,20.8251239 C14.8891293,21.127859 14.9377069,21.6664915 14.6333534,22.0282009 C13.2563276,23.6598248 11.9615862,25.3897393 10.784819,27.1697821 C10.6192586,27.4194402 10.3436552,27.5550812 10.0630948,27.5550812 M110.216198,38.8506368 C109.86525,38.8506368 109.536112,38.6373462 109.407233,38.2923462 C108.666672,36.2999957 107.798224,34.3253376 106.825681,32.4253803 C106.60956,32.0046966 106.779086,31.4906368 107.203397,31.2773462 C107.628698,31.0630726 108.146198,31.2321325 108.361328,31.6518333 C109.364603,33.6117479 110.26081,35.6473462 111.024172,37.7016197 C111.188741,38.1439274 110.960724,38.6353803 110.514603,38.7985427 C110.415466,38.8339274 110.314345,38.8506368 110.216198,38.8506368 M4.20602586,39.1661496 C4.10887069,39.1661496 4.00973276,39.1494402 3.91356897,39.1150385 C3.46546552,38.9538419 3.23447414,38.4643547 3.39606897,38.0210641 C4.14753448,35.9608932 5.03184483,33.9184145 6.02322414,31.9535855 C6.23637069,31.5309359 6.75089655,31.3599103 7.17917241,31.5722179 C7.60546552,31.7835427 7.77796552,32.2966197 7.56481897,32.7182863 C6.60218966,34.624141 5.74464655,36.6037137 5.01598276,38.6019615 C4.89007759,38.9499103 4.5589569,39.1661496 4.20602586,39.1661496 M113.272621,51.4691838 C112.842362,51.4691838 112.469603,51.1497393 112.418052,50.7162778 C112.164259,48.6040128 111.781586,46.4848675 111.279948,44.4168333 C111.168914,43.9578162 111.45344,43.4968333 111.916414,43.3867479 C112.377405,43.2766624 112.843353,43.5587564 112.954388,44.0177735 C113.471888,46.1506795 113.866457,48.3356795 114.128181,50.5137991 C114.185681,50.9816624 113.847621,51.4072607 113.374733,51.4632863 C113.341026,51.466235 113.306328,51.4691838 113.272621,51.4691838 M1.2239569,51.8053376 C1.19223276,51.8053376 1.15951724,51.8033718 1.12680172,51.7994402 C0.652922414,51.7463632 0.31387069,51.3237137 0.367405172,50.8548675 C0.617232759,48.6708504 0.998913793,46.4829017 1.50253448,44.3529444 C1.61059483,43.8929444 2.0765431,43.6079017 2.5365431,43.7150385 C2.99951724,43.8231581 3.28701724,44.2821752 3.1789569,44.7411923 C2.69218966,46.8082436 2.32141379,48.9293547 2.07951724,51.0475171 C2.02994828,51.4839274 1.65718966,51.8053376 1.2239569,51.8053376 M113.301371,64.6715769 C113.268655,64.6715769 113.23594,64.6696111 113.201241,64.6656795 C112.729345,64.6106368 112.390293,64.1870043 112.444819,63.719141 C112.690681,61.6098248 112.814603,59.4602094 112.814603,57.3282863 L112.814603,57.1022179 C112.814603,56.6304231 113.20025,56.2480726 113.676112,56.2480726 C114.150983,56.2480726 114.537621,56.6304231 114.537621,57.1022179 L114.537621,57.3282863 C114.537621,59.5250812 114.408741,61.7415342 114.15594,63.9147393 C114.106371,64.3501667 113.733612,64.6715769 113.301371,64.6715769 M1.24973276,64.7826453 C0.818482759,64.7826453 0.446715517,64.4632009 0.394172414,64.0287564 C0.137405172,61.8585 0.00456034483,59.642047 0.000594827586,57.4423034 C-0.000396551724,56.9705085 0.38525,56.5871752 0.86012069,56.5861923 L0.862103448,56.5861923 C1.33796552,56.5861923 1.72262069,56.9675598 1.72361207,57.4393547 C1.72757759,59.5732436 1.85546552,61.722859 2.10628448,63.8292265 C2.16180172,64.2970897 1.82374138,64.7217051 1.35085345,64.7767479 C1.31714655,64.7806795 1.28343966,64.7826453 1.24973276,64.7826453 M110.292534,77.3048675 C110.194388,77.3048675 110.09525,77.2881581 109.998095,77.2527735 C109.550983,77.0925598 109.319991,76.6020897 109.482578,76.1587991 C110.216198,74.1585855 110.838784,72.0944829 111.3315,70.0225171 C111.440552,69.5635 111.912448,69.2823889 112.367491,69.3875598 C112.830466,69.4966624 113.116974,69.9556795 113.007922,70.4156795 C112.499345,72.5515342 111.857922,74.6795256 111.1015,76.7426453 C110.974603,77.0896111 110.643483,77.3048675 110.292534,77.3048675 M4.28236207,77.4070897 C3.93141379,77.4070897 3.60128448,77.1928162 3.47339655,76.8458504 C2.71300862,74.7866624 2.06861207,72.6596538 1.55507759,70.5267479 C1.44602586,70.0677308 1.7315431,69.6067479 2.19451724,69.4976453 C2.65550862,69.3905085 3.1214569,69.6716197 3.23249138,70.1306368 C3.72917241,72.2006368 4.35374138,74.2617906 5.09231897,76.2600385 C5.25490517,76.7023462 5.02490517,77.1928162 4.57878448,77.3549957 C4.48063793,77.3903803 4.3815,77.4070897 4.28236207,77.4070897 M104.40969,88.904141 C104.247103,88.904141 104.082534,88.8589274 103.937793,88.7635855 C103.539259,88.5040983 103.430207,87.974312 103.691931,87.5811496 C104.873655,85.8001239 105.961198,83.9345684 106.922836,82.0375598 C107.135983,81.6158932 107.6515,81.4458504 108.079776,81.6581581 C108.505078,81.8704658 108.676586,82.3835427 108.462448,82.8042265 C107.470078,84.7611923 106.348828,86.6837564 105.130422,88.5198248 C104.964862,88.7694829 104.69025,88.904141 104.40969,88.904141 M10.1850345,88.9886709 C9.90546552,88.9886709 9.63184483,88.8540128 9.46628448,88.6063205 C8.24193103,86.771235 7.11869828,84.8516197 6.12632759,82.8995684 C5.91119828,82.4788846 6.0827069,81.9658077 6.50602586,81.7525171 C6.9352931,81.5402094 7.45081034,81.7102521 7.66296552,82.1309359 C8.62658621,84.0230299 9.71710345,85.8846538 10.9027931,87.6637137 C11.1655086,88.0568761 11.0564569,88.5866624 10.6599052,88.8471325 C10.513181,88.9424744 10.3476207,88.9886709 10.1850345,88.9886709 M95.9948621,98.846235 C95.7668448,98.846235 95.5378362,98.7567906 95.3683103,98.5788846 C95.0421466,98.2358504 95.0580086,97.6952521 95.4030086,97.3718761 C96.9654224,95.9073462 98.4554655,94.340594 99.8334828,92.7138846 C100.139819,92.3511923 100.683095,92.3049957 101.046931,92.6087137 C101.410767,92.9114487 101.458353,93.4500812 101.152017,93.8117906 C99.7333534,95.4886282 98.1977069,97.1035427 96.5867155,98.6123034 C96.4201638,98.7685855 96.2070172,98.846235 95.9948621,98.846235 M18.6157241,98.9130726 C18.403569,98.9130726 18.1914138,98.836406 18.0258534,98.6820897 C16.4128793,97.1762778 14.8732672,95.564312 13.4496466,93.8884573 C13.1443017,93.5277308 13.1908966,92.9890983 13.5547328,92.6853803 C13.9175776,92.3826453 14.4608534,92.4268761 14.768181,92.7885855 C16.148181,94.4133291 17.6411983,95.9781154 19.2065862,97.4377308 C19.553569,97.7611068 19.569431,98.3017051 19.2432672,98.6447393 C19.0737414,98.8236282 18.8457241,98.9130726 18.6157241,98.9130726 M85.5070603,106.607261 C85.2096466,106.607261 84.9201638,106.45491 84.7605517,106.181662 C84.5226207,105.773756 84.6624052,105.25085 85.0738276,105.01397 C86.930681,103.946534 88.7439138,102.760167 90.4609828,101.489269 C90.8436552,101.207175 91.3819741,101.285808 91.6665,101.663244 C91.9510259,102.041662 91.8727069,102.576363 91.4910259,102.858457 C89.7214138,104.168671 87.8526638,105.390423 85.937319,106.491278 C85.8024914,106.56991 85.6527931,106.607261 85.5070603,106.607261 M29.1233534,106.658372 C28.9766293,106.658372 28.8289138,106.622004 28.6930948,106.544355 C26.7787414,105.448415 24.9070172,104.229611 23.1294741,102.919397 C22.7477931,102.637303 22.6684828,102.102603 22.9520172,101.724184 C23.2365431,101.346748 23.7748621,101.267132 24.1575345,101.548244 C25.8805517,102.819141 27.6967586,104.00256 29.5546034,105.065081 C29.9660259,105.299996 30.1077931,105.822902 29.8708534,106.230808 C29.7112414,106.505038 29.4217586,106.658372 29.1233534,106.658372 M73.4945172,111.759654 C73.1237414,111.759654 72.7807241,111.520808 72.6696897,111.150252 C72.5328793,110.699098 72.7916293,110.222389 73.2466724,110.087731 C75.3008103,109.476363 77.341069,108.738201 79.311931,107.892902 C79.7481379,107.70615 80.2547328,107.904697 80.4440862,108.338158 C80.6334397,108.770637 80.4321897,109.272902 79.9949914,109.460637 C77.9636552,110.332474 75.8589569,111.093244 73.7423621,111.723286 C73.6590862,111.747859 73.5758103,111.759654 73.4945172,111.759654 M41.15275,111.791107 C41.0714569,111.791107 40.9891724,111.779312 40.9068879,111.754739 C38.7863276,111.129611 36.6796466,110.372774 34.6443448,109.504868 C34.2081379,109.318115 34.0068879,108.81585 34.1942586,108.382389 C34.3836121,107.947944 34.8911983,107.751363 35.3264138,107.935167 C37.2982672,108.777517 39.3415,109.511748 41.3986121,110.118201 C41.8546466,110.252859 42.1133966,110.728585 41.978569,111.180722 C41.8665431,111.551278 41.5245172,111.791107 41.15275,111.791107 M60.6026207,114.010509 C60.1495603,114.010509 59.7698621,113.659611 59.7440862,113.205509 C59.7153362,112.734697 60.078181,112.331705 60.5530517,112.304184 C62.6983966,112.180338 64.8556379,111.931662 66.9662845,111.563073 C67.4312414,111.482474 67.8813276,111.791107 67.9636121,112.256021 C68.0458966,112.719953 67.7326207,113.163244 67.2646897,113.244825 C65.0886121,113.624226 62.8649483,113.881748 60.6541724,114.008543 C60.6363276,114.009526 60.6194741,114.010509 60.6026207,114.010509 M54.0486121,114.017389 C54.03275,114.017389 54.0158966,114.017389 54.0000345,114.016406 C51.7862845,113.89256 49.5616293,113.63897 47.3875345,113.264483 C46.9176207,113.183885 46.6043448,112.741577 46.6856379,112.276662 C46.7679224,111.811748 47.2229655,111.50115 47.6819741,111.581748 C49.7916293,111.945423 51.9498621,112.190167 54.0961983,112.310081 C54.5720603,112.337603 54.9349052,112.740594 54.9081379,113.211406 C54.8823621,113.665509 54.5016724,114.017389 54.0486121,114.017389" id="Fill-11" fill="#76B0BD" mask="url(#mask-2)"/>
            </g>
            <path d="M60.2199483,9.79878632 C60.1089138,9.85382906 59.9810259,9.88036752 59.8471897,9.87250427 C54.155681,9.51276068 48.4988707,10.1437863 43.0343879,11.7449402 C42.6437845,11.8589573 42.2313707,11.6378034 42.1153793,11.2495556 C41.9993879,10.8603248 42.2184828,10.4514359 42.6160259,10.3374188 C48.2470603,8.68810256 54.0763707,8.03840171 59.9413707,8.40797436 C60.349819,8.43352991 60.6571466,8.78246154 60.6323621,9.1864359 C60.6145172,9.45870085 60.4499483,9.68575214 60.2199483,9.79878632 M15.9211552,31.5947265 C15.6931379,31.7067778 15.4125776,31.6989145 15.1845603,31.5485299 C14.8445172,31.3244274 14.752319,30.8693419 14.9773621,30.5322051 C18.2280948,25.6766496 22.2739138,21.4668632 27.0018017,18.019812 C27.331931,17.7799829 27.7949052,17.8497692 28.0368017,18.176094 C28.2777069,18.5024188 28.2083103,18.9614359 27.8791724,19.2022479 C23.291069,22.546094 19.3642155,26.6310513 16.2096466,31.3431026 C16.1352931,31.4551538 16.0351638,31.5406667 15.9211552,31.5947265 M91.2293017,23.2066068 C90.9596466,23.3383162 90.623569,23.2980171 90.393569,23.079812 C86.2733966,19.1973333 81.5296466,16.0815214 76.2921897,13.8188718 C75.9184397,13.6576752 75.746931,13.2251966 75.9095172,12.8536581 C76.0750776,12.4821197 76.5093017,12.3130598 76.8850345,12.4742564 C82.2791293,14.8057094 87.1676207,18.0158803 91.4127069,22.0172906 C91.7081379,22.2964359 91.7200345,22.7603675 91.4384828,23.0542564 C91.3770172,23.1191282 91.3056379,23.1692564 91.2293017,23.2066068 M7.93856897,64.1928034 C7.86223276,64.2291709 7.77994828,64.2537436 7.69369828,64.2635726 C7.28624138,64.3087863 6.92042241,64.0188291 6.87581034,63.6158376 C6.22744828,57.8402821 6.60516379,52.0372051 7.99706034,46.3668205 C8.09223276,45.9736581 8.49275,45.7308803 8.89128448,45.8272051 C9.28684483,45.9235299 9.53072414,46.3206239 9.43356897,46.7137863 C8.08331034,52.2170769 7.71749138,57.8491282 8.34602586,63.4536581 C8.38171552,63.7691709 8.2102069,64.0601111 7.93856897,64.1928034 M106.325034,53.4378462 C106.250681,53.4742137 106.167405,53.4997692 106.079172,53.5086154 C105.672707,53.5528462 105.306888,53.261906 105.263267,52.8589145 C104.646629,47.2661795 103.050509,41.8474188 100.520509,36.754 L100.432276,36.5751111 C100.250853,36.2124188 100.401543,35.7720769 100.767362,35.593188 C101.134172,35.4152821 101.577319,35.5646838 101.75775,35.9273761 L101.846974,36.106265 C104.45331,41.354 106.098009,46.936906 106.733483,52.6996838 C106.768181,53.0151966 106.595681,53.3051538 106.325034,53.4378462 M22.9490431,94.2559658 C22.6783966,94.3886581 22.3433103,94.3473761 22.1113276,94.1291709 C17.8830948,90.1277607 14.4112845,85.441265 11.7950345,80.1994274 C11.6146034,79.836735 11.7633103,79.3973761 12.1301207,79.2165214 L12.1311121,79.2165214 C12.496931,79.0376325 12.941069,79.1860513 13.1205086,79.5487436 C15.6614138,84.636265 19.0301207,89.1841709 23.134431,93.0676325 C23.4288707,93.3477607 23.4397759,93.8116923 23.1582241,94.1045983 C23.0967586,94.1684872 23.0253793,94.2195983 22.9490431,94.2559658 M98.2770172,86.0182308 C98.0470172,86.1302821 97.7664569,86.1214359 97.5384397,85.9710513 C97.1983966,85.7459658 97.1071897,85.2908803 97.3332241,84.9527607 C100.490767,80.2584017 102.781845,75.091265 104.141026,69.5968205 C104.23719,69.2026752 104.640681,68.9638291 105.036241,69.0591709 C105.431802,69.1564786 105.675681,69.5535726 105.577534,69.946735 C104.177707,75.6063077 101.818224,80.9297265 98.5645172,85.7675897 C98.4891724,85.8786581 98.3890431,85.963188 98.2770172,86.0182308 M53.9306379,107.726692 C53.8196034,107.781735 53.6907241,107.809256 53.5568879,107.80041 C47.7047759,107.419043 42.007319,106.041009 36.6211552,103.701692 C36.2464138,103.53853 36.0768879,103.106051 36.2414569,102.735496 C36.4050345,102.362974 36.8382672,102.194897 37.2159828,102.357077 C42.4425345,104.62759 47.9724483,105.966308 53.6530517,106.33588 C54.0605086,106.363402 54.369819,106.712333 54.3430517,107.116308 C54.3261983,107.38759 54.1606379,107.614641 53.9306379,107.726692 M78.9897328,102.77088 C76.379431,104.045709 73.6521466,105.100368 70.8852069,105.905368 C70.4926207,106.020368 70.0821897,105.796265 69.9671897,105.408017 C69.8521897,105.019769 70.0782241,104.617761 70.4688276,104.497846 C75.8688707,102.928145 81.0934397,100.369641 85.6399052,97.0710085 C85.9611121,96.8351111 86.4300345,96.9029316 86.6739138,97.2292564 C86.914819,97.5565641 86.8424483,98.0145983 86.512319,98.2554103 C84.1587845,99.9627179 81.6287845,101.482291 78.9897328,102.77088" id="Fill-14" fill="#C5E3DA"/>
            <path d="M54.7460474,18.9463974 C54.4357457,18.9463974 54.1750129,18.7065684 54.1561767,18.3949872 C54.1363491,18.0716111 54.3851853,17.7934487 54.7113491,17.7737906 C56.2251853,17.6833632 57.7806595,17.6794316 59.2835905,17.7600299 C59.6097543,17.7787051 59.8605733,18.0549017 59.8427284,18.3782778 C59.8248836,18.7016538 59.5274698,18.9463974 59.2201422,18.9326368 C57.7598405,18.8530214 56.252944,18.856953 54.7827284,18.9454145 C54.7698405,18.9463974 54.7589353,18.9463974 54.7460474,18.9463974 M68.113806,20.4443462 C68.0592802,20.4443462 68.0027716,20.4374658 67.9462629,20.4207564 C66.5335474,20.006953 65.0801853,19.6717821 63.6268233,19.4240897 C63.3056164,19.369047 63.0885043,19.0653291 63.1440216,18.7458846 C63.1995388,18.4274231 63.5088491,18.2160983 63.8280733,18.2672094 C65.3260474,18.522765 66.8250129,18.867765 68.2813491,19.2953291 C68.5956164,19.3867393 68.7740647,19.7130641 68.6818664,20.0246453 C68.6055302,20.2792179 68.3705733,20.4443462 68.113806,20.4443462 M45.8930302,20.5121667 C45.6382457,20.5121667 45.4032888,20.3480214 45.3259612,20.0944316 C45.2317802,19.7848162 45.4082457,19.4575085 45.7215216,19.3631496 C47.1748836,18.9277222 48.6718664,18.5728932 50.1708319,18.3084915 C50.4920388,18.2505 50.8003578,18.4637906 50.8568664,18.7822521 C50.9143664,19.1016966 50.7002284,19.4063974 50.3780302,19.463406 C48.9246681,19.7209274 47.4732888,20.0649444 46.0635474,20.4866111 C46.0070388,20.5033205 45.9495388,20.5121667 45.8930302,20.5121667 M76.385875,23.9543034 C76.2867371,23.9543034 76.1856164,23.9287479 76.0924267,23.8766538 C74.8105733,23.1473376 73.4751853,22.4868248 72.1209612,21.9118248 C71.8215647,21.784047 71.6817802,21.4400299 71.8106595,21.1412265 C71.9395388,20.843406 72.2885043,20.7057991 72.5869095,20.832594 C73.9827716,21.4252863 75.3607888,22.1064402 76.681306,22.8583632 C76.9648405,23.0195598 77.0629871,23.3783205 76.9013922,23.6594316 C76.7903578,23.8481496 76.5920819,23.9543034 76.385875,23.9543034 M37.6487198,24.0683205 C37.4444957,24.0683205 37.2462198,23.9631496 37.1361767,23.7763974 C36.9716078,23.4962692 37.0677716,23.1375085 37.3493233,22.9743462 C38.6638922,22.2155427 40.0359612,21.5265256 41.4278578,20.926953 C41.7272543,20.7991752 42.0772112,20.9328504 42.2070819,21.2306709 C42.3369526,21.5275085 42.2011336,21.8734915 41.9007457,22.0022521 C40.5514784,22.5851154 39.220056,23.2525085 37.9461336,23.9887051 C37.8519526,24.042765 37.7488491,24.0683205 37.6487198,24.0683205 M83.6169957,29.2619957 C83.4722543,29.2619957 83.3265216,29.2089188 83.2125129,29.102765 C82.1348836,28.1021667 80.9888491,27.1536624 79.8051422,26.2857564 C79.5434181,26.0931068 79.4879009,25.7245171 79.6812198,25.464047 C79.8755302,25.2055427 80.2472974,25.1495171 80.5090216,25.3421667 C81.7294095,26.237594 82.9111336,27.2155855 84.0214784,28.2466538 C84.2604009,28.4687906 84.2722974,28.8403291 84.0492371,29.0762265 C83.9322543,29.2000726 83.774625,29.2619957 83.6169957,29.2619957 M30.451306,29.4153291 C30.2946681,29.4153291 30.1380302,29.353406 30.0220388,29.2325085 C29.7969957,28.997594 29.8069095,28.6260556 30.0448405,28.4029359 C31.1472543,27.3659701 32.3230302,26.3810983 33.5374698,25.4787906 C33.8011767,25.2831923 34.1709612,25.3362692 34.3662629,25.5967393 C34.5635474,25.8552436 34.5100129,26.2228504 34.2482888,26.4174658 C33.0695388,27.2942179 31.9284612,28.2476368 30.8587629,29.2541325 C30.7437629,29.3622521 30.5980302,29.4153291 30.451306,29.4153291 M89.4254871,36.0705855 C89.2341509,36.0705855 89.0467802,35.9781923 88.9317802,35.8081496 C88.1168664,34.591312 87.2206595,33.4078932 86.2689353,32.2922949 C86.0567802,32.0446026 86.0885043,31.674047 86.3383319,31.464688 C86.5881595,31.256312 86.9609181,31.2867821 87.1720819,31.5344744 C88.1535474,32.6844744 89.0775129,33.9042607 89.9182026,35.1584487 C90.0986336,35.4287479 90.0252716,35.7924231 89.7526422,35.9722949 C89.6525129,36.0381496 89.5385043,36.0705855 89.4254871,36.0705855 M24.6814784,36.2583205 C24.570444,36.2583205 24.4574267,36.2268675 24.3572974,36.1619957 C24.0836767,35.9840897 24.0083319,35.6204145 24.1877716,35.3491325 C25.0215216,34.089047 25.937556,32.8643462 26.9130733,31.7074658 C27.1232457,31.4587906 27.4960043,31.4263547 27.7468233,31.6337479 C27.9976422,31.8421239 28.0313491,32.2126795 27.8211767,32.4603718 C26.8754009,33.5818675 25.9861336,34.7702009 25.1771681,35.9929359 C25.0641509,36.1649444 24.873806,36.2583205 24.6814784,36.2583205 M93.4960905,44.0193462 C93.2561767,44.0193462 93.0291509,43.8728932 92.9409181,43.6360128 C92.4323405,42.2668248 91.8355302,40.9104145 91.1663491,39.6051154 C91.0186336,39.316141 91.134625,38.9622949 91.4260905,38.8158419 C91.7185474,38.668406 92.0734612,38.7853718 92.2221681,39.0733632 C92.9111767,40.4199444 93.5268233,41.8186197 94.0512629,43.2300726 C94.1652716,43.5337906 94.0086336,43.8709274 93.701306,43.9839615 C93.6338922,44.0085342 93.5635043,44.0193462 93.4960905,44.0193462 M20.6564784,44.2355855 C20.590056,44.2355855 20.5226422,44.2247735 20.4562198,44.2002009 C20.1488922,44.0910983 19.9882888,43.7539615 20.1003147,43.4492607 C20.6158319,42.0338761 21.2245388,40.6312692 21.9056164,39.2797735 C22.0513491,38.9907991 22.4062629,38.8718675 22.6997112,39.0183205 C22.9931595,39.1637906 23.1111336,39.5166538 22.9644095,39.8056282 C22.3031595,41.114859 21.7142802,42.4752009 21.2136336,43.8483205 C21.1263922,44.0871667 20.898375,44.2355855 20.6564784,44.2355855 M95.5958319,52.6895598 C95.3004009,52.6895598 95.044625,52.4703718 95.0089353,52.1725513 C94.835444,50.7217821 94.5717371,49.2651154 94.2267371,47.8438333 C94.1504009,47.5293034 94.3457026,47.2118248 94.6649267,47.136141 C94.9821681,47.0614402 95.3013922,47.2540897 95.3777284,47.5696026 C95.7336336,49.0351154 96.0042802,50.5369957 96.1847112,52.0329786 C96.223375,52.3543889 95.9913922,52.6472949 95.6662198,52.6856282 C95.6434181,52.687594 95.619625,52.6895598 95.5958319,52.6895598 M18.6082888,52.9205427 C18.5854871,52.9205427 18.5636767,52.9195598 18.5398836,52.9166111 C18.2147112,52.8802436 17.9827284,52.5902863 18.0194095,52.2669103 C18.1909181,50.7669957 18.4536336,49.2641325 18.7986336,47.7996026 C18.8729871,47.4840897 19.194194,47.2884915 19.510444,47.3622094 C19.8276853,47.4359274 20.0259612,47.7514402 19.9506164,48.066953 C19.6165216,49.4872521 19.3617371,50.9449017 19.1961767,52.4005855 C19.1614784,52.6993889 18.9057026,52.9205427 18.6082888,52.9205427 M95.6166509,61.7607991 C95.5938491,61.7607991 95.5710474,61.7598162 95.5472543,61.7568675 C95.2230733,61.7195171 94.9910905,61.4285769 95.0277716,61.1061838 C95.1972974,59.6573803 95.2815647,58.1800726 95.2815647,56.7155427 L95.2815647,56.5602436 C95.2815647,56.2358846 95.5472543,55.9734487 95.8734181,55.9734487 C96.1995819,55.9734487 96.4662629,56.2358846 96.4662629,56.5602436 L96.4662629,56.7155427 C96.4662629,58.2252863 96.3770388,59.7478077 96.2035474,61.2408419 C96.1688491,61.5396453 95.9130733,61.7607991 95.6166509,61.7607991 M18.6251422,61.8374658 C18.3297112,61.8374658 18.0739353,61.6172949 18.0382457,61.3194744 C17.8607888,59.828406 17.7695819,58.3049017 17.7666078,56.7931923 C17.7666078,56.4688333 18.031306,56.2063974 18.3584612,56.2054145 L18.3594526,56.2054145 C18.6856164,56.2054145 18.951306,56.4678504 18.951306,56.7912265 C18.9532888,58.2587051 19.0415216,59.7350299 19.2140216,61.1818675 C19.251694,61.5032778 19.0197112,61.7952009 18.6955302,61.8335342 C18.6717371,61.8364829 18.6489353,61.8374658 18.6251422,61.8374658 M93.549625,70.4418248 C93.4812198,70.4418248 93.4128147,70.4300299 93.3473836,70.4054573 C93.0390647,70.2953718 92.8814353,69.958235 92.9924698,69.6535342 C93.4960905,68.2794316 93.9243664,66.8610983 94.2624267,65.4378504 C94.3377716,65.1223376 94.6619526,64.9287051 94.9742371,65.0014402 C95.2924698,65.076141 95.4907457,65.3916538 95.4144095,65.7081496 C95.065444,67.1746453 94.6252716,68.6372094 94.1047974,70.0555427 C94.017556,70.293406 93.7905302,70.4418248 93.549625,70.4418248 M20.7090216,70.5116111 C20.4681164,70.5116111 20.2410905,70.3641752 20.1528578,70.126312 C19.6313922,68.7109274 19.1882457,67.2503291 18.8353147,65.7838333 C18.7599698,65.4683205 18.9562629,65.1518248 19.2744957,65.0771239 C19.5907457,65.003406 19.9119526,65.1970385 19.9872974,65.5115684 C20.3283319,66.9338333 20.7585905,68.3511838 21.2661767,69.7233205 C21.3772112,70.0270385 21.2195819,70.3641752 20.9132457,70.4752436 C20.8458319,70.4998162 20.7774267,70.5116111 20.7090216,70.5116111 M89.5067802,78.4112265 C89.3947543,78.4112265 89.2827284,78.3797735 89.1816078,78.3139188 C88.9089784,78.1360128 88.8336336,77.7723376 89.0130733,77.5020385 C89.8260043,76.2783205 90.5735043,74.9966111 91.2337629,73.6932778 C91.3804871,73.4033205 91.7344095,73.2863547 92.0288491,73.4328077 C92.3203147,73.5782778 92.4392802,73.9301581 92.2915647,74.2201154 C91.6104871,75.5647308 90.839194,76.8857564 90.0024698,78.1468248 C89.8874698,78.3188333 89.6991078,78.4112265 89.5067802,78.4112265 M24.7657457,78.4692179 C24.5724267,78.4692179 24.385056,78.3768248 24.2710474,78.2067821 C23.4303578,76.9457137 22.6580733,75.6276368 21.9760043,74.2859701 C21.8282888,73.9960128 21.9462629,73.6431496 22.2377284,73.4976795 C22.5321681,73.3512265 22.8860905,73.4681923 23.0328147,73.7571667 C23.6940647,75.0575513 24.4435474,76.336312 25.2584612,77.559047 C25.4388922,77.8293462 25.3635474,78.1930214 25.0909181,78.3719103 C24.9907888,78.437765 24.8767802,78.4692179 24.7657457,78.4692179 M83.7240647,85.2424231 C83.5674267,85.2424231 83.4107888,85.1805 83.2947974,85.0586197 C83.0697543,84.8227222 83.0806595,84.4521667 83.3185905,84.229047 C84.3922543,83.2235342 85.4163491,82.1462692 86.3631164,81.0287051 C86.5732888,80.7800299 86.945056,80.747594 87.195875,80.9559701 C87.4457026,81.1653291 87.4794095,81.5349017 87.2692371,81.7835769 C86.2927284,82.9355427 85.2388922,84.0452436 84.1315216,85.0822094 C84.0165216,85.1893462 83.8707888,85.2424231 83.7240647,85.2424231 M30.558375,85.2886197 C30.4116509,85.2886197 30.2669095,85.2355427 30.1519095,85.1293889 C29.0435474,84.0953718 27.9867371,82.9876368 27.0082457,81.8356709 C26.7980733,81.5879786 26.8297974,81.2174231 27.0806164,81.009047 C27.3294526,80.8016538 27.7032026,80.8321239 27.9143664,81.0798162 C28.8631164,82.1973803 29.8882026,83.2716966 30.9638491,84.2742607 C31.2017802,84.4963974 31.2136767,84.8679359 30.9886336,85.1038333 C30.8726422,85.2266966 30.7160043,85.2886197 30.558375,85.2886197 M76.5187198,90.5756709 C76.3144957,90.5756709 76.1162198,90.4705 76.0051853,90.282765 C75.8416078,90.0026368 75.9387629,89.6428932 76.221306,89.4807137 C77.4972112,88.7464829 78.7423836,87.9316538 79.9231164,87.0588333 C80.1848405,86.8652009 80.554625,86.9192607 80.7499267,87.177765 C80.9462198,87.438235 80.8926853,87.8058419 80.6299698,87.9994744 C79.4145388,88.8988333 78.1307026,89.7392179 76.8151422,90.4950726 C76.7219526,90.5491325 76.6188491,90.5756709 76.5187198,90.5756709 M37.7775991,90.6100726 C37.6764784,90.6100726 37.5753578,90.5845171 37.4821681,90.5314402 C36.1666078,89.7785342 34.8807888,88.9410983 33.6584181,88.0407564 C33.3976853,87.8481068 33.3421681,87.4805 33.5364784,87.2200299 C33.7327716,86.9605427 34.1035474,86.9064829 34.3652716,87.0991325 C35.5499698,87.971953 36.7981164,88.7848162 38.0750129,89.5151154 C38.357556,89.6772949 38.4537198,90.0360556 38.2911336,90.3161838 C38.1810905,90.5049017 37.9828147,90.6100726 37.7775991,90.6100726 M68.2654871,94.1151154 C68.0097112,94.1151154 67.7747543,93.9509701 67.6974267,93.6963974 C67.6042371,93.3857991 67.781694,93.0594744 68.0949698,92.9660983 C69.506694,92.5463974 70.9075129,92.0392179 72.2617371,91.4583205 C72.562125,91.3305427 72.9100991,91.4671667 73.0399698,91.7640043 C73.1698405,92.0618248 73.0310474,92.4068248 72.7316509,92.5355855 C71.3347974,93.1341752 69.8893664,93.6570812 68.4350129,94.0905427 C68.3775129,94.1072521 68.3200129,94.1151154 68.2654871,94.1151154 M46.0427284,94.1367393 C45.9872112,94.1367393 45.9297112,94.1288761 45.874194,94.1121667 C44.4168664,93.6826368 42.9694526,93.1616966 41.5716078,92.5660556 C41.2712198,92.4382778 41.1334181,92.0922949 41.261306,91.7944744 C41.3911767,91.4966538 41.7411336,91.3610128 42.0395388,91.4878077 C43.3947543,92.0657564 44.7985474,92.5699872 46.2122543,92.9877222 C46.5245388,93.0801154 46.7039784,93.4064402 46.6097974,93.7170385 C46.5334612,93.972594 46.2985043,94.1367393 46.0427284,94.1367393 M59.4065216,95.6612265 C59.0962198,95.6612265 58.8344957,95.4213974 58.8166509,95.1088333 C58.7978147,94.7854573 59.0466509,94.5082778 59.3728147,94.4896026 C60.8469957,94.4040897 62.3291078,94.2330641 63.7785043,93.9794744 C64.0997112,93.9244316 64.4080302,94.1377222 64.4645388,94.4561838 C64.5210474,94.7746453 64.3069095,95.0803291 63.9837198,95.1353718 C62.4897112,95.3968248 60.9619957,95.572765 59.4422112,95.6602436 C59.4303147,95.6612265 59.4194095,95.6612265 59.4065216,95.6612265 M54.9036767,95.666141 C54.8917802,95.666141 54.8818664,95.666141 54.8699698,95.666141 C53.349194,95.5806282 51.8204871,95.4066538 50.3264784,95.1491325 C50.0042802,95.0940897 49.7881595,94.7903718 49.8446681,94.4709274 C49.9001853,94.1514829 50.2134612,93.9372094 50.5287198,93.993235 C51.9781164,94.2428932 53.4622112,94.4109701 54.9363922,94.4935342 C55.262556,94.5122094 55.5123836,94.7893889 55.4945388,95.112765 C55.476694,95.4253291 55.2159612,95.666141 54.9036767,95.666141" id="Fill-16" fill="#76B0BD"/>
            <path d="M96.6986422,111.552162 C96.3695043,111.599342 96.0245043,111.476479 95.8044181,111.200282 C95.4752802,110.786479 95.5446767,110.186906 95.9620474,109.858615 C101.770539,105.301863 106.696703,99.8152821 110.602737,93.5541709 C110.882306,93.1030171 111.476142,92.968359 111.928211,93.2445556 C112.379289,93.521735 112.520065,94.1104957 112.239504,94.5577179 C108.216487,101.00853 103.141616,106.660239 97.1566595,111.356564 C97.0178664,111.464684 96.8612284,111.528573 96.6986422,111.552162" id="Fill-18" fill="#C5E3DA"/>
            <path d="M110.801608,19.5890214 C110.428849,19.707953 110.003547,19.5919701 109.748763,19.2676111 C105.193375,13.4910726 99.6842802,8.58342308 93.377125,4.68128632 C92.9270388,4.40214103 92.7882457,3.81338034 93.0697974,3.36714103 C93.3533319,2.9199188 93.9451853,2.78231197 94.3972543,3.06244017 C100.894754,7.08252564 106.570401,12.138594 111.265573,18.0920556 C111.592728,18.5078248 111.520358,19.1073974 111.101004,19.4317564 C111.007815,19.5035085 110.906694,19.5556026 110.801608,19.5890214" id="Fill-20" fill="#C5E3DA"/>
            <path d="M4.16250431,21.0677051 C3.85715948,21.1964658 3.49332328,21.1659957 3.20780603,20.9556538 C2.78151293,20.6391581 2.69427155,20.0425342 3.01250431,19.6189017 C7.58573707,13.5406111 13.147375,8.35676496 19.5407802,4.21381624 C19.9869009,3.92582479 20.5827198,4.04967094 20.8741853,4.49099573 C21.1636681,4.93133761 21.0387543,5.52402991 20.5946164,5.81202137 C14.3905647,9.83210684 8.99448707,14.8616368 4.55509052,20.7610385 C4.45000431,20.901594 4.31220259,21.0047991 4.16250431,21.0677051" id="Fill-22" fill="#C5E3DA"/>
            <path d="M17.7494569,111.427825 C17.4104052,111.625389 16.9712241,111.602782 16.6500172,111.341329 C10.779069,106.543765 5.82613793,100.786885 1.92902586,94.2299188 C1.65937069,93.7758162 1.81105172,93.1909872 2.27006034,92.9226538 L2.27105172,92.9216709 C2.73006034,92.6553034 3.31794828,92.8076538 3.58661207,93.2607735 C7.3707069,99.6260726 12.1779052,105.211927 17.8753621,109.867953 C18.2848017,110.203124 18.3442845,110.804662 18.0062241,111.211585 C17.9318707,111.300047 17.8456207,111.371799 17.7494569,111.427825" id="Fill-24" fill="#C5E3DA"/>
        </g>
    </g>
</svg>