<svg xmlns="http://www.w3.org/2000/svg" xmlns:xlink="http://www.w3.org/1999/xlink" width="116px" height="116px" viewBox="0 0 116 116" version="1.1">
    <title>CE9035DD-C76F-4468-B1F0-70C37776C2B8@1,5x</title>
    <g id="Mes-Bénéficiaires" stroke="none" stroke-width="1" fill="none" fill-rule="evenodd">
        <g id="02_21_UpDéjeuner-Cloture-etap-3-bis" transform="translate(-738.000000, -172.000000)">
            <g id="Illsutration-compte-clos" transform="translate(738.000000, 172.000000)">
                <g id="Group-19-Copy">
                    <path d="M102.2555,58.0803 C102.2555,82.9143 82.1235,103.0463 57.2895,103.0463 C32.4555,103.0463 12.3235,82.9143 12.3235,58.0803 C12.3235,33.2473 32.4555,13.1153 57.2895,13.1153 C82.1235,13.1153 102.2555,33.2473 102.2555,58.0803 Z" id="Stroke-1" stroke="#9C9B9A" stroke-width="1.345" stroke-linecap="round" stroke-dasharray="15.692,15.692"/>
                    <path d="M114.6637,57.7664 C114.6637,89.1904 89.1897,114.6644 57.7667,114.6644 C26.3427,114.6644 0.8687,89.1904 0.8687,57.7664 C0.8687,26.3434 26.3427,0.8694 57.7667,0.8694 C89.1897,0.8694 114.6637,26.3434 114.6637,57.7664 Z" id="Stroke-3" stroke="#9C9B9A" stroke-width="1.738" stroke-linecap="round" stroke-linejoin="round" stroke-dasharray="6.619,6.619"/>
                    <path d="M74.0846,80.3186 C74.0846,89.4286 66.6996,96.8146 57.5886,96.8146 C48.4786,96.8146 41.0936,89.4286 41.0936,80.3186 C41.0936,71.2086 48.4786,63.8226 57.5886,63.8226 C66.6996,63.8226 74.0846,71.2086 74.0846,80.3186" id="Fill-5" fill="#C51720"/>
                    <path d="M50.1256,84.2639 L53.8306,80.3639 L49.9306,76.6569 C49.0566,75.8259 49.2006,74.5069 50.3096,73.3409 C51.3486,72.2469 52.7616,71.9269 53.6356,72.7579 L57.5366,76.4649 L61.2086,72.6009 C61.9366,71.8349 63.5026,71.9369 64.5966,72.9759 C65.7626,74.0849 65.8356,75.5409 65.1076,76.3059 L61.4366,80.1709 L65.2986,83.8409 C66.0636,84.5689 65.9996,86.1699 64.9606,87.2639 C63.8526,88.4299 62.3586,88.4679 61.5936,87.7409 L57.7296,84.0699 L54.0246,87.9699 C53.1926,88.8449 51.8746,88.6989 50.7076,87.5909 C49.6146,86.5519 49.2936,85.1389 50.1256,84.2639" id="Fill-7" fill="#F9F9F9"/>
                    <path d="M46.4029,14.9397 C46.4029,14.9027 46.4149,14.8657 46.4149,14.8407 C46.8209,6.0357 53.0719,5.0897 55.7489,5.0897 L55.8959,5.0897 C59.2119,5.1637 64.8479,6.5147 65.2289,14.8407 C65.2289,14.8777 65.2289,14.9157 65.2419,14.9397 C65.2549,15.0247 66.1139,23.3767 62.2089,27.7737 C60.6619,29.5177 58.5979,30.3767 55.8829,30.4017 L55.7599,30.4017 C53.0589,30.3767 50.9829,29.5177 49.4479,27.7737 C45.5549,23.4017 46.3899,15.0137 46.4029,14.9397 M55.6259,33.7177 L56.0189,33.7177 C59.6169,33.6567 62.5279,32.3917 64.6769,29.9717 C69.4049,24.6417 68.6199,15.5047 68.5329,14.6327 C68.2259,8.0867 65.1319,4.9557 62.5779,3.4937 C60.6739,2.4007 58.4509,1.8117 55.9689,1.7617 L55.7599,1.7617 C54.3979,1.7617 51.7199,1.9827 49.1539,3.4447 C46.5749,4.9057 43.4299,8.0377 43.1239,14.6327 C43.0379,15.5047 42.2519,24.6417 46.9799,29.9717 C49.1169,32.3917 52.0269,33.6567 55.6259,33.7177" id="Fill-13" fill="#F59100"/>
                    <path d="M81.0602,48.8723 L81.0602,48.8353 C81.0602,48.7373 81.0472,48.6393 81.0472,48.5283 C80.9742,46.0973 80.8142,40.4113 75.4842,38.5933 C75.4482,38.5803 75.3992,38.5683 75.3622,38.5563 C69.8232,37.1433 65.2172,33.9513 65.1682,33.9143 C64.4192,33.3863 63.3872,33.5703 62.8602,34.3193 C62.3312,35.0683 62.5152,36.1003 63.2642,36.6283 C63.4732,36.7753 68.3622,40.1773 74.4772,41.7493 C77.3382,42.7683 77.6582,45.8263 77.7442,48.6263 C77.7442,48.7373 77.7442,48.8353 77.7562,48.9343 C77.7682,50.0393 77.6952,51.7463 77.4982,52.7283 C75.5092,53.8583 67.7102,57.7643 55.8462,57.7643 C44.0332,57.7643 36.1852,53.8463 34.1832,52.7163 C33.9862,51.7333 33.9012,50.0263 33.9252,48.9213 C33.9252,48.8233 33.9372,48.7253 33.9372,48.6143 C34.0242,45.8143 34.3422,42.7563 37.2052,41.7363 C43.3202,40.1653 48.2072,36.7513 48.4162,36.6153 C49.1652,36.0883 49.3502,35.0563 48.8222,34.3073 C48.2932,33.5583 47.2622,33.3733 46.5132,33.9013 C46.4642,33.9383 41.8832,37.1313 36.3202,38.5443 C36.2702,38.5563 36.2342,38.5683 36.1972,38.5803 C30.8672,40.4113 30.7072,46.0973 30.6332,48.5163 C30.6332,48.6263 30.6332,48.7253 30.6222,48.8233 L30.6222,48.8603 C30.6092,49.4983 30.5972,52.7773 31.2472,54.4233 C31.3712,54.7433 31.5912,55.0133 31.8862,55.1973 C32.2542,55.4423 41.0852,61.0673 55.8592,61.0673 C70.6332,61.0673 79.4632,55.4313 79.8312,55.1973 C80.1152,55.0133 80.3472,54.7433 80.4702,54.4233 C81.0842,52.7893 81.0722,49.5113 81.0602,48.8723" id="Fill-15" fill="#F59100"/>
                    <path d="M55.7496,4.951 C53.0746,4.951 46.8306,5.895 46.4266,14.691 C46.4266,14.716 46.4136,14.753 46.4136,14.79 C46.4006,14.863 45.5666,23.242 49.4556,27.61 C50.9886,29.351 53.0626,30.21 55.7616,30.235 L55.8846,30.235 C58.5956,30.21 60.6566,29.351 62.2016,27.61 C66.1036,23.218 65.2446,14.875 65.2326,14.79 C65.2206,14.765 65.2206,14.728 65.2206,14.691 C64.8396,6.374 59.2086,5.025 55.8956,4.951 L55.7496,4.951 Z" id="Fill-17" fill="#FEFEFE"/>
                </g>
                <path d="M113.7011,33.1929 C113.7011,45.3539 104.2401,55.2129 92.5701,55.2129 C80.8991,55.2129 71.4391,45.3539 71.4391,33.1929 C71.4391,21.0319 80.8991,11.1729 92.5701,11.1729 C104.2401,11.1729 113.7011,21.0319 113.7011,33.1929" id="Fill-17" fill="#3FB28C"/>
                <path d="M103.5576,34.2798 C103.3186,34.5408 103.2726,34.9398 103.4546,35.2488 C103.4546,35.2548 103.6896,35.6708 103.7176,36.2418 C103.7576,37.0208 103.3986,37.7098 102.6456,38.2988 C102.3766,38.5128 102.2686,38.8818 102.3826,39.2138 C102.3826,39.2198 102.6276,40.0048 102.2286,40.7478 C101.8466,41.4608 100.9956,41.9718 99.7066,42.2578 C98.6746,42.4898 97.2716,42.5308 95.5486,42.3888 L95.4686,42.3888 C91.7996,42.4718 88.0916,41.9718 88.0516,41.9668 L88.0466,41.9668 L87.4706,41.8948 C87.5046,41.7288 87.5216,41.5508 87.5216,41.3718 L87.5216,31.7058 C87.5216,31.4498 87.4816,31.1998 87.4126,30.9678 C87.5156,30.5708 87.8006,29.6838 88.4746,28.9288 C91.0366,26.8128 93.5396,19.6738 93.6486,19.3638 C93.6946,19.2388 93.7046,19.1028 93.6826,18.9658 C93.5856,18.2998 93.6196,17.4858 93.7566,17.2418 C94.0596,17.2478 94.8746,17.3368 95.3666,18.0438 C95.9476,18.8828 95.9246,20.3808 95.2966,22.3658 C94.3386,25.3918 94.2586,26.9858 95.0176,27.6868 C95.3946,28.0378 95.8966,28.0558 96.2616,27.9188 C96.6096,27.8358 96.9406,27.7638 97.2536,27.7108 C97.2776,27.7048 97.3056,27.6988 97.3286,27.6928 C99.0796,27.2948 102.2176,27.0508 103.3066,28.0848 C104.2316,28.9648 103.5756,30.1308 103.5006,30.2548 C103.2896,30.5878 103.3526,31.0218 103.6376,31.2898 C103.6436,31.2958 104.2426,31.8838 104.2706,32.6748 C104.2936,33.2038 104.0546,33.7448 103.5576,34.2798 L103.5576,34.2798 Z M81.6686,42.2398 C81.2056,42.2398 80.8356,41.8478 80.8356,41.3718 L80.8356,31.7058 C80.8356,31.2238 81.2116,30.8378 81.6686,30.8378 L85.1486,30.8378 C85.6106,30.8378 85.9816,31.2298 85.9816,31.7058 L85.9816,41.3658 C85.9816,41.8478 85.6046,42.2338 85.1486,42.2338 L81.6686,42.2338 L81.6686,42.2398 Z M105.0186,34.9748 C105.5776,34.2318 105.8456,33.4358 105.8116,32.6148 C105.7776,31.7118 105.3896,31.0048 105.0706,30.5708 C105.4406,29.6068 105.5826,28.0918 104.3456,26.9138 C103.4386,26.0518 101.8986,25.6658 99.7646,25.7728 C98.2636,25.8438 97.0086,26.1348 96.9566,26.1478 L96.9526,26.1478 C96.6666,26.2008 96.3646,26.2658 96.0556,26.3378 C96.0336,25.9568 96.0966,25.0118 96.7696,22.8838 C97.5676,20.3508 97.5226,18.4128 96.6206,17.1168 C95.6736,15.7558 94.1616,15.6488 93.7166,15.6488 C93.2886,15.6488 92.8956,15.8328 92.6166,16.1718 C91.9836,16.9388 92.0566,18.3528 92.1366,19.0078 C91.3836,21.1118 89.2736,26.2718 87.4876,27.7048 C87.4536,27.7288 87.4246,27.7588 87.3966,27.7878 C86.8706,28.3648 86.5176,28.9888 86.2786,29.5358 C85.9416,29.3458 85.5596,29.2378 85.1486,29.2378 L81.6686,29.2378 C80.3566,29.2378 79.2946,30.3498 79.2946,31.7118 L79.2946,41.3718 C79.2946,42.7388 80.3626,43.8448 81.6686,43.8448 L85.1486,43.8448 C85.6566,43.8448 86.1296,43.6788 86.5176,43.3928 L87.8586,43.5598 C88.0636,43.5898 91.7146,44.0708 95.4626,43.9938 C96.1416,44.0478 96.7806,44.0768 97.3736,44.0768 C98.3956,44.0768 99.2856,43.9938 100.0266,43.8268 C101.7726,43.4408 102.9646,42.6678 103.5696,41.5328 C104.0316,40.6648 104.0316,39.8018 103.9566,39.2558 C105.0926,38.1858 105.2916,37.0028 105.2516,36.1708 C105.2296,35.6888 105.1266,35.2788 105.0186,34.9748 L105.0186,34.9748 Z" id="Fill-19" fill="#FAFBFC"/>
            </g>
        </g>
    </g>
</svg>