<svg xmlns="http://www.w3.org/2000/svg" xmlns:xlink="http://www.w3.org/1999/xlink" width="199px" height="253px" viewBox="0 0 199 253" version="1.1">
    <title>3EA7A466-F802-420D-B75A-4E366AAFB51A@1,5x</title>
    <defs>
        <polygon id="path-1" points="0.538442689 0.562981982 7.72035865 0.562981982 7.72035865 7.76179758 0.538442689 7.76179758"/>
    </defs>
    <g id="Financeur_Extranet-/-UI" stroke="none" stroke-width="1" fill="none" fill-rule="evenodd">
        <g id="01_2_04_Chèques_déjeuner" transform="translate(-854.000000, -129.000000)">
            <g id="Group-2" transform="translate(805.000000, 105.000000)">
                <g id="V2-/-illustration-/-avatar-/-zen" transform="translate(49.000000, 24.000000)">
                    <g id="Group-102" transform="translate(0.748387, 0.000000)">
                        <path d="M23.7517974,17.5862351 C23.7552185,15.385591 25.5410338,13.6054739 27.7405383,13.6088879 C29.9400428,13.6111721 31.7212995,15.3969874 31.7190225,17.5964919 C31.7156014,19.7959964 29.929786,21.5772532 27.7302815,21.5749761 C25.5296374,21.571555 23.7495203,19.7868793 23.7517974,17.5862351" id="Fill-1" fill="#585857"/>
                        <path d="M164.095572,85.2056135 C164.248284,83.0129468 166.150342,81.3593297 168.343009,81.5131811 C170.534536,81.6670324 172.188153,83.5679514 172.035441,85.7594784 C171.88273,87.952145 169.980671,89.6057622 167.788005,89.4530505 C165.595338,89.3003387 163.941721,87.3982802 164.095572,85.2056135 Z" id="Stroke-3" stroke="#585857" stroke-width="0.708671171"/>
                        <path d="M184.57068,53.9879207 L182.656085,53.8671189 L182.535283,55.7817135 C182.507932,56.2113577 182.113617,56.4734748 181.541518,56.4370063 C181.004747,56.4028171 180.593337,56.0905559 180.620689,55.6609117 L180.741491,53.7451775 L178.84513,53.6255153 C178.469049,53.6015829 178.137414,53.1502856 178.171603,52.6135153 C178.208072,52.0402766 178.588711,51.6869883 178.965932,51.7109207 L180.862292,51.8305829 L180.983094,49.9342225 C181.005887,49.5581414 181.459464,49.2105514 181.996234,49.2436009 C182.568333,49.2800694 182.920482,49.6800829 182.896549,50.056164 L182.776887,51.9525243 L184.691482,52.0721865 C185.121126,52.1006775 185.383243,52.4938532 185.347914,53.0659523 C185.313725,53.6038622 185.000324,54.0141324 184.57068,53.9879207" id="Fill-5" fill="#585857"/>
                        <path d="M20.3641068,70.3279599 L18.4495122,70.2071581 L18.3275707,72.1217527 C18.301359,72.5513968 17.9070437,72.8146536 17.333805,72.7770455 C16.7981743,72.7439959 16.3867644,72.430595 16.4141158,72.0020905 L16.5349176,70.0863563 L14.6374176,69.9666941 C14.2613365,69.9427617 13.930841,69.4914644 13.9650302,68.9535545 C14.0014986,68.3814554 14.3821383,68.0270275 14.759359,68.0520995 L16.6557194,68.1706221 L16.7753815,66.2742617 C16.799314,65.8993203 17.2528905,65.5505905 17.7896608,65.5847797 C18.3617599,65.6201086 18.7139086,66.0201221 18.6899761,66.3962032 L18.570314,68.2925635 L20.4849086,68.4133653 C20.9145527,68.4407167 21.1766698,68.8338923 21.1402014,69.4071311 C21.1060122,69.9439014 20.7937509,70.3553113 20.3641068,70.3279599" id="Fill-7" fill="#585857"/>
                        <path d="M61.8129144,9.48522072 L59.8983198,9.36441892 L59.777518,11.2790135 C59.7501667,11.7086577 59.3558514,11.9707748 58.7837523,11.9343063 C58.246982,11.9001171 57.8355721,11.5878559 57.8629234,11.1582117 L57.9837252,9.24247748 L56.0862252,9.12281532 C55.7112838,9.09888288 55.3796486,8.64758559 55.4138378,8.11081532 C55.4503063,7.53757658 55.8309459,7.18428829 56.2081667,7.20822072 L58.104527,7.32788288 L58.2253288,5.43152252 C58.2481216,5.05544144 58.7016982,4.70785135 59.2384685,4.7409009 C59.8105676,4.77736937 60.1627162,5.17738288 60.1387838,5.55346396 L60.0191216,7.44982432 L61.9337162,7.56948649 C62.3633604,7.59797748 62.6254775,7.99115315 62.589009,8.56325225 C62.5548198,9.10116216 62.2425586,9.51143243 61.8129144,9.48522072" id="Fill-9" fill="#585857"/>
                        <g id="Group-13" transform="translate(148.153153, 0.576658)">
                            <mask id="mask-2" fill="white">
                                <use xlink:href="#path-1"/>
                            </mask>
                            <g id="Clip-12"/>
                            <path d="M6.93994955,5.30821351 L5.02535495,5.18855135 L4.90455315,7.10314595 C4.8772018,7.53165045 4.48288649,7.79490721 3.91078739,7.75843874 C3.37401712,7.72424955 2.96260721,7.41084865 2.98995856,6.98234414 L3.11076036,5.06660991 L1.2144,4.94694775 C0.838318919,4.92301532 0.506683784,4.47171802 0.540872973,3.93380811 C0.577341441,3.36170901 0.959120721,3.00728108 1.3352018,3.03235315 L3.23156216,3.15087568 L3.35236396,1.25565495 C3.3762964,0.879573874 3.82873333,0.530844144 4.3655036,0.565033333 C4.9376027,0.600362162 5.28975135,1.00037568 5.26581892,1.37645676 L5.14615676,3.27281712 L7.06075135,3.39361892 C7.4903955,3.42097027 7.75251261,3.81414595 7.71718378,4.38738468 C7.68299459,4.92415495 7.36959369,5.33556486 6.93994955,5.30821351" id="Fill-11" fill="#585857" mask="url(#mask-2)"/>
                        </g>
                        <path d="M147.268679,45.8345968 L145.354084,45.713795 L145.233282,47.6283896 C145.205931,48.0580338 144.811616,48.3212905 144.239517,48.2836824 C143.702746,48.2494932 143.291336,47.937232 143.318688,47.5075878 L143.43949,45.5918536 L141.54199,45.4733311 C141.167048,45.448259 140.835413,44.9969617 140.869602,44.4601914 C140.906071,43.8869527 141.28671,43.5336644 141.663931,43.5575968 L143.560291,43.677259 L143.679954,41.7808986 C143.703886,41.4048176 144.157463,41.0572275 144.694233,41.090277 C145.266332,41.1267455 145.618481,41.526759 145.594548,41.9028401 L145.474886,43.7992005 L147.389481,43.9188626 C147.819125,43.9473536 148.081242,44.3405293 148.044773,44.9126284 C148.010584,45.4505383 147.698323,45.8608086 147.268679,45.8345968" id="Fill-14" fill="#585857"/>
                        <path d="M121.109732,19.2244671 C121.262444,17.0318005 123.164503,15.3781833 125.357169,15.5320347 C127.549836,15.685886 129.203453,17.586805 129.049602,19.778332 C128.89689,21.9709986 126.994832,23.6246158 124.802165,23.4719041 C122.609498,23.3191923 120.957021,21.4171338 121.109732,19.2244671" id="Fill-16" fill="#585857"/>
                        <path d="M15.7559739,107.773555 L13.8413793,107.652754 L13.7194378,109.567348 C13.6932261,109.996992 13.2989108,110.260249 12.7256721,110.222641 C12.1889018,110.189591 11.7786315,109.876191 11.8059829,109.447686 L11.9267847,107.531952 L10.0292847,107.41229 C9.6532036,107.387218 9.32270811,106.93706 9.3568973,106.39915 C9.39336577,105.827051 9.77400541,105.472623 10.1500865,105.496555 L12.0475865,105.616218 L12.1672486,103.719857 C12.1911811,103.343776 12.6447577,102.996186 13.1815279,103.030375 C13.753627,103.065704 14.1057757,103.465718 14.0818432,103.841799 L13.9621811,105.738159 L15.8767757,105.858961 C16.3064198,105.886312 16.5685369,106.279488 16.5320685,106.852727 C16.4978793,107.389497 16.185618,107.799767 15.7559739,107.773555" id="Fill-18" fill="#585857"/>
                        <path d="M195.195768,97.0037329 L193.281173,96.8840707 L193.159232,98.7986653 C193.13302,99.2271698 192.738705,99.4904266 192.165466,99.4528185 C191.629836,99.4197689 191.218426,99.106368 191.245777,98.6778635 L191.366579,96.7621293 L189.469079,96.6424671 C189.092998,96.6185347 188.762502,96.1672374 188.796691,95.6293275 C188.83316,95.0572284 189.2138,94.7028005 189.59102,94.7278725 L191.487381,94.846395 L191.607043,92.9500347 C191.630975,92.5750932 192.084552,92.2263635 192.621322,92.2605527 C193.193421,92.2958815 193.54557,92.695895 193.521637,93.0719761 L193.401975,94.9683365 L195.31657,95.0891383 C195.746214,95.1164896 196.008331,95.5096653 195.971863,96.0829041 C195.937673,96.6196743 195.625412,97.0310842 195.195768,97.0037329" id="Fill-20" fill="#585857"/>
                        <path d="M35.4280914,60.2904698 C33.3026635,60.8477536 31.1270914,59.5770554 30.568668,57.4516275 C30.0102446,55.3261995 31.2809428,53.1494878 33.4075104,52.5910644 C35.5329383,52.0337806 37.7085104,53.3044788 38.2669338,55.4299068 C38.8242176,57.5564743 37.5535194,59.7320464 35.4280914,60.2904698" id="Fill-22" fill="#585857"/>
                        <path d="M176.873668,110.916454 C174.7471,111.474877 172.571528,110.204179 172.013105,108.077611 C171.455821,105.952183 172.726519,103.775472 174.851947,103.218188 C176.978514,102.659764 179.154086,103.930463 179.71251,106.055891 C180.269794,108.183598 178.999095,110.35917 176.873668,110.916454" id="Fill-24" fill="#585857"/>
                        <path d="M131.915226,125.929952 L122.60323,111.204668 C120.347883,107.638736 116.135775,106.071732 112.248464,106.998259 C111.459834,106.80452 110.639293,106.689416 109.790262,106.689416 L83.8965095,106.689416 C82.6041581,106.689416 81.3733473,106.937858 80.2348473,107.37434 C76.4295905,106.246096 72.1673383,107.552123 69.7102752,110.949389 L59.5013833,125.069524 C56.3901671,129.372804 57.3565815,135.383263 61.6610005,138.49334 L63.6667662,139.945241 C66.6822527,142.125371 70.5342347,142.295177 73.642032,140.724754 L68.9569734,189.416997 L125.092203,189.416997 L120.044739,141.854137 C122.316041,142.250732 124.733217,141.848439 126.834712,140.519619 L128.927091,139.196497 C133.416131,136.356515 134.752928,130.417853 131.915226,125.929952" id="Fill-26" fill="#EDECEC"/>
                        <path d="M131.915226,125.929952 L122.60323,111.204668 C120.347883,107.638736 116.135775,106.071732 112.248464,106.998259 C111.459834,106.80452 110.639293,106.689416 109.790262,106.689416 L83.8965095,106.689416 C82.6041581,106.689416 81.3733473,106.937858 80.2348473,107.37434 C76.4295905,106.246096 72.1673383,107.552123 69.7102752,110.949389 L59.5013833,125.069524 C56.3901671,129.372804 57.3565815,135.383263 61.6610005,138.49334 L63.6667662,139.945241 C66.6822527,142.125371 70.5342347,142.295177 73.642032,140.724754 L68.9569734,189.416997 L125.092203,189.416997 L120.044739,141.854137 C122.316041,142.250732 124.733217,141.848439 126.834712,140.519619 L128.927091,139.196497 C133.416131,136.356515 134.752928,130.417853 131.915226,125.929952 Z" id="Stroke-28" stroke="#585857" stroke-width="0.62"/>
                        <path d="M68.1015599,135.779402 L68.1015599,135.779402 C65.3094428,134.310406 61.855195,135.383947 60.3861995,138.177204 L48.1533077,161.438388 L26.1229338,148.71887 C23.3912176,147.141609 19.8970824,148.077253 18.3198212,150.808969 C16.7425599,153.541825 17.6782041,157.034821 20.4099203,158.612082 L47.8615599,174.46105 C50.5944158,176.039451 54.0874113,175.102668 55.6646725,172.369812 C56.0316365,171.736172 56.2561455,171.060366 56.3609923,170.376582 L70.4993617,143.494762 C71.9672176,140.701505 70.893677,137.247258 68.1015599,135.779402" id="Fill-30" fill="#FCFCFC"/>
                        <path d="M68.1015599,135.779402 L68.1015599,135.779402 C65.3094428,134.310406 61.855195,135.383947 60.3861995,138.177204 L48.1533077,161.438388 L26.1229338,148.71887 C23.3912176,147.141609 19.8970824,148.077253 18.3198212,150.808969 C16.7425599,153.541825 17.6782041,157.034821 20.4099203,158.612082 L47.8615599,174.46105 C50.5944158,176.039451 54.0874113,175.102668 55.6646725,172.369812 C56.0316365,171.736172 56.2561455,171.060366 56.3609923,170.376582 L70.4993617,143.494762 C71.9672176,140.701505 70.893677,137.247258 68.1015599,135.779402 Z" id="Stroke-32" stroke="#585857" stroke-width="0.62"/>
                        <path d="M103.922827,106.689644 C103.922827,106.689644 106.734318,115.61986 90.627791,116.376581 L90.627791,188.050797 L90.2232189,189.417225" id="Stroke-34" stroke="#585857" stroke-width="0.62" stroke-linecap="round" stroke-linejoin="round"/>
                        <path d="M100.72591,125.453583 C100.72591,126.38011 99.9748874,127.131132 99.0483604,127.131132 C98.1218333,127.131132 97.3719505,126.38011 97.3719505,125.453583 C97.3719505,124.528195 98.1218333,123.776033 99.0483604,123.776033 C99.9748874,123.776033 100.72591,124.528195 100.72591,125.453583" id="Fill-36" fill="#585857"/>
                        <path d="M167.42936,185.086595 L167.231063,184.774333 C165.685711,182.329806 163.543189,180.500685 161.121455,179.322297 C159.151018,178.328532 156.940117,177.735919 154.585621,177.691473 C154.585621,177.691473 154.477355,177.734779 154.269941,177.813414 C151.621418,177.862419 148.952382,178.597486 146.548882,180.116626 L145.287301,180.914374 C134.313711,184.398252 115.229306,189.475347 96.8434995,189.621221 C78.6594095,189.764815 60.0354185,183.806779 49.1757923,179.594671 L46.8053419,178.224824 C45.1175356,177.250432 44.5420176,176.513086 42.2798329,175.996829 C41.0957473,175.461198 39.6700581,175.532995 39.6700581,175.532995 C31.6014095,175.381423 24.9048869,181.55941 24.2758059,189.49814 C23.4780581,195.352468 26.1960986,201.374324 31.6287608,204.511752 L62.3397698,222.242266 C69.2870131,226.252658 78.0952878,224.056572 82.4031257,217.396518 L96.1916257,221.062739 L110.877022,217.754365 C111.176747,218.43473 111.511801,219.105977 111.920932,219.752153 L112.11809,220.065554 C116.54331,227.062941 125.804022,229.148482 132.801409,224.722122 L162.771653,205.768775 C169.76904,201.344694 171.854581,192.083982 167.42936,185.086595" id="Fill-38" fill="#EDECEC"/>
                        <path d="M167.42936,185.086595 L167.231063,184.774333 C165.685711,182.329806 163.543189,180.500685 161.121455,179.322297 C159.151018,178.328532 156.940117,177.735919 154.585621,177.691473 C154.585621,177.691473 154.477355,177.734779 154.269941,177.813414 C151.621418,177.862419 148.952382,178.597486 146.548882,180.116626 L145.287301,180.914374 C134.313711,184.398252 115.229306,189.475347 96.8434995,189.621221 C78.6594095,189.764815 60.0354185,183.806779 49.1757923,179.594671 L46.8053419,178.224824 C45.1175356,177.250432 44.5420176,176.513086 42.2798329,175.996829 C41.0957473,175.461198 39.6700581,175.532995 39.6700581,175.532995 C31.6014095,175.381423 24.9048869,181.55941 24.2758059,189.49814 C23.4780581,195.352468 26.1960986,201.374324 31.6287608,204.511752 L62.3397698,222.242266 C69.2870131,226.252658 78.0952878,224.056572 82.4031257,217.396518 L96.1916257,221.062739 L110.877022,217.754365 C111.176747,218.43473 111.511801,219.105977 111.920932,219.752153 L112.11809,220.065554 C116.54331,227.062941 125.804022,229.148482 132.801409,224.722122 L162.771653,205.768775 C169.76904,201.344694 171.854581,192.083982 167.42936,185.086595 Z" id="Stroke-40" stroke="#585857" stroke-width="0.62"/>
                        <path d="M1.55218919,140.512667 C0.907153153,141.888212 -0.0638198198,146.366996 1.06784234,148.772775 C2.03881532,150.834383 6.94724324,154.711437 9.58550901,154.906316 C13.592482,155.201482 17.6860676,155.174131 17.6860676,155.174131 C17.6860676,155.174131 17.8866441,149.116946 24.1797342,148.161928 C24.1797342,148.161928 13.9959144,143.207915 11.7895721,140.961685 C10.6373964,139.787856 8.42307658,139.192964 8.05611261,141.153145 C7.30622973,145.149861 14.0711306,148.161928 14.0711306,148.161928 C14.0711306,148.161928 5.24576126,149.872527 4.3784955,140.868235 C4.06395495,137.596329 2.19722523,139.137122 1.55218919,140.512667" id="Fill-42" fill="#FCFCFC"/>
                        <path d="M1.55218919,140.512667 C0.907153153,141.888212 -0.0638198198,146.366996 1.06784234,148.772775 C2.03881532,150.834383 6.94724324,154.711437 9.58550901,154.906316 C13.592482,155.201482 17.6860676,155.174131 17.6860676,155.174131 C17.6860676,155.174131 17.8866441,149.116946 24.1797342,148.161928 C24.1797342,148.161928 13.9959144,143.207915 11.7895721,140.961685 C10.6373964,139.787856 8.42307658,139.192964 8.05611261,141.153145 C7.30622973,145.149861 14.0711306,148.161928 14.0711306,148.161928 C14.0711306,148.161928 5.24576126,149.872527 4.3784955,140.868235 C4.06395495,137.596329 2.19722523,139.137122 1.55218919,140.512667 Z" id="Stroke-44" stroke="#585857" stroke-width="0.67027027" stroke-linecap="round" stroke-linejoin="round"/>
                        <path d="M168.065393,246.96652 C168.065393,249.931862 137.165204,252.335362 99.0488162,252.335362 C60.9324288,252.335362 30.0322396,249.931862 30.0322396,246.96652 C30.0322396,244.002317 60.9324288,241.598817 99.0488162,241.598817 C137.165204,241.598817 168.065393,244.002317 168.065393,246.96652" id="Fill-46" fill="#D2D2D2"/>
                        <path d="M168.065393,246.96652 C168.065393,249.931862 137.165204,252.335362 99.0488162,252.335362 C60.9324288,252.335362 30.0322396,249.931862 30.0322396,246.96652 C30.0322396,244.002317 60.9324288,241.598817 99.0488162,241.598817 C137.165204,241.598817 168.065393,244.002317 168.065393,246.96652 Z" id="Stroke-48" stroke="#FCFCFC" stroke-width="0.5"/>
                        <path d="M84.6424036,211.890349 C84.6424036,211.890349 80.9146423,210.323345 78.6353631,211.462984 C76.3549441,212.602624 74.1884892,213.84939 74.1463225,215.096155 C74.1041559,216.342921 26.6005568,183.531556 26.6005568,183.531556 C26.6005568,183.531556 30.4741919,175.046939 40.7343676,175.997399 C40.7343676,175.997399 44.4507324,176.616223 50.4748676,181.055119 C56.4978631,185.494016 79.2986333,197.287007 79.2986333,197.287007 C79.2986333,197.287007 87.5974892,204.976155 84.6424036,211.890349" id="Fill-50" fill="#FCFCFC"/>
                        <path d="M86.1393203,230.311598 L76.3931221,224.685197 C73.2796266,222.886846 72.2129239,218.904945 74.0101356,215.792589 L74.9845275,214.102504 C76.7828788,210.990148 80.7636401,209.922305 83.8771356,211.720657 L93.6233338,217.348197 C96.7379689,219.145409 97.8046716,223.12617 96.0063203,226.240805 L95.0319284,227.928612 C93.2347167,231.043247 89.2528158,232.10881 86.1393203,230.311598" id="Fill-52" fill="#D7D7D7"/>
                        <path d="M86.1393203,230.311598 L76.3931221,224.685197 C73.2796266,222.886846 72.2129239,218.904945 74.0101356,215.792589 L74.9845275,214.102504 C76.7828788,210.990148 80.7636401,209.922305 83.8771356,211.720657 L93.6233338,217.348197 C96.7379689,219.145409 97.8046716,223.12617 96.0063203,226.240805 L95.0319284,227.928612 C93.2347167,231.043247 89.2528158,232.10881 86.1393203,230.311598 Z" id="Stroke-54" stroke="#585857" stroke-width="0.537612613"/>
                        <path d="M112.499641,210.404601 C112.499641,210.404601 115.691772,209.52252 117.781871,210.540218 C119.87083,211.559056 120.962605,212.597268 121.664623,213.881641 C122.197974,214.859452 166.134501,184.105137 166.134501,184.105137 C166.134501,184.105137 161.937209,177.23311 152.535182,178.082141 C152.535182,178.082141 149.129938,178.633727 143.609524,182.599673 C138.089109,186.564479 117.193817,197.099308 117.193817,197.099308 C117.193817,197.099308 109.791857,204.227754 112.499641,210.404601" id="Fill-56" fill="#FCFCFC"/>
                        <path d="M47.583032,179.092318 C47.583032,179.092318 66.5272617,189.630566 95.5413473,190.469341 C95.5413473,190.469341 127.690582,189.133683 145.566969,181.273588 L137.145032,192.14803 C137.145032,192.14803 75.1908023,208.098426 53.21855,186.482881 L47.583032,179.092318 Z" id="Fill-58" fill="#FCFCFC"/>
                        <path d="M58.8781144,134.195645 C58.8781144,133.181365 61.947164,130.012027 68.9399928,131.510654 C75.931682,133.00814 74.2267811,139.981595 74.2267811,139.981595 L71.7651595,140.955987 C71.7651595,140.955987 72.177709,137.037906 68.0066279,135.121032 C63.7842631,133.181365 60.5921324,136.83619 60.5921324,136.83619 C60.5921324,136.83619 58.8781144,135.209924 58.8781144,134.195645" id="Fill-60" fill="#FCFCFC"/>
                        <path d="M120.117106,141.189271 C119.579196,140.620591 119.075476,136.647807 124.326935,133.275614 C129.577255,129.90228 131.951124,133.373623 132.364814,133.551406 C132.556273,133.63346 131.651399,136.406204 131.651399,136.406204 C131.651399,136.406204 130.314602,134.942906 126.654079,136.406204 C123.085868,137.834172 123.098404,141.642848 123.098404,141.642848 C123.098404,141.642848 120.655016,141.757951 120.117106,141.189271" id="Fill-62" fill="#FCFCFC"/>
                        <path d="M119.545007,224.005744 L108.776552,230.816231 C105.640264,232.799204 101.490836,231.864699 99.5078631,228.72955 L98.6884622,227.432641 C96.7054892,224.297492 97.6399937,220.146924 100.775142,218.163951 L111.543597,211.353465 C114.679886,209.370492 118.829314,210.306136 120.812286,213.440145 L121.632827,214.737055 C123.61466,217.873343 122.680156,222.022771 119.545007,224.005744" id="Fill-64" fill="#D7D7D7"/>
                        <path d="M119.545007,224.005744 L108.776552,230.816231 C105.640264,232.799204 101.490836,231.864699 99.5078631,228.72955 L98.6884622,227.432641 C96.7054892,224.297492 97.6399937,220.146924 100.775142,218.163951 L111.543597,211.353465 C114.679886,209.370492 118.829314,210.306136 120.812286,213.440145 L121.632827,214.737055 C123.61466,217.873343 122.680156,222.022771 119.545007,224.005744 Z" id="Stroke-66" stroke="#585857" stroke-width="0.55786036"/>
                        <path d="M91.6923284,107.099117 L82.9421752,107.099117 C82.9421752,107.099117 86.0625086,116.3245 89.9293059,116.866968 L90.2221932,115.714792 C90.2221932,115.714792 92.2347968,115.850409 94.2701932,115.510797 C96.30445,115.171184 101.324563,113.746635 102.206644,111.983612 C103.087585,110.21945 103.473923,110.902094 103.698432,108.7949 C103.922941,106.689986 103.698432,107.099117 103.698432,107.099117 L103.087585,107.067207 C103.087585,107.067207 100.950761,111.729473 97.8144725,111.95854 C94.6770446,112.186468 92.5060311,111.508382 91.6923284,107.099117" id="Fill-68" fill="#D7D7D7"/>
                        <path d="M102.6674,106.464793 L102.412121,99.3682572 C102.310693,96.5271356 99.9721523,94.3800545 97.1891523,94.5726536 L96.9293144,94.5908878 C94.1463144,94.7834869 91.9741613,97.2428293 92.0755892,100.083951 L92.3308685,107.180487 C92.4322964,110.021609 94.7708369,112.169829 97.5526973,111.976091 L97.8136748,111.957856 C100.596675,111.765257 102.768828,109.305915 102.6674,106.464793" id="Fill-70" fill="#FCFCFC"/>
                        <path d="M102.6674,106.464793 L102.412121,99.3682572 C102.310693,96.5271356 99.9721523,94.3800545 97.1891523,94.5726536 L96.9293144,94.5908878 C94.1463144,94.7834869 91.9741613,97.2428293 92.0755892,100.083951 L92.3308685,107.180487 C92.4322964,110.021609 94.7708369,112.169829 97.5526973,111.976091 L97.8136748,111.957856 C100.596675,111.765257 102.768828,109.305915 102.6674,106.464793 Z" id="Stroke-72" stroke="#585857" stroke-width="0.62"/>
                        <path d="M95.1529581,66.3415005 C91.8354671,71.3148878 72.5994896,78.1789374 72.5994896,78.1789374 C72.5994896,78.1789374 59.372832,61.6404869 66.0545392,48.3728023 C72.7362464,35.1051176 79.0954356,17.0463878 101.253449,31.2349014 C123.410323,45.4245545 126.727814,44.5037257 129.860683,41.7389599 C132.993553,38.9741941 129.741021,72.7177842 124.885017,76.172032 L120.029012,79.6251401 L120.029012,61.8672752 C120.029012,61.8672752 117.053413,55.8454194 102.282544,57.4021671" id="Stroke-74" stroke="#585857" stroke-width="0.5" stroke-linecap="round" stroke-linejoin="round"/>
                        <path d="M127.338319,74.0051212 L126.652256,73.3190581 C125.370161,72.0369635 123.291459,72.0369635 122.008224,73.3190581 L120.417287,74.9111347 L120.417287,57.1532698 C111.518981,35.9160851 97.8683775,46.9865446 90.6282468,47.6372788 C83.3869766,48.2880131 89.1649495,42.0017608 89.1649495,42.0017608 C79.0631838,42.0017608 74.8636117,55.334405 74.8636117,65.4361707 L74.8385396,75.3145671 L72.9877649,73.4637923 C71.5495396,72.0267068 69.2178369,72.0267068 67.7807514,73.4637923 L67.5220532,73.7236302 C66.0826883,75.1618554 66.0826883,77.4935581 67.5220532,78.9306437 L72.3826162,83.7923464 C72.8851973,84.2937878 73.4983234,84.6106077 74.1433595,84.7610401 C75.2032243,93.8553644 82.9277018,100.913153 92.3057964,100.913153 L102.124932,100.913153 C112.051193,100.913153 120.1244,93.0063329 120.403612,83.1473104 C121.520459,83.4766662 122.772923,83.2145491 123.652724,82.3347473 L127.338319,78.6491527 C128.620414,77.3670581 128.620414,75.2872158 127.338319,74.0051212" id="Fill-76" fill="#FEFEFE"/>
                        <path d="M127.338319,74.0051212 L126.652256,73.3190581 C125.370161,72.0369635 123.291459,72.0369635 122.008224,73.3190581 L120.417287,74.9111347 L120.417287,57.1532698 C111.518981,35.9160851 97.8683775,46.9865446 90.6282468,47.6372788 C83.3869766,48.2880131 89.1649495,42.0017608 89.1649495,42.0017608 C79.0631838,42.0017608 74.8636117,55.334405 74.8636117,65.4361707 L74.8385396,75.3145671 L72.9877649,73.4637923 C71.5495396,72.0267068 69.2178369,72.0267068 67.7807514,73.4637923 L67.5220532,73.7236302 C66.0826883,75.1618554 66.0826883,77.4935581 67.5220532,78.9306437 L72.3826162,83.7923464 C72.8851973,84.2937878 73.4983234,84.6106077 74.1433595,84.7610401 C75.2032243,93.8553644 82.9277018,100.913153 92.3057964,100.913153 L102.124932,100.913153 C112.051193,100.913153 120.1244,93.0063329 120.403612,83.1473104 C121.520459,83.4766662 122.772923,83.2145491 123.652724,82.3347473 L127.338319,78.6491527 C128.620414,77.3670581 128.620414,75.2872158 127.338319,74.0051212 Z" id="Stroke-78" stroke="#585857" stroke-width="0.62"/>
                        <path d="M97.632586,91.304509 C97.632586,91.304509 104.347343,93.1484459 107.70814,87.0867027" id="Stroke-80" stroke="#192B2A" stroke-width="0.743581081" stroke-linecap="round" stroke-linejoin="round"/>
                        <path d="M114.617547,60.3338901 C114.617547,60.3338901 110.123948,55.0140523 103.923169,58.1127324" id="Stroke-82" stroke="#192B2A" stroke-width="0.5" stroke-linecap="round" stroke-linejoin="round"/>
                        <path d="M88.4731883,57.4647333 C88.4731883,57.4647333 81.8040171,55.4623865 78.3007649,61.444355" id="Stroke-84" stroke="#192B2A" stroke-width="0.5" stroke-linecap="round" stroke-linejoin="round"/>
                        <path d="M94.188595,80.2920572 C94.188595,80.2920572 97.5049464,83.3029851 101.076577,78.0936923" id="Stroke-86" stroke="#192B2A" stroke-width="0.743581081" stroke-linecap="round" stroke-linejoin="round"/>
                        <path d="M83.1672541,67.2819311 C83.1672541,67.6614311 82.8937405,67.9702734 82.5575468,67.9702734 C82.2202135,67.9702734 81.9478396,67.6614311 81.9478396,67.2819311 C81.9478396,66.9024311 82.2202135,66.5935887 82.5575468,66.5935887 C82.8937405,66.5935887 83.1672541,66.9024311 83.1672541,67.2819311" id="Fill-88" fill="#FEFEFE"/>
                        <path d="M114.212975,71.1504378 C114.212975,71.1504378 113.546286,65.1787261 104.987592,67.9446315" id="Stroke-90" stroke="#192B2A" stroke-width="1.02216216" stroke-linecap="round" stroke-linejoin="round"/>
                        <path d="M89.3980059,68.167773 C89.3980059,68.167773 84.8098167,64.7693676 80.6695059,70.8550432" id="Stroke-92" stroke="#192B2A" stroke-width="0.91045045" stroke-linecap="round" stroke-linejoin="round"/>
                        <path d="M176.963813,149.753321 L176.963813,149.753321 C175.32843,147.055794 171.816061,146.194227 169.117394,147.829609 L146.642561,161.454001 L134.323056,139.1957 C132.795939,136.435492 129.320038,135.436028 126.559831,136.964285 C123.799624,138.491402 122.80016,141.968443 124.327277,144.72865 L139.677083,172.46292 C141.20534,175.223127 144.681241,176.222591 147.441448,174.694335 C148.083065,174.338767 148.624394,173.876073 149.065435,173.343862 L175.040101,157.59974 C177.738768,155.964357 178.599196,152.450848 176.963813,149.753321" id="Fill-94" fill="#FCFCFC"/>
                        <path d="M176.963813,149.753321 L176.963813,149.753321 C175.32843,147.055794 171.816061,146.194227 169.117394,147.829609 L146.642561,161.454001 L134.323056,139.1957 C132.795939,136.435492 129.320038,135.436028 126.559831,136.964285 C123.799624,138.491402 122.80016,141.968443 124.327277,144.72865 L139.677083,172.46292 C141.20534,175.223127 144.681241,176.222591 147.441448,174.694335 C148.083065,174.338767 148.624394,173.876073 149.065435,173.343862 L175.040101,157.59974 C177.738768,155.964357 178.599196,152.450848 176.963813,149.753321 Z" id="Stroke-96" stroke="#585857" stroke-width="0.62"/>
                        <path d="M192.518071,138.392482 C193.21553,140.016468 194.32326,145.326049 193.21667,148.212756 C192.26735,150.686914 187.308778,155.407301 184.598715,155.693351 C180.481197,156.128693 176.267949,156.181117 176.267949,156.181117 C176.267949,156.181117 175.914661,148.975175 169.414156,147.971153 C169.414156,147.971153 179.77576,141.861545 181.991219,139.141225 C183.149093,137.720094 185.413557,136.964513 185.839782,139.290518 C186.708188,144.032558 179.817927,147.760319 179.817927,147.760319 C179.817927,147.760319 188.943021,149.609955 189.616548,138.873409 C189.861571,134.973563 191.820611,136.768495 192.518071,138.392482" id="Fill-98" fill="#FCFCFC"/>
                        <path d="M192.518071,138.392482 C193.21553,140.016468 194.32326,145.326049 193.21667,148.212756 C192.26735,150.686914 187.308778,155.407301 184.598715,155.693351 C180.481197,156.128693 176.267949,156.181117 176.267949,156.181117 C176.267949,156.181117 175.914661,148.975175 169.414156,147.971153 C169.414156,147.971153 179.77576,141.861545 181.991219,139.141225 C183.149093,137.720094 185.413557,136.964513 185.839782,139.290518 C186.708188,144.032558 179.817927,147.760319 179.817927,147.760319 C179.817927,147.760319 188.943021,149.609955 189.616548,138.873409 C189.861571,134.973563 191.820611,136.768495 192.518071,138.392482 Z" id="Stroke-100" stroke="#585857" stroke-width="0.742184685" stroke-linecap="round" stroke-linejoin="round"/>
                    </g>
                </g>
            </g>
        </g>
    </g>
</svg>