<?xml version="1.0" encoding="UTF-8"?>
<svg width="54px" height="94px" viewBox="0 0 54 94" version="1.1" xmlns="http://www.w3.org/2000/svg" xmlns:xlink="http://www.w3.org/1999/xlink">
    <!-- Generator: sketchtool 55.2 (78181) - https://sketchapp.com -->
    <title>59CD1A01-45D5-466D-B524-0332430C9292@1,5x</title>
    <desc>Created with sketchtool.</desc>
    <g id="Financeur_Extranet-/-UI" stroke="none" stroke-width="1" fill="none" fill-rule="evenodd">
        <g id="01_Login" transform="translate(-462.000000, -199.000000)">
            <g id="Group-2" transform="translate(368.000000, 105.000000)">
                <g id="Group" transform="translate(95.000000, 95.000000)">
                    <g id="Group-57">
                        <g>
                            <path d="M34.6517614,59.847048 L29.7056311,59.847048 L29.7849653,54.7825107 C29.816699,52.6588649 28.2112621,50.9662118 26.196172,51.0005122 L26.0072122,51.0049862 C23.9935645,51.040778 22.3333148,52.7915927 22.3001387,54.9137472 L22.2236893,59.847048 L17.3511234,59.847048 C7.76898752,59.847048 0.00144244105,67.8778294 0.00144244105,77.7832054 L0,91.9985087 L52,92 L52,77.7846967 C52,67.8793207 44.2338974,59.8485393 34.6517614,59.847048" id="Fill-1" fill="#FEFEFE"></path>
                            <path d="M34.6517614,59.847048 L29.7056311,59.847048 L29.7849653,54.7825107 C29.816699,52.6588649 28.2112621,50.9662118 26.196172,51.0005122 L26.0072122,51.0049862 C23.9935645,51.040778 22.3333148,52.7915927 22.3001387,54.9137472 L22.2236893,59.847048 L17.3511234,59.847048 C7.76898752,59.847048 0.00144244105,67.8778294 0.00144244105,77.7832054 L0,91.9985087 L52,92 L52,77.7846967 C52,67.8793207 44.2338974,59.8485393 34.6517614,59.847048 Z" id="Stroke-3" stroke="#585857" stroke-width="0.535"></path>
                            <g id="Group-8" transform="translate(2.000000, 0.000000)">
                                <path d="M6.337568,40.4945924 C6.337568,40.4945924 -3.200992,27.6489229 1.618688,17.3435415 C6.436928,7.03971102 11.023328,-6.98615339 27.003008,4.03416864 C42.982688,15.0560415 45.374528,14.3411008 47.633888,12.194728 C49.893248,10.0468042 47.547488,36.2561263 44.045408,38.9375415 L40.541888,41.6205076 L40.543328,27.8272703" id="Fill-5" fill="#B2B2B1"></path>
                                <path d="M6.337568,40.4945924 C6.337568,40.4945924 -3.200992,27.6489229 1.618688,17.3435415 C6.436928,7.03971102 11.023328,-6.98615339 27.003008,4.03416864 C42.982688,15.0560415 45.374528,14.3411008 47.633888,12.194728 C49.893248,10.0468042 47.547488,36.2561263 44.045408,38.9375415 L40.541888,41.6205076 L40.543328,27.8272703" id="Stroke-7" stroke="#585857" stroke-width="0.405" stroke-linecap="round" stroke-linejoin="round"></path>
                            </g>
                            <path d="M48.3161284,36.4468734 L47.8289675,35.9222166 C46.9171388,34.9445857 45.4371923,34.9430605 44.5253635,35.9222166 L43.3933892,37.1377733 L43.3933892,23.5744789 C37.0645588,7.35282156 27.3540083,15.8083376 22.204022,16.3040163 C17.0540357,16.8012201 21.1643668,12 21.1643668,12 C13.9776788,12 10.9908004,22.1835282 10.9908004,29.9008643 L10.9723365,37.4443315 L9.65572395,36.0320285 C8.63311222,34.9339095 6.97420875,34.9339095 5.95159702,36.0320285 L5.7669588,36.2287748 C4.74434707,37.3268937 4.74434707,39.1082867 5.7669588,40.2079309 L9.22537484,43.920183 C9.58328895,44.3029995 10.0193192,44.5455008 10.4766539,44.6614133 C11.2308301,51.6054906 16.7259478,56.9984748 23.397069,57 L30.3806549,57 C37.442357,57 43.1846059,50.9603457 43.3834471,43.4290798 C44.1773915,43.6807321 45.0679159,43.4809354 45.6942656,42.8083376 L48.3161284,39.9928826 C49.2279572,39.0152517 49.2279572,37.4260295 48.3161284,36.4468734" id="Fill-9" fill="#FEFEFE"></path>
                            <path d="M48.3161284,36.4468734 L47.8289675,35.9222166 C46.9171388,34.9445857 45.4371923,34.9430605 44.5253635,35.9222166 L43.3933892,37.1377733 L43.3933892,23.5744789 C37.0645588,7.35282156 27.3540083,15.8083376 22.204022,16.3040163 C17.0540357,16.8012201 21.1643668,12 21.1643668,12 C13.9776788,12 10.9908004,22.1835282 10.9908004,29.9008643 L10.9723365,37.4443315 L9.65572395,36.0320285 C8.63311222,34.9339095 6.97420875,34.9339095 5.95159702,36.0320285 L5.7669588,36.2287748 C4.74434707,37.3268937 4.74434707,39.1082867 5.7669588,40.2079309 L9.22537484,43.920183 C9.58328895,44.3029995 10.0193192,44.5455008 10.4766539,44.6614133 C11.2308301,51.6054906 16.7259478,56.9984748 23.397069,57 L30.3806549,57 C37.442357,57 43.1846059,50.9603457 43.3834471,43.4290798 C44.1773915,43.6807321 45.0679159,43.4809354 45.6942656,42.8083376 L48.3161284,39.9928826 C49.2279572,39.0152517 49.2279572,37.4260295 48.3161284,36.4468734 Z" id="Stroke-11" stroke="#585857" stroke-width="0.507"></path>
                            <g id="Group-16" transform="translate(25.000000, 45.000000)">
                                <path d="M0.612444444,3.47146667 C0.612444444,3.47146667 5.47011111,4.70346667 7.90111111,0.655466667" id="Fill-13" fill="#FEFEFE"></path>
                                <path d="M0.612444444,3.47146667 C0.612444444,3.47146667 5.47011111,4.70346667 7.90111111,0.655466667" id="Stroke-15" stroke="#585857" stroke-width="0.808" stroke-linecap="round" stroke-linejoin="round"></path>
                            </g>
                            <g id="Group-20" transform="translate(13.000000, 23.000000)">
                                <path d="M7.76513333,0.873733333 C7.76513333,0.873733333 2.94068889,-0.462266667 0.407133333,3.53106667" id="Fill-17" fill="#FEFEFE"></path>
                                <path d="M7.76513333,0.873733333 C7.76513333,0.873733333 2.94068889,-0.462266667 0.407133333,3.53106667" id="Stroke-19" stroke="#585857" stroke-width="0.808" stroke-linecap="round" stroke-linejoin="round"></path>
                            </g>
                            <g id="Group-24" transform="translate(24.000000, 39.000000)">
                                <path d="M0.35912,2.54064 C0.35912,2.54064 2.79525333,4.95344 5.41912,0.77904" id="Fill-21" fill="#FEFEFE"></path>
                                <path d="M0.35912,2.54064 C0.35912,2.54064 2.79525333,4.95344 5.41912,0.77904" id="Stroke-23" stroke="#585857" stroke-width="0.507" stroke-linecap="round" stroke-linejoin="round"></path>
                            </g>
                            <path d="M20,30.6665744 L20,33.3350872 C20,34.2556079 19.4107612,35 18.683727,35 L18.316273,35 C17.5892388,35 17,34.2556079 17,33.3350872 L17,30.6665744 C17,29.7460537 17.5892388,29 18.316273,29 L18.683727,29 C19.4107612,29 20,29.7460537 20,30.6665744" id="Fill-25" fill="#575756"></path>
                            <path d="M34,33.3334256 L34,30.6665744 C34,29.7460537 34.5892388,29 35.316273,29 L35.683727,29 C36.4107612,29 37,29.7460537 37,30.6665744 L37,33.3334256 C37,34.2556079 36.4107612,35 35.683727,35 L35.3149606,35 C34.5892388,35 34,34.2539463 34,33.3334256" id="Fill-27" fill="#575756"></path>
                            <g id="Group-32" transform="translate(31.000000, 23.000000)">
                                <path d="M7.64457778,3.47824 C7.64457778,3.47824 4.66468889,-1.01936 0.0352444444,1.11824" id="Fill-29" fill="#FEFEFE"></path>
                                <path d="M7.64457778,3.47824 C7.64457778,3.47824 4.66468889,-1.01936 0.0352444444,1.11824" id="Stroke-31" stroke="#585857" stroke-width="0.808" stroke-linecap="round" stroke-linejoin="round"></path>
                            </g>
                            <path d="M12.5,76 L12.5,92" id="Stroke-33" stroke="#585857" stroke-width="0.535" stroke-linecap="round"></path>
                            <path d="M43.5,76 L43.5,92" id="Stroke-35" stroke="#585857" stroke-width="0.535" stroke-linecap="round"></path>
                            <polygon id="Fill-37" fill="#FEFEFE" points="26 62.23597 24.0483163 71 20 62.23597 20 60 23.897511 60"></polygon>
                            <polygon id="Stroke-39" stroke="#585857" stroke-width="0.535" points="26 62.23597 24.0483163 71 20 62.23597 20 60 23.897511 60"></polygon>
                            <polygon id="Fill-41" fill="#FEFEFE" points="26 62.2356406 28.6014586 71 34 62.2356406 34 60.00162 28.8022308 60"></polygon>
                            <polygon id="Stroke-43" stroke="#585857" stroke-width="0.57" points="26 62.2356406 28.6014586 71 34 62.2356406 34 60.00162 28.8022308 60"></polygon>
                            <path d="M29.945939,66.5905441 L29.999679,63.3266386 C30.0211751,62.0193017 28.9601933,60.9781647 27.6289761,61.000348 L27.5046063,61.0018269 C26.173389,61.0240102 25.0770924,62.1021195 25.054061,63.4094563 L25.000321,66.6733619 C24.9788249,67.9792198 26.0398067,69.0218358 27.3710239,68.9996525 L27.4953937,68.9966947 C28.826611,68.9745114 29.924443,67.897881 29.945939,66.5905441" id="Fill-45" fill="#F29100"></path>
                            <path d="M29.945939,66.5905441 L29.999679,63.3266386 C30.0211751,62.0193017 28.9601933,60.9781647 27.6289761,61.000348 L27.5046063,61.0018269 C26.173389,61.0240102 25.0770924,62.1021195 25.054061,63.4094563 L25.000321,66.6733619 C24.9788249,67.9792198 26.0398067,69.0218358 27.3710239,68.9996525 L27.4953937,68.9966947 C28.826611,68.9745114 29.924443,67.897881 29.945939,66.5905441 Z" id="Stroke-47" stroke="#585857" stroke-width="0.535"></path>
                            <path d="M28.9295671,67 L30.6346295,70.1223176 C30.6346295,70.1223176 31.1115187,70.6754408 30.975055,72.3756661 C30.8385913,74.07432 31,87.641552 31,87.641552 C31,87.641552 30.9134263,91.9219712 27.3521643,91.9989685 C23.7909024,92.0775371 23,87.641552 23,87.641552 C23,87.641552 23.1614087,74.07432 23.024945,72.3756661 C22.8899486,70.6754408 23.3668379,70.1207462 23.3668379,70.1207462 L24.6522377,67 C24.6522377,67 26.6375642,70.3910223 28.9295671,67" id="Fill-49" fill="#F29100"></path>
                            <path d="M28.9295671,67 L30.6346295,70.1223176 C30.6346295,70.1223176 31.1115187,70.6754408 30.975055,72.3756661 C30.8385913,74.07432 31,87.641552 31,87.641552 C31,87.641552 30.9134263,91.9219712 27.3521643,91.9989685 C23.7909024,92.0775371 23,87.641552 23,87.641552 C23,87.641552 23.1614087,74.07432 23.024945,72.3756661 C22.8899486,70.6754408 23.3668379,70.1207462 23.3668379,70.1207462 L24.6522377,67 C24.6522377,67 26.6375642,70.3910223 28.9295671,67 Z" id="Stroke-51" stroke="#585857" stroke-width="0.52"></path>
                            <path d="M35,72 L40,72 L40,78.2392734 C40,78.2392734 37.1531452,82.2020551 35,78.2375527 L35,72 Z" id="Fill-53" fill="#FEFEFE"></path>
                            <path d="M35,72 L40,72 L40,78.2392734 C40,78.2392734 37.1531452,82.2020551 35,78.2375527 L35,72 Z" id="Stroke-55" stroke="#585857" stroke-width="0.535"></path>
                        </g>
                    </g>
                </g>
            </g>
        </g>
    </g>
</svg>