<?xml version="1.0" encoding="UTF-8"?>
<svg width="115px" height="115px" viewBox="0 0 115 115" version="1.1" xmlns="http://www.w3.org/2000/svg" xmlns:xlink="http://www.w3.org/1999/xlink">
    <!-- Generator: Sketch 52.6 (67491) - http://www.bohemiancoding.com/sketch -->
    <title>illustration/compte/supprimer</title>
    <desc>Created with Sketch.</desc>
    <g id="illustration/compte/supprimer" stroke="none" stroke-width="1" fill="none" fill-rule="evenodd">
        <g id="Group-19">
            <path d="M102.2555,58.0803 C102.2555,82.9143 82.1235,103.0463 57.2895,103.0463 C32.4555,103.0463 12.3235,82.9143 12.3235,58.0803 C12.3235,33.2473 32.4555,13.1153 57.2895,13.1153 C82.1235,13.1153 102.2555,33.2473 102.2555,58.0803 Z" id="Stroke-1" stroke="#76B0BD" stroke-width="1.345" stroke-linecap="round" stroke-dasharray="15.692,15.692"></path>
            <path d="M114.6637,57.7664 C114.6637,89.1904 89.1897,114.6644 57.7667,114.6644 C26.3427,114.6644 0.8687,89.1904 0.8687,57.7664 C0.8687,26.3434 26.3427,0.8694 57.7667,0.8694 C89.1897,0.8694 114.6637,26.3434 114.6637,57.7664 Z" id="Stroke-3" stroke="#76B0BD" stroke-width="1.738" stroke-linecap="round" stroke-linejoin="round" stroke-dasharray="6.619,6.619"></path>
            <path d="M74.0846,80.3186 C74.0846,89.4286 66.6996,96.8146 57.5886,96.8146 C48.4786,96.8146 41.0936,89.4286 41.0936,80.3186 C41.0936,71.2086 48.4786,63.8226 57.5886,63.8226 C66.6996,63.8226 74.0846,71.2086 74.0846,80.3186" id="Fill-5" fill="#C51720"></path>
            <path d="M50.1256,84.2639 L53.8306,80.3639 L49.9306,76.6569 C49.0566,75.8259 49.2006,74.5069 50.3096,73.3409 C51.3486,72.2469 52.7616,71.9269 53.6356,72.7579 L57.5366,76.4649 L61.2086,72.6009 C61.9366,71.8349 63.5026,71.9369 64.5966,72.9759 C65.7626,74.0849 65.8356,75.5409 65.1076,76.3059 L61.4366,80.1709 L65.2986,83.8409 C66.0636,84.5689 65.9996,86.1699 64.9606,87.2639 C63.8526,88.4299 62.3586,88.4679 61.5936,87.7409 L57.7296,84.0699 L54.0246,87.9699 C53.1926,88.8449 51.8746,88.6989 50.7076,87.5909 C49.6146,86.5519 49.2936,85.1389 50.1256,84.2639" id="Fill-7" fill="#F9F9F9"></path>
            <path d="M65.7682,94.2434 C65.1872,94.2434 64.7132,94.7274 64.7132,95.3224 L64.7132,98.5344 C64.7132,99.1424 64.2192,99.6374 63.6102,99.6374 C63.0002,99.6374 62.5062,99.1424 62.5062,98.5344 L62.5062,93.5154 C62.5062,92.9214 62.0332,92.4374 61.4512,92.4374 C60.8692,92.4374 60.3952,92.9214 60.3952,93.5154 L60.3952,97.0934 C60.3952,97.7024 59.9012,98.1964 59.2912,98.1964 C58.6822,98.1964 58.1882,97.7024 58.1882,97.0934 L58.1882,92.0754 C58.1882,91.4804 57.7142,90.9974 57.1322,90.9974 C56.5512,90.9974 56.0782,91.4804 56.0782,92.0754 L56.0782,95.6534 C56.0782,96.2634 55.5832,96.7574 54.9742,96.7574 C54.3652,96.7574 53.8712,96.2634 53.8712,95.6534 L53.8712,85.3504 C53.8712,84.7564 53.3972,84.2724 52.8142,84.2724 C52.2332,84.2724 51.7582,84.7564 51.7582,85.3504 L51.7582,101.3054 C51.7582,101.7644 51.4732,102.1764 51.0432,102.3384 C50.6132,102.4994 50.1272,102.3774 49.8252,102.0314 L45.5692,97.1624 C45.3682,96.9734 45.1062,96.8684 44.8282,96.8664 C44.5432,96.8694 44.2792,96.9724 44.0822,97.1694 C43.6632,97.5894 43.9562,98.3494 44.2772,98.9134 C45.5042,101.0704 46.8572,103.1304 48.0492,104.9484 C48.9522,106.3234 49.8032,107.6224 50.4452,108.7274 C50.8652,109.4514 51.7212,111.2144 52.1792,112.1674 L64.6272,112.1674 C65.4092,109.6454 66.8242,104.6944 66.8242,102.8534 L66.8242,95.3224 C66.8242,94.7274 66.3502,94.2434 65.7682,94.2434" id="Fill-9" fill="#FEFEFE"></path>
            <path d="M66.6803,102.9964 C66.6803,104.8384 65.2653,109.7884 64.4843,112.3104 L52.0363,112.3104 C51.5783,111.3584 50.7213,109.5954 50.3013,108.8714 C49.6603,107.7654 48.8083,106.4664 47.9063,105.0924 C46.7133,103.2734 45.3623,101.2134 44.1333,99.0564 C43.8133,98.4934 43.5193,97.7324 43.9403,97.3124 C44.1353,97.1164 44.4003,97.0134 44.6853,97.0094 C44.9633,97.0114 45.2243,97.1164 45.4253,97.3064 L49.6813,102.1744 C49.9843,102.5204 50.4693,102.6424 50.9003,102.4814 C51.3303,102.3204 51.6163,101.9084 51.6163,101.4484 L51.6163,85.4944 C51.6163,84.8994 52.0893,84.4154 52.6713,84.4154 C53.2533,84.4154 53.7273,84.8994 53.7273,85.4944 L53.7273,95.7974 C53.7273,96.4064 54.2213,96.9004 54.8303,96.9004 C55.4403,96.9004 55.9343,96.4064 55.9343,95.7974 L55.9343,92.2184 C55.9343,91.6244 56.4083,91.1414 56.9893,91.1414 C57.5723,91.1414 58.0443,91.6244 58.0443,92.2184 L58.0443,97.2364 C58.0443,97.8464 58.5383,98.3394 59.1483,98.3394 C59.7573,98.3394 60.2513,97.8464 60.2513,97.2364 L60.2513,93.6584 C60.2513,93.0644 60.7253,92.5804 61.3073,92.5804 C61.8893,92.5804 62.3633,93.0644 62.3633,93.6584 L62.3633,98.6774 C62.3633,99.2864 62.8573,99.7804 63.4663,99.7804 C64.0763,99.7804 64.5703,99.2864 64.5703,98.6774 L64.5703,95.4654 C64.5703,94.8714 65.0433,94.3874 65.6243,94.3874 C66.2073,94.3874 66.6803,94.8714 66.6803,95.4654 L66.6803,102.9964 Z M65.6243,92.1804 C65.1683,92.1804 64.7343,92.2754 64.3383,92.4464 C63.8583,91.2334 62.6813,90.3734 61.3073,90.3734 C60.7963,90.3734 60.3133,90.4924 59.8823,90.7034 C59.3373,89.6534 58.2453,88.9334 56.9893,88.9334 C56.6193,88.9334 56.2653,88.9964 55.9343,89.1114 L55.9343,85.4944 C55.9343,83.6834 54.4703,82.2084 52.6713,82.2084 C50.8713,82.2084 49.4093,83.6834 49.4093,85.4944 L49.4093,98.5094 L47.0583,95.8214 C47.0423,95.8024 47.0253,95.7844 47.0083,95.7674 C46.3913,95.1494 45.5703,94.8074 44.6963,94.8034 L44.6793,94.8034 C43.8073,94.8034 42.9913,95.1394 42.3783,95.7514 C41.2993,96.8314 41.2403,98.4334 42.2153,100.1474 C43.4773,102.3664 44.8503,104.4574 46.0613,106.3034 C46.9463,107.6514 47.7823,108.9254 48.3923,109.9784 C48.9223,110.8924 50.3283,113.8564 50.3433,113.8864 C50.5263,114.2724 50.9143,114.5174 51.3403,114.5174 L65.2933,114.5174 C65.7733,114.5174 66.1983,114.2084 66.3443,113.7524 C66.6043,112.9434 68.8883,105.7674 68.8883,102.9964 L68.8883,95.4654 C68.8873,93.6534 67.4243,92.1804 65.6243,92.1804 Z" id="Fill-11" fill="#76B0BD"></path>
            <path d="M46.4029,14.9397 C46.4029,14.9027 46.4149,14.8657 46.4149,14.8407 C46.8209,6.0357 53.0719,5.0897 55.7489,5.0897 L55.8959,5.0897 C59.2119,5.1637 64.8479,6.5147 65.2289,14.8407 C65.2289,14.8777 65.2289,14.9157 65.2419,14.9397 C65.2549,15.0247 66.1139,23.3767 62.2089,27.7737 C60.6619,29.5177 58.5979,30.3767 55.8829,30.4017 L55.7599,30.4017 C53.0589,30.3767 50.9829,29.5177 49.4479,27.7737 C45.5549,23.4017 46.3899,15.0137 46.4029,14.9397 M55.6259,33.7177 L56.0189,33.7177 C59.6169,33.6567 62.5279,32.3917 64.6769,29.9717 C69.4049,24.6417 68.6199,15.5047 68.5329,14.6327 C68.2259,8.0867 65.1319,4.9557 62.5779,3.4937 C60.6739,2.4007 58.4509,1.8117 55.9689,1.7617 L55.7599,1.7617 C54.3979,1.7617 51.7199,1.9827 49.1539,3.4447 C46.5749,4.9057 43.4299,8.0377 43.1239,14.6327 C43.0379,15.5047 42.2519,24.6417 46.9799,29.9717 C49.1169,32.3917 52.0269,33.6567 55.6259,33.7177" id="Fill-13" fill="#3FB28C"></path>
            <path d="M81.0602,48.8723 L81.0602,48.8353 C81.0602,48.7373 81.0472,48.6393 81.0472,48.5283 C80.9742,46.0973 80.8142,40.4113 75.4842,38.5933 C75.4482,38.5803 75.3992,38.5683 75.3622,38.5563 C69.8232,37.1433 65.2172,33.9513 65.1682,33.9143 C64.4192,33.3863 63.3872,33.5703 62.8602,34.3193 C62.3312,35.0683 62.5152,36.1003 63.2642,36.6283 C63.4732,36.7753 68.3622,40.1773 74.4772,41.7493 C77.3382,42.7683 77.6582,45.8263 77.7442,48.6263 C77.7442,48.7373 77.7442,48.8353 77.7562,48.9343 C77.7682,50.0393 77.6952,51.7463 77.4982,52.7283 C75.5092,53.8583 67.7102,57.7643 55.8462,57.7643 C44.0332,57.7643 36.1852,53.8463 34.1832,52.7163 C33.9862,51.7333 33.9012,50.0263 33.9252,48.9213 C33.9252,48.8233 33.9372,48.7253 33.9372,48.6143 C34.0242,45.8143 34.3422,42.7563 37.2052,41.7363 C43.3202,40.1653 48.2072,36.7513 48.4162,36.6153 C49.1652,36.0883 49.3502,35.0563 48.8222,34.3073 C48.2932,33.5583 47.2622,33.3733 46.5132,33.9013 C46.4642,33.9383 41.8832,37.1313 36.3202,38.5443 C36.2702,38.5563 36.2342,38.5683 36.1972,38.5803 C30.8672,40.4113 30.7072,46.0973 30.6332,48.5163 C30.6332,48.6263 30.6332,48.7253 30.6222,48.8233 L30.6222,48.8603 C30.6092,49.4983 30.5972,52.7773 31.2472,54.4233 C31.3712,54.7433 31.5912,55.0133 31.8862,55.1973 C32.2542,55.4423 41.0852,61.0673 55.8592,61.0673 C70.6332,61.0673 79.4632,55.4313 79.8312,55.1973 C80.1152,55.0133 80.3472,54.7433 80.4702,54.4233 C81.0842,52.7893 81.0722,49.5113 81.0602,48.8723" id="Fill-15" fill="#3FB28C"></path>
            <path d="M55.7496,4.951 C53.0746,4.951 46.8306,5.895 46.4266,14.691 C46.4266,14.716 46.4136,14.753 46.4136,14.79 C46.4006,14.863 45.5666,23.242 49.4556,27.61 C50.9886,29.351 53.0626,30.21 55.7616,30.235 L55.8846,30.235 C58.5956,30.21 60.6566,29.351 62.2016,27.61 C66.1036,23.218 65.2446,14.875 65.2326,14.79 C65.2206,14.765 65.2206,14.728 65.2206,14.691 C64.8396,6.374 59.2086,5.025 55.8956,4.951 L55.7496,4.951 Z" id="Fill-17" fill="#FEFEFE"></path>
        </g>
    </g>
</svg>