<?xml version="1.0" encoding="UTF-8"?>
<svg width="115px" height="115px" viewBox="0 0 115 115" version="1.1" xmlns="http://www.w3.org/2000/svg" xmlns:xlink="http://www.w3.org/1999/xlink">
    <!-- Generator: Sketch 52.6 (67491) - http://www.bohemiancoding.com/sketch -->
    <title>illustration/compte/utilisateur succes</title>
    <desc>Created with Sketch.</desc>
    <g id="illustration/compte/utilisateur-succes" stroke="none" stroke-width="1" fill="none" fill-rule="evenodd">
        <g id="Group-53">
            <path d="M83.7705,78.331 C83.6365,78.678 83.3835,78.972 83.0775,79.171 C82.6765,79.425 73.0865,85.547 57.0415,85.547 C40.9975,85.547 31.4075,79.438 31.0065,79.171 C30.6865,78.972 30.4475,78.678 30.3135,78.331 C29.6065,76.544 29.6205,72.983 29.6335,72.289 L29.6335,72.249 C29.6465,72.143 29.6465,72.036 29.6465,71.916 C29.7265,69.289 29.8995,63.114 35.6885,61.126 C35.7285,61.113 35.7685,61.099 35.8215,61.086 C41.8645,59.552 46.8385,56.084 46.8925,56.044 C47.7065,55.471 48.8265,55.671 49.3995,56.484 C49.9735,57.298 49.7725,58.419 48.9585,58.992 C48.7325,59.139 43.4245,62.847 36.7825,64.553 C33.6745,65.661 33.3285,68.982 33.2345,72.022 C33.2345,72.143 33.2215,72.249 33.2215,72.356 C33.1945,73.556 33.2885,75.411 33.5005,76.478 C35.6745,77.705 44.1985,81.959 57.0285,81.959 C69.9135,81.959 78.3815,77.718 80.5425,76.491 C80.7555,75.424 80.8355,73.57 80.8235,72.37 C80.8095,72.263 80.8095,72.156 80.8095,72.036 C80.7155,68.995 80.3695,65.674 77.2615,64.567 C70.6205,62.859 65.3115,59.165 65.0835,59.005 C64.2705,58.432 64.0715,57.311 64.6445,56.498 C65.2175,55.684 66.3385,55.484 67.1525,56.058 C67.2055,56.098 72.2075,59.565 78.2215,61.099 C78.2625,61.113 78.3155,61.126 78.3555,61.14 C84.1435,63.114 84.3175,69.289 84.3975,71.93 C84.3975,72.049 84.4115,72.156 84.4115,72.263 L84.4115,72.303 C84.4235,72.996 84.4375,76.557 83.7705,78.331 M43.2105,35.118 C43.5435,27.955 46.9585,24.554 49.7595,22.967 C52.5465,21.38 55.4555,21.14 56.9355,21.14 L57.1625,21.14 C59.8565,21.193 62.2705,21.833 64.3375,23.02 C67.1115,24.608 70.4725,28.008 70.8055,35.118 C70.9005,36.064 71.7525,45.988 66.6185,51.777 C64.2845,54.404 61.1235,55.778 57.2145,55.844 L56.7895,55.844 C52.8805,55.778 49.7195,54.404 47.3995,51.777 C42.2635,45.988 43.1175,36.064 43.2105,35.118 M56.9985,17.704 C35.5315,17.704 18.1295,35.115 18.1295,56.592 C18.1295,78.069 35.5315,95.479 56.9985,95.479 C78.4635,95.479 95.8655,78.069 95.8655,56.592 C95.8655,35.115 78.4635,17.704 56.9985,17.704" id="Fill-1" fill="#E8F4F6"></path>
            <path d="M48.5234,37.7851 C48.5234,37.7501 48.5354,37.7141 48.5354,37.6911 C48.9224,29.2731 54.8994,28.3681 57.4594,28.3681 L57.5984,28.3681 C60.7694,28.4391 66.1584,29.7311 66.5224,37.6911 C66.5224,37.7261 66.5224,37.7621 66.5344,37.7851 C66.5454,37.8671 67.3684,45.8511 63.6334,50.0541 C62.1554,51.7221 60.1824,52.5431 57.5874,52.5661 L57.4694,52.5661 C54.8874,52.5431 52.9024,51.7221 51.4354,50.0541 C47.7134,45.8741 48.5114,37.8551 48.5234,37.7851 M57.3404,55.7371 L57.7164,55.7371 C61.1574,55.6781 63.9394,54.4691 65.9944,52.1561 C70.5134,47.0601 69.7624,38.3251 69.6804,37.4921 C69.3864,31.2331 66.4274,28.2401 63.9864,26.8431 C62.1664,25.7981 60.0414,25.2341 57.6694,25.1871 L57.4694,25.1871 C56.1674,25.1871 53.6074,25.3981 51.1534,26.7961 C48.6874,28.1931 45.6824,31.1861 45.3884,37.4921 C45.3064,38.3251 44.5554,47.0601 49.0754,52.1561 C51.1184,54.4691 53.9004,55.6781 57.3404,55.7371" id="Fill-3" fill="#F2900A"></path>
            <path d="M81.6562,70.1899 C81.6562,70.0959 81.6442,70.0019 81.6442,69.8969 C81.5742,67.5719 81.4212,62.1359 76.3262,60.3979 C76.2912,60.3859 76.2442,60.3749 76.2082,60.3629 C70.9142,59.0119 66.5102,55.9599 66.4642,55.9249 C65.7482,55.4199 64.7602,55.5959 64.2572,56.3119 C63.7522,57.0279 63.9272,58.0149 64.6432,58.5199 C64.8442,58.6599 69.5162,61.9119 75.3632,63.4149 C78.0982,64.3899 78.4042,67.3129 78.4862,69.9899 C78.4862,70.0959 78.4862,70.1899 78.4982,70.2839 C78.5102,71.3399 78.4392,72.9729 78.2522,73.9119 C76.3492,74.9919 68.8932,78.7259 57.5522,78.7259 C46.2582,78.7259 38.7562,74.9799 36.8422,73.8999 C36.6532,72.9609 36.5712,71.3279 36.5952,70.2719 C36.5952,70.1779 36.6062,70.0849 36.6062,69.9779 C36.6892,67.3019 36.9942,64.3779 39.7292,63.4029 C45.5772,61.9009 50.2502,58.6369 50.4492,58.5069 C51.1652,58.0029 51.3422,57.0159 50.8372,56.2999 C50.3322,55.5849 49.3452,55.4079 48.6302,55.9129 C48.5832,55.9479 44.2032,59.0009 38.8852,60.3509 C38.8372,60.3629 38.8022,60.3749 38.7662,60.3859 C33.6722,62.1359 33.5182,67.5719 33.4482,69.8839 C33.4482,69.9899 33.4482,70.0849 33.4362,70.1779 L33.4362,70.2129 C33.4252,70.8239 33.4132,73.9589 34.0352,75.5319 C34.1532,75.8369 34.3642,76.0949 34.6462,76.2709 C34.9982,76.5059 43.4402,81.8829 57.5642,81.8829 C71.6882,81.8829 80.1302,76.4949 80.4822,76.2709 C80.7522,76.0949 80.9752,75.8369 81.0932,75.5319 C81.6792,73.9699 81.6682,70.8359 81.6562,70.2249 L81.6562,70.1899 Z" id="Fill-5" fill="#F2900A"></path>
            <path d="M79.6084,19.7212 C79.4954,19.7212 79.3794,19.6922 79.2754,19.6322 C74.7834,17.0522 69.9184,15.2992 64.8174,14.4222 C64.4524,14.3592 64.2064,14.0122 64.2684,13.6462 C64.3324,13.2812 64.6724,13.0322 65.0454,13.0982 C70.3014,14.0022 75.3144,15.8082 79.9444,18.4662 C80.2664,18.6512 80.3774,19.0622 80.1924,19.3842 C80.0684,19.6002 79.8414,19.7212 79.6084,19.7212 M34.6874,19.8542 C34.4564,19.8542 34.2304,19.7342 34.1054,19.5202 C33.9194,19.1992 34.0274,18.7882 34.3484,18.6012 C38.9624,15.9162 43.9624,14.0802 49.2124,13.1442 C49.5774,13.0782 49.9264,13.3222 49.9924,13.6882 C50.0574,14.0542 49.8134,14.4022 49.4484,14.4682 C44.3544,15.3752 39.5014,17.1572 35.0244,19.7632 C34.9184,19.8252 34.8014,19.8542 34.6874,19.8542 M99.4474,43.1882 C99.1744,43.1882 98.9184,43.0202 98.8174,42.7482 C97.0314,37.9032 94.4274,33.4372 91.0784,29.4772 C90.8384,29.1942 90.8744,28.7702 91.1574,28.5302 C91.4414,28.2912 91.8634,28.3252 92.1044,28.6092 C95.5544,32.6892 98.2384,37.2902 100.0784,42.2832 C100.2064,42.6322 100.0284,43.0182 99.6794,43.1472 C99.6034,43.1752 99.5244,43.1882 99.4474,43.1882 M14.9844,43.4402 C14.9084,43.4402 14.8314,43.4272 14.7554,43.4002 C14.4064,43.2742 14.2254,42.8882 14.3524,42.5392 C16.1624,37.5332 18.8194,32.9152 22.2484,28.8132 C22.4854,28.5282 22.9104,28.4892 23.1954,28.7282 C23.4784,28.9662 23.5164,29.3902 23.2794,29.6752 C19.9504,33.6572 17.3724,38.1382 15.6154,42.9962 C15.5164,43.2702 15.2594,43.4402 14.9844,43.4402 M99.5084,74.0942 C99.4324,74.0942 99.3544,74.0812 99.2794,74.0542 C98.9304,73.9272 98.7514,73.5412 98.8784,73.1922 C100.6394,68.3482 101.5334,63.2552 101.5334,58.0532 L101.5334,57.8702 C101.5334,57.4992 101.8344,57.1992 102.2054,57.1992 C102.5764,57.1992 102.8774,57.4992 102.8774,57.8702 L102.8774,58.0532 C102.8774,63.4112 101.9564,68.6602 100.1404,73.6522 C100.0414,73.9252 99.7834,74.0942 99.5084,74.0942 M15.0444,74.1752 C14.7694,74.1752 14.5124,74.0062 14.4124,73.7342 C12.5874,68.7472 11.6554,63.5012 11.6464,58.1442 C11.6454,57.7732 11.9464,57.4712 12.3174,57.4712 L12.3184,57.4712 C12.6894,57.4712 12.9904,57.7712 12.9904,58.1422 C13.0004,63.3422 13.9024,68.4322 15.6744,73.2722 C15.8014,73.6202 15.6234,74.0072 15.2754,74.1342 C15.1994,74.1622 15.1214,74.1752 15.0444,74.1752 M79.7584,97.6392 C79.5264,97.6392 79.3004,97.5192 79.1764,97.3042 C78.9914,96.9832 79.1004,96.5722 79.4214,96.3862 C83.8954,93.7942 87.8534,90.4672 91.1864,86.4982 C91.4234,86.2132 91.8484,86.1772 92.1324,86.4152 C92.4174,86.6542 92.4544,87.0782 92.2144,87.3622 C88.7834,91.4512 84.7054,94.8792 80.0944,97.5492 C79.9884,97.6102 79.8734,97.6392 79.7584,97.6392 M34.8354,97.6812 C34.7214,97.6812 34.6054,97.6532 34.5004,97.5922 C29.8854,94.9292 25.8004,91.5092 22.3594,87.4252 C22.1204,87.1412 22.1574,86.7172 22.4404,86.4782 C22.7254,86.2392 23.1474,86.2742 23.3874,86.5592 C26.7284,90.5232 30.6924,93.8442 35.1714,96.4272 C35.4924,96.6132 35.6024,97.0242 35.4174,97.3452 C35.2944,97.5612 35.0674,97.6812 34.8354,97.6812" id="Fill-7" fill="#76B0BD"></path>
            <path d="M114.6084,57.7387 C114.6084,89.1467 89.1464,114.6087 57.7384,114.6087 C26.3304,114.6087 0.8684,89.1467 0.8684,57.7387 C0.8684,26.3307 26.3304,0.8687 57.7384,0.8687 C89.1464,0.8687 114.6084,26.3307 114.6084,57.7387 Z" id="Stroke-9" stroke="#76B0BD" stroke-width="1.737" stroke-linecap="round" stroke-linejoin="round" stroke-dasharray="6.615,6.615"></path>
            <path d="M4.622,14.8164 C4.624,13.4154 5.761,12.2804 7.162,12.2824 C8.563,12.2844 9.697,13.4214 9.695,14.8234 C9.693,16.2244 8.557,17.3584 7.155,17.3564 C5.754,17.3544 4.62,16.2174 4.622,14.8164 Z" id="Stroke-11" stroke="#76B0BD" stroke-width="0.737"></path>
            <path d="M75.7216,23.8179 C75.7236,22.4169 76.8616,21.2829 78.2616,21.2849 C79.6626,21.2869 80.7966,22.4239 80.7956,23.8249 C80.7936,25.2259 79.6566,26.3599 78.2546,26.3589 C76.8546,26.3569 75.7196,25.2189 75.7216,23.8179" id="Fill-13" fill="#3FB28C"></path>
            <path d="M89.4931,43.0928 C89.4951,41.6918 90.6331,40.5568 92.0341,40.5588 C93.4341,40.5608 94.5691,41.6978 94.5671,43.0998 C94.5651,44.5008 93.4281,45.6348 92.0271,45.6328 C90.6261,45.6308 89.4911,44.4938 89.4931,43.0928 Z" id="Stroke-15" stroke="#76B0BD" stroke-width="0.737"></path>
            <path d="M113.7011,33.1929 C113.7011,45.3539 104.2401,55.2129 92.5701,55.2129 C80.8991,55.2129 71.4391,45.3539 71.4391,33.1929 C71.4391,21.0319 80.8991,11.1729 92.5701,11.1729 C104.2401,11.1729 113.7011,21.0319 113.7011,33.1929" id="Fill-17" fill="#3FB28C"></path>
            <path d="M103.5576,34.2798 C103.3186,34.5408 103.2726,34.9398 103.4546,35.2488 C103.4546,35.2548 103.6896,35.6708 103.7176,36.2418 C103.7576,37.0208 103.3986,37.7098 102.6456,38.2988 C102.3766,38.5128 102.2686,38.8818 102.3826,39.2138 C102.3826,39.2198 102.6276,40.0048 102.2286,40.7478 C101.8466,41.4608 100.9956,41.9718 99.7066,42.2578 C98.6746,42.4898 97.2716,42.5308 95.5486,42.3888 L95.4686,42.3888 C91.7996,42.4718 88.0916,41.9718 88.0516,41.9668 L88.0466,41.9668 L87.4706,41.8948 C87.5046,41.7288 87.5216,41.5508 87.5216,41.3718 L87.5216,31.7058 C87.5216,31.4498 87.4816,31.1998 87.4126,30.9678 C87.5156,30.5708 87.8006,29.6838 88.4746,28.9288 C91.0366,26.8128 93.5396,19.6738 93.6486,19.3638 C93.6946,19.2388 93.7046,19.1028 93.6826,18.9658 C93.5856,18.2998 93.6196,17.4858 93.7566,17.2418 C94.0596,17.2478 94.8746,17.3368 95.3666,18.0438 C95.9476,18.8828 95.9246,20.3808 95.2966,22.3658 C94.3386,25.3918 94.2586,26.9858 95.0176,27.6868 C95.3946,28.0378 95.8966,28.0558 96.2616,27.9188 C96.6096,27.8358 96.9406,27.7638 97.2536,27.7108 C97.2776,27.7048 97.3056,27.6988 97.3286,27.6928 C99.0796,27.2948 102.2176,27.0508 103.3066,28.0848 C104.2316,28.9648 103.5756,30.1308 103.5006,30.2548 C103.2896,30.5878 103.3526,31.0218 103.6376,31.2898 C103.6436,31.2958 104.2426,31.8838 104.2706,32.6748 C104.2936,33.2038 104.0546,33.7448 103.5576,34.2798 Z M81.6686,42.2398 C81.2056,42.2398 80.8356,41.8478 80.8356,41.3718 L80.8356,31.7058 C80.8356,31.2238 81.2116,30.8378 81.6686,30.8378 L85.1486,30.8378 C85.6106,30.8378 85.9816,31.2298 85.9816,31.7058 L85.9816,41.3658 C85.9816,41.8478 85.6046,42.2338 85.1486,42.2338 L81.6686,42.2338 L81.6686,42.2398 Z M105.0186,34.9748 C105.5776,34.2318 105.8456,33.4358 105.8116,32.6148 C105.7776,31.7118 105.3896,31.0048 105.0706,30.5708 C105.4406,29.6068 105.5826,28.0918 104.3456,26.9138 C103.4386,26.0518 101.8986,25.6658 99.7646,25.7728 C98.2636,25.8438 97.0086,26.1348 96.9566,26.1478 L96.9526,26.1478 C96.6666,26.2008 96.3646,26.2658 96.0556,26.3378 C96.0336,25.9568 96.0966,25.0118 96.7696,22.8838 C97.5676,20.3508 97.5226,18.4128 96.6206,17.1168 C95.6736,15.7558 94.1616,15.6488 93.7166,15.6488 C93.2886,15.6488 92.8956,15.8328 92.6166,16.1718 C91.9836,16.9388 92.0566,18.3528 92.1366,19.0078 C91.3836,21.1118 89.2736,26.2718 87.4876,27.7048 C87.4536,27.7288 87.4246,27.7588 87.3966,27.7878 C86.8706,28.3648 86.5176,28.9888 86.2786,29.5358 C85.9416,29.3458 85.5596,29.2378 85.1486,29.2378 L81.6686,29.2378 C80.3566,29.2378 79.2946,30.3498 79.2946,31.7118 L79.2946,41.3718 C79.2946,42.7388 80.3626,43.8448 81.6686,43.8448 L85.1486,43.8448 C85.6566,43.8448 86.1296,43.6788 86.5176,43.3928 L87.8586,43.5598 C88.0636,43.5898 91.7146,44.0708 95.4626,43.9938 C96.1416,44.0478 96.7806,44.0768 97.3736,44.0768 C98.3956,44.0768 99.2856,43.9938 100.0266,43.8268 C101.7726,43.4408 102.9646,42.6678 103.5696,41.5328 C104.0316,40.6648 104.0316,39.8018 103.9566,39.2558 C105.0926,38.1858 105.2916,37.0028 105.2516,36.1708 C105.2296,35.6888 105.1266,35.2788 105.0186,34.9748 Z" id="Fill-19" fill="#FAFBFC"></path>
            <path d="M92.7656,110.7861 C92.8636,109.3901 94.0746,108.3371 95.4706,108.4341 C96.8676,108.5321 97.9196,109.7431 97.8226,111.1391 C97.7246,112.5361 96.5136,113.5891 95.1176,113.4911 C93.7206,113.3931 92.6676,112.1821 92.7656,110.7861 Z" id="Stroke-21" stroke="#76B0BD" stroke-width="0.736"></path>
            <path d="M16.5927,3.7124 C16.6907,2.3164 17.9017,1.2634 19.2977,1.3604 C20.6947,1.4584 21.7477,2.6694 21.6507,4.0664 C21.5527,5.4624 20.3417,6.5154 18.9457,6.4174 C17.5487,6.3204 16.4947,5.1084 16.5927,3.7124 Z" id="Stroke-23" stroke="#76B0BD" stroke-width="0.736"></path>
            <path d="M36.9326,13.6797 L35.7126,13.6027 L35.6356,14.8227 C35.6186,15.0957 35.3676,15.2627 35.0026,15.2407 C34.6616,15.2187 34.3996,15.0187 34.4156,14.7457 L34.4936,13.5257 L33.2856,13.4497 C33.0456,13.4337 32.8346,13.1467 32.8576,12.8047 C32.8796,12.4397 33.1226,12.2147 33.3626,12.2297 L34.5706,12.3057 L34.6476,11.0977 C34.6616,10.8587 34.9506,10.6367 35.2926,10.6587 C35.6576,10.6817 35.8816,10.9357 35.8666,11.1757 L35.7896,12.3837 L37.0096,12.4607 C37.2836,12.4777 37.4506,12.7287 37.4266,13.0937 C37.4056,13.4347 37.2056,13.6977 36.9326,13.6797" id="Fill-25" fill="#3FB28C"></path>
            <path d="M105.6884,5.6919 C105.7864,4.2959 106.9974,3.2429 108.3934,3.3399 C109.7904,3.4379 110.8424,4.6489 110.7454,6.0459 C110.6474,7.4419 109.4364,8.4949 108.0404,8.3969 C106.6434,8.2999 105.5904,7.0879 105.6884,5.6919 Z" id="Stroke-27" stroke="#76B0BD" stroke-width="0.736"></path>
            <path d="M109.3252,64.0581 L108.1052,63.9811 L108.0292,65.2011 C108.0122,65.4751 107.7612,65.6411 107.3952,65.6191 C107.0542,65.5971 106.7922,65.3971 106.8092,65.1241 L106.8872,63.9041 L105.6792,63.8281 C105.4382,63.8121 105.2282,63.5251 105.2502,63.1831 C105.2732,62.8181 105.5152,62.5931 105.7552,62.6081 L106.9642,62.6841 L107.0402,61.4771 C107.0542,61.2371 107.3442,61.0151 107.6852,61.0371 C108.0502,61.0601 108.2742,61.3141 108.2602,61.5541 L108.1822,62.7621 L109.4022,62.8391 C109.6762,62.8561 109.8432,63.1071 109.8202,63.4721 C109.7982,63.8141 109.5982,64.0761 109.3252,64.0581" id="Fill-29" fill="#3FB28C"></path>
            <path d="M4.5127,106.3008 C4.6107,104.9048 5.8217,103.8508 7.2177,103.9488 C8.6147,104.0468 9.6667,105.2578 9.5697,106.6538 C9.4717,108.0508 8.2607,109.1028 6.8647,109.0058 C5.4677,108.9078 4.4147,107.6968 4.5127,106.3008 Z" id="Stroke-31" stroke="#76B0BD" stroke-width="0.736"></path>
            <path d="M35.5322,103.7402 C35.6302,102.3442 36.8412,101.2912 38.2372,101.3882 C39.6342,101.4862 40.6862,102.6972 40.5892,104.0942 C40.4912,105.4902 39.2802,106.5432 37.8842,106.4452 C36.4872,106.3482 35.4342,105.1362 35.5322,103.7402 Z" id="Stroke-33" stroke="#76B0BD" stroke-width="0.736"></path>
            <path d="M66.2959,7.9902 L65.0769,7.9132 L64.9999,9.1332 C64.9829,9.4062 64.7319,9.5732 64.3669,9.5502 C64.0249,9.5292 63.7629,9.3292 63.7799,9.0552 L63.8579,7.8362 L62.6499,7.7602 C62.4099,7.7442 62.1989,7.4562 62.2209,7.1152 C62.2439,6.7502 62.4859,6.5252 62.7269,6.5402 L63.9349,6.6162 L64.0109,5.4082 C64.0259,5.1692 64.3149,4.9472 64.6559,4.9692 C65.0219,4.9912 65.2449,5.2462 65.2309,5.4862 L65.1539,6.6942 L66.3729,6.7702 C66.6479,6.7882 66.8139,7.0392 66.7909,7.4042 C66.7699,7.7452 66.5699,8.0072 66.2959,7.9902" id="Fill-35" fill="#3FB28C"></path>
            <path d="M107.7617,95.1943 C107.8597,93.7983 109.0707,92.7453 110.4667,92.8423 C111.8637,92.9403 112.9157,94.1513 112.8187,95.5483 C112.7207,96.9443 111.5097,97.9973 110.1137,97.8993 C108.7167,97.8023 107.6637,96.5903 107.7617,95.1943 Z" id="Stroke-37" stroke="#76B0BD" stroke-width="0.736"></path>
            <path d="M77.2832,104.3652 L76.0642,104.2882 L75.9872,105.5082 C75.9702,105.7822 75.7192,105.9482 75.3532,105.9262 C75.0122,105.9042 74.7502,105.7042 74.7672,105.4312 L74.8452,104.2112 L73.6372,104.1352 C73.3962,104.1192 73.1862,103.8322 73.2082,103.4902 C73.2312,103.1252 73.4732,102.9002 73.7132,102.9152 L74.9222,102.9912 L74.9982,101.7842 C75.0122,101.5442 75.3022,101.3222 75.6432,101.3442 C76.0082,101.3672 76.2322,101.6212 76.2182,101.8612 L76.1402,103.0692 L77.3602,103.1462 C77.6342,103.1632 77.8012,103.4142 77.7782,103.7792 C77.7562,104.1212 77.5572,104.3832 77.2832,104.3652" id="Fill-39" fill="#3FB28C"></path>
            <path d="M8.4101,66.6528 L7.1901,66.5758 L7.1131,67.7958 C7.0971,68.0688 6.8461,68.2358 6.4801,68.2128 C6.1391,68.1918 5.8771,67.9918 5.8941,67.7178 L5.9721,66.4988 L4.7631,66.4228 C4.5231,66.4068 4.3131,66.1188 4.3351,65.7778 C4.3571,65.4128 4.6001,65.1878 4.8401,65.2028 L6.0491,65.2788 L6.1251,64.0708 C6.1391,63.8318 6.4291,63.6098 6.7701,63.6318 C7.1351,63.6538 7.3591,63.9088 7.3441,64.1488 L7.2671,65.3558 L8.4871,65.4328 C8.7611,65.4508 8.9281,65.7018 8.9041,66.0668 C8.8831,66.4078 8.6831,66.6698 8.4101,66.6528" id="Fill-41" fill="#3FB28C"></path>
            <path d="M7.4707,47.914 C7.5687,46.518 8.7797,45.464 10.1757,45.562 C11.5727,45.66 12.6247,46.871 12.5277,48.267 C12.4297,49.664 11.2187,50.716 9.8227,50.619 C8.4257,50.521 7.3727,49.31 7.4707,47.914" id="Fill-43" fill="#3FB28C"></path>
            <path d="M94.8564,95.5268 L93.6364,95.4498 L93.5594,96.6698 C93.5434,96.9428 93.2924,97.1098 92.9264,97.0878 C92.5854,97.0658 92.3234,96.8658 92.3404,96.5928 L92.4184,95.3728 L91.2094,95.2968 C90.9694,95.2808 90.7594,94.9938 90.7814,94.6518 C90.8034,94.2868 91.0464,94.0618 91.2864,94.0768 L92.4954,94.1528 L92.5714,92.9458 C92.5854,92.7058 92.8754,92.4838 93.2164,92.5058 C93.5814,92.5288 93.8054,92.7828 93.7904,93.0228 L93.7134,94.2308 L94.9334,94.3078 C95.2074,94.3248 95.3744,94.5758 95.3504,94.9408 C95.3294,95.2828 95.1294,95.5448 94.8564,95.5268" id="Fill-45" fill="#3FB28C"></path>
            <path d="M15.7607,82.6216 L14.5407,82.5446 L14.4637,83.7646 C14.4477,84.0386 14.1967,84.2046 13.8307,84.1826 C13.4897,84.1606 13.2277,83.9606 13.2447,83.6876 L13.3227,82.4676 L12.1137,82.3916 C11.8737,82.3756 11.6637,82.0886 11.6857,81.7466 C11.7077,81.3816 11.9507,81.1566 12.1907,81.1716 L13.3997,81.2476 L13.4757,80.0406 C13.4897,79.8006 13.7797,79.5786 14.1207,79.6006 C14.4857,79.6236 14.7097,79.8776 14.6947,80.1176 L14.6177,81.3256 L15.8377,81.4026 C16.1117,81.4196 16.2787,81.6706 16.2547,82.0356 C16.2337,82.3776 16.0337,82.6396 15.7607,82.6216" id="Fill-47" fill="#3FB28C"></path>
            <path d="M56.9668,108.5591 C55.6128,108.9141 54.2278,108.1051 53.8718,106.7511 C53.5168,105.3971 54.3248,104.0121 55.6798,103.6561 C57.0328,103.3011 58.4188,104.1101 58.7748,105.4641 C59.1298,106.8181 58.3208,108.2041 56.9668,108.5591" id="Fill-49" fill="#3FB28C"></path>
            <path d="M110.7236,111.9907 C109.3696,112.3457 107.9836,111.5367 107.6276,110.1827 C107.2726,108.8287 108.0816,107.4437 109.4356,107.0877 C110.7896,106.7327 112.1756,107.5417 112.5316,108.8957 C112.8866,110.2497 112.0776,111.6357 110.7236,111.9907" id="Fill-51" fill="#3FB28C"></path>
        </g>
    </g>
</svg>