<?xml version="1.0" encoding="UTF-8"?>
<svg width="25px" height="17px" viewBox="0 0 25 17" version="1.1" xmlns="http://www.w3.org/2000/svg" xmlns:xlink="http://www.w3.org/1999/xlink">
    <!-- Generator: Sketch 57.1 (83088) - https://sketch.com -->
    <title>Icone/Up/3persons</title>
    <desc>Created with Sketch.</desc>
    <defs>
        <path d="M13.052449,7.94688182 C15.2953061,7.94688182 17.1197959,9.97039697 17.1197959,12.4575485 L17.1197959,16.2511242 C17.1197959,16.464397 16.9483673,16.6374879 16.7371429,16.6374879 C16.5259184,16.6374879 16.3544898,16.464397 16.3544898,16.2511242 L16.3544898,12.4575485 C16.3544898,10.3964273 14.8733673,8.71960909 13.052449,8.71960909 L11.752449,8.71960909 C9.93153061,8.71960909 8.45040816,10.3964273 8.45040816,12.4575485 L8.45040816,16.2511242 C8.45040816,16.464397 8.27897959,16.6374879 8.0677551,16.6374879 C7.85653061,16.6374879 7.68510204,16.464397 7.68510204,16.2511242 L7.68510204,12.4575485 C7.68510204,9.97039697 9.50959184,7.94688182 11.752449,7.94688182 L13.052449,7.94688182 Z M21.8653571,6.42383636 C23.5112755,6.42383636 24.8505612,7.89768485 24.8505612,9.70947273 L24.8505612,12.3769273 C24.8505612,12.5902 24.6791327,12.7632909 24.4679082,12.7632909 C24.2566837,12.7632909 24.0852551,12.5902 24.0852551,12.3769273 L24.0852551,9.70947273 C24.0852551,8.32371515 23.0893367,7.19656364 21.8653571,7.19656364 L20.9469898,7.19656364 C19.7230102,7.19656364 18.7270918,8.32371515 18.7270918,9.70947273 L18.7270918,12.3769273 C18.7270918,12.5902 18.5556633,12.7632909 18.3444388,12.7632909 C18.1332143,12.7632909 17.9617857,12.5902 17.9617857,12.3769273 L17.9617857,9.70947273 C17.9617857,7.89768485 19.3010714,6.42383636 20.9469898,6.42383636 L21.8653571,6.42383636 Z M3.90306122,6.42383636 C5.54897959,6.42383636 6.88826531,7.89768485 6.88826531,9.70947273 L6.88826531,12.3769273 C6.88826531,12.5902 6.71683673,12.7632909 6.50561224,12.7632909 C6.29438776,12.7632909 6.12295918,12.5902 6.12295918,12.3769273 L6.12295918,9.70947273 C6.12295918,8.32371515 5.12704082,7.19656364 3.90306122,7.19656364 L2.98520408,7.19656364 C1.76071429,7.19656364 0.765306122,8.32371515 0.765306122,9.70947273 L0.765306122,12.3769273 C0.765306122,12.5902 0.593877551,12.7632909 0.382653061,12.7632909 C0.170918367,12.7632909 2.01616501e-13,12.5902 2.01616501e-13,12.3769273 L2.01616501e-13,9.70947273 C2.01616501e-13,7.89768485 1.33928571,6.42383636 2.98520408,6.42383636 L3.90306122,6.42383636 Z M12.402398,-1.12798659e-13 C14.1942347,-1.12798659e-13 15.6518878,1.50784848 15.6518878,3.36084848 C15.6518878,5.21384848 14.1942347,6.72169697 12.402398,6.72169697 C10.6105612,6.72169697 9.15239796,5.21384848 9.15239796,3.36084848 C9.15239796,1.50784848 10.6105612,-1.12798659e-13 12.402398,-1.12798659e-13 Z M12.402398,0.772727273 C11.0325,0.772727273 9.91770408,1.93387879 9.91770408,3.36084848 C9.91770408,4.78781818 11.0325,5.9489697 12.402398,5.9489697 C13.7722959,5.9489697 14.8865816,4.78781818 14.8865816,3.36084848 C14.8865816,1.93387879 13.7722959,0.772727273 12.402398,0.772727273 Z M21.4061735,0.830063636 C22.7388265,0.830063636 23.8235204,1.94948788 23.8235204,3.32597273 C23.8235204,4.70245758 22.7388265,5.82188182 21.4061735,5.82188182 C20.0735204,5.82188182 18.9888265,4.70245758 18.9888265,3.32597273 C18.9888265,1.94948788 20.0735204,0.830063636 21.4061735,0.830063636 Z M3.44418367,0.830063636 C4.77683673,0.830063636 5.86153061,1.94948788 5.86153061,3.32597273 C5.86153061,4.70245758 4.77683673,5.82188182 3.44418367,5.82188182 C2.11153061,5.82188182 1.02683673,4.70245758 1.02683673,3.32597273 C1.02683673,1.94948788 2.11153061,0.830063636 3.44418367,0.830063636 Z M21.4061735,1.60279091 C20.4954592,1.60279091 19.7541327,2.37551818 19.7541327,3.32597273 C19.7541327,4.27642727 20.4954592,5.04915455 21.4061735,5.04915455 C22.3168878,5.04915455 23.0582143,4.27642727 23.0582143,3.32597273 C23.0582143,2.37551818 22.3168878,1.60279091 21.4061735,1.60279091 Z M3.44418367,1.60279091 C2.53346939,1.60279091 1.79214286,2.37551818 1.79214286,3.32597273 C1.79214286,4.27642727 2.53346939,5.04915455 3.44418367,5.04915455 C4.35489796,5.04915455 5.09622449,4.27642727 5.09622449,3.32597273 C5.09622449,2.37551818 4.35489796,1.60279091 3.44418367,1.60279091 Z" id="path-1"></path>
    </defs>
    <g id="Symbols" stroke="none" stroke-width="1" fill="none" fill-rule="evenodd">
        <g id="Icone/Up/3persons">
            <g>
                <mask id="mask-2" fill="white">
                    <use xlink:href="#path-1"></use>
                </mask>
                <g id="Combined-Shape"></g>
                <g id="couleur/Gris-Up" mask="url(#mask-2)" fill="#4E5B59" fill-rule="nonzero">
                    <polygon id="Rectangle" points="0 0 25 0 25 17 0 17"></polygon>
                </g>
            </g>
        </g>
    </g>
</svg>