<svg xmlns="http://www.w3.org/2000/svg" xmlns:xlink="http://www.w3.org/1999/xlink" width="49px" height="21px" viewBox="0 0 49 21" version="1.1">
    <!-- Generator: Sketch 53.2 (72643) - https://sketchapp.com -->
    <g id="Page-1" stroke="none" stroke-width="1">
        <g id="04_01-Dashboard--Dej-Factu">
            <g id="Group-3">
                <g id="Icone/Foncé/Acceptation">
                    <g id="logo-titre">
                        <text id="€" font-family="Arial-BoldMT, Arial" font-size="20" font-weight="bold">
                            <tspan x="14" y="18">€</tspan>
                        </text>
                        <path d="M42,10 L41.2363636,10 L41.2363636,0.7 L0.763636364,0.7 L0.763636364,20.3 L34,20.3 L34,21 L0,21 L0,0 L42,0 L42,10 Z" id="Combined-Shape"/>
                        <g id="0:-Icons-/-Dark-/-Checkmark" transform="translate(35.000000, 11.000000)">
                            <path d="M13.7001293,2.029722 C13.7001293,2.029722 5.14271614,9.50740731 5.00826974,9.62780708 C4.60794053,9.97610639 3.95978846,9.97610639 3.55945925,9.62780708 C3.55945925,9.62780708 0.279569024,6.75971271 0.269535711,6.75111273 C-0.0996902309,6.39851342 -0.0896569173,5.85241449 0.300137317,5.50841517 C0.699964866,5.16011585 1.34861859,5.16011585 1.74894781,5.50841517 L4.28336283,7.72721081 L12.2513189,0.761224487 C12.6511464,0.412925171 13.2998001,0.412925171 13.7001293,0.761224487 C14.0999569,1.1095238 14.0999569,1.67712269 13.7001293,2.029722 L13.7001293,2.029722 Z" id="Fill-34"/>
                        </g>
                    </g>
                </g>
            </g>
        </g>
    </g>
</svg>