<svg xmlns="http://www.w3.org/2000/svg" xmlns:xlink="http://www.w3.org/1999/xlink" viewBox="0 0 49 21" version="1.1">
    <!-- Generator: Sketch 53.2 (72643) - https://sketchapp.com -->
    <title>Icone/Foncé/Acceptation</title>
    <desc>Created with Sketch.</desc>
    <g id="Page-1" stroke="none" stroke-width="1" fill-rule="evenodd">
        <g id="iPhone-8" transform="translate(-223.000000, -283.000000)">
            <g id="Icone/Foncé/Acceptation" transform="translate(223.000000, 283.000000)">
                <g id="Plan-de-travail-9">
                    <path d="M21.65,3.44 C22.6304486,3.40470274 23.6058005,3.59635082 24.5,4 L23.92,6.7 C23.2583447,6.10817802 22.3856081,5.80885102 21.5,5.87 C20.5116096,5.83902878 19.5625873,6.25836423 18.92,7.01 C18.5339205,7.47720284 18.2632834,8.0287544 18.13,8.62 L23.5,8.62 L23.19,10.14 L17.94,10.14 C17.94,10.29 17.94,10.48 17.94,10.71 C17.94,10.94 17.94,11.18 17.94,11.43 L22.94,11.43 L22.6,13 L18.15,13 C18.2644068,13.599048 18.5216895,14.1616396 18.9,14.64 C19.5235833,15.3950909 20.461152,15.8195807 21.44,15.79 C22.556771,15.8427682 23.6446589,15.4257445 24.44,14.64 L24.44,17.64 C23.5035445,18.0832558 22.475653,18.299113 21.44,18.27 C19.6692137,18.3234638 17.9608824,17.6131768 16.75,16.32 C15.907741,15.3882331 15.3461342,14.2372857 15.13,13 L13.69,13 L14,11.47 L15,11.47 C15,11.31 15,11.14 15,10.97 C15,10.8 15,10.41 15,10.18 L13.69,10.18 L14,8.66 L15.16,8.66 C15.3968232,7.4483042 15.9604852,6.32443817 16.79,5.41 C18.0459264,4.07388476 19.8174299,3.34487097 21.65,3.41 L21.65,3.44 Z" id="Path" fill-rule="nonzero"/>
                    <polygon id="Path" fill-rule="nonzero" points="42 10 41.24 10 41.24 0.7 0.76 0.7 0.76 20.3 34 20.3 34 21 0 21 0 0 42 0"/>
                    <path d="M48.7,13 L40,20.63 C39.5803859,20.980985 38.9696141,20.980985 38.55,20.63 L35.26,17.75 C35.0800546,17.5942438 34.9766563,17.3679923 34.9766563,17.13 C34.9766563,16.8920077 35.0800546,16.6657562 35.26,16.51 C35.6796141,16.159015 36.2903859,16.159015 36.71,16.51 L39.24,18.73 L47.24,11.73 C47.6596141,11.379015 48.2703859,11.379015 48.69,11.73 C48.8818443,11.8842297 48.9942558,12.1164835 48.996194,12.3626284 C48.9981321,12.6087732 48.8893919,12.8427684 48.7,13 L48.7,13 Z" id="Path" fill-rule="nonzero"/>
                </g>
            </g>
        </g>
    </g>
</svg>