<?xml version="1.0" encoding="UTF-8"?>
<svg width="24px" height="24px" viewBox="0 0 24 24" version="1.1" xmlns="http://www.w3.org/2000/svg" xmlns:xlink="http://www.w3.org/1999/xlink">
    <!-- Generator: Sketch 51.3 (57544) - http://www.bohemiancoding.com/sketch -->
    <title>0: Icons / Dark / Adjustments</title>
    <desc>Created with Sketch.</desc>
    <defs></defs>
    <g id="0:-Icons-/-Dark-/-Adjustments" stroke="none" stroke-width="1" fill="none" fill-rule="evenodd">
        <path d="M22.5,21 C22.5,21.828 21.828,22.5 21,22.5 L3,22.5 C2.172,22.5 1.5,21.828 1.5,21 L1.5,3 C1.5,2.172 2.172,1.5 3,1.5 L21,1.5 C21.828,1.5 22.5,2.172 22.5,3 L22.5,21 L22.5,21 Z M21,0 L3,0 C1.34325,0 0,1.34325 0,3 L0,21 C0,22.65675 1.34325,24 3,24 L21,24 C22.65675,24 24,22.65675 24,21 L24,3 C24,1.34325 22.65675,0 21,0 L21,0 Z M15,14.55 C14.0055,14.55 13.2,13.74375 13.2,12.75 C13.2,11.75625 14.0055,10.95 15,10.95 C15.9945,10.95 16.8,11.75625 16.8,12.75 C16.8,13.74375 15.9945,14.55 15,14.55 L15,14.55 Z M19.5,12 L17.8935,12 C17.55975,10.70775 16.3965,9.75 15,9.75 C13.6035,9.75 12.441,10.70775 12.1065,12 L4.5,12 C4.086,12 3.75,12.336 3.75,12.75 C3.75,13.16475 4.086,13.5 4.5,13.5 L12.1065,13.5 C12.44025,14.79225 13.6035,15.75 15,15.75 C16.3965,15.75 17.55975,14.79225 17.8935,13.5 L19.5,13.5 C19.914,13.5 20.25,13.16475 20.25,12.75 C20.25,12.336 19.914,12 19.5,12 L19.5,12 Z M8.25,8.55 C7.2555,8.55 6.45,7.74375 6.45,6.75 C6.45,5.75625 7.2555,4.95075 8.25,4.95075 C9.2445,4.95075 10.05,5.75625 10.05,6.75 C10.05,7.74375 9.2445,8.55 8.25,8.55 L8.25,8.55 Z M19.5,6 L11.1435,6 C10.80975,4.70775 9.6465,3.75 8.25,3.75 C6.8535,3.75 5.69025,4.70775 5.3565,6 L4.5,6 C4.086,6 3.75,6.336 3.75,6.75 C3.75,7.16475 4.086,7.5 4.5,7.5 L5.3565,7.5 C5.69025,8.79225 6.8535,9.75 8.25,9.75 C9.6465,9.75 10.80975,8.79225 11.1435,7.5 L19.5,7.5 C19.914,7.5 20.25,7.16475 20.25,6.75 C20.25,6.336 19.914,6 19.5,6 L19.5,6 Z M8.25,20.55 C7.2555,20.55 6.45,19.74375 6.45,18.75 C6.45,17.75625 7.2555,16.95075 8.25,16.95075 C9.2445,16.95075 10.05,17.75625 10.05,18.75 C10.05,19.74375 9.2445,20.55 8.25,20.55 L8.25,20.55 Z M19.5,18 L11.1435,18 C10.80975,16.7085 9.6465,15.75 8.25,15.75 C6.8535,15.75 5.69025,16.7085 5.3565,18 L4.5,18 C4.086,18 3.75,18.33525 3.75,18.75 C3.75,19.16475 4.086,19.5 4.5,19.5 L5.3565,19.5 C5.69025,20.79225 6.8535,21.75 8.25,21.75 C9.6465,21.75 10.80975,20.79225 11.1435,19.5 L19.5,19.5 C19.914,19.5 20.25,19.16475 20.25,18.75 C20.25,18.33525 19.914,18 19.5,18 L19.5,18 Z" id="Fill-171" fill="#000000"></path>
    </g>
</svg>