<?xml version="1.0" encoding="UTF-8"?>
<svg width="24px" height="24px" viewBox="0 0 24 24" version="1.1" xmlns="http://www.w3.org/2000/svg" xmlns:xlink="http://www.w3.org/1999/xlink">
    <!-- Generator: Sketch 51.3 (57544) - http://www.bohemiancoding.com/sketch -->
    <title>0: Icons / Dark / Aim</title>
    <desc>Created with Sketch.</desc>
    <defs></defs>
    <g id="0:-Icons-/-Dark-/-Aim" stroke="none" stroke-width="1" fill="none" fill-rule="evenodd">
        <path d="M12.8,22.3592 L12.8,18.4 C12.8,17.9584 12.4424,17.6 12,17.6 C11.5576,17.6 11.2,17.9584 11.2,18.4 L11.2,22.3592 C6.096,21.9704 2.028,17.9032 1.6384,12.8 L5.6,12.8 C6.0424,12.8 6.4,12.4424 6.4,12 C6.4,11.5576 6.0424,11.2 5.6,11.2 L1.6384,11.2 C2.028,6.0968 6.096,2.0296 11.2,1.6408 L11.2,5.6 C11.2,6.0424 11.5576,6.4 12,6.4 C12.4424,6.4 12.8,6.0424 12.8,5.6 L12.8,1.6408 C17.904,2.0296 21.972,6.0968 22.3616,11.2 L18.4,11.2 C17.9576,11.2 17.6,11.5576 17.6,12 C17.6,12.4424 17.9576,12.8 18.4,12.8 L22.3616,12.8 C21.972,17.9032 17.904,21.9704 12.8,22.3592 L12.8,22.3592 Z M12,0 C5.3728,0 0,5.3728 0,12 C0,18.6272 5.3728,24 12,24 C18.6272,24 24,18.6272 24,12 C24,5.3728 18.6272,0 12,0 L12,0 Z" id="Fill-65" fill="#000000"></path>
    </g>
</svg>