<?xml version="1.0" encoding="UTF-8"?>
<svg width="24px" height="24px" viewBox="0 0 24 24" version="1.1" xmlns="http://www.w3.org/2000/svg" xmlns:xlink="http://www.w3.org/1999/xlink">
    <!-- Generator: Sketch 51.3 (57544) - http://www.bohemiancoding.com/sketch -->
    <title>0: Icons / Dark / Attachment</title>
    <desc>Created with Sketch.</desc>
    <defs></defs>
    <g id="0:-Icons-/-Dark-/-Attachment" stroke="none" stroke-width="1" fill="none" fill-rule="evenodd">
        <path d="M16.5,3 L16.5,18 C16.5,20.48475 14.48475,22.5 12,22.5 C9.51525,22.5 7.5,20.48475 7.5,18 L7.5,4.5 C7.5,2.84325 8.84325,1.5 10.5,1.5 C12.15675,1.5 13.5,2.84325 13.5,4.5 L13.5,18 C13.5,18.828 12.828,19.5 12,19.5 C11.172,19.5 10.5,18.828 10.5,18 L10.5,6 L9,6 L9,18 C9,19.65675 10.34325,21 12,21 C13.65675,21 15,19.65675 15,18 L15,4.5 C15,2.01525 12.98475,0 10.5,0 C8.01525,0 6,2.01525 6,4.5 L6,18.75 C6.36975,21.70875 8.94075,24 12,24 C15.05925,24 17.63025,21.70875 18,18.75 L18,3 L16.5,3" id="Fill-210" fill="#000000"></path>
    </g>
</svg>