<?xml version="1.0" encoding="UTF-8"?>
<svg width="24px" height="24px" viewBox="0 0 24 24" version="1.1" xmlns="http://www.w3.org/2000/svg" xmlns:xlink="http://www.w3.org/1999/xlink">
    <!-- Generator: Sketch 51.3 (57544) - http://www.bohemiancoding.com/sketch -->
    <title>0: Icons / Dark / Avatar</title>
    <desc>Created with Sketch.</desc>
    <defs></defs>
    <g id="0:-Icons-/-Dark-/-Avatar" stroke="none" stroke-width="1" fill="none" fill-rule="evenodd">
        <path d="M19,19.125 C19,20.98875 17.3515,22.5 15.31825,22.5 L9.18175,22.5 C7.1485,22.5 5.5,20.98875 5.5,19.125 L5.5,16.875 C5.5,15.2805 6.70975,13.953 8.33125,13.59975 C9.4375,14.478 10.7875,15 12.25,15 C13.7125,15 15.0625,14.478 16.16875,13.59975 C17.79025,13.953 19,15.2805 19,16.875 L19,19.125 L19,19.125 Z M7,7.5 C7,4.1865 9.3505,1.5 12.25,1.5 C15.1495,1.5 17.5,4.1865 17.5,7.5 C17.5,10.8135 15.1495,13.5 12.25,13.5 C9.3505,13.5 7,10.8135 7,7.5 L7,7.5 Z M17.46325,12.26475 C18.4225,10.96875 19,9.309 19,7.5 C19,3.3585 15.97825,0 12.25,0 C8.52175,0 5.5,3.3585 5.5,7.5 C5.5,9.309 6.0775,10.96875 7.03675,12.26475 C5.27425,12.87375 4,14.52975 4,16.5 L4,19.5 C4,21.98475 6.01525,24 8.5,24 L16,24 C18.48475,24 20.5,21.98475 20.5,19.5 L20.5,16.5 C20.5,14.52975 19.22575,12.87375 17.46325,12.26475 L17.46325,12.26475 Z" id="Fill-177" fill="#000000"></path>
    </g>
</svg>