<svg xmlns="http://www.w3.org/2000/svg" xmlns:xlink="http://www.w3.org/1999/xlink" width="31px" height="30px" viewBox="0 0 31 30" version="1.1">
    <!-- Generator: Sketch 63.1 (92452) - https://sketch.com -->
    <title>Fill 1</title>
    <desc>Created with Sketch.</desc>
    <g id="Symbols" stroke="none" stroke-width="1" fill="none" fill-rule="evenodd">
        <g id="-Icone-/-V2-/fleche" fill="#4E5B59" fill-rule="nonzero">
            <path d="M29.8294,14.4238 L1.7094,14.4068 L15.2964,0.8538 C15.4924,0.6588 15.4924,0.3428 15.2974,0.1468 C15.1014,-0.0492 14.7864,-0.0492 14.5904,0.1468 L0.1464,14.5538 C-0.0486,14.7478 -0.0486,15.0648 0.1454,15.2598 L14.6794,29.8808 C14.7764,29.9798 14.9054,30.0278 15.0334,30.0278 C15.1614,30.0278 15.2884,29.9798 15.3864,29.8828 C15.5814,29.6888 15.5824,29.3718 15.3884,29.1758 L1.7024,15.4068 L29.8294,15.4238 C30.1054,15.4238 30.3294,15.1998 30.3294,14.9238 C30.3294,14.6488 30.1054,14.4238 29.8294,14.4238" id="Fill-1"/>
        </g>
    </g>
</svg>