<?xml version="1.0" encoding="UTF-8"?>
<svg xmlns="http://www.w3.org/2000/svg" xmlns:xlink="http://www.w3.org/1999/xlink" viewBox="0 0 23 23" version="1.1">
    <!-- Generator: Sketch 53.2 (72643) - https://sketchapp.com -->
    <title>Icone/Foncé/Facture</title>
    <desc>Created with Sketch.</desc>
    <g id="Page-1" stroke="none" stroke-width="1" fill="none" fill-rule="evenodd">
        <g id="04_01-Dashboard--Dej-Factu" transform="translate(-25.000000, -341.000000)" stroke="#4E5B59">
            <g id="Nav-Bar" transform="translate(-8.000000, -5.000000)">
                <g id="Icone/Foncé/Facture" transform="translate(34.000000, 346.000000)">
                    <g id="Fact-reg">
                        <path d="M7.5,6.5 L17.5,6.5" id="Line-5" stroke-linecap="square"/>
                        <path d="M7.5,9.5 L15.5,9.5" id="Line-5" stroke-linecap="square"/>
                        <path d="M7.5,12.5 L13.5,12.5" id="Line-5" stroke-linecap="square"/>
                        <path d="M5.04718494,3.97201251 L5.04718494,17.0035077 L0.313218165,17.0035077 C0.310421899,20.2791657 2.36221016,21.9169947 6.46858295,21.9169947 C10.5749557,21.9169947 14.1306878,21.9169947 17.1357791,21.9169947 C19.7846261,21.8712478 21.1090497,20.2334188 21.1090497,17.0035077 C21.1090497,13.7735965 21.1090497,8.41259503 21.1090497,0.920503164 L18.5387218,4.50017126 L15.6622028,0.440328337 L12.8345066,4.1906246 L10.1435741,0.440328337 L7.29404073,4.1906246 L5.04718494,0.920503164 L5.04718494,3.97201251 Z" id="Path-3"/>
                        <path d="M5.0027243,17.023473 L15.3360463,17.023473 C15.5840192,20.0517174 16.7763471,21.5658396 18.91303,21.5658396" id="Path-4"/>
                    </g>
                </g>
            </g>
        </g>
    </g>
</svg>