<svg xmlns="http://www.w3.org/2000/svg" xmlns:xlink="http://www.w3.org/1999/xlink" width="28px" height="30px" viewBox="0 0 28 30" version="1.1">
    <defs>
        <path d="M19.8765432,0.302363915 C20.1586765,0.302363915 20.3929699,0.521785608 20.4370072,0.808992931 L20.4444444,0.907031278 L20.4444444,3.02336705 L22.3372593,3.02336705 C22.6196481,3.02336705 22.853737,3.24278874 22.8977309,3.52999607 L22.9051605,3.62803441 L22.9051605,29.1752305 C22.9051605,29.4756293 22.6990805,29.7250908 22.4293365,29.7719792 L22.3372593,29.7798979 L3.02861728,29.7798979 C2.74648395,29.7798979 2.51219062,29.5604762 2.46815328,29.2732689 L2.46071605,29.1752305 L2.46071605,27.0588947 L0.567901235,27.0588947 C0.285767901,27.0588947 0.0514745679,26.839473 0.00743723457,26.5522657 L-2.00728323e-13,26.4542274 L-2.00728323e-13,0.907031278 C-2.00728323e-13,0.606632532 0.20608,0.357170965 0.475824,0.310282639 L0.567901235,0.302363915 L19.8765432,0.302363915 Z M21.769358,4.23270178 L20.4444444,4.23270178 L20.4444444,26.4542274 C20.4444444,26.7546261 20.2383644,27.0040877 19.9686204,27.050976 L19.8765432,27.0588947 L3.59651852,27.0588947 L3.59651852,28.5705631 L21.769358,28.5705631 L21.769358,4.23270178 Z M19.308642,1.51169864 L1.13580247,1.51169864 L1.13580247,25.84956 L19.308642,25.84956 L19.308642,1.51169864 Z M14.2022882,15 C14.9834949,15 15.5609086,15.2401848 15.8345196,15.3842956 C15.9005637,15.4203233 15.9335857,15.4969977 15.910942,15.5699769 L15.910942,15.5699769 L15.6788444,16.3237875 C15.6637486,16.3727483 15.6288396,16.4096998 15.5807218,16.4263279 C15.5354344,16.4448037 15.4835427,16.4401848 15.4401423,16.4152425 C15.2052142,16.2766744 14.7438494,16.1168591 14.2136101,16.1168591 C13.6399704,16.1168591 13.1616228,16.3108545 12.7898892,16.6960739 C12.5077867,16.9639723 12.2964458,17.3704388 12.1709621,17.8803695 L12.1709621,17.8803695 L15.2297449,17.8803695 C15.3203196,17.8803695 15.392968,17.9515012 15.392968,18.0383372 L15.392968,18.0383372 L15.392968,18.6110855 C15.392968,18.6988453 15.3203196,18.7699769 15.2297449,18.7699769 L15.2297449,18.7699769 L12.0190608,18.7699769 C12.0115129,18.8752887 12.005852,18.9861432 12.005852,19.091455 L12.005852,19.091455 L12.005852,19.1385681 L15.2297449,19.1385681 C15.3203196,19.1385681 15.392968,19.208776 15.392968,19.2974596 L15.392968,19.2974596 L15.392968,19.8572748 C15.392968,19.9459584 15.3203196,20.0170901 15.2297449,20.0170901 L15.2297449,20.0170901 L12.1162399,20.0170901 C12.2124755,20.526097 12.4058902,20.93903 12.6879926,21.2494226 C13.0757655,21.6475751 13.6041179,21.8600462 14.2136101,21.8600462 C14.8665026,21.8600462 15.4090073,21.5866051 15.5609086,21.5034642 C15.6014785,21.4794457 15.6580877,21.4757506 15.701488,21.4951501 C15.7477189,21.5136259 15.7826279,21.5533487 15.7967802,21.6004619 L15.7967802,21.6004619 L15.9949123,22.3200924 C16.0118951,22.3847575 15.9854774,22.4540416 15.9288683,22.4928406 C15.6977141,22.6452656 15.0580304,23 14.0975612,23 C13.0984092,23 12.213419,22.6193995 11.6039268,21.9284065 C11.1557708,21.4424942 10.8661205,20.7995381 10.7453542,20.0170901 L10.7453542,20.0170901 L10.1622797,20.0170901 C10.0726484,20.0170901 10,19.9459584 10,19.8572748 L10,19.8572748 L10,19.2974596 C10,19.208776 10.0726484,19.1385681 10.1622797,19.1385681 L10.1622797,19.1385681 L10.6651579,19.1265589 C10.6651579,19.0018476 10.6698753,18.882679 10.6774232,18.7699769 L10.6774232,18.7699769 L10.1622797,18.7699769 C10.0726484,18.7699769 10,18.6988453 10,18.6110855 L10,18.6110855 L10,18.0383372 C10,17.9515012 10.0726484,17.8803695 10.1622797,17.8803695 L10.1622797,17.8803695 L10.797246,17.8803695 C10.9510342,17.1330254 11.2878589,16.4845266 11.7737543,15.995843 C12.422873,15.3344111 13.2418191,15 14.2022882,15 Z M3.02861728,9.52354121 L8.2345679,9.52354121 C8.54804938,9.52354121 8.80246914,9.79443218 8.80246914,10.1282086 C8.80246914,10.4286073 8.59638914,10.6780689 8.32664514,10.7249572 L8.2345679,10.7328759 L3.02861728,10.7328759 C2.7151358,10.7328759 2.46071605,10.461985 2.46071605,10.1282086 C2.46071605,9.82780982 2.66679605,9.57834825 2.93654005,9.53145993 L3.02861728,9.52354121 L8.2345679,9.52354121 Z M10.6007284,6.50020439 C10.9142099,6.50020439 11.1686296,6.77109537 11.1686296,7.10487175 C11.1686296,7.4052705 10.9625496,7.65473207 10.6928056,7.70162039 L10.6007284,7.70953912 L3.02861728,7.70953912 C2.7151358,7.70953912 2.46071605,7.43864814 2.46071605,7.10487175 C2.46071605,6.80447301 2.66679605,6.55501144 2.93654005,6.50812311 L3.02861728,6.50020439 L10.6007284,6.50020439 Z M13.4402346,3.47686757 C13.753716,3.47686757 14.0081358,3.74775855 14.0081358,4.08153494 C14.0081358,4.38193368 13.8020558,4.63139525 13.5323118,4.67828358 L13.4402346,4.6862023 L3.02861728,4.6862023 C2.7151358,4.6862023 2.46071605,4.41531132 2.46071605,4.08153494 C2.46071605,3.78113619 2.66679605,3.53167462 2.93654005,3.4847863 L3.02861728,3.47686757 L13.4402346,3.47686757 Z" id="path-bs-1"/>
    </defs>
    <g id="Symbols" stroke="none" stroke-width="1" fill="none" fill-rule="evenodd">
        <g id="Icone/Foncé/facture">
            <g>
                <mask id="mask-bs-2" fill="white">
                    <use xlink:href="#path-bs-1"/>
                </mask>
                <path d="M19.8765432,0.302363915 C20.1586765,0.302363915 20.3929699,0.521785608 20.4370072,0.808992931 L20.4444444,0.907031278 L20.4444444,3.02336705 L22.3372593,3.02336705 C22.6196481,3.02336705 22.853737,3.24278874 22.8977309,3.52999607 L22.9051605,3.62803441 L22.9051605,29.1752305 C22.9051605,29.4756293 22.6990805,29.7250908 22.4293365,29.7719792 L22.3372593,29.7798979 L3.02861728,29.7798979 C2.74648395,29.7798979 2.51219062,29.5604762 2.46815328,29.2732689 L2.46071605,29.1752305 L2.46071605,27.0588947 L0.567901235,27.0588947 C0.285767901,27.0588947 0.0514745679,26.839473 0.00743723457,26.5522657 L-2.00728323e-13,26.4542274 L-2.00728323e-13,0.907031278 C-2.00728323e-13,0.606632532 0.20608,0.357170965 0.475824,0.310282639 L0.567901235,0.302363915 L19.8765432,0.302363915 Z M21.769358,4.23270178 L20.4444444,4.23270178 L20.4444444,26.4542274 C20.4444444,26.7546261 20.2383644,27.0040877 19.9686204,27.050976 L19.8765432,27.0588947 L3.59651852,27.0588947 L3.59651852,28.5705631 L21.769358,28.5705631 L21.769358,4.23270178 Z M19.308642,1.51169864 L1.13580247,1.51169864 L1.13580247,25.84956 L19.308642,25.84956 L19.308642,1.51169864 Z M14.2022882,15 C14.9834949,15 15.5609086,15.2401848 15.8345196,15.3842956 C15.9005637,15.4203233 15.9335857,15.4969977 15.910942,15.5699769 L15.910942,15.5699769 L15.6788444,16.3237875 C15.6637486,16.3727483 15.6288396,16.4096998 15.5807218,16.4263279 C15.5354344,16.4448037 15.4835427,16.4401848 15.4401423,16.4152425 C15.2052142,16.2766744 14.7438494,16.1168591 14.2136101,16.1168591 C13.6399704,16.1168591 13.1616228,16.3108545 12.7898892,16.6960739 C12.5077867,16.9639723 12.2964458,17.3704388 12.1709621,17.8803695 L12.1709621,17.8803695 L15.2297449,17.8803695 C15.3203196,17.8803695 15.392968,17.9515012 15.392968,18.0383372 L15.392968,18.0383372 L15.392968,18.6110855 C15.392968,18.6988453 15.3203196,18.7699769 15.2297449,18.7699769 L15.2297449,18.7699769 L12.0190608,18.7699769 C12.0115129,18.8752887 12.005852,18.9861432 12.005852,19.091455 L12.005852,19.091455 L12.005852,19.1385681 L15.2297449,19.1385681 C15.3203196,19.1385681 15.392968,19.208776 15.392968,19.2974596 L15.392968,19.2974596 L15.392968,19.8572748 C15.392968,19.9459584 15.3203196,20.0170901 15.2297449,20.0170901 L15.2297449,20.0170901 L12.1162399,20.0170901 C12.2124755,20.526097 12.4058902,20.93903 12.6879926,21.2494226 C13.0757655,21.6475751 13.6041179,21.8600462 14.2136101,21.8600462 C14.8665026,21.8600462 15.4090073,21.5866051 15.5609086,21.5034642 C15.6014785,21.4794457 15.6580877,21.4757506 15.701488,21.4951501 C15.7477189,21.5136259 15.7826279,21.5533487 15.7967802,21.6004619 L15.7967802,21.6004619 L15.9949123,22.3200924 C16.0118951,22.3847575 15.9854774,22.4540416 15.9288683,22.4928406 C15.6977141,22.6452656 15.0580304,23 14.0975612,23 C13.0984092,23 12.213419,22.6193995 11.6039268,21.9284065 C11.1557708,21.4424942 10.8661205,20.7995381 10.7453542,20.0170901 L10.7453542,20.0170901 L10.1622797,20.0170901 C10.0726484,20.0170901 10,19.9459584 10,19.8572748 L10,19.8572748 L10,19.2974596 C10,19.208776 10.0726484,19.1385681 10.1622797,19.1385681 L10.1622797,19.1385681 L10.6651579,19.1265589 C10.6651579,19.0018476 10.6698753,18.882679 10.6774232,18.7699769 L10.6774232,18.7699769 L10.1622797,18.7699769 C10.0726484,18.7699769 10,18.6988453 10,18.6110855 L10,18.6110855 L10,18.0383372 C10,17.9515012 10.0726484,17.8803695 10.1622797,17.8803695 L10.1622797,17.8803695 L10.797246,17.8803695 C10.9510342,17.1330254 11.2878589,16.4845266 11.7737543,15.995843 C12.422873,15.3344111 13.2418191,15 14.2022882,15 Z M3.02861728,9.52354121 L8.2345679,9.52354121 C8.54804938,9.52354121 8.80246914,9.79443218 8.80246914,10.1282086 C8.80246914,10.4286073 8.59638914,10.6780689 8.32664514,10.7249572 L8.2345679,10.7328759 L3.02861728,10.7328759 C2.7151358,10.7328759 2.46071605,10.461985 2.46071605,10.1282086 C2.46071605,9.82780982 2.66679605,9.57834825 2.93654005,9.53145993 L3.02861728,9.52354121 L8.2345679,9.52354121 Z M10.6007284,6.50020439 C10.9142099,6.50020439 11.1686296,6.77109537 11.1686296,7.10487175 C11.1686296,7.4052705 10.9625496,7.65473207 10.6928056,7.70162039 L10.6007284,7.70953912 L3.02861728,7.70953912 C2.7151358,7.70953912 2.46071605,7.43864814 2.46071605,7.10487175 C2.46071605,6.80447301 2.66679605,6.55501144 2.93654005,6.50812311 L3.02861728,6.50020439 L10.6007284,6.50020439 Z M13.4402346,3.47686757 C13.753716,3.47686757 14.0081358,3.74775855 14.0081358,4.08153494 C14.0081358,4.38193368 13.8020558,4.63139525 13.5323118,4.67828358 L13.4402346,4.6862023 L3.02861728,4.6862023 C2.7151358,4.6862023 2.46071605,4.41531132 2.46071605,4.08153494 C2.46071605,3.78113619 2.66679605,3.53167462 2.93654005,3.4847863 L3.02861728,3.47686757 L13.4402346,3.47686757 Z" id="path-bs-1"/>
                <g id="couleur/Gris-Up" mask="url(#mask-bs-2)" fill="#4E5B59" fill-rule="nonzero">
                    <g transform="translate(-4.000000, 0.000000)" id="Rectangle">
                        <polygon points="0 0 30 0 30 30 0 30"/>
                    </g>
                </g>
            </g>
        </g>
    </g>
</svg>