<?xml version="1.0" encoding="UTF-8"?>
<svg width="24px" height="24px" viewBox="0 0 24 24" version="1.1" xmlns="http://www.w3.org/2000/svg" xmlns:xlink="http://www.w3.org/1999/xlink">
    <!-- Generator: Sketch 51.3 (57544) - http://www.bohemiancoding.com/sketch -->
    <title>0: Icons / Dark / Bookmark</title>
    <desc>Created with Sketch.</desc>
    <defs></defs>
    <g id="0:-Icons-/-Dark-/-Bookmark" stroke="none" stroke-width="1" fill="none" fill-rule="evenodd">
        <path d="M19,20.8 C19,21.6832 18.2832,22.4 17.4,22.4 L11.8,16.8 L6.2,22.4 C5.3168,22.4 4.6,21.6832 4.6,20.8 L4.6,3.2 C4.6,2.3168 5.3168,1.6 6.2,1.6 L17.4,1.6 C18.2832,1.6 19,2.3168 19,3.2 L19,20.8 L19,20.8 Z M17.4,0 L6.2,0 C4.4328,0 3,1.4328 3,3.2 L3,20.8 C3,22.5672 4.4328,24 6.2,24 L11.8,18.4 L17.4,24 C19.1672,24 20.6,22.5672 20.6,20.8 L20.6,3.2 C20.6,1.4328 19.1672,0 17.4,0 L17.4,0 Z" id="Fill-206" fill="#000000"></path>
    </g>
</svg>