<?xml version="1.0" encoding="UTF-8"?>
<svg width="24px" height="24px" viewBox="0 0 24 24" version="1.1" xmlns="http://www.w3.org/2000/svg" xmlns:xlink="http://www.w3.org/1999/xlink">
    <!-- Generator: Sketch 51.3 (57544) - http://www.bohemiancoding.com/sketch -->
    <title>0: Icons / Dark / Bottle</title>
    <desc>Created with Sketch.</desc>
    <defs></defs>
    <g id="0:-Icons-/-Dark-/-Bottle" stroke="none" stroke-width="1" fill="none" fill-rule="evenodd">
        <path d="M15.5,22.5 L9.5,22.5 L9.5,12 C9.5,11.172 10.172,10.5 11,10.5 L14,10.5 C14.828,10.5 15.5,11.172 15.5,12 L15.5,22.5 L15.5,22.5 Z M11.75,4.5 L13.25,4.5 L13.25,9 L11.75,9 L11.75,4.5 Z M11.75,1.5 L13.25,1.5 L13.25,3 L11.75,3 L11.75,1.5 Z M14.7605,9 L14.75,9 L14.75,0.75 C14.75,0.336 14.41475,0 14,0 L11,0 C10.58525,0 10.25,0.336 10.25,0.75 L10.25,9 L10.24025,9 C8.72675,9 8,10.34325 8,12 L8,24 L17,24 L17,12 C17,10.34325 16.235,9 14.7605,9 L14.7605,9 Z" id="Fill-153" fill="#000000"></path>
    </g>
</svg>