<?xml version="1.0" encoding="UTF-8"?>
<svg width="24px" height="24px" viewBox="0 0 24 24" version="1.1" xmlns="http://www.w3.org/2000/svg" xmlns:xlink="http://www.w3.org/1999/xlink">
    <!-- Generator: Sketch 51.3 (57544) - http://www.bohemiancoding.com/sketch -->
    <title>0: Icons / Dark / Bottom-Aligned Text</title>
    <desc>Created with Sketch.</desc>
    <defs></defs>
    <g id="0:-Icons-/-Dark-/-Bottom-Aligned-Text" stroke="none" stroke-width="1" fill="none" fill-rule="evenodd">
        <path d="M23.1727561,11.5711582 L11.5913415,11.5711582 C11.1338756,11.5711582 10.7640976,11.9425907 10.7640976,12.3992293 C10.7640976,12.8566952 11.1338756,13.2273005 11.5913415,13.2273005 L23.1727561,13.2273005 C23.630222,13.2273005 24,12.8566952 24,12.3992293 C24,11.9425907 23.630222,11.5711582 23.1727561,11.5711582 L23.1727561,11.5711582 Z M23.1727561,6.60273133 L16.5548049,6.62093069 C16.097339,6.62093069 15.727561,6.97333659 15.727561,7.43080247 C15.727561,7.88826835 16.097339,8.27541849 16.5548049,8.27541849 L23.1727561,8.25804637 C23.630222,8.25804637 24,7.88826835 24,7.43080247 C24,6.97333659 23.630222,6.60273133 23.1727561,6.60273133 L23.1727561,6.60273133 Z M23.1727561,16.5404123 L11.5913415,16.5404123 C11.1338756,16.5404123 10.7640976,16.9110176 10.7640976,17.3684834 C10.7640976,17.8259493 11.1338756,18.1965546 11.5913415,18.1965546 L23.1727561,18.1965546 C23.630222,18.1965546 24,17.8259493 24,17.3684834 C24,16.9110176 23.630222,16.5404123 23.1727561,16.5404123 L23.1727561,16.5404123 Z M13.2458293,3.3119551 L23.1727561,3.3119551 C23.630222,3.3119551 24,2.91901424 24,2.46237561 C24,2.00408249 23.630222,1.63347722 23.1727561,1.63347722 L13.2458293,1.63347722 C12.7883634,1.63347722 12.4185854,2.00408249 12.4185854,2.46237561 C12.4185854,2.91901424 12.7883634,3.3119551 13.2458293,3.3119551 L13.2458293,3.3119551 Z M12.986902,8.02476359 C13.3111816,7.69965674 13.3111816,7.17187513 12.986902,6.84511379 L7.24417482,0.237089523 C7.07045361,0.0633683037 6.84130705,-0.0110836472 6.61464222,0.00132501128 C6.38880463,-0.0110836472 6.15965807,0.0633683037 5.98593685,0.237089523 L0.243209706,6.84511379 C-0.0810699021,7.17187513 -0.0810699021,7.69965674 0.243209706,8.02476359 C0.567489315,8.35069768 1.09361643,8.35069768 1.4170688,8.02476359 L5.80063422,2.98188478 L5.80063422,23.1658087 L7.45512202,23.1658087 L7.45512202,3.01083832 L11.8130429,8.02476359 C12.1364952,8.35069768 12.6626224,8.35069768 12.986902,8.02476359 L12.986902,8.02476359 Z M23.1727561,21.5113209 L11.5913415,21.5113209 C11.1338756,21.5113209 10.7640976,21.8802717 10.7640976,22.3377375 C10.7640976,22.7952034 11.1338756,23.1658087 11.5913415,23.1658087 L23.1727561,23.1658087 C23.630222,23.1658087 24,22.7952034 24,22.3377375 C24,21.8802717 23.630222,21.5113209 23.1727561,21.5113209 L23.1727561,21.5113209 Z" id="Fill-194" fill="#000000"></path>
    </g>
</svg>