<?xml version="1.0" encoding="UTF-8"?>
<svg width="51px" height="50px" viewBox="0 0 51 50" version="1.1" xmlns="http://www.w3.org/2000/svg" xmlns:xlink="http://www.w3.org/1999/xlink">
    <!-- Generator: sketchtool 63.1 (101010) - https://sketch.com -->
    <title>C7C3A898-F414-44C8-AD42-88C3F6DAF989@1,5x</title>
    <desc>Created with sketchtool.</desc>
    <g id="Financeur_Cadhoc_prospect-/-UI" stroke="none" stroke-width="1" fill="none" fill-rule="evenodd">
        <g id="01_01_Commande-Prospect-Cadhoc" transform="translate(-540.000000, -326.000000)" fill="#4E5B59" fill-rule="nonzero">
            <g id="Group-19" transform="translate(403.000000, 326.000000)">
                <g id="Group-22">
                    <g id="Group-6" transform="translate(125.000000, 0.000000)">
                        <g id="V2-/-picto-/-moyen-/-Challenge-Copy" transform="translate(12.000000, 0.000000)">
                            <path d="M27.2757,1.9644 C27.9297,1.5224 28.7167,1.3614 29.4927,1.5124 C30.2687,1.6634 30.9377,2.1074 31.3787,2.7624 L31.3787,2.7624 L35.0877,8.2694 C35.4357,8.7864 35.5557,9.3274 35.4427,9.8774 C35.2517,10.8104 34.4487,11.5004 33.8077,11.9144 L33.8077,11.9144 L22.2937,19.7034 L41.6847,19.7034 C43.4097,19.7034 44.8147,21.1074 44.8147,22.8334 L44.8147,22.8334 L44.8147,34.5314 C44.5747,34.5194 44.3387,34.4964 44.1077,34.4684 L44.1079,34.4684 C44.3390743,34.4961657 44.5747429,34.5191171 44.8144,34.5311 C45.0655,34.543 45.3165,34.555 45.5785,34.548 C46.5295,34.526 47.4745,34.379 48.4675,34.098 L48.4675,34.098 C49.1245,33.913 49.7885,34.166 50.1475,34.748 C50.5095,35.334 50.4405,36.071 49.9745,36.583 C49.0465,37.602 48.0245,38.545 46.9365,39.387 C46.2425,39.916 45.5335,40.381 44.8145,40.793 L44.8144,40.7935 L44.8144,46.727 C44.8144,48.3934828 43.5055581,49.7597895 41.8617587,49.852036 L41.6844,49.857 L13.4234,49.857 C11.7578828,49.857 10.3916093,48.5481581 10.2993639,46.9043587 L10.2944,46.727 L10.2944,42.976 L10.64715,43.0375 L10.64715,43.0375 L10.294,42.9757 C7.998,42.5481 5.761,41.5951 3.612,40.1071 C2.485,39.3131 1.422,38.4181 0.451,37.4441 C-0.037,36.9541 -0.14,36.2211 0.195,35.6191 C0.529,35.0211 1.18,34.7401 1.844,34.8941 C2.851,35.1301 3.813,35.2391 4.75,35.2131 C6.889,35.1651 8.606,34.4691 10.294,33.6081 L10.294,33.6081 L10.647875,33.425775 L10.647875,33.425775 L11.001,33.2394 L11.329325,33.064325 L11.329325,33.064325 L11.6582,32.8872 C13.8992,31.6762 16.2182,30.4242 19.3762,30.3522 C22.0962,30.2812 24.6152,32.0942 25.1932,34.4752 L25.1932,34.4752 L25.1570963,34.5976741 L25.1570963,34.5976741 L25.1937619,34.476964 C25.7664,32.2685875 27.9878648,30.5253824 30.5017531,30.3640382 L30.7459,30.3534 C33.8969,30.2794 36.2719,31.4254 38.5659,32.5324 C40.3609,33.3994 42.0839,34.2224 44.1079,34.4684 L44.1077,34.4684 L44.1077,22.8334 C44.1077,21.4974 43.0207,20.4114 41.6847,20.4114 L41.6847,20.4114 L21.2477,20.4114 L11.0007,27.3434 L11.0007,33.2394 C10.7657,33.3654 10.5307,33.4874 10.2937,33.6074 L10.2937,33.6074 L10.2937,27.8214 L7.8607,29.4684 C7.3647,29.7904 6.8057,29.9434 6.2537,29.9434 C5.2877,29.9434 4.3407,29.4724 3.7767,28.6074 L3.7767,28.6074 L0.4827,23.5654 C-0.3953,22.2214 -0.0273,20.3984 1.3027,19.5004 L1.3027,19.5004 L7.8707,15.0654 L7.6871187,14.9046717 C6.78912187,14.0785914 6.1945125,12.9199 6.1167,11.6074 C6.0387,10.3064 6.4727,9.0524 7.3387,8.0774 C8.1387,7.1764 9.2197,6.6184 10.4067,6.4764 C10.4397,5.3364 10.8647,4.2534 11.6307,3.3904 C12.4957,2.4164 13.6877,1.8374 14.9887,1.7604 C16.2917,1.6834 17.5397,2.1164 18.5147,2.9814 C19.4887,3.8454 20.0677,5.0384 20.1447,6.3384 C20.1537,6.4844 20.1537,6.6304 20.1497,6.7754 L20.1497,6.7754 Z M25.1349921,36.8835095 C24.6889181,38.4123129 23.3378364,40.2806545 19.7742,41.7992 C17.7592,42.6832 15.6162,43.1682 13.4102,43.2382 C13.2952,43.2402 13.1802,43.2422 13.0652,43.2422 C12.3722,43.2422 11.6842,43.1842 11.0012,43.0902 L11.0012,43.0902 L11.0014,46.727 C11.0014,48.00956 12.0022576,49.0626416 13.2643335,49.144836 L13.4234,49.15 L41.6844,49.15 C42.96696,49.15 44.0200416,48.1482208 44.102236,46.8860712 L44.1074,46.727 L44.1074,41.172 L44.46165,40.987375 L44.46165,40.987375 L44.1077619,41.169964 C42.0704333,42.2214 39.94934,42.8201644 37.7625068,42.939237 L37.2929,42.9574 C37.2139,42.9584 37.1359,42.9584 37.0579,42.9584 C34.9299,42.9584 32.8479,42.5704 30.8619,41.8054 C26.9119,40.3284 25.5669,38.3174 25.1739,36.7414 L25.1739,36.7414 Z M19.6180622,31.1021152 L19.3932,31.1022 C16.4152,31.1692 14.1782,32.3782 12.0142,33.5472 C11.6752,33.7302 11.3382,33.9102 11.0012,34.0872 C10.766,34.2104 10.53,34.3324 10.294,34.4494 L10.294,34.4494 C8.635,35.2721 6.916,35.9151 4.768,35.9631 C3.744,35.9861 2.741,35.8751 1.672,35.6241 C1.605,35.6091 1.543,35.6011 1.482,35.6011 C1.179,35.6011 0.961,35.7871 0.851,35.9851 C0.719,36.2211 0.675,36.6061 0.982,36.9151 C1.923,37.8581 2.952,38.7251 4.042,39.4921 C6.052,40.8851 8.156,41.7861 10.294,42.2081 L10.294,42.2081 L10.647125,42.2802 L10.647125,42.2802 L11.0012,42.3422 C11.7942,42.4582 12.5912,42.5072 13.3882,42.4882 C15.4962,42.4212 17.5452,41.9572 19.4762,41.1112 C24.7632,38.8572 24.7482,35.9052 24.4962,34.7402 C24.0432,32.6452 21.7972,31.0502 19.3932,31.1022 Z M31.0219,31.1004 C30.9359,31.1004 30.8499,31.1014 30.7639,31.1034 C28.3559,31.1584 26.1889,32.8554 25.8309,34.9684 C25.6319,36.1434 25.7509,39.0934 31.1289,41.1044 C33.1019,41.8654 35.1809,42.2334 37.2789,42.2074 C39.6359,42.1534 41.9229,41.5194 44.1079,40.3294 L44.1067619,40.329964 C44.2259,40.265 44.34415,40.19725 44.462025,40.12775 L44.8144,39.9155 C45.3765,39.575 45.9325,39.208 46.4795,38.792 C47.5315,37.978 48.5215,37.065 49.4195,36.078 C49.7135,35.756 49.6595,35.384 49.5095,35.143 C49.3685,34.913 49.0735,34.707 48.6725,34.819 C47.6175,35.118 46.6105,35.275 45.5955,35.298 C45.3275,35.305 45.0715,35.292 44.8145,35.281 L44.8145,35.281 L44.45715,35.25785 L44.45715,35.25785 L44.1074,35.2241 L43.6745652,35.1677289 C41.6762156,34.8663867 40.0025,34.0598 38.2469,33.2114 C36.0899,32.1714 33.8689,31.1004 31.0219,31.1004 Z M29.3577,2.2074 C28.7687,2.0924 28.1687,2.2144 27.6707,2.5504 L27.6707,2.5504 L20.0317,7.7084 C19.8527,8.5014 19.4787,9.2404 18.9237,9.8644 C18.1267,10.7624 17.0497,11.3184 15.8677,11.4614 C15.8357,12.6064 15.4097,13.6924 14.6407,14.5594 C13.7757,15.5344 12.5807,16.1144 11.2797,16.1914 C11.1817,16.1974 11.0837,16.2004 10.9867,16.2004 C10.0777,16.2004 9.2227,15.9444 8.4877,15.5034 L8.4877,15.5034 L1.6987,20.0864 C0.6867,20.7694 0.4077,22.1564 1.0747,23.1774 L1.0747,23.1774 L4.3677,28.2204 C5.0427,29.2534 6.4347,29.5494 7.4707,28.8784 L7.4707,28.8784 L10.2937,26.9684 L11.0007,26.4894 L19.9867,20.4114 L21.0327,19.7034 L33.4167,11.3244 C34.1677,10.8384 34.6397,10.2754 34.7497,9.7354 C34.8247,9.3734 34.7417,9.0234 34.5007,8.6644 L34.5007,8.6644 L30.7917,3.1574 C30.4567,2.6594 29.9477,2.3214 29.3577,2.2074 Z M38.5886,15.7556 C38.7276,15.7796 38.8256,15.8686 38.8076,15.9726 L38.7276,16.4386 L39.2186,16.5226 C39.3286,16.5416 39.3866,16.6456 39.3636,16.7856 C39.3406,16.9156 39.2486,17.0076 39.1386,16.9886 L38.6476,16.9036 L38.5686,17.3646 C38.5526,17.4556 38.4276,17.5246 38.2886,17.5006 C38.1426,17.4746 38.0606,17.3716 38.0766,17.2796 L38.1566,16.8186 L37.6686,16.7346 C37.5726,16.7186 37.4946,16.5976 37.5166,16.4666 C37.5396,16.3276 37.6526,16.2526 37.7486,16.2696 L38.2366,16.3536 L38.3156,15.8886 C38.3336,15.7836 38.4426,15.7306 38.5886,15.7556 Z M33.3787,15.0041 C33.5167,15.0281 33.6157,15.1171 33.5977,15.2211 L33.5177,15.6861 L34.0087,15.7711 C34.1187,15.7901 34.1767,15.8941 34.1537,16.0331 C34.1307,16.1641 34.0387,16.2561 33.9287,16.2371 L33.4377,16.1521 L33.3587,16.6131 C33.3427,16.7041 33.2167,16.7721 33.0787,16.7481 C32.9327,16.7231 32.8507,16.6191 32.8667,16.5281 L32.9457,16.0671 L32.4587,15.9831 C32.3627,15.9661 32.2847,15.8451 32.3067,15.7151 C32.3297,15.5751 32.4427,15.5011 32.5387,15.5171 L33.0257,15.6011 L33.1057,15.1361 C33.1237,15.0321 33.2327,14.9791 33.3787,15.0041 Z M10.4307,7.1004 C9.4147,7.2334 8.4917,7.7184 7.8057,8.4914 C7.0497,9.3414 6.6717,10.4354 6.7397,11.5714 C6.8157,12.8564 7.4607,13.9734 8.4117,14.7004 C8.6167,14.8574 8.8357,14.9944 9.0667,15.1114 C9.7187,15.4444 10.4617,15.6174 11.2417,15.5694 C12.3777,15.5014 13.4187,14.9964 14.1747,14.1454 C14.8317,13.4044 15.2037,12.4794 15.2437,11.5024 C14.9947,11.5014 14.7497,11.4764 14.5067,11.4384 C14.1947,11.3894 13.8887,11.3114 13.5927,11.2024 C13.0297,10.9954 12.5027,10.6844 12.0407,10.2744 C11.1137,9.4504 10.5487,8.3284 10.4307,7.1004 Z M43.0202,12.2375 C43.2652,12.2795 43.4402,12.4375 43.4092,12.6235 L43.3012,13.2495 C43.2822,13.3625 43.3572,13.4685 43.4692,13.4875 L44.1422,13.6035 C44.3392,13.6385 44.4412,13.8235 44.3982,14.0715 C44.3592,14.3045 44.1962,14.4675 44.0002,14.4335 L43.3382,14.3185 C43.2202,14.2985 43.1072,14.3775 43.0872,14.4965 L42.9822,15.1035 C42.9542,15.2665 42.7312,15.3875 42.4862,15.3455 C42.2232,15.2995 42.0792,15.1155 42.1062,14.9525 L42.2042,14.3865 C42.2282,14.2455 42.1342,14.1115 41.9932,14.0865 L41.3812,13.9805 C41.2092,13.9515 41.0682,13.7355 41.1082,13.5035 C41.1512,13.2555 41.3512,13.1225 41.5232,13.1515 L42.1592,13.2615 C42.2872,13.2835 42.4082,13.1985 42.4302,13.0705 L42.5332,12.4725 C42.5652,12.2865 42.7582,12.1925 43.0202,12.2375 Z M37.6008,10.263 C37.8718,10.311 38.0538,10.571 38.0048,10.843 C37.9558,11.115 37.6958,11.296 37.4248,11.247 C37.1528,11.198 36.9718,10.938 37.0208,10.667 C37.0698,10.395 37.3288,10.214 37.6008,10.263 Z M45.4026,10.0477 C45.6746,10.0957 45.8556,10.3557 45.8066,10.6277 C45.7576,10.8997 45.4976,11.0807 45.2266,11.0317 C44.9556,10.9827 44.7736,10.7227 44.8226,10.4517 C44.8716,10.1797 45.1306,9.9987 45.4026,10.0477 Z M11.1367,7.0634 C11.2447,8.1004 11.7247,9.0474 12.5097,9.7444 C13.0437,10.2184 13.6777,10.5354 14.3557,10.6874 C14.6347,10.7504 14.9197,10.7874 15.2107,10.7924 C15.1857,10.5874 15.1427,10.3884 15.0897,10.1914 C14.8757,9.4024 14.4437,8.6894 13.8177,8.1334 C13.0677,7.4674 12.1247,7.0964 11.1367,7.0634 Z M15.2684562,2.45892077 L15.0307,2.4664 C13.9187,2.5324 12.8997,3.0274 12.1597,3.8604 C11.5177,4.5834 11.1557,5.4864 11.1137,6.4404 C12.2647,6.4684 13.3607,6.8934 14.2317,7.6674 C14.8957,8.2564 15.3707,9.0004 15.6327,9.8254 C15.7087,10.0654 15.7637,10.3114 15.8027,10.5634 C15.8127,10.6274 15.8257,10.6904 15.8337,10.7544 C16.8247,10.6234 17.7247,10.1494 18.3947,9.3954 C18.6747,9.0794 18.9017,8.7294 19.0727,8.3564 C19.2277,8.0164 19.3327,7.6574 19.3917,7.2874 C19.4387,6.9904 19.4567,6.6874 19.4387,6.3794 C19.3717,5.2684 18.8777,4.2494 18.0447,3.5104 C17.2127,2.7714 16.1437,2.4004 15.0307,2.4664 Z M42.5316,7.316 C42.8276,7.369 43.0266,7.639 42.9766,7.919 C42.9256,8.2 42.6456,8.384 42.3496,8.331 C42.0536,8.278 41.8546,8.008 41.9046,7.727 C41.9536,7.447 42.2356,7.263 42.5316,7.316 Z M47.2263,5.3137 C47.3653,5.3377 47.4633,5.4267 47.4453,5.5307 L47.3653,5.9957 L47.8563,6.0807 C47.9663,6.0997 48.0243,6.2037 48.0013,6.3427 C47.9783,6.4737 47.8863,6.5657 47.7763,6.5467 L47.2853,6.4617 L47.2063,6.9227 C47.1903,7.0137 47.0653,7.0817 46.9263,7.0577 C46.7803,7.0327 46.6983,6.9287 46.7143,6.8377 L46.7943,6.3767 L46.3063,6.2927 C46.2103,6.2757 46.1323,6.1547 46.1543,6.0247 C46.1773,5.8847 46.2903,5.8107 46.3863,5.8267 L46.8733,5.9107 L46.9533,5.4457 C46.9713,5.3417 47.0803,5.2887 47.2263,5.3137 Z M41.117,3.4397 C41.255,3.4637 41.354,3.5527 41.335,3.6567 L41.256,4.1217 L41.747,4.2067 C41.857,4.2257 41.915,4.3297 41.892,4.4687 C41.869,4.5997 41.777,4.6917 41.667,4.6727 L41.176,4.5877 L41.096,5.0487 C41.08,5.1397 40.955,5.2077 40.817,5.1837 C40.671,5.1587 40.589,5.0547 40.605,4.9637 L40.684,4.5027 L40.197,4.4187 C40.101,4.4017 40.022,4.2807 40.044,4.1507 C40.068,4.0107 40.181,3.9367 40.277,3.9527 L40.764,4.0367 L40.844,3.5717 C40.861,3.4677 40.971,3.4147 41.117,3.4397 Z M49.4994,0.1597 C49.6794,0.3317 49.7384,0.5597 49.6084,0.6967 L49.1714,1.1587 C49.0934,1.2417 49.0974,1.3717 49.1804,1.4497 L49.6764,1.9197 C49.8214,2.0557 49.8044,2.2677 49.6314,2.4507 C49.4694,2.6217 49.2444,2.6677 49.0994,2.5307 L48.6114,2.0697 C48.5244,1.9877 48.3864,1.9907 48.3034,2.0777 L47.8804,2.5267 C47.7674,2.6467 47.5144,2.6237 47.3344,2.4527 C47.1404,2.2697 47.1224,2.0357 47.2354,1.9157 L47.6294,1.4977 C47.7274,1.3937 47.7234,1.2297 47.6194,1.1317 L47.1684,0.7047 C47.0414,0.5847 47.0444,0.3277 47.2064,0.1557 C47.3794,-0.0273 47.6194,-0.0273 47.7464,0.0927 L48.2144,0.5367 C48.3084,0.6257 48.4574,0.6217 48.5464,0.5277 L48.9624,0.0857 C49.0924,-0.0513 49.3054,-0.0223 49.4994,0.1597 Z" id="Combined-Shape"></path>
                        </g>
                    </g>
                </g>
            </g>
        </g>
    </g>
</svg>
