<?xml version="1.0" encoding="UTF-8"?>
<svg width="47px" height="50px" viewBox="0 0 47 50" version="1.1" xmlns="http://www.w3.org/2000/svg" xmlns:xlink="http://www.w3.org/1999/xlink">
    <!-- Generator: sketchtool 63.1 (101010) - https://sketch.com -->
    <title>0A5535B5-0CFF-4E5B-9DA0-D58E721C013F@1,5x</title>
    <desc>Created with sketchtool.</desc>
    <g id="Financeur_Cadhoc_prospect-/-UI" stroke="none" stroke-width="1" fill="none" fill-rule="evenodd">
        <g id="01_01_Commande-Prospect-Cadhoc" transform="translate(-542.000000, -438.000000)" fill="#4E5B59" fill-rule="nonzero">
            <g id="Group-19" transform="translate(403.000000, 326.000000)">
                <g id="Group-22">
                    <g id="Group-10-Copy" transform="translate(134.000000, 112.000000)">
                        <g id="V2-/-picto-/-moyen-/-Challenge-Copy-3" transform="translate(5.000000, 0.000000)">
                            <path d="M4.62910673,1.35723604 C6.18310673,0.135236045 8.44410673,0.405236045 9.66710673,1.95823604 C10.1521067,2.57423604 10.3921067,3.30223604 10.4201067,4.03123604 C11.6401067,3.86523604 12.9151067,4.31623604 13.7301067,5.35023604 C14.9531067,6.90523604 14.6841067,9.16423604 13.1291067,10.388236 C12.5261067,10.864236 11.8141067,11.103236 11.0981067,11.140236 C11.2231067,11.318236 11.4151067,11.474236 11.6831067,11.621236 C12.2941067,11.954236 13.0191067,12.221236 13.7871067,12.503236 C15.6231067,13.178236 17.7041067,13.944236 19.3831067,15.942236 C19.5281067,16.115236 19.7721067,16.183236 20.0211067,16.119236 C21.7381067,15.689236 23.5631067,16.369236 24.5691067,17.818236 L24.5691067,17.818236 L25.1791067,18.695236 C25.4161067,19.035236 25.5951067,19.400236 25.7441067,19.775236 L25.7441067,19.775236 L38.6831067,19.775236 C40.4091067,19.775236 41.8131067,21.179236 41.8131067,22.905236 L41.8131067,22.905236 L41.8131067,46.798236 C41.8131067,48.524236 40.4091067,49.928236 38.6831067,49.928236 L38.6831067,49.928236 L10.4221067,49.928236 C8.69710673,49.928236 7.29310673,48.524236 7.29310673,46.798236 L7.29310673,46.798236 L7.29310673,39.148236 L7.29010673,39.148236 L7.29010673,36.548236 C7.12810673,36.544236 6.96710673,36.548236 6.80410673,36.525236 C6.72210673,36.516236 6.41810673,36.449236 6.41810673,36.449236 C5.38810673,36.207236 4.49810673,35.604236 3.89710673,34.739236 L3.89710673,34.739236 L2.70110673,33.018236 C1.67910673,31.548236 1.69010673,29.578236 2.72610673,28.116236 C2.88810673,27.887236 2.89910673,27.606236 2.75510673,27.380236 C0.345106727,23.594236 -0.489893273,19.818236 0.274106727,16.155236 C1.11310673,12.129236 3.72310673,9.16723604 5.57010673,7.50523604 C4.98510673,7.28223604 4.44410673,6.92223604 4.02910673,6.39523604 C2.80610673,4.84123604 3.07510673,2.58123604 4.62910673,1.35723604 Z M22.6911067,39.148236 L8.00010673,39.148236 L8.00010673,46.798236 C8.00010673,48.134236 9.08610673,49.221236 10.4221067,49.221236 L10.4221067,49.221236 L22.6911067,49.221236 L22.6911067,39.148236 Z M41.1061067,39.148236 L27.3901067,39.148236 L27.3901067,49.221236 L38.6831067,49.221236 C40.0191067,49.221236 41.1061067,48.134236 41.1061067,46.798236 L41.1061067,46.798236 L41.1061067,39.148236 Z M26.6911067,20.517236 L25.9851067,20.517236 C26.1461067,21.209236 26.1721067,21.931236 26.0431067,22.651236 C25.7921067,24.042236 25.0151067,25.252236 23.8551067,26.058236 L23.8551067,26.058236 L23.3901067,26.381236 L23.3901067,35.148236 L10.7771067,35.148236 L9.83010673,35.806236 C9.27510673,36.191236 8.65010673,36.416236 8.00010673,36.508236 L8.00010673,36.508236 L8.00010673,38.448236 L23.3901067,38.448236 L23.3901067,49.107236 L26.6911067,49.107236 L26.6911067,38.448236 L41.1061067,38.448236 L41.1061067,35.148236 L26.6911067,35.148236 L26.6911067,20.517236 Z M7.33810673,7.72223604 C7.17610673,7.74423604 7.01410673,7.76123604 6.85110673,7.76123604 C6.74410673,7.76123604 6.63810673,7.73623604 6.53210673,7.72623604 C4.77110673,9.21823604 1.91810673,12.185236 1.05710673,16.318236 C0.337106727,19.769236 1.13610673,23.346236 3.43010673,26.949236 C3.74810673,27.448236 3.72810673,28.088236 3.37810673,28.579236 C2.53710673,29.766236 2.52810673,31.367236 3.35710673,32.561236 L3.35710673,32.561236 L4.55310673,34.282236 C5.06210673,35.014236 5.82810673,35.516236 6.71010673,35.695236 L6.71010673,35.695236 L6.84710673,35.722236 C6.99610673,35.746236 7.14210673,35.746236 7.29010673,35.752236 C7.53010673,35.760236 7.76610673,35.745236 8.00010673,35.704236 C8.48710673,35.619236 8.95610673,35.440236 9.37310673,35.149236 L9.37310673,35.149236 L9.37410673,35.148236 L10.3811067,34.448236 L22.6911067,25.892236 L23.3901067,25.406236 C24.3831067,24.717236 25.0431067,23.690236 25.2541067,22.509236 C25.3771067,21.834236 25.3261067,21.159236 25.1471067,20.517236 C25.0771067,20.263236 24.9871067,20.015236 24.8721067,19.775236 C24.7681067,19.562236 24.6611067,19.350236 24.5231067,19.152236 L24.5231067,19.152236 L23.9131067,18.275236 C23.0941067,17.098236 21.6121067,16.545236 20.2171067,16.895236 C19.6691067,17.033236 19.1151067,16.866236 18.7701067,16.456236 C17.2281067,14.621236 15.2531067,13.895236 13.5111067,13.254236 C12.7141067,12.961236 11.9611067,12.685236 11.3001067,12.323236 C10.7051067,11.998236 10.3401067,11.586236 10.1921067,11.074236 C9.38910673,10.911236 8.63710673,10.480236 8.09210673,9.78723604 C7.60910673,9.17323604 7.36810673,8.44923604 7.33810673,7.72223604 Z M21.0405067,17.685636 C21.7295067,17.804636 22.3295067,18.183636 22.7325067,18.754636 L24.0715067,20.650636 C24.4735067,21.221636 24.6295067,21.914636 24.5115067,22.602636 C24.3925067,23.290636 24.0125067,23.891636 23.4425067,24.294636 L8.79150673,34.636636 C8.33450673,34.958636 7.80850673,35.113636 7.28750673,35.113636 C6.46550673,35.113636 5.65550673,34.728636 5.14750673,34.007636 L3.80950673,32.111636 C2.97850673,30.933636 3.26050673,29.299636 4.43750673,28.468636 L19.0885067,18.126636 C19.6595067,17.723636 20.3535067,17.568636 21.0405067,17.685636 Z M22.6911067,26.867236 L11.7841067,34.448236 L22.6911067,34.448236 L22.6911067,26.867236 Z M38.6831067,20.482236 L27.3901067,20.482236 L27.3901067,34.448236 L41.1061067,34.448236 L41.1061067,22.905236 C41.1061067,21.569236 40.0191067,20.482236 38.6831067,20.482236 L38.6831067,20.482236 Z M20.5925067,18.347636 C20.2005067,18.347636 19.8195067,18.467636 19.4925067,18.698636 L4.84150673,29.040636 C3.97950673,29.648636 3.77350673,30.845636 4.38150673,31.707636 L5.71950673,33.603636 C6.32950673,34.466636 7.52750673,34.673636 8.38750673,34.063636 L23.0375067,23.722636 C23.4555067,23.427636 23.7345067,22.987636 23.8215067,22.483636 C23.9075067,21.979636 23.7935067,21.472636 23.4985067,21.054636 L22.1595067,19.158636 C21.8645067,18.740636 21.4255067,18.462636 20.9215067,18.375636 C20.8125067,18.356636 20.7015067,18.347636 20.5925067,18.347636 Z M35.7036067,15.755636 C35.8416067,15.779636 35.9396067,15.868636 35.9216067,15.972636 L35.8416067,16.437636 L36.3326067,16.522636 C36.4426067,16.541636 36.5006067,16.645636 36.4776067,16.784636 C36.4546067,16.915636 36.3626067,17.007636 36.2536067,16.988636 L35.7616067,16.903636 L35.6826067,17.364636 C35.6666067,17.455636 35.5416067,17.523636 35.4026067,17.500636 C35.2566067,17.474636 35.1746067,17.370636 35.1916067,17.279636 L35.2706067,16.818636 L34.7826067,16.734636 C34.6866067,16.718636 34.6086067,16.597636 34.6306067,16.466636 C34.6536067,16.326636 34.7666067,16.252636 34.8626067,16.268636 L35.3506067,16.353636 L35.4306067,15.887636 C35.4476067,15.783636 35.5566067,15.730636 35.7036067,15.755636 Z M30.4926067,15.004136 C30.6316067,15.028136 30.7296067,15.117136 30.7116067,15.221136 L30.6316067,15.686136 L31.1226067,15.771136 C31.2326067,15.790136 31.2906067,15.894136 31.2676067,16.033136 C31.2446067,16.164136 31.1526067,16.256136 31.0426067,16.237136 L30.5516067,16.152136 L30.4726067,16.613136 C30.4566067,16.704136 30.3316067,16.772136 30.1926067,16.748136 C30.0466067,16.723136 29.9646067,16.619136 29.9806067,16.528136 L30.0606067,16.067136 L29.5726067,15.983136 C29.4766067,15.966136 29.3986067,15.845136 29.4206067,15.715136 C29.4436067,15.575136 29.5566067,15.501136 29.6526067,15.517136 L30.1396067,15.601136 L30.2196067,15.136136 C30.2376067,15.032136 30.3466067,14.979136 30.4926067,15.004136 Z M40.1341067,12.237536 C40.3791067,12.279536 40.5541067,12.437536 40.5231067,12.623536 L40.4151067,13.249536 C40.3961067,13.361536 40.4711067,13.468536 40.5831067,13.487536 L41.2561067,13.603536 C41.4531067,13.637536 41.5551067,13.823536 41.5131067,14.071536 C41.4731067,14.303536 41.3101067,14.467536 41.1141067,14.433536 L40.4521067,14.318536 C40.3341067,14.298536 40.2211067,14.377536 40.2011067,14.496536 L40.0961067,15.103536 C40.0681067,15.266536 39.8451067,15.387536 39.6001067,15.345536 C39.3371067,15.299536 39.1931067,15.115536 39.2201067,14.952536 L39.3181067,14.385536 C39.3421067,14.245536 39.2481067,14.111536 39.1071067,14.086536 L38.4951067,13.980536 C38.3231067,13.951536 38.1821067,13.735536 38.2221067,13.503536 C38.2651067,13.255536 38.4651067,13.122536 38.6371067,13.151536 L39.2731067,13.261536 C39.4011067,13.283536 39.5221067,13.198536 39.5441067,13.070536 L39.6471067,12.472536 C39.6791067,12.286536 39.8731067,12.192536 40.1341067,12.237536 Z M34.7147067,10.263036 C34.9857067,10.311036 35.1677067,10.571036 35.1187067,10.843036 C35.0697067,11.115036 34.8097067,11.296036 34.5387067,11.247036 C34.2667067,11.198036 34.0857067,10.938036 34.1347067,10.667036 C34.1837067,10.395036 34.4427067,10.214036 34.7147067,10.263036 Z M42.5175067,10.047736 C42.7885067,10.095736 42.9695067,10.355736 42.9205067,10.627736 C42.8715067,10.899736 42.6115067,11.080736 42.3405067,11.031736 C42.0695067,10.982736 41.8875067,10.722736 41.9365067,10.450736 C41.9855067,10.179736 42.2445067,9.99873604 42.5175067,10.047736 Z M10.9091067,4.78323604 C10.7231067,4.78323604 10.5381067,4.80823604 10.3541067,4.84623604 C10.2201067,5.54723604 9.87710673,6.20423604 9.34310673,6.73023604 C9.25210673,6.81923604 9.16910673,6.91423604 9.06510673,6.99523604 C8.91610673,7.11323604 8.75910673,7.21223604 8.59710673,7.30023604 C8.44910673,7.38123604 8.29510673,7.45223604 8.13910673,7.51223604 C8.12610673,8.13623604 8.30710673,8.76623604 8.72110673,9.29223604 C9.09510673,9.76823604 9.59610673,10.083236 10.1371067,10.239236 C10.3941067,10.313236 10.6601067,10.345236 10.9261067,10.3442587 C11.5261067,10.342236 12.1281067,10.158236 12.6351067,9.75923604 C13.8421067,8.80823604 14.0511067,7.05223604 13.1011067,5.84523604 C12.5521067,5.14823604 11.7341067,4.78323604 10.9091067,4.78323604 Z M39.6455067,7.31553604 C39.9415067,7.36853604 40.1405067,7.63953604 40.0905067,7.91953604 C40.0395067,8.19953604 39.7595067,8.38353604 39.4635067,8.33053604 C39.1675067,8.27753604 38.9685067,8.00753604 39.0185067,7.72653604 C39.0675067,7.44753604 39.3495067,7.26253604 39.6455067,7.31553604 Z M44.3403067,5.31373604 C44.4793067,5.33773604 44.5773067,5.42673604 44.5593067,5.53073604 L44.4793067,5.99573604 L44.9703067,6.08073604 C45.0803067,6.09973604 45.1383067,6.20373604 45.1153067,6.34273604 C45.0923067,6.47373604 45.0003067,6.56573604 44.8913067,6.54673604 L44.3993067,6.46173604 L44.3203067,6.92273604 C44.3043067,7.01373604 44.1793067,7.08173604 44.0403067,7.05773604 C43.8943067,7.03273604 43.8123067,6.92873604 43.8283067,6.83773604 L43.9083067,6.37673604 L43.4203067,6.29273604 C43.3243067,6.27573604 43.2463067,6.15473604 43.2683067,6.02473604 C43.2913067,5.88473604 43.4043067,5.81073604 43.5003067,5.82673604 L43.9883067,5.91073604 L44.0683067,5.44573604 C44.0853067,5.34173604 44.1943067,5.28873604 44.3403067,5.31373604 Z M9.03810673,2.45323604 C8.08810673,1.24523604 6.33310673,1.03623604 5.12410673,1.98623604 C3.91710673,2.93723604 3.70810673,4.69323604 4.65810673,5.90023604 C5.08410673,6.44223604 5.67710673,6.75323604 6.30510673,6.87523604 C6.66810673,6.94523604 7.04010673,6.96923604 7.40610673,6.89423604 C7.45210673,6.65623604 7.52710673,6.42623604 7.61810673,6.20023604 C7.84110673,5.64923604 8.19410673,5.14423604 8.69410673,4.75023604 C8.98010673,4.52423604 9.29510673,4.36623604 9.62010673,4.24123604 C9.63410673,3.61523604 9.45410673,2.98223604 9.03810673,2.45323604 Z M9.41310673,5.23223604 C9.33710673,5.28023604 9.25910673,5.32323604 9.18810673,5.37923604 C8.84010673,5.65323604 8.59810673,6.00223604 8.42210673,6.37723604 C8.40110673,6.42223604 8.36910673,6.46123604 8.35010673,6.50723604 C8.40110673,6.47323604 8.45310673,6.44123604 8.50410673,6.40823604 C8.52710673,6.39423604 8.55010673,6.38323604 8.57110673,6.36623604 C8.96110673,6.05823604 9.23610673,5.66223604 9.41310673,5.23223604 Z M38.2309067,3.43923604 C38.3689067,3.46323604 38.4679067,3.55223604 38.4499067,3.65623604 L38.3699067,4.12223604 L38.8609067,4.20623604 C38.9709067,4.22523604 39.0289067,4.33023604 39.0059067,4.46923604 C38.9829067,4.59923604 38.8909067,4.69123604 38.7809067,4.67223604 L38.2899067,4.58723604 L38.2109067,5.04823604 C38.1939067,5.13923604 38.0689067,5.20823604 37.9309067,5.18423604 C37.7849067,5.15823604 37.7029067,5.05523604 37.7189067,4.96323604 L37.7979067,4.50223604 L37.3109067,4.41823604 C37.2149067,4.40223604 37.1369067,4.28123604 37.1579067,4.15023604 C37.1819067,4.01123604 37.2949067,3.93623604 37.3909067,3.95323604 L37.8779067,4.03723604 L37.9579067,3.57223604 C37.9759067,3.46723604 38.0849067,3.41423604 38.2309067,3.43923604 Z M46.6133067,0.159736045 C46.7933067,0.330736045 46.8523067,0.559736045 46.7223067,0.696736045 L46.2853067,1.15873604 C46.2083067,1.24073604 46.2113067,1.37173604 46.2943067,1.44973604 L46.7903067,1.91973604 C46.9353067,2.05573604 46.9183067,2.26773604 46.7453067,2.45073604 C46.5833067,2.62173604 46.3583067,2.66773604 46.2133067,2.53073604 L45.7253067,2.06973604 C45.6383067,1.98673604 45.5003067,1.99073604 45.4173067,2.07773604 L44.9943067,2.52673604 C44.8813067,2.64673604 44.6283067,2.62373604 44.4483067,2.45273604 C44.2543067,2.26973604 44.2363067,2.03573604 44.3493067,1.91573604 L44.7433067,1.49773604 C44.8423067,1.39373604 44.8373067,1.22973604 44.7333067,1.13173604 L44.2823067,0.704736045 C44.1553067,0.584736045 44.1583067,0.327736045 44.3203067,0.155736045 C44.4933067,-0.0272639553 44.7333067,-0.0272639553 44.8603067,0.0927360447 L45.3283067,0.536736045 C45.4223067,0.625736045 45.5723067,0.620736045 45.6603067,0.527736045 L46.0763067,0.0857360447 C46.2063067,-0.0512639553 46.4193067,-0.0222639553 46.6133067,0.159736045 Z" id="Combined-Shape"></path>
                        </g>
                    </g>
                </g>
            </g>
        </g>
    </g>
</svg>
