<?xml version="1.0" encoding="UTF-8"?>
<svg width="49px" height="50px" viewBox="0 0 49 50" version="1.1" xmlns="http://www.w3.org/2000/svg" xmlns:xlink="http://www.w3.org/1999/xlink">
    <!-- Generator: sketchtool 63.1 (101010) - https://sketch.com -->
    <title>FDB2C6A8-0340-4EF5-B04D-A95411944858@1,5x</title>
    <desc>Created with sketchtool.</desc>
    <g id="Financeur_Cadhoc_prospect-/-UI" stroke="none" stroke-width="1" fill="none" fill-rule="evenodd">
        <g id="01_01_Commande-Prospect-Cadhoc" transform="translate(-882.000000, -326.000000)" fill="#4E5B59" fill-rule="nonzero">
            <g id="Group-19" transform="translate(403.000000, 326.000000)">
                <g id="Group-22">
                    <g id="Group-9" transform="translate(465.000000, 0.000000)">
                        <g id="V2-/-picto-/-moyen-/-Aucun-Copy-3" transform="translate(14.000000, 0.000000)">
                            <path d="M34.0096,0.0001 C40.4686,0.0001 45.7246,5.2541 45.7246,11.7131 L45.7246,11.7131 L45.7246,21.7251 L45.8796,21.7251 C47.5196,21.7251 48.8536,23.0591 48.8536,24.6991 L48.8536,24.6991 L48.8536,46.9201 C48.8536,48.5601 47.5196,49.8941 45.8796,49.8941 L45.8796,49.8941 L19.5966,49.8941 C17.9566,49.8941 16.6216,48.5601 16.6216,46.9201 L16.6216,46.9201 L16.6216,38.3131 L9.3116,48.3071 C8.7666,49.0201 7.9426,49.3941 7.1106,49.3941 C6.5316,49.3941 5.9486,49.2131 5.4536,48.8381 L5.4536,48.8381 L1.0886,45.5361 C-0.1044,44.6341 -0.3554,42.9181 0.5276,41.7101 L0.5276,41.7101 L5.0606,35.5261 C3.1196,35.4821 1.2856,34.3351 0.4726,32.4371 C-0.6314,29.8491 0.5736,26.8451 3.1606,25.7401 C3.5056,25.5921 3.8626,25.4931 4.2216,25.4241 C4.2736,25.2081 4.3256,24.9901 4.4106,24.7801 C4.8586,23.6641 5.7136,22.7901 6.8186,22.3171 C9.1036,21.3421 11.7536,22.4051 12.7286,24.6871 C12.7656,24.7741 12.7796,24.8641 12.8106,24.9521 L12.8106,24.9521 L17.3606,18.7451 C17.7956,18.1501 18.4366,17.7611 19.1656,17.6501 C19.8896,17.5401 20.6216,17.7161 21.2146,18.1531 L21.2146,18.1531 L22.2966,18.9481 L22.2966,11.7131 C22.2966,5.2541 27.5516,0.0001 34.0096,0.0001 Z M45.8796,22.5101 L26.7326,22.5101 C26.8116,22.6771 26.8746,22.8511 26.9006,23.0391 C27.0266,23.9201 26.5426,24.7741 26.1126,25.3361 L26.1126,25.3361 L23.6626,28.6861 C23.6189682,28.635165 23.577826,28.585843 23.5391802,28.5381866 L23.5518426,28.5538528 L23.5518426,28.5538528 L23.662,28.6857 L22.7400018,29.9451 L22.7406,29.9461 L17.4086,37.2371 L17.4086,46.9201 C17.4086,48.1271 18.3886,49.1091 19.5966,49.1091 L19.5966,49.1091 L45.8796,49.1091 C47.0866,49.1091 48.0676,48.1271 48.0676,46.9201 L48.0676,46.9201 L48.0676,24.6991 C48.0676,23.4931 47.0866,22.5101 45.8796,22.5101 L45.8796,22.5101 Z M20.7506,18.7861 C20.3246,18.4741 19.8016,18.3491 19.2846,18.4271 C18.7626,18.5061 18.3046,18.7841 17.9936,19.2101 L17.9936,19.2101 L13.0426,25.9651 C13.2506,27.8841 12.2216,29.7981 10.3576,30.5951 C10.3216,30.6101 10.2836,30.6151 10.2476,30.6291 C10.1696,32.5351 9.0386,34.3251 7.1716,35.1241 C6.8186,35.2741 6.4586,35.3751 6.0956,35.4411 L6.0956,35.4411 L1.1626,42.1741 C0.5306,43.0371 0.7106,44.2651 1.5626,44.9101 L1.5626,44.9101 L5.9266,48.2121 C6.7906,48.8641 8.0256,48.6961 8.6816,47.8371 L8.6816,47.8371 L16.6216,36.9811 L17.4086,35.9051 L22.5056,28.9361 L22.5056,28.9361 L23.178,28.0167 C23.228819,28.1126914 23.3025941,28.2271752 23.3989653,28.357451 C23.302139,28.2274732 23.2284,28.1131844 23.1776,28.0161 L23.1776,28.0161 L25.4836,24.8651 C25.9656,24.2341 26.1906,23.6281 26.1236,23.1501 C26.0886,22.9041 25.9526,22.6981 25.7586,22.5101 C25.7076,22.4601 25.6726,22.4041 25.6096,22.3581 L25.6096,22.3581 L24.7486,21.7251 L23.0836,20.5011 L22.2966,19.9231 Z M31.5002,43.0979 C31.6312,43.1199 31.7242,43.2039 31.7072,43.3029 L31.6312,43.7439 L32.0972,43.8239 C32.2012,43.8429 32.2562,43.9409 32.2332,44.0729 C32.2122,44.1959 32.1252,44.2829 32.0202,44.2649 L31.5562,44.1849 L31.4802,44.6209 C31.4652,44.7079 31.3472,44.7719 31.2162,44.7499 C31.0772,44.7249 31.0002,44.6279 31.0152,44.5409 L31.0902,44.1039 L30.6292,44.0249 C30.5372,44.0089 30.4632,43.8939 30.4842,43.7709 C30.5072,43.6389 30.6132,43.5679 30.7042,43.5839 L31.1662,43.6629 L31.2412,43.2229 C31.2592,43.1239 31.3612,43.0739 31.5002,43.0979 Z M26.5676,42.3855 C26.6976,42.4085 26.7906,42.4925 26.7736,42.5915 L26.6976,43.0315 L27.1636,43.1125 C27.2676,43.1305 27.3226,43.2295 27.2996,43.3615 C27.2786,43.4845 27.1916,43.5705 27.0876,43.5525 L26.6226,43.4725 L26.5466,43.9095 C26.5326,43.9955 26.4146,44.0605 26.2836,44.0375 C26.1436,44.0135 26.0666,43.9155 26.0816,43.8295 L26.1566,43.3925 L25.6956,43.3125 C25.6046,43.2975 25.5296,43.1825 25.5506,43.0585 C25.5736,42.9265 25.6796,42.8565 25.7716,42.8725 L26.2326,42.9515 L26.3076,42.5105 C26.3256,42.4125 26.4276,42.3625 26.5676,42.3855 Z M36.2192,41.8326 C36.7792,41.9326 37.1572,42.4446 37.0622,42.9756 C36.9672,43.5056 36.4362,43.8546 35.8752,43.7546 C35.3142,43.6536 34.9372,43.1426 35.0322,42.6116 C35.1272,42.0806 35.6582,41.7326 36.2192,41.8326 Z M41.8928,38.9011 C42.0228,38.9241 42.1158,39.0081 42.0988,39.1071 L42.0228,39.5471 L42.4888,39.6281 C42.5928,39.6461 42.6478,39.7451 42.6248,39.8771 C42.6038,40.0001 42.5168,40.0861 42.4128,40.0681 L41.9478,39.9881 L41.8718,40.4251 C41.8578,40.5111 41.7398,40.5761 41.6088,40.5531 C41.4688,40.5291 41.3918,40.4311 41.4068,40.3451 L41.4818,39.9081 L41.0208,39.8281 C40.9298,39.8131 40.8558,39.6981 40.8758,39.5741 C40.8988,39.4421 41.0048,39.3721 41.0968,39.3881 L41.5578,39.4671 L41.6328,39.0261 C41.6508,38.9281 41.7528,38.8781 41.8928,38.9011 Z M29.6274,36.0337 C30.1874,36.1337 30.5644,36.6457 30.4704,37.1767 C30.3754,37.7067 29.8444,38.0557 29.2834,37.9557 C28.7224,37.8547 28.3454,37.3437 28.4394,36.8127 C28.5354,36.2817 29.0664,35.9337 29.6274,36.0337 Z M36.848,34.5888 C37.08,34.6298 37.246,34.7788 37.216,34.9548 L37.114,35.5478 C37.096,35.6538 37.167,35.7548 37.273,35.7728 L37.91,35.8838 C38.097,35.9148 38.194,36.0908 38.153,36.3258 C38.115,36.5458 37.961,36.7008 37.776,36.6688 L37.149,36.5598 C37.037,36.5408 36.931,36.6158 36.911,36.7278 L36.813,37.3038 C36.786,37.4568 36.574,37.5718 36.342,37.5318 C36.094,37.4888 35.956,37.3138 35.984,37.1608 L36.075,36.6238 C36.098,36.4908 36.009,36.3638 35.875,36.3408 L35.295,36.2408 C35.133,36.2118 35,36.0078 35.038,35.7878 C35.078,35.5528 35.268,35.4268 35.431,35.4548 L36.032,35.5588 C36.154,35.5798 36.269,35.4988 36.289,35.3778 L36.387,34.8118 C36.417,34.6358 36.6,34.5468 36.848,34.5888 Z M43.3972,32.9902 C43.5682,33.1522 43.6242,33.3682 43.5012,33.4982 L43.0882,33.9352 C43.0142,34.0142 43.0182,34.1372 43.0962,34.2112 L43.5652,34.6562 C43.7032,34.7852 43.6872,34.9852 43.5232,35.1592 C43.3702,35.3212 43.1562,35.3642 43.0192,35.2352 L42.5572,34.7982 C42.4752,34.7202 42.3442,34.7232 42.2662,34.8062 L41.8652,35.2302 C41.7582,35.3442 41.5192,35.3232 41.3472,35.1612 C41.1642,34.9872 41.1472,34.7662 41.2542,34.6522 L41.6282,34.2562 C41.7212,34.1582 41.7162,34.0032 41.6182,33.9102 L41.1902,33.5052 C41.0702,33.3922 41.0732,33.1482 41.2272,32.9862 C41.3902,32.8132 41.6172,32.8122 41.7372,32.9262 L42.1822,33.3462 C42.2712,33.4312 42.4112,33.4272 42.4952,33.3372 L42.8902,32.9202 C43.0132,32.7902 43.2142,32.8172 43.3972,32.9902 Z M4.1056,26.2631 C3.8916,26.3171 3.6766,26.3741 3.4696,26.4621 C1.2806,27.3971 0.2606,29.9391 1.1966,32.1281 C1.9636,33.9251 3.8156,34.9141 5.6676,34.6991 C6.0676,34.6521 6.4676,34.5681 6.8576,34.4031 C6.8586,34.4021 6.8606,34.4021 6.8626,34.4011 C8.3486,33.7661 9.2766,32.3861 9.4376,30.8821 L9.4376,30.8821 L9.4446,30.8731 L9.4446,30.8731 L9.44300184,30.8731 L9.4375,30.8817 C9.4375,30.8802 9.43775,30.8787 9.438,30.8772 C9.1576,30.9281 8.8736,30.9601 8.5886,30.9601 C8.5326,30.9601 8.4756,30.9451 8.4196,30.9431 C7.9096,30.9241 7.4006,30.8291 6.9126,30.6341 C5.7966,30.1861 4.9216,29.3311 4.4486,28.2251 C4.1796,27.5951 4.0776,26.9271 4.1056,26.2631 Z M32.3791,29.8372 C32.5101,29.8592 32.6031,29.9432 32.5851,30.0422 L32.5101,30.4832 L32.9761,30.5632 C33.0791,30.5812 33.1351,30.6802 33.1111,30.8122 C33.0911,30.9352 33.0041,31.0222 32.8991,31.0042 L32.4341,30.9232 L32.3581,31.3602 C32.3441,31.4472 32.2261,31.5112 32.0951,31.4882 C31.9561,31.4642 31.8791,31.3662 31.8941,31.2802 L31.9691,30.8432 L31.5081,30.7642 C31.4161,30.7482 31.3421,30.6332 31.3631,30.5102 C31.3861,30.3782 31.4921,30.3072 31.5831,30.3232 L32.0441,30.4022 L32.1201,29.9622 C32.1371,29.8632 32.2391,29.8132 32.3791,29.8372 Z M5.1646,26.1121 C5.0766,26.1121 4.9896,26.1341 4.9026,26.1391 C4.8496,26.7391 4.9286,27.3461 5.1716,27.9161 C5.5616,28.8291 6.2836,29.5351 7.2046,29.9041 C7.7896,30.1391 8.4076,30.2031 9.0136,30.1311 C9.1596,30.1141 9.3026,30.0981 9.4466,30.0641 C9.4326,29.9111 9.4286,29.7591 9.3986,29.6071 C9.3416,29.3131 9.2566,29.0211 9.1336,28.7351 C8.6816,27.6751 7.8426,26.8551 6.7726,26.4261 C6.2536,26.2171 5.7086,26.1121 5.1646,26.1121 Z M12.0046,24.9961 C11.2006,23.1131 9.0116,22.2341 7.1286,23.0391 C6.2156,23.4291 5.5086,24.1511 5.1396,25.0721 C5.1056,25.1571 5.0906,25.2461 5.0636,25.3321 C5.7406,25.3181 6.4196,25.4371 7.0656,25.6961 C8.3306,26.2041 9.3226,27.1731 9.8576,28.4261 C9.9126,28.5541 9.9356,28.6861 9.9786,28.8151 C10.0876,29.1371 10.1626,29.4601 10.2046,29.7871 C10.2252,29.7767 10.2442,29.7637 10.2662,29.7527 L10.2662,29.7527 L10.2082,29.8307 L10.2082,29.8307 L10.2086,29.8311 L10.2656,29.7531 C11.3486,29.2011 12.0596,28.1861 12.2466,27.0501 C12.3166,26.6221 12.3186,26.1801 12.2326,25.7411 C12.1826,25.4901 12.1096,25.2401 12.0046,24.9961 Z M37.3745,26.9053 C37.9345,27.0063 38.3115,27.5173 38.2165,28.0483 C38.1215,28.5793 37.5905,28.9283 37.0295,28.8273 C36.4685,28.7273 36.0925,28.2153 36.1865,27.6843 C36.2815,27.1543 36.8135,26.8053 37.3745,26.9053 Z M42.7602,26.9053 C43.3202,27.0063 43.6972,27.5173 43.6022,28.0483 C43.5082,28.5793 42.9762,28.9283 42.4152,28.8273 C41.8542,28.7273 41.4782,28.2153 41.5722,27.6843 C41.6682,27.1543 42.1992,26.8053 42.7602,26.9053 Z M23.0836,18.1561 L23.0836,19.5261 L26.0756,21.7241 L26.0756,21.7251 L28.4346,21.7251 C26.0116,20.2541 24.0486,18.8641 23.0836,18.1561 L23.0836,18.1561 Z M34.0096,0.7851 C27.9846,0.7851 23.0836,5.6881 23.0836,11.7131 L23.0836,11.7131 L23.0836,17.1771 C23.7386,17.6661 26.5296,19.7081 30.0086,21.7251 L30.0086,21.7251 L44.9376,21.7251 L44.9376,11.7131 C44.9376,5.6881 40.0356,0.7851 34.0096,0.7851 Z M34.1881,4.1032 C37.3431,4.1032 39.9101,6.6532 39.9101,9.7872 C39.9101,11.9492 38.6461,13.9572 36.6871,14.9032 L36.6871,14.9032 L36.4101,15.0372 L36.3511,15.3372 C36.1461,16.3572 35.2351,17.0982 34.1881,17.0982 C33.1391,17.0982 32.2301,16.3572 32.0251,15.3372 L32.0251,15.3372 L31.9651,15.0362 L31.6881,14.9032 C29.7001,13.9452 28.4661,11.9842 28.4661,9.7872 C28.4661,6.6532 31.0321,4.1032 34.1881,4.1032 Z M34.1872,13.9397 C33.5102,13.9397 32.9602,14.4897 32.9602,15.1677 C32.9602,15.8457 33.5102,16.3957 34.1872,16.3957 C34.8662,16.3957 35.4162,15.8457 35.4162,15.1677 C35.4162,14.4897 34.8662,13.9397 34.1872,13.9397 Z M34.1881,4.5712 C31.2961,4.5712 28.9431,6.9112 28.9431,9.7872 C28.9431,11.5652 29.8381,13.2012 31.3341,14.1652 L31.3341,14.1652 L31.9091,14.5362 L32.2201,13.9262 C32.5991,13.1842 33.3531,12.7242 34.1881,12.7242 C35.0231,12.7242 35.7761,13.1842 36.1551,13.9252 L36.1551,13.9252 L36.4661,14.5372 L37.0431,14.1642 C38.5171,13.2062 39.4321,11.5302 39.4321,9.7872 C39.4321,6.9112 37.0791,4.5712 34.1881,4.5712 Z M32.4146,7.4347 C32.9366,7.4347 33.3596,7.8557 33.3596,8.3757 C33.3596,8.8957 32.9366,9.3167 32.4146,9.3167 C31.8916,9.3167 31.4686,8.8957 31.4686,8.3757 C31.4686,7.8557 31.8916,7.4347 32.4146,7.4347 Z M36.2564,7.4347 C36.7784,7.4347 37.2014,7.8557 37.2014,8.3757 C37.2014,8.8957 36.7784,9.3167 36.2564,9.3167 C35.7334,9.3167 35.3104,8.8957 35.3104,8.3757 C35.3104,7.8557 35.7334,7.4347 36.2564,7.4347 Z" id="Combined-Shape"></path>
                        </g>
                    </g>
                </g>
            </g>
        </g>
    </g>
</svg>
