<?xml version="1.0" encoding="UTF-8"?>
<svg width="50px" height="50px" viewBox="0 0 50 50" version="1.1" xmlns="http://www.w3.org/2000/svg" xmlns:xlink="http://www.w3.org/1999/xlink">
    <!-- Generator: sketchtool 63.1 (101010) - https://sketch.com -->
    <title>591AFB32-36E4-4BDD-95B0-6EFC33EA359D@1,5x</title>
    <desc>Created with sketchtool.</desc>
    <g id="Financeur_Cadhoc_prospect-/-UI" stroke="none" stroke-width="1" fill="none" fill-rule="evenodd">
        <g id="01_01_Commande-Prospect-Cadhoc" transform="translate(-654.000000, -438.000000)" fill="#4E5C59">
            <g id="Group-19" transform="translate(403.000000, 326.000000)">
                <g id="Group-22">
                    <g id="Group-8-Copy" transform="translate(245.000000, 112.000000)">
                        <g id="V2-/-picto-/-moyen-/-Challenge-Copy-2" transform="translate(6.000000, 0.000000)">
                            <path d="M27.3966999,1.96944264 C28.0537337,1.52617259 28.8443844,1.36571284 29.6249887,1.51714673 C30.4035837,1.66858061 31.0756871,2.11385641 31.5187327,2.7707385 L31.5187327,2.7707385 L35.2449379,8.29255951 C35.5945522,8.81204793 35.7151088,9.35460245 35.6015846,9.90517995 C35.4107033,10.8408608 34.6029737,11.5328435 33.9590003,11.9480331 L33.9590003,11.9480331 L22.3925943,19.760417 L41.8725397,19.760417 C43.6065462,19.760417 45.017059,21.1684513 45.017059,22.8994108 L45.017059,22.8994108 L45.017059,46.8610652 C45.017059,48.5920247 43.6065462,50.000059 41.8725397,50.000059 L41.8725397,50.000059 L13.4804439,50.000059 C11.7474421,50.000059 10.3369293,48.5920247 10.3369293,46.8610652 L10.3369293,46.8610652 L10.3369293,27.9017433 L7.89163856,29.5534759 C7.3923331,29.8753982 6.83174468,30.0298407 6.27718409,30.0298407 C5.30770769,30.0298407 4.35531015,29.5564845 3.7886939,28.6900019 L3.7886939,28.6900019 L0.479413848,23.6325112 C-0.402658977,22.2856522 -0.0329519156,20.4564111 1.30321763,19.5558308 L1.30321763,19.5558308 L7.90268959,15.1080872 L7.71825646,14.9469084 C6.81609037,14.1185646 6.21866388,12.9574252 6.13954858,11.6411538 C6.06219139,10.3364155 6.49719997,9.07780939 7.36721713,8.10000781 C8.17092814,7.19641887 9.25694263,6.63781838 10.4484442,6.49541035 C10.4826019,5.35113179 10.9095734,4.26602275 11.6791267,3.400543 C12.5491438,2.42374429 13.7456686,1.84308059 15.0527036,1.76585934 C16.3627525,1.68863808 17.6165417,2.12288227 18.5950598,2.9893649 C19.573578,3.8568504 20.1552638,5.05227551 20.232621,6.35601095 C20.2416627,6.50343334 20.2416627,6.64985286 20.2376442,6.7952695 L20.2376442,6.7952695 Z M41.8725397,20.4694485 L21.3417422,20.4694485 L11.0472089,27.4223699 L11.0472089,46.8610652 C11.0472089,48.2009041 12.1382466,49.2910275 13.4804439,49.2910275 L13.4804439,49.2910275 L41.8725397,49.2910275 C43.2147371,49.2910275 44.3067794,48.2009041 44.3067794,46.8610652 L44.3067794,46.8610652 L44.3067794,22.8994108 C44.3067794,21.5595719 43.2147371,20.4694485 41.8725397,20.4694485 L41.8725397,20.4694485 Z M32.4716326,26.8921507 C34.2307551,26.8921507 35.8803719,27.5430155 37.1140683,28.7244004 C38.3115977,29.8696818 38.9646129,31.3960552 38.9556638,33.0227159 C38.9465294,34.677457 38.2553379,36.229905 37.0115951,37.3942411 L29.4918741,44.4314038 C28.9855361,44.9057629 28.3134328,45.1675129 27.59813,45.1675129 C26.8838319,45.1675129 26.2107239,44.9057629 25.704386,44.4314038 L18.1354376,37.3481089 C16.8977227,36.190793 16.2175822,34.6503794 16.2175822,33.0106814 C16.2175822,31.3709833 16.8977227,29.8305698 18.1354376,28.6742567 C19.3621015,27.5249638 20.9926302,26.8921507 22.7256321,26.8921507 C24.4596385,26.8921507 26.0891626,27.5249638 27.3168312,28.6742567 L27.59813,28.9380124 L27.8804335,28.6742567 C29.1091067,27.5249638 30.7386307,26.8921507 32.4716326,26.8921507 Z M32.4716326,27.7937339 C30.968693,27.7937339 29.5581802,28.3402999 28.4982863,29.3321417 L27.59813,30.1755582 L26.6989783,29.3321417 C25.6390844,28.3402999 24.2285716,27.7937339 22.7256321,27.7937339 C21.2236971,27.7937339 19.8131843,28.3402999 18.7522858,29.3321417 C17.7014337,30.3169634 17.1227617,31.6227046 17.1227617,33.0106814 C17.1227617,34.3986582 17.7014337,35.7054022 18.7522858,36.6902239 L26.3212342,43.7735188 C26.9993653,44.4083377 28.1968947,44.4073348 28.8740212,43.7735188 L36.3937423,36.7363561 C37.4546408,35.7425086 38.0443638,34.4217243 38.0515049,33.0177015 C38.060438,31.6407563 37.5048727,30.3470496 36.489183,29.3752653 C35.4232613,28.355343 33.9956696,27.7937339 32.4716326,27.7937339 Z M29.4883578,2.21314088 C28.8966256,2.09781044 28.294847,2.22016099 27.7935322,2.55812933 L27.7935322,2.55812933 L20.1190968,7.72994752 C19.9392665,8.52522614 19.5635316,9.26634959 19.0059571,9.89314547 C18.2062646,10.7937258 17.1232641,11.3513234 15.9367857,11.4947343 C15.9046373,12.6420215 15.4766611,13.7321449 14.7030893,14.6016361 C13.8340768,15.5794377 12.6345381,16.1601014 11.3264985,16.2383256 C11.2280439,16.2443428 11.1305939,16.2473514 11.0321393,16.2473514 C10.1199273,16.2473514 9.25995654,15.989613 8.52154706,15.5473458 L8.52154706,15.5473458 L1.70105457,20.1445175 C0.684360154,20.8284772 0.404065942,22.2194626 1.07415999,23.2443992 L1.07415999,23.2443992 L4.38344004,28.3018898 C5.0615712,29.3368552 6.4590237,29.6337057 7.49882481,28.9617805 L7.49882481,28.9617805 L10.3369293,27.0452895 L11.0472089,26.565916 L20.0738881,20.4694485 L21.1237356,19.760417 L33.5671912,11.3573407 C34.3216749,10.8699442 34.7948597,10.3053264 34.9063746,9.76277193 C34.9807179,9.39973175 34.8983375,9.04872606 34.6562196,8.6886945 L34.6562196,8.6886945 L30.9300144,3.16687349 C30.5934605,2.66744253 30.0810947,2.32847132 29.4883578,2.21314088 Z M38.7623791,15.801173 C38.9020239,15.825242 39.0004785,15.9144977 38.982395,16.0187966 L38.9020239,16.4851327 L39.3953015,16.5703769 C39.5058118,16.5894315 39.5640808,16.6937304 39.5409741,16.8331298 C39.5178674,16.9645062 39.4254407,17.0567705 39.3149304,17.037716 L38.8216528,16.9524717 L38.7422863,17.4147964 C38.7262121,17.5060578 38.6006322,17.5742532 38.4609874,17.5501843 C38.3143102,17.5251124 38.2319298,17.4208136 38.248004,17.3295521 L38.3283751,16.8672275 L37.8381114,16.7829861 C37.7416661,16.7659373 37.6633043,16.6445896 37.6854063,16.514216 C37.708513,16.3738138 37.8220372,16.2996011 37.9184825,16.3156471 L38.4087462,16.3998885 L38.4881127,15.9335523 C38.5061962,15.8292535 38.6157018,15.7761012 38.7623791,15.801173 Z M33.5282112,15.0471125 C33.6668513,15.0711815 33.7663106,15.1604372 33.7482271,15.264736 L33.667856,15.7310722 L34.1611336,15.8163164 C34.2716439,15.835371 34.3299129,15.9396699 34.3068062,16.0800721 C34.2836995,16.2104457 34.1912728,16.30271 34.0807625,16.2836554 L33.5874849,16.1984112 L33.5081184,16.6607358 C33.4920442,16.7519973 33.3654597,16.8201927 33.2268195,16.7971266 C33.0801423,16.7710519 32.9977619,16.667756 33.0138361,16.5754916 L33.0932026,16.113167 L32.6039435,16.0289256 C32.5074982,16.0128796 32.4291364,15.8915319 32.4512384,15.7601555 C32.4743451,15.6197532 32.5878693,15.5455406 32.6843146,15.5625895 L33.1735737,15.6468308 L33.2539448,15.1794918 C33.2720283,15.075193 33.3815339,15.0220407 33.5282112,15.0471125 Z M10.4735602,7.12120336 C9.45385182,7.25458552 8.52556562,7.73997626 7.83537879,8.5151974 C7.07687653,9.36864268 6.69712309,10.4647833 6.76543852,11.6040475 C6.84179107,12.8927399 7.4907877,14.0139523 8.44619915,14.7430413 C8.65114546,14.8994896 8.87116135,15.0368832 9.1032329,15.1552223 C9.75825736,15.4891791 10.504704,15.6616733 11.2893268,15.6135354 C12.4305964,15.5463429 13.4764254,15.038889 14.2349276,14.1854437 C14.8959799,13.4433174 15.2697056,12.5146566 15.3098911,11.5348493 C15.0597361,11.5338464 14.8125949,11.5097774 14.5684677,11.4706654 C14.2550204,11.4215246 13.947601,11.3433004 13.6502279,11.2349901 C13.0846163,11.0263924 12.5561763,10.7155017 12.0920332,10.3033207 C11.1597284,9.47795588 10.5921075,8.35273191 10.4735602,7.12120336 Z M43.2144357,12.2729641 C43.4605722,12.3150848 43.636384,12.4725359 43.6052402,12.6600732 L43.4967392,13.287872 C43.4776511,13.4001938 43.552999,13.5075013 43.6655185,13.5265558 L44.3416404,13.6428892 C44.5395542,13.6769869 44.6420274,13.8635213 44.5988279,14.1122339 C44.559647,14.3449006 44.3958909,14.5083689 44.1989817,14.4752741 L43.5339108,14.3599437 C43.4153635,14.3398862 43.3018393,14.4191132 43.2817465,14.5384551 L43.1762594,15.1471993 C43.1481295,15.3106676 42.9240951,15.4320153 42.6779586,15.3898946 C42.4137386,15.3437625 42.2690706,15.1592338 42.2961959,14.9957654 L42.3946505,14.4271362 C42.4187618,14.2867339 42.3243258,14.151346 42.1826717,14.127277 L41.5678328,14.0209724 C41.3950349,13.9918891 41.2533809,13.7752685 41.2935664,13.5415989 C41.3367659,13.2938892 41.5376936,13.1605071 41.7104915,13.1895904 L42.3494417,13.2999065 C42.4780355,13.3219697 42.5995968,13.2357226 42.6216988,13.1083576 L42.7251766,12.5086393 C42.7573251,12.3221049 42.9512204,12.2268319 43.2144357,12.2729641 Z M37.7699969,10.2927905 C38.042254,10.3409285 38.2250983,10.6016755 38.175871,10.8744571 C38.1266437,11.1472387 37.8654376,11.3277559 37.5931805,11.279618 C37.3199188,11.2304772 37.1380791,10.9697301 37.1873064,10.6969485 C37.2365337,10.4241669 37.4967352,10.2436497 37.7699969,10.2927905 Z M45.6078871,10.0768719 C45.8811488,10.1250098 46.0629884,10.3857569 46.0137611,10.6585385 C45.9645338,10.93132 45.7033277,11.1118372 45.4310706,11.0636993 C45.1588135,11.0145585 44.9759693,10.7538114 45.0251966,10.4810299 C45.0744239,10.2082483 45.3346253,10.0277311 45.6078871,10.0768719 Z M11.1828351,7.08309417 C11.2923407,8.12407677 11.7735627,9.0737979 12.5622041,9.77280066 C13.0996859,10.2481627 13.7356222,10.5660735 14.4167673,10.7185103 C14.6970615,10.7806884 14.9843882,10.8187976 15.276738,10.8228091 C15.2506174,10.618223 15.207418,10.4176483 15.1541721,10.2210851 C14.9391794,9.42881508 14.5051755,8.71376634 13.8762716,8.1571716 C13.1227925,7.4892579 12.1764228,7.11618899 11.1828351,7.08309417 Z M15.3337579,2.46637263 L15.0948984,2.47388797 C13.9787448,2.54007761 12.9540132,3.03649995 12.2115852,3.87089063 C11.5656025,4.59697098 11.2009186,5.50256567 11.1597284,6.45930691 C12.3160676,6.48638449 13.4171517,6.91360856 14.2921921,7.68882971 C14.9592722,8.28052503 15.4374802,9.02565997 15.6996909,9.85303054 C15.7770481,10.0937202 15.8312986,10.3414299 15.8704795,10.5931511 C15.8805259,10.657335 15.8945909,10.720516 15.902628,10.7857028 C16.8972203,10.6533235 17.8013952,10.1779615 18.4745032,9.42179497 C18.755802,9.10588984 18.983855,8.75388128 19.1556483,8.37980949 C19.3113673,8.03983541 19.417859,7.67980385 19.476128,7.30874069 C19.523346,7.01088729 19.5424342,6.70601377 19.523346,6.39813163 C19.4570399,5.28393927 18.9607483,4.26100839 18.1238843,3.51988493 C17.2870202,2.77876148 16.2130613,2.40769832 15.0948984,2.47388797 Z M42.7236697,7.33682114 C43.0210427,7.38997344 43.2209659,7.66074926 43.1707339,7.94155381 C43.1194973,8.22336124 42.8381985,8.40788995 42.5408254,8.35473766 C42.2434524,8.30158537 42.0435292,8.03080955 42.0937612,7.74900212 C42.1429885,7.46819756 42.4262966,7.28366885 42.7236697,7.33682114 Z M47.4401472,5.32876771 C47.579792,5.35283667 47.6782466,5.44209241 47.6601631,5.54639124 L47.579792,6.01373025 L48.0730696,6.09797162 C48.1835799,6.11702621 48.2418489,6.22232792 48.2187423,6.36172732 C48.1956356,6.49210087 48.1032088,6.58436522 47.9926985,6.56531063 L47.4994209,6.48006639 L47.4200544,6.94239103 C47.4039802,7.03365251 47.2784004,7.10285078 47.1387556,7.07878182 C46.9920783,7.05270711 46.909698,6.94941114 46.9257722,6.85714679 L47.0061433,6.39482215 L46.5158796,6.31058078 C46.4194343,6.29453481 46.3410724,6.17318712 46.3631745,6.04181071 C46.3862812,5.9024113 46.4998054,5.8271958 46.5962507,5.84424464 L47.0855097,5.92848601 L47.1658808,5.46214987 C47.1839643,5.35684817 47.29347,5.30369587 47.4401472,5.32876771 Z M41.3024072,3.44938293 C41.4410474,3.4734519 41.5405066,3.56270763 41.5214185,3.66700646 L41.442052,4.1333426 L41.9353296,4.21858684 C42.0458399,4.23764144 42.104109,4.34194027 42.0810023,4.48133968 C42.0578956,4.61271609 41.9654688,4.70498045 41.8549585,4.68592585 L41.3616809,4.60068161 L41.2813098,5.06300626 C41.2652356,5.15426774 41.1396558,5.22246313 41.0010156,5.19839417 C40.8543383,5.17332233 40.771958,5.0690235 40.7880322,4.97776202 L40.8673987,4.51543737 L40.3781396,4.43119601 C40.2816943,4.41414716 40.2023278,4.29380235 40.2244298,4.16242593 C40.2485412,4.02202365 40.3620654,3.94781102 40.4585107,3.96385699 L40.9477698,4.04809836 L41.0281409,3.58176222 C41.0452197,3.47746339 41.15573,3.4243111 41.3024072,3.44938293 Z M49.7237916,0.160058427 C49.9046265,0.332552654 49.9639002,0.561207792 49.8332972,0.69860145 L49.3942701,1.16192897 C49.3159082,1.24516746 49.3199268,1.375541 49.4033118,1.45376513 L49.9016126,1.92511563 C50.0472853,2.06250929 50.0302064,2.27411558 49.8564039,2.45764142 C49.6936524,2.63013564 49.4676087,2.67526495 49.3219361,2.53787129 L48.8316724,2.07554665 C48.7442688,1.99331103 48.6056286,1.99631965 48.5222436,2.08457251 L48.0972814,2.5338598 C47.9837573,2.6542046 47.7295836,2.63113852 47.5487487,2.45964716 C47.3538488,2.27612133 47.3357653,2.04144895 47.4492894,1.92110414 L47.8451171,1.50190305 C47.9435717,1.39760422 47.9395531,1.23313298 47.8350707,1.13485138 L47.3819786,0.706624437 C47.2543895,0.586279628 47.2574034,0.328541161 47.4201549,0.156046934 C47.5939574,-0.0264760276 47.8350707,-0.027478901 47.9626598,0.0928659085 L48.4328308,0.538141704 C48.5272668,0.627397438 48.676958,0.623385944 48.7663708,0.529115843 L49.1843006,0.086848668 C49.3149036,-0.051547863 49.5288917,-0.022464534 49.7237916,0.160058427 Z" id="Combined-Shape"></path>
                        </g>
                    </g>
                </g>
            </g>
        </g>
    </g>
</svg>
