<?xml version="1.0" encoding="UTF-8"?>
<svg width="50px" height="50px" viewBox="0 0 50 50" version="1.1" xmlns="http://www.w3.org/2000/svg" xmlns:xlink="http://www.w3.org/1999/xlink">
    <!-- Generator: sketchtool 63.1 (101010) - https://sketch.com -->
    <title>8A156586-C5C0-4521-9605-023CFFF7F3FA@1,5x</title>
    <desc>Created with sketchtool.</desc>
    <g id="Financeur_Cadhoc_prospect-/-UI" stroke="none" stroke-width="1" fill="none" fill-rule="evenodd">
        <g id="01_01_Commande-Prospect-Cadhoc" transform="translate(-540.000000, -551.000000)" fill="#4E5B59" fill-rule="nonzero">
            <g id="Group-19" transform="translate(403.000000, 326.000000)">
                <g id="Group-22">
                    <g id="Group-14" transform="translate(133.000000, 225.000000)">
                        <g id="V2-/-picto-/-moyen-/-Challenge-Copy-5" transform="translate(4.000000, 0.000000)">
                            <path d="M27.2702,1.9636 C27.9242,1.5226 28.7112,1.3616 29.4882,1.5126 C30.2632,1.6636 30.9322,2.1076 31.3732,2.7626 L31.3732,2.7626 L35.0822,8.2696 C35.4302,8.7866 35.5502,9.3276 35.4372,9.8766 C35.2472,10.8096 34.4432,11.4996 33.8022,11.9136 L33.8022,11.9136 L22.2892,19.7046 L41.6792,19.7046 C43.4052,19.7046 44.8092,21.1076 44.8092,22.8336 L44.8092,22.8336 L44.8092,46.7266 C44.8092,48.4536 43.4052,49.8566 41.6792,49.8566 L41.6792,49.8566 L13.4182,49.8566 C11.6932,49.8566 10.2892,48.4536 10.2892,46.7266 L10.2892,46.7266 L10.2892,27.8226 L7.8552,29.4686 C7.3582,29.7896 6.8002,29.9436 6.2482,29.9436 C5.2832,29.9436 4.3352,29.4716 3.7712,28.6076 L3.7712,28.6076 L0.4772,23.5646 C-0.4008,22.2216 -0.0328,20.3986 1.2972,19.4996 L1.2972,19.4996 L7.8662,15.0656 L7.68261846,14.904872 C6.78461797,14.0787953 6.18995,12.9201625 6.1112,11.6086 C6.0342,10.3066 6.4672,9.0516 7.3332,8.0776 C8.1332,7.1756 9.2142,6.6186 10.4002,6.4766 C10.4342,5.3356 10.8592,4.2536 11.6252,3.3906 C12.4912,2.4166 13.6822,1.8376 14.9832,1.7606 C16.2872,1.6836 17.5352,2.1176 18.5092,2.9816 C19.4832,3.8456 20.0622,5.0386 20.1392,6.3376 C20.1482,6.4846 20.1482,6.6306 20.1442,6.7756 L20.1442,6.7756 Z M41.6792,20.4116 L21.2432,20.4116 L10.9962,27.3436 L10.9962,46.7266 C10.9962,48.0626 12.0822,49.1496 13.4182,49.1496 L13.4182,49.1496 L41.6792,49.1496 C43.0152,49.1496 44.1022,48.0626 44.1022,46.7266 L44.1022,46.7266 L44.1022,22.8336 C44.1022,21.4976 43.0152,20.4116 41.6792,20.4116 L41.6792,20.4116 Z M27.3909,23.5179 C28.1739,23.5299 28.9259,23.8149 29.4879,24.3949 C35.0639,30.1559 36.0529,38.9329 36.2189,42.4389 C36.2809,43.7419 35.4689,44.9089 34.2439,45.2759 C32.3739,45.8379 30.4029,46.0429 28.5229,46.0429 C25.5449,46.0429 22.7939,45.5289 21.0429,45.1069 C19.7619,44.7999 18.8709,43.6519 18.8758791,42.3179 C18.9099,33.0359 22.9369,27.1549 25.3339,24.4759 C25.8719,23.8729 26.6029,23.5329 27.3909,23.5179 Z M27.4479,24.2529 L27.4069,24.2529 C26.8239,24.2649 26.2829,24.5189 25.8819,24.9669 C23.5539,27.5679 19.6439,33.2809 19.6118717,42.3209 C19.6069,43.3129 20.2659,44.1639 21.2159,44.3929 C23.9989,45.0619 29.3629,45.9739 34.0319,44.5719 C34.9329,44.3019 35.5309,43.4389 35.4849,42.4729 C35.3219,39.0499 34.3609,30.4869 28.9599,24.9059 C28.5519,24.4839 28.0149,24.2529 27.4479,24.2529 Z M27.5491,29.1161 C28.1171,29.1161 28.5801,29.5791 28.5801,30.1461 L28.5801,30.1461 L28.5801,31.6221 L30.9031,31.6221 C31.4201,31.6221 31.8411,32.0441 31.8411,32.5601 L31.8411,32.5601 L31.8411,32.7451 C31.8411,33.2621 31.4201,33.6821 30.9031,33.6821 L30.9031,33.6821 L28.5801,33.6821 L28.5801,39.4141 C28.5801,39.9811 28.1171,40.4441 27.5491,40.4441 C26.9821,40.4441 26.5191,39.9811 26.5191,39.4141 L26.5191,39.4141 L26.5191,33.6821 L24.1951,33.6821 C23.6771,33.6821 23.2561,33.2621 23.2561,32.7451 L23.2561,32.7451 L23.2561,32.5601 C23.2561,32.0441 23.6771,31.6221 24.1951,31.6221 L24.1951,31.6221 L26.5191,31.6221 L26.5191,30.1461 C26.5191,29.5791 26.9821,29.1161 27.5491,29.1161 Z M27.5491,29.8531 C27.3871,29.8531 27.2551,29.9841 27.2551,30.1461 L27.2551,30.1461 L27.2551,32.3591 L24.1951,32.3591 C24.0841,32.3591 23.9931,32.4491 23.9931,32.5601 L23.9931,32.5601 L23.9931,32.7451 C23.9931,32.8561 24.0841,32.9461 24.1951,32.9461 L24.1951,32.9461 L27.2551,32.9461 L27.2551,39.4141 C27.2551,39.5761 27.3871,39.7071 27.5491,39.7071 C27.7121,39.7071 27.8431,39.5761 27.8431,39.4141 L27.8431,39.4141 L27.8431,32.9461 L30.9031,32.9461 C31.0141,32.9461 31.1051,32.8561 31.1051,32.7451 L31.1051,32.7451 L31.1051,32.5601 C31.1051,32.4491 31.0141,32.3591 30.9031,32.3591 L30.9031,32.3591 L27.8431,32.3591 L27.8431,30.1461 C27.8431,29.9841 27.7121,29.8531 27.5491,29.8531 Z M29.3522,2.2066 C28.7632,2.0916 28.1642,2.2136 27.6652,2.5506 L27.6652,2.5506 L20.0262,7.7076 C19.8472,8.5006 19.4732,9.2406 18.9182,9.8646 C18.1222,10.7626 17.0442,11.3196 15.8632,11.4616 C15.8312,12.6066 15.4052,13.6936 14.6352,14.5596 C13.7702,15.5346 12.5762,16.1146 11.2742,16.1916 C11.1762,16.1976 11.0792,16.2006 10.9812,16.2006 C10.0732,16.2006 9.2172,15.9446 8.4822,15.5026 L8.4822,15.5026 L1.6932,20.0866 C0.6812,20.7696 0.4022,22.1566 1.0692,23.1776 L1.0692,23.1776 L4.3632,28.2206 C5.0382,29.2526 6.4292,29.5486 7.4642,28.8786 L7.4642,28.8786 L10.2892,26.9676 L10.9962,26.4896 L19.9812,20.4116 L21.0262,19.7046 L33.4122,11.3246 C34.1632,10.8386 34.6342,10.2756 34.7452,9.7356 C34.8192,9.3726 34.7372,9.0236 34.4962,8.6636 L34.4962,8.6636 L30.7872,3.1576 C30.4522,2.6596 29.9422,2.3226 29.3522,2.2066 Z M38.5834,15.7557 C38.7224,15.7807 38.8204,15.8687 38.8024,15.9727 L38.7224,16.4387 L39.2134,16.5237 C39.3234,16.5417 39.3814,16.6467 39.3584,16.7847 C39.3354,16.9157 39.2434,17.0077 39.1334,16.9887 L38.6424,16.9037 L38.5634,17.3657 C38.5474,17.4557 38.4224,17.5247 38.2834,17.4997 C38.1374,17.4747 38.0554,17.3707 38.0714,17.2807 L38.1514,16.8187 L37.6634,16.7347 C37.5674,16.7177 37.4894,16.5967 37.5114,16.4667 C37.5344,16.3267 37.6474,16.2527 37.7434,16.2697 L38.2314,16.3537 L38.3104,15.8877 C38.3284,15.7837 38.4374,15.7307 38.5834,15.7557 Z M33.3734,15.0037 C33.5114,15.0287 33.6104,15.1167 33.5924,15.2207 L33.5124,15.6867 L34.0034,15.7717 C34.1134,15.7897 34.1714,15.8947 34.1484,16.0337 C34.1254,16.1637 34.0334,16.2557 33.9234,16.2377 L33.4324,16.1527 L33.3534,16.6137 C33.3374,16.7037 33.2114,16.7727 33.0734,16.7487 C32.9274,16.7237 32.8454,16.6197 32.8614,16.5287 L32.9404,16.0677 L32.4534,15.9837 C32.3574,15.9667 32.2794,15.8457 32.3014,15.7147 C32.3244,15.5747 32.4374,15.5007 32.5334,15.5177 L33.0204,15.6017 L33.1004,15.1357 C33.1184,15.0317 33.2274,14.9787 33.3734,15.0037 Z M10.4252,7.1006 C9.4102,7.2336 8.4862,7.7176 7.7992,8.4916 C7.0442,9.3416 6.6662,10.4356 6.7342,11.5716 C6.8102,12.8556 7.4562,13.9736 8.4072,14.7006 C8.6112,14.8576 8.8302,14.9946 9.0612,15.1126 C9.7132,15.4446 10.4562,15.6176 11.2372,15.5696 C12.3732,15.5016 13.4142,14.9966 14.1692,14.1456 C14.8272,13.4046 15.1992,12.4786 15.2392,11.5016 C14.9902,11.5006 14.7442,11.4766 14.5012,11.4386 C14.1892,11.3886 13.8832,11.3116 13.5872,11.2026 C13.0242,10.9956 12.4982,10.6846 12.0362,10.2736 C11.1082,9.4506 10.5432,8.3286 10.4252,7.1006 Z M43.0149,12.237 C43.2599,12.28 43.4349,12.437 43.4039,12.624 L43.2959,13.25 C43.2769,13.362 43.3519,13.469 43.4639,13.488 L44.1369,13.604 C44.3339,13.638 44.4359,13.823 44.3929,14.071 C44.3539,14.304 44.1909,14.467 43.9949,14.434 L43.3329,14.319 C43.2149,14.299 43.1019,14.378 43.0819,14.496 L42.9769,15.103 C42.9489,15.267 42.7259,15.388 42.4809,15.346 C42.2179,15.3 42.0739,15.115 42.1009,14.952 L42.1989,14.386 C42.2229,14.245 42.1289,14.111 41.9879,14.087 L41.3759,13.981 C41.2039,13.951 41.0629,13.736 41.1029,13.503 C41.1459,13.256 41.3459,13.122 41.5179,13.152 L42.1539,13.262 C42.2819,13.284 42.4029,13.198 42.4249,13.07 L42.5279,12.473 C42.5599,12.286 42.7529,12.192 43.0149,12.237 Z M37.5956,10.2631 C37.8666,10.3111 38.0486,10.5711 37.9996,10.8431 C37.9506,11.1151 37.6906,11.2961 37.4196,11.2471 C37.1476,11.1981 36.9666,10.9381 37.0156,10.6671 C37.0646,10.3951 37.3236,10.2141 37.5956,10.2631 Z M45.3973,10.0482 C45.6693,10.0952 45.8503,10.3552 45.8013,10.6282 C45.7523,10.8992 45.4923,11.0802 45.2213,11.0322 C44.9503,10.9832 44.7683,10.7232 44.8173,10.4512 C44.8663,10.1792 45.1253,9.9992 45.3973,10.0482 Z M11.1312,7.0636 C11.2402,8.1006 11.7192,9.0476 12.5042,9.7456 C13.0392,10.2186 13.6722,10.5366 14.3502,10.6876 C14.6292,10.7496 14.9152,10.7876 15.2062,10.7916 C15.1802,10.5876 15.1372,10.3876 15.0842,10.1926 C14.8702,9.4026 14.4382,8.6896 13.8122,8.1336 C13.0622,7.4676 12.1202,7.0956 11.1312,7.0636 Z M15.2629566,2.45930517 L15.0252,2.4666 C13.9142,2.5326 12.8942,3.0276 12.1552,3.8606 C11.5122,4.5836 11.1492,5.4876 11.1082,6.4406 C12.2592,6.4676 13.3552,6.8936 14.2262,7.6666 C14.8902,8.2566 15.3662,8.9996 15.6272,9.8256 C15.7042,10.0646 15.7582,10.3116 15.7972,10.5636 C15.8072,10.6266 15.8212,10.6906 15.8292,10.7546 C16.8192,10.6226 17.7192,10.1496 18.3892,9.3946 C18.6692,9.0796 18.8962,8.7296 19.0672,8.3566 C19.2222,8.0166 19.3282,7.6576 19.3862,7.2876 C19.4332,6.9906 19.4522,6.6876 19.4332,6.3796 C19.3672,5.2686 18.8732,4.2486 18.0402,3.5096 C17.2072,2.7716 16.1382,2.4016 15.0252,2.4666 Z M42.5264,7.3161 C42.8224,7.3691 43.0214,7.6391 42.9714,7.9191 C42.9204,8.1991 42.6404,8.3841 42.3444,8.3311 C42.0484,8.2771 41.8494,8.0081 41.8994,7.7271 C41.9484,7.4471 42.2304,7.2631 42.5264,7.3161 Z M47.2211,5.3143 C47.3601,5.3383 47.4581,5.4263 47.4401,5.5303 L47.3601,5.9963 L47.8511,6.0813 C47.9611,6.0993 48.0191,6.2043 47.9961,6.3433 C47.9731,6.4733 47.8811,6.5653 47.7711,6.5473 L47.2801,6.4623 L47.2011,6.9233 C47.1851,7.0133 47.0601,7.0823 46.9211,7.0583 C46.7751,7.0333 46.6931,6.9293 46.7091,6.8383 L46.7891,6.3773 L46.3011,6.2933 C46.2051,6.2763 46.1271,6.1553 46.1491,6.0243 C46.1721,5.8853 46.2851,5.8103 46.3811,5.8273 L46.8681,5.9113 L46.9481,5.4463 C46.9661,5.3423 47.0751,5.2893 47.2211,5.3143 Z M41.1117,3.4393 C41.2497,3.4643 41.3487,3.5523 41.3297,3.6563 L41.2507,4.1223 L41.7417,4.2073 C41.8517,4.2253 41.9097,4.3303 41.8867,4.4683 C41.8637,4.5993 41.7717,4.6913 41.6617,4.6723 L41.1707,4.5873 L41.0907,5.0493 C41.0747,5.1393 40.9497,5.2083 40.8117,5.1843 C40.6657,5.1593 40.5837,5.0543 40.5997,4.9643 L40.6787,4.5033 L40.1917,4.4193 C40.0957,4.4013 40.0167,4.2813 40.0387,4.1503 C40.0627,4.0103 40.1757,3.9363 40.2717,3.9533 L40.7587,4.0373 L40.8387,3.5713 C40.8557,3.4673 40.9657,3.4143 41.1117,3.4393 Z M49.4942,0.1603 C49.6742,0.3313 49.7332,0.5593 49.6032,0.6963 L49.1662,1.1593 C49.0882,1.2413 49.0922,1.3723 49.1752,1.4503 L49.6712,1.9193 C49.8162,2.0563 49.7992,2.2673 49.6262,2.4503 C49.4642,2.6223 49.2392,2.6683 49.0942,2.5313 L48.6062,2.0693 C48.5192,1.9873 48.3812,1.9913 48.2982,2.0783 L47.8752,2.5263 C47.7622,2.6463 47.5092,2.6243 47.3292,2.4523 C47.1352,2.2693 47.1172,2.0363 47.2302,1.9163 L47.6242,1.4983 C47.7222,1.3933 47.7182,1.2293 47.6142,1.1323 L47.1632,0.7053 C47.0362,0.5853 47.0392,0.3283 47.2012,0.1563 C47.3742,-0.0267 47.6142,-0.0277 47.7412,0.0923 L48.2092,0.5363 C48.3032,0.6263 48.4522,0.6213 48.5412,0.5273 L48.9572,0.0863 C49.0872,-0.0507 49.3002,-0.0227 49.4942,0.1603 Z" id="Combined-Shape"></path>
                        </g>
                    </g>
                </g>
            </g>
        </g>
    </g>
</svg>
