<?xml version="1.0" encoding="UTF-8"?>
<svg width="50px" height="50px" viewBox="0 0 50 50" version="1.1" xmlns="http://www.w3.org/2000/svg" xmlns:xlink="http://www.w3.org/1999/xlink">
    <!-- Generator: sketchtool 63.1 (101010) - https://sketch.com -->
    <title>056DF5A5-E2A1-4872-9EC4-9CFBBF6C02E6@1,5x</title>
    <desc>Created with sketchtool.</desc>
    <g id="Financeur_Cadhoc_prospect-/-UI" stroke="none" stroke-width="1" fill="none" fill-rule="evenodd">
        <g id="01_01_Commande-Prospect-Cadhoc" transform="translate(-655.000000, -326.000000)" fill="#4E5B59" fill-rule="nonzero">
            <g id="Group-19" transform="translate(403.000000, 326.000000)">
                <g id="Group-22">
                    <g id="Group-7" transform="translate(239.000000, 0.000000)">
                        <g id="V2-/-picto-/-moyen-/-Aucun-Copy-2" transform="translate(13.000000, 0.000000)">
                            <path d="M27.2702,1.9642 C27.9242,1.5222 28.7112,1.3612 29.4882,1.5132 C30.2632,1.6642 30.9322,2.1072 31.3732,2.7622 L31.3732,2.7622 L35.0822,8.2692 C35.4302,8.7862 35.5502,9.3272 35.4372,9.8772 C35.2472,10.8102 34.4432,11.4992 33.8022,11.9142 L33.8022,11.9142 L22.2892,19.7042 L41.6792,19.7042 C43.4052,19.7042 44.8092,21.1072 44.8092,22.8332 L44.8092,22.8332 L44.8092,46.7272 C44.8092,48.4532 43.4052,49.8572 41.6792,49.8572 L41.6792,49.8572 L13.4182,49.8572 C11.6932,49.8572 10.2892,48.4532 10.2892,46.7272 L10.2892,46.7272 L10.2892,27.8222 L7.8552,29.4682 C7.3582,29.7902 6.8002,29.9432 6.2482,29.9432 C5.2832,29.9432 4.3352,29.4722 3.7712,28.6072 L3.7712,28.6072 L0.4772,23.5642 C-0.4008,22.2212 -0.0328,20.3982 1.2972,19.5002 L1.2972,19.5002 L7.8662,15.0652 L7.68261846,14.904472 C6.78461797,14.0783953 6.18995,12.9197625 6.1112,11.6082 C6.0342,10.3062 6.4672,9.0522 7.3332,8.0772 C8.1332,7.1762 9.2142,6.6182 10.4002,6.4772 C10.4342,5.3362 10.8592,4.2542 11.6252,3.3912 C12.4912,2.4162 13.6822,1.8372 14.9832,1.7602 C16.2872,1.6832 17.5352,2.1172 18.5092,2.9812 C19.4832,3.8462 20.0622,5.0382 20.1392,6.3382 C20.1482,6.4852 20.1482,6.6302 20.1442,6.7752 L20.1442,6.7752 Z M41.6792,20.4112 L21.2432,20.4112 L10.9962,27.3432 L10.9962,46.7272 C10.9962,48.0622 12.0822,49.1492 13.4182,49.1492 L13.4182,49.1492 L41.6792,49.1492 C43.0152,49.1492 44.1022,48.0622 44.1022,46.7272 L44.1022,46.7272 L44.1022,22.8332 C44.1022,21.4982 43.0152,20.4112 41.6792,20.4112 L41.6792,20.4112 Z M34.9960556,41.1637715 C35.1909174,41.2741487 35.2594058,41.5215938 35.1490285,41.7164556 C34.3452464,43.1354665 33.2405025,44.0886138 31.916813,44.6334951 C30.5380868,45.2010317 29.0866119,45.2794764 27.7639328,45.0757652 L27.5075033,45.0318676 C27.3953241,45.0105016 27.3077728,44.9905706 27.2474356,44.974599 C27.0309405,44.9172915 26.9018935,44.6953306 26.959201,44.4788356 C27.0165085,44.2623405 27.2384694,44.1332935 27.4549644,44.190601 L27.5786049,44.2191696 C27.6574708,44.2356274 27.7613019,44.2547978 27.8873827,44.274216 C29.0765296,44.4573614 30.3860621,44.3865879 31.608106,43.8835478 C32.7668608,43.4065599 33.7306168,42.5750537 34.4433715,41.3167444 C34.5537487,41.1218826 34.8011938,41.0533942 34.9960556,41.1637715 Z M32.7211,26.0636 C32.9371,25.8916 33.2511,25.9236 33.4241,26.1396 C33.5931,26.3506 33.5651,26.6566 33.3621,26.8316 C33.3241,26.8696 32.8891,27.3546 33.6991,28.6496 C33.7071,28.6616 33.7071,28.6756 33.7131,28.6886 C37.2561,28.7676 41.4191,32.1836 41.6481,32.3756 C41.8611,32.5516 41.8891,32.8676 41.7131,33.0796 C41.6141,33.1986 41.4721,33.2596 41.3291,33.2596 C41.2151,33.2596 41.1021,33.2216 41.0091,33.1446 C40.9411,33.0876 34.1801,27.5336 31.3081,30.6126 C30.8541,31.0996 30.4811,31.7596 30.1991,32.5746 C30.1501,32.7156 30.0401,32.8276 29.8991,32.8796 C29.7581,32.9306 29.6031,32.9176 29.4731,32.8426 C29.3831,32.7896 27.2681,31.5256 27.7951,29.5906 C27.8691,29.3256 28.1421,29.1656 28.4101,29.2396 C28.6751,29.3126 28.8331,29.5876 28.7601,29.8536 C28.5571,30.5996 29.0771,31.2396 29.5001,31.6166 C29.7111,31.1356 29.9701,30.7286 30.2501,30.3566 C29.7361,29.9056 29.4321,29.4036 29.3661,28.8526 C29.2551,27.9416 29.8121,27.2946 29.8771,27.2236 C30.0621,27.0186 30.3771,27.0026 30.5831,27.1866 C30.7871,27.3706 30.8031,27.6846 30.6221,27.8896 C30.6111,27.9026 30.2981,28.2766 30.3601,28.7416 C30.3991,29.0396 30.5851,29.3316 30.9091,29.6136 C31.4251,29.1726 32.0071,28.9126 32.6261,28.7856 C31.6691,26.9416 32.6751,26.1006 32.7211,26.0636 Z M16.7576,26.0455 C16.9736,25.8735 17.2876,25.9065 17.4606,26.1215 C17.6306,26.3325 17.6006,26.6385 17.3966,26.8135 C17.3596,26.8515 16.9246,27.3365 17.7346,28.6315 C17.7426,28.6435 17.7426,28.6575 17.7496,28.6705 C21.2936,28.7485 25.4526,32.1655 25.6836,32.3575 C25.8956,32.5335 25.9246,32.8495 25.7486,33.0615 C25.6486,33.1805 25.5076,33.2415 25.3636,33.2415 C25.2506,33.2415 25.1376,33.2035 25.0446,33.1265 C24.9756,33.0695 18.2156,27.5155 15.3436,30.5945 C14.8896,31.0825 14.5156,31.7425 14.2336,32.5565 C14.1856,32.6975 14.0746,32.8095 13.9346,32.8615 C13.7946,32.9125 13.6386,32.8995 13.5086,32.8245 C13.4186,32.7715 11.3036,31.5075 11.8306,29.5725 C11.9036,29.3075 12.1776,29.1485 12.4446,29.2215 C12.7106,29.2945 12.8676,29.5695 12.7956,29.8355 C12.5926,30.5815 13.1116,31.2215 13.5356,31.5985 C13.7466,31.1185 14.0056,30.7105 14.2846,30.3385 C13.7706,29.8875 13.4676,29.3855 13.4006,28.8345 C13.2906,27.9235 13.8476,27.2755 13.9116,27.2055 C14.0976,27.0005 14.4126,26.9835 14.6176,27.1685 C14.8216,27.3525 14.8386,27.6655 14.6566,27.8715 C14.6456,27.8835 14.3336,28.2575 14.3956,28.7235 C14.4346,29.0215 14.6206,29.3135 14.9436,29.5955 C15.4606,29.1545 16.0436,28.8955 16.6616,28.7675 C15.7046,26.9225 16.7116,26.0825 16.7576,26.0455 Z M29.3522,2.2072 C28.7632,2.0922 28.1642,2.2142 27.6652,2.5502 L27.6652,2.5502 L20.0262,7.7082 C19.8472,8.5002 19.4732,9.2402 18.9182,9.8642 C18.1222,10.7622 17.0442,11.3192 15.8632,11.4622 C15.8312,12.6062 15.4052,13.6932 14.6352,14.5592 C13.7702,15.5342 12.5762,16.1142 11.2742,16.1912 C11.1762,16.1972 11.0792,16.2002 10.9812,16.2002 C10.0732,16.2002 9.2172,15.9442 8.4822,15.5022 L8.4822,15.5022 L1.6932,20.0862 C0.6812,20.7692 0.4022,22.1562 1.0692,23.1782 L1.0692,23.1782 L4.3632,28.2212 C5.0382,29.2532 6.4292,29.5492 7.4642,28.8782 L7.4642,28.8782 L10.2892,26.9682 L10.9962,26.4902 L19.9812,20.4112 L21.0262,19.7042 L33.4122,11.3242 C34.1632,10.8382 34.6342,10.2752 34.7452,9.7352 C34.8192,9.3732 34.7372,9.0232 34.4962,8.6642 L34.4962,8.6642 L30.7872,3.1572 C30.4522,2.6592 29.9422,2.3222 29.3522,2.2072 Z M38.5834,15.7558 C38.7224,15.7798 38.8204,15.8688 38.8024,15.9728 L38.7224,16.4378 L39.2134,16.5228 C39.3234,16.5418 39.3814,16.6458 39.3584,16.7848 C39.3354,16.9158 39.2434,17.0078 39.1334,16.9888 L38.6424,16.9038 L38.5634,17.3648 C38.5474,17.4558 38.4224,17.5238 38.2834,17.5008 C38.1374,17.4748 38.0554,17.3708 38.0714,17.2798 L38.1514,16.8188 L37.6634,16.7348 C37.5674,16.7188 37.4894,16.5978 37.5114,16.4668 C37.5344,16.3268 37.6474,16.2528 37.7434,16.2688 L38.2314,16.3538 L38.3104,15.8878 C38.3284,15.7838 38.4374,15.7308 38.5834,15.7558 Z M33.3734,15.0043 C33.5114,15.0283 33.6104,15.1173 33.5924,15.2213 L33.5124,15.6863 L34.0034,15.7713 C34.1134,15.7903 34.1714,15.8943 34.1484,16.0333 C34.1254,16.1643 34.0334,16.2563 33.9234,16.2373 L33.4324,16.1523 L33.3534,16.6133 C33.3374,16.7043 33.2114,16.7723 33.0734,16.7483 C32.9274,16.7233 32.8454,16.6193 32.8614,16.5283 L32.9404,16.0673 L32.4534,15.9833 C32.3574,15.9663 32.2794,15.8453 32.3014,15.7153 C32.3244,15.5753 32.4374,15.5013 32.5334,15.5173 L33.0204,15.6013 L33.1004,15.1363 C33.1184,15.0323 33.2274,14.9793 33.3734,15.0043 Z M10.4252,7.1012 C9.4102,7.2332 8.4862,7.7182 7.7992,8.4912 C7.0442,9.3422 6.6662,10.4352 6.7342,11.5712 C6.8102,12.8552 7.4562,13.9742 8.4072,14.7012 C8.6112,14.8572 8.8302,14.9942 9.0612,15.1122 C9.7132,15.4452 10.4562,15.6172 11.2372,15.5692 C12.3732,15.5012 13.4142,14.9962 14.1692,14.1452 C14.8272,13.4042 15.1992,12.4782 15.2392,11.5022 C14.9902,11.5002 14.7442,11.4772 14.5012,11.4382 C14.1892,11.3892 13.8832,11.3112 13.5872,11.2022 C13.0242,10.9952 12.4982,10.6842 12.0362,10.2732 C11.1082,9.4502 10.5432,8.3282 10.4252,7.1012 Z M43.0149,12.2376 C43.2599,12.2796 43.4349,12.4376 43.4039,12.6236 L43.2959,13.2496 C43.2769,13.3616 43.3519,13.4686 43.4639,13.4876 L44.1369,13.6036 C44.3339,13.6376 44.4359,13.8236 44.3929,14.0716 C44.3539,14.3036 44.1909,14.4676 43.9949,14.4336 L43.3329,14.3186 C43.2149,14.2986 43.1019,14.3776 43.0819,14.4966 L42.9769,15.1036 C42.9489,15.2666 42.7259,15.3876 42.4809,15.3456 C42.2179,15.2996 42.0739,15.1156 42.1009,14.9526 L42.1989,14.3856 C42.2229,14.2456 42.1289,14.1116 41.9879,14.0866 L41.3759,13.9806 C41.2039,13.9516 41.0629,13.7356 41.1029,13.5036 C41.1459,13.2556 41.3459,13.1226 41.5179,13.1516 L42.1539,13.2616 C42.2819,13.2836 42.4029,13.1986 42.4249,13.0706 L42.5279,12.4726 C42.5599,12.2866 42.7529,12.1926 43.0149,12.2376 Z M37.5956,10.2632 C37.8666,10.3112 38.0486,10.5712 37.9996,10.8432 C37.9506,11.1152 37.6906,11.2962 37.4196,11.2472 C37.1476,11.1982 36.9666,10.9382 37.0156,10.6662 C37.0646,10.3952 37.3236,10.2142 37.5956,10.2632 Z M45.3973,10.0478 C45.6693,10.0958 45.8503,10.3558 45.8013,10.6278 C45.7523,10.8998 45.4923,11.0808 45.2213,11.0318 C44.9503,10.9828 44.7683,10.7228 44.8173,10.4508 C44.8663,10.1798 45.1253,9.9988 45.3973,10.0478 Z M11.1312,7.0632 C11.2402,8.1012 11.7192,9.0472 12.5042,9.7452 C13.0392,10.2192 13.6722,10.5362 14.3502,10.6872 C14.6292,10.7502 14.9152,10.7882 15.2062,10.7922 C15.1802,10.5872 15.1372,10.3882 15.0842,10.1922 C14.8702,9.4022 14.4382,8.6892 13.8122,8.1332 C13.0622,7.4672 12.1202,7.0962 11.1312,7.0632 Z M15.2629566,2.45890554 L15.0252,2.4662 C13.9142,2.5322 12.8942,3.0272 12.1552,3.8602 C11.5122,4.5832 11.1492,5.4872 11.1082,6.4402 C12.2592,6.4682 13.3552,6.8942 14.2262,7.6672 C14.8902,8.2572 15.3662,9.0002 15.6272,9.8252 C15.7042,10.0642 15.7582,10.3112 15.7972,10.5632 C15.8072,10.6272 15.8212,10.6902 15.8292,10.7552 C16.8192,10.6232 17.7192,10.1492 18.3892,9.3942 C18.6692,9.0792 18.8962,8.7292 19.0672,8.3562 C19.2222,8.0172 19.3282,7.6572 19.3862,7.2872 C19.4332,6.9902 19.4522,6.6872 19.4332,6.3802 C19.3672,5.2692 18.8732,4.2492 18.0402,3.5102 C17.2072,2.7712 16.1382,2.4012 15.0252,2.4662 Z M42.5264,7.3157 C42.8224,7.3687 43.0214,7.6397 42.9714,7.9197 C42.9204,8.1997 42.6404,8.3837 42.3444,8.3307 C42.0484,8.2777 41.8494,8.0077 41.8994,7.7267 C41.9484,7.4477 42.2304,7.2627 42.5264,7.3157 Z M47.2211,5.3139 C47.3601,5.3379 47.4581,5.4269 47.4401,5.5309 L47.3601,5.9959 L47.8511,6.0809 C47.9611,6.0999 48.0191,6.2039 47.9961,6.3429 C47.9731,6.4739 47.8811,6.5659 47.7711,6.5469 L47.2801,6.4619 L47.2011,6.9229 C47.1851,7.0139 47.0601,7.0819 46.9211,7.0579 C46.7751,7.0329 46.6931,6.9289 46.7091,6.8379 L46.7891,6.3769 L46.3011,6.2929 C46.2051,6.2759 46.1271,6.1549 46.1491,6.0249 C46.1721,5.8849 46.2851,5.8109 46.3811,5.8269 L46.8681,5.9109 L46.9481,5.4459 C46.9661,5.3419 47.0751,5.2889 47.2211,5.3139 Z M41.1117,3.4394 C41.2497,3.4634 41.3487,3.5524 41.3297,3.6564 L41.2507,4.1224 L41.7417,4.2064 C41.8517,4.2254 41.9097,4.3304 41.8867,4.4694 C41.8637,4.5994 41.7717,4.6914 41.6617,4.6724 L41.1707,4.5874 L41.0907,5.0484 C41.0747,5.1394 40.9497,5.2084 40.8117,5.1844 C40.6657,5.1584 40.5837,5.0554 40.5997,4.9634 L40.6787,4.5024 L40.1917,4.4184 C40.0957,4.4024 40.0167,4.2814 40.0387,4.1504 C40.0627,4.0114 40.1757,3.9364 40.2717,3.9534 L40.7587,4.0374 L40.8387,3.5724 C40.8557,3.4674 40.9657,3.4144 41.1117,3.4394 Z M49.4942,0.1599 C49.6742,0.3309 49.7332,0.5599 49.6032,0.6969 L49.1662,1.1589 C49.0882,1.2409 49.0922,1.3719 49.1752,1.4499 L49.6712,1.9199 C49.8162,2.0559 49.7992,2.2679 49.6262,2.4509 C49.4642,2.6219 49.2392,2.6679 49.0942,2.5309 L48.6062,2.0699 C48.5192,1.9869 48.3812,1.9909 48.2982,2.0779 L47.8752,2.5269 C47.7622,2.6469 47.5092,2.6239 47.3292,2.4529 C47.1352,2.2699 47.1172,2.0359 47.2302,1.9159 L47.6242,1.4979 C47.7222,1.3939 47.7182,1.2299 47.6142,1.1319 L47.1632,0.7049 C47.0362,0.5849 47.0392,0.3279 47.2012,0.1559 C47.3742,-0.0271 47.6142,-0.0271 47.7412,0.0929 L48.2092,0.5369 C48.3032,0.6259 48.4522,0.6209 48.5412,0.5279 L48.9572,0.0859 C49.0872,-0.0511 49.3002,-0.0221 49.4942,0.1599 Z" id="Combined-Shape"></path>
                        </g>
                    </g>
                </g>
            </g>
        </g>
    </g>
</svg>
