<?xml version="1.0" encoding="UTF-8"?>
<svg width="50px" height="50px" viewBox="0 0 50 50" version="1.1" xmlns="http://www.w3.org/2000/svg" xmlns:xlink="http://www.w3.org/1999/xlink">
    <!-- Generator: sketchtool 63.1 (101010) - https://sketch.com -->
    <title>CA0420B9-CCC1-4797-8782-D5CF4590638F@1,5x</title>
    <desc>Created with sketchtool.</desc>
    <g id="Financeur_Cadhoc_prospect-/-UI" stroke="none" stroke-width="1" fill="none" fill-rule="evenodd">
        <g id="01_01_Commande-Prospect-Cadhoc" transform="translate(-420.000000, -551.000000)" fill="#4E5B59" fill-rule="nonzero">
            <g id="Group-19" transform="translate(403.000000, 326.000000)">
                <g id="Group-22">
                    <g id="Group-15" transform="translate(6.000000, 225.000000)">
                        <g id="V2-/-picto-/-moyen-/-Aucun-Copy-6" transform="translate(11.000000, 0.000000)">
                            <path d="M27.2703,2.0579 C27.9243,1.6159 28.7113,1.4549 29.4883,1.6059 C30.2633,1.7569 30.9323,2.2009 31.3733,2.8559 L31.3733,2.8559 L35.0823,8.3629 C35.4303,8.8799 35.5503,9.4209 35.4373,9.9709 C35.2463,10.9029 34.4433,11.5929 33.8023,12.0079 L33.8023,12.0079 L22.2883,19.7969 L41.6793,19.7969 C43.4053,19.7969 44.8093,21.2009 44.8093,22.9269 L44.8093,22.9269 L44.8093,46.8209 C44.8093,48.5459 43.4053,49.9509 41.6793,49.9509 L41.6793,49.9509 L13.4183,49.9509 C11.6933,49.9509 10.2883,48.5459 10.2883,46.8209 L10.2883,46.8209 L10.2883,27.9149 L7.8553,29.5619 C7.3593,29.8839 6.8003,30.0369 6.2483,30.0369 C5.2833,30.0369 4.3353,29.5659 3.7713,28.7009 L3.7713,28.7009 L0.4773,23.6579 C-0.4007,22.3149 -0.0327,20.4919 1.2973,19.5939 L1.2973,19.5939 L7.8663,15.1589 L7.68271846,14.9981717 C6.78471797,14.1720914 6.19005,13.0134 6.1113,11.7009 C6.0333,10.3999 6.4673,9.1459 7.3333,8.1699 C8.1333,7.2699 9.2143,6.7119 10.4013,6.5699 C10.4343,5.4299 10.8593,4.3469 11.6253,3.4839 C12.4913,2.5099 13.6823,1.9309 14.9833,1.8539 C16.2863,1.7769 17.5343,2.2099 18.5093,3.0749 C19.4833,3.9389 20.0623,5.1319 20.1393,6.4309 C20.1483,6.5779 20.1483,6.7239 20.1443,6.8689 L20.1443,6.8689 Z M44.1023,34.7389 L43.9723,34.8429 C43.7503,35.0169 43.4883,35.2189 43.1853,35.4459 C42.2763,36.1289 41.2693,36.8409 40.1953,37.5619 C36.8313,39.8189 33.2393,41.8809 29.5143,43.6929 C25.7793,45.4849 21.9293,47.0159 18.0713,48.2469 C16.8753,48.6269 15.7333,48.9609 14.6623,49.2429 L14.6623,49.2429 L41.6793,49.2429 C43.0153,49.2429 44.1023,48.1559 44.1023,46.8209 L44.1023,46.8209 L44.1023,34.7389 Z M41.6793,20.5039 L21.2423,20.5039 L10.9953,27.4369 L10.9953,46.8209 C10.9953,47.6599 11.4263,48.3999 12.0763,48.8349 C11.8343,47.9109 12.5683,46.6949 13.9973,44.8209 C14.3033,44.4209 14.6373,43.9979 14.9993,43.5549 C15.6783,42.7219 16.4163,41.8579 17.1643,41.0119 C17.4253,40.7159 17.6683,40.4439 17.8893,40.2009 L17.8893,40.2009 L18.1543,39.9099 C15.3963,33.5069 16.4043,27.0119 20.5013,25.0329 C24.5983,23.0519 30.3143,26.3029 33.6163,32.4429 L33.6163,32.4429 L34.0063,32.4159 C34.3333,32.3959 34.6983,32.3739 35.0923,32.3529 C36.2203,32.2939 37.3563,32.2519 38.4303,32.2379 C39.0023,32.2299 39.5423,32.2309 40.0443,32.2419 C42.0803,32.2809 43.4063,32.4229 44.1023,32.9509 L44.1023,32.9509 L44.1023,22.9269 C44.1023,21.5909 43.0153,20.5039 41.6793,20.5039 L41.6793,20.5039 Z M33.0413,33.0979 C30.2393,27.6929 25.5413,24.5379 21.8833,25.4019 C21.5313,25.4849 21.1873,25.6059 20.8563,25.7649 C17.0953,27.5819 16.2903,33.7759 19.0243,39.8679 L19.0243,39.8679 L19.1153,40.0719 L18.8293,40.4009 L18.4923,40.7469 C18.2753,40.9879 18.0333,41.2579 17.7743,41.5509 C17.0343,42.3889 16.3023,43.2449 15.6293,44.0699 C15.2743,44.5059 14.9443,44.9219 14.6453,45.3149 C13.6333,46.6409 12.6313,48.0779 12.8693,48.6889 C12.9023,48.7709 12.9883,48.8169 13.0753,48.7989 L13.0753,48.7989 L13.4053,48.7219 C13.6743,48.6589 13.9893,48.5799 14.3483,48.4859 C15.4343,48.2009 16.6033,47.8599 17.8253,47.4709 C21.6473,46.2519 25.4603,44.7349 29.1603,42.9599 C32.8483,41.1659 36.4083,39.1219 39.7413,36.8859 C40.8033,36.1729 41.7983,35.4699 42.6973,34.7949 C42.9933,34.5719 43.2513,34.3739 43.4683,34.2029 L43.4683,34.2029 L43.7343,33.9909 C43.8033,33.9339 43.8203,33.8399 43.7763,33.7639 C43.4463,33.1969 41.6963,33.0869 40.0283,33.0549 C39.5343,33.0459 39.0033,33.0449 38.4413,33.0529 C37.3773,33.0659 36.2533,33.1069 35.1353,33.1659 C34.7453,33.1869 34.3823,33.2079 34.0583,33.2289 L34.0583,33.2289 L33.6553,33.2569 L33.1273,33.2779 Z M26.3191,39.956 C26.4191,39.973 26.4911,40.038 26.4781,40.114 L26.4191,40.454 L26.7791,40.516 C26.8591,40.53 26.9011,40.606 26.8831,40.707 C26.8681,40.802 26.8001,40.869 26.7201,40.856 L26.3611,40.794 L26.3031,41.131 C26.2911,41.197 26.2001,41.247 26.0991,41.229 C25.9921,41.211 25.9331,41.135 25.9441,41.069 L26.0021,40.732 L25.6461,40.67 C25.5761,40.658 25.5191,40.57 25.5351,40.474 C25.5521,40.373 25.6341,40.318 25.7051,40.33 L26.0601,40.392 L26.1191,40.052 C26.1321,39.976 26.2111,39.937 26.3191,39.956 Z M22.4285,38.4931 C22.6085,38.5241 22.7355,38.6391 22.7125,38.7751 L22.6335,39.2331 C22.6195,39.3141 22.6745,39.3921 22.7565,39.4061 L23.2475,39.4911 C23.3915,39.5161 23.4665,39.6511 23.4355,39.8321 C23.4055,40.0021 23.2865,40.1211 23.1445,40.0961 L22.6605,40.0131 C22.5735,39.9981 22.4915,40.0561 22.4775,40.1421 L22.4005,40.5861 C22.3805,40.7051 22.2175,40.7931 22.0385,40.7621 C21.8475,40.7291 21.7405,40.5941 21.7615,40.4761 L21.8325,40.0621 C21.8505,39.9591 21.7805,39.8611 21.6785,39.8431 L21.2315,39.7661 C21.1055,39.7451 21.0035,39.5871 21.0325,39.4171 C21.0645,39.2361 21.2095,39.1391 21.3355,39.1611 L21.7995,39.2411 C21.8935,39.2571 21.9825,39.1941 21.9975,39.1011 L22.0725,38.6651 C22.0965,38.5281 22.2365,38.4601 22.4285,38.4931 Z M29.8994,38.0489 C30.3304,38.1259 30.6214,38.5209 30.5484,38.9299 C30.4754,39.3399 30.0664,39.6089 29.6334,39.5309 C29.2004,39.4529 28.9094,39.0589 28.9834,38.6499 C29.0564,38.2399 29.4664,37.9709 29.8994,38.0489 Z M32.6709,36.0079 C33.1019,36.0849 33.3929,36.4799 33.3199,36.8889 C33.2469,37.2989 32.8369,37.5679 32.4049,37.4899 C31.9719,37.4119 31.6809,37.0179 31.7549,36.6089 C31.8279,36.1989 32.2379,35.9299 32.6709,36.0079 Z M24.4326,35.3868 C24.8646,35.4638 25.1556,35.8588 25.0826,36.2678 C25.0096,36.6778 24.5996,36.9468 24.1666,36.8688 C23.7336,36.7918 23.4426,36.3968 23.5166,35.9878 C23.5896,35.5778 23.9996,35.3088 24.4326,35.3868 Z M29.3737,34.6385 C29.5057,34.7635 29.5487,34.9305 29.4537,35.0305 L29.1357,35.3675 C29.0777,35.4285 29.0807,35.5235 29.1417,35.5805 L29.5037,35.9235 C29.6087,36.0235 29.5977,36.1775 29.4707,36.3115 C29.3517,36.4365 29.1867,36.4695 29.0817,36.3705 L28.7247,36.0325 C28.6617,35.9725 28.5607,35.9755 28.5007,36.0395 L28.1917,36.3665 C28.1087,36.4545 27.9247,36.4375 27.7927,36.3125 C27.6507,36.1795 27.6377,36.0085 27.7207,35.9205 L28.0087,35.6155 C28.0807,35.5395 28.0767,35.4205 28.0017,35.3485 L27.6717,35.0365 C27.5787,34.9485 27.5807,34.7615 27.6987,34.6355 C27.8257,34.5025 28.0007,34.5025 28.0937,34.5895 L28.4357,34.9135 C28.5047,34.9785 28.6127,34.9755 28.6787,34.9065 L28.9817,34.5845 C29.0767,34.4845 29.2317,34.5055 29.3737,34.6385 Z M29.3523,2.3009 C28.7633,2.1859 28.1633,2.3069 27.6653,2.6439 L27.6653,2.6439 L20.0263,7.8019 C19.8473,8.5939 19.4733,9.3329 18.9183,9.9579 C18.1213,10.8559 17.0443,11.4119 15.8633,11.5549 C15.8303,12.6999 15.4053,13.7859 14.6353,14.6529 C13.7703,15.6279 12.5753,16.2079 11.2743,16.2849 C11.1763,16.2909 11.0783,16.2939 10.9813,16.2939 C10.0733,16.2939 9.2173,16.0379 8.4823,15.5969 L8.4823,15.5969 L1.6933,20.1799 C0.6813,20.8629 0.4023,22.2489 1.0693,23.2709 L1.0693,23.2709 L4.3633,28.3139 C5.0373,29.3469 6.4293,29.6429 7.4653,28.9719 L7.4653,28.9719 L10.2883,27.0609 L10.9953,26.5829 L19.9813,20.5039 L21.0273,19.7969 L33.4113,11.4179 C34.1623,10.9319 34.6343,10.3689 34.7443,9.8289 C34.8193,9.4669 34.7373,9.1169 34.4953,8.7579 L34.4953,8.7579 L30.7863,3.2509 C30.4513,2.7529 29.9423,2.4149 29.3523,2.3009 Z M38.6996,15.7558 C38.8376,15.7798 38.9356,15.8688 38.9176,15.9728 L38.8376,16.4378 L39.3286,16.5228 C39.4386,16.5418 39.4966,16.6458 39.4736,16.7848 C39.4506,16.9158 39.3586,17.0078 39.2496,16.9888 L38.7576,16.9038 L38.6786,17.3648 C38.6626,17.4558 38.5376,17.5238 38.3986,17.4998 C38.2526,17.4748 38.1706,17.3708 38.1876,17.2798 L38.2666,16.8188 L37.7786,16.7348 C37.6826,16.7178 37.6046,16.5978 37.6266,16.4668 C37.6496,16.3268 37.7626,16.2528 37.8586,16.2688 L38.3466,16.3528 L38.4266,15.8878 C38.4436,15.7838 38.5526,15.7308 38.6996,15.7558 Z M33.4886,15.0049 C33.6276,15.0279 33.7256,15.1169 33.7076,15.2209 L33.6276,15.6869 L34.1186,15.7709 C34.2286,15.7899 34.2866,15.8949 34.2636,16.0339 C34.2406,16.1639 34.1486,16.2559 34.0386,16.2369 L33.5476,16.1519 L33.4686,16.6129 C33.4526,16.7039 33.3276,16.7729 33.1886,16.7489 C33.0426,16.7229 32.9606,16.6199 32.9766,16.5289 L33.0566,16.0669 L32.5686,15.9829 C32.4726,15.9669 32.3946,15.8459 32.4166,15.7149 C32.4396,15.5759 32.5526,15.5009 32.6486,15.5179 L33.1356,15.6019 L33.2156,15.1369 C33.2336,15.0319 33.3426,14.9789 33.4886,15.0049 Z M10.4253,7.1939 C9.4093,7.3269 8.4873,7.8109 7.8003,8.5849 C7.0443,9.4349 6.6663,10.5289 6.7343,11.6639 C6.8103,12.9489 7.4553,14.0669 8.4073,14.7939 C8.6113,14.9509 8.8303,15.0879 9.0613,15.2049 C9.7133,15.5379 10.4563,15.7109 11.2373,15.6619 C12.3723,15.5949 13.4133,15.0889 14.1693,14.2389 C14.8263,13.4979 15.1993,12.5719 15.2393,11.5959 C14.9903,11.5949 14.7443,11.5699 14.5013,11.5319 C14.1893,11.4819 13.8833,11.4049 13.5873,11.2959 C13.0243,11.0889 12.4973,10.7779 12.0353,10.3669 C11.1083,9.5439 10.5433,8.4219 10.4253,7.1939 Z M43.1302,12.2377 C43.3752,12.2797 43.5502,12.4377 43.5192,12.6237 L43.4112,13.2497 C43.3922,13.3617 43.4672,13.4687 43.5792,13.4877 L44.2522,13.6037 C44.4492,13.6377 44.5512,13.8237 44.5092,14.0717 C44.4692,14.3037 44.3062,14.4677 44.1102,14.4337 L43.4482,14.3187 C43.3302,14.2987 43.2172,14.3777 43.1972,14.4967 L43.0922,15.1037 C43.0642,15.2667 42.8412,15.3877 42.5962,15.3457 C42.3332,15.2997 42.1892,15.1157 42.2162,14.9527 L42.3142,14.3857 C42.3382,14.2457 42.2442,14.1107 42.1032,14.0867 L41.4912,13.9807 C41.3192,13.9517 41.1782,13.7357 41.2182,13.5037 C41.2612,13.2557 41.4612,13.1227 41.6332,13.1517 L42.2692,13.2617 C42.3972,13.2837 42.5182,13.1977 42.5402,13.0707 L42.6432,12.4727 C42.6752,12.2867 42.8692,12.1917 43.1302,12.2377 Z M37.7108,10.2633 C37.9818,10.3113 38.1638,10.5713 38.1148,10.8433 C38.0658,11.1153 37.8058,11.2953 37.5348,11.2473 C37.2628,11.1983 37.0818,10.9383 37.1308,10.6663 C37.1798,10.3953 37.4388,10.2143 37.7108,10.2633 Z M45.5135,10.0479 C45.7845,10.0959 45.9655,10.3559 45.9165,10.6279 C45.8675,10.8999 45.6075,11.0799 45.3365,11.0319 C45.0655,10.9829 44.8835,10.7229 44.9325,10.4509 C44.9815,10.1799 45.2405,9.9989 45.5135,10.0479 Z M11.1313,7.1569 C11.2403,8.1939 11.7193,9.1409 12.5043,9.8379 C13.0383,10.3119 13.6723,10.6289 14.3503,10.7809 C14.6293,10.8439 14.9143,10.8809 15.2053,10.8859 C15.1803,10.6809 15.1373,10.4809 15.0843,10.2849 C14.8703,9.4959 14.4383,8.7829 13.8123,8.2269 C13.0623,7.5609 12.1193,7.1899 11.1313,7.1569 Z M15.2630562,2.55242077 L15.0253,2.5599 C13.9133,2.6259 12.8943,3.1209 12.1553,3.9529 C11.5123,4.6769 11.1503,5.5799 11.1083,6.5339 C12.2593,6.5619 13.3553,6.9869 14.2263,7.7609 C14.8903,8.3499 15.3663,9.0939 15.6273,9.9189 C15.7033,10.1579 15.7583,10.4049 15.7973,10.6569 C15.8073,10.7209 15.8213,10.7839 15.8283,10.8479 C16.8193,10.7169 17.7193,10.2429 18.3893,9.4879 C18.6693,9.1729 18.8963,8.8229 19.0673,8.4499 C19.2223,8.1099 19.3273,7.7509 19.3863,7.3809 C19.4333,7.0839 19.4513,6.7809 19.4333,6.4729 C19.3673,5.3619 18.8723,4.3429 18.0393,3.6039 C17.2073,2.8649 16.1383,2.4939 15.0253,2.5599 Z M42.6416,7.3158 C42.9376,7.3688 43.1366,7.6388 43.0866,7.9188 C43.0356,8.1998 42.7556,8.3838 42.4596,8.3308 C42.1636,8.2778 41.9646,8.0078 42.0146,7.7268 C42.0636,7.4468 42.3456,7.2628 42.6416,7.3158 Z M47.3363,5.3145 C47.4753,5.3375 47.5733,5.4265 47.5553,5.5305 L47.4753,5.9965 L47.9663,6.0815 C48.0763,6.0995 48.1343,6.2045 48.1113,6.3435 C48.0883,6.4735 47.9963,6.5655 47.8873,6.5465 L47.3953,6.4615 L47.3163,6.9225 C47.3003,7.0145 47.1753,7.0825 47.0363,7.0585 C46.8903,7.0325 46.8083,6.9295 46.8243,6.8385 L46.9043,6.3765 L46.4163,6.2925 C46.3203,6.2765 46.2423,6.1555 46.2643,6.0245 C46.2873,5.8855 46.4003,5.8105 46.4963,5.8275 L46.9843,5.9115 L47.0643,5.4465 C47.0813,5.3415 47.1903,5.2885 47.3363,5.3145 Z M41.2269,3.4394 C41.3649,3.4634 41.4639,3.5524 41.4459,3.6564 L41.3659,4.1214 L41.8569,4.2064 C41.9669,4.2254 42.0249,4.3294 42.0019,4.4684 C41.9789,4.5994 41.8869,4.6914 41.7769,4.6724 L41.2859,4.5874 L41.2069,5.0484 C41.1899,5.1394 41.0649,5.2074 40.9269,5.1844 C40.7809,5.1584 40.6989,5.0544 40.7149,4.9634 L40.7939,4.5024 L40.3069,4.4184 C40.2109,4.4024 40.1329,4.2814 40.1539,4.1504 C40.1779,4.0104 40.2909,3.9364 40.3869,3.9524 L40.8739,4.0374 L40.9539,3.5714 C40.9719,3.4674 41.0809,3.4144 41.2269,3.4394 Z M49.6094,0.16 C49.7894,0.331 49.8484,0.559 49.7184,0.697 L49.2814,1.159 C49.2044,1.241 49.2074,1.372 49.2904,1.45 L49.7864,1.919 C49.9314,2.056 49.9144,2.268 49.7414,2.45 C49.5794,2.622 49.3544,2.668 49.2094,2.531 L48.7214,2.07 C48.6344,1.987 48.4964,1.991 48.4134,2.078 L47.9904,2.527 C47.8774,2.647 47.6244,2.624 47.4444,2.453 C47.2504,2.27 47.2324,2.036 47.3454,1.916 L47.7394,1.498 C47.8384,1.394 47.8334,1.23 47.7294,1.132 L47.2784,0.705 C47.1514,0.585 47.1544,0.328 47.3164,0.156 C47.4894,-0.027 47.7294,-0.027 47.8564,0.093 L48.3244,0.537 C48.4184,0.626 48.5684,0.621 48.6564,0.527 L49.0724,0.086 C49.2024,-0.051 49.4154,-0.023 49.6094,0.16 Z" id="Combined-Shape"></path>
                        </g>
                    </g>
                </g>
            </g>
        </g>
    </g>
</svg>
