<?xml version="1.0" encoding="UTF-8"?>
<svg width="50px" height="50px" viewBox="0 0 50 50" version="1.1" xmlns="http://www.w3.org/2000/svg" xmlns:xlink="http://www.w3.org/1999/xlink">
    <!-- Generator: sketchtool 63.1 (101010) - https://sketch.com -->
    <title>719E2D7C-3920-4CBD-A600-40FAC9804ED0@1,5x</title>
    <desc>Created with sketchtool.</desc>
    <g id="Financeur_Cadhoc_prospect-/-UI" stroke="none" stroke-width="1" fill="none" fill-rule="evenodd">
        <g id="01_01_Commande-Prospect-Cadhoc" transform="translate(-420.000000, -439.000000)" fill="#4E5B59" fill-rule="nonzero">
            <g id="Group-19" transform="translate(403.000000, 326.000000)">
                <g id="Group-22">
                    <g id="Group-10" transform="translate(14.000000, 112.000000)">
                        <g id="V2-/-picto-/-moyen-/-Challenge-Copy-3" transform="translate(3.000000, 1.000000)">
                            <path d="M27.2702,1.9643 C27.9242,1.5223 28.7112,1.3613 29.4882,1.5123 C30.2632,1.6643 30.9322,2.1073 31.3732,2.7623 L31.3732,2.7623 L35.0822,8.2693 C35.4302,8.7863 35.5502,9.3273 35.4372,9.8763 C35.2472,10.8093 34.4432,11.4993 33.8022,11.9143 L33.8022,11.9143 L22.2892,19.7043 L41.6792,19.7043 C43.4052,19.7043 44.8092,21.1073 44.8092,22.8333 L44.8092,22.8333 L44.8092,46.7273 C44.8092,48.4533 43.4052,49.8573 41.6792,49.8573 L41.6792,49.8573 L13.4182,49.8573 C11.6932,49.8573 10.2892,48.4533 10.2892,46.7273 L10.2892,46.7273 L10.2892,27.8223 L7.8552,29.4683 C7.3582,29.7903 6.8002,29.9433 6.2482,29.9433 C5.2832,29.9433 4.3352,29.4723 3.7712,28.6073 L3.7712,28.6073 L0.4772,23.5643 C-0.4008,22.2213 -0.0328,20.3983 1.2972,19.5003 L1.2972,19.5003 L7.8662,15.0653 L7.68261846,14.904572 C6.78461797,14.0784953 6.18995,12.9198625 6.1112,11.6083 C6.0342,10.3063 6.4672,9.0523 7.3332,8.0773 C8.1332,7.1753 9.2142,6.6183 10.4002,6.4763 C10.4342,5.3363 10.8592,4.2533 11.6252,3.3903 C12.4912,2.4163 13.6822,1.8373 14.9832,1.7603 C16.2872,1.6833 17.5352,2.1173 18.5092,2.9813 C19.4832,3.8453 20.0622,5.0383 20.1392,6.3373 C20.1482,6.4853 20.1482,6.6303 20.1442,6.7753 L20.1442,6.7753 Z M41.6792,20.4113 L21.2432,20.4113 L10.9962,27.3433 L10.9962,46.7273 C10.9962,48.0623 12.0822,49.1493 13.4182,49.1493 L13.4182,49.1493 L41.6792,49.1493 C43.0152,49.1493 44.1022,48.0623 44.1022,46.7273 L44.1022,46.7273 L44.1022,22.8333 C44.1022,21.4983 43.0152,20.4113 41.6792,20.4113 L41.6792,20.4113 Z M29.331,22.6916 C30.452,22.3306 31.652,22.9576 32.007,24.0756 C32.044,24.1896 32.064,24.3036 32.081,24.4186 C32.343,24.4616 32.602,24.5336 32.844,24.6596 C33.448,24.9726 33.894,25.5016 34.099,26.1496 C34.305,26.7966 34.248,27.4866 33.935,28.0896 C33.623,28.6936 33.093,29.1396 32.446,29.3446 C32.234,29.4126 32.019,29.4446 31.807,29.4546 C32.151,29.8056 32.535,30.1536 32.954,30.5146 C34.333,31.7016 35.888,33.0426 36.624,35.4036 C38.322,35.4396 39.81,36.6056 40.234,38.2756 L40.234,38.2756 L40.69,40.0696 C41.207,42.1056 39.969,44.1836 37.933,44.6996 L37.933,44.6996 L22.436,48.6326 C22.124,48.7116 21.809,48.7496 21.501,48.7496 C19.799,48.7496 18.243,47.5996 17.805,45.8756 L17.805,45.8756 L17.35,44.0826 C16.916,42.3706 17.698,40.6216 19.223,39.7966 C18.294,35.7546 18.75,32.2426 20.58,29.3526 C22.676,26.0386 26.083,24.3856 28.148,23.6456 C28.406,23.2076 28.811,22.8566 29.331,22.6916 Z M27.855,24.6106 C25.882,25.3966 23.05,26.9446 21.256,29.7796 C19.5,32.5546 19.102,35.9656 20.075,39.9206 L20.075,39.9206 L20.155,40.2486 L19.845,40.3836 C18.506,40.9636 17.766,42.4696 18.126,43.8856 L18.126,43.8856 L18.581,45.6786 C18.989,47.2876 20.63,48.2656 22.239,47.8576 L22.239,47.8576 L37.736,43.9246 C39.345,43.5166 40.323,41.8746 39.915,40.2666 L39.915,40.2666 L39.459,38.4726 C39.103,37.0706 37.819,36.1246 36.351,36.2086 L36.351,36.2086 L36.025,36.2296 L35.94,35.9136 C35.311,33.6006 33.782,32.2826 32.432,31.1196 C31.863,30.6296 31.326,30.1666 30.888,29.6586 C30.758,29.5086 30.655,29.3586 30.571,29.2076 C29.964,28.9136 29.471,28.3846 29.251,27.6916 C29.143,27.3526 29.111,27.0036 29.146,26.6596 C28.597,26.4246 28.141,25.9806 27.946,25.3676 C27.866,25.1156 27.842,24.8606 27.855,24.6106 Z M37.8978,36.9799 C38.3708,37.2609 38.7078,37.7079 38.8448,38.2399 L39.5348,40.9259 C39.8168,42.0249 39.1528,43.1489 38.0538,43.4309 L21.9278,47.5799 C21.7488,47.6259 21.5648,47.6479 21.3848,47.6449 C21.0298,47.6409 20.6828,47.5439 20.3678,47.3589 C19.8948,47.0789 19.5578,46.6319 19.4218,46.0989 L18.7308,43.4149 C18.5948,42.8829 18.6728,42.3279 18.9518,41.8549 C19.2318,41.3819 19.6798,41.0459 20.2128,40.9089 L36.3388,36.7599 C36.8708,36.6219 37.4248,36.7009 37.8978,36.9799 Z M36.8698,37.4938465 C36.7598,37.4929 36.6478,37.5059 36.5368,37.5339 L20.4108,41.6829 C20.0858,41.7659 19.8108,41.9729 19.6408,42.2619 C19.4698,42.5519 19.4218,42.8899 19.5048,43.2159 L20.1958,45.8999 C20.2798,46.2249 20.4858,46.4989 20.7748,46.6699 C21.0628,46.8419 21.4008,46.8889 21.7288,46.8059 L37.8548,42.6569 C38.5258,42.4849 38.9328,41.7969 38.7618,41.1249 L38.0698,38.4389 C37.9858,38.1139 37.7798,37.8409 37.4908,37.6699 C37.2998,37.5559 37.0868,37.4969 36.8698,37.4938465 Z M29.3522,2.2063 C28.7632,2.0923 28.1642,2.2133 27.6652,2.5503 L27.6652,2.5503 L20.0262,7.7083 C19.8472,8.5003 19.4732,9.2403 18.9182,9.8643 C18.1222,10.7623 17.0442,11.3193 15.8632,11.4613 C15.8312,12.6063 15.4052,13.6933 14.6352,14.5593 C13.7702,15.5353 12.5762,16.1143 11.2742,16.1913 C11.1762,16.1973 11.0792,16.2003 10.9812,16.2003 C10.0732,16.2003 9.2172,15.9443 8.4822,15.5023 L8.4822,15.5023 L1.6932,20.0863 C0.6812,20.7693 0.4022,22.1563 1.0692,23.1773 L1.0692,23.1773 L4.3632,28.2203 C5.0382,29.2523 6.4292,29.5493 7.4642,28.8783 L7.4642,28.8783 L10.2892,26.9673 L10.9962,26.4903 L19.9812,20.4113 L21.0262,19.7043 L33.4122,11.3243 C34.1632,10.8383 34.6342,10.2753 34.7452,9.7353 C34.8192,9.3733 34.7372,9.0233 34.4962,8.6643 L34.4962,8.6643 L30.7872,3.1583 C30.4522,2.6593 29.9422,2.3223 29.3522,2.2063 Z M32.043,25.2186 C32.003,25.3836 31.95,25.5466 31.87,25.7006 C31.608,26.2066 31.166,26.5796 30.623,26.7526 C30.409,26.8206 30.192,26.8536 29.979,26.8536 C29.965,26.8536 29.952,26.8466 29.937,26.8466 C29.928,27.0476 29.95,27.2506 30.012,27.4486 C30.09,27.6936 30.219,27.9056 30.382,28.0846 C30.599,28.3256 30.877,28.5036 31.186,28.5936 C31.507,28.6886 31.86,28.6926 32.204,28.5826 C32.648,28.4416 33.01,28.1356 33.224,27.7226 C33.438,27.3086 33.478,26.8356 33.338,26.3916 C33.196,25.9466 32.89,25.5846 32.477,25.3706 C32.338,25.2996 32.192,25.2516 32.043,25.2186 Z M31.182,25.2516 L31.146,25.2576 C30.743,25.3866 30.414,25.6536 30.195,26.0106 C30.257,26.0006 30.319,26.0106 30.381,25.9906 C30.719,25.8826 30.996,25.6496 31.159,25.3336 C31.173,25.3076 31.172,25.2786 31.182,25.2516 L31.182,25.2516 Z M31.246,24.3186 C31.022,23.6186 30.271,23.2326 29.573,23.4526 C29.157,23.5856 28.856,23.9056 28.723,24.2896 C28.632,24.5516 28.618,24.8426 28.708,25.1256 C28.818,25.4716 29.058,25.7376 29.357,25.8956 C29.379,25.8476 29.39,25.7976 29.415,25.7506 C29.727,25.1476 30.256,24.7006 30.904,24.4956 C31.02,24.4586 31.139,24.4406 31.257,24.4196 C31.25,24.3866 31.257,24.3516 31.246,24.3186 Z M38.5834,15.7555 C38.7224,15.7805 38.8204,15.8685 38.8024,15.9725 L38.7224,16.4385 L39.2134,16.5235 C39.3234,16.5415 39.3814,16.6465 39.3584,16.7855 C39.3354,16.9155 39.2434,17.0075 39.1334,16.9895 L38.6424,16.9045 L38.5634,17.3655 C38.5474,17.4555 38.4224,17.5245 38.2834,17.5005 C38.1374,17.4755 38.0554,17.3715 38.0714,17.2805 L38.1514,16.8195 L37.6634,16.7355 C37.5674,16.7185 37.4894,16.5975 37.5114,16.4665 C37.5344,16.3265 37.6474,16.2525 37.7434,16.2695 L38.2314,16.3535 L38.3104,15.8875 C38.3284,15.7835 38.4374,15.7305 38.5834,15.7555 Z M33.3734,15.0045 C33.5114,15.0285 33.6104,15.1175 33.5924,15.2215 L33.5124,15.6865 L34.0034,15.7715 C34.1134,15.7905 34.1714,15.8945 34.1484,16.0335 C34.1254,16.1635 34.0334,16.2555 33.9234,16.2375 L33.4324,16.1525 L33.3534,16.6135 C33.3374,16.7045 33.2114,16.7725 33.0734,16.7485 C32.9274,16.7235 32.8454,16.6195 32.8614,16.5285 L32.9404,16.0675 L32.4534,15.9835 C32.3574,15.9665 32.2794,15.8455 32.3014,15.7145 C32.3244,15.5755 32.4374,15.5005 32.5334,15.5175 L33.0204,15.6015 L33.1004,15.1365 C33.1184,15.0325 33.2274,14.9795 33.3734,15.0045 Z M10.4252,7.1003 C9.4102,7.2333 8.4862,7.7173 7.7992,8.4913 C7.0442,9.3413 6.6662,10.4353 6.7342,11.5713 C6.8102,12.8553 7.4562,13.9733 8.4072,14.7013 C8.6112,14.8573 8.8302,14.9943 9.0612,15.1123 C9.7132,15.4453 10.4562,15.6173 11.2372,15.5693 C12.3732,15.5013 13.4142,14.9963 14.1692,14.1453 C14.8272,13.4043 15.1992,12.4783 15.2392,11.5013 C14.9902,11.5003 14.7442,11.4763 14.5012,11.4383 C14.1892,11.3883 13.8832,11.3113 13.5872,11.2023 C13.0242,10.9953 12.4982,10.6843 12.0362,10.2733 C11.1082,9.4503 10.5432,8.3283 10.4252,7.1003 Z M43.0149,12.2368 C43.2599,12.2798 43.4349,12.4368 43.4039,12.6238 L43.2959,13.2498 C43.2769,13.3618 43.3519,13.4688 43.4639,13.4878 L44.1369,13.6038 C44.3339,13.6388 44.4359,13.8228 44.3929,14.0708 C44.3539,14.3048 44.1909,14.4678 43.9949,14.4338 L43.3329,14.3188 C43.2149,14.2988 43.1019,14.3778 43.0819,14.4968 L42.9769,15.1028 C42.9489,15.2668 42.7259,15.3878 42.4809,15.3458 C42.2179,15.2998 42.0739,15.1148 42.1009,14.9528 L42.1989,14.3868 C42.2229,14.2448 42.1289,14.1108 41.9879,14.0868 L41.3759,13.9808 C41.2039,13.9518 41.0629,13.7358 41.1029,13.5038 C41.1459,13.2558 41.3459,13.1218 41.5179,13.1518 L42.1539,13.2618 C42.2819,13.2838 42.4029,13.1978 42.4249,13.0698 L42.5279,12.4728 C42.5599,12.2858 42.7529,12.1918 43.0149,12.2368 Z M37.5956,10.2629 C37.8666,10.3109 38.0486,10.5709 37.9996,10.8439 C37.9506,11.1149 37.6906,11.2959 37.4196,11.2469 C37.1476,11.1979 36.9666,10.9379 37.0156,10.6669 C37.0646,10.3949 37.3236,10.2139 37.5956,10.2629 Z M45.3973,10.048 C45.6693,10.096 45.8503,10.356 45.8013,10.628 C45.7523,10.899 45.4923,11.081 45.2213,11.032 C44.9503,10.983 44.7683,10.723 44.8173,10.452 C44.8663,10.179 45.1253,9.999 45.3973,10.048 Z M11.1312,7.0633 C11.2402,8.1003 11.7192,9.0473 12.5042,9.7453 C13.0392,10.2183 13.6722,10.5363 14.3502,10.6873 C14.6292,10.7493 14.9152,10.7883 15.2062,10.7913 C15.1802,10.5873 15.1372,10.3873 15.0842,10.1923 C14.8702,9.4023 14.4382,8.6893 13.8122,8.1333 C13.0622,7.4673 12.1202,7.0963 11.1312,7.0633 Z M15.2629566,2.45900554 L15.0252,2.4663 C13.9142,2.5323 12.8942,3.0273 12.1552,3.8603 C11.5122,4.5833 11.1492,5.4873 11.1082,6.4403 C12.2592,6.4683 13.3552,6.8933 14.2262,7.6663 C14.8902,8.2563 15.3662,8.9993 15.6272,9.8253 C15.7042,10.0643 15.7582,10.3113 15.7972,10.5633 C15.8072,10.6273 15.8212,10.6903 15.8292,10.7543 C16.8192,10.6233 17.7192,10.1493 18.3892,9.3943 C18.6692,9.0793 18.8962,8.7293 19.0672,8.3563 C19.2222,8.0163 19.3282,7.6573 19.3862,7.2873 C19.4332,6.9903 19.4522,6.6873 19.4332,6.3793 C19.3672,5.2683 18.8732,4.2493 18.0402,3.5103 C17.2072,2.7713 16.1382,2.4013 15.0252,2.4663 Z M42.5264,7.3159 C42.8224,7.3689 43.0214,7.6399 42.9714,7.9199 C42.9204,8.1999 42.6404,8.3839 42.3444,8.3309 C42.0484,8.2779 41.8494,8.0079 41.8994,7.7269 C41.9484,7.4469 42.2304,7.2629 42.5264,7.3159 Z M47.2211,5.3141 C47.3601,5.3381 47.4581,5.4271 47.4401,5.5311 L47.3601,5.9961 L47.8511,6.0811 C47.9611,6.1001 48.0191,6.2041 47.9961,6.3431 C47.9731,6.4731 47.8811,6.5651 47.7711,6.5471 L47.2801,6.4621 L47.2011,6.9231 C47.1851,7.0141 47.0601,7.0821 46.9211,7.0581 C46.7751,7.0331 46.6931,6.9291 46.7091,6.8381 L46.7891,6.3771 L46.3011,6.2931 C46.2051,6.2761 46.1271,6.1551 46.1491,6.0241 C46.1721,5.8851 46.2851,5.8101 46.3811,5.8271 L46.8681,5.9111 L46.9481,5.4461 C46.9661,5.3421 47.0751,5.2891 47.2211,5.3141 Z M41.1117,3.4401 C41.2497,3.4641 41.3487,3.5521 41.3297,3.6561 L41.2507,4.1221 L41.7417,4.2071 C41.8517,4.2251 41.9097,4.3301 41.8867,4.4691 C41.8637,4.5991 41.7717,4.6911 41.6617,4.6731 L41.1707,4.5881 L41.0907,5.0491 C41.0747,5.1401 40.9497,5.2081 40.8117,5.1841 C40.6657,5.1591 40.5837,5.0551 40.5997,4.9641 L40.6787,4.5031 L40.1917,4.4191 C40.0957,4.4021 40.0167,4.2811 40.0387,4.1501 C40.0627,4.0111 40.1757,3.9361 40.2717,3.9531 L40.7587,4.0371 L40.8387,3.5721 C40.8557,3.4681 40.9657,3.4151 41.1117,3.4401 Z M49.4942,0.1601 C49.6742,0.3311 49.7332,0.5591 49.6032,0.6971 L49.1662,1.1591 C49.0882,1.2421 49.0922,1.3721 49.1752,1.4501 L49.6712,1.9201 C49.8162,2.0561 49.7992,2.2671 49.6262,2.4511 C49.4642,2.6221 49.2392,2.6681 49.0942,2.5311 L48.6062,2.0691 C48.5192,1.9871 48.3812,1.9911 48.2982,2.0781 L47.8752,2.5261 C47.7622,2.6461 47.5092,2.6241 47.3292,2.4531 C47.1352,2.2701 47.1172,2.0361 47.2302,1.9161 L47.6242,1.4981 C47.7222,1.3931 47.7182,1.2301 47.6142,1.1321 L47.1632,0.7051 C47.0362,0.5851 47.0392,0.3281 47.2012,0.1561 C47.3742,-0.0269 47.6142,-0.0269 47.7412,0.0931 L48.2092,0.5371 C48.3032,0.6261 48.4522,0.6221 48.5412,0.5271 L48.9572,0.0861 C49.0872,-0.0509 49.3002,-0.0229 49.4942,0.1601 Z" id="Combined-Shape"></path>
                        </g>
                    </g>
                </g>
            </g>
        </g>
    </g>
</svg>
