<?xml version="1.0" encoding="UTF-8"?>
<svg width="50px" height="50px" viewBox="0 0 50 50" version="1.1" xmlns="http://www.w3.org/2000/svg" xmlns:xlink="http://www.w3.org/1999/xlink">
    <!-- Generator: sketchtool 63.1 (101010) - https://sketch.com -->
    <title>80378C62-ECA0-48E7-8C85-C96335444194@1,5x</title>
    <desc>Created with sketchtool.</desc>
    <g id="Financeur_Cadhoc_prospect-/-UI" stroke="none" stroke-width="1" fill="none" fill-rule="evenodd">
        <g id="01_01_Commande-Prospect-Cadhoc" transform="translate(-770.000000, -551.000000)" fill="#4E5B59" fill-rule="nonzero">
            <g id="Group-19" transform="translate(403.000000, 326.000000)">
                <g id="Group-22">
                    <g id="Group-17" transform="translate(357.000000, 225.000000)">
                        <g id="V2-/-picto-/-moyen-/-Challenge-Copy-6" transform="translate(10.000000, 0.000000)">
                            <path d="M27.2702,2.0357 C27.9242,1.5937 28.7112,1.4327 29.4882,1.5847 C30.2632,1.7357 30.9322,2.1787 31.3732,2.8337 L31.3732,2.8337 L35.0822,8.3407 C35.4302,8.8577 35.5502,9.3987 35.4372,9.9487 C35.2472,10.8817 34.4432,11.5707 33.8022,11.9857 L33.8022,11.9857 L22.2892,19.7757 L41.6792,19.7757 C43.4052,19.7757 44.8092,21.1787 44.8092,22.9047 L44.8092,22.9047 L44.8092,46.7987 C44.8092,48.5247 43.4052,49.9287 41.6792,49.9287 L41.6792,49.9287 L13.4182,49.9287 C11.6932,49.9287 10.2892,48.5247 10.2892,46.7987 L10.2892,46.7987 L10.2892,27.8937 L7.8552,29.5397 C7.3582,29.8617 6.8002,30.0147 6.2482,30.0147 C5.2832,30.0147 4.3352,29.5437 3.7712,28.6787 L3.7712,28.6787 L0.4772,23.6357 C-0.4008,22.2927 -0.0328,20.4697 1.2972,19.5717 L1.2972,19.5717 L7.8662,15.1367 L7.68261846,14.975972 C6.78461797,14.1498953 6.18995,12.9912625 6.1112,11.6797 C6.0342,10.3777 6.4672,9.1237 7.3332,8.1487 C8.1332,7.2477 9.2142,6.6897 10.4002,6.5487 C10.4342,5.4077 10.8592,4.3257 11.6252,3.4627 C12.4912,2.4877 13.6822,1.9087 14.9832,1.8317 C16.2872,1.7547 17.5352,2.1887 18.5092,3.0527 C19.4832,3.9177 20.0622,5.1097 20.1392,6.4097 C20.1482,6.5567 20.1482,6.7017 20.1442,6.8467 L20.1442,6.8467 Z M41.6792,20.4827 L21.2432,20.4827 L10.9962,27.4147 L10.9962,46.7987 C10.9962,48.1337 12.0822,49.2207 13.4182,49.2207 L13.4182,49.2207 L41.6792,49.2207 C43.0152,49.2207 44.1022,48.1337 44.1022,46.7987 L44.1022,46.7987 L44.1022,22.9047 C44.1022,21.5697 43.0152,20.4827 41.6792,20.4827 L41.6792,20.4827 Z M35.8898,28.3482 C37.6078,28.3482 39.2228,29.0172 40.4378,30.2322 C41.6528,31.4462 42.3218,33.0622 42.3218,34.7802 C42.3218,36.4982 41.6528,38.1132 40.4378,39.3282 C39.2228,40.5432 37.6078,41.2132 35.8898,41.2132 C34.1718,41.2132 32.5558,40.5432 31.3418,39.3282 L31.3418,39.3282 L27.4048,35.3912 L23.4688,39.3282 C22.2548,40.5432 20.6388,41.2132 18.9208,41.2132 C17.2028,41.2132 15.5868,40.5432 14.3728,39.3282 C13.1578,38.1132 12.4878,36.4982 12.4878,34.7802 C12.4878,33.0622 13.1578,31.4462 14.3728,30.2322 C15.5868,29.0172 17.2028,28.3482 18.9208,28.3482 C20.6388,28.3482 22.2548,29.0172 23.4688,30.2322 L23.4688,30.2322 L27.4048,34.1692 L31.3418,30.2322 C32.5558,29.0172 34.1718,28.3482 35.8898,28.3482 Z M35.8898,29.2132 C34.4038,29.2132 33.0058,29.7922 31.9528,30.8432 L31.9528,30.8432 L28.0168,34.7802 L31.9528,38.7172 C33.0058,39.7682 34.4038,40.3472 35.8898,40.3472 C37.3758,40.3472 38.7738,39.7682 39.8268,38.7172 C40.8778,37.6652 41.4568,36.2662 41.4568,34.7802 C41.4568,33.2942 40.8778,31.8952 39.8268,30.8432 C38.7738,29.7922 37.3758,29.2132 35.8898,29.2132 Z M18.9208,29.2132 C17.4348,29.2132 16.0358,29.7922 14.9828,30.8432 C13.9308,31.8952 13.3518,33.2932 13.3518,34.7802 C13.3518,36.2672 13.9308,37.6652 14.9828,38.7172 C16.0358,39.7682 17.4348,40.3472 18.9208,40.3472 C20.4078,40.3472 21.8058,39.7682 22.8558,38.7172 L22.8558,38.7172 L26.7938,34.7802 L22.8558,30.8432 C21.8058,29.7922 20.4078,29.2132 18.9208,29.2132 Z M29.3522,2.2787 C28.7632,2.1637 28.1642,2.2857 27.6652,2.6217 L27.6652,2.6217 L20.0262,7.7797 C19.8472,8.5717 19.4732,9.3117 18.9182,9.9357 C18.1222,10.8337 17.0442,11.3907 15.8632,11.5337 C15.8312,12.6777 15.4052,13.7647 14.6352,14.6307 C13.7702,15.6057 12.5762,16.1857 11.2742,16.2627 C11.1762,16.2687 11.0792,16.2717 10.9812,16.2717 C10.0732,16.2717 9.2172,16.0157 8.4822,15.5737 L8.4822,15.5737 L1.6932,20.1577 C0.6812,20.8407 0.4022,22.2277 1.0692,23.2497 L1.0692,23.2497 L4.3632,28.2927 C5.0382,29.3247 6.4292,29.6207 7.4642,28.9497 L7.4642,28.9497 L10.2892,27.0397 L10.9962,26.5617 L19.9812,20.4827 L21.0262,19.7757 L33.4122,11.3957 C34.1632,10.9097 34.6342,10.3467 34.7452,9.8067 C34.8192,9.4447 34.7372,9.0947 34.4962,8.7357 L34.4962,8.7357 L30.7872,3.2297 C30.4522,2.7307 29.9422,2.3937 29.3522,2.2787 Z M38.6996,15.756 C38.8376,15.78 38.9356,15.869 38.9176,15.973 L38.8376,16.438 L39.3286,16.523 C39.4386,16.542 39.4966,16.646 39.4736,16.785 C39.4506,16.916 39.3586,17.008 39.2496,16.989 L38.7576,16.904 L38.6786,17.365 C38.6626,17.456 38.5376,17.524 38.3986,17.5 C38.2526,17.475 38.1706,17.371 38.1876,17.28 L38.2666,16.819 L37.7786,16.735 C37.6826,16.718 37.6046,16.597 37.6266,16.467 C37.6496,16.327 37.7626,16.253 37.8586,16.269 L38.3466,16.353 L38.4266,15.888 C38.4436,15.784 38.5526,15.731 38.6996,15.756 Z M33.4887,15.0041 C33.6277,15.0281 33.7257,15.1171 33.7077,15.2211 L33.6277,15.6861 L34.1187,15.7711 C34.2287,15.7901 34.2867,15.8941 34.2637,16.0331 C34.2407,16.1641 34.1487,16.2561 34.0387,16.2371 L33.5477,16.1521 L33.4687,16.6131 C33.4527,16.7041 33.3277,16.7721 33.1887,16.7481 C33.0427,16.7231 32.9607,16.6191 32.9767,16.5281 L33.0567,16.0671 L32.5687,15.9831 C32.4727,15.9661 32.3947,15.8461 32.4167,15.7151 C32.4397,15.5751 32.5527,15.5011 32.6487,15.5171 L33.1357,15.6011 L33.2157,15.1361 C33.2337,15.0321 33.3427,14.9791 33.4887,15.0041 Z M10.4252,7.1727 C9.4102,7.3047 8.4862,7.7897 7.7992,8.5627 C7.0442,9.4137 6.6662,10.5067 6.7342,11.6427 C6.8102,12.9267 7.4562,14.0457 8.4072,14.7727 C8.6112,14.9287 8.8302,15.0657 9.0612,15.1837 C9.7132,15.5167 10.4562,15.6887 11.2372,15.6407 C12.3732,15.5727 13.4142,15.0677 14.1692,14.2167 C14.8272,13.4757 15.1992,12.5497 15.2392,11.5737 C14.9902,11.5717 14.7442,11.5487 14.5012,11.5097 C14.1892,11.4607 13.8832,11.3827 13.5872,11.2737 C13.0242,11.0667 12.4982,10.7557 12.0362,10.3447 C11.1082,9.5217 10.5432,8.3997 10.4252,7.1727 Z M43.1302,12.2374 C43.3752,12.2794 43.5502,12.4374 43.5192,12.6234 L43.4112,13.2494 C43.3922,13.3624 43.4672,13.4684 43.5792,13.4874 L44.2522,13.6034 C44.4492,13.6384 44.5512,13.8234 44.5092,14.0714 C44.4692,14.3044 44.3062,14.4674 44.1102,14.4334 L43.4482,14.3194 C43.3302,14.2984 43.2172,14.3784 43.1972,14.4964 L43.0922,15.1034 C43.0642,15.2664 42.8412,15.3874 42.5962,15.3454 C42.3332,15.3004 42.1892,15.1154 42.2162,14.9524 L42.3142,14.3864 C42.3382,14.2454 42.2442,14.1114 42.1032,14.0864 L41.4912,13.9814 C41.3192,13.9514 41.1782,13.7354 41.2182,13.5034 C41.2612,13.2554 41.4612,13.1224 41.6332,13.1514 L42.2692,13.2614 C42.3972,13.2834 42.5182,13.1984 42.5402,13.0704 L42.6432,12.4724 C42.6752,12.2864 42.8692,12.1924 43.1302,12.2374 Z M37.7108,10.263 C37.9818,10.311 38.1638,10.571 38.1148,10.843 C38.0658,11.115 37.8058,11.296 37.5348,11.247 C37.2628,11.199 37.0818,10.939 37.1308,10.667 C37.1798,10.395 37.4388,10.214 37.7108,10.263 Z M45.5136,10.0476 C45.7846,10.0956 45.9656,10.3556 45.9166,10.6276 C45.8676,10.8996 45.6076,11.0806 45.3366,11.0316 C45.0656,10.9836 44.8836,10.7236 44.9326,10.4516 C44.9816,10.1796 45.2406,9.9986 45.5136,10.0476 Z M11.1312,7.1347 C11.2402,8.1727 11.7192,9.1187 12.5042,9.8167 C13.0392,10.2907 13.6722,10.6077 14.3502,10.7587 C14.6292,10.8217 14.9152,10.8597 15.2062,10.8637 C15.1802,10.6587 15.1372,10.4597 15.0842,10.2637 C14.8702,9.4737 14.4382,8.7607 13.8122,8.2047 C13.0622,7.5387 12.1202,7.1677 11.1312,7.1347 Z M15.2629566,2.53040554 L15.0252,2.5377 C13.9142,2.6037 12.8942,3.0987 12.1552,3.9317 C11.5122,4.6547 11.1492,5.5587 11.1082,6.5117 C12.2592,6.5397 13.3552,6.9657 14.2262,7.7387 C14.8902,8.3287 15.3662,9.0717 15.6272,9.8967 C15.7042,10.1357 15.7582,10.3827 15.7972,10.6347 C15.8072,10.6987 15.8212,10.7617 15.8292,10.8267 C16.8192,10.6947 17.7192,10.2207 18.3892,9.4657 C18.6692,9.1507 18.8962,8.8007 19.0672,8.4277 C19.2222,8.0887 19.3282,7.7287 19.3862,7.3587 C19.4332,7.0617 19.4522,6.7587 19.4332,6.4517 C19.3672,5.3407 18.8732,4.3207 18.0402,3.5817 C17.2072,2.8427 16.1382,2.4727 15.0252,2.5377 Z M42.6416,7.3159 C42.9376,7.3689 43.1366,7.6389 43.0866,7.9189 C43.0356,8.1999 42.7556,8.3839 42.4596,8.3309 C42.1636,8.2779 41.9646,8.0079 42.0146,7.7269 C42.0636,7.4469 42.3456,7.2629 42.6416,7.3159 Z M47.3363,5.3136 C47.4753,5.3376 47.5733,5.4266 47.5553,5.5306 L47.4753,5.9956 L47.9663,6.0806 C48.0763,6.0996 48.1343,6.2036 48.1113,6.3426 C48.0883,6.4736 47.9963,6.5656 47.8873,6.5466 L47.3953,6.4616 L47.3163,6.9226 C47.3003,7.0136 47.1753,7.0816 47.0363,7.0586 C46.8903,7.0326 46.8083,6.9286 46.8243,6.8376 L46.9043,6.3766 L46.4163,6.2926 C46.3203,6.2756 46.2423,6.1556 46.2643,6.0246 C46.2873,5.8846 46.4003,5.8106 46.4963,5.8266 L46.9843,5.9116 L47.0643,5.4456 C47.0813,5.3416 47.1903,5.2886 47.3363,5.3136 Z M41.2269,3.4396 C41.3649,3.4636 41.4639,3.5526 41.4459,3.6566 L41.3659,4.1216 L41.8569,4.2066 C41.9669,4.2256 42.0249,4.3296 42.0019,4.4686 C41.9789,4.5996 41.8869,4.6916 41.7769,4.6726 L41.2859,4.5876 L41.2069,5.0486 C41.1899,5.1396 41.0649,5.2076 40.9269,5.1836 C40.7809,5.1586 40.6989,5.0546 40.7149,4.9636 L40.7939,4.5026 L40.3069,4.4186 C40.2109,4.4016 40.1329,4.2806 40.1539,4.1506 C40.1779,4.0106 40.2909,3.9366 40.3869,3.9526 L40.8739,4.0366 L40.9539,3.5716 C40.9719,3.4676 41.0809,3.4146 41.2269,3.4396 Z M49.6094,0.1597 C49.7894,0.3317 49.8484,0.5597 49.7184,0.6967 L49.2814,1.1587 C49.2044,1.2417 49.2074,1.3717 49.2904,1.4497 L49.7864,1.9197 C49.9314,2.0557 49.9144,2.2677 49.7414,2.4507 C49.5794,2.6217 49.3544,2.6677 49.2094,2.5307 L48.7214,2.0697 C48.6344,1.9877 48.4964,1.9907 48.4134,2.0787 L47.9904,2.5267 C47.8774,2.6467 47.6244,2.6237 47.4444,2.4527 C47.2504,2.2697 47.2324,2.0357 47.3454,1.9157 L47.7394,1.4977 C47.8384,1.3937 47.8334,1.2297 47.7294,1.1317 L47.2784,0.7047 C47.1514,0.5847 47.1544,0.3277 47.3164,0.1557 C47.4894,-0.0273 47.7294,-0.0273 47.8564,0.0927 L48.3244,0.5367 C48.4184,0.6257 48.5684,0.6217 48.6564,0.5277 L49.0724,0.0867 C49.2024,-0.0513 49.4154,-0.0223 49.6094,0.1597 Z" id="Combined-Shape"></path>
                        </g>
                    </g>
                </g>
            </g>
        </g>
    </g>
</svg>
