<?xml version="1.0" encoding="UTF-8"?>
<svg width="50px" height="50px" viewBox="0 0 50 50" version="1.1" xmlns="http://www.w3.org/2000/svg" xmlns:xlink="http://www.w3.org/1999/xlink">
    <!-- Generator: sketchtool 63.1 (101010) - https://sketch.com -->
    <title>2B509456-1CE3-4651-B8C2-AA64DCCA93F3@1,5x</title>
    <desc>Created with sketchtool.</desc>
    <g id="Financeur_Cadhoc_prospect-/-UI" stroke="none" stroke-width="1" fill="none" fill-rule="evenodd">
        <g id="01_01_Commande-Prospect-Cadhoc" transform="translate(-878.000000, -438.000000)" fill="#4E5B59" fill-rule="nonzero">
            <g id="Group-19" transform="translate(403.000000, 326.000000)">
                <g id="Group-22">
                    <g id="Group-13" transform="translate(475.000000, 112.000000)">
                        <g id="V2-/-picto-/-moyen-/-Aucun-Copy-5">
                            <path d="M27.2702,1.9642 C27.9242,1.5222 28.7112,1.3612 29.4882,1.5132 C30.2632,1.6642 30.9322,2.1072 31.3732,2.7622 L31.3732,2.7622 L35.0822,8.2692 C35.4302,8.7862 35.5502,9.3272 35.4372,9.8772 C35.2472,10.8102 34.4432,11.4992 33.8022,11.9142 L33.8022,11.9142 L22.2892,19.7042 L41.6792,19.7042 C43.4052,19.7042 44.8092,21.1072 44.8092,22.8332 L44.8092,22.8332 L44.8092,46.7272 C44.8092,48.4532 43.4052,49.8562 41.6792,49.8562 L41.6792,49.8562 L30.2315646,49.8578744 C30.215703,49.864556 30.1992294,49.8702904 30.182193,49.8749912 C30.0920669,49.8998589 30.000631,49.8918132 29.9206825,49.8581164 L28.0375361,49.857628 C27.9856711,49.8824442 27.9276154,49.8964162 27.8662958,49.8966 C27.8041641,49.8967852 27.7452986,49.8827947 27.6927622,49.8576731 L25.2433727,49.8575331 C25.1602143,49.9018742 25.0611442,49.9171731 24.9622788,49.8935335 C24.9282063,49.8853865 24.8962041,49.8731038 24.8666775,49.8573452 L13.4182,49.8562 C11.6932,49.8562 10.2892,48.4532 10.2892,46.7272 L10.2892,46.7272 L10.2892,27.8222 L7.8552,29.4682 C7.3582,29.7902 6.8002,29.9432 6.2482,29.9432 C5.2832,29.9432 4.3352,29.4722 3.7712,28.6072 L3.7712,28.6072 L0.4772,23.5642 C-0.4008,22.2212 -0.0328,20.3982 1.2972,19.5002 L1.2972,19.5002 L7.8662,15.0652 L7.68261846,14.904472 C6.78461797,14.0783953 6.18995,12.9197625 6.1112,11.6082 C6.0342,10.3062 6.4672,9.0522 7.3332,8.0772 C8.1332,7.1762 9.2142,6.6182 10.4002,6.4772 C10.4342,5.3362 10.8592,4.2542 11.6252,3.3912 C12.4912,2.4162 13.6822,1.8372 14.9832,1.7602 C16.2872,1.6832 17.5352,2.1172 18.5092,2.9812 C19.4832,3.8462 20.0622,5.0382 20.1392,6.3382 C20.1482,6.4842 20.1482,6.6302 20.1442,6.7752 L20.1442,6.7752 Z M41.6792,20.4112 L21.2432,20.4112 L10.9962,27.3432 L10.9962,46.7272 C10.9962,48.0622 12.0822,49.1492 13.4182,49.1492 L13.4182,49.1492 L24.7206346,49.1495868 C24.7477134,49.004314 24.7783608,48.8193668 24.8091864,48.5989333 C25.0969814,46.5409135 25.0082243,44.288816 24.2792462,42.1813745 C23.7836573,40.74865 23.0143478,39.4834243 21.9344879,38.4263412 C21.7766222,38.2718052 21.7739229,38.0185536 21.9284588,37.8606879 C22.0829948,37.7028222 22.3362464,37.7001229 22.4941121,37.8546588 C23.6664285,39.0022483 24.5006536,40.3742359 25.0352928,41.9198529 C25.8117787,44.1646374 25.9052839,46.5372084 25.6014771,48.7097278 L25.5519691,49.037944 L25.5319492,49.148857 L27.4639492,49.148857 L27.4141018,32.4387958 C27.4134413,32.2178829 27.5919912,32.0382622 27.8129042,32.0376 C28.006203,32.0370239 28.1678874,32.1736539 28.2057307,32.3558149 L28.2140982,32.4364042 L28.2639492,49.148857 L29.5874534,49.1503233 C29.5600014,49.0135357 29.531065,48.8552186 29.5022506,48.6770474 C29.1482405,46.4880593 29.246254,44.1023303 30.1196229,41.8461372 C30.7132768,40.312538 31.6387223,38.9496962 32.9364844,37.8071713 C33.1022961,37.6611938 33.3550512,37.6772727 33.5010287,37.8430844 C33.6470062,38.0088961 33.6309273,38.2616512 33.4651156,38.4076287 C32.2665302,39.4628403 31.4141206,40.7181271 30.865677,42.1349335 C30.0511302,44.2391702 29.9587175,46.4885711 30.2919897,48.5493282 L30.346646,48.8632439 C30.3671172,48.9724155 30.3868288,49.0686286 30.4049956,49.1510296 L41.6792,49.1492 C43.0152,49.1492 44.1022,48.0622 44.1022,46.7272 L44.1022,46.7272 L44.1022,22.8332 C44.1022,21.4982 43.0152,20.4112 41.6792,20.4112 L41.6792,20.4112 Z M33.8268995,33.5748532 C33.8949205,32.9692466 34.6271802,32.7060908 35.0651345,33.1286397 L35.0651345,33.1286397 L35.76,33.797 L36.7091221,33.6044349 C37.2720826,33.490601 37.7287797,34.0311436 37.5537055,34.5526801 L37.5537055,34.5526801 L37.516145,34.6443816 L37.093,35.513 L37.5701404,36.3538219 C37.8534257,36.8521559 37.4818568,37.4518897 36.934753,37.451045 L36.934753,37.451045 L36.830231,37.4436772 L35.873,37.31 L35.2216374,38.0222813 C34.8364823,38.4467802 34.1513327,38.2798811 33.9820509,37.7591308 L33.9820509,37.7591308 L33.9565551,37.6574015 L33.787,36.704 L32.905788,36.3051488 C32.3882475,36.0680286 32.3351186,35.3702519 32.7721867,35.0486308 L32.7721867,35.0486308 L32.866144,34.9895699 L33.718,34.534 Z M21.7936325,31.9974136 C22.384568,31.6723991 23.0920318,32.1679161 22.9897756,32.8345476 L22.9897756,32.8345476 L22.8015767,34.0628307 L22.8054051,34.0734875 L23.709364,34.9234489 C24.201147,35.3857249 23.9490004,36.2115963 23.2828528,36.3196732 L23.2828528,36.3196732 L22.0582041,36.5196156 L22.0480787,36.5277465 L21.5184856,37.6488823 C21.2313351,38.2605522 20.369035,38.2758982 20.0589136,37.6752833 L20.0589136,37.6752833 L19.4860557,36.5680159 L19.4797945,36.5656859 L18.2482115,36.4086111 C17.5791334,36.3222785 17.2990976,35.5084246 17.7731106,35.0285115 L17.7731106,35.0285115 L18.6500915,34.1405912 L18.419639,32.9166551 C18.2916504,32.253083 18.9822822,31.7321827 19.5853165,32.0366465 L19.5853165,32.0366465 L20.6934652,32.5947214 L20.705979,32.5942233 Z M34.606,33.796 L34.5096355,34.660446 C34.4813326,34.8999328 34.3388,35.1101684 34.125656,35.2244301 L34.125656,35.2244301 L33.359,35.632 L34.1539522,35.9927464 C34.3406998,36.079518 34.4821012,36.2394777 34.5446794,36.4325113 L34.5446794,36.4325113 L34.5692449,36.5315985 L34.721,37.384 L35.3060847,36.7447058 C35.4457446,36.5918349 35.6418251,36.5069052 35.8466491,36.5064401 L35.8466491,36.5064401 L35.949569,36.5133228 L36.809,36.633 L36.3822295,35.8809145 C36.2777842,35.7005091 36.2570897,35.48509 36.320147,35.2907639 L36.320147,35.2907639 L36.358655,35.1956184 L36.737,34.415 L35.8872418,34.5884506 C35.684407,34.6297688 35.4757351,34.5838277 35.3107986,34.4645595 L35.3107986,34.4645595 L35.2322044,34.3988793 L34.606,33.796 Z M22.1886774,32.6975556 L22.178821,32.6985767 L21.0901475,33.2959454 C20.8558106,33.4239446 20.5718128,33.429303 20.3334835,33.3091535 L20.3334835,33.3091535 L19.2251202,32.7509703 C19.2147264,32.7457226 19.2031054,32.7544876 19.2054058,32.7664256 L19.2054058,32.7664256 L19.4360766,33.983709 C19.487279,34.2475981 19.4036322,34.5183776 19.2146894,34.7092885 L19.2146894,34.7092885 L18.3419868,35.5909878 C18.3333674,35.5997145 18.3381392,35.6135825 18.3500055,35.6151141 L18.3500055,35.6151141 L19.5803757,35.7720342 C19.8457685,35.8054541 20.0766169,35.9668342 20.2008864,36.2055167 L20.2008864,36.2055167 L20.7698177,37.3083837 C20.77566,37.3196986 20.7893678,37.3194546 20.7947213,37.3080535 L20.7947213,37.3080535 L21.3234758,36.1887156 C21.4362519,35.9453565 21.6639622,35.7736317 21.9289472,35.7301268 L21.9289472,35.7301268 L23.1543409,35.5300628 C23.1655575,35.528243 23.1698318,35.5142431 23.1613949,35.5063125 L23.1613949,35.5063125 L22.2559772,34.6549729 C22.061843,34.4706434 21.9698229,34.2031433 22.0110141,33.9403193 L22.0110141,33.9403193 L22.1990244,32.7132524 C22.2007476,32.7020182 22.188351,32.6933355 22.178821,32.6985767 Z M25.6469562,23.0257471 C25.9400702,22.1862305 27.0678265,22.0449654 27.5582988,22.7870437 L27.5582988,22.7870437 L28.6715267,24.4733889 C28.7212007,24.5487142 28.8052061,24.5950505 28.8953213,24.5966745 L28.8953213,24.5966745 L30.9147545,24.635664 C31.805633,24.651601 32.2905608,25.6831101 31.7344103,26.3778985 L31.7344103,26.3778985 L30.4734193,27.9601369 C30.4175248,28.0297034 30.399842,28.1219379 30.4263031,28.2082456 L30.4263031,28.2082456 L31.0144338,30.1426765 C31.2724148,30.9946508 30.4425553,31.7724592 29.6090639,31.4600991 L29.6090639,31.4600991 L27.7171506,30.7501317 C27.6322666,30.7183002 27.5384055,30.7300603 27.4643736,30.7817199 L27.4643736,30.7817199 L25.8066966,31.9374944 C25.0766024,32.4476039 24.0801939,31.89878 24.1199968,31.0087871 L24.1199968,31.0087871 L24.2100089,28.989519 C24.2140768,28.8996171 24.1738686,28.8138028 24.1024304,28.7597194 L24.1024304,28.7597194 L22.4891121,27.5404787 C21.7799398,27.00342 21.9946865,25.8865004 22.8521142,25.6490345 L22.8521142,25.6490345 L24.8002861,25.110987 C24.8873878,25.086973 24.9562417,25.0223951 24.9855962,24.936783 L24.9855962,24.936783 Z M26.8909012,23.2281563 C26.7655655,23.038525 26.4772446,23.0746407 26.4026038,23.288417 L26.4026038,23.288417 L25.7419784,25.1973297 C25.6271507,25.5322439 25.3543869,25.7880685 25.0130858,25.8821655 L25.0130858,25.8821655 L23.0653619,26.4200892 C22.8462802,26.4807642 22.791453,26.765926 22.9717696,26.9024806 L22.9717696,26.9024806 L24.585039,28.1216843 C24.8668162,28.3350072 25.0251525,28.6729358 25.0092032,29.0254129 L25.0092032,29.0254129 L24.9192006,31.0444712 C24.9090171,31.2721747 25.1623964,31.4117366 25.3488264,31.2814801 L25.3488264,31.2814801 L27.0066992,30.1255689 C27.2966759,29.9232225 27.6667976,29.8768489 27.9981361,30.0011009 L27.9981361,30.0011009 L29.8899709,30.7110389 C30.1028897,30.7908326 30.3147094,30.5922988 30.2488969,30.3749544 L30.2488969,30.3749544 L29.6611716,28.441854 C29.5572998,28.1030721 29.6277996,27.7353418 29.8487897,27.4603015 L29.8487897,27.4603015 L31.1093224,25.8786346 C31.2507427,25.7019605 31.1274013,25.439596 30.8998787,25.4355255 L30.8998787,25.4355255 L28.880394,25.3965351 C28.526693,25.3901621 28.1983859,25.2090721 28.0037781,24.91397 L28.0037781,24.91397 Z M29.3522,2.2072 C28.7632,2.0922 28.1642,2.2142 27.6652,2.5502 L27.6652,2.5502 L20.0262,7.7082 C19.8472,8.5002 19.4732,9.2402 18.9182,9.8642 C18.1222,10.7622 17.0442,11.3192 15.8632,11.4612 C15.8312,12.6062 15.4052,13.6932 14.6352,14.5592 C13.7702,15.5342 12.5762,16.1142 11.2742,16.1912 C11.1762,16.1972 11.0792,16.2002 10.9812,16.2002 C10.0732,16.2002 9.2172,15.9442 8.4822,15.5022 L8.4822,15.5022 L1.6932,20.0862 C0.6812,20.7692 0.4022,22.1562 1.0692,23.1782 L1.0692,23.1782 L4.3632,28.2212 C5.0382,29.2532 6.4292,29.5492 7.4642,28.8782 L7.4642,28.8782 L10.2892,26.9682 L10.9962,26.4892 L19.9812,20.4112 L21.0262,19.7042 L33.4122,11.3242 C34.1632,10.8382 34.6342,10.2752 34.7452,9.7352 C34.8192,9.3732 34.7372,9.0232 34.4962,8.6642 L34.4962,8.6642 L30.7872,3.1572 C30.4522,2.6592 29.9422,2.3222 29.3522,2.2072 Z M38.5834,15.7558 C38.7224,15.7798 38.8204,15.8688 38.8024,15.9728 L38.7224,16.4378 L39.2134,16.5228 C39.3234,16.5418 39.3814,16.6458 39.3584,16.7848 C39.3354,16.9158 39.2434,17.0078 39.1334,16.9888 L38.6424,16.9038 L38.5634,17.3648 C38.5474,17.4558 38.4224,17.5238 38.2834,17.4998 C38.1374,17.4748 38.0554,17.3708 38.0714,17.2798 L38.1514,16.8188 L37.6634,16.7348 C37.5674,16.7178 37.4894,16.5978 37.5114,16.4668 C37.5344,16.3268 37.6474,16.2528 37.7434,16.2688 L38.2314,16.3528 L38.3104,15.8878 C38.3284,15.7838 38.4374,15.7308 38.5834,15.7558 Z M33.3734,15.0048 C33.5114,15.0278 33.6104,15.1168 33.5924,15.2208 L33.5124,15.6868 L34.0034,15.7718 C34.1134,15.7898 34.1714,15.8948 34.1484,16.0338 C34.1254,16.1638 34.0334,16.2558 33.9234,16.2368 L33.4324,16.1518 L33.3534,16.6128 C33.3374,16.7048 33.2114,16.7728 33.0734,16.7488 C32.9274,16.7228 32.8454,16.6198 32.8614,16.5288 L32.9404,16.0668 L32.4534,15.9828 C32.3574,15.9668 32.2794,15.8458 32.3014,15.7148 C32.3244,15.5758 32.4374,15.5008 32.5334,15.5178 L33.0204,15.6018 L33.1004,15.1368 C33.1184,15.0318 33.2274,14.9788 33.3734,15.0048 Z M10.4252,7.1002 C9.4102,7.2332 8.4862,7.7182 7.7992,8.4912 C7.0442,9.3412 6.6662,10.4352 6.7342,11.5712 C6.8102,12.8552 7.4562,13.9742 8.4072,14.7002 C8.6112,14.8572 8.8302,14.9942 9.0612,15.1122 C9.7132,15.4452 10.4562,15.6172 11.2372,15.5692 C12.3732,15.5012 13.4142,14.9962 14.1692,14.1452 C14.8272,13.4042 15.1992,12.4782 15.2392,11.5022 C14.9902,11.5002 14.7442,11.4762 14.5012,11.4382 C14.1892,11.3892 13.8832,11.3112 13.5872,11.2022 C13.0242,10.9952 12.4982,10.6842 12.0362,10.2732 C11.1082,9.4502 10.5432,8.3282 10.4252,7.1002 Z M43.0149,12.2376 C43.2599,12.2796 43.4349,12.4376 43.4039,12.6236 L43.2959,13.2496 C43.2769,13.3616 43.3519,13.4686 43.4639,13.4876 L44.1369,13.6036 C44.3339,13.6376 44.4359,13.8236 44.3929,14.0716 C44.3539,14.3036 44.1909,14.4676 43.9949,14.4336 L43.3329,14.3186 C43.2149,14.2986 43.1019,14.3776 43.0819,14.4966 L42.9769,15.1036 C42.9489,15.2666 42.7259,15.3876 42.4809,15.3456 C42.2179,15.2996 42.0739,15.1156 42.1009,14.9526 L42.1989,14.3856 C42.2229,14.2456 42.1289,14.1106 41.9879,14.0866 L41.3759,13.9806 C41.2039,13.9516 41.0629,13.7356 41.1029,13.5036 C41.1459,13.2556 41.3459,13.1226 41.5179,13.1516 L42.1539,13.2616 C42.2819,13.2836 42.4029,13.1976 42.4249,13.0706 L42.5279,12.4726 C42.5599,12.2866 42.7529,12.1916 43.0149,12.2376 Z M37.5956,10.2632 C37.8666,10.3112 38.0486,10.5712 37.9996,10.8432 C37.9506,11.1152 37.6906,11.2962 37.4196,11.2472 C37.1476,11.1982 36.9666,10.9382 37.0156,10.6662 C37.0646,10.3952 37.3236,10.2142 37.5956,10.2632 Z M45.3973,10.0478 C45.6693,10.0958 45.8503,10.3558 45.8013,10.6278 C45.7523,10.8998 45.4923,11.0798 45.2213,11.0318 C44.9503,10.9828 44.7683,10.7228 44.8173,10.4508 C44.8663,10.1798 45.1253,9.9988 45.3973,10.0478 Z M11.1312,7.0632 C11.2402,8.1002 11.7192,9.0472 12.5042,9.7452 C13.0392,10.2182 13.6722,10.5362 14.3502,10.6872 C14.6292,10.7502 14.9152,10.7882 15.2062,10.7912 C15.1802,10.5872 15.1372,10.3882 15.0842,10.1922 C14.8702,9.4022 14.4382,8.6892 13.8122,8.1332 C13.0622,7.4672 12.1202,7.0962 11.1312,7.0632 Z M15.2629566,2.45890554 L15.0252,2.4662 C13.9142,2.5322 12.8942,3.0272 12.1552,3.8602 C11.5122,4.5832 11.1492,5.4872 11.1082,6.4402 C12.2592,6.4682 13.3552,6.8942 14.2262,7.6672 C14.8902,8.2572 15.3662,9.0002 15.6272,9.8252 C15.7042,10.0642 15.7582,10.3112 15.7972,10.5632 C15.8072,10.6272 15.8212,10.6902 15.8292,10.7552 C16.8192,10.6232 17.7192,10.1492 18.3892,9.3942 C18.6692,9.0792 18.8962,8.7292 19.0672,8.3562 C19.2222,8.0172 19.3282,7.6572 19.3862,7.2872 C19.4332,6.9902 19.4522,6.6872 19.4332,6.3802 C19.3672,5.2692 18.8732,4.2492 18.0402,3.5102 C17.2072,2.7712 16.1382,2.4012 15.0252,2.4662 Z M42.5264,7.3157 C42.8224,7.3687 43.0214,7.6397 42.9714,7.9197 C42.9204,8.1997 42.6404,8.3837 42.3444,8.3307 C42.0484,8.2777 41.8494,8.0077 41.8994,7.7267 C41.9484,7.4467 42.2304,7.2627 42.5264,7.3157 Z M47.2211,5.3139 C47.3601,5.3379 47.4581,5.4269 47.4401,5.5309 L47.3601,5.9959 L47.8511,6.0809 C47.9611,6.0999 48.0191,6.2039 47.9961,6.3429 C47.9731,6.4739 47.8811,6.5659 47.7711,6.5469 L47.2801,6.4619 L47.2011,6.9229 C47.1851,7.0139 47.0601,7.0819 46.9211,7.0579 C46.7751,7.0329 46.6931,6.9289 46.7091,6.8379 L46.7891,6.3769 L46.3011,6.2929 C46.2051,6.2759 46.1271,6.1549 46.1491,6.0249 C46.1721,5.8849 46.2851,5.8109 46.3811,5.8269 L46.8681,5.9109 L46.9481,5.4459 C46.9661,5.3419 47.0751,5.2889 47.2211,5.3139 Z M41.1117,3.4394 C41.2497,3.4634 41.3487,3.5524 41.3297,3.6564 L41.2507,4.1214 L41.7417,4.2064 C41.8517,4.2254 41.9097,4.3294 41.8867,4.4684 C41.8637,4.5994 41.7717,4.6914 41.6617,4.6724 L41.1707,4.5874 L41.0907,5.0484 C41.0747,5.1394 40.9497,5.2074 40.8117,5.1844 C40.6657,5.1584 40.5837,5.0544 40.5997,4.9634 L40.6787,4.5024 L40.1917,4.4184 C40.0957,4.4024 40.0167,4.2814 40.0387,4.1504 C40.0627,4.0104 40.1757,3.9364 40.2717,3.9534 L40.7587,4.0374 L40.8387,3.5714 C40.8557,3.4674 40.9657,3.4144 41.1117,3.4394 Z M49.4942,0.1599 C49.6742,0.3309 49.7332,0.5589 49.6032,0.6969 L49.1662,1.1589 C49.0882,1.2409 49.0922,1.3719 49.1752,1.4499 L49.6712,1.9199 C49.8162,2.0559 49.7992,2.2679 49.6262,2.4509 C49.4642,2.6219 49.2392,2.6679 49.0942,2.5309 L48.6062,2.0699 C48.5192,1.9869 48.3812,1.9909 48.2982,2.0779 L47.8752,2.5269 C47.7622,2.6469 47.5092,2.6239 47.3292,2.4529 C47.1352,2.2699 47.1172,2.0359 47.2302,1.9159 L47.6242,1.4979 C47.7222,1.3939 47.7182,1.2299 47.6142,1.1319 L47.1632,0.7049 C47.0362,0.5849 47.0392,0.3279 47.2012,0.1559 C47.3742,-0.0271 47.6142,-0.0271 47.7412,0.0929 L48.2092,0.5369 C48.3032,0.6259 48.4522,0.6209 48.5412,0.5269 L48.9572,0.0859 C49.0872,-0.0511 49.3002,-0.0231 49.4942,0.1599 Z" id="Combined-Shape"></path>
                        </g>
                    </g>
                </g>
            </g>
        </g>
    </g>
</svg>
