<?xml version="1.0" encoding="UTF-8"?>
<svg width="59px" height="60px" viewBox="0 0 59 60" version="1.1" xmlns="http://www.w3.org/2000/svg" xmlns:xlink="http://www.w3.org/1999/xlink">
    <!-- Generator: sketchtool 63.1 (101010) - https://sketch.com -->
    <title>F4AADA7B-978F-441C-B56C-1617E7FA4A9E@1,5x</title>
    <desc>Created with sketchtool.</desc>
    <g id="Financeur_Cadhoc_prospect-/-UI" stroke="none" stroke-width="1" fill="none" fill-rule="evenodd">
        <g id="01_00_Commande-Prospect-Cadhoc" transform="translate(-496.000000, -399.000000)" fill="#4E5B59" fill-rule="nonzero">
            <g id="Group-2" transform="translate(419.000000, 370.000000)">
                <g id="V2-/-picto-/-moyen-/-universel-2" transform="translate(77.000000, 29.000000)">
                    <path d="M32.178836,2.3568 C32.950556,1.8264 33.879216,1.6332 34.796076,1.8156 C35.710576,1.9968 36.499996,2.5284 37.020376,3.3144 L37.020376,3.3144 L41.396996,9.9228 C41.807636,10.5432 41.949236,11.1924 41.815896,11.8524 C41.591696,12.972 40.642976,13.8 39.886596,14.2968 L39.886596,14.2968 L26.301256,23.6448 L49.181456,23.6448 C51.218136,23.6448 52.874856,25.3296 52.874856,27.3996 L52.874856,27.3996 L52.874856,56.0724 C52.874856,58.1436 51.218136,59.8284 49.181456,59.8284 L49.181456,59.8284 L15.833476,59.8284 C13.797976,59.8284 12.141256,58.1436 12.141256,56.0724 L12.141256,56.0724 L12.141256,33.3864 L9.269136,35.3616 C8.682676,35.748 8.024236,35.9316 7.372876,35.9316 C6.234176,35.9316 5.115536,35.3664 4.450016,34.3284 L4.450016,34.3284 L0.563096,28.278 C-0.472944,26.6652 -0.038704,24.4776 1.530696,23.4 L1.530696,23.4 L9.282116,18.078 L9.07797264,17.8967702 C8.01136216,16.9047363 7.30450541,15.5096471 7.211216,13.9296 C7.120356,12.3672 7.631296,10.8624 8.653176,9.6924 C9.597176,8.6112 10.872756,7.9416 12.272236,7.7724 C12.312356,6.4032 12.813856,5.1048 13.717736,4.0692 C14.739616,2.8992 16.144996,2.2056 17.680176,2.112 C19.218896,2.0208 20.691536,2.5404 21.840856,3.5772 C22.990176,4.6152 23.673396,6.0456 23.764256,7.6056 C23.774876,7.782 23.774876,7.956 23.770156,8.1312 L23.770156,8.1312 Z M49.181456,24.4932 L25.066976,24.4932 L12.975516,32.8128 L12.975516,56.0724 C12.975516,57.6756 14.256996,58.98 15.833476,58.98 L15.833476,58.98 L49.181456,58.98 C50.757936,58.98 52.040596,57.6756 52.040596,56.0724 L52.040596,56.0724 L52.040596,27.3996 C52.040596,25.7976 50.757936,24.4932 49.181456,24.4932 L49.181456,24.4932 Z M34.635596,2.6484 C33.940576,2.5104 33.233756,2.6568 32.644936,3.06 L32.644936,3.06 L23.630916,9.2496 C23.419696,10.2012 22.978376,11.088 22.323476,11.8368 C21.384196,12.9144 20.112156,13.5828 18.718576,13.7544 C18.680816,15.1272 18.178136,16.4316 17.269536,17.4708 C16.248836,18.642 14.839916,19.3368 13.303556,19.4292 C13.187916,19.4376 13.073456,19.44 12.957816,19.44 C11.886376,19.44 10.876296,19.1328 10.008996,18.6036 L10.008996,18.6036 L1.997976,24.1032 C0.803816,24.9228 0.474596,26.5872 1.261656,27.8136 L1.261656,27.8136 L5.148576,33.8652 C5.945076,35.1036 7.586456,35.4588 8.807756,34.6536 L8.807756,34.6536 L12.141256,32.3616 L12.975516,31.788 L23.577816,24.4932 L24.810916,23.6448 L39.426396,13.59 C40.312576,13.0056 40.868356,12.33 40.999336,11.682 C41.086656,11.2476 40.989896,10.8276 40.705516,10.3968 L40.705516,10.3968 L36.328896,3.7896 C35.933596,3.1908 35.331796,2.7864 34.635596,2.6484 Z M45.528412,18.90732 C45.692432,18.93612 45.808072,19.04292 45.786832,19.16772 L45.692432,19.72572 L46.271812,19.82772 C46.401612,19.85052 46.470052,19.97532 46.442912,20.14212 C46.415772,20.29932 46.307212,20.40972 46.177412,20.38692 L45.598032,20.28492 L45.504812,20.83812 C45.485932,20.94732 45.338432,21.02892 45.174412,21.00012 C45.002132,20.97012 44.905372,20.84532 44.924252,20.73612 L45.018652,20.18292 L44.442812,20.08212 C44.329532,20.06172 44.237492,19.91652 44.263452,19.76052 C44.290592,19.59252 44.423932,19.50372 44.537212,19.52292 L45.113052,19.62372 L45.206272,19.06572 C45.227512,18.94092 45.356132,18.87732 45.528412,18.90732 Z M39.380612,18.00492 C39.543452,18.03372 39.660272,18.14052 39.639032,18.26532 L39.544632,18.82332 L40.124012,18.92532 C40.253812,18.94812 40.322252,19.07292 40.295112,19.23972 C40.267972,19.39692 40.159412,19.50732 40.029612,19.48452 L39.450232,19.38252 L39.357012,19.93572 C39.338132,20.04492 39.189452,20.12652 39.026612,20.09772 C38.854332,20.06772 38.757572,19.94292 38.776452,19.83372 L38.869672,19.28052 L38.295012,19.17972 C38.181732,19.15932 38.089692,19.01532 38.115652,18.85812 C38.142792,18.69012 38.276132,18.60132 38.389412,18.62052 L38.964072,18.72132 L39.058472,18.16332 C39.079712,18.03852 39.208332,17.97492 39.380612,18.00492 Z M12.301736,8.5212 C11.104036,8.6808 10.013716,9.2616 9.203056,10.1892 C8.312156,11.2104 7.866116,12.522 7.946356,13.8852 C8.036036,15.4272 8.798316,16.7688 9.920496,17.6412 C10.161216,17.8284 10.419636,17.9928 10.692216,18.1344 C11.461576,18.534 12.338316,18.7404 13.259896,18.6828 C14.600376,18.6012 15.828756,17.9952 16.719656,16.974 C17.496096,16.0848 17.935056,14.9748 17.982256,13.8024 C17.688436,13.8012 17.398156,13.7724 17.111416,13.7256 C16.743256,13.6668 16.382176,13.5732 16.032896,13.4436 C15.368556,13.194 14.747876,12.822 14.202716,12.3288 C13.107676,11.34 12.440976,9.9948 12.301736,8.5212 Z M50.757582,14.685 C51.046682,14.7354 51.253182,14.925 51.216602,15.1482 L51.089162,15.8994 C51.066742,16.035 51.155242,16.1622 51.287402,16.185 L52.081542,16.3242 C52.314002,16.3662 52.434362,16.5882 52.383622,16.8858 C52.337602,17.1654 52.145262,17.361 51.913982,17.3202 L51.132822,17.1834 C50.993582,17.1582 50.860242,17.253 50.836642,17.3958 L50.712742,18.1242 C50.679702,18.3198 50.416562,18.465 50.127462,18.4146 C49.817122,18.3606 49.647202,18.1386 49.679062,17.943 L49.794702,17.2638 C49.823022,17.0946 49.712102,16.9338 49.545722,16.9038 L48.823562,16.7778 C48.620602,16.7418 48.454222,16.4826 48.501422,16.2042 C48.552162,15.9066 48.788162,15.747 48.991122,15.7818 L49.741602,15.9138 C49.892642,15.9402 50.035422,15.8382 50.061382,15.6846 L50.182922,14.967 C50.220682,14.7438 50.448422,14.631 50.757582,14.685 Z M44.362808,12.3156 C44.682588,12.3732 44.897348,12.6852 44.839528,13.0116 C44.781708,13.338 44.474908,13.5552 44.155128,13.4964 C43.834168,13.4388 43.620588,13.1268 43.678408,12.8004 C43.736228,12.474 44.041848,12.2568 44.362808,12.3156 Z M53.568814,12.05724 C53.889774,12.11484 54.103354,12.42684 54.045534,12.75324 C53.987714,13.07964 53.680914,13.29684 53.361134,13.23804 C53.041354,13.18044 52.826594,12.86724 52.884414,12.54204 C52.942234,12.21564 53.247854,11.99844 53.568814,12.05724 Z M13.134816,8.4756 C13.263436,9.7212 13.828656,10.8576 14.754956,11.694 C15.386256,12.2628 16.133196,12.6432 16.933236,12.8244 C17.262456,12.9 17.599936,12.9456 17.943316,12.9504 C17.912636,12.7044 17.861896,12.4656 17.799356,12.2304 C17.546836,11.2824 17.037076,10.4268 16.298396,9.7608 C15.413396,8.9616 14.301836,8.5152 13.134816,8.4756 Z M17.9916446,2.95053653 L17.729736,2.9592 C16.418756,3.0396 15.215156,3.6324 14.343136,4.632 C13.584396,5.4996 13.156056,6.5844 13.107676,7.728 C14.465856,7.7616 15.759136,8.2728 16.786916,9.2004 C17.570436,9.9084 18.132116,10.8 18.440096,11.79 C18.530956,12.078 18.594676,12.3732 18.640696,12.6756 C18.652496,12.7524 18.669016,12.828 18.678456,12.906 C19.846656,12.7476 20.908656,12.1788 21.699256,11.274 C22.029656,10.8948 22.297516,10.4748 22.499296,10.0272 C22.682196,9.6204 22.807276,9.1884 22.875716,8.7444 C22.931176,8.3892 22.953596,8.0244 22.931176,7.656 C22.853296,6.3228 22.270376,5.0988 21.287436,4.212 C20.304496,3.3252 19.043076,2.8812 17.729736,2.9592 Z M50.181152,8.7792 C50.530432,8.8428 50.765252,9.1668 50.706252,9.5028 C50.646072,9.84 50.315672,10.0608 49.966392,9.9972 C49.617112,9.9336 49.382292,9.6096 49.441292,9.2724 C49.499112,8.9364 49.831872,8.7156 50.181152,8.7792 Z M55.720898,6.37644 C55.884918,6.40524 56.000558,6.51204 55.979318,6.63684 L55.884918,7.19484 L56.464298,7.29684 C56.594098,7.31964 56.662538,7.44444 56.635398,7.61124 C56.608258,7.76844 56.499698,7.87884 56.369898,7.85604 L55.790518,7.75404 L55.697298,8.30724 C55.678418,8.41644 55.530918,8.49804 55.366898,8.47044 C55.194618,8.43924 55.097858,8.31444 55.116738,8.20524 L55.211138,7.65204 L54.635298,7.55124 C54.522018,7.53084 54.429978,7.38684 54.455938,7.22964 C54.483078,7.06164 54.616418,6.97284 54.729698,6.99204 L55.304358,7.09284 L55.398758,6.53484 C55.419998,6.41004 55.548618,6.34644 55.720898,6.37644 Z M48.511806,4.12764 C48.674646,4.15644 48.791466,4.26324 48.769046,4.38804 L48.675826,4.94604 L49.255206,5.04804 C49.385006,5.07084 49.453446,5.19564 49.426306,5.36244 C49.399166,5.51964 49.290606,5.63004 49.160806,5.60724 L48.581426,5.50524 L48.487026,6.05844 C48.468146,6.16764 48.320646,6.24924 48.157806,6.22044 C47.985526,6.19044 47.888766,6.06564 47.907646,5.95644 L48.000866,5.40324 L47.426206,5.30244 C47.312926,5.28204 47.219706,5.13684 47.245666,4.98084 C47.273986,4.81284 47.407326,4.72404 47.520606,4.74324 L48.095266,4.84404 L48.189666,4.28604 C48.209726,4.16124 48.339526,4.09764 48.511806,4.12764 Z M58.403156,0.19164 C58.615556,0.39804 58.685176,0.67164 58.531776,0.83604 L58.016116,1.39044 C57.924076,1.49004 57.928796,1.64604 58.026736,1.73964 L58.612016,2.30364 C58.783116,2.46684 58.763056,2.72124 58.558916,2.94084 C58.367756,3.14604 58.102256,3.20124 57.931156,3.03684 L57.355316,2.48364 C57.252656,2.38524 57.089816,2.38884 56.991876,2.49324 L56.492736,3.03204 C56.359396,3.17604 56.060856,3.14844 55.848456,2.94324 C55.619536,2.72364 55.598296,2.44284 55.731636,2.29884 L56.196556,1.79724 C56.312196,1.67244 56.307476,1.47564 56.184756,1.35804 L55.652576,0.84564 C55.502716,0.70164 55.506256,0.39324 55.697416,0.18684 C55.901556,-0.03276 56.184756,-0.03276 56.334616,0.11124 L56.886856,0.64404 C56.997776,0.75084 57.173596,0.74604 57.278616,0.63324 L57.769496,0.10284 C57.922896,-0.06156 58.174236,-0.02676 58.403156,0.19164 Z" id="Combined-Shape"></path>
                </g>
            </g>
        </g>
    </g>
</svg>
