<?xml version="1.0" encoding="UTF-8"?>
<svg width="24px" height="24px" viewBox="0 0 24 24" version="1.1" xmlns="http://www.w3.org/2000/svg" xmlns:xlink="http://www.w3.org/1999/xlink">
    <!-- Generator: Sketch 51.3 (57544) - http://www.bohemiancoding.com/sketch -->
    <title>0: Icons / Dark / Briefcase</title>
    <desc>Created with Sketch.</desc>
    <defs></defs>
    <g id="0:-Icons-/-Dark-/-Briefcase" stroke="none" stroke-width="1" fill="none" fill-rule="evenodd">
        <path d="M22.5,10.75 L1.5,10.75 L1.5,7 C1.5,6.172 2.172,5.5 3,5.5 L21,5.5 C21.828,5.5 22.5,6.172 22.5,7 L22.5,10.75 L22.5,10.75 Z M10.5,13 C10.5,12.7255 10.57875,12.472 10.70775,12.25 L13.29225,12.25 C13.42125,12.472 13.5,12.7255 13.5,13 C13.5,13.828 12.828,14.5 12,14.5 C11.172,14.5 10.5,13.828 10.5,13 L10.5,13 Z M22.5,20.5 C22.5,21.328 21.828,22 21,22 L3,22 C2.172,22 1.5,21.328 1.5,20.5 L1.5,12.25 L9.1065,12.25 C9.0435,12.49075 9,12.739 9,13 C9,14.65675 10.34325,16 12,16 C13.65675,16 15,14.65675 15,13 C15,12.739 14.9565,12.49075 14.8935,12.25 L22.5,12.25 L22.5,20.5 L22.5,20.5 Z M9,3.25 C9,2.836 9.336,2.5 9.75,2.5 L14.25,2.5 C14.664,2.5 15,2.836 15,3.25 L15,4 L9,4 L9,3.25 L9,3.25 Z M21,4 L16.5,4 L16.5,2.5 C16.5,1.672 15.828,1 15,1 L9,1 C8.172,1 7.5,1.672 7.5,2.5 L7.5,4 L3,4 C1.34325,4 0,5.34325 0,7 L0,20.5 C0,22.15675 1.34325,23.5 3,23.5 L21,23.5 C22.65675,23.5 24,22.15675 24,20.5 L24,7 C24,5.34325 22.65675,4 21,4 L21,4 Z" id="Fill-200" fill="#000000"></path>
    </g>
</svg>