<?xml version="1.0" encoding="UTF-8"?>
<svg width="24px" height="24px" viewBox="0 0 24 24" version="1.1" xmlns="http://www.w3.org/2000/svg" xmlns:xlink="http://www.w3.org/1999/xlink">
    <!-- Generator: Sketch 51.3 (57544) - http://www.bohemiancoding.com/sketch -->
    <title>0: Icons / Dark / Brush</title>
    <desc>Created with Sketch.</desc>
    <defs></defs>
    <g id="0:-Icons-/-Dark-/-Brush" stroke="none" stroke-width="1" fill="none" fill-rule="evenodd">
        <path d="M22.3014242,3.71089618 L12.7853499,13.1062196 L11.7375917,12.0719615 L21.2544161,2.6766381 C21.5439183,2.39088587 22.012672,2.39088587 22.3014242,2.6766381 C22.5909265,2.96239033 22.5909265,3.42514395 22.3014242,3.71089618 L22.3014242,3.71089618 Z M10.1670794,15.6922398 C10.0703287,15.596989 9.11932124,14.6579817 9.11932124,14.6579817 L10.6905835,13.1062196 L11.7375917,14.1404777 L10.1670794,15.6922398 L10.1670794,15.6922398 Z M8.59581715,19.3110181 C7.85781139,19.9957734 4.56003563,21.5220353 2.61827046,20.0422738 C2.61827046,20.0422738 3.29402573,19.5150196 3.80552973,18.4567614 C5.02728928,15.211486 8.07231306,15.6922398 8.07231306,15.6922398 L9.11932124,16.7257479 C9.12982133,16.7362479 9.90157736,18.1005086 8.59581715,19.3110181 L8.59581715,19.3110181 Z M23.3491824,1.64238002 C22.4814256,0.785873327 21.0744146,0.785873327 20.2066579,1.64238002 L7.32305721,14.3632294 C5.74579489,14.3272291 3.56102782,14.8859835 2.61827046,17.9745076 C1.89751482,19.6080204 0,19.5255197 0,19.5255197 C3.93978078,23.8958039 8.58306706,21.4192845 9.64282533,20.3452761 C10.5750826,19.4017688 10.7093337,18.2467597 10.6095829,17.3227525 L23.3491824,4.74515426 C24.2169392,3.88789756 24.2169392,2.49888671 23.3491824,1.64238002 L23.3491824,1.64238002 Z" id="Fill-212" fill="#000000"></path>
    </g>
</svg>