<?xml version="1.0" encoding="UTF-8"?>
<svg width="24px" height="24px" viewBox="0 0 24 24" version="1.1" xmlns="http://www.w3.org/2000/svg" xmlns:xlink="http://www.w3.org/1999/xlink">
    <!-- Generator: Sketch 51.3 (57544) - http://www.bohemiancoding.com/sketch -->
    <title>0: Icons / Dark / Burger Menu</title>
    <desc>Created with Sketch.</desc>
    <defs></defs>
    <g id="0:-Icons-/-Dark-/-Burger-Menu" stroke="none" stroke-width="1" fill="none" fill-rule="evenodd">
        <path d="M21.9999985,4 L1.99999992,4 C0.895999964,4 0,3.106 0,2 C0,0.896 0.895999964,0 1.99999992,0 L21.9999985,0 C23.1039984,0 23.9999984,0.896 23.9999984,2 C23.9999984,3.106 23.1039984,4 21.9999985,4 Z M21.9999985,24 L1.99999992,24 C0.895999964,24 0,23.106 0,22 C0,20.896 0.895999964,20 1.99999992,20 L21.9999985,20 C23.1039984,20 23.9999984,20.896 23.9999984,22 C23.9999984,23.106 23.1039984,24 21.9999985,24 Z M21.9999985,14 L1.99999992,14 C0.895999964,14 0,13.106 0,12 C0,10.896 0.895999964,10 1.99999992,10 L21.9999985,10 C23.1039984,10 23.9999984,10.896 23.9999984,12 C23.9999984,13.106 23.1039984,14 21.9999985,14 Z" id="Combined-Shape" fill="#000000"></path>
    </g>
</svg>