<svg xmlns="http://www.w3.org/2000/svg" xmlns:xlink="http://www.w3.org/1999/xlink" width="30px" height="30px" viewBox="0 0 30 30" version="1.1">
    <!-- Generator: Sketch 54.1 (76490) - https://sketchapp.com -->
    <title>Icone/Foncé/Burger</title>
    <desc>Created with Sketch.</desc>
    <g id="Icone/Foncé/Burger" stroke="none" stroke-width="1" fill-rule="evenodd">
        <path d="M27.4999999,3.81994793 C28.88,3.81994793 30,3.94489596 30,2.47244798 C30,1 28.88,1.12494803 27.4999999,1.12494803 L2.50000007,1.12494803 C1.12000003,1.12494803 0,1 0,2.47244798 C1.00169706e-15,3.94489596 1.12000003,3.81994793 2.50000007,3.81994793 L27.4999999,3.81994793 Z" id="Combined-Shape"/>
        <path d="M21.9999999,15.9972222 C23.104,15.9972222 24,16 24,14.5 C24,13 23.104,13.0027778 21.9999999,13.0027778 L2.00000005,13.0027778 C0.896000024,13.0027778 0,13 0,14.5 C7.34788079e-16,16 0.896000024,15.9972222 2.00000005,15.9972222 L21.9999999,15.9972222 Z" id="Combined-Shape-Copy"/>
        <path d="M14.6666666,28.9972222 C15.4026667,28.9972222 16,29 16,27.5 C16,26 15.4026667,26.0027778 14.6666666,26.0027778 L1.33333337,26.0027778 C0.597333349,26.0027778 0,26 0,27.5 C4.90767554e-16,29 0.597333349,28.9972222 1.33333337,28.9972222 L14.6666666,28.9972222 Z" id="Combined-Shape-Copy-2"/>
    </g>
</svg>