<?xml version="1.0" encoding="iso-8859-1"?>
<!-- Generator: Adobe Illustrator 17.1.0, SVG Export Plug-In . SVG Version: 6.00 Build 0)  -->
<!DOCTYPE svg PUBLIC "-//W3C//DTD SVG 1.1//EN" "http://www.w3.org/Graphics/SVG/1.1/DTD/svg11.dtd">
<svg version="1.1" id="Capa_1" xmlns="http://www.w3.org/2000/svg" xmlns:xlink="http://www.w3.org/1999/xlink" x="0px" y="0px"
	 viewBox="0 0 476.96 476.96" style="enable-background:new 0 0 476.96 476.96;" xml:space="preserve">
<path d="M476.946,163.823c-0.006-0.203-0.013-0.406-0.031-0.609c-0.014-0.157-0.036-0.31-0.057-0.465
	c-0.022-0.161-0.044-0.322-0.073-0.481c-0.033-0.18-0.075-0.357-0.118-0.533c-0.032-0.133-0.064-0.265-0.102-0.396
	c-0.053-0.185-0.114-0.367-0.177-0.547c-0.043-0.124-0.087-0.247-0.135-0.37c-0.068-0.173-0.143-0.341-0.221-0.509
	c-0.06-0.131-0.121-0.26-0.187-0.388c-0.076-0.148-0.158-0.292-0.241-0.436c-0.083-0.143-0.167-0.284-0.257-0.423
	c-0.079-0.121-0.162-0.24-0.246-0.357c-0.107-0.15-0.215-0.298-0.331-0.442c-0.083-0.103-0.169-0.203-0.256-0.303
	c-0.125-0.144-0.251-0.286-0.385-0.424c-0.096-0.098-0.195-0.192-0.295-0.287c-0.132-0.125-0.264-0.249-0.404-0.367
	c-0.124-0.105-0.253-0.204-0.382-0.303c-0.123-0.095-0.245-0.19-0.374-0.28c-0.167-0.117-0.341-0.224-0.516-0.331
	c-0.079-0.048-0.152-0.103-0.233-0.149L282.166,46.878c-3.387-1.938-7.592-1.728-10.77,0.537l-33.031,23.543
	c-4.713-25.828-27.364-45.474-54.532-45.474H173.47c-5.523,0-10,4.477-10,10s4.477,10,10,10h10.363
	c16.477,0,30.363,11.3,34.318,26.558c-22.321,4.497-39.891,22.244-44.144,44.652L4.203,237.488
	c-0.115,0.082-0.221,0.172-0.331,0.258c-0.096,0.075-0.194,0.146-0.287,0.224c-0.189,0.158-0.369,0.324-0.544,0.494
	c-0.04,0.039-0.084,0.075-0.124,0.115c-0.219,0.219-0.426,0.447-0.621,0.684c-0.034,0.041-0.063,0.085-0.096,0.126
	c-0.154,0.193-0.303,0.389-0.442,0.591c-0.065,0.094-0.123,0.192-0.185,0.288c-0.098,0.154-0.195,0.309-0.284,0.467
	c-0.068,0.12-0.131,0.244-0.194,0.367c-0.072,0.141-0.141,0.283-0.206,0.427c-0.062,0.136-0.12,0.274-0.176,0.413
	c-0.056,0.141-0.107,0.284-0.156,0.427c-0.049,0.142-0.099,0.283-0.142,0.428c-0.05,0.17-0.091,0.343-0.132,0.515
	c-0.029,0.12-0.063,0.237-0.087,0.359c-0.059,0.293-0.103,0.59-0.136,0.888c-0.009,0.084-0.011,0.169-0.018,0.253
	c-0.02,0.235-0.033,0.47-0.036,0.706c0,0.04-0.006,0.078-0.006,0.118v195.84c0,2.927,1.282,5.707,3.509,7.607
	c1.823,1.555,4.128,2.393,6.491,2.393c0.522,0,1.049-0.041,1.572-0.125l456.96-72.76c4.855-0.773,8.428-4.959,8.428-9.875V164.103
	C476.96,164.008,476.948,163.917,476.946,163.823z M229.281,90.932c20.001,0,36.273,16.272,36.273,36.273
	s-16.272,36.273-36.273,36.273c-20.001,0-36.273-16.272-36.273-36.273S209.28,90.932,229.281,90.932z M20,400.687l372.138-65.712
	c5.439-0.96,9.069-6.148,8.109-11.586c-0.96-5.439-6.147-9.069-11.586-8.109L20,380.378v-33.877l372.138-65.712
	c5.439-0.96,9.069-6.148,8.109-11.586c-0.96-5.439-6.147-9.07-11.586-8.109L20,326.191v-32.156l398.018-71.017v143.365L20,429.758
	V400.687z M438.018,363.199V211.076c0-2.959-1.311-5.767-3.58-7.667c-2.269-1.9-5.265-2.698-8.176-2.178L20,273.719v-19.655
	l379.493-65.199c5.443-0.935,9.097-6.105,8.162-11.549c-0.935-5.443-6.104-9.101-11.549-8.162L51.549,228.351l123.121-87.585
	c6.086,24.498,28.257,42.712,54.611,42.712c31.029,0,56.273-25.244,56.273-56.273c0-19.698-10.182-37.054-25.55-47.111
	l17.787-12.678L456.96,169.903v190.28L438.018,363.199z"/>
<g>
</g>
<g>
</g>
<g>
</g>
<g>
</g>
<g>
</g>
<g>
</g>
<g>
</g>
<g>
</g>
<g>
</g>
<g>
</g>
<g>
</g>
<g>
</g>
<g>
</g>
<g>
</g>
<g>
</g>
</svg>
