<?xml version="1.0" encoding="UTF-8"?>
<svg width="24px" height="24px" viewBox="0 0 24 24" version="1.1" xmlns="http://www.w3.org/2000/svg" xmlns:xlink="http://www.w3.org/1999/xlink">
    <!-- Generator: Sketch 51.3 (57544) - http://www.bohemiancoding.com/sketch -->
    <title>0: Icons / Dark / Calendar</title>
    <desc>Created with Sketch.</desc>
    <defs></defs>
    <g id="0:-Icons-/-Dark-/-Calendar" stroke="none" stroke-width="1" fill="none" fill-rule="evenodd">
        <path d="M11.5,18 L13,18 L13,19.5 L11.5,19.5 L11.5,18 Z M11.5,21 L13,21 C13.828,21 14.5,20.328 14.5,19.5 L14.5,18 C14.5,17.172 13.828,16.5 13,16.5 L11.5,16.5 C10.672,16.5 10,17.172 10,18 L10,19.5 C10,20.328 10.672,21 11.5,21 L11.5,21 Z M5.5,18 L7,18 L7,19.5 L5.5,19.5 L5.5,18 Z M5.5,21 L7,21 C7.828,21 8.5,20.328 8.5,19.5 L8.5,18 C8.5,17.172 7.828,16.5 7,16.5 L5.5,16.5 C4.672,16.5 4,17.172 4,18 L4,19.5 C4,20.328 4.672,21 5.5,21 L5.5,21 Z M11.5,12 L13,12 L13,13.5 L11.5,13.5 L11.5,12 Z M11.5,15 L13,15 C13.828,15 14.5,14.328 14.5,13.5 L14.5,12 C14.5,11.172 13.828,10.5 13,10.5 L11.5,10.5 C10.672,10.5 10,11.172 10,12 L10,13.5 C10,14.328 10.672,15 11.5,15 L11.5,15 Z M5.5,12 L7,12 L7,13.5 L5.5,13.5 L5.5,12 Z M5.5,15 L7,15 C7.828,15 8.5,14.328 8.5,13.5 L8.5,12 C8.5,11.172 7.828,10.5 7,10.5 L5.5,10.5 C4.672,10.5 4,11.172 4,12 L4,13.5 C4,14.328 4.672,15 5.5,15 L5.5,15 Z M22,6 L2.5,6 L2.5,4.5 C2.5,3.672 3.172,3 4,3 L7,3 L7,3.75 C7,4.16475 7.33525,4.5 7.75,4.5 C8.16475,4.5 8.5,4.16475 8.5,3.75 L8.5,3 L16,3 L16,3.75 C16,4.16475 16.33525,4.5 16.75,4.5 C17.16475,4.5 17.5,4.16475 17.5,3.75 L17.5,3 L20.5,3 C21.328,3 22,3.672 22,4.5 L22,6 L22,6 Z M22,21 C22,21.828 21.328,22.5 20.5,22.5 L4,22.5 C3.172,22.5 2.5,21.828 2.5,21 L2.5,7.5 L22,7.5 L22,21 L22,21 Z M20.5,1.5 L17.5,1.5 L17.5,0.75 C17.5,0.336 17.16475,0 16.75,0 C16.33525,0 16,0.336 16,0.75 L16,1.5 L8.5,1.5 L8.5,0.75 C8.5,0.336 8.16475,0 7.75,0 C7.33525,0 7,0.336 7,0.75 L7,1.5 L4,1.5 C2.34325,1.5 1,2.84325 1,4.5 L1,21 C1,22.65675 2.34325,24 4,24 L20.5,24 C22.15675,24 23.5,22.65675 23.5,21 L23.5,4.5 C23.5,2.84325 22.15675,1.5 20.5,1.5 L20.5,1.5 Z M17.5,12 L19,12 L19,13.5 L17.5,13.5 L17.5,12 Z M17.5,15 L19,15 C19.828,15 20.5,14.328 20.5,13.5 L20.5,12 C20.5,11.172 19.828,10.5 19,10.5 L17.5,10.5 C16.672,10.5 16,11.172 16,12 L16,13.5 C16,14.328 16.672,15 17.5,15 L17.5,15 Z M17.5,18 L19,18 L19,19.5 L17.5,19.5 L17.5,18 Z M17.5,21 L19,21 C19.828,21 20.5,20.328 20.5,19.5 L20.5,18 C20.5,17.172 19.828,16.5 19,16.5 L17.5,16.5 C16.672,16.5 16,17.172 16,18 L16,19.5 C16,20.328 16.672,21 17.5,21 L17.5,21 Z" id="Fill-168" fill="#000000"></path>
    </g>
</svg>