<?xml version="1.0" encoding="UTF-8"?>
<svg width="30px" height="30px" viewBox="0 0 30 30" version="1.1" xmlns="http://www.w3.org/2000/svg" xmlns:xlink="http://www.w3.org/1999/xlink">
    <!-- Generator: Sketch 52.6 (67491) - http://www.bohemiancoding.com/sketch -->
    <title>Icone/Foncé/Carte</title>
    <desc>Created with Sketch.</desc>
    <defs>
        <polygon id="path-1" points="3.03030303e-05 0.130454545 29.7242424 0.130454545 29.7242424 21 3.03030303e-05 21"></polygon>
    </defs>
    <g id="Icone/Foncé/Carte" stroke="none" stroke-width="1" fill="none" fill-rule="evenodd">
        <g id="Group-6" transform="translate(0.000000, 5.000000)">
            <g id="Group-3">
                <mask id="mask-2" fill="white">
                    <use xlink:href="#path-1"></use>
                </mask>
                <g id="Clip-2"></g>
                <path d="M27.227,19.7272727 L27.2185152,19.7272727 L2.52942424,19.7272727 L2.52093939,19.7272727 C1.82154545,19.7272727 1.24730303,19.1322727 1.23942424,18.4036364 L1.23942424,9.52827273 L28.5121515,9.52827273 L28.5121515,18.3963182 C28.5045758,19.1322727 27.9303333,19.7272727 27.227,19.7272727 M2.52487879,1.40318182 L2.53336364,1.40318182 L27.2185152,1.40318182 C27.2221515,1.40318182 27.227,1.40318182 27.2309394,1.40318182 C27.9303333,1.40318182 28.5045758,1.99818182 28.5121515,2.72681818 L28.5121515,6.04545455 L1.23942424,6.04545455 L1.23942424,2.73413636 C1.24730303,1.9985 1.82154545,1.40318182 2.52487879,1.40318182 M27.2309394,0.130454545 L27.2163939,0.130454545 L2.53730303,0.130454545 L2.52093939,0.130454545 C1.15972727,0.130454545 0.0427575758,1.28831818 0.0273030303,2.72681818 L0.0273030303,8.71277273 C0.0112424242,8.76972727 3.03030303e-05,8.82922727 3.03030303e-05,8.89190909 C3.03030303e-05,8.95459091 0.0112424242,9.01377273 0.0273030303,9.07104545 L0.0273030303,18.4106364 C0.0427575758,19.8421364 1.15972727,21.0003182 2.517,21 L2.53336364,21 L27.2145758,21 L27.2309394,21 C28.5921515,21 29.7091212,19.8418182 29.7242727,18.4036364 L29.7242727,2.71981818 C29.7091212,1.28831818 28.5924545,0.130454545 27.2309394,0.130454545" id="Fill-1" fill="#4E5B59" mask="url(#mask-2)"></path>
            </g>
            <path d="M26.4413854,14 L20.5586146,14 C20.2502594,14 20,14.448 20,15 C20,15.552 20.2502594,16 20.5586146,16 L26.4413854,16 C26.7497406,16 27,15.552 27,15 C27,14.448 26.7497406,14 26.4413854,14" id="Fill-4" fill="#4E5B59"></path>
        </g>
    </g>
</svg>