<?xml version="1.0" encoding="UTF-8"?>
<svg width="24px" height="24px" viewBox="0 0 24 24" version="1.1" xmlns="http://www.w3.org/2000/svg" xmlns:xlink="http://www.w3.org/1999/xlink">
    <!-- Generator: Sketch 51.3 (57544) - http://www.bohemiancoding.com/sketch -->
    <title>0: Icons / Dark / Cart</title>
    <desc>Created with Sketch.</desc>
    <defs></defs>
    <g id="0:-Icons-/-Dark-/-Cart" stroke="none" stroke-width="1" fill="none" fill-rule="evenodd">
        <path d="M18,20.5 C17.172,20.5 16.5,21.172 16.5,22 C16.5,22.828 17.172,23.5 18,23.5 C18.828,23.5 19.5,22.828 19.5,22 C19.5,21.172 18.828,20.5 18,20.5 L18,20.5 Z M10.5,20.5 C9.672,20.5 9,21.172 9,22 C9,22.828 9.672,23.5 10.5,23.5 C11.328,23.5 12,22.828 12,22 C12,21.172 11.328,20.5 10.5,20.5 L10.5,20.5 Z M20.25,16 C20.25,16.828 19.578,17.5 18.75,17.5 L10.5,17.5 C9.672,17.5 9,16.828 9,16 L7.74975,8.5 L22.125,8.5 L20.25,16 L20.25,16 Z M7.4775,7 L5.60625,1 L0.75,1 C0.33525,1 0,1.336 0,1.75 C0,2.16475 0.33525,2.5 0.75,2.5 L4.5,2.5 L6.00825,7 L6,7 L7.5,16 C7.5,17.65675 8.84325,19 10.5,19 L18.75,19 C20.40675,19 21.75,17.65675 21.75,16 L24,7 L7.4775,7 L7.4775,7 Z" id="Fill-95" fill="#000000"></path>
    </g>
</svg>