<?xml version="1.0" encoding="UTF-8"?>
<svg width="24px" height="24px" viewBox="0 0 24 24" version="1.1" xmlns="http://www.w3.org/2000/svg" xmlns:xlink="http://www.w3.org/1999/xlink">
    <!-- Generator: Sketch 51.3 (57544) - http://www.bohemiancoding.com/sketch -->
    <title>0: Icons / Dark / Centered Text</title>
    <desc>Created with Sketch.</desc>
    <defs></defs>
    <g id="0:-Icons-/-Dark-/-Centered-Text" stroke="none" stroke-width="1" fill="none" fill-rule="evenodd">
        <path d="M18,20.5714286 L6,20.5714286 C5.526,20.5714286 5.14285714,20.9545714 5.14285714,21.4285714 C5.14285714,21.9025714 5.526,22.2857143 6,22.2857143 L18,22.2857143 C18.474,22.2857143 18.8571429,21.9025714 18.8571429,21.4285714 C18.8571429,20.9545714 18.474,20.5714286 18,20.5714286 L18,20.5714286 Z M23.1428571,13.7142857 L0.857142857,13.7142857 C0.383142857,13.7142857 0,14.0982857 0,14.5714286 C0,15.0454286 0.383142857,15.4285714 0.857142857,15.4285714 L23.1428571,15.4285714 C23.6168571,15.4285714 24,15.0454286 24,14.5714286 C24,14.0982857 23.6168571,13.7142857 23.1428571,13.7142857 L23.1428571,13.7142857 Z M4.28571429,6.85714286 C3.81171429,6.85714286 3.42857143,7.24114286 3.42857143,7.71428571 C3.42857143,8.18828571 3.81171429,8.57142857 4.28571429,8.57142857 L19.7142857,8.57142857 C20.1882857,8.57142857 20.5714286,8.18828571 20.5714286,7.71428571 C20.5714286,7.24114286 20.1882857,6.85714286 19.7142857,6.85714286 L4.28571429,6.85714286 L4.28571429,6.85714286 Z M0.857142857,1.71428571 L23.1428571,1.71428571 C23.6168571,1.71428571 24,1.33114286 24,0.857142857 C24,0.384 23.6168571,0 23.1428571,0 L0.857142857,0 C0.383142857,0 0,0.384 0,0.857142857 C0,1.33114286 0.383142857,1.71428571 0.857142857,1.71428571 L0.857142857,1.71428571 Z" id="Fill-197" fill="#000000"></path>
    </g>
</svg>