<svg xmlns="http://www.w3.org/2000/svg" xmlns:xlink="http://www.w3.org/1999/xlink" viewBox="0 0 24 18" version="1.1">
    <!-- Generator: Sketch 53.2 (72643) - https://sketchapp.com -->
    <title>Icone/Foncé/Chèque</title>
    <desc>Created with Sketch.</desc>
    <g id="Page-1" stroke="none" stroke-width="1" fill-rule="evenodd">
        <g id="iPhone-8" transform="translate(-32.000000, -94.000000)">
            <g id="Icone/Foncé/Chèque" transform="translate(32.000000, 93.000000)">
                <g id="Plan-de-travail-14">
                    <g id="Group" fill-rule="nonzero">
                        <path d="M1.89,18.16 L1.38,18.16 L1.38,17.65 C1.38,14.89 1.38,13.02 1.38,12.07 L0,12.07 L0,1 L0.48,1 C3.25,0.87 5.12,1.34 6.22,2.39 C6.91335811,3.10423792 7.27601069,4.07614685 7.22,5.07 L7.22,15.81 L7.14,16 C5.79415881,17.458977 3.87290277,18.2494366 1.89,18.16 Z M1,11.07 L2.37,11.07 L2.37,11.55 C2.37,12.2 2.37,14.07 2.37,17.14 C3.8398859,17.102264 5.23497683,16.4838217 6.25,15.42 L6.25,5.07 C6.30196404,4.32800277 6.03241016,3.59947878 5.51,3.07 C4.71,2.32 3.19,1.94 1,2 L1,11.07 Z" id="Shape"/>
                        <rect id="Rectangle" x="0" y="11.09" width="7.27" height="1"/>
                    </g>
                    <path d="M18.45,11.61 L9.16,11.61 C8.98326888,11.61 8.84,11.7532689 8.84,11.93 C8.84,12.1067311 8.98326888,12.25 9.16,12.25 L18.45,12.25 C18.6267311,12.25 18.77,12.1067311 18.77,11.93 C18.77,11.7532689 18.6267311,11.61 18.45,11.61 L18.45,11.61 Z" id="Path" fill-rule="nonzero"/>
                    <path d="M14.52,14.18 L9.16,14.18 C8.98326888,14.18 8.84,14.3232689 8.84,14.5 C8.84,14.6767311 8.98326888,14.82 9.16,14.82 L14.52,14.82 C14.6967311,14.82 14.84,14.6767311 14.84,14.5 C14.84,14.3232689 14.6967311,14.18 14.52,14.18 Z" id="Path" fill-rule="nonzero"/>
                    <path d="M9.16,7.11 L18.45,7.11 C18.564325,7.11000001 18.6699656,7.04900835 18.7271281,6.95000001 C18.7842906,6.85099166 18.7842906,6.72900834 18.7271281,6.62999999 C18.6699656,6.53099165 18.564325,6.46999999 18.45,6.47 L9.16,6.47 C8.98326888,6.47 8.84,6.61326888 8.84,6.79 C8.84,6.96673112 8.98326888,7.11 9.16,7.11 Z" id="Path" fill-rule="nonzero"/>
                    <path d="M9.16,9.68 L15.59,9.68 C15.7667311,9.68 15.91,9.53673112 15.91,9.36 C15.91,9.18326888 15.7667311,9.04 15.59,9.04 L9.16,9.04 C8.98326888,9.04 8.84,9.18326888 8.84,9.36 C8.84,9.53673112 8.98326888,9.68 9.16,9.68 Z" id="Path" fill-rule="nonzero"/>
                    <polygon id="Path" fill-rule="nonzero" points="23.08 18.55 3.26 18.55 3.26 17.55 22.08 17.55 22.08 3.86 6.36 3.86 6.36 2.86 23.08 2.86"/>
                </g>
            </g>
        </g>
    </g>
</svg>