<svg xmlns="http://www.w3.org/2000/svg" xmlns:xlink="http://www.w3.org/1999/xlink" width="35" height="21" viewBox="0 0 35 21">
  <defs>
    <clipPath id="clip-path">
      <path id="Combined_Shape" data-name="Combined Shape" d="M19.326,21a1.967,1.967,0,0,1-1.18-.434,1.928,1.928,0,0,1-.685-1.243l-.621-5.778L1.305,15.16,0,2.8,26.6,0l.933,9.009,4.66-.5a2.093,2.093,0,0,1,.249-.015,1.743,1.743,0,0,1,1.117.388,1.924,1.924,0,0,1,.685,1.242l.745,7.331a1.922,1.922,0,0,1-1.554,2.113L19.513,21Zm8.265-10.934-.621.062-.621.063-8.017.87a.88.88,0,0,0-.366.122l-.005,0a.679.679,0,0,0-.311.684l.063.31.124,1.243.621,5.778a1.358,1.358,0,0,0,.31.5,1.006,1.006,0,0,0,.56.187l13.92-1.429a.772.772,0,0,0,.546-.333.645.645,0,0,0,.075-.538l-.746-7.331a1.371,1.371,0,0,0-.31-.5.7.7,0,0,0-.5-.187h-.063ZM2.3,12.861h0l.124.994,14.292-1.491-.062-.312a2.359,2.359,0,0,1,.062-.683L2.3,12.861l-.124-1.243L26.348,9.071V9.1l.615-.066,0,.036h0V9.009l-.621.062L25.54,1.3,1.368,3.853l.808,7.765-.622.063,0,.033.6-.063.127,1.212.018,0ZM26.348,9.134h0V9.127Zm-6.463,7.828a.68.68,0,0,1-.684-.621l-.186-1.553a.575.575,0,0,1,.1-.444c.01-.018.019-.035.027-.053a.52.52,0,0,1,.434-.248l1.554-.187a1.194,1.194,0,0,1,.5.124.526.526,0,0,1,.248.435l.248,1.677a.7.7,0,0,1-.62.745l-1.554.124Zm-.125-2.174.125,1.3,1.305-.124-.124-1.3ZM3.992,8.2l12.854-1.35.131,1.236L4.122,9.432ZM20.88,8.139a1.831,1.831,0,0,1-.87-.931l-.311.062-.124-1.242h-.123l-.125-1.242.311-.063A2.122,2.122,0,0,1,20.321,3.6,3.909,3.909,0,0,1,23.49,3.17l-.124.62-.124.622a2.438,2.438,0,0,0-2.051.186.061.061,0,0,0-.062.063l1.117-.125.125,1.242L20.88,5.9,19.7,6.027,20.88,5.9l-1.305.124H19.7L20.942,5.9l1.491-.124.124,1.242L21.5,7.145a2.312,2.312,0,0,0,2.051-.311l.559,1.118a5.073,5.073,0,0,1-1.988.5A2.825,2.825,0,0,1,20.88,8.139ZM3.74,5.9l12.854-1.35.13,1.235L3.87,7.135Z" fill="none"/>
    </clipPath>
  </defs>
  <g id="chèque" transform="translate(0 1890.406)">
    <g id="Groupe_21066" data-name="Groupe 21066" transform="translate(12805.733 -24.285)">
      <g id="Icone-Up-paiement" transform="translate(-12805.733 -1866.121)">
        <g id="Groupe_127" data-name="Groupe 127">
          <path id="Combined_Shape-2" data-name="Combined Shape" d="M19.326,21a1.967,1.967,0,0,1-1.18-.434,1.928,1.928,0,0,1-.685-1.243l-.621-5.778L1.305,15.16,0,2.8,26.6,0l.933,9.009,4.66-.5a2.093,2.093,0,0,1,.249-.015,1.743,1.743,0,0,1,1.117.388,1.924,1.924,0,0,1,.685,1.242l.745,7.331a1.922,1.922,0,0,1-1.554,2.113L19.513,21Zm8.265-10.934-.621.062-.621.063-8.017.87a.88.88,0,0,0-.366.122l-.005,0a.679.679,0,0,0-.311.684l.063.31.124,1.243.621,5.778a1.358,1.358,0,0,0,.31.5,1.006,1.006,0,0,0,.56.187l13.92-1.429a.772.772,0,0,0,.546-.333.645.645,0,0,0,.075-.538l-.746-7.331a1.371,1.371,0,0,0-.31-.5.7.7,0,0,0-.5-.187h-.063ZM2.3,12.861h0l.124.994,14.292-1.491-.062-.312a2.359,2.359,0,0,1,.062-.683L2.3,12.861l-.124-1.243L26.348,9.071V9.1l.615-.066,0,.036h0V9.009l-.621.062L25.54,1.3,1.368,3.853l.808,7.765-.622.063,0,.033.6-.063.127,1.212.018,0ZM26.348,9.134h0V9.127Zm-6.463,7.828a.68.68,0,0,1-.684-.621l-.186-1.553a.575.575,0,0,1,.1-.444c.01-.018.019-.035.027-.053a.52.52,0,0,1,.434-.248l1.554-.187a1.194,1.194,0,0,1,.5.124.526.526,0,0,1,.248.435l.248,1.677a.7.7,0,0,1-.62.745l-1.554.124Zm-.125-2.174.125,1.3,1.305-.124-.124-1.3ZM3.992,8.2l12.854-1.35.131,1.236L4.122,9.432ZM20.88,8.139a1.831,1.831,0,0,1-.87-.931l-.311.062-.124-1.242h-.123l-.125-1.242.311-.063A2.122,2.122,0,0,1,20.321,3.6,3.909,3.909,0,0,1,23.49,3.17l-.124.62-.124.622a2.438,2.438,0,0,0-2.051.186.061.061,0,0,0-.062.063l1.117-.125.125,1.242L20.88,5.9,19.7,6.027,20.88,5.9l-1.305.124H19.7L20.942,5.9l1.491-.124.124,1.242L21.5,7.145a2.312,2.312,0,0,0,2.051-.311l.559,1.118a5.073,5.073,0,0,1-1.988.5A2.825,2.825,0,0,1,20.88,8.139ZM3.74,5.9l12.854-1.35.13,1.235L3.87,7.135Z" fill="none"/>
        </g>
      </g>
    </g>
  </g>
</svg>
