
<?xml version="1.0" encoding="UTF-8"?>
<svg viewBox="0 0 25 18" version="1.1" xmlns="http://www.w3.org/2000/svg" xmlns:xlink="http://www.w3.org/1999/xlink">
    <!-- Generator: Sketch 53.2 (72643) - https://sketchapp.com -->
    <g id="Page-1" stroke="none" stroke-width="1" fill="none" fill-rule="evenodd">
        <g id="04_01-Dashboard--Dej-Factu" >
            <g id="Nav-Bar" >
                <g id="Icone/Foncé/Chèque">
                    <g id="Chèque">
                        <g id="0:-Icons-/-Dark-/-Ragged-Text">
                            <path d="M9.64285714,5.14285714 L0.357142857,5.14285714 C0.159642857,5.14285714 0,5.28685714 0,5.46428571 C0,5.64203571 0.159642857,5.78571429 0.357142857,5.78571429 L9.64285714,5.78571429 C9.84035714,5.78571429 10,5.64203571 10,5.46428571 C10,5.28685714 9.84035714,5.14285714 9.64285714,5.14285714 L9.64285714,5.14285714 Z M5.71428571,7.71428571 L0.357142857,7.71428571 C0.159642857,7.71428571 0,7.85796429 0,8.03571429 C0,8.21346429 0.159642857,8.35714286 0.357142857,8.35714286 L5.71428571,8.35714286 C5.91178571,8.35714286 6.07142857,8.21346429 6.07142857,8.03571429 C6.07142857,7.85796429 5.91178571,7.71428571 5.71428571,7.71428571 L5.71428571,7.71428571 Z M0.357142857,0.642857143 L9.64285714,0.642857143 C9.84035714,0.642857143 10,0.499178571 10,0.321428571 C10,0.144 9.84035714,0 9.64285714,0 L0.357142857,0 C0.159642857,0 0,0.144 0,0.321428571 C0,0.499178571 0.159642857,0.642857143 0.357142857,0.642857143 L0.357142857,0.642857143 Z M0.357142857,3.21428571 L6.78571429,3.21428571 C6.98321429,3.21428571 7.14285714,3.07060714 7.14285714,2.89285714 C7.14285714,2.71542857 6.98321429,2.57142857 6.78571429,2.57142857 L0.357142857,2.57142857 C0.159642857,2.57142857 0,2.71542857 0,2.89285714 C0,3.07060714 0.159642857,3.21428571 0.357142857,3.21428571 L0.357142857,3.21428571 Z" id="Fill-198"></path>
                        </g>
                        <path d="M-9.09494702e-13,0.0142814073 C4.18181818,-0.146453553 6.27272727,1.04959623 6.27272727,3.60243075 C6.27272727,6.15526527 6.27272727,9.67112173 6.27272727,14.1500001 C5.0457315,15.5103175 3.41703593,16.1904762 1.38664059,16.1904762 C1.403043,12.8046965 1.403043,10.7745259 1.38664059,10.0999645 L-9.09494702e-13,10.0999645 L-9.09494702e-13,0.0142814073 Z" id="Path-2" stroke="#4E5B59"></path>
                        <path d="M1.6969697,10.1190476 L6.27272727,10.1190476" id="Line-2" stroke="#4E5B59" stroke-linecap="square"></path>
                        <polyline id="Path-3" stroke="#4E5B59" points="5.92140531 2.20518107 23.4303587 2.20518107 23.4303587 16.4956974 4.28243889 16.4956974 4.28243889 15.347065"></polyline>
                    </g>
                </g>
            </g>
        </g>
    </g>
</svg>