<?xml version="1.0" encoding="UTF-8"?>
<svg width="24px" height="24px" viewBox="0 0 24 24" version="1.1" xmlns="http://www.w3.org/2000/svg" xmlns:xlink="http://www.w3.org/1999/xlink">
    <!-- Generator: Sketch 51.3 (57544) - http://www.bohemiancoding.com/sketch -->
    <title>0: Icons / Dark / Clock</title>
    <desc>Created with Sketch.</desc>
    <defs></defs>
    <g id="0:-Icons-/-Dark-/-Clock" stroke="none" stroke-width="1" fill="none" fill-rule="evenodd">
        <path d="M19.5,12.75 L21,12.75 L21,11.25 L19.5,11.25 L19.5,12.75 Z M12,22.5 C6.201,22.5 1.5,17.799 1.5,12 C1.5,6.20175 6.201,1.5 12,1.5 C17.799,1.5 22.5,6.20175 22.5,12 C22.5,17.799 17.799,22.5 12,22.5 L12,22.5 Z M12,0 C5.37225,0 0,5.373 0,12 C0,18.62775 5.37225,24 12,24 C18.62775,24 24,18.62775 24,12 C24,5.373 18.62775,0 12,0 L12,0 Z M16.557,6.20475 L17.595,7.245 L18.633,6.20475 L17.595,5.16525 L16.557,6.20475 L16.557,6.20475 Z M16.33725,17.0835 L17.39775,18.144 L18.45825,17.0835 L17.39775,16.023 L16.33725,17.0835 L16.33725,17.0835 Z M12,3 C11.586,3 11.25,3.33525 11.25,3.75 L11.25,11.26725 L5.25,11.26725 C4.83525,11.26725 4.5,11.604 4.5,12.018 C4.5,12.432 4.83525,12.76725 5.25,12.76725 L12,12.76725 C12.41475,12.76725 12.75,12.432 12.75,12.018 L12.75,3.75 C12.75,3.33525 12.41475,3 12,3 L12,3 Z M7.269,6.24225 L6.2085,5.18175 L5.148,6.24225 L6.2085,7.30275 L7.269,6.24225 L7.269,6.24225 Z M5.04975,17.124 L6.08775,18.16425 L7.12575,17.124 L6.08775,16.08375 L5.04975,17.124 L5.04975,17.124 Z M11.25,21 L12.75,21 L12.75,19.5 L11.25,19.5 L11.25,21 Z" id="Fill-166" fill="#000000"></path>
    </g>
</svg>