<?xml version="1.0" encoding="UTF-8"?>
<svg xmlns="http://www.w3.org/2000/svg" xmlns:xlink="http://www.w3.org/1999/xlink" width="30px" height="30px" viewBox="0 0 30 30" version="1.1">
    <!-- Generator: Sketch 63.1 (92452) - https://sketch.com -->
    <title> Icone / V2 /croix</title>
    <desc>Created with Sketch.</desc>
    <g id="-Icone-/-V2-/croix" stroke="none" stroke-width="1" fill="none" fill-rule="evenodd">
        <path d="M30.3552538,29.455251 L15.9622538,15.156251 L30.2652538,0.853250962 C30.4602538,0.658250962 30.4602538,0.342250962 30.2652538,0.146250962 C30.0702538,-0.0487490385 29.7532538,-0.0487490385 29.5582538,0.146250962 L15.2522538,14.452251 L0.852253846,0.145250962 C0.656253846,-0.0487490385 0.339253846,-0.0487490385 0.145253846,0.147250962 C-0.0497461539,0.344250962 -0.0477461539,0.660250962 0.147253846,0.854250962 L14.5452538,15.159251 L0.249253846,29.456251 C0.0532538461,29.651251 0.0532538461,29.968251 0.249253846,30.163251 C0.346253846,30.261251 0.474253846,30.309251 0.602253846,30.309251 C0.730253846,30.309251 0.858253846,30.261251 0.956253846,30.163251 L15.2552538,15.863251 L29.6502538,30.164251 C29.7482538,30.261251 29.8762538,30.309251 30.0022538,30.309251 C30.1312538,30.309251 30.2592538,30.261251 30.3572538,30.162251 C30.5522538,29.966251 30.5502538,29.649251 30.3552538,29.455251" id="Fill-1" fill="#4E5B59" fill-rule="nonzero"/>
    </g>
</svg>
