<?xml version="1.0" encoding="UTF-8"?>
<svg width="24px" height="24px" viewBox="0 0 24 24" version="1.1" xmlns="http://www.w3.org/2000/svg" xmlns:xlink="http://www.w3.org/1999/xlink">
    <!-- Generator: Sketch 51.3 (57544) - http://www.bohemiancoding.com/sketch -->
    <title>0: Icons / Dark / Cocktail</title>
    <desc>Created with Sketch.</desc>
    <defs></defs>
    <g id="0:-Icons-/-Dark-/-Cocktail" stroke="none" stroke-width="1" fill="none" fill-rule="evenodd">
        <path d="M12.0093854,12.858177 L2.66139585,1.71635392 L20.5654484,1.71635392 L12.0093854,12.858177 L12.0093854,12.858177 Z M22.8529504,1.50465928 C23.0312196,1.34695963 23.1512084,1.12155198 23.1512084,0.859290611 C23.1512084,0.489896324 22.9232296,0.182210595 22.6078303,0.0613646686 C22.4844132,0.00908380669 22.3524254,-0.00634333291 22.2204377,0.0022273002 L0.913843755,0.0022273002 C0.675580155,-0.0131998394 0.433888301,0.062221732 0.251333816,0.244776217 C-0.0837779386,0.581602098 -0.0837779386,1.12755143 0.251333816,1.46523437 L11.1523221,14.5723036 L11.1523221,22.2858734 L7.72406882,22.2858734 C7.25011281,22.2858734 6.86700551,22.6698377 6.86700551,23.1429367 C6.86700551,23.6168927 7.25011281,24 7.72406882,24 L16.2947019,24 C16.7686579,24 17.1517652,23.6168927 17.1517652,23.1429367 C17.1517652,22.6698377 16.7686579,22.2858734 16.2947019,22.2858734 L12.8664487,22.2858734 L12.8664487,14.5723036 L22.8529504,1.50465928 L22.8529504,1.50465928 Z" id="Fill-154" fill="#000000"></path>
    </g>
</svg>