<?xml version="1.0" encoding="UTF-8"?>
<svg width="24px" height="24px" viewBox="0 0 24 24" version="1.1" xmlns="http://www.w3.org/2000/svg" xmlns:xlink="http://www.w3.org/1999/xlink">
    <!-- Generator: Sketch 51.3 (57544) - http://www.bohemiancoding.com/sketch -->
    <title>0: Icons / Dark / Code</title>
    <desc>Created with Sketch.</desc>
    <defs></defs>
    <g id="0:-Icons-/-Dark-/-Code" stroke="none" stroke-width="1" fill="none" fill-rule="evenodd">
        <path d="M23.770915,12.0294308 L18.979208,8.15591438 C18.6640799,7.84878443 18.1529965,7.84878443 17.8386682,8.15591438 C17.52354,8.46304432 17.52354,8.96053084 17.8386682,9.2684606 L21.9905211,12.6252949 L17.8386682,15.982929 C17.52354,16.2892591 17.52354,16.7875455 17.8386682,17.0946754 C18.1529965,17.4026052 18.6640799,17.4026052 18.979208,17.0946754 L23.770915,13.221159 C23.9388767,13.0571964 24.0100604,12.839646 23.998863,12.6252949 C24.0100604,12.4109438 23.9388767,12.1925936 23.770915,12.0294308 L23.770915,12.0294308 Z M6.16133183,15.9821292 L2.00947889,12.6252949 L6.16133183,9.2684606 C6.47645995,8.96053084 6.47645995,8.4622445 6.16133183,8.15591438 C5.84700353,7.84798462 5.33592011,7.84798462 5.020792,8.15591438 L0.229085012,12.0294308 C0.0611233247,12.1925936 -0.0100604379,12.4109438 0.00113700794,12.6252949 C-0.0100604379,12.839646 0.0611233247,13.0571964 0.229085012,13.221159 L5.020792,17.0946754 C5.33592011,17.4026052 5.84700353,17.4026052 6.16133183,17.0946754 C6.47645995,16.7875455 6.47645995,16.2892591 6.16133183,15.9821292 L6.16133183,15.9821292 Z M17.5667302,2.10529456 C17.1836176,1.888544 16.6949291,2.01731463 16.4741794,2.39162924 L6.47645995,21.6568347 C6.25491049,22.0319492 6.34688951,22.6054184 6.76919318,22.7277905 C7.2850755,22.8773563 7.64099431,22.8165702 7.86174396,22.4414558 L17.8594634,3.17545045 C18.0802131,2.80033601 17.949043,2.32204512 17.5667302,2.10529456 L17.5667302,2.10529456 Z" id="Fill-99" fill="#000000"></path>
    </g>
</svg>