<svg xmlns="http://www.w3.org/2000/svg" xmlns:xlink="http://www.w3.org/1999/xlink" width="23px" height="27px" viewBox="0 0 23 27" version="1.1">
    <!-- Generator: sketchtool 55.2 (78181) - https://sketchapp.com -->
    <title>ECC13C0D-A467-4D17-8132-19B92893BEB7@1,5x</title>
    <desc>Created with sketchtool.</desc>
    <defs>
        <polygon id="path-cf" points="3.18754615e-05 0.0447805256 22.5123648 0.0447805256 22.5123648 26.7749992 3.18754615e-05 26.7749992"/>
    </defs>
    <g class="uncolored" id="Financeur_Cadhoc_extranet-/-UI" stroke="none" stroke-width="1" fill="none" fill-rule="evenodd">
        <g class="uncolored" id="01_08_Commande-EC-Cadhoc-Récapitulatif" transform="translate(-133.000000, -522.000000)">
            <g class="uncolored" id="Illustration/Foncé/Réglages-Copy" transform="translate(123.000000, 522.000000)">
                <g class="uncolored" id="Group-16" transform="translate(10.184211, 0.225000)">
                    <path class="uncolored" d="M11.4445503,19.6924641 L17.5212218,19.6924641 C17.8195323,19.6924641 17.8195323,20.1322251 17.5212218,20.1322251 L11.4445503,20.1322251 C11.1462398,20.1325359 11.1462398,19.6924641 11.4445503,19.6924641 M11.4445503,21.375 L17.5212216,21.375 C19.5069612,21.375 19.5069612,18.45 17.5212216,18.45 L11.4445503,18.45 C9.46234289,18.45 9.46234289,21.375 11.4445503,21.375" id="Fill-1" fill="#4E5B59"/>
                    <path class="uncolored" d="M11.4445503,13.1677752 L17.5212218,13.1677752 C17.8195323,13.1677752 17.8195323,13.6044259 17.5212218,13.6044259 L11.4445503,13.6044259 C11.1462398,13.6044259 11.1462398,13.1677752 11.4445503,13.1677752 M11.4445503,14.85 L17.5212216,14.85 C19.5069612,14.85 19.5069612,11.925 17.5212216,11.925 L11.4445503,11.925 C9.46234289,11.925 9.46234289,14.85 11.4445503,14.85" id="Fill-3" fill="#4E5B59"/>
                    <path class="uncolored" d="M11.4445503,6.64425123 L17.5212218,6.64425123 C17.8195323,6.64425123 17.8195323,7.08043817 17.5212218,7.08043817 L11.4445503,7.08043817 C11.1462398,7.08043817 11.1462398,6.64425123 11.4445503,6.64425123 M11.4445503,8.325 L17.5212216,8.325 C19.5069612,8.325 19.5069612,5.4 17.5212216,5.4 L11.4445503,5.4 C9.46234289,5.4 9.46234289,8.325 11.4445503,8.325" id="Fill-5" fill="#4E5B59"/>
                    <path d="M4.95869966,9.38356908 C5.15912078,9.68493239 5.56687409,9.76625785 5.86931581,9.56294419 L8.93388306,5.07036825 C9.41305079,4.35253988 8.31879756,3.628153 7.83995892,4.34598137 L5.50237074,7.839697 L4.60557674,6.49913857 C4.12640901,5.78491737 3.03248488,6.51258351 3.51494359,7.22713263 L4.95869966,9.38356908 Z" id="Fill-7" fill="#C50E1F"/>
                    <path d="M4.95869966,15.9118117 C5.15912078,16.2096673 5.56687409,16.2910199 5.86931581,16.0879664 L8.93388306,11.5938908 C9.41305079,10.8794311 8.31879756,10.1511941 7.83995892,10.8725424 L5.50237074,14.3674243 L4.60557674,13.0264184 C4.12640901,12.3119588 3.03248488,13.0365874 3.51494359,13.7546554 L4.95869966,15.9118117 Z" id="Fill-9" fill="#C50E1F"/>
                    <path d="M4.95869966,22.4361055 C5.15912078,22.734002 5.56687409,22.8150377 5.86931581,22.6155652 L8.93388306,18.1175905 C9.41305079,17.4030326 8.31879756,16.6779762 7.83995892,17.396143 L5.50237074,20.8915056 L4.60557674,19.5503152 C4.12640901,18.8354292 3.03248488,19.5637665 3.51494359,20.2786525 L4.95869966,22.4361055 Z" id="Fill-11" fill="#C50E1F"/>
                    <path class="uncolored" d="M1.27377537,1.81829297 C1.27377537,1.54566514 1.49435358,1.31566523 1.7774077,1.31566523 L20.7356585,1.31566523 C21.0120188,1.31566523 21.2357846,1.54216583 21.2357846,1.81829297 L21.2357846,25.0012021 C21.2357846,25.2773293 21.0120188,25.5006487 20.7356585,25.5006487 L1.77708894,25.5006487 C1.50391622,25.5006487 1.27345662,25.2801923 1.27345662,25.0012021 L1.27345662,1.81829297 L1.27377537,1.81829297 Z M1.77708889,26.7750318 L20.7353388,26.7750318 C21.7094529,26.7750318 22.5123958,25.9768717 22.5123958,25.0012013 L22.5123958,1.8182929 C22.5123958,0.842940625 21.7094529,0.0447805256 20.7353388,0.0447805256 L1.77708889,0.0447805256 C0.802974769,0.0447805256 3.18754615e-05,0.83626013 3.18754615e-05,1.8182929 L3.18754615e-05,25.0012013 C3.18754615e-05,25.9698731 0.796599677,26.7750318 1.77708889,26.7750318 L1.77708889,26.7750318 Z" id="Fill-13" fill="#4E5B59" mask="url(#mask-2)"/>
                </g>
            </g>
        </g>
    </g>
</svg>