<svg xmlns="http://www.w3.org/2000/svg" xmlns:xlink="http://www.w3.org/1999/xlink" width="33px" height="28px" viewBox="0 0 33 28" version="1.1">
    <!-- Generator: sketchtool 55.2 (78181) - https://sketchapp.com -->
    <title>1E9CFB73-6339-4A98-8FB6-2E7E957530AF@1,5x</title>
    <desc>Created with sketchtool.</desc>
    <g id="Financeur_Cadhoc_extranet-/-UI" stroke="none" stroke-width="1" fill="none" fill-rule="evenodd">
        <g id="01_08_Commande-EC-Cadhoc-Récapitulatif" transform="translate(-127.000000, -465.000000)">
            <g id="Illustration/Foncé/Réglages" transform="translate(122.000000, 466.000000)">
                <ellipse id="Oval" fill="#FFFFFF" cx="10.4105263" cy="7.65" rx="3.16842105" ry="3.15"/>
                <g id="Group-4" transform="translate(5.884211, -0.225000)">
                    <g id="Group-3">
                        <polygon id="Clip-2" points="0 0 31.4578947 0 31.4578947 27 0 27"/>
                        <path d="M15.7289474,16.4185438 C17.0924724,16.4185438 18.1756726,17.5476534 18.1756726,18.9689688 C18.1756726,20.3902842 17.0924724,21.5193938 15.7289474,21.5193938 C14.3654224,21.5193938 13.2822221,20.3902842 13.2822221,18.9689688 C13.2822221,17.5476534 14.3654224,16.4185438 15.7289474,16.4185438 M26.9139775,10.9533468 C28.2775025,10.9533468 29.3607027,12.0824564 29.3607027,13.5037718 C29.3607027,14.9250873 28.2775025,16.0541968 26.9139775,16.0541968 C25.5504524,16.0541968 24.4672522,14.9250873 24.4672522,13.5037718 C24.4672522,12.0824564 25.5504524,10.9533468 26.9139775,10.9533468 M4.54391815,5.48815026 C5.90744316,5.48815026 6.99064337,6.61725985 6.99064337,8.03857527 C6.99064337,9.45989069 5.90744316,10.5890003 4.54391815,10.5890003 C3.18039313,10.5890003 2.09719292,9.45989069 2.09719292,8.03857527 C2.09719292,6.61725985 3.18039313,5.48815026 4.54391815,5.48815026 M26.9031411,0 C26.3239663,0.00655823578 25.8590885,0.500976345 25.8653801,1.10469838 L25.8653801,1.11599312 L25.8653801,8.90389812 C23.8726972,9.40268838 22.3700584,11.2790725 22.3700584,13.5037718 C22.3700584,15.7288355 23.8726972,17.6048553 25.8653801,18.1036455 L25.8653801,25.8915505 C25.8573409,26.4952726 26.3201214,26.9915124 26.8992962,27 C27.4781215,27.0082723 27.9545338,26.526242 27.9625731,25.92252 L27.9625731,25.8915505 L27.9625731,18.1036455 C29.955256,17.6048553 31.4578947,15.7288355 31.4578947,13.5037718 C31.4578947,11.2790725 29.955256,9.40268838 27.9625731,8.90389812 L27.9625731,1.11599312 C27.9744572,0.512271084 27.5151719,0.0131164716 26.9359971,0.000364346432 C26.9248121,0 26.9139766,0 26.9031411,0 M14.6803509,1.10469838 C14.6803509,1.10712736 14.6803509,5.52859277 14.6803509,14.3690946 C12.6873185,14.8678849 11.1850292,16.744269 11.1850292,18.9689683 C11.1850292,21.1936676 12.6873185,23.0704161 14.6803509,23.568842 L14.6803509,25.8915505 C14.6723116,26.4952726 15.1350922,26.9915124 15.714267,27 C16.2930923,27.0082723 16.7695046,26.526242 16.7775439,25.92252 L16.7775439,23.568842 C18.7702267,23.0704161 20.2728655,21.1936676 20.2728655,18.9689683 C20.2728655,16.744269 18.7702267,14.8678849 16.7775439,14.3690946 L16.7775439,1.11599312 C16.789428,0.512271084 16.3301427,0.0131164716 15.7506184,0.000364346432 C15.7397829,0 15.7289474,0 15.7181119,0 C15.1389371,0.00655823578 14.6740593,0.500976345 14.6803509,1.10469838 Z M3.49532165,1.10469838 C3.49532165,1.10712736 3.49532165,1.88512844 3.49532165,3.43870163 C1.50228925,3.93749189 0,5.81387602 0,8.03857534 C0,10.2632747 1.50228925,12.1396588 3.49532165,12.638449 L3.49532165,25.8915505 C3.48728241,26.4952726 3.950063,26.9915124 4.5292378,27 C5.10806306,27.0082723 5.5844754,26.526242 5.59251464,25.92252 C5.59251464,25.9157188 5.59251464,21.4876952 5.59251464,12.638449 C7.58554705,12.1396588 9.0878363,10.2632747 9.0878363,8.03857534 C9.0878363,5.81387602 7.58554705,3.93749189 5.59251464,3.43870163 L5.59251464,1.11599312 C5.60474827,0.512271084 5.14476394,0.0131164716 4.56593867,0.000364346432 C4.55475364,0 4.54391815,0 4.53308265,0 C3.95390785,0.00655823578 3.48903007,0.500976345 3.49532165,1.10469838 Z" id="Fill-1" fill="#4E5B59"/>
                    </g>
                    <path d="M27.0447368,18.225 C29.6070474,18.225 31.6842105,16.1599134 31.6842105,13.6125 C31.6842105,11.0650866 29.6070474,9 27.0447368,9 C24.4824263,9 22.4052632,11.0650866 22.4052632,13.6125 C22.4052632,16.1599134 24.4824263,18.225 27.0447368,18.225 Z M27.0447368,16.65 C25.4823524,16.65 24.2157895,15.3908009 24.2157895,13.8375 C24.2157895,12.2841991 25.4823524,11.025 27.0447368,11.025 C28.6071213,11.025 29.8736842,12.2841991 29.8736842,13.8375 C29.8736842,15.3908009 28.6071213,16.65 27.0447368,16.65 Z" id="Oval-2-Copy-2" fill="#C50E1F" fill-rule="nonzero"/>
                    <path d="M4.63947368,12.6 C7.20178425,12.6 9.27894737,10.5349134 9.27894737,7.9875 C9.27894737,5.44008659 7.20178425,3.375 4.63947368,3.375 C2.07716312,3.375 0,5.44008659 0,7.9875 C0,10.5349134 2.07716312,12.6 4.63947368,12.6 Z M4.63947368,11.025 C3.07708919,11.025 1.81052632,9.76580086 1.81052632,8.2125 C1.81052632,6.65919914 3.07708919,5.4 4.63947368,5.4 C6.20185817,5.4 7.46842105,6.65919914 7.46842105,8.2125 C7.46842105,9.76580086 6.20185817,11.025 4.63947368,11.025 Z" id="Oval-2-Copy-3" fill="#C50E1F" fill-rule="nonzero"/>
                    <path d="M15.7289474,23.625 C18.2912579,23.625 20.3684211,21.5599134 20.3684211,19.0125 C20.3684211,16.4650866 18.2912579,14.4 15.7289474,14.4 C13.1666368,14.4 11.0894737,16.4650866 11.0894737,19.0125 C11.0894737,21.5599134 13.1666368,23.625 15.7289474,23.625 Z M15.7289474,22.05 C14.1665629,22.05 12.9,20.7908009 12.9,19.2375 C12.9,17.6841991 14.1665629,16.425 15.7289474,16.425 C17.2913319,16.425 18.5578947,17.6841991 18.5578947,19.2375 C18.5578947,20.7908009 17.2913319,22.05 15.7289474,22.05 Z" id="Oval-2-Copy-4" fill="#C50E1F" fill-rule="nonzero"/>
                </g>
            </g>
        </g>
    </g>
</svg>