<svg xmlns="http://www.w3.org/2000/svg" xmlns:xlink="http://www.w3.org/1999/xlink" width="30px" height="31px" viewBox="0 0 30 31" version="1.1">
    <!-- Generator: sketchtool 55.2 (78181) - https://sketchapp.com -->
    <title>9AFCD8D9-C06C-4D8E-A1E6-B12CB3974AF9@1,5x</title>
    <desc>Created with sketchtool.</desc>
    <defs>
        <polygon id="path-msk" points="0.000144578313 3.64705882e-05 29.6425301 3.64705882e-05 29.6425301 31 0.000144578313 31"/>
    </defs>
    <g id="Financeur_Cadhoc_extranet-/-UI" stroke="none" stroke-width="1" fill="none" fill-rule="evenodd">
        <g id="01_08_Commande-EC-Cadhoc-Récapitulatif" transform="translate(-125.000000, -347.000000)">
            <g id="Group-msk" transform="translate(125.000000, 347.000000)">
                <g>
                    <g id="Group-msk">
                        <mask id="mask-msk" fill="white">
                            <use xlink:href="#path-msk"/>
                        </mask>
                        <g id="Clip-msk"/>
                        <path d="M26.5322169,28.8118012 L3.11053012,28.8118012 C2.49607229,28.8118012 2.17077108,28.1553306 2.17077108,27.5353306 L2.17077108,12.4000365 L27.4719759,12.4000365 L27.4719759,27.5353306 C27.4719759,28.1553306 27.1463133,28.8118012 26.5322169,28.8118012 L26.5322169,28.8118012 Z M3.11053012,5.47062471 L5.06233735,5.47062471 L5.06233735,5.90827176 C5.10028916,6.91449529 5.93956627,7.69934235 6.93715663,7.66068353 C6.95053012,7.66031882 6.96426506,7.65958941 6.97763855,7.65886 L9.11053012,7.65886 C10.0275181,7.70007176 10.8046265,6.98306 10.8454699,6.05743647 C10.8472771,6.00783647 10.8472771,5.95787176 10.8454699,5.90827176 L10.8454699,5.47062471 L18.7972771,5.47062471 L18.7972771,5.90827176 C18.7560723,6.83389529 19.4666747,7.61764824 20.3840241,7.65886 C20.4335422,7.66104824 20.4830602,7.66104824 20.5318554,7.65886 L22.664747,7.65886 C23.6608916,7.71976588 24.5178795,6.95461294 24.578241,5.94911882 C24.5793253,5.93562471 24.5800482,5.92176588 24.5804096,5.90827176 L24.5804096,5.47062471 L26.5322169,5.47062471 C27.0089639,5.42613059 27.431494,5.78062471 27.4752289,6.26167176 C27.4813735,6.32622471 27.4799277,6.39114235 27.4719759,6.45533059 L27.4719759,10.2118012 L2.17077108,10.2118012 L2.17077108,6.45533059 C2.10860241,5.97610706 2.44366265,5.53663647 2.91860241,5.47427176 C2.98221687,5.46588353 3.04655422,5.46442471 3.11053012,5.47062471 L3.11053012,5.47062471 Z M7.23101205,5.47062471 L8.67679518,5.47062471 L8.67679518,2.18827176 L7.23101205,2.18827176 L7.23101205,5.47062471 Z M20.9659518,5.47062471 L22.4117349,5.47062471 L22.4117349,2.18827176 L20.9659518,2.18827176 L20.9659518,5.47062471 Z M26.5322169,3.28238941 L24.5804096,3.28238941 L24.5804096,1.64121294 C24.5804096,0.620036471 23.6767952,3.64705882e-05 22.664747,3.64705882e-05 L20.5318554,3.64705882e-05 C19.5201687,3.64705882e-05 18.7972771,0.620036471 18.7972771,1.64121294 L18.7972771,3.28238941 L10.8454699,3.28238941 L10.8454699,1.64121294 C10.8454699,0.620036471 10.1225783,3.64705882e-05 9.11053012,3.64705882e-05 L6.97763855,3.64705882e-05 C5.96595181,3.64705882e-05 5.06233735,0.620036471 5.06233735,1.64121294 L5.06233735,3.28238941 L3.11053012,3.28238941 C1.43414458,3.24081294 0.0418554217,4.57855412 0.00101204819,6.27006 C-0.00043373494,6.33169529 0.000144578313,6.39369529 0.00209638554,6.45533059 L0.00209638554,27.5353306 C0.00209638554,29.35886 1.3033012,31.0000365 3.11053012,31.0000365 L26.5322169,31.0000365 C28.3394458,31.0000365 29.6406506,29.35886 29.6406506,27.5353306 L29.6406506,6.45533059 C29.701012,4.76418941 28.391494,3.34438941 26.7158313,3.28348353 C26.6543855,3.28129529 26.5933012,3.28093059 26.5322169,3.28238941 L26.5322169,3.28238941 Z" id="Fill-1" fill="#4E5B59" mask="url(#mask-msk)"/>
                    </g>
                    <path d="M16.5924578,20.9339353 C16.3419759,21.1957941 16.2226988,21.5579471 16.2671566,21.9186412 L16.5924578,23.7421706 L14.9659518,22.9033471 C14.654747,22.7133353 14.264747,22.7133353 13.9539036,22.9033471 L12.3273976,23.7421706 L12.6526988,21.9186412 C12.6971566,21.5579471 12.5775181,21.1957941 12.3273976,20.9339353 L11.0261928,19.6574647 L12.8334217,19.4021706 C13.1829398,19.3394412 13.4800482,19.1078529 13.6286024,18.7825353 L14.4599277,17.1413588 L15.2908916,18.7825353 C15.4398072,19.1078529 15.7365542,19.3394412 16.0864337,19.4021706 L17.8936627,19.6574647 L16.5924578,20.9339353 Z M20.3876386,17.8339353 L16.9539036,17.3237118 L15.4358313,14.1868765 C15.1748675,13.6431 14.5260723,13.4158882 13.9871566,13.6792059 C13.767759,13.7864294 13.5902892,13.9655 13.4836627,14.1868765 L11.9659518,17.3237118 L8.53221687,17.8339353 C7.93908434,17.9174529 7.52522892,18.4703471 7.60763855,19.0688294 C7.64053012,19.3058882 7.7493253,19.5254412 7.91775904,19.6943 L10.4113735,22.1009941 L9.83342169,25.5657 C9.75209639,25.9665118 9.90679518,26.3782647 10.2306506,26.6237118 C10.5660723,26.8746294 11.0120964,26.9165706 11.3876386,26.7327588 L14.4599277,25.0915824 L17.5322169,26.7327588 C17.9092048,26.9085471 18.3505301,26.8669706 18.6888434,26.6237118 C19.0126988,26.3782647 19.1673976,25.9665118 19.0860723,25.5657 L18.5081205,22.1009941 L21.0017349,19.6943 C21.4267952,19.2683235 21.4293253,18.5757471 21.0075181,18.1468529 C20.8401687,17.9769 20.6222169,17.8671235 20.3876386,17.8339353 L20.3876386,17.8339353 Z" id="Fill-4" fill="#C50E1F"/>
                </g>
            </g>
        </g>
    </g>
</svg>