<?xml version="1.0" encoding="UTF-8"?>
<svg width="30px" height="31px" viewBox="0 0 30 31" version="1.1" xmlns="http://www.w3.org/2000/svg" xmlns:xlink="http://www.w3.org/1999/xlink">
    <!-- Generator: sketchtool 57.1 (101010) - https://sketch.com -->
    <title>CF848710-76F3-4CA9-BCC7-D776983CD76F@1,5x</title>
    <desc>Created with sketchtool.</desc>
    <defs>
        <polygon id="path-1" points="0.0710909091 0.726 22.8045 0.726 22.8045 21.4466476 0.0710909091 21.4466476"></polygon>
        <polygon id="path-3" points="0.000274967931 0.715354839 29.4551379 0.715354839 29.4551379 30.9674323 0.000274967931 30.9674323"></polygon>
    </defs>
    <g id="Financeur_Cadhoc_prospect-/-UI" stroke="none" stroke-width="1" fill="none" fill-rule="evenodd">
        <g id="01_05_01_Commande-Prospect-Cadhoc" transform="translate(-90.000000, -454.000000)">
            <g id="Group-11" transform="translate(90.000000, 454.000000)">
                <path d="M1.4115,13.641 L1.5885,13.359 L1.4735,13.525 C1.4485,13.562 1.4355,13.604 1.4115,13.641" id="Fill-1" fill="#FFFFFF"></path>
                <g id="Group-5" transform="translate(6.000000, 0.000000)">
                    <mask id="mask-2" fill="white">
                        <use xlink:href="#path-1"></use>
                    </mask>
                    <g id="Clip-4"></g>
                    <path d="M6.62086364,3.06407619 L8.85709091,4.72455238 C9.14668182,4.93931429 9.20836364,5.34998095 8.99404545,5.64017143 L7.33804545,7.88102857 C7.12163636,8.17121905 6.71286364,8.23302857 6.42327273,8.01721905 L4.18704545,6.35779048 C3.89745455,6.14198095 3.83577273,5.7323619 4.05113636,5.44217143 L5.70713636,3.20131429 C5.92145455,2.91112381 6.33127273,2.84931429 6.62086364,3.06407619 M1.66436364,3.79531429 L0.0710909091,6.12940952 L22.8045,21.4466476 L22.8045,11.4020762 L22.4605455,11.1663619 L9.53663636,2.31293333 C8.5905,1.66445714 7.48754545,1.32188571 6.34590909,1.32188571 L6.34590909,0.725790476 L6.34590909,1.32188571 C4.47036364,1.32188571 2.72131818,2.24693333 1.66436364,3.79531429" id="Fill-3" fill="#FFFFFF" mask="url(#mask-2)"></path>
                </g>
                <path d="M11.7161991,3.25459052 L10.1236769,5.40509868 C9.91656857,5.68358899 9.975886,6.07769801 10.2543763,6.28380094 L12.4048845,7.87632312 C12.6833748,8.08343143 13.0774838,8.024114 13.2845921,7.7456237 L14.8771143,5.59511553 C15.0832172,5.31662523 15.0238998,4.92251621 14.7454095,4.71641327 L12.5949013,3.12288572 C12.316411,2.91678278 11.922302,2.97610021 11.7161991,3.25459052" id="Fill-6" fill="#C50E1F"></path>
                <g id="Group-10">
                    <mask id="mask-4" fill="white">
                        <use xlink:href="#path-3"></use>
                    </mask>
                    <g id="Clip-9"></g>
                    <path d="M1.49513793,13.0453677 C1.51996552,13.0071742 1.53341379,12.9638194 1.55927586,12.9256258 L1.67824138,12.754271 L1.49513793,13.0453677 Z M29.1137586,2.52975484 C28.9265172,2.52975484 28.7723793,2.68356129 28.7723793,2.87143226 L28.7723793,10.5235613 L28.4320345,10.290271 L15.9758276,1.7947871 C14.9072069,1.06498065 13.6906552,0.715045161 12.4865172,0.715045161 L12.4865172,1.3024 C13.6161724,1.3024 14.7065172,1.63994839 15.6437586,2.27891613 L28.4320345,11.002529 L28.7723793,11.2347871 L28.7723793,21.1320774 L6.27755172,6.03943226 L7.85306897,3.73956129 C8.89893103,2.21388387 10.6306552,1.3024 12.4865172,1.3024 L12.4865172,0.715045161 C10.5096207,0.715045161 8.56686207,1.65749677 7.36686207,3.40820645 L1.07410345,12.594271 C0.533068966,13.3818839 0.209275862,14.2520774 0.0727241379,15.1367226 L0.0623793103,15.1501419 L0.0675517241,15.1666581 C-0.166241379,16.7377548 0.213413793,18.3532387 1.14237931,19.6580129 L1.14548276,19.6755613 L1.16824138,19.6931097 C1.57582759,20.2587871 2.08168966,20.7676903 2.691,21.1847226 L15.681,30.0456258 L15.9396207,30.0456258 L16.2696207,30.2654968 L2.04134483,30.2654968 C1.85410345,30.2654968 1.69996552,30.418271 1.69996552,30.6061419 C1.69996552,30.7929806 1.85410345,30.9467871 2.04134483,30.9467871 L16.4682414,30.9457548 C16.8427241,30.9602065 17.208931,30.9674323 17.568931,30.9674323 C21.8144483,30.9674323 25.0213448,29.9682065 27.113069,27.9914323 C29.3899655,25.8381419 29.453069,23.3328516 29.4551379,23.2213677 L29.4551379,2.87143226 C29.4551379,2.68356129 29.3020345,2.52975484 29.1137586,2.52975484 L29.1137586,2.52975484 Z" id="Fill-8" fill="#4A494A" mask="url(#mask-4)"></path>
                </g>
            </g>
        </g>
    </g>
</svg>