<?xml version="1.0" encoding="UTF-8"?>
<svg width="32px" height="31px" viewBox="0 0 32 31" version="1.1" xmlns="http://www.w3.org/2000/svg" xmlns:xlink="http://www.w3.org/1999/xlink">
    <!-- Generator: sketchtool 57.1 (101010) - https://sketch.com -->
    <title>DC7B81F4-8574-4C52-9467-8D89206CA738</title>
    <desc>Created with sketchtool.</desc>
    <g class="uncolored" id="Financeur_Cadhoc_prospect-/-UI" stroke="none" stroke-width="1" fill="none" fill-rule="evenodd">
        <g class="uncolored" id="01_07_Commande-Prospect-Cadhoc" transform="translate(-90.000000, -508.000000)">
            <g class="uncolored" id="Group-19" transform="translate(91.000000, 508.000000)">
                <path class="uncolored" d="M15.2768,30.263 L15.2538,30.263 C14.4118,30.263 13.7288,29.58 13.7288,28.739 L13.7288,1.787 C13.7288,0.946 14.4118,0.263 15.2538,0.263 L15.2768,0.263 C16.1188,0.263 16.8008,0.946 16.8008,1.787 L16.8008,28.739 C16.8008,29.58 16.1188,30.263 15.2768,30.263" id="Fill-1" fill="#4A494A"></path>
                <path d="M16.9926,11.0149 L13.5376,11.0149 C12.8656,11.0149 12.3206,10.4709 12.3206,9.7989 L12.3206,6.3429 C12.3206,5.6709 12.8656,5.1269 13.5376,5.1269 L16.9926,5.1269 C17.6646,5.1269 18.2096,5.6709 18.2096,6.3429 L18.2096,9.7989 C18.2096,10.4709 17.6646,11.0149 16.9926,11.0149" id="Fill-3" fill="#C50E1F"></path>
                <path class="uncolored" d="M16.9926,11.0149 L13.5376,11.0149 C12.8656,11.0149 12.3206,10.4709 12.3206,9.7989 L12.3206,6.3429 C12.3206,5.6709 12.8656,5.1269 13.5376,5.1269 L16.9926,5.1269 C17.6646,5.1269 18.2096,5.6709 18.2096,6.3429 L18.2096,9.7989 C18.2096,10.4709 17.6646,11.0149 16.9926,11.0149 Z" id="Stroke-5" stroke="#4A494A" stroke-width="0.53"></path>
                <path class="uncolored" d="M27.3324,30.263 L27.3094,30.263 C26.4674,30.263 25.7844,29.58 25.7844,28.739 L25.7844,1.787 C25.7844,0.946 26.4674,0.263 27.3094,0.263 L27.3324,0.263 C28.1744,0.263 28.8564,0.946 28.8564,1.787 L28.8564,28.739 C28.8564,29.58 28.1744,30.263 27.3324,30.263 Z" id="Stroke-7" stroke="#4A494A" stroke-width="0.526"></path>
                <path class="uncolored" d="M29.0492,24.8392 L25.5932,24.8392 C24.9212,24.8392 24.3772,24.2942 24.3772,23.6232 L24.3772,20.1672 C24.3772,19.4952 24.9212,18.9512 25.5932,18.9512 L29.0492,18.9512 C29.7202,18.9512 30.2652,19.4952 30.2652,20.1672 L30.2652,23.6232 C30.2652,24.2942 29.7202,24.8392 29.0492,24.8392" id="Fill-9" fill="#FFFFFF"></path>
                <path class="uncolored" d="M29.0492,24.8392 L25.5932,24.8392 C24.9212,24.8392 24.3772,24.2942 24.3772,23.6232 L24.3772,20.1672 C24.3772,19.4952 24.9212,18.9512 25.5932,18.9512 L29.0492,18.9512 C29.7202,18.9512 30.2652,19.4952 30.2652,20.1672 L30.2652,23.6232 C30.2652,24.2942 29.7202,24.8392 29.0492,24.8392 Z" id="Stroke-11" stroke="#4A494A" stroke-width="0.53"></path>
                <path class="uncolored" d="M3.2211,30.263 L3.1981,30.263 C2.3561,30.263 1.6731,29.58 1.6731,28.739 L1.6731,1.787 C1.6731,0.946 2.3561,0.263 3.1981,0.263 L3.2211,0.263 C4.0631,0.263 4.7451,0.946 4.7451,1.787 L4.7451,28.739 C4.7451,29.58 4.0631,30.263 3.2211,30.263 Z" id="Stroke-13" stroke="#4A494A" stroke-width="0.526"></path>
                <path class="uncolored" d="M4.9369,17.8792 L1.4809,17.8792 C0.8099,17.8792 0.2649,17.3342 0.2649,16.6622 L0.2649,13.2072 C0.2649,12.5352 0.8099,11.9902 1.4809,11.9902 L4.9369,11.9902 C5.6089,11.9902 6.1529,12.5352 6.1529,13.2072 L6.1529,16.6622 C6.1529,17.3342 5.6089,17.8792 4.9369,17.8792" id="Fill-15" fill="#FFFFFF"></path>
                <path class="uncolored" d="M4.9369,17.8792 L1.4809,17.8792 C0.8099,17.8792 0.2649,17.3342 0.2649,16.6622 L0.2649,13.2072 C0.2649,12.5352 0.8099,11.9902 1.4809,11.9902 L4.9369,11.9902 C5.6089,11.9902 6.1529,12.5352 6.1529,13.2072 L6.1529,16.6622 C6.1529,17.3342 5.6089,17.8792 4.9369,17.8792 Z" id="Stroke-17" stroke="#4A494A" stroke-width="0.53"></path>
            </g>
        </g>
    </g>
</svg>