<?xml version="1.0" encoding="UTF-8"?>
<svg width="32px" height="31px" viewBox="0 0 32 31" version="1.1" xmlns="http://www.w3.org/2000/svg" xmlns:xlink="http://www.w3.org/1999/xlink">
    <!-- Generator: sketchtool 57.1 (101010) - https://sketch.com -->
    <title>7AE2CC58-1390-4025-B4D6-561D44A04C0D@3x</title>
    <desc>Created with sketchtool.</desc>
    <defs>
        <polygon class="uncolored" id="path-ct-1" points="0.1102 0.3816 9.7282 0.3816 9.7282 10 0.1102 10"></polygon>
        <polygon class="uncolored" id="path-ct-3" points="0.1993 0.152 11.8923 0.152 11.8923 11.8452 0.1993 11.8452"></polygon>
        <polygon class="uncolored" id="path-ct-5" points="0 0.6372 4.3268 0.6372 4.3268 3.3252 0 3.3252"></polygon>
    </defs>
    <g class="uncolored" id="Financeur_Cadhoc_prospect-/-UI" stroke="none" stroke-width="1" fill="none" fill-rule="evenodd">
        <g class="uncolored" id="01_07_Commande-Prospect-Cadhoc" transform="translate(-90.000000, -400.000000)">
            <g class="uncolored" id="Group-28" transform="translate(90.000000, 399.000000)">
                <g id="Group-3" transform="translate(1.000000, 21.848400)">
                    <path d="M9.7282,5.1906 C9.7282,7.8466 7.5752,10.0006 4.9192,10.0006 C2.2632,10.0006 0.1102,7.8466 0.1102,5.1906 C0.1102,2.5356 2.2632,0.3816 4.9192,0.3816 C7.5752,0.3816 9.7282,2.5356 9.7282,5.1906" id="Fill-1" fill="#C50E1F"></path>
                </g>
                <path class="uncolored" d="M10.6774,30.1494 L9.1704,30.1494 C6.5554,30.1494 4.4354,28.0294 4.4354,25.4134 L4.4354,20.8784 C4.4354,18.2624 6.5554,16.1424 9.1704,16.1424 L10.6774,16.1424 C13.2924,16.1424 15.4124,18.2624 15.4124,20.8784 L15.4124,25.4134 C15.4124,28.0294 13.2924,30.1494 10.6774,30.1494" id="Fill-4" fill="#FFFFFF"></path>
                <g id="Group-8" transform="translate(19.000000, 0.848400)">
                    <path d="M11.8923,5.9982 C11.8923,9.2272 9.2743,11.8452 6.0453,11.8452 C2.8163,11.8452 0.1993,9.2272 0.1993,5.9982 C0.1993,2.7692 2.8163,0.1512 6.0453,0.1512 C9.2743,0.1512 11.8923,2.7692 11.8923,5.9982" id="Fill-6" fill="#C50E1F"></path>
                </g>
                <path class="uncolored" d="M25.7927,2.8437 C24.8567,2.8437 24.1057,3.0927 23.5387,3.5907 C22.9727,4.0897 22.6597,4.7887 22.5987,5.6897 L21.6827,5.6897 L21.6827,6.5037 L22.5877,6.5037 L22.5877,7.1677 L21.6827,7.1677 L21.6827,7.9837 L22.5877,7.9837 C22.6167,8.8827 22.9047,9.5857 23.4537,10.0917 C24.0017,10.5977 24.7457,10.8507 25.6857,10.8507 C26.1567,10.8507 26.6147,10.7987 27.0577,10.6947 L26.8647,9.3977 C26.5617,9.5087 26.2217,9.5637 25.8467,9.5637 C25.2927,9.5637 24.8847,9.4317 24.6217,9.1667 C24.3587,8.9037 24.2187,8.5077 24.2007,7.9837 L25.9967,7.9837 L25.9967,7.1677 L24.2007,7.1677 L24.2007,6.5037 L25.9967,6.5037 L25.9967,5.6897 L24.2117,5.6897 C24.3087,4.6557 24.8617,4.1407 25.8727,4.1407 C26.1977,4.1407 26.5287,4.1977 26.8647,4.3117 L27.0577,3.0097 C26.5897,2.8987 26.1677,2.8437 25.7927,2.8437" id="Fill-9" fill="#FFFFFF"></path>
                <path class="uncolored" d="M2.1638,17.5996 L2.1638,8.3096 C2.1638,5.2436 4.6488,2.7576 7.7148,2.7576 L15.5228,2.7576" id="Stroke-11" stroke="#4A494A" stroke-width="0.529"></path>
                <g class="uncolored" id="Group-15" transform="translate(0.000000, 14.848400)">
                    <polygon class="uncolored" id="Fill-13" fill="#4A494A" points="4.3268 0.9982 3.9398 0.6372 2.1638 2.5482 0.3878 0.6372 -0.0002 0.9982 2.1638 3.3252"></polygon>
                </g>
                <path class="uncolored" d="M29.0417,18.747 L29.0417,24.085 C29.0417,27.15 26.5567,29.636 23.4897,29.636 L15.6027,29.636" id="Stroke-16" stroke="#4A494A" stroke-width="0.529"></path>
                <polygon class="uncolored" id="Fill-18" fill="#4A494A" points="26.8776 20.5009 27.2656 20.8609 29.0406 18.9499 30.8166 20.8609 31.2046 20.5009 29.0406 18.1739"></polygon>
                <path class="uncolored" d="M11.8845,29.4668 C11.6755,29.5078 11.4595,29.5298 11.2385,29.5298 L8.3905,29.5298 C6.5065,29.5298 4.9735,27.9978 4.9735,26.1128 L4.9735,19.9888 C4.9735,18.1048 6.5065,16.5718 8.3905,16.5718 L11.2385,16.5718 C13.1225,16.5718 14.6555,18.1048 14.6555,19.9888 L14.6555,26.1128 C14.6555,27.0928 14.2385,27.9748 13.5765,28.5988 C13.1135,29.0338 12.5325,29.3428 11.8845,29.4668 M11.2385,15.9528 L8.3905,15.9528 C6.1615,15.9528 4.3555,17.7598 4.3555,19.9888 L4.3555,26.1128 C4.3555,27.7168 5.2915,29.0978 6.6465,29.7488 C7.1745,30.0028 7.7645,30.1498 8.3905,30.1498 L11.2385,30.1498 C11.5135,30.1498 11.7805,30.1208 12.0405,30.0698 C12.7375,29.8498 13.3835,29.5168 13.9565,29.0908 C14.6215,28.4838 15.0805,27.6588 15.2235,26.7278 C15.2535,26.5268 15.2755,26.3228 15.2755,26.1128 L15.2755,19.9888 C15.2755,17.7598 13.4675,15.9528 11.2385,15.9528" id="Fill-20" fill="#4A494A"></path>
                <path class="uncolored" d="M9.8151,8.1611 C11.4611,8.1611 12.8011,9.5011 12.8011,11.1481 C12.8011,12.7961 11.4611,14.1361 9.8151,14.1361 C8.1681,14.1361 6.8281,12.7961 6.8281,11.1481 C6.8281,9.5011 8.1681,8.1611 9.8151,8.1611 M9.8151,14.8611 C11.8651,14.8611 13.5281,13.1991 13.5281,11.1481 C13.5281,9.0981 11.8651,7.4351 9.8151,7.4351 C7.7641,7.4351 6.1021,9.0981 6.1021,11.1481 C6.1021,13.1991 7.7641,14.8611 9.8151,14.8611" id="Fill-22" fill="#4A494A"></path>
                <polyline class="uncolored" id="Stroke-24" stroke="#4A494A" stroke-width="0.619" stroke-linecap="round" stroke-linejoin="round" points="7.0847 19.3388 7.0847 23.9248 4.6827 23.9248"></polyline>
                <polyline class="uncolored" id="Stroke-26" stroke="#4A494A" stroke-width="0.619" stroke-linecap="round" stroke-linejoin="round" points="12.1081 19.3388 12.1081 23.9248 14.9471 23.9248"></polyline>
            </g>
        </g>
    </g>
</svg>