<?xml version="1.0" encoding="UTF-8"?>
<svg width="35px" height="35px" viewBox="0 0 35 35" version="1.1" xmlns="http://www.w3.org/2000/svg" xmlns:xlink="http://www.w3.org/1999/xlink">
    <!-- Generator: sketchtool 57.1 (101010) - https://sketch.com -->
    <title>AFECD7CC-5E86-424A-AD2D-4B2FEC571461@3x</title>
    <desc>Created with sketchtool.</desc>
    <g class="uncolored" id="Financeur_Cadhoc_prospect-/-UI" stroke="none" stroke-width="1" fill="none" fill-rule="evenodd">
        <g class="uncolored" id="01_07_Commande-Prospect-Cadhoc" transform="translate(-90.000000, -341.000000)">
            <g class="uncolored" id="Group-16" transform="translate(91.000000, 342.000000)">
                <path class="uncolored" d="M29,7.88624588 C29,4.63577485 26.3184969,2 23.0097352,2 L5.99026478,2 C2.68150309,2 0,4.63577485 0,7.88624588 L0,11 L29,11 L29,7.88624588 Z" id="Fill-1" fill="#4A494A"></path>
                <path class="uncolored" d="M22.9548089,31 L6.04519111,31 C2.7067692,31 0,28.3424576 0,25.0647501 L0,7.93524993 C0,4.6575424 2.7067692,2 6.04519111,2 L22.9548089,2 C26.2932308,2 29,4.6575424 29,7.93524993 L29,25.0647501 C29,28.3424576 26.2932308,31 22.9548089,31 Z" id="Stroke-3" stroke="#4A494A" stroke-width="0.584"></path>
                <path class="uncolored" d="M8.95791805,5 L6.04208195,5 C5.4662237,5 5,4.54130435 5,3.97717391 L5,1.02391304 C5,0.458695652 5.4662237,0 6.04208195,0 L8.95791805,0 C9.5337763,0 10,0.458695652 10,1.02391304 L10,3.97717391 C10,4.54130435 9.5337763,5 8.95791805,5" id="Fill-5" fill="#FCFCFC"></path>
                <path class="uncolored" d="M8.95791805,5 L6.04208195,5 C5.4662237,5 5,4.54130435 5,3.97717391 L5,1.02391304 C5,0.458695652 5.4662237,0 6.04208195,0 L8.95791805,0 C9.5337763,0 10,0.458695652 10,1.02391304 L10,3.97717391 C10,4.54130435 9.5337763,5 8.95791805,5 Z" id="Stroke-7" stroke="#4A494A" stroke-width="0.584"></path>
                <mask class="uncolored" fill="white">
                    <use xlink:href="#path-1"></use>
                </mask>
                <g id="Clip-10"></g>
                <polygon class="uncolored" id="Fill-9" fill="#4A494A" points="0 11.8535 29 11.8535 29 11.1465 0 11.1465"></polygon>
                <path class="uncolored" d="M22.9579181,5 L20.0420819,5 C19.4662237,5 19,4.54130435 19,3.97717391 L19,1.02391304 C19,0.458695652 19.4662237,0 20.0420819,0 L22.9579181,0 C23.5337763,0 24,0.458695652 24,1.02391304 L24,3.97717391 C24,4.54130435 23.5337763,5 22.9579181,5" id="Fill-11" fill="#FCFCFC"></path>
                <path class="uncolored" d="M22.9579181,5 L20.0420819,5 C19.4662237,5 19,4.54130435 19,3.97717391 L19,1.02391304 C19,0.458695652 19.4662237,0 20.0420819,0 L22.9579181,0 C23.5337763,0 24,0.458695652 24,1.02391304 L24,3.97717391 C24,4.54130435 23.5337763,5 22.9579181,5 Z" id="Stroke-12" stroke="#4A494A" stroke-width="0.584"></path>
                <polygon class="uncolored" id="Fill-13" fill="#4A494A" points="0 18.854 29 18.854 29 18.146 0 18.146"></polygon>
                <polygon class="uncolored" id="Fill-14" fill="#4A494A" points="6.1525 31 6.8475 31 6.8475 11 6.1525 11"></polygon>
                <path d="M26.0732797,17.7690414 L27.4238994,21.8705955 C27.5749629,22.3290937 28.0080116,22.6401788 28.4970098,22.6401788 L32.8677806,22.6401788 C33.9621518,22.6401788 34.4175803,24.0210932 33.5324601,24.6562705 L29.996455,27.189392 C29.6003329,27.4733791 29.4347225,27.9763181 29.585786,28.4359002 L30.9364057,32.5374543 C31.2743403,33.5628429 30.0837361,34.416972 29.1986158,33.7817948 L25.6637297,31.2475893 C25.2676077,30.9646861 24.7316119,30.9646861 24.3366088,31.2475893 L20.8006038,33.7817948 C19.9154835,34.416972 18.7248792,33.5628429 19.0628139,32.5374543 L20.4134336,28.4359002 C20.5644971,27.9763181 20.3988867,27.4733791 20.0027646,27.189392 L16.4678785,24.6562705 C15.5827583,24.0210932 16.0370678,22.6401788 17.131439,22.6401788 L21.5022098,22.6401788 C21.991208,22.6401788 22.4242567,22.3290937 22.5764392,21.8705955 L23.9270589,17.7690414 C24.2627556,16.7436529 25.735345,16.7436529 26.0732797,17.7690414" id="Fill-15" fill="#C50E1F"></path>
            </g>
        </g>
    </g>
</svg>