<svg xmlns="http://www.w3.org/2000/svg" xmlns:xlink="http://www.w3.org/1999/xlink" width="32px" height="32px" viewBox="0 0 32 32" version="1.1">
    <!-- Generator: sketchtool 60.1 (101010) - https://sketch.com -->
    <title>F85D70A0-7D4F-4C8F-ADD5-061497032A06@3x</title>
    <desc>Created with sketchtool.</desc>
    <g class="uncolored" id="Financeur_Déjeuner_extranet-/-UI" stroke="none" stroke-width="1" fill="none" fill-rule="evenodd">
        <g class="uncolored" id="03_05_UpDéjeuner" transform="translate(-342.000000, -438.000000)">
            <g class="uncolored" id="Group-15" transform="translate(343.000000, 439.000000)">
                <path class="uncolored" d="M24.0755,30.2717 L6.4685,30.2717 C3.0465,30.2717 0.2715,27.4977 0.2715,24.0757 L0.2715,6.4677 C0.2715,3.0457 3.0465,0.2717 6.4685,0.2717 L24.0755,0.2717 C27.4975,0.2717 30.2715,3.0457 30.2715,6.4677 L30.2715,24.0757 C30.2715,27.4977 27.4975,30.2717 24.0755,30.2717 Z" id="Stroke-1" stroke="#4A494A" stroke-width="0.544"/>
                <path class="uncolored" d="M7.7815,9.8098 L4.7185,9.8098 C4.1235,9.8098 3.6405,9.3278 3.6405,8.7318 L3.6405,5.6698 C3.6405,5.0748 4.1235,4.5918 4.7185,4.5918 L7.7815,4.5918 C8.3765,4.5918 8.8585,5.0748 8.8585,5.6698 L8.8585,8.7318 C8.8585,9.3278 8.3765,9.8098 7.7815,9.8098" id="Fill-3" fill="#4A494A"/>
                <path d="M7.7815,18.2063 L4.7185,18.2063 C4.1235,18.2063 3.6405,17.7243 3.6405,17.1293 L3.6405,14.0663 C3.6405,13.4723 4.1235,12.9893 4.7185,12.9893 L7.7815,12.9893 C8.3765,12.9893 8.8585,13.4723 8.8585,14.0663 L8.8585,17.1293 C8.8585,17.7243 8.3765,18.2063 7.7815,18.2063" id="Fill-5" fill="#F59100"/>
                <path class="uncolored" d="M7.7815,26.4407 L4.7185,26.4407 C4.1235,26.4407 3.6405,25.9577 3.6405,25.3627 L3.6405,22.2997 C3.6405,21.7057 4.1235,21.2227 4.7185,21.2227 L7.7815,21.2227 C8.3765,21.2227 8.8585,21.7057 8.8585,22.2997 L8.8585,25.3627 C8.8585,25.9577 8.3765,26.4407 7.7815,26.4407" id="Fill-7" fill="#4A494A"/>
                <path class="uncolored" d="M25.8694,8.6682 L12.8264,8.6682 C12.0154,8.6682 11.3584,8.0122 11.3584,7.2012 C11.3584,6.3912 12.0154,5.7332 12.8264,5.7332 L25.8694,5.7332 C26.6804,5.7332 27.3374,6.3912 27.3374,7.2012 C27.3374,8.0122 26.6804,8.6682 25.8694,8.6682" id="Fill-9" fill="#4A494A"/>
                <path class="uncolored" d="M25.5432,17.0657 L12.5002,17.0657 C11.6892,17.0657 11.0322,16.4087 11.0322,15.5977 C11.0322,14.7877 11.6892,14.1297 12.5002,14.1297 L25.5432,14.1297 C26.3542,14.1297 27.0112,14.7877 27.0112,15.5977 C27.0112,16.4087 26.3542,17.0657 25.5432,17.0657 Z" id="Stroke-11" stroke="#4A494A" stroke-width="0.544"/>
                <path class="uncolored" d="M25.8694,25.2991 L12.8264,25.2991 C12.0154,25.2991 11.3584,24.6421 11.3584,23.8311 C11.3584,23.0211 12.0154,22.3641 12.8264,22.3641 L25.8694,22.3641 C26.6804,22.3641 27.3374,23.0211 27.3374,23.8311 C27.3374,24.6421 26.6804,25.2991 25.8694,25.2991 Z" id="Stroke-13" stroke="#4A494A" stroke-width="0.544"/>
            </g>
        </g>
    </g>
</svg>