<svg xmlns="http://www.w3.org/2000/svg" xmlns:xlink="http://www.w3.org/1999/xlink" width="38px" height="30px" viewBox="0 0 38 30" version="1.1">
    <!-- Generator: sketchtool 55.2 (78181) - https://sketchapp.com -->
    <title>E986C002-1A99-46F3-B69B-A2F90618A7B6@1,5x</title>
    <desc>Created with sketchtool.</desc>
    <defs>
        <polygon id="path-pb" points="0.000168888889 0.338070423 38.0001988 0.338070423 38.0001988 29.5774648 0.000168888889 29.5774648"/>
    </defs>
    <g id="Financeur_Cadhoc_extranet-/-UI" stroke="none" stroke-width="1" fill="none" fill-rule="evenodd">
        <g id="01_08_Commande-EC-Cadhoc-Récapitulatif" transform="translate(-123.000000, -405.000000)">
            <g id="Group-10" transform="translate(123.000000, 405.000000)">
                <g>
                    <g id="Group-3" transform="translate(0.000000, 0.084507)">
                        <mask id="mask-2" fill="white">
                            <use xlink:href="#path-pb"/>
                        </mask>
                        <g id="Clip-2"/>
                        <path d="M34.1752578,12.4749718 C34.32388,12.3946901 34.46828,12.4276479 34.5012133,12.4906056 C34.5020578,12.4922958 34.5029022,12.4939859 34.5037467,12.4960986 C34.5869244,12.6591972 34.5869244,12.8915915 34.5088133,13.1425775 C34.2761689,13.0606056 34.0979911,12.9308873 34.0025689,12.7538451 C34.0021467,12.7534225 34.0021467,12.753 34.0017244,12.7525775 C33.9755467,12.7014507 34.0207244,12.5586338 34.1752578,12.4749718 M27.1292133,23.3396197 C26.4169244,23.9197606 26.0086356,24.794831 26.0086356,25.7408873 L26.0086356,28.3099014 L23.4373022,28.3099014 L23.4373022,26.8014507 C23.4373022,26.4887746 23.2954356,26.2006056 23.0480133,26.0121549 C22.7993244,25.8224366 22.4822356,25.7590563 22.1719022,25.844831 C19.5790356,26.5758169 16.6264356,26.5956761 13.9647467,25.881169 C13.6607467,25.7983521 13.3436578,25.8600423 13.0945467,26.0501831 C12.8467022,26.2394789 12.7044133,26.5289155 12.7044133,26.8432817 L12.7044133,28.3094789 L10.1335022,28.3094789 L10.1335022,25.8460986 C10.1335022,24.8801831 9.71465778,23.9958169 8.98252444,23.4169437 C7.60228,22.3322958 6.51210222,20.9860986 5.83063556,19.5237042 C5.33536889,18.4610282 4.34525778,17.8014507 3.24705778,17.8014507 L1.76083556,17.8014507 C1.48808,17.8014507 1.26683556,17.5817324 1.26683556,17.3113099 L1.26683556,14.0451127 C1.26683556,13.7721549 1.48808,13.5507465 1.76083556,13.5507465 L3.24748,13.5507465 C4.34694667,13.5507465 5.33705778,12.8924366 5.83021333,11.8339859 C6.25623556,10.9255352 6.83088,10.0694789 7.53683556,9.29074648 C7.93076889,8.85807042 8.01394667,8.2458169 7.74668,7.72821127 L6.12028,4.63905634 L7.48616889,4.63905634 C9.08850222,4.63905634 10.18248,5.13004225 10.7364356,6.09891549 C10.9002578,6.38623944 11.2566133,6.4973662 11.5555467,6.35750704 C12.3341244,5.99032394 13.1519689,5.69539437 13.9926133,5.47102817 C14.0947911,5.89102817 14.2624133,6.28947887 14.4891467,6.65539437 C14.4169467,6.67356338 14.3430578,6.68666197 14.2708578,6.70609859 C13.9335022,6.79694366 13.7329467,7.14469014 13.8241467,7.48271831 C13.9149244,7.82074648 14.2628356,8.0201831 14.6001911,7.9301831 C16.8122133,7.33356338 19.2357689,7.33990141 21.4140133,7.9301831 C21.4693244,7.94497183 21.52548,7.95215493 21.5803689,7.95215493 C21.8594578,7.95215493 22.1149022,7.76666197 22.1909022,7.48398592 C22.2825244,7.14595775 22.0823911,6.79821127 21.7450356,6.70652113 C21.6732578,6.68708451 21.5997911,6.67398592 21.5275911,6.65539437 C21.7513689,6.29201408 21.9189911,5.89652113 22.0211689,5.48032394 C27.3627022,6.90004225 31.0415244,11.0108873 31.0415244,15.6803239 C31.0415244,18.5894789 29.6532578,21.308493 27.1292133,23.3396197 M18.0075244,1.60567606 C19.5908578,1.60567606 20.8790578,2.89483099 20.8790578,4.47891549 C20.8790578,4.53764789 20.8752578,4.59553521 20.8710356,4.65680282 C20.8330356,5.30074648 20.58308,5.90370423 20.1608578,6.38285915 C19.76988,6.3245493 19.3763689,6.27680282 18.9799022,6.25060563 C19.6056356,5.90497183 20.03588,5.24539437 20.03588,4.48060563 C20.03588,3.36173239 19.1259911,2.45074648 18.0075244,2.45074648 C17.7039467,2.45074648 17.4105022,2.51708451 17.1369022,2.64764789 C16.8206578,2.79807042 16.6868133,3.17623944 16.8371244,3.49229577 C16.9874356,3.80835211 17.3653244,3.94187324 17.6811467,3.79229577 C17.7841689,3.74328169 17.8935244,3.71835211 18.0075244,3.71835211 C18.4276356,3.71835211 18.7692133,4.06060563 18.7692133,4.48060563 C18.7692133,4.90060563 18.4276356,5.24243662 18.0075244,5.24243662 C17.6072578,5.24243662 17.27328,4.92933803 17.2479467,4.52961972 C17.2251467,4.1801831 16.9291689,3.91609859 16.5753467,3.93722535 C16.2265911,3.95961972 15.9614356,4.26088732 15.9838133,4.60990141 C16.0285689,5.32356338 16.4469911,5.92652113 17.0359911,6.25187324 C16.6412133,6.27807042 16.2485467,6.32539437 15.8575689,6.38370423 C15.4328133,5.9045493 15.1815911,5.29609859 15.1402133,4.6145493 C15.1347244,4.56891549 15.1364133,4.52497183 15.1364133,4.47933803 C15.1368356,2.89483099 16.4241911,1.60567606 18.0075244,1.60567606 M37.0653689,12.6427183 C36.5764356,12.9072254 36.15928,13.059338 35.8079911,13.1442676 C35.8671022,12.7656761 35.8206578,12.4052535 35.6931467,12.0803239 C35.6825911,12.0376479 35.6686578,11.9958169 35.6496578,11.954831 C35.6395244,11.9320141 35.6277022,11.9091972 35.6154578,11.8855352 C35.6146133,11.8842676 35.6146133,11.8825775 35.6137689,11.8813099 C35.5918133,11.8407465 35.5660578,11.8039859 35.5373467,11.7706056 C35.1277911,11.1689155 34.2799689,10.976662 33.5719022,11.3599014 C32.8629911,11.7444085 32.5573022,12.561169 32.8385022,13.2338451 C32.84568,13.2579296 32.85708,13.281169 32.8667911,13.304831 C32.8752356,13.3208873 32.8786133,13.3382113 32.8866356,13.3542676 C32.8997244,13.3796197 32.9145022,13.4032817 32.9313911,13.4294789 C32.9377244,13.4425775 32.9491244,13.4518732 32.9563022,13.4641268 C33.1425022,13.7599014 33.4038578,14.001169 33.72348,14.1765211 C33.5613467,14.2944085 33.3835911,14.3979296 33.1910578,14.4782113 C32.89128,14.6037042 32.5501244,14.6176479 32.2507689,14.6189155 C31.7390356,9.75257746 27.7435467,5.60074648 22.1305244,4.19201408 C21.9823244,2.043 20.1921022,0.338070423 18.0075244,0.338070423 C15.8229467,0.338070423 14.0327244,2.04215493 13.88368,4.19074648 C13.0717467,4.39567606 12.2767022,4.6601831 11.5120578,4.98807042 C10.6705689,3.91483099 9.31861333,3.37187324 7.48574667,3.37187324 L5.07063556,3.37187324 C4.84896889,3.37187324 4.64334667,3.48807042 4.52892444,3.67821127 C4.41450222,3.86835211 4.40732444,4.10497183 4.51076889,4.3014507 L6.62356889,8.31511268 C6.65228,8.37130986 6.61639111,8.42032394 6.59865778,8.43933803 C5.80783556,9.3114507 5.16394667,10.2727183 4.68261333,11.2973662 C4.39930222,11.9053944 3.84914667,12.2835634 3.24748,12.2835634 L1.76083556,12.2835634 C0.790146667,12.2831408 0.000168888889,13.0737042 0.000168888889,14.0451127 L0.000168888889,17.3113099 C0.000168888889,18.2806056 0.790146667,19.0690563 1.76083556,19.0690563 L3.24748,19.0690563 C3.84788,19.0690563 4.39845778,19.448493 4.68261333,20.0594789 C5.44810222,21.7018732 6.66494667,23.2069437 8.19930222,24.4128592 C8.62321333,24.7483521 8.86683556,25.2710282 8.86683556,25.8465211 L8.86683556,28.9437042 C8.86683556,29.2935634 9.15014667,29.577507 9.50016889,29.577507 L13.3377467,29.577507 C13.6877689,29.577507 13.97108,29.2935634 13.97108,28.9437042 L13.97108,27.1918732 C16.6454356,27.8497606 19.5659467,27.8294789 22.1706356,27.1580704 L22.1706356,28.9437042 C22.1706356,29.2935634 22.4543689,29.577507 22.8039689,29.577507 L26.6419689,29.577507 C26.9915689,29.577507 27.2753022,29.2935634 27.2753022,28.9437042 L27.2753022,25.7408873 C27.2753022,25.1860986 27.5193467,24.6562394 27.9255244,24.3249718 C30.6931911,22.0977887 32.2393689,19.107507 32.30228,15.8852535 C32.6810133,15.8810282 33.1813467,15.8565211 33.6787244,15.6486338 C34.28968,15.3938451 34.8166133,14.9873662 35.1987244,14.4972254 C35.9553467,14.4760986 36.7981022,14.228493 37.66788,13.7573662 C37.9761022,13.5904648 38.0901022,13.2059577 37.9237467,12.8983521 C37.7569689,12.5899014 37.3723244,12.4753944 37.0653689,12.6427183" id="Fill-1" stroke="#4E5B59" stroke-width="0.5" fill="#4E5B59" mask="url(#mask-2)"/>
                    </g>
                    <path d="M21.0880156,18.6681127 C20.7928822,18.4821972 20.4014822,18.5717746 20.2152822,18.8692394 C19.7770156,19.5698028 19.1656378,19.9716338 18.5369489,19.9716338 C17.9069933,19.9716338 17.2960378,19.5702254 16.8590378,18.8688169 C16.7007044,18.6157183 16.5791044,18.3275493 16.47946,18.0254366 L17.5552822,18.0254366 C17.90446,18.0254366 18.1886156,17.741493 18.1886156,17.3916338 C18.1886156,17.0417746 17.90446,16.757831 17.5552822,16.757831 L16.2539933,16.757831 C16.25146,16.691493 16.2413267,16.6268451 16.2413267,16.559662 C16.2413267,16.536 16.2409044,16.512338 16.24386,16.4595211 C16.2455489,16.3657183 16.2611711,16.2757183 16.2675044,16.1836056 L17.6093267,16.1836056 C17.9589267,16.1836056 18.24266,15.899662 18.24266,15.5498028 C18.24266,15.1999437 17.9589267,14.916 17.6093267,14.916 L16.5427933,14.916 C16.6601711,14.6058592 16.8020378,14.3134648 16.9844378,14.0624789 C17.41426,13.4726197 17.96526,13.1481127 18.5373711,13.1481127 C19.1094822,13.1481127 19.6609044,13.4730423 20.0907267,14.0624789 C20.2959267,14.3447324 20.6928156,14.4068451 20.9752822,14.2010704 C21.2577489,13.9952958 21.3202378,13.5985352 21.1141933,13.3154366 C20.4403267,12.3900845 19.5253711,11.880507 18.5373711,11.880507 C17.5506378,11.880507 16.6356822,12.3900845 15.9601267,13.3158592 C15.6227711,13.7802254 15.3685933,14.3274085 15.2018156,14.9155775 L14.74286,14.9155775 C14.39326,14.9155775 14.1095267,15.1995211 14.1095267,15.5493803 C14.1095267,15.8992394 14.39326,16.1831831 14.74286,16.1831831 L14.9907044,16.1831831 C14.9864822,16.2571268 14.9797267,16.3306479 14.97846,16.4050141 C14.97466,16.4565634 14.97466,16.5076901 14.97466,16.5592394 C14.97466,16.6255775 14.9788822,16.6910704 14.9814156,16.7574085 L14.7149933,16.7574085 C14.3653933,16.7574085 14.08166,17.0413521 14.08166,17.3912113 C14.08166,17.7410704 14.3653933,18.0250141 14.7149933,18.0250141 L15.1557933,18.0250141 C15.2930156,18.5747324 15.5037044,19.0906479 15.7853267,19.5402254 C16.4570822,20.6198028 17.4602822,21.2392394 18.5373711,21.2392394 C19.6115044,21.2392394 20.6142822,20.6202254 21.2894156,19.541493 C21.4743489,19.2448732 21.3844156,18.8540282 21.0880156,18.6681127" id="Fill-4" fill="#C50E1F"/>
                    <path d="M7.55093778,13.1648451 L7.64213778,13.0511831 C8.08420444,12.4989296 8.65758222,12.1059718 9.28669333,12.0109014 C9.65487111,11.9555493 10.0272711,11.9525915 10.3954489,12.0028732 C11.0325822,12.089493 11.6144044,12.4832958 12.0628044,13.0393521 L12.1637156,13.1648451" id="Stroke-6" stroke="#4E5B59" stroke-width="1.04999997" stroke-linecap="round"/>
                    <path d="M4.95389111,19.1925634 L5.04509111,19.3704507 C5.48715778,20.2353803 6.06053556,20.8510141 6.68964667,20.9997465 C7.05782444,21.0867887 7.43022444,21.0910141 7.79840222,21.0124225 C8.43553556,20.8763662 9.01735778,20.2594648 9.46575778,19.3890423 L9.56666889,19.1925634" id="Stroke-8" stroke="#4E5B59" stroke-width="1.04999997" stroke-linecap="round"/>
                </g>
            </g>
        </g>
    </g>
</svg>