<svg xmlns="http://www.w3.org/2000/svg" xmlns:xlink="http://www.w3.org/1999/xlink" width="31px" height="31px" viewBox="0 0 31 31" version="1.1">
    <!-- Generator: sketchtool 60.1 (101010) - https://sketch.com -->
    <title>2198FAC7-F901-4896-8F2D-83F3912EAABE@1,5x</title>
    <desc>Created with sketchtool.</desc>
    <defs>
        <polygon class="uncolored" id="path-1" points="0.6361 0 30.827 0 30.827 31 0.6361 31"/>
    </defs>
    <g class="uncolored" id="Financeur_Déjeuner_extranet-/-UI" stroke="none" stroke-width="1" fill="none" fill-rule="evenodd">
        <g class="uncolored" id="03_04_01_UpDéjeuner" transform="translate(-334.000000, -382.000000)">
            <g class="uncolored" class="uncolored" id="Group-10" transform="translate(334.000000, 382.000000)">
                <g class="uncolored" id="Group-3">
                    <mask class="uncolored" id="mask-2" fill="white">
                        <use class="uncolored" xlink:href="#path-1"/>
                    </mask>
                    <path class="uncolored" d="M30.4561,0 C30.2511,0 30.0841,0.167 30.0841,0.371 L30.0841,3.044 L30.0841,6.418 L30.0841,6.658 L30.0841,6.899 L30.0841,12.202 L30.0841,22.551 C30.0841,22.563 30.0631,23.273 29.7131,24.252 C29.6851,24.331 29.6561,24.41 29.6231,24.493 C29.5921,24.572 29.5581,24.652 29.5221,24.734 C29.1831,25.507 28.6411,26.389 27.7681,27.217 C25.4501,29.412 21.7311,30.428 16.7141,30.234 L1.0071,30.234 C0.8031,30.234 0.6361,30.401 0.6361,30.605 C0.6361,30.81 0.8031,30.977 1.0071,30.977 L16.6991,30.976 C17.1071,30.992 17.5061,31 17.8971,31 C22.5151,31 26.0041,29.91 28.2791,27.755 C29.3521,26.738 29.9721,25.651 30.3311,24.734 C30.3631,24.651 30.3911,24.572 30.4191,24.493 C30.4481,24.411 30.4771,24.33 30.5021,24.252 C30.8071,23.298 30.8261,22.615 30.8271,22.556 L30.8271,12.202 L30.8271,6.899 L30.8271,6.658 L30.8271,6.418 L30.8271,3.044 L30.8271,0.371 C30.8271,0.167 30.6601,0 30.4561,0" id="Fill-1" fill="#4A494A" mask="url(#mask-2)"/>
                </g>
                <path class="uncolored" d="M0.4814,6.7725 L0.4814,6.6005 M0.9174,5.7515 C0.5694,5.7135 0.2704,5.8695 0.1154,6.1275 C0.0444,6.2475 0.0004,6.3835 0.0004,6.5395 L0.0004,22.6915 C0.0004,23.1865 0.4114,23.6575 0.9174,23.7235 C10.6194,25.1295 20.3204,22.7365 30.0224,24.2325 C30.0574,24.1525 31.0834,23.4595 30.4034,23.1225 C30.3204,23.0815 30.3754,22.8095 30.4034,22.7335 C30.7534,21.7885 30.1854,21.6685 30.1854,21.6555 L30.1854,11.1055 L30.1854,5.7005 L30.1854,5.4555 L30.1854,5.2095 C20.4284,4.0245 10.6724,6.8115 0.9174,5.7515" id="Fill-4" fill="#4A494A"/>
                <path class="uncolored" d="M1.04879721,7.5762 L1.04879721,11.5832 C1.0478,11.9132 1.3158,12.2132 1.6468,12.2452 C11.1588,13.1782 20.6718,10.6382 30.1858,11.8742 L30.1858,6.4692 C20.6718,5.2982 11.1588,7.9042 1.6468,7.0372 C1.3168,7.0082 1.0478,7.2462 1.04879721,7.5762" id="Fill-6" fill="#FFFFFF"/>
                <path d="M5.6885,11.7061 L3.0385,11.7061 C2.6945,11.7061 2.4165,11.4281 2.4165,11.0841 L2.4165,8.4331 C2.4165,8.0891 2.6945,7.8101 3.0385,7.8101 L5.6885,7.8101 C6.0325,7.8101 6.3115,8.0891 6.3115,8.4331 L6.3115,11.0841 C6.3115,11.4281 6.0325,11.7061 5.6885,11.7061" id="Fill-8" fill="#F59100"/>
            </g>
        </g>
    </g>
</svg>