<?xml version="1.0" encoding="UTF-8"?>
<svg width="24px" height="24px" viewBox="0 0 24 24" version="1.1" xmlns="http://www.w3.org/2000/svg" xmlns:xlink="http://www.w3.org/1999/xlink">
    <!-- Generator: Sketch 51.3 (57544) - http://www.bohemiancoding.com/sketch -->
    <title>0: Icons / Dark / Compass</title>
    <desc>Created with Sketch.</desc>
    <defs></defs>
    <g id="0:-Icons-/-Dark-/-Compass" stroke="none" stroke-width="1" fill="none" fill-rule="evenodd">
        <path d="M11.1556623,10.7555022 L13.9759904,8.27210884 L13.234894,11.9559824 L14.6210484,12.7563025 L15.6742697,5.33093237 L9.7695078,9.95518207 L11.1556623,10.7555022 L11.1556623,10.7555022 Z M11.9951981,22.3993597 C6.24809924,22.3993597 1.59103641,17.7422969 1.59103641,11.9951981 C1.59103641,6.24889956 6.24809924,1.59103641 11.9951981,1.59103641 C17.7422969,1.59103641 22.3993597,6.24889956 22.3993597,11.9951981 C22.3993597,17.7422969 17.7422969,22.3993597 11.9951981,22.3993597 L11.9951981,22.3993597 Z M12,0 C5.37254902,0 0,5.37334934 0,12 C0,18.627451 5.37254902,24 12,24 C18.627451,24 24,18.627451 24,12 C24,5.37334934 18.627451,0 12,0 L12,0 Z M12.7955182,12.3953581 C12.7955182,11.7326931 12.2577031,11.194878 11.595038,11.194878 C10.9323729,11.194878 10.3945578,11.7326931 10.3945578,12.3953581 C10.3945578,13.0580232 10.9323729,13.5958383 11.595038,13.5958383 C12.2577031,13.5958383 12.7955182,13.0580232 12.7955182,12.3953581 L12.7955182,12.3953581 Z M9.21408563,16.5186074 L9.95518207,12.8347339 L8.56902761,12.0344138 L7.51660664,19.4597839 L13.4205682,14.8355342 L12.0344138,14.0352141 L9.21408563,16.5186074 L9.21408563,16.5186074 Z" id="Fill-165" fill="#000000"></path>
    </g>
</svg>