<?xml version="1.0" encoding="UTF-8"?>
<svg width="25px" height="25px" viewBox="0 0 25 25" version="1.1" xmlns="http://www.w3.org/2000/svg" xmlns:xlink="http://www.w3.org/1999/xlink">
    <!-- Generator: Sketch 62 (91390) - https://sketch.com -->
    <title>Condition</title>
    <desc>Created with Sketch.</desc>
    <defs>
        <path d="M16.3601563,-2.56200616e-12 C16.628125,-2.56200616e-12 16.9414063,0.178125 16.9414063,0.49140625 L16.9414063,0.49140625 L16.9414063,12.9625 C17.790625,12.2476562 18.371875,11.2640625 18.371875,11.2640625 C18.4609375,11.0851562 18.6398438,10.9515625 18.81875,10.9515625 C19.0421875,10.9515625 19.2210938,11.0851562 19.3109375,11.2640625 C19.4,11.3539062 20.9648438,14.259375 23.6015625,13.6335937 C23.7804688,13.6335937 23.959375,13.6335937 24.09375,13.7671875 C24.2273438,13.9015625 24.3171875,14.0351562 24.3171875,14.2140625 C24.2726563,14.70625 23.9148438,19.0421875 23.065625,20.5617187 C22.0820313,22.35 20.9195313,22.8859375 20.1148438,23.24375 C19.6234375,23.4671875 19.4445313,23.5570312 19.4,23.690625 C19.3554688,23.959375 19.1320313,24.0929687 18.8632813,24.0929687 C18.5953125,24.0929687 18.371875,23.959375 18.3273438,23.690625 C18.2828125,23.5570312 18.1039063,23.4671875 17.6117188,23.24375 C16.9859375,22.9757812 16.1367188,22.5734375 15.3320313,21.5898437 L15.3320313,21.5898437 L0.58046875,21.5898437 C0.26796875,21.5898437 9.59010649e-12,21.3664062 9.59010649e-12,21.0539062 L9.59010649e-12,21.0539062 L9.59010649e-12,0.49140625 C9.59010649e-12,0.178125 0.26796875,-2.56200616e-12 0.58046875,-2.56200616e-12 L0.58046875,-2.56200616e-12 Z M18.8632813,12.5601562 C18.0140625,13.678125 16.4945313,14.9742187 14.5726563,14.840625 C14.70625,16.4046875 15.0640625,19.13125 15.6,20.0703125 C16.4046875,21.5007812 17.2992188,21.903125 18.0585938,22.2609375 C18.371875,22.35 18.6398438,22.4835937 18.8632813,22.6625 L18.8632813,22.6625 L19.6679688,22.2609375 C20.3835938,21.9476562 21.321875,21.5453125 22.1265625,20.0703125 C22.6179688,19.13125 22.9757813,16.4046875 23.1546875,14.840625 C21.2320313,14.9742187 19.7125,13.678125 18.8632813,12.5601562 Z M18.8188281,17.3435937 C19.1766406,17.3435937 19.5344531,17.6560937 19.5344531,18.0139062 L19.5344531,18.0139062 L19.5344531,20.2490625 C19.5344531,20.606875 19.1766406,20.919375 18.8188281,20.919375 C18.4610156,20.919375 18.1032031,20.606875 18.1032031,20.2490625 L18.1032031,20.2490625 L18.1032031,18.0139062 C18.1032031,17.6560937 18.4610156,17.3435937 18.8188281,17.3435937 Z M15.9132813,1.02734375 L1.2515625,1.02734375 L1.2515625,20.4726562 L14.70625,20.4726562 C13.8570313,18.9523437 13.5445313,14.70625 13.4992188,14.2140625 C13.4546875,14.0804687 13.5445313,13.9460937 13.678125,13.8117187 C13.8125,13.678125 13.990625,13.6335937 14.1695313,13.678125 C14.7960938,13.8117187 15.3320313,13.7671875 15.9132813,13.5890625 L15.9132813,13.5890625 L15.9132813,1.02734375 Z M18.6845313,15.1980469 C19.0423438,15.1980469 19.3548438,15.5105469 19.3548438,15.8683594 C19.3548438,16.2261719 19.0423438,16.5386719 18.6845313,16.5386719 C18.3267188,16.5386719 18.0142188,16.2707031 18.0142188,15.8683594 C18.0142188,15.5105469 18.3267188,15.1980469 18.6845313,15.1980469 Z M10.193907,13.4545312 C10.4163411,13.4545312 10.5759375,13.7225 10.5759375,14.0357812 C10.5759375,14.3490625 10.4163411,14.6170312 10.193907,14.6170312 L10.193907,14.6170312 L3.95796801,14.6170312 C3.73497786,14.6170312 3.5759375,14.3490625 3.5759375,14.0357812 C3.5759375,13.7225 3.73497786,13.4545312 3.95796801,13.4545312 L3.95796801,13.4545312 Z M12.0805622,10.2360156 C12.3664079,10.2360156 12.6122352,10.5039844 12.5715022,10.8172656 C12.5715022,11.1305469 12.3664079,11.3985156 12.0805622,11.3985156 L12.0805622,11.3985156 L4.06687752,11.3985156 C3.78031719,11.3985156 3.5759375,11.1305469 3.5759375,10.8172656 C3.5759375,10.5039844 3.78031719,10.2360156 4.06687752,10.2360156 L4.06687752,10.2360156 Z M12.8735938,7.01757812 C13.1860938,7.01757812 13.4548438,7.24101562 13.4103125,7.50898437 C13.4103125,7.82226562 13.1860938,8.00117187 12.8735938,8.00117187 L12.8735938,8.00117187 L4.11265625,8.00117187 C3.799375,8.00117187 3.5759375,7.82226562 3.5759375,7.50898437 C3.5759375,7.19648437 3.799375,7.01757812 4.11265625,7.01757812 L4.11265625,7.01757812 Z M12.8735938,3.79914062 C13.1860938,3.79914062 13.4103125,3.97804687 13.4103125,4.29054687 C13.4103125,4.60382812 13.1860938,4.78273437 12.8735938,4.78273437 L12.8735938,4.78273437 L4.11265625,4.78273437 C3.799375,4.78273437 3.5759375,4.60382812 3.5759375,4.29054687 C3.5759375,3.97804687 3.799375,3.79914062 4.11265625,3.79914062 L4.11265625,3.79914062 Z" id="path-175"></path>
    </defs>
    <g id="Symbols" stroke="none" stroke-width="1" fill="none" fill-rule="evenodd">
        <g id="Condition">
            <g id="Icone/Up/certificat">
                <g>
                    <g>
                        <mask id="mask-275" fill="white">
                            <use xlink:href="#path-175"></use>
                        </mask>
                        <use id="Combined-Shape" fill="#4E5B59" xlink:href="#path-175"></use>
                    </g>
                </g>
            </g>
        </g>
    </g>
</svg>