<?xml version="1.0" encoding="UTF-8"?>
<svg width="24px" height="24px" viewBox="0 0 24 24" version="1.1" xmlns="http://www.w3.org/2000/svg" xmlns:xlink="http://www.w3.org/1999/xlink">
    <!-- Generator: Sketch 51.3 (57544) - http://www.bohemiancoding.com/sketch -->
    <title>0: Icons / Dark / Controller</title>
    <desc>Created with Sketch.</desc>
    <defs></defs>
    <g id="0:-Icons-/-Dark-/-Controller" stroke="none" stroke-width="1" fill="none" fill-rule="evenodd">
        <path d="M17.625,8 C17.004,8 16.5,8.504 16.5,9.125 C16.5,9.746 17.004,10.25 17.625,10.25 C18.246,10.25 18.75,9.746 18.75,9.125 C18.75,8.504 18.246,8 17.625,8 L17.625,8 Z M19.875,11 C19.254,11 18.75,11.504 18.75,12.125 C18.75,12.746 19.254,13.25 19.875,13.25 C20.496,13.25 21,12.746 21,12.125 C21,11.504 20.496,11 19.875,11 L19.875,11 Z M22.5,14 C22.5,15.65675 21.15675,17 19.5,17 L4.5,17 C2.84325,17 1.5,15.65675 1.5,14 L1.5,9.5 C1.5,7.84325 2.84325,6.5 4.5,6.5 L19.5,6.5 C21.15675,6.5 22.5,7.84325 22.5,9.5 L22.5,14 L22.5,14 Z M19.5,5 L4.5,5 C2.01525,5 0,7.01525 0,9.5 L0,14 C0,16.48475 2.01525,18.5 4.5,18.5 L19.5,18.5 C21.98475,18.5 24,16.48475 24,14 L24,9.5 C24,7.01525 21.98475,5 19.5,5 L19.5,5 Z M16.875,13.25 C16.254,13.25 15.75,13.754 15.75,14.375 C15.75,14.996 16.254,15.5 16.875,15.5 C17.496,15.5 18,14.996 18,14.375 C18,13.754 17.496,13.25 16.875,13.25 L16.875,13.25 Z M9.75,11 L7.5,11 L7.5,8.75 C7.5,8.336 7.16475,8 6.75,8 C6.33525,8 6,8.336 6,8.75 L6,11 L3.75,11 C3.33525,11 3,11.336 3,11.75 C3,12.16475 3.33525,12.5 3.75,12.5 L6,12.5 L6,14.75 C6,15.16475 6.33525,15.5 6.75,15.5 C7.16475,15.5 7.5,15.16475 7.5,14.75 L7.5,12.5 L9.75,12.5 C10.16475,12.5 10.5,12.16475 10.5,11.75 C10.5,11.336 10.16475,11 9.75,11 L9.75,11 Z M14.625,10.25 C14.004,10.25 13.5,10.754 13.5,11.375 C13.5,11.996 14.004,12.5 14.625,12.5 C15.246,12.5 15.75,11.996 15.75,11.375 C15.75,10.754 15.246,10.25 14.625,10.25 L14.625,10.25 Z" id="Fill-147" fill="#000000"></path>
    </g>
</svg>