<?xml version="1.0" encoding="UTF-8"?>
<svg width="24px" height="24px" viewBox="0 0 24 24" version="1.1" xmlns="http://www.w3.org/2000/svg" xmlns:xlink="http://www.w3.org/1999/xlink">
    <!-- Generator: Sketch 51.3 (57544) - http://www.bohemiancoding.com/sketch -->
    <title>0: Icons / Dark / Crop</title>
    <desc>Created with Sketch.</desc>
    <defs></defs>
    <g id="0:-Icons-/-Dark-/-Crop" stroke="none" stroke-width="1" fill="none" fill-rule="evenodd">
        <path d="M23.25,19.5 L21,19.5 L21,6.75 L19.5,8.25 L19.5,19.5 L5.529,19.5 L21.90975,2.40075 L20.84925,1.34025 L4.5,18.4065 L4.5,4.5 L15.01575,4.5 L16.39575,3 L4.5,3 L4.5,0.75 C4.5,0.33525 4.16475,0 3.75,0 C3.33525,0 3,0.33525 3,0.75 L3,3 L0.75,3 C0.33525,3 0,3.336 0,3.75 C0,4.16475 0.33525,4.5 0.75,4.5 L3,4.5 L3,21 L19.5,21 L19.5,23.25 C19.5,23.66475 19.83525,24 20.25,24 C20.66475,24 21,23.66475 21,23.25 L21,21 L23.25,21 C23.66475,21 24,20.66475 24,20.25 C24,19.836 23.66475,19.5 23.25,19.5" id="Fill-68" fill="#000000"></path>
    </g>
</svg>