<?xml version="1.0" encoding="UTF-8"?>
<svg width="24px" height="24px" viewBox="0 0 24 24" version="1.1" xmlns="http://www.w3.org/2000/svg" xmlns:xlink="http://www.w3.org/1999/xlink">
    <!-- Generator: Sketch 51.3 (57544) - http://www.bohemiancoding.com/sketch -->
    <title>0: Icons / Dark / Cup</title>
    <desc>Created with Sketch.</desc>
    <defs></defs>
    <g id="0:-Icons-/-Dark-/-Cup" stroke="none" stroke-width="1" fill="none" fill-rule="evenodd">
        <path d="M19.4838307,8.998594 L19.4838307,4.499297 C22.4473676,4.499297 22.4781128,4.34257149 22.4781128,5.99906267 C22.4781128,7.65555385 21.1380722,8.998594 19.4838307,8.998594 L19.4838307,8.998594 Z M17.9870645,7.49882834 C17.9870645,10.8118107 15.3069833,14.9976567 12,14.9976567 C8.6930167,14.9976567 6.01293546,10.8118107 6.01293546,7.49882834 L6.01293546,2.99953133 C6.01293546,2.25789721 6.79206372,1.49976567 7.50970159,1.49976567 L16.4902984,1.49976567 C17.2079363,1.49976567 17.9870645,2.23390096 17.9870645,2.99953133 L17.9870645,7.49882834 L17.9870645,7.49882834 Z M4.51616932,8.998594 C2.86267767,8.998594 1.52188717,7.65555385 1.52188717,5.99906267 C1.52188717,4.34257149 1.55263236,4.499297 4.51616932,4.499297 L4.51616932,8.998594 L4.51616932,8.998594 Z M19.4838307,2.99953133 C19.4838307,1.34304015 18.1437901,0 16.4902984,0 L7.50970159,0 C5.85620994,0 4.51616932,1.34304015 4.51616932,2.99953133 C-0.610779611,2.99953133 0.0251210315,2.99878145 0.0251210315,5.99906267 C0.0251210315,8.4834245 2.03555691,10.4983597 4.51616932,10.4983597 C4.69464144,10.4983597 4.86561472,10.4698641 5.03808777,10.4458679 C6.04293077,13.3884081 8.41031088,16.0392439 11.2516169,16.4434308 L11.2516169,20.9967193 L9.00646773,20.9967193 C8.59328229,20.9967193 8.25808466,21.331917 8.25808466,21.7466022 C8.25808466,22.1612874 8.59328229,22.496485 9.00646773,22.496485 L14.9935323,22.496485 C15.4067177,22.496485 15.7419153,22.1612874 15.7419153,21.7466022 C15.7419153,21.331917 15.4067177,20.9967193 14.9935323,20.9967193 L12.7483831,20.9967193 L12.7483831,16.4434308 C15.5896891,16.0392439 17.9570692,13.3884081 18.9626621,10.4458679 C19.1343853,10.4698641 19.3053586,10.4983597 19.4838307,10.4983597 C21.9644431,10.4983597 23.974879,8.4834245 23.974879,5.99906267 C23.974879,2.99878145 24.6107796,2.99953133 19.4838307,2.99953133 L19.4838307,2.99953133 Z" id="Fill-159" fill="#000000"></path>
    </g>
</svg>