<svg xmlns="http://www.w3.org/2000/svg" xmlns:xlink="http://www.w3.org/1999/xlink" version="1.1" id="Calque_1" x="0px" y="0px" viewBox="0 0 30 30" style="enable-background:new 0 0 30 30;" xml:space="preserve">

<title>Icone/Foncé/Livraison</title>
<desc>Created with Sketch.</desc>
<g>
	<path class="st0" d="M9.5,30C7,30,5,28,5,25.5c0-2.1,1.5-3.9,3.5-4.4c0,0,0,0,0,0L4.6,1.6L1.1,2.5C0.9,2.6,0.6,2.4,0.5,2.1   c0,0,0-0.1,0-0.1c0-0.2,0.2-0.4,0.4-0.5l4-1c0,0,0,0,0,0c0.1,0,0.1,0,0.2,0c0.1,0,0.1,0,0.2,0.1c0,0,0,0,0,0h0   c0.1,0,0.1,0.1,0.2,0.2c0,0,0,0.1,0.1,0.2c0,0,0,0,0,0l4,20c0,0,0,0.1,0,0.1c2.1,0,3.9,1.5,4.4,3.5c0,0,0,0,0,0l15-3   c0.3-0.1,0.5,0.1,0.6,0.4c0,0,0,0.1,0,0.1c0,0.2-0.2,0.4-0.4,0.5l-15,3c0,0-0.1,0-0.1,0C14,28,12,30,9.5,30z M9.5,22   C7.6,22,6,23.6,6,25.5S7.6,29,9.5,29s3.5-1.6,3.5-3.5S11.4,22,9.5,22z M13,20.5C13,20.5,13,20.5,13,20.5L13,20.5   C12.9,20.5,12.9,20.5,13,20.5L13,20.5C12.9,20.5,12.9,20.5,13,20.5L13,20.5C12.9,20.5,12.9,20.5,13,20.5L13,20.5   C12.9,20.5,12.9,20.5,13,20.5L13,20.5L13,20.5C12.9,20.5,12.9,20.5,13,20.5L13,20.5C12.9,20.5,12.9,20.5,13,20.5L13,20.5   C12.9,20.5,12.9,20.5,13,20.5L13,20.5c-0.1,0-0.2,0-0.3-0.1l0,0c0,0,0,0,0,0h0c0,0,0,0,0,0c0,0,0,0,0,0c0,0,0,0,0,0c0,0,0,0,0,0h0   c0,0,0,0,0,0s0,0,0,0l0,0c-0.1,0-0.1-0.1-0.2-0.2c0-0.1-0.1-0.1-0.1-0.2l-2-12c0,0,0-0.1,0-0.1c0-0.2,0.2-0.5,0.4-0.5c0,0,0,0,0,0   l7.8-1.3c0.3,0,0.5,0.1,0.6,0.4c0.1,0.1,0.2,0.2,0.2,0.3l1,5c0,0,0,0,0,0l2.4-0.4c0,0,0,0,0,0c0,0,0,0,0,0l0,0c0,0,0,0,0,0   c0,0,0,0,0,0l0,0c0,0,0.1,0,0.1,0l0,0h0l0,0c0,0,0,0,0,0l0,0h0l0,0c0,0,0,0,0,0c0,0,0,0,0,0c0,0,0,0,0,0c0,0,0,0,0,0h0l0,0   c0,0,0,0,0,0h0c0.1,0,0.1,0,0.2,0.1l0,0c0,0,0,0,0,0l0,0c0,0,0,0,0,0s0,0,0,0c0,0,0,0,0,0h0c0,0,0,0,0,0c0,0,0,0,0,0l0,0   c0,0,0,0,0,0l0,0c0.1,0,0.1,0.1,0.2,0.2c0,0.1,0.1,0.1,0.1,0.2l1,6c0,0,0,0,0,0l0,0v0c0,0,0,0,0,0c0,0,0,0,0,0l0,0c0,0,0,0,0,0v0   l0,0c0,0,0,0,0,0.1c0,0,0,0,0,0.1l0,0c0,0,0,0,0,0l0,0c0,0,0,0,0,0v0c0,0,0,0,0,0c0,0,0,0,0,0l0,0v0l0,0c0,0,0,0,0,0l0,0   c0,0.1,0,0.2-0.1,0.2c0,0,0,0,0,0c0,0,0,0,0,0v0c0,0.1-0.1,0.1-0.2,0.1l0,0h0c0,0,0,0,0,0l0,0c0,0,0,0,0,0l0,0   c-0.1,0-0.1,0.1-0.2,0.1L13,20.5C13.1,20.5,13.1,20.5,13,20.5C13.1,20.5,13.1,20.5,13,20.5L13,20.5C13.1,20.5,13.1,20.5,13,20.5   C13.1,20.5,13.1,20.5,13,20.5C13.1,20.5,13.1,20.5,13,20.5C13,20.5,13,20.5,13,20.5z M12.6,14.4l0.8,5l10-1.8l-0.8-5L12.6,14.4z    M11.6,8.4l0.8,5l7.1-1.3c0,0,0,0,0,0l-1-4.8L11.6,8.4z"/>
</g>
</svg>