<?xml version="1.0" encoding="UTF-8"?>
<svg width="24px" height="24px" viewBox="0 0 24 24" version="1.1" xmlns="http://www.w3.org/2000/svg" xmlns:xlink="http://www.w3.org/1999/xlink">
    <!-- Generator: Sketch 51.3 (57544) - http://www.bohemiancoding.com/sketch -->
    <title>0: Icons / Dark / Desktop</title>
    <desc>Created with Sketch.</desc>
    <defs></defs>
    <g id="0:-Icons-/-Dark-/-Desktop" stroke="none" stroke-width="1" fill="none" fill-rule="evenodd">
        <path d="M21.75,13.5 L1.5,13.5 L1.5,3 C1.5,2.172 2.172,1.5 3,1.5 L20.25,1.5 C21.078,1.5 21.75,2.172 21.75,3 L21.75,13.5 L21.75,13.5 Z M21.75,16.5 C21.75,17.328 21.078,18 20.25,18 L3,18 C2.172,18 1.5,17.328 1.5,16.5 L1.5,15 L21.75,15 L21.75,16.5 L21.75,16.5 Z M10.5,19.5 L13.5,19.5 L13.5,22.5 L10.5,22.5 L10.5,19.5 Z M20.25,0 L3,0 C1.34325,0 0,1.34325 0,3 L0,16.5 C0,18.15675 1.34325,19.5 3,19.5 L9,19.5 L9,22.5 L7.5,22.5 C7.08525,22.5 6.75,22.836 6.75,23.25 C6.75,23.66475 7.08525,24 7.5,24 L16.5,24 C16.91475,24 17.25,23.66475 17.25,23.25 C17.25,22.836 16.91475,22.5 16.5,22.5 L15,22.5 L15,19.5 L20.25,19.5 C21.90675,19.5 23.25,18.15675 23.25,16.5 L23.25,3 C23.25,1.34325 21.90675,0 20.25,0 L20.25,0 Z" id="Fill-143" fill="#000000"></path>
    </g>
</svg>