<?xml version="1.0" encoding="UTF-8"?>
<svg width="24px" height="24px" viewBox="0 0 24 24" version="1.1" xmlns="http://www.w3.org/2000/svg" xmlns:xlink="http://www.w3.org/1999/xlink">
    <!-- Generator: Sketch 51.3 (57544) - http://www.bohemiancoding.com/sketch -->
    <title>0: Icons / Dark / Direction</title>
    <desc>Created with Sketch.</desc>
    <defs></defs>
    <g id="0:-Icons-/-Dark-/-Direction" stroke="none" stroke-width="1" fill="none" fill-rule="evenodd">
        <path d="M18.15275,13.3665 C18.035,13.44375 17.9015,13.5 17.75,13.5 L4.25,13.5 C3.836,13.5 3.5,13.16475 3.5,12.75 L3.5,6.75 C3.5,6.336 3.836,6 4.25,6 L17.75,6 C17.90975,6 18.04925,6.06075 18.17075,6.1455 L19.97225,9.738 L18.15275,13.3665 L18.15275,13.3665 Z M12.5,21 C12.5,21.828 11.828,22.5 11,22.5 L9.5,22.5 C8.672,22.5 8,21.828 8,21 L8,15 L12.5,15 L12.5,21 L12.5,21 Z M8,3 C8,2.172 8.672,1.5 9.5,1.5 L11,1.5 C11.828,1.5 12.5,2.172 12.5,3 L12.5,4.5 L8,4.5 L8,3 L8,3 Z M21.28775,9.168 L19.05275,4.7115 C18.893,4.55175 18.68075,4.4865 18.4715,4.5 L14,4.5 L14,3 C14,1.34325 12.65675,0 11,0 L9.5,0 C7.84325,0 6.5,1.34325 6.5,3 L6.5,4.5 L3.5,4.5 C2.672,4.5 2,5.172 2,6 L2,13.5 C2,14.328 2.672,15 3.5,15 L6.5,15 L6.5,21 C6.5,22.65675 7.84325,24 9.5,24 L11,24 C12.65675,24 14,22.65675 14,21 L14,15 L18.5,15 L18.5,14.982 C18.6995,14.9865 18.9005,14.9175 19.05275,14.766 L21.28775,10.30875 C21.4565,9.99375 21.479,9.891 21.5015,9.738 C21.512,9.53325 21.44525,9.453 21.28775,9.168 L21.28775,9.168 Z" id="Fill-161" fill="#000000"></path>
    </g>
</svg>