<?xml version="1.0" encoding="UTF-8"?>
<svg width="24px" height="24px" viewBox="0 0 24 24" version="1.1" xmlns="http://www.w3.org/2000/svg" xmlns:xlink="http://www.w3.org/1999/xlink">
    <!-- Generator: Sketch 51.3 (57544) - http://www.bohemiancoding.com/sketch -->
    <title>0: Icons / Dark / Document</title>
    <desc>Created with Sketch.</desc>
    <defs></defs>
    <g id="0:-Icons-/-Dark-/-Document" stroke="none" stroke-width="1" fill="none" fill-rule="evenodd">
        <path d="M16.997548,6.00294243 C16.1696833,6.00294243 15.4977932,5.33105228 15.4977932,4.50318763 L15.4977932,1.50367803 L19.9970576,6.00294243 L16.997548,6.00294243 L16.997548,6.00294243 Z M19.9970576,21.0004904 C19.9970576,21.8283551 19.3251674,22.5002452 18.4973028,22.5002452 L4.9995096,22.5002452 C4.17164495,22.5002452 3.4997548,21.8283551 3.4997548,21.0004904 L3.4997548,3.00343283 C3.4997548,2.17556818 4.17164495,1.50367803 4.9995096,1.50367803 L13.9770418,1.50367803 C13.963544,3.2996344 13.9980384,4.50318763 13.9980384,4.50318763 C13.9980384,6.1596668 15.3410688,7.50269722 16.997548,7.50269722 L19.9970576,7.50269722 L19.9970576,21.0004904 L19.9970576,21.0004904 Z M15.4977932,0.003923234 L15.4977932,0.0249198012 C15.4018089,0.0249198012 15.0013743,-0.0118241914 13.9980384,0.003923234 L4.9995096,0.003923234 C3.34303042,0.003923234 2,1.34695366 2,3.00343283 L2,21.0004904 C2,22.6569696 3.34303042,24 4.9995096,24 L18.4973028,24 C20.153782,24 21.4968124,22.6569696 21.4968124,21.0004904 L21.4968124,7.50269722 L21.4968124,6.00294243 L15.4977932,0.003923234 L15.4977932,0.003923234 Z" id="Fill-221" fill="#000000"></path>
    </g>
</svg>