<svg id="Télécharger" xmlns="http://www.w3.org/2000/svg" width="30" height="30" viewBox="0 0 30 30">
  <g id="_0:_Icons_Dark_Move_To_Bottom" data-name="0: Icons / Dark / Move To Bottom" transform="translate(1.984 0)">
    <path id="Fill_54" data-name="Fill 54" d="M21.428,29H3.572A3.6,3.6,0,0,1,0,25.375V7.25A3.6,3.6,0,0,1,3.572,3.625H6.25V5.437H3.572A1.8,1.8,0,0,0,1.785,7.25V25.375a1.8,1.8,0,0,0,1.786,1.812H21.428a1.8,1.8,0,0,0,1.785-1.812V7.25a1.8,1.8,0,0,0-1.785-1.813H18.75V3.625h2.678A3.6,3.6,0,0,1,25,7.25V25.375A3.6,3.6,0,0,1,21.428,29Zm-8.876-5.492h-.1a.871.871,0,0,1-.625-.257L5.663,17a.915.915,0,0,1,0-1.282.883.883,0,0,1,1.262,0l4.682,4.751V.907a.893.893,0,1,1,1.786,0V20.468l4.68-4.751a.885.885,0,0,1,1.264,0,.915.915,0,0,1,0,1.282l-6.16,6.253A.87.87,0,0,1,12.552,23.508Z" transform="translate(0.516 0.258)" fill="#fff"/>
  </g>
  <rect id="Icone_V1_Blanc_Config_background" data-name="Icone / V1 / Blanc / Config background" width="30" height="30" fill="none"/>
</svg>
