<?xml version="1.0" encoding="UTF-8"?>
<svg width="24px" height="24px" viewBox="0 0 24 24" version="1.1" xmlns="http://www.w3.org/2000/svg" xmlns:xlink="http://www.w3.org/1999/xlink">
    <!-- Generator: Sketch 51.3 (57544) - http://www.bohemiancoding.com/sketch -->
    <title>0: Icons / Dark / Download</title>
    <desc>Created with Sketch.</desc>
    <defs></defs>
    <g id="0:-Icons-/-Dark-/-Download" stroke="none" stroke-width="1" fill="none" fill-rule="evenodd">
        <path d="M23.2,2 L0.8,2 C0.3584,2 0,2.3584 0,2.8 L0,9.2 C0,9.6424 0.3584,10 0.8,10 C1.2416,10 1.6,9.6424 1.6,9.2 L1.6,3.6 L22.4,3.6 L22.4,9.2 C22.4,9.6424 22.7584,10 23.2,10 C23.6416,10 24,9.6424 24,9.2 L24,2.8 C24,2.3576 23.6416,2 23.2,2 L23.2,2 Z M15.4136,16.64 L12.8,19.808 L12.8,8.4016 C12.8,7.9592 12.4416,7.6 12,7.6 C11.5584,7.6 11.2,7.9592 11.2,8.4016 L11.2,19.8384 L8.5616,16.64 C8.248,16.324 7.7392,16.324 7.4256,16.64 C7.112,16.9544 7.112,17.4656 7.4256,17.7808 L11.3792,22.5736 C11.5464,22.7416 11.768,22.8136 11.9872,22.8016 C12.2064,22.8136 12.4288,22.7416 12.596,22.5736 L16.5496,17.7808 C16.8632,17.4656 16.8632,16.9544 16.5496,16.64 C16.236,16.324 15.7272,16.324 15.4136,16.64 L15.4136,16.64 Z" id="Fill-102" fill="#000000"></path>
    </g>
</svg>