<svg xmlns="http://www.w3.org/2000/svg" xmlns:xlink="http://www.w3.org/1999/xlink" width="16px" height="15px" viewBox="0 0 16 15" version="1.1">
    <!-- Generator: sketchtool 60.1 (101010) - https://sketch.com -->
    <title>C1A518A8-E6DD-484E-B12A-DFB1C86E8947@1,5x</title>
    <desc>Created with sketchtool.</desc>
    <defs>
        <path d="M13.874925,-1.23261033e-15 C14.495175,-1.27058969e-15 14.999925,0.50475 14.999925,1.125 L14.999925,1.125 L14.999925,10.875 C14.999925,11.49525 14.495175,12 13.874925,12 L13.874925,12 L13.499925,12 L13.499925,13.8749249 C13.499925,14.4538249 13.0602317,14.9321116 12.4973197,14.9933102 L12.374925,14.9999249 L1.124925,14.9999249 C0.504675,14.9999249 -7.50000036e-05,14.4951749 -7.50000036e-05,13.8749249 L-7.50000036e-05,13.8749249 L-7.50000036e-05,4.1249249 C-7.50000036e-05,3.5046749 0.504675,2.9999249 1.124925,2.9999249 L1.124925,2.9999249 L1.499925,2.999 L1.499925,1.125 C1.499925,0.5461 1.93961833,0.0678133333 2.50253033,0.00661466667 L2.624925,-5.43746507e-16 Z M13.850175,0.75 L2.649675,0.75 C2.429175,0.75 2.249925,0.88875 2.249925,1.059 L2.249925,1.059 L2.249925,2.999 L2.999925,2.9999249 L2.999925,3.7499249 L1.149675,3.7499249 C0.929175,3.7499249 0.749925,3.8886749 0.749925,4.0589249 L0.749925,4.0589249 L0.749925,13.9409249 C0.749925,14.1119249 0.929175,14.2499249 1.149675,14.2499249 L1.149675,14.2499249 L12.350175,14.2499249 C12.570675,14.2499249 12.749925,14.1119249 12.749925,13.9409249 L12.749925,13.9409249 L12.749925,4.0589249 C12.749925,3.8886749 12.570675,3.7499249 12.350175,3.7499249 L12.350175,3.7499249 L9.749925,3.7499249 L9.749925,2.9999249 L12.374925,2.9999249 C12.995175,2.9999249 13.499925,3.5046749 13.499925,4.1249249 L13.499925,4.1249249 L13.499925,11.25 L13.850175,11.25 C14.0431125,11.25 14.204468,11.1437695 14.2417922,11.0031577 L14.249925,10.941 L14.249925,1.059 C14.249925,0.88875 14.070675,0.75 13.850175,0.75 L13.850175,0.75 Z M6.37492515,2.62537479 C6.58192516,2.62537479 6.74992517,2.7933748 6.74992517,3.0003748 L6.74992517,11.469375 L8.35942523,9.86062494 C8.43292523,9.78637494 8.52892524,9.75037494 8.62492524,9.75037494 C8.72092524,9.75037494 8.81692525,9.78712494 8.89042525,9.86062494 C9.03667526,10.0061249 9.03667526,10.2446249 8.89042525,10.390875 L6.64042516,12.640875 C6.49417516,12.786375 6.25642515,12.786375 6.11017514,12.640875 L3.86017505,10.390875 C3.71392505,10.2446249 3.71392505,10.0061249 3.86017505,9.86062494 C4.00642506,9.71437494 4.24417507,9.71437494 4.39042507,9.86062494 L5.99992514,11.469375 L5.99992514,3.0003748 C5.99992514,2.7933748 6.16792514,2.62537479 6.37492515,2.62537479 Z" id="path-ca-1"/>
    </defs>
    <g id="Asset-Artboard-Page" stroke="none" stroke-width="1" fill="none" fill-rule="evenodd">
        <g id="Icone/Foncé/CopyBas" transform="translate(0.043478, 0.000000)">
            <mask id="mask-ca-2" fill="none">
                <use xlink:href="#path-ca-1"/>
            </mask>
            <g/>
            <g id="🎨-color-couleur/Gris-Up" mask="url(#mask-ca-2)" fill="#4E5B59" fill-rule="nonzero">
                <polygon id="Rectangle" points="0 0 15 0 15 15 0 15"/>
            </g>
        </g>
    </g>
</svg>