<?xml version="1.0" encoding="UTF-8"?>
<svg width="24px" height="24px" viewBox="0 0 24 24" version="1.1" xmlns="http://www.w3.org/2000/svg" xmlns:xlink="http://www.w3.org/1999/xlink">
    <!-- Generator: Sketch 51.3 (57544) - http://www.bohemiancoding.com/sketch -->
    <title>0: Icons / Dark / Edit</title>
    <desc>Created with Sketch.</desc>
    <defs></defs>
    <g id="0:-Icons-/-Dark-/-Edit" stroke="none" stroke-width="1" fill="none" fill-rule="evenodd">
        <path d="M8.8395,17.265 L4.8105,19.70475 C4.44375,19.87575 4.11375,19.52175 4.28475,19.17825 L6.72375,15.14625 L8.8395,17.265 L8.8395,17.265 Z M15.92925,5.4165 L18.582,8.034 L10.152,16.46925 C9.165,15.48075 7.79775,14.11275 7.518,13.833 L15.92925,5.4165 L15.92925,5.4165 Z M18.582,2.76225 C18.873,2.4705 19.34475,2.4705 19.6365,2.76225 L21.21675,4.34325 C21.50775,4.635 21.50775,5.10675 21.21675,5.39775 L19.6365,6.9795 L17.03925,4.305 L18.582,2.76225 L18.582,2.76225 Z M6.0825,13.551 L2.8575,20.07975 C2.58675,20.8155 3.17475,21.474 3.90975,21.13275 L10.434,17.9055 C10.71525,17.85075 10.98825,17.74125 11.20575,17.52375 L22.797,5.92425 C23.379,5.343 23.379,4.398 22.797,3.816 L20.163,1.17975 C19.58025,0.59775 18.6375,0.59775 18.0555,1.17975 L6.46425,12.7785 C6.246,12.99675 6.138,13.26975 6.0825,13.551 L6.0825,13.551 Z M22.5,9 L22.5,21 C22.5,21.82425 21.6855,22.509 20.86275,22.509 L2.9805,22.509 C2.15775,22.509 1.49025,21.8415 1.49025,21.01725 L1.49025,3.12375 C1.49025,2.2995 2.1765,1.5 3,1.5 L15,1.5 L15,0 L3,0 C1.3545,0 0,1.47675 0,3.12375 L0,21.01725 C0,22.665 1.33425,24 2.9805,24 L20.86275,24 C22.509,24 24,22.647 24,21 L24,9 L22.5,9 L22.5,9 Z" id="Fill-214" fill="#000000"></path>
    </g>
</svg>