<?xml version="1.0" encoding="UTF-8"?>
<svg width="24px" height="24px" viewBox="0 0 24 24" version="1.1" xmlns="http://www.w3.org/2000/svg" xmlns:xlink="http://www.w3.org/1999/xlink">
    <!-- Generator: Sketch 51.3 (57544) - http://www.bohemiancoding.com/sketch -->
    <title>0: Icons / Dark / Eject</title>
    <desc>Created with Sketch.</desc>
    <defs></defs>
    <g id="0:-Icons-/-Dark-/-Eject" stroke="none" stroke-width="1" fill="none" fill-rule="evenodd">
        <path d="M11.9853284,3.35748393 L21.5735912,18.163645 L2.39706569,18.163645 L11.9853284,3.35748393 L11.9853284,3.35748393 Z M1.72417511,19.8801153 L22.2738768,19.8801153 C24.2916925,19.8801153 24.224061,18.6927117 23.6521896,17.8075096 L13.2181051,1.52544086 C12.7404041,0.85426247 11.3175744,0.796048018 10.7525518,1.52544086 L0.318467299,17.8075096 C-0.198614014,18.7740407 -0.2679577,19.8801153 1.72417511,19.8801153 L1.72417511,19.8801153 Z M23.114562,21.5948733 L0.856094889,21.5948733 C0.38353051,21.5948733 0,21.9784039 0,22.4518243 C0,22.9252448 0.38353051,23.3087753 0.856094889,23.3087753 L23.114562,23.3087753 C23.5871264,23.3087753 23.9706569,22.9252448 23.9706569,22.4518243 C23.9706569,21.9784039 23.5871264,21.5948733 23.114562,21.5948733 L23.114562,21.5948733 Z" id="Fill-121" fill="#000000"></path>
    </g>
</svg>