<svg xmlns="http://www.w3.org/2000/svg" xmlns:xlink="http://www.w3.org/1999/xlink" width="30px" height="20px" viewBox="0 0 30 20" version="1.1">
    <!-- Generator: Sketch 64 (93537) - https://sketch.com -->
    <title>Fill 1</title>
    <desc>Created with Sketch.</desc>
    <g id="Symbols" stroke="none" stroke-width="1" fill="none" fill-rule="evenodd">
        <g id="Icone-/-V1-/-Desactivé-/-Mail" transform="translate(0.000000, -5.000000)" fill="#979797">
            <g id="Fill-1">
                <path d="M15.08,15.492 L0.858,6.235 L29.143,6.235 L15.08,15.492 Z M28.67,5 L1.331,5 C1.222,5 1.043,5.013 0.842,5.093 C0.782,5.116 0.577,5.203 0.39,5.39 C0.149,5.631 0,5.963 0,6.33 L0,23.669 C0,24.404 0.596,25 1.331,25 L28.67,25 C29.404,25 30,24.404 30,23.669 L30,6.33 C30,5.596 29.404,5 28.67,5 L28.67,5 Z M1,7.52 L14.534,16.33 C14.7,16.438 14.891,16.492 15.08,16.492 C15.271,16.492 15.463,16.437 15.63,16.327 L29,7.526 L29,23.669 C29,23.851 28.851,24 28.67,24 L1.331,24 C1.148,24 1,23.851 1,23.669 L1,7.52 L1,7.52 Z"/>
            </g>
        </g>
    </g>
</svg>