<?xml version="1.0" encoding="UTF-8"?>
<svg width="24px" height="24px" viewBox="0 0 24 24" version="1.1" xmlns="http://www.w3.org/2000/svg" xmlns:xlink="http://www.w3.org/1999/xlink">
    <!-- Generator: Sketch 51.3 (57544) - http://www.bohemiancoding.com/sketch -->
    <title>0: Icons / Dark / Enlarge</title>
    <desc>Created with Sketch.</desc>
    <defs></defs>
    <g id="0:-Icons-/-Dark-/-Enlarge" stroke="none" stroke-width="1" fill="none" fill-rule="evenodd">
        <path d="M22.5,21 C22.5,21.828 21.828,22.5 21,22.5 L3,22.5 C2.172,22.5 1.5,21.828 1.5,21 L1.5,3 C1.5,2.172 2.172,1.5 3,1.5 L21,1.5 C21.828,1.5 22.5,2.172 22.5,3 L22.5,21 L22.5,21 Z M21,0 L3,0 C1.34325,0 0,1.34325 0,3 L0,21 C0,22.65675 1.34325,24 3,24 L21,24 C22.65675,24 24,22.65675 24,21 L24,3 C24,1.34325 22.65675,0 21,0 L21,0 Z M20.229,3 L13.5,3 C13.08525,3 12.75,3.33525 12.75,3.75 C12.75,4.16475 13.08525,4.5 13.5,4.5 L18.47175,4.5 L13.3725,9.59925 L14.433,10.65975 L19.52325,5.5695 L19.5,10.5 C19.5,10.91475 19.83525,11.25 20.25,11.25 C20.66475,11.25 21,10.91475 21,10.5 L21,3.75 C21,3.528 20.9085,3.34875 20.76375,3.22575 C20.62725,3.08625 20.43825,3 20.229,3 L20.229,3 Z M10.5,19.5 L5.52825,19.5 L10.62825,14.40075 L9.567,13.34025 L4.47675,18.43125 L4.5,13.5 C4.5,13.08525 4.16475,12.75 3.75,12.75 C3.33525,12.75 3,13.08525 3,13.5 L3,20.25 C3,20.47275 3.0915,20.65125 3.23625,20.77425 C3.37275,20.91375 3.56175,21 3.771,21 L10.5,21 C10.91475,21 11.25,20.66475 11.25,20.25 C11.25,19.83525 10.91475,19.5 10.5,19.5 L10.5,19.5 Z" id="Fill-53" fill="#000000"></path>
    </g>
</svg>