<svg xmlns="http://www.w3.org/2000/svg" xmlns:xlink="http://www.w3.org/1999/xlink" width="25px" height="25px" viewBox="0 0 25 25" version="1.1">
    <!-- Generator: Sketch 54 (76480) - https://sketchapp.com -->
    <title>Icone/Foncé/Entrée</title>
    <desc>Created with Sketch.</desc>
    <g id="Page-1" stroke="none" stroke-width="1" fill-rule="evenodd">
        <g id="iPhone-8" transform="translate(-88.000000, -192.000000)">
            <g id="Icone/Foncé/Entrée" transform="translate(88.000000, 191.000000)">
                <g id="Plan-de-travail-2">
                    <path d="M23.9,7.14 L18.9,7.14 C18.6238576,7.14 18.4,6.91614237 18.4,6.64 L18.4,1.5 C18.3806545,1.28294247 18.5069803,1.07919109 18.71,1 C18.8988468,0.92350983 19.1150992,0.966760299 19.26,1.11 L24.26,6.25 C24.401304,6.39415193 24.4420691,6.60913103 24.3633459,6.79500531 C24.2846226,6.98087959 24.1018544,7.10118573 23.9,7.1 L23.9,7.14 Z M19.4,6.14 L22.72,6.14 L19.4,2.73 L19.4,6.14 Z" id="Shape" fill-rule="nonzero"/>
                    <path d="M21.47,26 L9.33,26 C8.55821455,26.0053226 7.81592698,25.7038272 7.26644141,25.1618431 C6.71695584,24.6198591 6.40528614,23.8817857 6.4,23.11 L6.4,16.35 C6.4,16.0738576 6.62385763,15.85 6.9,15.85 C7.17614237,15.85 7.4,16.0738576 7.4,16.35 L7.4,23.11 C7.41643326,24.1625577 8.27732898,25.005611 9.33,25 L21.47,25 C21.9765717,25.0053322 22.4645109,24.8091968 22.8264622,24.4547471 C23.1884135,24.1002974 23.3947234,23.6165723 23.4,23.11 L23.4,7 L18.4,2 L9.4,2 C8.88223712,1.97835131 8.37770903,2.16691631 8.00106418,2.52284569 C7.62441933,2.87877507 7.40764472,3.37184112 7.4,3.89 L7.4,9.8 C7.4,10.0761424 7.17614237,10.3 6.9,10.3 C6.62385763,10.3 6.4,10.0761424 6.4,9.8 L6.4,3.89 C6.40528614,3.1182143 6.71695584,2.38014092 7.26644141,1.83815686 C7.81592698,1.2961728 8.55821455,0.994677404 9.33,1 L18.59,1 C18.7226039,0.998383452 18.8497197,1.05286165 18.94,1.15 L24.25,6.45 C24.3476584,6.54407559 24.4019661,6.67441418 24.4,6.81 L24.4,23.11 C24.3947139,23.8817857 24.0830442,24.6198591 23.5335586,25.1618431 C22.984073,25.7038272 22.2417854,26.0053226 21.47,26 Z" id="Path" fill-rule="nonzero"/>
                    <path d="M11.9,16.57 C11.6847848,16.57 11.4937154,16.432285 11.4256584,16.2281139 C11.3576013,16.0239428 11.4278278,15.7991291 11.6,15.67 L15.07,13.07 L11.6,10.47 C11.3790861,10.3043146 11.3343146,9.99091391 11.5,9.77000001 C11.6656854,9.54908612 11.9790861,9.50431459 12.2,9.67 L16.2,12.67 C16.3271726,12.763362 16.401614,12.9122447 16.4,13.07 C16.4033127,13.2281424 16.3285015,13.3777647 16.2,13.47 L12.2,16.47 C12.1145521,16.5369838 12.0085486,16.5723183 11.9,16.57 L11.9,16.57 Z" id="Path" fill-rule="nonzero"/>
                    <path d="M11.9,14 L0.5,14 C0.223857625,14 3.38176876e-17,13.7761424 0,13.5 C-3.38176876e-17,13.2238576 0.223857625,13 0.5,13 L11.9,13 C12.1761424,13 12.4,13.2238576 12.4,13.5 C12.4,13.7761424 12.1761424,14 11.9,14 Z" id="Path" fill-rule="nonzero"/>
                </g>
            </g>
        </g>
    </g>
</svg>