<?xml version="1.0" encoding="UTF-8"?>
<svg width="30px" height="30px" viewBox="0 0 30 30" version="1.1" xmlns="http://www.w3.org/2000/svg" xmlns:xlink="http://www.w3.org/1999/xlink">
    <!-- Generator: Sketch 52.6 (67491) - http://www.bohemiancoding.com/sketch -->
    <title>Icone/Foncé/Entreprise</title>
    <desc>Created with Sketch.</desc>
    <g id="Icone/Foncé/Entreprise" stroke="none" stroke-width="1" fill="none" fill-rule="evenodd">
        <g id="Group-9">
            <g id="Group-8">
                <path d="M22.3276517,16.8374248 C21.0416966,16.8374248 19.9950674,15.8314722 19.9950674,14.5950967 C19.9950674,13.3583971 21.0416966,12.3524444 22.3276517,12.3524444 C23.6132697,12.3524444 24.6598989,13.3583971 24.6598989,14.5950967 C24.6598989,15.8314722 23.6132697,16.8374248 22.3276517,16.8374248 M22.3276517,11.3801963 C20.4838315,11.3801963 18.9838315,12.8220402 18.9838315,14.5950967 C18.9838315,16.3675049 20.4838315,17.8096729 22.3276517,17.8096729 C24.1714719,17.8096729 25.6711348,16.3675049 25.6711348,14.5950967 C25.6711348,12.8220402 24.1711348,11.3801963 22.3276517,11.3801963" id="Fill-3" fill="#4E5B59"></path>
                <g id="Group-7">
                    <polygon id="Clip-6" points="6.74157303e-05 0.162041348 29.7870337 0.162041348 29.7870337 29.4913958 6.74157303e-05 29.4913958"></polygon>
                    <path d="M22.4053483,28.4167376 C21.0492809,27.0555902 15.8784944,17.9015504 15.8784944,14.5955828 C15.8784944,11.1765103 18.7716404,8.39490855 22.3278202,8.39490855 C25.8833258,8.39490855 28.7761348,11.1765103 28.7761348,14.5955828 C28.7761348,17.9086802 23.7314157,27.0533217 22.4053483,28.4167376 Z M4.88804494,23.7298536 C5.11894382,23.7026307 5.34377528,23.6582313 5.56186517,23.5992483 L5.56186517,26.7370169 L4.88804494,26.7370169 L4.88804494,23.7298536 Z M1.01130337,19.7439605 C1.01130337,18.6462924 1.66119101,17.6283487 2.70680899,17.0874546 L3.16860674,16.8486057 L2.90366292,16.4136867 C2.71152809,16.0977061 2.60973034,15.732789 2.60973034,15.3578253 C2.60973034,14.2695556 3.45849438,13.3841617 4.50208989,13.3841617 C4.89478652,13.3841617 5.25883146,13.5115262 5.56152809,13.7260689 L5.56152809,22.5732025 C5.18298876,22.7115858 4.77377528,22.7932546 4.34197753,22.7932546 C2.50591011,22.7929305 1.01130337,21.4253015 1.01130337,19.7439605 Z M15.675236,26.7366929 L15.675236,21.5513697 L17.1887191,21.5513697 C17.5446742,22.2896301 17.8750112,22.9345547 18.122764,23.4044746 C18.752764,24.6019601 19.4087191,25.753426 20.0184944,26.7366929 L15.675236,26.7366929 Z M9.94355056,26.7366929 L14.664,26.7366929 L14.664,21.5513697 L9.94355056,21.5513697 L9.94355056,26.7366929 Z M6.57310112,1.13415981 L23.7641124,1.13415981 L23.7641124,7.55715478 C23.2982697,7.46932837 22.8186067,7.42233638 22.3274831,7.42233638 C20.6184944,7.42233638 19.0426517,7.97911045 17.784,8.91182045 L8.92591011,8.91182045 L8.92591011,9.88406854 L16.7093933,9.88406854 C16.1865843,10.4589912 15.756809,11.1142865 15.4453483,11.8285647 L8.92591011,11.8285647 L8.92591011,12.8008128 L15.1035506,12.8008128 C14.9495056,13.3747633 14.8672584,13.9756126 14.8672584,14.5952587 C14.8672584,14.6425748 14.8736629,14.6966966 14.8753483,14.745309 L8.92591011,14.745309 L8.92591011,15.7175571 L14.9970337,15.7175571 C15.1150112,16.3164619 15.3074831,16.9779147 15.5457978,17.6620533 L8.93265169,17.6620533 L8.93265169,18.6343014 L15.9047865,18.6343014 C16.1636629,19.295106 16.4484944,19.9546143 16.7336629,20.5791216 L8.93231461,20.5791216 L8.93231461,26.7366929 L6.57276404,26.7366929 L6.57276404,1.13415981 L6.57310112,1.13415981 Z M24.7753483,26.7127107 C25.3665843,25.7356014 26.0026517,24.5909413 26.6137753,23.4002615 C27.5680449,21.5426195 29.7870337,16.9659236 29.7870337,14.5952587 C29.7870337,11.4642958 27.6897303,8.79741926 24.7753483,7.82095809 L24.7753483,0.161911715 L5.56186517,0.161911715 L5.56186517,12.6245118 C5.23253933,12.4916379 4.87759551,12.4119136 4.50242697,12.4119136 C2.90130337,12.4119136 1.59883146,13.7335228 1.59883146,15.3578253 C1.59883146,15.7428355 1.67265169,16.1216882 1.81489888,16.473642 C0.684674157,17.2238935 6.74157303e-05,18.4395277 6.74157303e-05,19.7439605 C6.74157303e-05,21.8158212 1.70062921,23.5253574 3.87647191,23.7411965 L3.87647191,26.7366929 L0.505348315,26.7366929 L0.505348315,27.708941 L20.642764,27.708941 C21.7392809,29.3491235 22.0938876,29.4913958 22.4070337,29.4913958 C22.7218652,29.4913958 23.0751236,29.3491235 24.1490562,27.708941 L28.6423146,27.708941 L28.6423146,26.7366929 L24.7753483,26.7366929 L24.7753483,26.7127107 Z" id="Fill-5" fill="#4E5B59"></path>
                </g>
                <polygon id="Fill-1" fill="#4E5B59" points="9 7 22 7 22 6 9 6"></polygon>
                <polygon id="Fill-2" fill="#4E5B59" points="9 4 22 4 22 3 9 3"></polygon>
            </g>
        </g>
    </g>
</svg>