<?xml version="1.0" encoding="UTF-8"?>
<svg width="24px" height="24px" viewBox="0 0 24 24" version="1.1" xmlns="http://www.w3.org/2000/svg" xmlns:xlink="http://www.w3.org/1999/xlink">
    <!-- Generator: Sketch 51.3 (57544) - http://www.bohemiancoding.com/sketch -->
    <title>0: Icons / Dark / Equalizer</title>
    <desc>Created with Sketch.</desc>
    <defs></defs>
    <g id="0:-Icons-/-Dark-/-Equalizer" stroke="none" stroke-width="1" fill="none" fill-rule="evenodd">
        <path d="M4,17 C2.6744,17 1.6,15.9256 1.6,14.6 C1.6,13.2752 2.6744,12.2 4,12.2 C5.3256,12.2 6.4,13.2752 6.4,14.6 C6.4,15.9256 5.3256,17 4,17 L4,17 Z M4.8,10.6808 L4.8,1.8 C4.8,1.3584 4.4424,1 4,1 C3.5576,1 3.2,1.3584 3.2,1.8 L3.2,10.6808 C1.3744,11.0512 0,12.6648 0,14.6 C0,16.5352 1.3744,18.1488 3.2,18.5192 L3.2,22.6 C3.2,23.0424 3.5576,23.4 4,23.4 C4.4424,23.4 4.8,23.0424 4.8,22.6 L4.8,18.5192 C6.6256,18.1488 8,16.5352 8,14.6 C8,12.6648 6.6256,11.0512 4.8,10.6808 L4.8,10.6808 Z M12,9 C10.6744,9 9.6,7.9256 9.6,6.6 C9.6,5.2752 10.6744,4.2 12,4.2 C13.3256,4.2 14.4,5.2752 14.4,6.6 C14.4,7.9256 13.3256,9 12,9 L12,9 Z M12.8,2.6808 L12.8,1.8 C12.8,1.3584 12.4424,1 12,1 C11.5576,1 11.2,1.3584 11.2,1.8 L11.2,2.6808 C9.3744,3.0512 8,4.6648 8,6.6 C8,8.5352 9.3744,10.1488 11.2,10.5192 L11.2,22.6 C11.2,23.0424 11.5576,23.4 12,23.4 C12.4424,23.4 12.8,23.0424 12.8,22.6 L12.8,10.5192 C14.6256,10.1488 16,8.5352 16,6.6 C16,4.6648 14.6256,3.0512 12.8,2.6808 L12.8,2.6808 Z M20,20.2 C18.6744,20.2 17.6,19.1256 17.6,17.8 C17.6,16.4752 18.6744,15.4 20,15.4 C21.3256,15.4 22.4,16.4752 22.4,17.8 C22.4,19.1256 21.3256,20.2 20,20.2 L20,20.2 Z M20.8,13.8808 L20.8,1.8 C20.8,1.3584 20.4424,1 20,1 C19.5576,1 19.2,1.3584 19.2,1.8 L19.2,13.8808 C17.3744,14.2512 16,15.8648 16,17.8 C16,19.7352 17.3744,21.3488 19.2,21.7192 L19.2,22.6 C19.2,23.0424 19.5576,23.4 20,23.4 C20.4424,23.4 20.8,23.0424 20.8,22.6 L20.8,21.7192 C22.6256,21.3488 24,19.7352 24,17.8 C24,15.8648 22.6256,14.2512 20.8,13.8808 L20.8,13.8808 Z" id="Fill-127" fill="#000000"></path>
    </g>
</svg>