<svg xmlns="http://www.w3.org/2000/svg" xmlns:xlink="http://www.w3.org/1999/xlink" width="30px" height="30px" viewBox="0 0 30 30" version="1.1">
    <!-- Generator: Sketch 63.1 (92452) - https://sketch.com -->
    <title>Icone / V1 / Orange / oeil fermé</title>
    <desc>Created with Sketch.</desc>
    <g id="Icone-/-V1-/-Orange-/-oeil-fermé" stroke="none" stroke-width="1" fill="none" fill-rule="evenodd">
        <g id="Group-3" transform="translate(0.000000, 9.000000)" fill="#F59100">
            <path d="M26.1022727,0.341830357 C26.0227273,0.2721875 25.9318182,0.202544643 25.8296591,0.156116071 C25.3864773,-0.122455357 24.7954545,-0.0179910714 24.4545455,0.388258929 C23.3410227,1.72308036 19.3409091,6.09897321 14.9319318,6.09897321 C10.5114773,6.09897321 6.52284091,1.7346875 5.40920455,0.388258929 C5.22738636,0.167723214 4.96590909,0.0284375 4.67056818,0.00522321429 C4.38647727,-0.0179910714 4.10238636,0.0748660714 3.88636364,0.260580357 C3.85238636,0.283794643 3.82954545,0.307008929 3.79556818,0.330223214 L0.375113636,3.46415179 C-0.0680681818,3.87040179 -0.124886364,4.55522321 0.23875,5.00790179 C0.443295455,5.26325893 0.750113636,5.41415179 1.06829545,5.41415179 C1.32954545,5.41415179 1.59102273,5.3096875 1.78409091,5.13558036 L4.25011364,2.88379464 C4.38647727,2.75611607 4.59102273,2.76772321 4.72738636,2.90700893 C5.44329545,3.67308036 6.20465909,4.38111607 6.96602273,5.00790179 C7.10238636,5.12397321 7.13647727,5.32129464 7.03420455,5.4721875 L5.04556818,8.51325893 C4.71602273,9.02397321 4.85227273,9.70879464 5.34102273,10.0454018 C5.52284091,10.1614732 5.72738636,10.2311161 5.94329545,10.2311161 C6.30693182,10.2311161 6.63647727,10.0454018 6.84090909,9.74361607 L8.80693182,6.72575893 C8.90920455,6.57486607 9.10238636,6.5284375 9.26147727,6.62129464 C10.6592045,7.43379464 12.0455682,7.95611607 13.4092045,8.18825893 C13.5796591,8.21147321 13.7046591,8.36236607 13.7046591,8.53647321 L13.7046591,11.8212946 C13.7046591,12.4364732 14.1704545,12.9471875 14.7501136,12.9587946 L14.7842045,12.9587946 C15.0682955,12.9587946 15.3296591,12.8543304 15.5340909,12.6454018 C15.7501136,12.4364732 15.86375,12.1579018 15.86375,11.8561161 L15.86375,8.5596875 C15.86375,8.38558036 15.9886364,8.2346875 16.1705682,8.21147321 C17.4546591,8.03736607 18.7842045,7.5846875 20.1023864,6.87665179 C20.2614773,6.78379464 20.4660227,6.84183036 20.5569318,7.00433036 L22.36375,10.0570089 C22.5568182,10.3820089 22.9092045,10.5909375 23.2842045,10.5909375 C23.5227273,10.5909375 23.75,10.5096875 23.9431818,10.3587946 C24.375,10.0221875 24.4886364,9.38379464 24.1932955,8.89629464 L22.36375,5.7971875 C22.2727273,5.64629464 22.3069318,5.44897321 22.4546591,5.34450893 C23.375,4.63647321 24.2840909,3.80075893 25.1478409,2.88379464 C25.2728409,2.74450893 25.48875,2.74450893 25.625,2.86058036 L28.1023864,5.13558036 C28.2954545,5.32129464 28.5569318,5.41415179 28.8182955,5.41415179 C29.1364773,5.41415179 29.4432955,5.26325893 29.6478409,5.00790179 C30.0227273,4.5784375 29.9546591,3.88200893 29.5228409,3.47575893 L26.1022727,0.341830357 Z" id="Fill-1"/>
        </g>
    </g>
</svg>