<?xml version="1.0" encoding="UTF-8"?>
<svg width="30px" height="17px" viewBox="0 0 30 17" version="1.1" xmlns="http://www.w3.org/2000/svg" xmlns:xlink="http://www.w3.org/1999/xlink">
    <title>70ED5AFE-526B-4D49-8562-07AA2FFB44D5@1,5x</title>
    <g id="Page-1" stroke="none" stroke-width="1" fill="none" fill-rule="evenodd">
        <g id="01_00_Recherche_commande" transform="translate(-1441.000000, -912.000000)" fill="#F59100" fill-rule="nonzero">
            <g id="Formulaire/Elements-de-base/Tableau/Tableau-Standard" transform="translate(118.000000, 500.000000)">
                <g id="Formulaire/Tableau/LignePaireBM" transform="translate(32.000000, 401.000000)">
                    <g id="-Icone-/-V2-/facture" transform="translate(1291.000000, 11.000000)">
                        <path d="M15.5066169,12.7556768 C16.6753598,12.7556768 17.6239047,13.7064052 17.6239047,14.8778384 C17.6239047,16.0492716 16.6753598,17 15.5066169,17 C14.337874,17 13.389329,16.0492716 13.389329,14.8778384 C13.389329,13.7064052 14.337874,12.7556768 15.5066169,12.7556768 Z M15.654086,2.23607799e-14 C15.9473303,2.23607799e-14 16.1834079,0.2376821 16.1834079,0.530540402 L16.1834079,0.530540402 L16.1834079,6.8047112 C17.9418155,6.9426517 19.5805963,7.48804724 21.0150588,8.34327837 L21.0150588,8.34327837 L25.0855448,3.98117518 C25.2845698,3.7700201 25.6191013,3.75728713 25.834006,3.95570924 C26.0467934,4.15625351 26.0584385,4.49155505 25.8583548,4.70589337 L25.8583548,4.70589337 L21.909613,8.94066686 C23.3313718,9.98689253 24.5022319,11.3578089 25.3057427,12.9494301 L25.3057427,12.9494301 L29.18779,10.4856005 C29.4323367,10.3317438 29.7605164,10.4017751 29.9182543,10.650068 C30.073875,10.8972999 30.0008285,11.2251738 29.7541645,11.3822138 L29.7541645,11.3822138 L25.7440213,13.9288077 C25.9716297,14.5145243 26.1537165,15.1225236 26.282871,15.7506835 C26.3273341,15.836631 26.3590934,15.9300061 26.3590934,16.032931 C26.3590934,16.0446028 26.3538002,16.0530915 26.3527415,16.0647634 C26.3548588,16.073252 26.3580348,16.0828018 26.3590934,16.0923515 L26.3590934,16.0923515 L26.3474483,16.0923515 C26.315689,16.4096146 26.0584385,16.6600297 25.7334348,16.6600297 C25.4084312,16.6600297 25.1511807,16.4096146 25.12048,16.0923515 L25.12048,16.0923515 L25.1046003,16.0923515 C24.9743871,15.4334203 24.7743034,14.7999551 24.5212875,14.1940779 C24.4979974,14.168612 24.4662381,14.1548179 24.4461238,14.1229855 C24.3931916,14.0391601 24.3762533,13.9468461 24.374136,13.8545321 C22.7904047,10.4092027 19.3201699,8.00903791 15.2952057,8.00903791 C10.4434405,8.00903791 6.38883426,11.4915051 5.48475234,16.0923515 L5.48475234,16.0923515 L5.46252082,16.0923515 C5.41488184,16.3926373 5.16821781,16.6260751 4.85591785,16.6260751 C4.54361789,16.6260751 4.29589521,16.3926373 4.24931487,16.0923515 L4.24931487,16.0923515 L4.23025928,16.0923515 C4.23237657,16.0774963 4.23766979,16.0637023 4.23978708,16.0477861 C4.23872843,16.0308088 4.23025928,16.0170147 4.23025928,15.9989764 C4.23025928,15.888624 4.26731182,15.7899435 4.31600944,15.6997516 C4.43669485,15.1341955 4.60396059,14.5877389 4.80298565,14.0571985 L4.80298565,14.0571985 L0.257168605,11.3280987 C0.00626999257,11.1774252 -0.0752455902,10.8506123 0.0761404921,10.6001972 C0.225409287,10.3487211 0.552530262,10.2659568 0.801311586,10.4176913 L0.801311586,10.4176913 L5.22432594,13.0735766 C6.17392954,11.1307376 7.6645002,9.50728401 9.49913014,8.39208808 L9.49913014,8.39208808 L5.43817201,3.8251963 C5.24338153,3.60661365 5.26243712,3.27131212 5.48051777,3.07607325 C5.69965706,2.88083438 6.0331299,2.90099492 6.22792038,3.11851648 L6.22792038,3.11851648 L10.4529683,7.87003633 C11.8694339,7.18670029 13.4521066,6.79728363 15.124764,6.77287877 L15.124764,6.77287877 L15.124764,0.530540402 C15.124764,0.2376821 15.3619002,2.23607799e-14 15.654086,2.23607799e-14 Z" id="Combined-Shape"></path>
                    </g>
                </g>
            </g>
        </g>
    </g>
</svg>