<svg xmlns="http://www.w3.org/2000/svg" xmlns:xlink="http://www.w3.org/1999/xlink" width="30px" height="30px" viewBox="0 0 30 30" version="1.1">
    <!-- Generator: Sketch 63.1 (92452) - https://sketch.com -->
    <title>Icone / V1 / Desactivé / oeil ouvert</title>
    <desc>Created with Sketch.</desc>
    <defs>
        <polygon id="path-1" points="0 0.00019047619 29.7189185 0.00019047619 29.7189185 29.7135238 0 29.7135238"/>
    </defs>
    <g id="Icone-/-V1-/-Desactivé-/-oeil-ouvert" stroke="none" stroke-width="1" fill="none" fill-rule="evenodd">
        <g id="Group-3">
            <mask id="mask-2" fill="white">
                <use xlink:href="#path-1"/>
            </mask>
            <g id="Clip-2"/>
        </g>
        <g id="Group" transform="translate(0.000000, 6.000000)" fill="#979797">
            <path d="M15.1739457,16.803093 C11.2751118,16.8234904 7.69458507,13.4997988 6.12061309,11.7915012 C7.73279104,10.0388816 11.2079378,6.82570734 15.0046989,6.80463999 C18.9056997,6.7828819 22.4889636,10.1091062 24.0621373,11.8161374 C22.4504155,13.5676058 18.9727597,16.7829674 15.1739457,16.803093 M4.91626964,13.6910167 C5.63876166,14.4470239 6.40641657,15.1452397 7.17372933,15.76287 L9.48570381,17.3509801 C10.8925959,18.1493522 12.2867147,18.6601491 13.6564273,18.8831408 C13.6945192,18.888091 13.729874,18.9000637 13.7623776,18.9165262 C13.8314905,18.9179076 13.8931903,18.9303408 13.9511265,18.9476092 C13.9524951,18.9476092 13.9537496,18.9473789 13.9551182,18.9473789 C14.0348375,18.9473789 14.1070297,18.9590062 14.172265,18.9793829 C14.186635,18.9805341 14.2021454,18.9806492 14.2166295,18.9815702 C14.2337367,18.980419 14.2505017,18.9789224 14.2682931,18.9789224 C14.3119734,18.9789224 14.3528024,18.9831819 14.3922629,18.9896287 C14.4817903,18.992737 14.5728004,18.9952697 14.6649509,19 C15.0402818,19.00022 15.4072872,18.9966512 15.7762315,18.9818004 C15.820596,18.9735116 15.8673556,18.9684463 15.9173084,18.9684463 C15.9442237,18.9684463 15.9701125,18.9698277 15.9953171,18.9723604 C16.0175563,18.9702882 16.0399097,18.9684463 16.0634035,18.9684463 C16.0648861,18.9684463 16.0661407,18.9686765 16.0676233,18.9686765 C16.0960211,18.9669497 16.124305,18.9660287 16.1528169,18.9641867 C16.2020855,18.9471487 16.2553458,18.9352911 16.3131679,18.9299955 C16.3481806,18.9118062 16.3855882,18.8970705 16.4278999,18.8916598 C17.7157262,18.7121844 19.0478031,18.2561855 20.3669926,17.5470331 C20.4056547,17.5244691 20.447054,17.5109999 20.4889095,17.505474 C20.4990598,17.4977608 20.5082976,17.4898174 20.5191322,17.4823344 C20.8204461,17.2773019 21.1619049,17.1376587 21.4869407,16.9685443 L21.7419513,16.824987 C21.8124328,16.781701 21.8817738,16.736458 21.9482636,16.6862648 L22.5836232,16.1466873 C22.5836232,16.1466873 22.6744051,16.0472217 22.7199102,16.0149875 C23.6400468,15.3079073 24.5482085,14.4741927 25.4102948,13.5602379 L25.8668277,12.9357003 L26.1286811,12.5387591 C26.1286811,12.5387591 26.1782919,12.4870693 26.2123921,12.4639297 L29.6282341,9.33652142 C30.0707391,8.93117633 30.1241134,8.25161028 29.7566518,7.80459098 C29.5501114,7.55247347 29.2413844,7.40454151 28.9219368,7.40638346 C28.6596272,7.40788005 28.3978877,7.51287145 28.2050331,7.6867059 L25.7424017,9.93377512 C25.6062287,10.0611002 25.4009429,10.0507392 25.2632874,9.9133985 C24.5406813,9.1576216 23.7726843,8.45963601 23.0051434,7.84223592 C22.8677159,7.7278045 22.8323612,7.53232709 22.9342057,7.38220781 L24.9135032,4.35484066 C25.2415043,3.84646125 25.1009975,3.16804642 24.6087678,2.83695512 C24.4256072,2.72275395 24.2199792,2.654947 24.0032887,2.65609822 C23.6383361,2.65817042 23.3086243,2.84420782 23.1049351,3.1445615 L21.1483332,6.14878911 C21.0464886,6.29890839 20.8529497,6.34610847 20.6927127,6.25493173 C19.2855925,5.45678987 17.8913597,4.9465685 16.521533,4.72392227 C16.3503475,4.70181881 16.2240967,4.55285075 16.2230703,4.38016753 L16.2052788,1.12232583 C16.2020855,0.512178441 15.7316388,0.00828879474 15.1499957,0 C15.1384769,0 15.1271861,0 15.1157814,0 C14.8306622,0.00172683224 14.5688087,0.106833354 14.3646634,0.315204444 C14.1492273,0.523575534 14.0366623,0.800559425 14.0382589,1.09987701 L14.0561644,4.36923093 C14.0570768,4.54191415 13.9324227,4.69226368 13.7501745,4.7163242 C12.4623482,4.89626012 11.1303853,5.35260432 9.81130993,6.06221725 C9.65221342,6.15523595 9.44658546,6.09882609 9.35443494,5.93811557 L7.52465403,2.9205338 C7.32894822,2.599343 6.97425994,2.39396509 6.59790261,2.39615241 C6.3584025,2.39741876 6.13076333,2.47938573 5.93768062,2.63008062 C5.50612421,2.96635242 5.39561202,3.60009985 5.69475907,4.08200116 L7.54769166,7.14540155 C7.63972813,7.29459986 7.60654026,7.49053775 7.45896257,7.59495354 C6.53893997,8.30237915 5.63112047,9.13620888 4.76937623,10.050509 C4.64460807,10.1893463 4.42791749,10.1906126 4.29049004,10.0761812 L1.79193356,7.83371688 C1.59702608,7.65067266 1.33426023,7.55995641 1.07195058,7.561453 C0.752617088,7.56317983 0.445486697,7.71456546 0.241569452,7.96898541 C-0.132392876,8.39700956 -0.0602006977,9.08739708 0.375347376,9.48790704 L3.82517552,12.5769797 C3.85437173,12.6019612 3.88562079,12.6265973 3.91778223,12.6504276" id="Fill-1"/>
            <path d="M17.0114688,11.4536892 C17.0114688,12.5459904 16.1599688,13.4315265 15.1094309,13.4315265 C14.0589915,13.4315265 13.207393,12.5459904 13.207393,11.4536892 C13.207393,10.361388 14.0589915,9.47585181 15.1094309,9.47585181 C16.1599688,9.47585181 17.0114688,10.361388 17.0114688,11.4536892" id="Fill-4"/>
        </g>
    </g>
</svg>