<?xml version="1.0" encoding="UTF-8"?>
<svg width="29px" height="30px" viewBox="0 0 29 30" version="1.1" xmlns="http://www.w3.org/2000/svg" xmlns:xlink="http://www.w3.org/1999/xlink">
    <!-- Generator: sketchtool 63.1 (101010) - https://sketch.com -->
    <title>0F86D2E3-5F09-48F6-B002-997FA6B2DB00@1,5x</title>
    <desc>Created with sketchtool.</desc>
    <g id="Financeur_Extranet-/-UI" stroke="none" stroke-width="1" fill="none" fill-rule="evenodd">
        <g id="01_2_08_Chèques_déjeuner" transform="translate(-1247.000000, -19.000000)" fill="#4E5B59">
            <g id="Group-18" transform="translate(1247.000000, 19.000000)">
                <g id="FAQ">
                    <path d="M14.831325,20.51625 C15.097575,20.7825 15.2322,21.10125 15.2322,21.4575 C15.2322,21.8175 15.097575,22.12875 14.827575,22.3875 C14.561325,22.6425 14.246325,22.77 13.886325,22.77 C13.526325,22.77 13.215075,22.63875 12.960075,22.38375 C12.705075,22.12875 12.573825,21.8175 12.573825,21.4575 C12.573825,21.10125 12.701325,20.7825 12.956325,20.51625 C13.211325,20.24625 13.522575,20.11125 13.886325,20.11125 C14.246325,20.115 14.565075,20.25 14.831325,20.51625 M17.411325,7.155 C18.041325,7.83375 18.363825,8.685 18.363825,9.69 C18.363825,10.91625 17.63595,12.315 16.1997,13.84125 C15.13845,14.97 14.598825,16.095 14.598825,17.19 C14.598825,17.58 14.632575,17.92875 14.696325,18.2325 L14.741325,18.435 L13.267575,18.435 L13.230075,18.31875 C13.113825,17.96625 13.053825,17.55375 13.053825,17.08875 C13.053825,15.8625 13.683825,14.535 14.928825,13.14375 C16.117575,11.81625 16.7172,10.67625 16.7172,9.7575 C16.7172,8.2425 15.870075,7.50375 14.130075,7.50375 C13.121325,7.50375 12.251325,7.785 11.542575,8.34375 L11.381325,8.47125 L10.717575,7.14375 L10.845075,7.06125 C11.943825,6.3525 13.128825,5.9925 14.366325,5.9925 C15.682575,5.9925 16.706325,6.3825 17.411325,7.155 M14.598825,27.67875 C12.495075,27.67875 10.481325,27.2025 8.613825,26.265 L8.437575,26.175 L1.518825,28.48125 L3.675075,22.0125 L3.540075,21.8175 C2.032575,19.60125 1.237575,17.01 1.237575,14.3175 C1.237575,6.9525 7.230075,0.95625 14.598825,0.95625 C21.9672,0.95625 27.960075,6.9525 27.960075,14.3175 C27.960075,21.68625 21.9672,27.67875 14.598825,27.67875 M24.723825,4.1925 C22.020075,1.48875 18.423825,0 14.598825,0 C10.773825,0 7.177575,1.48875 4.473825,4.1925 C1.770075,6.89625 0.281325,10.4925 0.281325,14.3175 C0.281325,17.11875 1.087575,19.82625 2.617575,22.15875 L7.5e-05,30 L8.362575,27.21375 C10.312575,28.15875 12.408825,28.63875 14.595075,28.63875 C18.4197,28.63875 22.016325,27.15 24.720075,24.44625 C27.423825,21.742875 28.912575,18.14625 28.912575,14.32125 C28.912575,10.49625 27.427575,6.9 24.723825,4.1925" id="FAQ-1"></path>
                </g>
            </g>
        </g>
    </g>
</svg>