<?xml version="1.0" encoding="UTF-8"?>
<svg width="24px" height="24px" viewBox="0 0 24 24" version="1.1" xmlns="http://www.w3.org/2000/svg" xmlns:xlink="http://www.w3.org/1999/xlink">
    <!-- Generator: Sketch 51.3 (57544) - http://www.bohemiancoding.com/sketch -->
    <title>0: Icons / Dark / Fast Forward</title>
    <desc>Created with Sketch.</desc>
    <defs></defs>
    <g id="0:-Icons-/-Dark-/-Fast-Forward" stroke="none" stroke-width="1" fill="none" fill-rule="evenodd">
        <path d="M10.5231546,20.9276545 L10.5231546,14.6203102 L1.50365217,20.9276545 L1.50365217,4.10806959 L10.5231546,10.4154139 L10.5231546,4.10806959 L22.548407,12.5178621 L10.5231546,20.9276545 L10.5231546,20.9276545 Z M23.5891188,11.4373539 L10.8347674,2.28494672 C9.98928295,1.83141862 9.02065507,1.72404359 9.0199042,3.47057728 L9.0199042,7.45396559 L1.81526501,2.28494672 C0.969780519,1.83141862 -0.0228753435,1.81790288 0.000401760735,3.51788236 L0.000401760735,21.4945647 C0.0244297393,23.0301027 1.04036271,23.2523615 1.81526501,22.7507774 L9.0199042,17.5817585 L9.0199042,21.5178418 C9.02065507,23.0068256 10.0591143,23.2523615 10.8347674,22.7507774 L23.5891188,13.5991211 C24.1237413,13.2146734 24.1500219,11.8210507 23.5891188,11.4373539 L23.5891188,11.4373539 Z" id="Fill-123" fill="#000000"></path>
    </g>
</svg>