<svg xmlns="http://www.w3.org/2000/svg" xmlns:xlink="http://www.w3.org/1999/xlink" width="16px" height="15px" viewBox="0 0 16 15" version="1.1">
    <!-- Generator: sketchtool 61.1 (101010) - https://sketch.com -->
    <title>A27619F3-9FBF-4C1A-8857-511BB891E53F@1,5x</title>
    <desc>Created with sketchtool.</desc>
    <defs>
        <path d="M11.7807693,-9.79729118e-14 C11.9948078,-9.79729118e-14 12.1476924,0.214038454 12.1476924,0.428076908 L12.1476924,0.428076908 L12.1476924,5.0492306 L13.3719232,5.0492306 C14.0757693,5.0492306 14.626154,5.59961519 14.6873078,6.30346132 L14.6873078,6.30346132 L14.6873078,13.4024995 C14.6873078,14.1063457 14.1363463,14.718461 13.433077,14.718461 L13.433077,14.718461 L1.31538462,14.718461 C0.580961543,14.718461 -1.96629038e-13,14.1063457 -1.96629038e-13,13.4024995 L-1.96629038e-13,13.4024995 L-1.96629038e-13,6.24230748 C-1.96629038e-13,5.53846135 0.611538466,5.01807675 1.31538462,5.01807675 L1.31538462,5.01807675 L2.47788463,5.01807675 L2.47788463,2.72307683 C2.47788463,2.63134606 2.5396154,2.50903838 2.60076925,2.44788453 L2.60076925,2.44788453 L4.92634619,0.122307688 C4.92634619,0.0917307661 5.04865388,-9.79729118e-14 5.17096158,-9.79729118e-14 L5.17096158,-9.79729118e-14 Z M2.41730767,5.81365365 L1.25423078,5.81365365 C0.979038483,5.81365365 0.764423104,6.02826904 0.764423104,6.30346135 L0.764423104,6.30346135 L0.764423104,13.4636538 C0.764423104,13.739423 0.979038483,13.9534615 1.25423078,13.9534615 L1.25423078,13.9534615 L13.3719227,13.9534615 C13.647115,13.9534615 13.7999996,13.739423 13.7999996,13.4636538 L13.7999996,13.4636538 L13.7999996,6.30346135 C13.7999996,6.02826904 13.647115,5.81365365 13.3719227,5.81365365 L13.3719227,5.81365365 L12.147692,5.81365365 L12.147692,7.7417306 C12.147692,7.95576907 11.9948074,8.10865369 11.7807689,8.10865369 L11.7807689,8.10865369 L2.84538458,8.10865369 C2.63134612,8.10865369 2.41730767,7.95576907 2.41730767,7.7417306 L2.41730767,7.7417306 L2.41730767,5.81365365 Z M7.31301898,11.6278267 C7.6187882,11.6278267 7.89455743,11.8724421 7.86398051,12.1787882 C7.86398051,12.4845575 7.6187882,12.7291729 7.31301898,12.7291729 C7.00724975,12.7291729 6.76205745,12.4845575 6.76205745,12.1787882 C6.76205745,11.8724421 7.00724975,11.6278267 7.31301898,11.6278267 Z M9.63842325,11.6278267 C9.94476941,11.6278267 10.1893848,11.8724421 10.2199617,12.1787882 C10.2199617,12.4845575 9.94476941,12.7291729 9.63842325,12.7291729 C9.33265401,12.7291729 9.08746169,12.4845575 9.08746169,12.1787882 C9.08746169,11.8724421 9.33265401,11.6278267 9.63842325,11.6278267 Z M5.01796166,11.6278267 C5.14026936,11.6278267 5.29373089,11.6889805 5.41546166,11.7807113 C5.50776935,11.8724421 5.56892319,12.0253267 5.56892319,12.1787882 C5.56892319,12.4845575 5.32373089,12.7291729 5.01796166,12.7291729 C4.71219244,12.7291729 4.46700014,12.4845575 4.46700014,12.1787882 C4.46700014,11.8724421 4.71219244,11.6278267 5.01796166,11.6278267 Z M5.01796166,9.30207693 C5.14026936,9.30207693 5.29373089,9.36323077 5.41546166,9.45496154 C5.50776935,9.54669231 5.56892319,9.69957693 5.56892319,9.85303847 C5.56892319,10.1893846 5.32373089,10.434 5.01796166,10.434 C4.71219244,10.434 4.46700014,10.1588077 4.46700014,9.85303847 C4.46700014,9.54669231 4.71219244,9.30207693 5.01796166,9.30207693 Z M9.63842325,9.30207693 C9.94476941,9.30207693 10.1893848,9.57784616 10.2199617,9.85303847 C10.2199617,10.1893846 9.94476941,10.434 9.63842325,10.434 C9.33265401,10.434 9.08746169,10.1588077 9.08746169,9.85303847 C9.08746169,9.54669231 9.33265401,9.30207693 9.63842325,9.30207693 Z M7.31301898,9.30207693 C7.6187882,9.30207693 7.89455743,9.57784616 7.86398051,9.85303847 C7.86398051,10.1893846 7.6187882,10.434 7.31301898,10.434 C7.00724975,10.434 6.76205745,10.1588077 6.76205745,9.85303847 C6.76205745,9.54669231 7.00724975,9.30207693 7.31301898,9.30207693 Z M11.4438459,0.82615387 L5.35442291,0.82615387 L3.18230757,2.90711532 L3.18230757,7.25192283 L11.4438459,7.25192283 L11.4438459,0.82615387 Z M10.1281734,5.04894238 C10.2199042,5.04894238 10.3422119,5.07951931 10.4033657,5.14067315 C10.4645196,5.201827 10.5262503,5.29355777 10.5262503,5.38528854 C10.5262503,5.47701931 10.4956734,5.56875008 10.4033657,5.66105777 C10.3422119,5.75278854 10.2199042,5.78336546 10.1281734,5.78336546 L10.1281734,5.78336546 L4.49798089,5.78336546 C4.40625011,5.78336546 4.28336549,5.75278854 4.19163472,5.66105777 C4.13048087,5.59990392 4.06932702,5.50759623 4.06932702,5.41586546 C4.06932702,5.35471161 4.09990395,5.26298084 4.19163472,5.17125008 C4.28336549,5.07951931 4.40625011,5.04894238 4.49798089,5.04894238 L4.49798089,5.04894238 Z M10.1278273,2.38673082 C10.3424427,2.38673082 10.5259043,2.57019236 10.5259043,2.78423083 C10.5259043,2.8759616 10.4953273,2.93769237 10.4035966,3.02942314 C10.3424427,3.12115391 10.220135,3.15173084 10.1278273,3.15173084 L10.1278273,3.15173084 L5.96648093,3.15173084 C5.84417323,3.18230776 5.75244246,3.12115391 5.66071169,3.06000006 C5.56898091,2.96826929 5.53840399,2.8759616 5.53840399,2.78423083 C5.53840399,2.69307698 5.56898091,2.60076928 5.66071169,2.50903851 C5.75244246,2.41730774 5.87475016,2.38673082 5.96648093,2.38673082 L5.96648093,2.38673082 Z" id="path-fax"/>
    </defs>
    <g id="Asset-Artboard-Page" stroke="none" stroke-width="1" fill="none" fill-rule="evenodd">
        <g id="Icone/Up/fax2" transform="translate(0.043478, 0.000000)">
            <mask id="mask-fax" fill="white">
                <use xlink:href="#path-fax"/>
            </mask>
            <g id="Combined-Shape"/>
            <g id="🎨-color-couleur/gris-charte" mask="url(#mask-fax)" fill="#4F5D5B" fill-rule="nonzero">
                <polygon id="Rectangle" points="0 0 15 0 15 15 0 15"/>
            </g>
        </g>
    </g>
</svg>