<?xml version="1.0" encoding="UTF-8"?>
<svg xmlns="http://www.w3.org/2000/svg" xmlns:xlink="http://www.w3.org/1999/xlink" viewBox="0 0 24 30" version="1.1">
    <!-- Generator: Sketch 53.2 (72643) - https://sketchapp.com -->
    <title>Picto/Fichier</title>
    <desc>Created with Sketch.</desc>
    <g id="Page-1" stroke="none" stroke-width="1" fill="none" fill-rule="evenodd">
        <g id="01_02-Dashboard--Change-Etablissement">
            <g id="menu-etablissement">
                <g id="Picto/Fichier">
                    <g>
                        <g id="groupe" fill="#4E5B59">
                            <path d="M18.4615385,7.50656059 C17.4424615,7.50656059 16.6153846,6.66680552 16.6153846,5.6321073 L16.6153846,1.88320073 L22.1538462,7.50656059 L18.4615385,7.50656059 L18.4615385,7.50656059 Z M22.1538462,26.2510934 C22.1538462,27.2857916 21.3267692,28.1255467 20.3076923,28.1255467 L3.69230769,28.1255467 C2.67323077,28.1255467 1.84615385,27.2857916 1.84615385,26.2510934 L1.84615385,3.75765402 C1.84615385,2.7229558 2.67323077,1.88320073 3.69230769,1.88320073 L14.7433846,1.88320073 C14.7267692,4.12785854 14.7692308,5.6321073 14.7692308,5.6321073 C14.7692308,7.70244095 16.4224615,9.38101387 18.4615385,9.38101387 L22.1538462,9.38101387 L22.1538462,26.2510934 L22.1538462,26.2510934 Z M14.7692308,0.00874744866 L3.69230769,0.00874744866 C1.65323077,0.00874744866 0,1.68732036 0,3.75765402 L0,26.2510934 C0,28.3214271 1.65323077,30 3.69230769,30 L20.3076923,30 C22.3467692,30 24,28.3214271 24,26.2510934 L24,9.38101387 C24,7.23070364 23.716774,6.9460713 23.716774,6.9460713 L17.1042994,0.00874744866 C16.9861455,0.00874744866 16.0043077,-0.0109343108 14.7692308,0.00874744866 Z" id="Fill-221"/>
                        </g>
                        <path d="M4.14545455,12.5 L19.8545455,12.5" id="Line-2" stroke="#F59100" stroke-linecap="square" fill-rule="nonzero"/>
                        <path d="M4.14545455,16.2 L19.8545455,16.2" id="Line-2-Copy" stroke="#F59100" stroke-linecap="square" fill-rule="nonzero"/>
                        <path d="M4.14545455,20.2 L19.8545455,20.2" id="Line-2-Copy-2" stroke="#F59100" stroke-linecap="square" fill-rule="nonzero"/>
                        <path d="M4.14545455,24.2 L19.8545455,24.2" id="Line-2-Copy-3" stroke="#F59100" stroke-linecap="square" fill-rule="nonzero"/>
                    </g>
                </g>
            </g>
        </g>
    </g>
</svg>