<?xml version="1.0" encoding="UTF-8"?>
<svg width="43px" height="61px" viewBox="0 0 43 61" version="1.1" xmlns="http://www.w3.org/2000/svg" xmlns:xlink="http://www.w3.org/1999/xlink">
    <!-- Generator: sketchtool 61 (101010) - https://sketch.com -->
    <title>CFC97D16-84A8-4459-9DCA-1A45B8101345@1,5x</title>
    <desc>Created with sketchtool.</desc>
    <defs>
        <polygon id="path-f2-1" points="0 0.897238235 42.1041667 0.897238235 42.1041667 61 0 61"></polygon>
    </defs>
    <g id="Financeur_Déjeuner_extranet-/-UI" stroke="none" stroke-width="1" fill="none" fill-rule="evenodd">
        <g id="07_01_UpDéjeuner" transform="translate(-850.000000, -365.000000)">
            <g id="Group-10" transform="translate(850.000000, 365.000000)">
                <g id="Group-3">
                    <mask id="mask-f2-2" fill="white">
                        <use xlink:href="#path-f2-1"></use>
                    </mask>
                    <g id="Clip-2"></g>
                    <path d="M39.4166667,4.03694412 L39.4166667,57.8604735 C39.4166667,58.11165 39.2195833,58.3090029 38.96875,58.3090029 L3.13541667,58.3090029 C2.88458333,58.3090029 2.6875,58.11165 2.6875,57.8604735 L2.6875,10.7648853 L8.51041667,10.7648853 C9.245,10.7648853 9.85416667,10.1548853 9.85416667,9.41929706 L9.85416667,3.58841471 L38.96875,3.58841471 C39.2195833,3.58841471 39.4166667,3.78576765 39.4166667,4.03694412 L39.4166667,4.03694412 Z M7.16666667,5.49017941 L7.16666667,8.07370882 L4.58666667,8.07370882 L7.16666667,5.49017941 Z M8.51041667,0.897238235 L8.22375,0.897238235 L8.15208333,0.951061765 C7.88333333,1.02282647 7.68625,1.16635588 7.56083333,1.29194412 L0.394166667,8.46841471 C0.232916667,8.62988529 0.125416667,8.82723824 0.05375,9.06047353 L0,57.8604735 C0,59.5828265 1.41541667,61.0001794 3.13541667,61.0001794 L38.96875,61.0001794 C40.68875,61.0001794 42.1041667,59.5828265 42.1041667,57.8604735 L42.1041667,4.03694412 C42.1041667,2.31459118 40.68875,0.897238235 38.96875,0.897238235 L8.51041667,0.897238235 Z" id="Fill-1" fill="#4E5B59" mask="url(#mask-f2-2)"></path>
                </g>
                <path d="M8.36956522,23 L26.6304348,23 C27.3791304,23 28,22.32 28,21.5 C28,20.68 27.3791304,20 26.6304348,20 L8.36956522,20 C7.62086957,20 7,20.68 7,21.5 C7,22.32 7.62086957,23 8.36956522,23" id="Fill-4" fill="#4E5B59"></path>
                <path d="M33.6451613,33 L8.35483871,33 C7.61419355,33 7,33.68 7,34.5 C7,35.32 7.61419355,36 8.35483871,36 L33.6451613,36 C34.3858065,36 35,35.32 35,34.5 C35,33.68 34.3858065,33 33.6451613,33" id="Fill-6" fill="#4E5B59"></path>
                <path d="M33.6451613,46 L8.35483871,46 C7.61419355,46 7,46.68 7,47.5 C7,48.32 7.61419355,49 8.35483871,49 L33.6451613,49 C34.3858065,49 35,48.32 35,47.5 C35,46.68 34.3858065,46 33.6451613,46" id="Fill-8" fill="#4E5B59"></path>
            </g>
        </g>
    </g>
</svg>