<svg xmlns="http://www.w3.org/2000/svg" id="Contrat" width="19.999" height="24" viewBox="0 0 19.999 24">
  <path id="Union_8" data-name="Union 8" d="M.5,24a.5.5,0,0,1-.5-.5V.5A.5.5,0,0,1,.5,0H15.469a.5.5,0,0,1,.5.5V12.108l1.953-1.223a.494.494,0,0,1,.681.163l1.322,2.12a.5.5,0,0,1-.152.685l-3.8,2.381V23.5a.5.5,0,0,1-.5.5ZM1,23H14.969V16.859l-3.523,2.206a.325.325,0,0,1-.053.03l-.014.009a.465.465,0,0,1-.171.066l-3.286.587a.5.5,0,0,1-.492-.79l1.97-2.7a.453.453,0,0,1,.123-.118A.433.433,0,0,1,9.6,16.1l5.374-3.365V1H1Zm7.966-4.443,1.429-.255-.573-.917Zm1.577-1.873.793,1.272,7.491-4.691-.792-1.272ZM2.629,8.5a.5.5,0,0,1,0-1H6.817a.5.5,0,0,1,0,1Zm0-2.423a.5.5,0,0,1,0-1H11.1a.5.5,0,0,1,0,1Zm0-2.5a.5.5,0,0,1,0-1h6a.5.5,0,0,1,0,1Z" transform="translate(0 0)"/>
</svg>