<?xml version="1.0" encoding="UTF-8"?>
<svg width="46px" height="33px" viewBox="0 0 46 33" version="1.1" xmlns="http://www.w3.org/2000/svg" xmlns:xlink="http://www.w3.org/1999/xlink">
    <!-- Generator: Sketch 61 (89581) - https://sketch.com -->
    <title>Icone/Up/todolist</title>
    <desc>Created with Sketch.</desc>
    <defs>
        <path d="M39.311,1.70530257e-13 C39.798,1.70530257e-13 40.195,0.397 40.195,0.884 L40.195,0.884 L40.196,30.34 L44.938,30.34 C45.425,30.34 45.822,30.737 45.822,31.225 C45.822,31.712 45.425,32.109 44.938,32.109 L44.938,32.109 L0.884,32.109 C0.397,32.109 1.13686838e-13,31.712 1.13686838e-13,31.225 C1.13686838e-13,30.737 0.397,30.34 0.884,30.34 L0.884,30.34 L4.264,30.34 L4.262,0.884 C4.262,0.397 4.659,1.70530257e-13 5.147,1.70530257e-13 L5.147,1.70530257e-13 Z M38.428,1.769 L6.032,1.769 L6.032,30.34 L38.428,30.34 L38.428,1.769 Z M33.7552,16.6836 C33.9942,16.6616 34.2232,16.7276 34.4062,16.8766 C34.7842,17.1836 34.8422,17.7416 34.5352,18.1206 L34.5352,18.1206 L30.6392,22.9156 C30.4462,23.1526 30.1632,23.2656 29.8682,23.2366 C29.5732,23.2106 29.3152,23.0386 29.1752,22.7776 L29.1752,22.7776 L28.1252,20.8286 C27.8952,20.3986 28.0562,19.8606 28.4872,19.6296 C28.6152,19.5586 28.7562,19.5236 28.9042,19.5236 C29.1922,19.5236 29.4612,19.6636 29.6252,19.8986 L29.6252,19.8986 L30.1732,20.6826 L33.1612,17.0066 C33.3102,16.8226 33.5212,16.7086 33.7552,16.6836 Z M24.1437,19.9613 C24.6317,19.9613 25.0277,20.3583 25.0277,20.8453 C25.0277,21.3333 24.6317,21.7303 24.1437,21.7303 L24.1437,21.7303 L11.0717,21.7303 C10.5847,21.7303 10.1877,21.3333 10.1877,20.8453 C10.1877,20.3583 10.5847,19.9613 11.0717,19.9613 L11.0717,19.9613 Z M33.7602,7.3794 C33.9982,7.3534 34.2232,7.4224 34.4062,7.5734 C34.7842,7.8794 34.8422,8.4384 34.5362,8.8164 L34.5362,8.8164 L30.6392,13.6114 C30.4442,13.8504 30.1782,13.9734 29.8692,13.9334 C29.5732,13.9054 29.3152,13.7334 29.1752,13.4734 L29.1752,13.4734 L28.1262,11.5254 C28.0152,11.3174 27.9902,11.0784 28.0582,10.8514 C28.1262,10.6254 28.2782,10.4394 28.4852,10.3274 C28.6142,10.2584 28.7562,10.2224 28.9042,10.2224 C29.1932,10.2224 29.4632,10.3624 29.6272,10.5974 L29.6272,10.5974 L30.1762,11.3794 L33.1622,7.7014 C33.3122,7.5174 33.5232,7.4034 33.7562,7.3794 L33.7562,7.3794 Z M24.1437,10.9705 C24.6317,10.9705 25.0277,11.3675 25.0277,11.8555 C25.0277,12.3425 24.6317,12.7395 24.1437,12.7395 L24.1437,12.7395 L11.0717,12.7395 C10.5847,12.7395 10.1877,12.3425 10.1877,11.8555 C10.1877,11.3675 10.5847,10.9705 11.0717,10.9705 L11.0717,10.9705 Z" id="path-file3"></path>
    </defs>
    <g id="Icone/Up/todolist" stroke="none" stroke-width="1" fill="none" fill-rule="evenodd">
        <mask id="mask-file3" fill="white">
            <use xlink:href="#path-file3"></use>
        </mask>
        <g id="Combined-Shape"></g>
        <g id="couleur/up" mask="url(#mask-file3)" fill="#F59100" fill-rule="nonzero">
            <polygon id="Rectangle" points="0 0 46 0 46 33 0 33"></polygon>
        </g>
    </g>
</svg>