<?xml version="1.0" encoding="UTF-8"?>
<svg width="24px" height="24px" viewBox="0 0 24 24" version="1.1" xmlns="http://www.w3.org/2000/svg" xmlns:xlink="http://www.w3.org/1999/xlink">
    <!-- Generator: Sketch 51.3 (57544) - http://www.bohemiancoding.com/sketch -->
    <title>0: Icons / Dark / Fire</title>
    <desc>Created with Sketch.</desc>
    <defs></defs>
    <g id="0:-Icons-/-Dark-/-Fire" stroke="none" stroke-width="1" fill="none" fill-rule="evenodd">
        <path d="M12.125,22.5 C7.361,22.5 3.5,18.48075 3.5,13.96875 C3.5,12.921 3.52325,12.0705 4.25,11.25 C4.17125,11.7255 5.29775,15.79125 8.97875,15.57825 C8.819,12.489 7.9835,4.92075 11.864,2.30475 C11.52125,6.41775 12.5285,11.943 17.02175,12.75 C16.7645,11.10075 16.79525,8.35725 17.95025,7.85025 C18.07475,10.377 19.943,11.9355 19.943,14.364 C19.943,18.762 15.68825,22.5 12.125,22.5 L12.125,22.5 Z M19.17875,5.21475 C15.89,6.15225 15.28775,8.811 15.5,10.5 C13.154,7.7415 13.25,4.56975 13.25,0 C5.726,2.83725 7.47575,11.016 7.25,13.5 C5.35775,11.95125 5,8.25 5,8.25 C3.002,9.27825 2,12.02325 2,14.25 C2,19.635 6.365,24 11.75,24 C17.135,24 21.5,19.635 21.5,14.25 C21.5,11.04975 19.15025,9.57375 19.17875,5.21475 L19.17875,5.21475 Z" id="Fill-156" fill="#000000"></path>
    </g>
</svg>