<?xml version="1.0" encoding="UTF-8"?>
<svg width="24px" height="24px" viewBox="0 0 24 24" version="1.1" xmlns="http://www.w3.org/2000/svg" xmlns:xlink="http://www.w3.org/1999/xlink">
    <!-- Generator: Sketch 51.3 (57544) - http://www.bohemiancoding.com/sketch -->
    <title>0: Icons / Dark / Flag</title>
    <desc>Created with Sketch.</desc>
    <defs></defs>
    <g id="0:-Icons-/-Dark-/-Flag" stroke="none" stroke-width="1" fill="none" fill-rule="evenodd">
        <path d="M20.25,15.75 C20.25,16.164 19.914,16.5 19.5,16.5 L15.75,16.5 L15.75,6.75 L19.5,6.75 C19.914,6.75 20.25,7.086 20.25,7.5 L20.25,15.75 L20.25,15.75 Z M14.25,13.5 C14.25,13.91475 13.914,14.25 13.5,14.25 L7.5,14.25 L7.5,3.75 L13.5,3.75 C13.914,3.75 14.25,4.086 14.25,4.5 L14.25,13.5 L14.25,13.5 Z M6,21.75 C6,22.16475 5.664,22.5 5.25,22.5 C4.836,22.5 4.5,22.16475 4.5,21.75 L4.5,2.25 C4.5,1.836 4.836,1.5 5.25,1.5 C5.664,1.5 6,1.836 6,2.25 L6,21.75 L6,21.75 Z M20.25,5.25 L15.75,5.25 L15.75,3.75 C15.75,2.922 15.078,2.25 14.25,2.25 L7.5,2.25 L7.5,1.5 C7.5,0.672 6.828,0 6,0 L4.5,0 C3.672,0 3,0.672 3,1.5 L3,22.5 C3,23.328 3.672,24 4.5,24 L6,24 C6.828,24 7.5,23.328 7.5,22.5 L7.5,15.75 L14.25,15.75 L14.25,16.5 C14.25,17.328 14.955,18 15.75,18 L20.25,18 C21.078,18 21.75,17.328 21.75,16.5 L21.75,6.75 C21.75,5.922 21.078,5.25 20.25,5.25 L20.25,5.25 Z" id="Fill-100" fill="#000000"></path>
    </g>
</svg>