<?xml version="1.0" encoding="UTF-8"?>
<svg width="24px" height="24px" viewBox="0 0 24 24" version="1.1" xmlns="http://www.w3.org/2000/svg" xmlns:xlink="http://www.w3.org/1999/xlink">
    <!-- Generator: Sketch 51.3 (57544) - http://www.bohemiancoding.com/sketch -->
    <title>0: Icons / Dark / Folder</title>
    <desc>Created with Sketch.</desc>
    <defs></defs>
    <g id="0:-Icons-/-Dark-/-Folder" stroke="none" stroke-width="1" fill="none" fill-rule="evenodd">
        <path d="M22.5,7.5 L1.5,7.5 L1.5,3 C1.5,2.172 2.172,1.5 3,1.5 L7.5,1.5 C8.328,1.5 9,2.172 9,3 L9,4.5 L21,4.5 C21.828,4.5 22.5,5.172 22.5,6 L22.5,7.5 L22.5,7.5 Z M22.5,21 C22.5,21.828 21.828,22.5 21,22.5 L3,22.5 C2.172,22.5 1.5,21.828 1.5,21 L1.5,9 L22.5,9 L22.5,21 L22.5,21 Z M21,3 L10.5,3 C10.5,1.34325 9.15675,0 7.5,0 L3,0 C1.34325,0 0,1.34325 0,3 L0,21 C0,22.65675 1.34325,24 3,24 L21,24 C22.65675,24 24,22.65675 24,21 L24,6 C24,4.34325 22.65675,3 21,3 L21,3 Z" id="Fill-207" fill="#000000"></path>
    </g>
</svg>