<?xml version="1.0" encoding="UTF-8"?>
<svg width="24px" height="24px" viewBox="0 0 24 24" version="1.1" xmlns="http://www.w3.org/2000/svg" xmlns:xlink="http://www.w3.org/1999/xlink">
    <!-- Generator: Sketch 51.3 (57544) - http://www.bohemiancoding.com/sketch -->
    <title>0: Icons / Dark / Folded</title>
    <desc>Created with Sketch.</desc>
    <defs></defs>
    <g id="0:-Icons-/-Dark-/-Folded" stroke="none" stroke-width="1" fill="none" fill-rule="evenodd">
        <path d="M22.5,18.75 C22.5,19.578 21.80475,19.992 21,20.25 C21,20.25 16.91775,21.38625 12.75,22.48275 L12.75,3.75 L21,1.5 C21.828,1.5 22.5,2.172 22.5,3 L22.5,18.75 L22.5,18.75 Z M11.25,22.4985 C7.1535,21.3975 3,20.25 3,20.25 C2.148,20.016 1.5,19.578 1.5,18.75 L1.5,3 C1.5,2.172 2.172,1.5 3,1.5 L11.25,3.75 L11.25,22.4985 L11.25,22.4985 Z M21,0 C21,0 16.65825,1.1955 12.7125,2.25 C12.21825,2.26875 11.72025,2.25 11.22525,2.25 C7.46625,1.242 3,0 3,0 C1.34325,0 0,1.34325 0,3 L0,18.75 C0,20.40675 1.41375,21.23475 3,21.75 C3,21.75 7.04475,22.875 11.22525,24 L12.744,24 C16.959,22.875 21,21.75 21,21.75 C22.53975,21.35175 24,20.40675 24,18.75 L24,3 C24,1.34325 22.65675,0 21,0 L21,0 Z" id="Fill-216" fill="#000000"></path>
    </g>
</svg>