<?xml version="1.0" encoding="UTF-8"?>
<svg width="24px" height="24px" viewBox="0 0 24 24" version="1.1" xmlns="http://www.w3.org/2000/svg" xmlns:xlink="http://www.w3.org/1999/xlink">
    <!-- Generator: Sketch 51.3 (57544) - http://www.bohemiancoding.com/sketch -->
    <title>0: Icons / Dark / Fork</title>
    <desc>Created with Sketch.</desc>
    <defs></defs>
    <g id="0:-Icons-/-Dark-/-Fork" stroke="none" stroke-width="1" fill="none" fill-rule="evenodd">
        <path d="M14.75,0 C14.336,0 14,0.336 14,0.75 L14,6 C14,7.05525 13.37225,7.767 12.5,8.1015 L12.5,0.75 C12.5,0.336 12.164,0 11.75,0 C11.336,0 11,0.336 11,0.75 L11,8.1015 C10.12775,7.767 9.5,7.05525 9.5,6 L9.5,0.75 C9.5,0.336 9.164,0 8.75,0 C8.336,0 8,0.336 8,0.75 L8,6 C8,7.81425 9.2885,9.32775 11,9.67425 L11,23.25 C11,23.66475 11.336,24 11.75,24 C12.164,24 12.5,23.66475 12.5,23.25 L12.5,9.67425 C14.2115,9.32775 15.5,7.81425 15.5,6 L15.5,0.75 C15.5,0.336 15.164,0 14.75,0" id="Fill-152" fill="#000000"></path>
    </g>
</svg>