<?xml version="1.0" encoding="UTF-8"?>
<svg width="24px" height="24px" viewBox="0 0 24 24" version="1.1" xmlns="http://www.w3.org/2000/svg" xmlns:xlink="http://www.w3.org/1999/xlink">
    <!-- Generator: Sketch 51.3 (57544) - http://www.bohemiancoding.com/sketch -->
    <title>0: Icons / Dark / Fullscreen</title>
    <desc>Created with Sketch.</desc>
    <defs></defs>
    <g id="0:-Icons-/-Dark-/-Fullscreen" stroke="none" stroke-width="1" fill="none" fill-rule="evenodd">
        <path d="M18.729,4.5 L15,4.5 C14.586,4.5 14.25,4.836 14.25,5.25 C14.25,5.66475 14.586,6 15,6 L16.971,6 L13.3725,9.59925 L14.433,10.65975 L18.0165,7.07625 L18,9 C18,9.41475 18.336,9.75 18.75,9.75 C19.164,9.75 19.5,9.41475 19.5,9 L19.5,5.25 C19.5,5.028 19.40775,4.84875 19.263,4.72575 C19.1265,4.58625 18.93825,4.5 18.729,4.5 L18.729,4.5 Z M22.5,21 C22.5,21.825 21.828,22.5 21,22.5 L3,22.5 C2.172,22.5 1.5,21.825 1.5,21 L1.5,3 C1.5,2.172 2.172,1.5 3,1.5 L21,1.5 C21.828,1.5 22.5,2.172 22.5,3 L22.5,21 L22.5,21 Z M21,0 L3,0 C1.34325,0 0,1.34325 0,3 L0,21 C0,22.6575 1.34325,24 3,24 L21,24 C22.65675,24 24,22.6575 24,21 L24,3 C24,1.34325 22.65675,0 21,0 L21,0 Z M9.567,13.3425 L5.9835,16.9275 L6,15 C6,14.5875 5.664,14.25 5.25,14.25 C4.836,14.25 4.5,14.5875 4.5,15 L4.5,18.75 C4.5,18.975 4.59225,19.155 4.737,19.275 C4.87275,19.41 5.06175,19.5 5.271,19.5 L9,19.5 C9.414,19.5 9.75,19.1625 9.75,18.75 C9.75,18.3375 9.414,18 9,18 L7.029,18 L10.6275,14.4 L9.567,13.3425 L9.567,13.3425 Z M18.75,14.25 C18.336,14.25 18,14.5875 18,15 L18.0165,16.9275 L14.433,13.3425 L13.3725,14.4 L16.971,18 L15,18 C14.586,18 14.25,18.3375 14.25,18.75 C14.25,19.1625 14.586,19.5 15,19.5 L18.729,19.5 C18.93825,19.5 19.12725,19.41 19.263,19.275 C19.40775,19.155 19.5,18.975 19.5,18.75 L19.5,15 C19.5,14.5875 19.164,14.25 18.75,14.25 L18.75,14.25 Z M9,6 C9.414,6 9.75,5.66475 9.75,5.25 C9.75,4.836 9.414,4.5 9,4.5 L5.271,4.5 C5.06175,4.5 4.8735,4.58625 4.737,4.72575 C4.59225,4.84875 4.5,5.028 4.5,5.25 L4.5,9 C4.5,9.41475 4.836,9.75 5.25,9.75 C5.664,9.75 6,9.41475 6,9 L5.9835,7.07625 L9.567,10.65975 L10.6275,9.59925 L7.029,6 L9,6 L9,6 Z" id="Fill-51" fill="#000000"></path>
    </g>
</svg>