<?xml version="1.0" encoding="UTF-8"?>
<svg width="24px" height="24px" viewBox="0 0 24 24" version="1.1" xmlns="http://www.w3.org/2000/svg" xmlns:xlink="http://www.w3.org/1999/xlink">
    <!-- Generator: Sketch 51.3 (57544) - http://www.bohemiancoding.com/sketch -->
    <title>0: Icons / Dark / Gift</title>
    <desc>Created with Sketch.</desc>
    <defs></defs>
    <g id="0:-Icons-/-Dark-/-Gift" stroke="none" stroke-width="1" fill="none" fill-rule="evenodd">
        <path d="M21.75,7.5 L2.25,7.5 C1.836,7.5 1.5,7.16475 1.5,6.75 C1.5,6.336 1.836,6 2.25,6 L21.75,6 C22.164,6 22.5,6.336 22.5,6.75 C22.5,7.16475 22.164,7.5 21.75,7.5 L21.75,7.5 Z M12.75,9 L21,9 L21,15 L12.75,15 L12.75,9 Z M21,21 C21,21.828 20.328,22.5 19.5,22.5 L12.75,22.5 L12.75,16.5 L21,16.5 L21,21 L21,21 Z M3,9 L11.25,9 L11.25,15 L3,15 L3,9 Z M11.25,22.5 L4.5,22.5 C3.672,22.5 3,21.828 3,21 L3,16.5 L11.25,16.5 L11.25,22.5 L11.25,22.5 Z M9.75,1.5 C10.578,1.5 11.25,2.172 11.25,3 C11.25,3.828 10.578,4.5 9.75,4.5 C8.922,4.5 8.25,3.828 8.25,3 C8.25,2.172 8.922,1.5 9.75,1.5 L9.75,1.5 Z M14.25,1.5 C15.078,1.5 15.75,2.172 15.75,3 C15.75,3.828 15.078,4.5 14.25,4.5 C13.422,4.5 12.75,3.828 12.75,3 C12.75,2.172 13.422,1.5 14.25,1.5 L14.25,1.5 Z M22.5,4.5 L16.83375,4.5 C17.09175,4.0575 17.25,3.549 17.25,3 C17.25,1.34325 15.90675,0 14.25,0 C13.3485,0 12.54975,0.40575 12,1.035 C11.45025,0.40575 10.6515,0 9.75,0 C8.09325,0 6.75,1.34325 6.75,3 C6.75,3.549 6.90825,4.0575 7.16625,4.5 L1.5,4.5 C0.672,4.5 0,5.172 0,6 L0,7.5 C0,8.328 0.672,9 1.5,9 L1.5,21 C1.5,22.65675 2.84325,24 4.5,24 L19.5,24 C21.15675,24 22.5,22.65675 22.5,21 L22.5,9 C23.328,9 24,8.328 24,7.5 L24,6 C24,5.172 23.328,4.5 22.5,4.5 L22.5,4.5 Z" id="Fill-92" fill="#000000"></path>
    </g>
</svg>