<?xml version="1.0" encoding="UTF-8"?>
<svg width="24px" height="24px" viewBox="0 0 24 24" version="1.1" xmlns="http://www.w3.org/2000/svg" xmlns:xlink="http://www.w3.org/1999/xlink">
    <!-- Generator: Sketch 51.3 (57544) - http://www.bohemiancoding.com/sketch -->
    <title>0: Icons / Dark / Grid</title>
    <desc>Created with Sketch.</desc>
    <defs></defs>
    <g id="0:-Icons-/-Dark-/-Grid" stroke="none" stroke-width="1" fill="none" fill-rule="evenodd">
        <path d="M22.2857143,6.85714286 C22.2857143,7.80342857 21.5177143,8.57142857 20.5714286,8.57142857 L17.1428571,8.57142857 C16.1965714,8.57142857 15.4285714,7.80342857 15.4285714,6.85714286 L15.4285714,3.42857143 C15.4285714,2.48228571 16.1965714,1.71428571 17.1428571,1.71428571 L20.5714286,1.71428571 C21.5177143,1.71428571 22.2857143,2.48228571 22.2857143,3.42857143 L22.2857143,6.85714286 L22.2857143,6.85714286 Z M20.5714286,0 L17.1428571,0 C15.2494286,0 13.7142857,1.53514286 13.7142857,3.42857143 L13.7142857,6.85714286 C13.7142857,8.75057143 15.2494286,10.2857143 17.1428571,10.2857143 L20.5714286,10.2857143 C22.4648571,10.2857143 24,8.75057143 24,6.85714286 L24,3.42857143 C24,1.53514286 22.4648571,0 20.5714286,0 L20.5714286,0 Z M22.2857143,20.5714286 C22.2857143,21.5177143 21.5177143,22.2857143 20.5714286,22.2857143 L17.1428571,22.2857143 C16.1965714,22.2857143 15.4285714,21.5177143 15.4285714,20.5714286 L15.4285714,17.1428571 C15.4285714,16.1965714 16.1965714,15.4285714 17.1428571,15.4285714 L20.5714286,15.4285714 C21.5177143,15.4285714 22.2857143,16.1965714 22.2857143,17.1428571 L22.2857143,20.5714286 L22.2857143,20.5714286 Z M20.5714286,13.7142857 L17.1428571,13.7142857 C15.2494286,13.7142857 13.7142857,15.2494286 13.7142857,17.1428571 L13.7142857,20.5714286 C13.7142857,22.4648571 15.2494286,24 17.1428571,24 L20.5714286,24 C22.4648571,24 24,22.4648571 24,20.5714286 L24,17.1428571 C24,15.2494286 22.4648571,13.7142857 20.5714286,13.7142857 L20.5714286,13.7142857 Z M8.57142857,6.85714286 C8.57142857,7.80342857 7.80342857,8.57142857 6.85714286,8.57142857 L3.42857143,8.57142857 C2.48228571,8.57142857 1.71428571,7.80342857 1.71428571,6.85714286 L1.71428571,3.42857143 C1.71428571,2.48228571 2.48228571,1.71428571 3.42857143,1.71428571 L6.85714286,1.71428571 C7.80342857,1.71428571 8.57142857,2.48228571 8.57142857,3.42857143 L8.57142857,6.85714286 L8.57142857,6.85714286 Z M6.85714286,0 L3.42857143,0 C1.53514286,0 0,1.53514286 0,3.42857143 L0,6.85714286 C0,8.75057143 1.53514286,10.2857143 3.42857143,10.2857143 L6.85714286,10.2857143 C8.75057143,10.2857143 10.2857143,8.75057143 10.2857143,6.85714286 L10.2857143,3.42857143 C10.2857143,1.53514286 8.75057143,0 6.85714286,0 L6.85714286,0 Z M8.57142857,20.5714286 C8.57142857,21.5177143 7.80342857,22.2857143 6.85714286,22.2857143 L3.42857143,22.2857143 C2.48228571,22.2857143 1.71428571,21.5177143 1.71428571,20.5714286 L1.71428571,17.1428571 C1.71428571,16.1965714 2.48228571,15.4285714 3.42857143,15.4285714 L6.85714286,15.4285714 C7.80342857,15.4285714 8.57142857,16.1965714 8.57142857,17.1428571 L8.57142857,20.5714286 L8.57142857,20.5714286 Z M6.85714286,13.7142857 L3.42857143,13.7142857 C1.53514286,13.7142857 0,15.2494286 0,17.1428571 L0,20.5714286 C0,22.4648571 1.53514286,24 3.42857143,24 L6.85714286,24 C8.75057143,24 10.2857143,22.4648571 10.2857143,20.5714286 L10.2857143,17.1428571 C10.2857143,15.2494286 8.75057143,13.7142857 6.85714286,13.7142857 L6.85714286,13.7142857 Z" id="Fill-62" fill="#000000"></path>
    </g>
</svg>