<svg xmlns="http://www.w3.org/2000/svg" xmlns:xlink="http://www.w3.org/1999/xlink" width="30px" height="30px" viewBox="0 0 30 30" version="1.1">
    <title>EBCA01C5-9471-4AA0-B231-75B4EB062916@1,5x</title>
    <g id="Import-Fichier" stroke="none" stroke-width="1" fill="none" fill-rule="evenodd">
        <g id="04_01_UpDéjeuner-REcap-All" transform="translate(-847.000000, -734.000000)" fill="#4E5B59" fill-rule="nonzero">
            <g id="Group-12" transform="translate(632.000000, 341.000000)">
                <g id="Group-6" transform="translate(204.000000, 145.924242)">
                    <g id="synthèse-commande-copy-3" transform="translate(0.000000, 235.075758)">
                        <g id="Icone/Foncé/Localisation" transform="translate(10.999333, 12.000000)">
                            <path d="M19.6028111,19 C21.8775787,19.5769156 23.0006667,21.8759992 23.0006667,24.2040359 L23.0006667,24.2040359 L23.0006667,28.1931176 C23.0006667,28.1931176 19.90131,30 15.0006667,30 C10.1000234,30 7.00066667,28.1931176 7.00066667,28.1931176 L7.00066667,28.1931176 L7.00066667,24.2040359 C7.00066667,21.8824332 8.22096688,19.9243517 10.4854415,19.3410021 C11.2734329,20.6052837 13.1742192,21.4599337 14.841696,21.4599337 L14.841696,21.4599337 L15.1367639,21.4599337 C16.806528,21.4599337 18.817107,20.2674985 19.6028111,19 Z M19.9928039,20.3103919 C18.7896588,21.5886138 16.8008096,22.5322675 15.1367639,22.5322675 L15.1367639,22.5322675 L14.841696,22.5322675 C13.0678575,22.5322675 11.2208239,21.7666212 10.0954487,20.6310197 C8.86028068,21.2390329 8.14434072,22.5258335 8.14434072,24.2040359 L8.14434072,24.2040359 L8.14434072,27.5475726 C9.18165309,28.0129655 11.645127,28.9276662 15.0006667,28.9276662 C18.353919,28.9276662 20.8173929,28.0129655 21.8569926,27.5475726 L21.8569926,27.5475726 L21.8569926,24.2040359 C21.8569926,22.6974069 21.2737188,21.0331449 19.9928039,20.3103919 Z M15.0006667,10 C17.7615796,10 20.0006667,12.2390871 20.0006667,15.0011079 C20.0006667,17.7620208 17.7615796,20 15.0006667,20 C12.2397537,20 10.0006667,17.7620208 10.0006667,15.0011079 C10.0006667,12.2390871 12.2397537,10 15.0006667,10 Z M15.0006667,11.1079105 C12.8546441,11.1079105 11.1085771,12.8539774 11.1085771,15.0011079 C11.1085771,17.1460226 12.8546441,18.8920895 15.0006667,18.8920895 C17.1466893,18.8920895 18.8927562,17.1460226 18.8927562,15.0011079 C18.8927562,12.8539774 17.1466893,11.1079105 15.0006667,11.1079105 Z M27.9841111,5.22971429 C29.263,5.58628571 29.8941111,7.00457143 29.8941111,8.44114286 L29.8941111,8.44114286 L29.8941111,10.9017143 C29.8941111,10.9017143 28.1507778,12.0148571 25.3952222,12.0148571 C22.6396667,12.0148571 20.8974444,10.9017143 20.8974444,10.9017143 L20.8974444,10.9017143 L20.8974444,8.44114286 C20.8974444,7.00914286 21.583,5.8 22.8563333,5.44114286 C23.2985556,6.22057143 24.3685556,6.74742857 25.3063333,6.74742857 L25.3063333,6.74742857 L25.4718889,6.74742857 C26.4107778,6.74742857 27.5418889,6.01257143 27.9841111,5.22971429 Z M7.08777778,5.15268571 C8.36666667,5.50925714 8.99777778,6.92754286 8.99777778,8.36297143 L8.99777778,8.36297143 L8.99777778,10.8246857 C8.99777778,10.8246857 7.25444444,11.9378286 4.49888889,11.9378286 C1.74333333,11.9378286 -9.09494702e-13,10.8246857 -9.09494702e-13,10.8246857 L-9.09494702e-13,10.8246857 L-9.09494702e-13,8.36297143 C-9.09494702e-13,6.93097143 0.685555556,5.72297143 1.96,5.36411429 C2.40222222,6.1424 3.47222222,6.6704 4.41,6.6704 L4.41,6.6704 L4.57555556,6.6704 C5.51444444,6.6704 6.64555556,5.9344 7.08777778,5.15268571 Z M28.2385556,6.37142857 C27.5096667,7.13142857 26.4218889,7.66171429 25.4718889,7.66171429 L25.4718889,7.66171429 L25.3063333,7.66171429 C24.2985556,7.66171429 23.2796667,7.23085714 22.5963333,6.55657143 C22.0818889,6.92 21.7863333,7.58742857 21.7863333,8.44114286 L21.7863333,8.44114286 L21.7863333,10.3417143 C22.4085556,10.6297143 23.6918889,11.1017143 25.3952222,11.1017143 C27.0985556,11.1017143 28.3796667,10.6308571 29.0052222,10.3417143 L29.0052222,10.3417143 L29.0052222,8.44114286 C29.0052222,7.664 28.7641111,6.81485714 28.2385556,6.37142857 Z M7.34222222,6.2944 C6.61333333,7.0544 5.52555556,7.58468571 4.57555556,7.58468571 L4.57555556,7.58468571 L4.41,7.58468571 C3.40222222,7.58468571 2.38333333,7.15268571 1.7,6.47954286 C1.18555556,6.84297143 0.89,7.5104 0.89,8.36297143 L0.89,8.36297143 L0.89,10.2646857 C1.51222222,10.5526857 2.79555556,11.0246857 4.49888889,11.0246857 C6.20111111,11.0246857 7.48333333,10.5538286 8.10888889,10.2646857 L8.10888889,10.2646857 L8.10888889,8.36297143 C8.10888889,7.58582857 7.86777778,6.73782857 7.34222222,6.2944 Z M4.50066667,0 C6.15686881,0 7.50066667,1.34264931 7.50066667,3 C7.50066667,4.65735069 6.15686881,6 4.50066667,6 C2.84331598,6 1.50066667,4.65735069 1.50066667,3 C1.50066667,1.34264931 2.84331598,0 4.50066667,0 Z M25.5006667,0 C27.1568688,0 28.5006667,1.34239234 28.5006667,3 C28.5006667,4.65645933 27.1568688,6 25.5006667,6 C23.843316,6 22.5006667,4.65645933 22.5006667,3 C22.5006667,1.34239234 23.843316,0 25.5006667,0 Z M4.50066667,1 C3.39691391,1 2.50066667,1.89624724 2.50066667,3 C2.50066667,4.10264901 3.39691391,5 4.50066667,5 C5.60331567,5 6.50066667,4.10264901 6.50066667,3 C6.50066667,1.89624724 5.60331567,1 4.50066667,1 Z M25.5006667,1 C24.3969139,1 23.5006667,1.89735099 23.5006667,3 C23.5006667,4.10264901 24.3969139,5 25.5006667,5 C26.6033157,5 27.5006667,4.10264901 27.5006667,3 C27.5006667,1.89735099 26.6033157,1 25.5006667,1 Z" id="Combined-Shape"/>
                        </g>
                    </g>
                </g>
            </g>
        </g>
    </g>
</svg>