<?xml version="1.0" encoding="UTF-8"?>
<svg width="49px" height="33px" viewBox="0 0 49 33" version="1.1" xmlns="http://www.w3.org/2000/svg" xmlns:xlink="http://www.w3.org/1999/xlink">
    <!-- Generator: Sketch 55.1 (78136) - https://sketchapp.com -->
    <title>Icone/Up/3persons</title>
    <desc>Created with Sketch.</desc>
    <g id="Icone/Up/3persons" stroke="none" stroke-width="1" fill="none" fill-rule="evenodd">
        <path d="M32.8048,32.2963 C32.3908,32.2963 32.0548,31.9603 32.0548,31.5463 L32.0548,24.1823 C32.0548,20.1813 29.1518,16.9263 25.5828,16.9263 L23.0348,16.9263 C19.4658,16.9263 16.5628,20.1813 16.5628,24.1823 L16.5628,31.5463 C16.5628,31.9603 16.2268,32.2963 15.8128,32.2963 C15.3988,32.2963 15.0628,31.9603 15.0628,31.5463 L15.0628,24.1823 C15.0628,19.3543 18.6388,15.4263 23.0348,15.4263 L25.5828,15.4263 C29.9788,15.4263 33.5548,19.3543 33.5548,24.1823 L33.5548,31.5463 C33.5548,31.9603 33.2188,32.2963 32.8048,32.2963" id="Fill-218" fill="#F29100"></path>
        <path d="M24.3087,1.5 C21.6237,1.5 19.4387,3.754 19.4387,6.524 C19.4387,9.294 21.6237,11.548 24.3087,11.548 C26.9937,11.548 29.1777,9.294 29.1777,6.524 C29.1777,3.754 26.9937,1.5 24.3087,1.5 M24.3087,13.048 C20.7967,13.048 17.9387,10.121 17.9387,6.524 C17.9387,2.927 20.7967,-1.13686838e-13 24.3087,-1.13686838e-13 C27.8207,-1.13686838e-13 30.6777,2.927 30.6777,6.524 C30.6777,10.121 27.8207,13.048 24.3087,13.048" id="Fill-219" fill="#F29100"></path>
        <path d="M47.9571,24.7758 C47.5431,24.7758 47.2071,24.4398 47.2071,24.0258 L47.2071,18.8478 C47.2071,16.1578 45.2551,13.9698 42.8561,13.9698 L41.0561,13.9698 C38.6571,13.9698 36.7051,16.1578 36.7051,18.8478 L36.7051,24.0258 C36.7051,24.4398 36.3691,24.7758 35.9551,24.7758 C35.5411,24.7758 35.2051,24.4398 35.2051,24.0258 L35.2051,18.8478 C35.2051,15.3308 37.8301,12.4698 41.0561,12.4698 L42.8561,12.4698 C46.0821,12.4698 48.7071,15.3308 48.7071,18.8478 L48.7071,24.0258 C48.7071,24.4398 48.3711,24.7758 47.9571,24.7758" id="Fill-220" fill="#F29100"></path>
        <path d="M41.9561,3.1113 C40.1711,3.1113 38.7181,4.6113 38.7181,6.4563 C38.7181,8.3013 40.1711,9.8013 41.9561,9.8013 C43.7411,9.8013 45.1941,8.3013 45.1941,6.4563 C45.1941,4.6113 43.7411,3.1113 41.9561,3.1113 M41.9561,11.3013 C39.3441,11.3013 37.2181,9.1283 37.2181,6.4563 C37.2181,3.7843 39.3441,1.6113 41.9561,1.6113 C44.5681,1.6113 46.6941,3.7843 46.6941,6.4563 C46.6941,9.1283 44.5681,11.3013 41.9561,11.3013" id="Fill-221" fill="#F29100"></path>
        <path d="M12.751,24.7758 C12.337,24.7758 12.001,24.4398 12.001,24.0258 L12.001,18.8478 C12.001,16.1578 10.049,13.9698 7.65,13.9698 L5.851,13.9698 C3.451,13.9698 1.5,16.1578 1.5,18.8478 L1.5,24.0258 C1.5,24.4398 1.164,24.7758 0.75,24.7758 C0.335,24.7758 9.9475983e-14,24.4398 9.9475983e-14,24.0258 L9.9475983e-14,18.8478 C9.9475983e-14,15.3308 2.625,12.4698 5.851,12.4698 L7.65,12.4698 C10.876,12.4698 13.501,15.3308 13.501,18.8478 L13.501,24.0258 C13.501,24.4398 13.165,24.7758 12.751,24.7758" id="Fill-222" fill="#F29100"></path>
        <path d="M6.7506,3.1113 C4.9656,3.1113 3.5126,4.6113 3.5126,6.4563 C3.5126,8.3013 4.9656,9.8013 6.7506,9.8013 C8.5356,9.8013 9.9886,8.3013 9.9886,6.4563 C9.9886,4.6113 8.5356,3.1113 6.7506,3.1113 M6.7506,11.3013 C4.1386,11.3013 2.0126,9.1283 2.0126,6.4563 C2.0126,3.7843 4.1386,1.6113 6.7506,1.6113 C9.3626,1.6113 11.4886,3.7843 11.4886,6.4563 C11.4886,9.1283 9.3626,11.3013 6.7506,11.3013" id="Fill-223" fill="#F29100"></path>
    </g>
</svg>