<svg xmlns="http://www.w3.org/2000/svg" xmlns:xlink="http://www.w3.org/1999/xlink" width="48" height="33" viewBox="0 0 48 33">
  <defs>
    <clipPath id="clip-path">
      <path id="Combined_Shape" data-name="Combined Shape" d="M18.133,32.136a2.869,2.869,0,0,1-.667-1.935l-.291.149-.008,0c-.175.089-.341.173-.5.266a2.567,2.567,0,0,1-1.311.366,2.482,2.482,0,0,1-1.851-.837,2.628,2.628,0,0,1-.629-2.052.191.191,0,0,0-.006-.056c0-.013-.005-.027-.008-.045-.055,0-.109,0-.164,0a2.379,2.379,0,0,1-2.349-1.416,2.531,2.531,0,0,1,.409-2.981l-.127-.111c-.064-.057-.125-.11-.185-.161a2.759,2.759,0,0,1-.958-2.349,2.574,2.574,0,0,1,1.318-2.014c1.067-.6,2.177-1.169,3.25-1.716q.545-.277,1.082-.553a.734.734,0,0,1,.336-.089.567.567,0,0,1,.523.352.649.649,0,0,1-.342.9c-.734.385-1.481.773-2.2,1.149-.624.324-1.271.661-1.908.994a1.364,1.364,0,0,0-.783,1.431A1.28,1.28,0,0,0,12,22.579a1.365,1.365,0,0,0,.614-.152c.818-.413,1.644-.842,2.443-1.257l.006,0,1.06-.549,1.375-.71q1.549-.8,3.1-1.6a.967.967,0,0,1,.426-.127.428.428,0,0,1,.337.159.812.812,0,0,1,.19.631,1.063,1.063,0,0,1-.494.527c-1.459.759-2.949,1.52-4.39,2.254l-.005,0-.012.006-1.554.794c-1.092.558-2.075,1.063-3.057,1.575a1.3,1.3,0,0,0-.718,1.289,1.287,1.287,0,0,0,.87,1.176,1.182,1.182,0,0,0,.376.061,1.7,1.7,0,0,0,.766-.212c3.063-1.537,6.178-3.093,9.192-4.6l.583-.291.049-.025a1.912,1.912,0,0,1,.383-.157.685.685,0,0,1,.173-.023.546.546,0,0,1,.507.363.589.589,0,0,1-.178.771,1.986,1.986,0,0,1-.314.188l-.06.032q-4.313,2.223-8.628,4.444a1.363,1.363,0,0,0-.92,1.456,1.258,1.258,0,0,0,1.236,1.156,1.42,1.42,0,0,0,.64-.158c1.287-.643,2.581-1.308,3.678-1.873.969-.5,1.952-1.009,2.9-1.5l.032-.016q1.217-.631,2.436-1.26a1.361,1.361,0,0,1,.436-.164.658.658,0,0,1,.094-.006.528.528,0,0,1,.509.37.594.594,0,0,1-.158.745,1.671,1.671,0,0,1-.307.192c-1.932,1-3.944,2.031-6.149,3.165a1.366,1.366,0,0,0-.629,1.666,1.285,1.285,0,0,0,1.191.865,1.117,1.117,0,0,0,.321-.047,2.553,2.553,0,0,0,.462-.2l3.636-1.9.044-.023c2.548-1.329,5.183-2.7,7.785-4.056a26.354,26.354,0,0,0,6.174-4.5l.212-.207c.57-.553,1.16-1.126,1.757-1.669a.449.449,0,0,0,.12-.63c-1.784-3.852-3.589-7.772-5.335-11.564L35.2,6.969,34.012,4.4c-.35-.76-.286-.959.429-1.329l1.335-.691.011-.005,4.058-2.1A1.2,1.2,0,0,1,40.369.1c.23,0,.394.158.583.565q2.44,5.257,4.882,10.512l.093.2,1.94,4.177c.243.525.164.775-.325,1.027l-1.44.738c-1.262.647-2.564,1.314-3.84,1.979a3.688,3.688,0,0,0-.792.569c-.45.419-.9.853-1.337,1.271-.737.708-1.5,1.439-2.277,2.124a27.125,27.125,0,0,1-5.528,3.7c-3.36,1.734-6.778,3.493-10.084,5.194l-.026.013-.931.48a2.913,2.913,0,0,1-1.33.35A2.439,2.439,0,0,1,18.133,32.136ZM36.85,3.324l-1.629.832,4.055,8.679L41.783,18.2c1.467-.756,2.978-1.533,4.754-2.45l-3.11-6.707q-1.7-3.669-3.4-7.339ZM6.412,19.5c-1.92-.691-3.873-1.4-5.763-2.077l-.033-.012C0,17.19-.113,16.951.1,16.3l1.1-3.373,0-.007Q3.2,6.755,5.2.593C5.336.177,5.515,0,5.8,0a1.156,1.156,0,0,1,.39.083C8.259.839,10.526,1.671,13.328,2.7a3.651,3.651,0,0,0,1.262.241,3.06,3.06,0,0,0,1.51-.4,5.239,5.239,0,0,1,2.6-.774,4.127,4.127,0,0,1,.709.063,5.469,5.469,0,0,1,.869.222c2.72.984,5.487,1.989,8.162,2.961l.063.024,3.66,1.329c.543.2.661.392.6.985a4.781,4.781,0,0,1-.83,2.342A2.85,2.85,0,0,1,29.537,11a3.73,3.73,0,0,1-1.033-.156c-1.055-.306-2.107-.692-3.125-1.066-.446-.164-.907-.333-1.363-.493-.193-.069-.388-.139-.594-.214l-.177-.065c-.063.14-.115.255-.165.373a8.514,8.514,0,0,1-2.585,3.514,6.31,6.31,0,0,1-4,1.332,8.964,8.964,0,0,1-1.324-.1,12.1,12.1,0,0,1-1.742-.429.813.813,0,0,1-.516-.388.645.645,0,0,1-.017-.51.551.551,0,0,1,.56-.371,1.164,1.164,0,0,1,.356.062,8.789,8.789,0,0,0,2.746.492c.095,0,.191,0,.285-.006a5.306,5.306,0,0,0,4.028-2.151,7.4,7.4,0,0,0,1.343-2.645c.115-.411.32-.611.626-.611a1.092,1.092,0,0,1,.357.07c.624.223,1.256.452,1.868.673,1,.362,2.031.735,3.047,1.092a5.892,5.892,0,0,0,1.184.277,2.177,2.177,0,0,0,.276.017,1.88,1.88,0,0,0,1.811-1.361c.061-.172.108-.35.159-.538.022-.082.044-.166.069-.254l-.229-.084c-.478-.176-.942-.347-1.406-.516l-1.728-.629-8.259-3a3.755,3.755,0,0,0-1.277-.244,2.749,2.749,0,0,0-1.432.4,5.18,5.18,0,0,1-2.687.8,5.327,5.327,0,0,1-2-.409,1.075,1.075,0,0,0-.11-.035l-.113-.033-.459,1.408,0,.013c-.206.634-.41,1.26-.614,1.886L7.431,18.973c-.155.475-.294.635-.553.635A1.435,1.435,0,0,1,6.412,19.5ZM3.554,9.621,1.37,16.352l2.674.946,2.392.847L7.91,13.6c1.112-3.425,2.218-6.834,3.33-10.258l-.086-.03L6.176,1.542Z" transform="translate(0)" fill="none"/>
    </clipPath>
  </defs>
  <g id="partenaire" transform="translate(0 1883.387)">
    <g id="partenaire-2" data-name="partenaire" transform="translate(12806.453 -24.285)">
      <g id="Icone-Up-handShake2" transform="translate(-12806.453 -1859.102)">
        <g id="Groupe_136" data-name="Groupe 136" transform="translate(0)">
          <path id="Combined_Shape-2" data-name="Combined Shape" d="M18.133,32.136a2.869,2.869,0,0,1-.667-1.935l-.291.149-.008,0c-.175.089-.341.173-.5.266a2.567,2.567,0,0,1-1.311.366,2.482,2.482,0,0,1-1.851-.837,2.628,2.628,0,0,1-.629-2.052.191.191,0,0,0-.006-.056c0-.013-.005-.027-.008-.045-.055,0-.109,0-.164,0a2.379,2.379,0,0,1-2.349-1.416,2.531,2.531,0,0,1,.409-2.981l-.127-.111c-.064-.057-.125-.11-.185-.161a2.759,2.759,0,0,1-.958-2.349,2.574,2.574,0,0,1,1.318-2.014c1.067-.6,2.177-1.169,3.25-1.716q.545-.277,1.082-.553a.734.734,0,0,1,.336-.089.567.567,0,0,1,.523.352.649.649,0,0,1-.342.9c-.734.385-1.481.773-2.2,1.149-.624.324-1.271.661-1.908.994a1.364,1.364,0,0,0-.783,1.431A1.28,1.28,0,0,0,12,22.579a1.365,1.365,0,0,0,.614-.152c.818-.413,1.644-.842,2.443-1.257l.006,0,1.06-.549,1.375-.71q1.549-.8,3.1-1.6a.967.967,0,0,1,.426-.127.428.428,0,0,1,.337.159.812.812,0,0,1,.19.631,1.063,1.063,0,0,1-.494.527c-1.459.759-2.949,1.52-4.39,2.254l-.005,0-.012.006-1.554.794c-1.092.558-2.075,1.063-3.057,1.575a1.3,1.3,0,0,0-.718,1.289,1.287,1.287,0,0,0,.87,1.176,1.182,1.182,0,0,0,.376.061,1.7,1.7,0,0,0,.766-.212c3.063-1.537,6.178-3.093,9.192-4.6l.583-.291.049-.025a1.912,1.912,0,0,1,.383-.157.685.685,0,0,1,.173-.023.546.546,0,0,1,.507.363.589.589,0,0,1-.178.771,1.986,1.986,0,0,1-.314.188l-.06.032q-4.313,2.223-8.628,4.444a1.363,1.363,0,0,0-.92,1.456,1.258,1.258,0,0,0,1.236,1.156,1.42,1.42,0,0,0,.64-.158c1.287-.643,2.581-1.308,3.678-1.873.969-.5,1.952-1.009,2.9-1.5l.032-.016q1.217-.631,2.436-1.26a1.361,1.361,0,0,1,.436-.164.658.658,0,0,1,.094-.006.528.528,0,0,1,.509.37.594.594,0,0,1-.158.745,1.671,1.671,0,0,1-.307.192c-1.932,1-3.944,2.031-6.149,3.165a1.366,1.366,0,0,0-.629,1.666,1.285,1.285,0,0,0,1.191.865,1.117,1.117,0,0,0,.321-.047,2.553,2.553,0,0,0,.462-.2l3.636-1.9.044-.023c2.548-1.329,5.183-2.7,7.785-4.056a26.354,26.354,0,0,0,6.174-4.5l.212-.207c.57-.553,1.16-1.126,1.757-1.669a.449.449,0,0,0,.12-.63c-1.784-3.852-3.589-7.772-5.335-11.564L35.2,6.969,34.012,4.4c-.35-.76-.286-.959.429-1.329l1.335-.691.011-.005,4.058-2.1A1.2,1.2,0,0,1,40.369.1c.23,0,.394.158.583.565q2.44,5.257,4.882,10.512l.093.2,1.94,4.177c.243.525.164.775-.325,1.027l-1.44.738c-1.262.647-2.564,1.314-3.84,1.979a3.688,3.688,0,0,0-.792.569c-.45.419-.9.853-1.337,1.271-.737.708-1.5,1.439-2.277,2.124a27.125,27.125,0,0,1-5.528,3.7c-3.36,1.734-6.778,3.493-10.084,5.194l-.026.013-.931.48a2.913,2.913,0,0,1-1.33.35A2.439,2.439,0,0,1,18.133,32.136ZM36.85,3.324l-1.629.832,4.055,8.679L41.783,18.2c1.467-.756,2.978-1.533,4.754-2.45l-3.11-6.707q-1.7-3.669-3.4-7.339ZM6.412,19.5c-1.92-.691-3.873-1.4-5.763-2.077l-.033-.012C0,17.19-.113,16.951.1,16.3l1.1-3.373,0-.007Q3.2,6.755,5.2.593C5.336.177,5.515,0,5.8,0a1.156,1.156,0,0,1,.39.083C8.259.839,10.526,1.671,13.328,2.7a3.651,3.651,0,0,0,1.262.241,3.06,3.06,0,0,0,1.51-.4,5.239,5.239,0,0,1,2.6-.774,4.127,4.127,0,0,1,.709.063,5.469,5.469,0,0,1,.869.222c2.72.984,5.487,1.989,8.162,2.961l.063.024,3.66,1.329c.543.2.661.392.6.985a4.781,4.781,0,0,1-.83,2.342A2.85,2.85,0,0,1,29.537,11a3.73,3.73,0,0,1-1.033-.156c-1.055-.306-2.107-.692-3.125-1.066-.446-.164-.907-.333-1.363-.493-.193-.069-.388-.139-.594-.214l-.177-.065c-.063.14-.115.255-.165.373a8.514,8.514,0,0,1-2.585,3.514,6.31,6.31,0,0,1-4,1.332,8.964,8.964,0,0,1-1.324-.1,12.1,12.1,0,0,1-1.742-.429.813.813,0,0,1-.516-.388.645.645,0,0,1-.017-.51.551.551,0,0,1,.56-.371,1.164,1.164,0,0,1,.356.062,8.789,8.789,0,0,0,2.746.492c.095,0,.191,0,.285-.006a5.306,5.306,0,0,0,4.028-2.151,7.4,7.4,0,0,0,1.343-2.645c.115-.411.32-.611.626-.611a1.092,1.092,0,0,1,.357.07c.624.223,1.256.452,1.868.673,1,.362,2.031.735,3.047,1.092a5.892,5.892,0,0,0,1.184.277,2.177,2.177,0,0,0,.276.017,1.88,1.88,0,0,0,1.811-1.361c.061-.172.108-.35.159-.538.022-.082.044-.166.069-.254l-.229-.084c-.478-.176-.942-.347-1.406-.516l-1.728-.629-8.259-3a3.755,3.755,0,0,0-1.277-.244,2.749,2.749,0,0,0-1.432.4,5.18,5.18,0,0,1-2.687.8,5.327,5.327,0,0,1-2-.409,1.075,1.075,0,0,0-.11-.035l-.113-.033-.459,1.408,0,.013c-.206.634-.41,1.26-.614,1.886L7.431,18.973c-.155.475-.294.635-.553.635A1.435,1.435,0,0,1,6.412,19.5ZM3.554,9.621,1.37,16.352l2.674.946,2.392.847L7.91,13.6c1.112-3.425,2.218-6.834,3.33-10.258l-.086-.03L6.176,1.542Z" transform="translate(0)" fill="none"/>
        </g>
      </g>
    </g>
  </g>
</svg>
