<?xml version="1.0" encoding="UTF-8"?>
<svg width="24px" height="24px" viewBox="0 0 24 24" version="1.1" xmlns="http://www.w3.org/2000/svg" xmlns:xlink="http://www.w3.org/1999/xlink">
    <!-- Generator: Sketch 51.3 (57544) - http://www.bohemiancoding.com/sketch -->
    <title>0: Icons / Dark / Handheld</title>
    <desc>Created with Sketch.</desc>
    <defs></defs>
    <g id="0:-Icons-/-Dark-/-Handheld" stroke="none" stroke-width="1" fill="none" fill-rule="evenodd">
        <path d="M17,12.75 C17,13.16475 16.66475,13.5 16.25,13.5 L7.25,13.5 C6.83525,13.5 6.5,13.16475 6.5,12.75 L6.5,5.25 C6.5,4.83525 6.83525,4.5 7.25,4.5 L16.25,4.5 C16.66475,4.5 17,4.83525 17,5.25 L17,12.75 L17,12.75 Z M17,3 L6.5,3 C5.672,3 5,3.672 5,4.5 L5,13.5 C5,14.328 5.672,15 6.5,15 L17,15 C17.828,15 18.5,14.328 18.5,13.5 L18.5,4.5 C18.5,3.672 17.828,3 17,3 L17,3 Z M17.75,16.5 C17.336,16.5 17,16.836 17,17.25 C17,17.66475 17.336,18 17.75,18 C18.16475,18 18.5,17.66475 18.5,17.25 C18.5,16.836 18.16475,16.5 17.75,16.5 L17.75,16.5 Z M20,21 C20,21.828 19.328,22.5 18.5,22.5 L5,22.5 C4.172,22.5 3.5,21.828 3.5,21 L3.5,3 C3.5,2.172 4.172,1.5 5,1.5 L18.5,1.5 C19.328,1.5 20,2.172 20,3 L20,21 L20,21 Z M18.5,0 L5,0 C3.34325,0 2,1.34325 2,3 L2,21 C2,22.65675 3.34325,24 5,24 L18.5,24 C20.15675,24 21.5,22.65675 21.5,21 L21.5,3 C21.5,1.34325 20.15675,0 18.5,0 L18.5,0 Z M8.75,18 L8,18 L8,17.25 C8,16.836 7.66475,16.5 7.25,16.5 C6.83525,16.5 6.5,16.836 6.5,17.25 L6.5,18 L5.75,18 C5.33525,18 5,18.33525 5,18.75 C5,19.16475 5.33525,19.5 5.75,19.5 L6.5,19.5 L6.5,20.25 C6.5,20.66475 6.83525,21 7.25,21 C7.66475,21 8,20.66475 8,20.25 L8,19.5 L8.75,19.5 C9.16475,19.5 9.5,19.16475 9.5,18.75 C9.5,18.33525 9.16475,18 8.75,18 L8.75,18 Z M13.25,19.5 C12.836,19.5 12.5,19.836 12.5,20.25 C12.5,20.66475 12.836,21 13.25,21 C13.66475,21 14,20.66475 14,20.25 C14,19.836 13.66475,19.5 13.25,19.5 L13.25,19.5 Z M14,16.5 C13.586,16.5 13.25,16.836 13.25,17.25 C13.25,17.66475 13.586,18 14,18 C14.41475,18 14.75,17.66475 14.75,17.25 C14.75,16.836 14.41475,16.5 14,16.5 L14,16.5 Z M17,19.5 C16.58525,19.5 16.25,19.836 16.25,20.25 C16.25,20.66475 16.58525,21 17,21 C17.41475,21 17.75,20.66475 17.75,20.25 C17.75,19.836 17.41475,19.5 17,19.5 L17,19.5 Z" id="Fill-146" fill="#000000"></path>
    </g>
</svg>