<?xml version="1.0" encoding="UTF-8"?>
<svg width="24px" height="24px" viewBox="0 0 24 24" version="1.1" xmlns="http://www.w3.org/2000/svg" xmlns:xlink="http://www.w3.org/1999/xlink">
    <!-- Generator: Sketch 51.3 (57544) - http://www.bohemiancoding.com/sketch -->
    <title>0: Icons / Dark / Headphone</title>
    <desc>Created with Sketch.</desc>
    <defs></defs>
    <g id="0:-Icons-/-Dark-/-Headphone" stroke="none" stroke-width="1" fill="none" fill-rule="evenodd">
        <path d="M22.5,19 C22.5,19.828 21.828,20.5 21,20.5 L20.292,20.5 C20.73675,19.2535 21,17.86075 21,16.375 C21,15.18025 20.8245,14.0485 20.529,13 L21,13 C21.828,13 22.5,13.672 22.5,14.5 L22.5,19 L22.5,19 Z M18.65475,20.5 L18,20.5 C17.172,20.5 16.5,19.828 16.5,19 L16.5,14.5 C16.5,13.672 17.172,13 18,13 L18.9435,13 C19.29225,14.0395 19.5,15.17275 19.5,16.375 C19.5,17.875 19.1835,19.27225 18.65475,20.5 L18.65475,20.5 Z M3.47175,13 C3.1755,14.0485 3,15.18025 3,16.375 C3,17.86075 3.264,19.2535 3.708,20.5 L3,20.5 C2.172,20.5 1.5,19.828 1.5,19 L1.5,14.5 C1.5,13.672 2.172,13 3,13 L3.47175,13 L3.47175,13 Z M5.0565,13 L6,13 C6.828,13 7.5,13.672 7.5,14.5 L7.5,19 C7.5,19.828 6.828,20.5 6,20.5 L5.34525,20.5 C4.8165,19.27225 4.5,17.875 4.5,16.375 C4.5,15.17275 4.70775,14.0395 5.0565,13 L5.0565,13 Z M22.5,11.125 C22.5,5.533 17.799,1 12,1 C6.201,1 1.5,5.533 1.5,11.125 C1.5,11.3845 1.5255,11.63725 1.54725,11.89075 C0.6285,12.40375 0,13.3735 0,14.5 L0,19 C0,20.65675 1.34325,22 3,22 C3,22 6.003,22.0045 6,22 C7.59375,21.92875 9,20.611 9,19 L9,14.5 C9,12.84325 7.65675,11.5 6,11.5 L3,11.5 C3,6.50275 7.02975,2.5 12,2.5 C16.971,2.5 21,6.15025 21,11.5 L18,11.5 C16.34325,11.5 15,12.84325 15,14.5 L15,19 C15,20.611 16.40625,21.92875 18,22 C17.997,22.0045 21,22 21,22 C22.65675,22 24,20.65675 24,19 L24,14.5 C24,13.3735 23.3715,12.40375 22.4535,11.89075 C22.4745,11.63725 22.5,11.3845 22.5,11.125 Z" id="Fill-135" fill="#000000"></path>
    </g>
</svg>