<?xml version="1.0" encoding="UTF-8"?>
<svg width="24px" height="24px" viewBox="0 0 24 24" version="1.1" xmlns="http://www.w3.org/2000/svg" xmlns:xlink="http://www.w3.org/1999/xlink">
    <!-- Generator: Sketch 51.3 (57544) - http://www.bohemiancoding.com/sketch -->
    <title>0: Icons / Dark / Heart Outline</title>
    <desc>Created with Sketch.</desc>
    <defs></defs>
    <g id="0:-Icons-/-Dark-/-Heart-Outline" stroke="none" stroke-width="1" fill="none" fill-rule="evenodd">
        <path d="M21,11.2615 L12,22 L3,11.21725 C1.92375,9.72175 1.5,8.7115 1.5,7.3285 C1.5,4.74925 3.34125,2.428 6,2.40625 C8.187,2.38825 10.6665,4.62175 12,6.3055 C13.29825,4.681 15.813,2.40625 18,2.40625 C20.58825,2.40625 22.5,4.74925 22.5,7.3285 C22.5,8.7115 22.16475,9.79675 21,11.2615 L21,11.2615 Z M18,1 C15.50025,1 13.60875,2.467 12,4 C10.46775,2.37325 8.49975,1 6,1 C2.4795,1 0,4.027 0,7.3285 C0,9.09925 0.72525,10.37425 1.5195,11.57275 L10.84425,22.75225 C11.8905,23.86 12.0885,23.86 13.13475,22.75225 L22.4805,11.57275 C23.415,10.37425 24,9.09925 24,7.3285 C24,4.027 21.5205,1 18,1 L18,1 Z" id="Fill-72" fill="#000000"></path>
    </g>
</svg>