<svg xmlns="http://www.w3.org/2000/svg" xmlns:xlink="http://www.w3.org/1999/xlink" width="70px" height="61px" viewBox="0 0 70 61" version="1.1">
    <!-- Generator: sketchtool 61 (101010) - https://sketch.com -->
    <title>359972D0-E209-4841-A87E-97BEC2381527@1,5x</title>
    <desc>Created with sketchtool.</desc>
    <defs>
        <path d="M35.8751698,0.371423217 C37.7278685,2.03163868 43.7899585,7.37350899 50.244828,13.0576876 L50.2444188,5.70568462 C50.2444188,4.89849714 50.8977521,4.24338846 51.7027521,4.24338846 C52.5077521,4.24338846 53.1610854,4.89849714 53.1610854,5.70568462 L53.1611659,15.6261597 C59.9931077,21.6450502 66.6275627,27.4899733 68.6118369,29.2663947 C69.2126703,29.8045197 69.2632258,30.7286909 68.7285036,31.3311569 C68.1898925,31.9336229 67.2701702,31.9843158 66.6673925,31.4481406 C65.6583862,30.5440856 63.4433836,28.5850059 60.6106911,26.0856269 L60.6102518,59.2577014 C60.6102518,60.0648889 59.9569185,60.7199976 59.1519185,60.7199976 L10.3366416,60.7199976 C9.52969715,60.7199976 8.87830827,60.0648889 8.87830827,59.2577014 L8.878,26.696 L2.42878052,32.4658987 C2.15072496,32.7135141 1.80461385,32.836347 1.45850273,32.836347 C1.05794717,32.836347 0.659336053,32.6725699 0.369613827,32.3469653 C-0.165108402,31.7444992 -0.114552846,30.8203281 0.488224939,30.2822031 L33.9326698,0.371423217 C34.4829476,-0.123807739 35.3210032,-0.123807739 35.8751698,0.371423217 Z M34.9048921,3.41884835 L11.7656641,24.1153153 C11.7848836,24.20997 11.7949749,24.3079393 11.7949749,24.4082576 L11.7949749,57.7954051 L57.6935852,57.7954051 L57.6935852,24.492096 C57.6935852,24.2050282 57.7762185,23.9371953 57.9189194,23.711224 C55.5100204,21.5881389 52.8428311,19.2386375 50.1804478,16.8934198 C43.9348922,11.3932366 37.7146143,5.91450041 34.9048921,3.41884835 Z" id="path-home-1"/>
    </defs>
    <g id="Financeur_Déjeuner_extranet-/-UI" stroke="none" stroke-width="1" fill="none" fill-rule="evenodd">
        <g id="10_01_UpDéjeuner">
            <g id="Group-home-2">
                <g id="Icone/Foncé/groupe-Icone/Foncé/Utilisateur" transform="translate(19.000000, 21.000000)" stroke="#4E5B59" stroke-linecap="round" stroke-linejoin="round" stroke-width="1.3">
                    <g id="Page-home-1" transform="translate(4.000000, 1.000000)">
                        <path d="M11.0007419,0 C8.23333746,0 5,1.3731003 5,5.24420593 C5,9.37585486 7.80450105,13 11.0007419,13 C14.1954989,13 17,9.37585486 17,5.24420593 C17,1.3731003 13.7681464,0 11.0007419,0 Z" id="Stroke-home-1"/>
                        <path d="M14.4732037,16 C13.8236898,16.9494842 12.5155324,17.6028927 10.994783,17.6028927 C9.48316339,17.6028927 8.18022291,16.9584175 7.52810055,16.0191428 L4.92091534,16.3471233 C2.10765947,16.7031798 0,19.047538 0,21.8219717 L0,28 L22,27.9821334 L22,21.8041051 C22,19.0283952 19.8923405,16.684037 17.0803889,16.3292566 L14.4732037,16" id="Stroke-home-3"/>
                    </g>
                </g>
                <g id="Icone/Up/home">
                    <mask id="mask-home-2" fill="white">
                        <use xlink:href="#path-home-1"/>
                    </mask>
                    <g id="Combined-Shape"/>
                    <g id="🎨-color-couleur/Gris-Up" mask="url(#mask-home-2)" fill="#4E5B59" fill-rule="nonzero">
                        <polygon id="Rectangle" points="0 0 70 0 70 62.391304 0 62.391304"/>
                    </g>
                </g>
            </g>
        </g>
    </g>
</svg>