<?xml version="1.0" encoding="UTF-8"?>
<svg width="24px" height="24px" viewBox="0 0 24 24" version="1.1" xmlns="http://www.w3.org/2000/svg" xmlns:xlink="http://www.w3.org/1999/xlink">
    <!-- Generator: Sketch 51.3 (57544) - http://www.bohemiancoding.com/sketch -->
    <title>0: Icons / Dark / House</title>
    <desc>Created with Sketch.</desc>
    <defs></defs>
    <g id="0:-Icons-/-Dark-/-House" stroke="none" stroke-width="1" fill="none" fill-rule="evenodd">
        <path d="M18.232,21 C18.232,21.828 17.563,22.5 16.738,22.5 L7.7755,22.5 C6.9505,22.5 6.25675,21.828 6.25675,21 L6.25675,9.46875 L12.25675,2.1975 L18.25675,9.4455 L18.232,21 L18.232,21 Z M12.25675,0 L1,13.24275 L2.056,14.30325 L4.75675,11.25 L4.75675,21 C4.75675,22.65675 6.1255,24 7.7755,24 L16.738,24 C18.388,24 19.75675,22.65675 19.75675,21 L19.75675,11.25 L22.4575,14.30325 L23.5135,13.24275 L12.25675,0 L12.25675,0 Z" id="Fill-63" fill="#000000"></path>
    </g>
</svg>