<svg xmlns="http://www.w3.org/2000/svg" xmlns:xlink="http://www.w3.org/1999/xlink" width="16px" height="16px" viewBox="0 0 16 16" version="1.1">
    <title>BFEF5583-DCDD-4108-8630-160B4C0799FF@1,5x</title>
    <g id="UI-fiche-com" stroke="none" stroke-width="1" fill="none" fill-rule="evenodd">
        <g id="Entité-de-gestion" transform="translate(-1154.000000, -436.000000)" fill="#F59100" fill-rule="nonzero">
            <g id="3C" transform="translate(173.000000, 360.000000)">
                <g id="Colonne" transform="translate(23.000000, 63.000000)">
                    <g id="Group-3">
                        <g id="-Icone-/-V2-/information" transform="translate(958.000000, 13.000000)">
                            <path d="M7.5267,5.3277 C7.6647,5.3277 7.7767,5.4397 7.7767,5.5777 L7.7767,11.8502 C7.7767,11.9882 7.6647,12.1002 7.5267,12.1002 C7.3887,12.1002 7.2767,11.9882 7.2767,11.8502 L7.2767,5.5777 C7.2767,5.4397 7.3887,5.3277 7.5267,5.3277 Z M7.53595,3.44685 C7.88195,3.44685 8.16295,3.72785 8.16295,4.07385 C8.16295,4.42035 7.88195,4.70135 7.53595,4.70135 C7.18945,4.70135 6.90845,4.42035 6.90845,4.07385 C6.90845,3.72785 7.18945,3.44685 7.53595,3.44685 Z M7.5267,0.0001 C3.3702,0.0001 -0.0003,3.3696 -0.0003,7.5271 C-0.0003,11.6836 3.3702,15.0536 7.5267,15.0536 C11.6837,15.0536 15.0537,11.6836 15.0537,7.5271 C15.0537,3.3696 11.6837,0.0001 7.5267,0.0001 M7.5267,0.4896 C11.4077,0.4896 14.5642,3.6461 14.5642,7.5271 C14.5642,11.4071 11.4077,14.5646 7.5267,14.5646 C3.6462,14.5646 0.4892,11.4071 0.4892,7.5271 C0.4892,3.6461 3.6462,0.4896 7.5267,0.4896" id="Fill-1"/>
                        </g>
                    </g>
                </g>
            </g>
        </g>
    </g>
</svg>