<svg xmlns="http://www.w3.org/2000/svg" xmlns:xlink="http://www.w3.org/1999/xlink" width="30px" height="30px" viewBox="0 0 30 30" version="1.1">
    <g id="Icone-/-V1-/-Blanc-/-information" stroke="none" stroke-width="1" fill="none" fill-rule="evenodd">
        <rect x="0" y="0" width="30" height="30" fill='none' />
        <g id="Group-8" transform="translate(10.000000, 0.000000)" fill="#FFFFFF">
            <path d="M10,26.4057822 C9.13986125,31.2189165 0.415596763,31.575445 1.02998159,25.1579326 C1.39861248,20.8795909 2.0129973,16.7795135 2.50450516,12.5011719 C2.75025909,9.8272084 1.52148944,10.7185296 0.538473728,10.1837369 C-0.19878806,9.64894417 -0.19878806,8.40109453 0.661350692,8.22283029 C1.76724337,7.86630182 5.57642928,8.04456606 6.92807589,8.04456606 C7.66533767,8.04456606 8.03396857,8.57935876 8.03396857,9.47067993 C8.15684553,10.3620011 8.03396857,11.2533223 7.9110916,11.9663792 C7.41958374,16.0664566 6.68232196,20.3447982 6.43656803,24.2666114 C6.31369106,25.1579326 6.43656803,26.7623107 7.29670678,26.7623107 C8.15684553,26.5840464 8.52547643,26.0492537 9.26273821,25.6927253 C9.75424607,25.3361968 10,25.8709895 10,26.4057822" id="Fill-1"/>
            <path d="M5,0 C6.75,0 8,1.37319291 8,2.99605726 C8,4.74375733 6.625,6.11695025 5,5.99211453 C3.375,5.99211453 2,4.61892162 2,2.99605726 C2,1.37319291 3.375,0 5,0" id="Fill-3"/>
        </g>
    </g>
</svg>