<?xml version="1.0" encoding="UTF-8"?>
<svg width="21px" height="27px" viewBox="0 0 21 27" version="1.1" xmlns="http://www.w3.org/2000/svg" xmlns:xlink="http://www.w3.org/1999/xlink">
    <title>53C45509-F661-4A62-9DD6-3485804CFC36@1,5x</title>
    <defs>
        <filter>
            <feColorMatrix in="SourceGraphic" type="matrix" values="0 0 0 0 0.960784 0 0 0 0 0.568627 0 0 0 0 0.000000 0 0 0 1.000000 0"></feColorMatrix>
        </filter>
    </defs>
    <g id="Page-1" stroke="none" stroke-width="1" fill-rule="evenodd">
        <g id="01_00_Recherche_commande" transform="translate(-1546.000000, -912.000000)">
            <g id="Formulaire/Elements-de-base/Tableau/Tableau-Standard" transform="translate(118.000000, 500.000000)">
                <g id="-Icone-/-V2-/facture" transform="translate(32.000000, 401.000000)" >
                    <g transform="translate(1396.000000, 11.000000)">
                        <path d="M14.26668,15.86799 C14.51508,15.86799 14.71668,16.06959 14.71668,16.31799 C14.71668,16.56639 14.51508,16.76799 14.26668,16.76799 C13.4931586,16.76799 12.816561,17.1920824 12.4577048,17.8200009 L12.8121,17.8209 C13.0605,17.8209 13.2621,18.0225 13.2621,18.2709 C13.2621,18.5193 13.0605,18.7209 12.8121,18.7209 L12.1889045,18.7202891 C12.1863009,18.7627944 12.18498,18.8056408 12.18498,18.84879 C12.18498,18.9618304 12.1940457,19.0727922 12.211488,19.1809879 L12.8121,19.18053 C13.0605,19.18053 13.2621,19.38213 13.2621,19.63053 C13.2621,19.87893 13.0605,20.08053 12.8121,20.08053 L12.5902609,20.081032 C12.9696923,20.5953704 13.5799942,20.92959 14.26668,20.92959 C14.51508,20.92959 14.71668,21.13119 14.71668,21.37959 C14.71668,21.62799 14.51508,21.82959 14.26668,21.82959 C13.0623026,21.82959 12.0217881,21.1117831 11.5518069,20.0810684 L10.6593,20.08053 C10.4109,20.08053 10.2093,19.87893 10.2093,19.63053 C10.2093,19.38213 10.4109,19.18053 10.6593,19.18053 L11.3033873,19.1811386 C11.2912256,19.0720108 11.28498,18.9611186 11.28498,18.84879 L11.28883,18.72018 L10.6593,18.7209 C10.4109,18.7209 10.2093,18.5193 10.2093,18.2709 C10.2093,18.0225 10.4109,17.8209 10.6593,17.8209 L11.4680018,17.8203663 C11.8880807,16.6820488 12.9845251,15.86799 14.26668,15.86799 Z M8.97045,8.70489 C9.21885,8.70489 9.42045,8.90649 9.42045,9.15489 C9.42045,9.40329 9.21885,9.60489 8.97045,9.60489 L3.06105,9.60489 C2.81175,9.60489 2.61105,9.40329 2.61105,9.15489 C2.61105,8.90649 2.81175,8.70489 3.06105,8.70489 L8.97045,8.70489 Z M8.97045,5.8554 C9.21885,5.8554 9.42045,6.057 9.42045,6.3054 C9.42045,6.5538 9.21885,6.7554 8.97045,6.7554 L3.06105,6.7554 C2.81175,6.7554 2.61105,6.5538 2.61105,6.3054 C2.61105,6.057 2.81175,5.8554 3.06105,5.8554 L8.97045,5.8554 Z M8.97045,3.0051 C9.21885,3.0051 9.42045,3.2067 9.42045,3.4551 C9.42045,3.7035 9.21885,3.9051 8.97045,3.9051 L3.06105,3.9051 C2.81175,3.9051 2.61105,3.7035 2.61105,3.4551 C2.61105,3.2067 2.81175,3.0051 3.06105,3.0051 L8.97045,3.0051 Z M19.49883,26.10018 L4.19883,26.10018 L4.19883,24.30018 L16.55853,24.30018 C17.18853,24.30018 17.69883,23.78988 17.69883,23.15988 L17.69883,4.50018 L19.49883,4.50018 L19.49883,26.10018 Z M19.82013,2.86938 C19.65183,2.77128 19.46733,2.70018 19.25853,2.70018 L17.69883,2.70018 L17.69883,1.14048 C17.69883,0.51048 17.18853,0.00018 16.55853,0.00018 L1.73913,0.00018 C1.10913,0.00018 0.59883,0.51048 0.59883,1.14048 L0.59883,23.15988 C0.59883,23.78988 1.10913,24.30018 1.73913,24.30018 L3.29883,24.30018 L3.29883,22.50018 L1.49883,22.50018 L1.49883,0.90018 L16.79883,0.90018 L16.79883,2.58318 L16.79883,3.70458 L16.79883,22.50018 L4.46523,22.50018 L3.29883,22.50018 L3.29883,24.14088 L3.29883,25.85628 C3.29883,26.27838 3.53823,26.63208 3.87753,26.83098 C4.00263,26.90388 4.13943,26.94888 4.28973,26.96958 C4.34013,26.97678 4.38603,27.00018 4.43913,27.00018 L19.25853,27.00018 C19.88853,27.00018 20.39883,26.48988 20.39883,25.85988 L20.39883,3.84408 C20.39883,3.42108 20.15943,3.06738 19.82013,2.86938 L19.82013,2.86938 Z" ></path>
                    </g>
                </g>
            </g>
        </g>
    </g>
</svg>