<?xml version="1.0" encoding="UTF-8"?>
<svg width="24px" height="24px" viewBox="0 0 24 24" version="1.1" xmlns="http://www.w3.org/2000/svg" xmlns:xlink="http://www.w3.org/1999/xlink">
    <!-- Generator: Sketch 51.3 (57544) - http://www.bohemiancoding.com/sketch -->
    <title>0: Icons / Dark / Justified Text</title>
    <desc>Created with Sketch.</desc>
    <defs></defs>
    <g id="0:-Icons-/-Dark-/-Justified-Text" stroke="none" stroke-width="1" fill="none" fill-rule="evenodd">
        <path d="M23.1428571,6.85714286 L0.857142857,6.85714286 C0.383142857,6.85714286 0,7.24114286 0,7.71428571 C0,8.18828571 0.383142857,8.57142857 0.857142857,8.57142857 L23.1428571,8.57142857 C23.6168571,8.57142857 24,8.18828571 24,7.71428571 C24,7.24114286 23.6168571,6.85714286 23.1428571,6.85714286 L23.1428571,6.85714286 Z M23.1428571,13.7142857 L0.857142857,13.7142857 C0.383142857,13.7142857 0,14.0982857 0,14.5714286 C0,15.0454286 0.383142857,15.4285714 0.857142857,15.4285714 L23.1428571,15.4285714 C23.6168571,15.4285714 24,15.0454286 24,14.5714286 C24,14.0982857 23.6168571,13.7142857 23.1428571,13.7142857 L23.1428571,13.7142857 Z M0.857142857,1.71428571 L23.1428571,1.71428571 C23.6168571,1.71428571 24,1.33114286 24,0.857142857 C24,0.384 23.6168571,0 23.1428571,0 L0.857142857,0 C0.383142857,0 0,0.384 0,0.857142857 C0,1.33114286 0.383142857,1.71428571 0.857142857,1.71428571 L0.857142857,1.71428571 Z M13.7142857,20.5714286 L0.857142857,20.5714286 C0.383142857,20.5714286 0,20.9545714 0,21.4285714 C0,21.9025714 0.383142857,22.2857143 0.857142857,22.2857143 L13.7142857,22.2857143 C14.1882857,22.2857143 14.5714286,21.9025714 14.5714286,21.4285714 C14.5714286,20.9545714 14.1882857,20.5714286 13.7142857,20.5714286 L13.7142857,20.5714286 Z" id="Fill-196" fill="#000000"></path>
    </g>
</svg>