<?xml version="1.0" encoding="UTF-8"?>
<svg width="24px" height="24px" viewBox="0 0 24 24" version="1.1" xmlns="http://www.w3.org/2000/svg" xmlns:xlink="http://www.w3.org/1999/xlink">
    <!-- Generator: Sketch 51.3 (57544) - http://www.bohemiancoding.com/sketch -->
    <title>0: Icons / Dark / Layers</title>
    <desc>Created with Sketch.</desc>
    <defs></defs>
    <g id="0:-Icons-/-Dark-/-Layers" stroke="none" stroke-width="1" fill="none" fill-rule="evenodd">
        <path d="M22.5,15 C22.5,15.828 21.828,16.5 21,16.5 L9,16.5 C8.172,16.5 7.5,15.828 7.5,15 L7.5,3 C7.5,2.172 8.172,1.5 9,1.5 L21,1.5 C21.828,1.5 22.5,2.172 22.5,3 L22.5,15 L22.5,15 Z M21,0 L9,0 C7.34325,0 6,1.34325 6,3 L6,15 C6,16.65675 7.34325,18 9,18 L21,18 C22.65675,18 24,16.65675 24,15 L24,3 C24,1.34325 22.65675,0 21,0 L21,0 Z M16.5,21 C16.5,21.828 15.828,22.5 15,22.5 L3,22.5 C2.172,22.5 1.5,21.828 1.5,21 L1.5,9 C1.5,8.172 2.172,7.5 3,7.5 L4.5,7.5 L4.5,6 L3,6 C1.34325,6 0,7.34325 0,9 L0,21 C0,22.65675 1.34325,24 3,24 L15,24 C16.65675,24 18,22.65675 18,21 L18,19.5 L16.5,19.5 L16.5,21 L16.5,21 Z" id="Fill-60" fill="#000000"></path>
    </g>
</svg>