<svg width="27" height="26" viewBox="0 -10 60 60" xmlns="http://www.w3.org/2000/svg"><g id="svgGroup" stroke-linecap="round" fill-rule="evenodd" font-size="9pt" stroke="#ffffff" stroke-width="0mm" fill="#ffffff" style="stroke:#ffffff;stroke-width:0mm;fill:#ffffff"><path d="M 24.512 44.032 L 20.032 22.016 L 24.832 0 L 37.952 0 L 48.448 44.032 L 37.504 44.032 L 36.992 41.92 L 35.648 36.352 L 33.728 28.224 Q 32.512 23.296 31.424 18.56 L 31.04 18.56 L 28.864 28.224 L 28.16 31.488 Q 27.84 32.832 27.552 34.048 Q 27.264 35.264 27.008 36.352 L 25.728 41.92 L 25.216 44.032 L 24.512 44.032 Z M 10.432 44.032 L 9.984 42.176 Q 9.641 40.804 9.148 38.607 A 349.086 349.086 0 0 1 8.832 37.184 L 7.104 30.144 L 5.184 22.08 L 0 0 L 12.736 0 L 21.824 44.032 L 10.432 44.032 Z M 51.2 44.032 L 45.888 21.632 L 49.728 0 L 62.464 0 L 57.216 22.08 L 55.296 30.144 Q 54.08 35.072 53.632 37.184 L 52.416 42.176 L 51.968 44.032 L 51.2 44.032 Z" vector-effect="non-scaling-stroke"/></g></svg>