<svg width="27" height="26" viewBox="-12 -10 60 60" xmlns="http://www.w3.org/2000/svg"><g id="svgGroup" stroke-linecap="round" fill-rule="evenodd" font-size="9pt" stroke="#ffffff" stroke-width="0mm" fill="#ffffff" style="stroke:#ffffff;stroke-width:0mm;fill:#ffffff"><path d="M 13.056 0.384 L 13.056 22.528 Q 13.056 26.273 13.23 28.562 A 30.145 30.145 0 0 0 13.312 29.472 Q 13.568 31.872 14.272 33.152 Q 15.04 34.496 16.48 35.008 Q 17.781 35.471 20.1 35.515 A 26.367 26.367 0 0 0 20.608 35.52 L 20.608 45.056 L 19.968 45.056 Q 13.86 45.056 10.113 44.182 A 20.513 20.513 0 0 1 9.76 44.096 A 13.866 13.866 0 0 1 6.946 43.073 A 9.935 9.935 0 0 1 3.84 40.704 A 11.304 11.304 0 0 1 2.134 38.016 Q 1.323 36.262 0.864 33.984 Q 0 29.696 0 22.528 A 106.04 106.04 0 0 1 0.068 18.605 Q 0.133 16.856 0.26 15.34 A 44.969 44.969 0 0 1 0.576 12.544 Q 1.028 9.479 1.993 7.282 A 12.75 12.75 0 0 1 2.56 6.144 Q 4.032 3.584 6.528 2.24 Q 8.468 1.195 11.337 0.653 A 28.822 28.822 0 0 1 13.056 0.384 Z M 23.296 44.928 L 23.296 27.648 L 18.752 27.648 L 18.752 18.368 L 35.392 18.368 L 35.392 43.456 Q 33.148 43.981 30.084 44.328 A 80.304 80.304 0 0 1 27.904 44.544 A 37.076 37.076 0 0 1 24.644 44.872 A 43.165 43.165 0 0 1 23.296 44.928 Z M 15.744 10.752 L 15.744 0.128 Q 18.177 0.006 19.8 0 A 45.013 45.013 0 0 1 19.968 0 A 75.272 75.272 0 0 1 25.981 0.23 A 58.315 58.315 0 0 1 30.528 0.768 Q 32.96 1.024 35.2 1.536 L 35.2 10.688 Q 33.142 10.492 31.872 10.334 A 40.293 40.293 0 0 1 31.168 10.24 Q 30.08 10.176 27.648 9.92 Q 25.661 9.816 24.785 9.796 A 15.755 15.755 0 0 0 24.448 9.792 Q 20.69 9.792 18.859 9.94 A 20.92 20.92 0 0 0 18.72 9.952 A 10.306 10.306 0 0 0 17.459 10.137 Q 16.824 10.273 16.299 10.487 A 5.127 5.127 0 0 0 15.744 10.752 Z" vector-effect="non-scaling-stroke"/></g></svg>