<svg width="27" height="26" viewBox="-12 -10 60 60" xmlns="http://www.w3.org/2000/svg"><g id="svgGroup" stroke-linecap="round" fill-rule="evenodd" font-size="9pt" stroke="#ffffff" stroke-width="0mm" fill="#ffffff" style="stroke:#ffffff;stroke-width:0mm;fill:#ffffff"><path d="M 25.6 44.8 L 25.6 22.528 A 764.467 764.467 0 0 0 25.597 20.276 Q 25.586 16.582 25.536 15.232 Q 25.433 13.114 25.037 11.934 A 4.263 4.263 0 0 0 24.832 11.424 A 2.683 2.683 0 0 0 24.165 10.542 Q 23.676 10.124 22.976 9.984 A 13.395 13.395 0 0 0 22.12 9.887 Q 20.993 9.792 19.328 9.792 A 46.56 46.56 0 0 0 18.216 9.804 Q 16.701 9.841 15.996 9.985 A 2.727 2.727 0 0 0 15.744 10.048 L 15.744 0.064 Q 16.185 0.015 16.964 0.004 A 34.57 34.57 0 0 1 17.472 0 L 19.328 0 Q 25.959 0 29.825 0.959 A 18.426 18.426 0 0 1 30.432 1.12 A 13.777 13.777 0 0 1 32.935 2.086 Q 34.998 3.14 36.16 4.8 A 10.436 10.436 0 0 1 37.446 7.344 Q 37.871 8.549 38.103 9.984 A 19.871 19.871 0 0 1 38.24 11.008 Q 38.559 13.948 38.633 19.139 A 236.377 236.377 0 0 1 38.656 22.528 Q 38.656 28.067 38.46 31.497 A 61.119 61.119 0 0 1 38.368 32.864 Q 38.142 35.703 37.383 37.773 A 11.52 11.52 0 0 1 36.928 38.848 Q 35.648 41.536 32.992 42.944 A 12.792 12.792 0 0 1 30.814 43.832 Q 29.724 44.173 28.421 44.415 A 32.013 32.013 0 0 1 25.6 44.8 Z M 13.056 0.256 L 13.056 22.528 Q 13.056 26.304 13.184 29.76 Q 13.287 31.881 13.663 33.082 A 4.711 4.711 0 0 0 13.856 33.6 Q 14.379 34.769 15.581 34.992 A 2.911 2.911 0 0 0 15.68 35.008 Q 16.5 35.201 18.157 35.249 A 41.037 41.037 0 0 0 19.328 35.264 A 56.809 56.809 0 0 0 20.467 35.254 Q 22.053 35.222 22.8 35.093 A 4.253 4.253 0 0 0 22.912 35.072 L 22.912 44.992 Q 22.471 45.041 21.692 45.053 A 34.57 34.57 0 0 1 21.184 45.056 L 19.328 45.056 Q 9.984 45.056 5.888 43.008 A 9.207 9.207 0 0 1 3.796 41.633 A 7.892 7.892 0 0 1 2.56 40.256 A 10.248 10.248 0 0 1 1.449 38.185 Q 1.064 37.232 0.802 36.117 A 16.876 16.876 0 0 1 0.768 35.968 Q 0.256 33.728 0.128 30.816 Q 0.03 28.587 0.007 24.913 A 382.358 382.358 0 0 1 0 22.528 Q 0 15.808 0.288 12.224 A 22.604 22.604 0 0 1 0.66 9.527 Q 0.933 8.186 1.365 7.058 A 12.129 12.129 0 0 1 1.728 6.208 Q 3.008 3.584 5.632 2.176 Q 8.256 0.768 13.056 0.256 Z" vector-effect="non-scaling-stroke"/></g></svg>