<svg width="27" height="26" viewBox="-12 -10 60 60" xmlns="http://www.w3.org/2000/svg"><g id="svgGroup" stroke-linecap="round" fill-rule="evenodd" font-size="9pt" stroke="#ffffff" stroke-width="0mm" fill="#ffffff" style="stroke:#ffffff;stroke-width:0mm;fill:#ffffff"><path d="M 15.488 44.032 L 15.488 34.24 L 16 34.24 Q 19.136 34.24 20.448 33.952 A 3.178 3.178 0 0 0 21.491 33.532 A 2.8 2.8 0 0 0 22.4 32.576 A 3.963 3.963 0 0 0 22.785 31.7 Q 23.124 30.625 23.168 28.928 Q 23.296 25.728 23.296 22.016 Q 23.296 18.368 23.168 15.04 Q 23.058 12.892 22.545 11.739 A 3.571 3.571 0 0 0 22.368 11.392 Q 21.696 10.24 20.224 9.984 A 17.578 17.578 0 0 0 19.237 9.887 Q 17.935 9.792 16 9.792 L 15.488 9.792 L 15.488 0 L 16 0 Q 19.703 0 22.518 0.234 A 43.385 43.385 0 0 1 24.544 0.448 Q 27.166 0.791 29.093 1.434 A 14.408 14.408 0 0 1 30.208 1.856 A 9.581 9.581 0 0 1 32.267 3.075 A 7.925 7.925 0 0 1 33.664 4.48 A 9.361 9.361 0 0 1 34.881 6.615 A 12.789 12.789 0 0 1 35.52 8.64 Q 36.032 10.88 36.192 13.92 Q 36.314 16.248 36.343 19.757 A 276.644 276.644 0 0 1 36.352 22.016 Q 36.352 27.136 36.192 30.144 Q 36.055 32.729 35.657 34.747 A 21.828 21.828 0 0 1 35.52 35.392 A 12.718 12.718 0 0 1 34.853 37.483 A 9.322 9.322 0 0 1 33.664 39.552 Q 32.384 41.216 30.208 42.176 Q 28.468 42.922 26.015 43.358 A 32.343 32.343 0 0 1 24.544 43.584 A 46.153 46.153 0 0 1 21.769 43.855 Q 19.22 44.032 16 44.032 L 15.488 44.032 Z M 0 44.032 L 0 0 L 12.8 0 L 12.8 44.032 L 0 44.032 Z" vector-effect="non-scaling-stroke"/></g></svg>