<svg width="27" height="26" viewBox="-12 -10 60 60" xmlns="http://www.w3.org/2000/svg"><g id="svgGroup" stroke-linecap="round" fill-rule="evenodd" font-size="9pt" stroke="#ffffff" stroke-width="0mm" fill="#ffffff" style="stroke:#ffffff;stroke-width:0mm;fill:#ffffff"><path d="M 21.504 44.992 L 21.504 31.552 Q 21.504 30.208 21.312 29.6 Q 21.12 28.992 20.672 28.768 Q 20.224 28.544 19.136 28.416 L 11.264 27.456 Q 7.29 27.018 4.791 25.605 A 8.214 8.214 0 0 1 1.856 22.912 A 8.618 8.618 0 0 1 0.823 20.795 A 11.611 11.611 0 0 1 0.384 19.008 Q 0 16.704 0 13.376 A 21.852 21.852 0 0 1 0.289 9.694 Q 0.623 7.744 1.344 6.214 A 9.13 9.13 0 0 1 3.648 3.136 A 9.959 9.959 0 0 1 6.39 1.486 Q 8.993 0.405 12.864 0.128 L 12.864 12.992 Q 12.864 13.625 12.901 14.11 A 8.489 8.489 0 0 0 12.928 14.4 Q 12.97 14.778 13.067 15.045 A 1.441 1.441 0 0 0 13.184 15.296 A 1.058 1.058 0 0 0 13.704 15.791 A 1.419 1.419 0 0 0 13.824 15.84 A 2.661 2.661 0 0 0 14.13 15.927 Q 14.538 16.019 15.168 16.064 L 24 17.152 A 38.528 38.528 0 0 1 25.771 17.439 Q 26.559 17.586 27.236 17.755 A 16.64 16.64 0 0 1 28.48 18.112 Q 30.208 18.688 31.424 19.904 Q 34.304 22.912 34.304 30.592 Q 34.304 38.72 30.72 41.984 A 9.459 9.459 0 0 1 27.542 43.898 A 11.265 11.265 0 0 1 26.848 44.128 Q 24.576 44.8 21.504 44.992 Z M 1.28 43.84 L 1.28 34.496 Q 5.056 34.816 9.92 35.136 Q 12.749 35.254 14.059 35.263 A 30.076 30.076 0 0 0 14.272 35.264 A 98.333 98.333 0 0 0 15.671 35.255 Q 17.559 35.228 18.469 35.122 A 6.078 6.078 0 0 0 18.816 35.072 L 18.816 45.056 L 18.112 45.056 A 125.332 125.332 0 0 1 10.828 44.853 A 100.702 100.702 0 0 1 6.208 44.48 Q 2.944 44.16 1.28 43.84 Z M 15.552 9.92 L 15.552 0 L 17.152 0 A 85.824 85.824 0 0 1 25.934 0.465 A 96.72 96.72 0 0 1 28.032 0.704 A 61.737 61.737 0 0 1 29.811 0.986 Q 30.874 1.17 32.064 1.408 L 32.064 10.624 Q 30.12 10.388 25.462 9.99 A 681.634 681.634 0 0 0 24.64 9.92 Q 21.696 9.792 19.904 9.792 Q 17.6 9.792 15.552 9.92 Z" vector-effect="non-scaling-stroke"/></g></svg>