<?xml version="1.0" encoding="UTF-8"?>
<svg width="32px" height="30px" viewBox="0 0 32 30" version="1.1" xmlns="http://www.w3.org/2000/svg" xmlns:xlink="http://www.w3.org/1999/xlink">
    <!-- Generator: sketchtool 61 (101010) - https://sketch.com -->
    <title>6111CF71-F7D1-4E60-99A2-73B40707DB0F@1,5x</title>
    <desc>Created with sketchtool.</desc>
    <defs>
        <path d="M24.2992318,2.89901436e-13 L5.89715394,2.89901436e-13 C5.50846161,2.89901436e-13 5.18415391,0.325200011 5.18415391,0.717600023 L5.18415391,11.3472004 L5.18415391,12.8472004 L5.18415391,14.8692005 L5.83157701,15.4560005 L6.54457705,16.0428005 L6.54457705,12.9120004 L6.54457705,11.4120004 L6.54457705,1.43400005 L23.5218471,1.43400005 L23.5218471,11.3472004 L23.5218471,12.8472004 L23.5218471,15.9780005 L24.1704625,15.3912005 L24.8822703,14.8032005 L24.8822703,12.7824004 L24.8822703,11.2824004 L24.8822703,0.651600021 C25.0122318,0.325200011 24.753501,2.89901436e-13 24.2992318,2.89901436e-13 M28.7703845,27.5209202 L25.0122306,24.3913201 L24.3648075,23.8033201 L23.7161921,23.2165201 L20.4766921,20.5429201 L23.7161921,17.86932 L24.3648075,17.28252 L25.0766152,16.69572 L28.8359615,13.6297199 L28.7703845,27.5209202 Z M2.85199995,28.3033195 L6.80449996,25.0429195 L7.64626919,24.3913195 L8.48923073,23.6725194 L11.0157307,21.5869194 L13.543423,23.6725194 C13.9321153,23.9989195 14.5151538,24.1957195 15.0338077,24.1957195 C15.5524615,24.1957195 16.1343077,23.9989195 16.5241923,23.6725194 L19.0506923,21.5869194 L21.5783846,23.6725194 L22.4201538,24.3913195 L23.261923,25.0429195 L27.2156154,28.3033195 L2.85199995,28.3033195 Z M1.49038462,27.5209202 L1.49038462,13.6957203 L5.24853855,16.7605203 L5.89715394,17.3473203 L6.61015396,17.9341203 L9.84965403,20.6077202 L6.61015396,23.2813202 L5.89715394,23.8693202 L5.24853855,24.5209202 L1.49038462,27.5209202 Z M28.9647298,11.5429204 C28.7703837,11.4121204 28.5116529,11.4121204 28.1229606,11.4121204 L25.0122299,11.4121204 L25.0122299,12.9121204 L27.4099606,12.9121204 L25.0122299,14.9341205 L24.29923,15.5209205 L23.6518069,16.1077205 L15.7468072,22.5649206 C15.4224995,22.8253206 14.8382687,22.8253206 14.5151534,22.5649206 L6.61015363,16.1077205 L5.89715365,15.5209205 L5.24853829,14.9341205 L2.85199991,12.9121204 L5.24853829,12.9121204 L5.24853829,11.4121204 L2.13899993,11.4121204 C1.74911533,11.4121204 1.49038457,11.4781204 1.29603842,11.5429204 C0.518653829,11.8693204 -4.76541883e-13,12.6517205 -4.76541883e-13,13.4989205 L-4.76541883e-13,27.6517207 C-4.76541883e-13,28.4989207 0.518653829,29.2813207 1.29603842,29.6077207 C1.49038457,29.7385207 1.74911533,29.8033207 2.13899993,29.8033207 L28.1229606,29.8033207 C28.5116529,29.8033207 28.7703837,29.7385207 28.9647298,29.6725207 C29.7421144,29.3461207 30.2607682,28.5649207 30.2607682,27.7165207 L30.2607682,13.5649205 C30.2607682,12.6517205 29.7421144,11.8693204 28.9647298,11.5429204 L28.9647298,11.5429204 Z M18.5332304,5.46504021 C18.8624771,5.46504021 19.1293842,5.73366936 19.1293842,6.06504021 C19.1293842,6.35959207 18.9184946,6.60457025 18.6403898,6.6553734 L18.5332304,6.66504021 L11.5343844,6.66504021 C11.2051377,6.66504021 10.9382305,6.39641106 10.9382305,6.06504021 C10.9382305,5.77048834 11.1491201,5.52551016 11.4272249,5.47470701 L11.5343844,5.46504021 L18.5332304,5.46504021 Z M18.5332304,8.66075993 C18.8624771,8.66075993 19.1293842,8.92938908 19.1293842,9.26075993 C19.1293842,9.55531179 18.9184946,9.80028997 18.6403898,9.85109312 L18.5332304,9.86075993 L11.5343844,9.86075993 C11.2051377,9.86075993 10.9382305,9.59213078 10.9382305,9.26075993 C10.9382305,8.96620806 11.1491201,8.72122988 11.4272249,8.67042673 L11.5343844,8.66075993 L18.5332304,8.66075993 Z M18.5332304,11.9215199 C18.8624771,11.9215199 19.1293842,12.190149 19.1293842,12.5215199 C19.1293842,12.8160717 18.9184946,13.0610499 18.6403898,13.111853 L18.5332304,13.1215199 L11.5343844,13.1215199 C11.2051377,13.1215199 10.9382305,12.8528907 10.9382305,12.5215199 C10.9382305,12.226968 11.1491201,11.9819898 11.4272249,11.9311867 L11.5343844,11.9215199 L18.5332304,11.9215199 Z" id="letter-path-1"></path>
    </defs>
    <g id="Asset-Artboard-Page" stroke="none" stroke-width="1" fill="none" fill-rule="evenodd">
        <g id="Icone/Foncé/colis-Copy-3-Icone/Up/letter" transform="translate(0.043478, 0.000000)">
            <g id="🎨-color" transform="translate(-0.000000, 0.000000)">
                <mask id="letter-mask-2" fill="white">
                    <use xlink:href="#letter-path-1"></use>
                </mask>
                <use id="Mask" fill="#F29100" xlink:href="#letter-path-1"></use>
                <g id="🎨-color-couleur/Gris-Up-foncé" mask="url(#letter-mask-2)" fill="#424C4A" fill-rule="nonzero">
                    <polygon id="Rectangle" points="0 0 31 0 31 30 0 300"></polygon>
                </g>
            </g>
        </g>
    </g>
</svg>