<?xml version="1.0" encoding="UTF-8"?>
<svg width="24px" height="24px" viewBox="0 0 24 24" version="1.1" xmlns="http://www.w3.org/2000/svg" xmlns:xlink="http://www.w3.org/1999/xlink">
    <!-- Generator: Sketch 51.3 (57544) - http://www.bohemiancoding.com/sketch -->
    <title>0: Icons / Dark / Link</title>
    <desc>Created with Sketch.</desc>
    <defs></defs>
    <g id="0:-Icons-/-Dark-/-Link" stroke="none" stroke-width="1" fill="none" fill-rule="evenodd">
        <path d="M14.4933002,9.51832359 C14.1872074,9.21300572 13.6912596,9.21300572 13.3851668,9.51832359 L9.50669982,13.3967905 C9.20060702,13.7036583 9.20060702,14.1988312 9.50669982,14.5056989 C9.81279261,14.8110168 10.3087404,14.8110168 10.6148332,14.5056989 L14.4933002,10.6272319 C14.799393,10.3203642 14.799393,9.82519131 14.4933002,9.51832359 L14.4933002,9.51832359 Z M23.0817216,2.02563689 L21.9735882,0.918278389 C20.749217,-0.306092796 18.7646508,-0.306092796 17.5410545,0.918278389 L11.9996125,6.45894547 C11.1812986,7.27725937 10.9232508,8.43266281 11.1991218,9.476478 L18.648413,2.02563689 C19.2605986,1.41422621 20.2532692,1.41422621 20.8654548,2.02563689 L21.9735882,3.13454522 C22.5857738,3.74673081 22.5857738,4.73862646 21.9735882,5.35081205 L14.523522,12.8008782 C15.5673372,13.0759743 16.7227406,12.8179264 17.5410545,11.9996125 L23.0817216,6.45894547 C24.3060928,5.2353492 24.3060928,3.25000807 23.0817216,2.02563689 L23.0817216,2.02563689 Z M5.35081205,21.9728133 C4.73862646,22.5857738 3.74595589,22.5857738 3.1337703,21.9728133 L2.0264118,20.8654548 C1.41422621,20.2532692 1.41422621,19.2605986 2.0264118,18.648413 L9.476478,11.1991218 C8.43266281,10.9232508 7.27725937,11.1820736 6.45894547,11.9996125 L0.918278389,17.5410545 C-0.306092796,18.7646508 -0.306092796,20.749217 0.918278389,21.9728133 L2.0264118,23.0817216 C3.25000807,24.3060928 5.23457428,24.3060928 6.45894547,23.0817216 L11.9996125,17.5410545 C12.8179264,16.7227406 13.0767492,15.5673372 12.8008782,14.523522 L5.35081205,21.9728133 L5.35081205,21.9728133 Z" id="Fill-101" fill="#000000"></path>
    </g>
</svg>