<?xml version="1.0" encoding="UTF-8"?>
<svg width="24px" height="24px" viewBox="0 0 24 24" version="1.1" xmlns="http://www.w3.org/2000/svg" xmlns:xlink="http://www.w3.org/1999/xlink">
    <!-- Generator: Sketch 51.3 (57544) - http://www.bohemiancoding.com/sketch -->
    <title>0: Icons / Dark / List Text</title>
    <desc>Created with Sketch.</desc>
    <defs></defs>
    <g id="0:-Icons-/-Dark-/-List-Text" stroke="none" stroke-width="1" fill="none" fill-rule="evenodd">
        <path d="M23.1428571,17.5714286 L7.71428571,17.5714286 C7.24028571,17.5714286 6.85714286,17.9554286 6.85714286,18.4285714 C6.85714286,18.9025714 7.24028571,19.2857143 7.71428571,19.2857143 L23.1428571,19.2857143 C23.6168571,19.2857143 24,18.9025714 24,18.4285714 C24,17.9554286 23.6168571,17.5714286 23.1428571,17.5714286 L23.1428571,17.5714286 Z M1.71428571,3 C0.768,3 0,3.768 0,4.71428571 C0,5.66057143 0.768,6.42857143 1.71428571,6.42857143 C2.66057143,6.42857143 3.42857143,5.66057143 3.42857143,4.71428571 C3.42857143,3.768 2.66057143,3 1.71428571,3 L1.71428571,3 Z M7.71428571,5.57142857 L23.1428571,5.57142857 C23.6168571,5.57142857 24,5.18828571 24,4.71428571 C24,4.24028571 23.6168571,3.85714286 23.1428571,3.85714286 L7.71428571,3.85714286 C7.24028571,3.85714286 6.85714286,4.24028571 6.85714286,4.71428571 C6.85714286,5.18828571 7.24028571,5.57142857 7.71428571,5.57142857 L7.71428571,5.57142857 Z M23.1428571,10.7142857 L7.71428571,10.7142857 C7.24028571,10.7142857 6.85714286,11.0982857 6.85714286,11.5714286 C6.85714286,12.0454286 7.24028571,12.4285714 7.71428571,12.4285714 L23.1428571,12.4285714 C23.6168571,12.4285714 24,12.0454286 24,11.5714286 C24,11.0982857 23.6168571,10.7142857 23.1428571,10.7142857 L23.1428571,10.7142857 Z M1.71428571,9.85714286 C0.768,9.85714286 0,10.6251429 0,11.5714286 C0,12.5177143 0.768,13.2857143 1.71428571,13.2857143 C2.66057143,13.2857143 3.42857143,12.5177143 3.42857143,11.5714286 C3.42857143,10.6251429 2.66057143,9.85714286 1.71428571,9.85714286 L1.71428571,9.85714286 Z M1.71428571,16.7142857 C0.768,16.7142857 0,17.4822857 0,18.4285714 C0,19.3748571 0.768,20.1428571 1.71428571,20.1428571 C2.66057143,20.1428571 3.42857143,19.3748571 3.42857143,18.4285714 C3.42857143,17.4822857 2.66057143,16.7142857 1.71428571,16.7142857 L1.71428571,16.7142857 Z" id="Fill-193" fill="#000000"></path>
    </g>
</svg>