<?xml version="1.0" encoding="UTF-8"?>
<svg width="24px" height="24px" viewBox="0 0 24 24" version="1.1" xmlns="http://www.w3.org/2000/svg" xmlns:xlink="http://www.w3.org/1999/xlink">
    <!-- Generator: Sketch 51.3 (57544) - http://www.bohemiancoding.com/sketch -->
    <title>0: Icons / Dark / List</title>
    <desc>Created with Sketch.</desc>
    <defs></defs>
    <g id="0:-Icons-/-Dark-/-List" stroke="none" stroke-width="1" fill="none" fill-rule="evenodd">
        <path d="M19,21 C19,21.828 18.328,22.5 17.5,22.5 L7,22.5 C6.172,22.5 5.5,21.828 5.5,21 L5.5,4.5 C5.5,3.672 6.172,3 7,3 L17.5,3 C18.328,3 19,3.672 19,4.5 L19,21 L19,21 Z M17.5,1.5 L17.5,0 L16,0 L16,1.5 L13,1.5 L13,0 L11.5,0 L11.5,1.5 L8.5,1.5 L8.5,0 L7,0 L7,1.5 C5.34325,1.5 4,2.84325 4,4.5 L4,21 C4,22.65675 5.34325,24 7,24 L17.5,24 C19.15675,24 20.5,22.65675 20.5,21 L20.5,4.5 C20.5,2.84325 19.15675,1.5 17.5,1.5 L17.5,1.5 Z M16.75,7.5 L7.75,7.5 C7.336,7.5 7,7.836 7,8.25 C7,8.66475 7.336,9 7.75,9 L16.75,9 C17.164,9 17.5,8.66475 17.5,8.25 C17.5,7.836 17.164,7.5 16.75,7.5 L16.75,7.5 Z M16.75,16.5 L7.75,16.5 C7.336,16.5 7,16.83525 7,17.25 C7,17.66475 7.336,18 7.75,18 L16.75,18 C17.164,18 17.5,17.66475 17.5,17.25 C17.5,16.83525 17.164,16.5 16.75,16.5 L16.75,16.5 Z M16.75,12 L7.75,12 C7.336,12 7,12.336 7,12.75 C7,13.16475 7.336,13.5 7.75,13.5 L16.75,13.5 C17.164,13.5 17.5,13.16475 17.5,12.75 C17.5,12.336 17.164,12 16.75,12 L16.75,12 Z" id="Fill-219" fill="#000000"></path>
    </g>
</svg>