<?xml version="1.0" encoding="UTF-8"?>
<svg width="24px" height="24px" viewBox="0 0 24 24" version="1.1" xmlns="http://www.w3.org/2000/svg" xmlns:xlink="http://www.w3.org/1999/xlink">
    <!-- Generator: Sketch 51.3 (57544) - http://www.bohemiancoding.com/sketch -->
    <title>0: Icons / Dark / Location</title>
    <desc>Created with Sketch.</desc>
    <defs></defs>
    <g id="0:-Icons-/-Dark-/-Location" stroke="none" stroke-width="1" fill="none" fill-rule="evenodd">
        <path d="M11.9999983,11.2499979 C10.7572485,11.2499979 9.74999872,10.2427481 9.74999872,8.9999983 C9.74999872,7.75724853 10.7572485,6.74999872 11.9999983,6.74999872 C13.2427481,6.74999872 14.2499979,7.75724853 14.2499979,8.9999983 C14.2499979,10.2427481 13.2427481,11.2499979 11.9999983,11.2499979 L11.9999983,11.2499979 Z M11.9999983,5.24999901 C9.92924869,5.24999901 8.24999901,6.92849869 8.24999901,8.9999983 C8.24999901,11.0714979 9.92924869,12.7499976 11.9999983,12.7499976 C14.0707479,12.7499976 15.7499976,11.0714979 15.7499976,8.9999983 C15.7499976,6.92849869 14.0707479,5.24999901 11.9999983,5.24999901 L11.9999983,5.24999901 Z M11.9999983,21.7499959 C10.7527485,21.7567459 4.49999972,12.1357477 4.49999972,8.9999983 C4.49999972,4.85849908 7.85774908,1.49999972 11.9999983,1.49999972 C16.1422475,1.49999972 19.4999969,4.85849908 19.4999969,8.9999983 C19.4999969,12.0937477 13.2277481,21.7567459 11.9999983,21.7499959 L11.9999983,21.7499959 Z M11.9999983,0 C7.02974924,0 3,4.02974924 3,8.9999983 C3,12.7634976 10.5037486,24.0082455 11.9999983,23.9999955 C13.472998,24.0082455 20.9999966,12.7124976 20.9999966,8.9999983 C20.9999966,4.02974924 16.9702474,0 11.9999983,0 L11.9999983,0 Z" id="Fill-162" fill="#000000"></path>
    </g>
</svg>