<?xml version="1.0" encoding="UTF-8"?>
<svg width="24px" height="24px" viewBox="0 0 24 24" version="1.1" xmlns="http://www.w3.org/2000/svg" xmlns:xlink="http://www.w3.org/1999/xlink">
    <!-- Generator: Sketch 51.3 (57544) - http://www.bohemiancoding.com/sketch -->
    <title>0: Icons / Dark / Lock Opened</title>
    <desc>Created with Sketch.</desc>
    <defs></defs>
    <g id="0:-Icons-/-Dark-/-Lock-Opened" stroke="none" stroke-width="1" fill="none" fill-rule="evenodd">
        <path d="M12.5,22.5 C9.1865,22.5 6.5,19.8135 6.5,16.5 C6.5,13.1865 9.1865,10.5 12.5,10.5 C15.8135,10.5 18.5,13.1865 18.5,16.5 C18.5,19.8135 15.8135,22.5 12.5,22.5 L12.5,22.5 Z M12.5,9 C10.8095,9 9.25475,9.56625 8,10.5105 L8,6 C8,3.51525 10.01525,1.5 12.5,1.5 C14.98475,1.5 17,3.51525 17,6 L18.5,6 C18.5,2.6865 15.8135,0 12.5,0 C9.1865,0 6.5,2.6865 6.5,6 L6.5,12.01425 C5.5625,13.266 5,14.8155 5,16.5 C5,20.64225 8.3585,24 12.5,24 C16.6415,24 20,20.64225 20,16.5 C20,12.3585 16.6415,9 12.5,9 L12.5,9 Z M12.5,15 C12.08525,15 11.75,15.336 11.75,15.75 L11.75,18.75 C11.75,19.16475 12.08525,19.5 12.5,19.5 C12.91475,19.5 13.25,19.16475 13.25,18.75 L13.25,15.75 C13.25,15.336 12.91475,15 12.5,15 L12.5,15 Z" id="Fill-175" fill="#000000"></path>
    </g>
</svg>