<?xml version="1.0" encoding="UTF-8"?>
<svg width="28px" height="29px" viewBox="0 0 28 29" version="1.1" xmlns="http://www.w3.org/2000/svg" xmlns:xlink="http://www.w3.org/1999/xlink">
    <!-- Generator: Sketch 57.1 (83088) - https://sketch.com -->
    <title>Icone/Foncé/magasin</title>
    <desc>Created with Sketch.</desc>
    <defs>
        <path d="M26.07325,10.3005544 C26.07325,10.6671472 25.881625,11.0083065 25.51675,11.2871976 C25.122125,11.5880141 24.567375,11.7616633 23.996,11.7616633 C23.4255,11.7616633 22.869875,11.5880141 22.476125,11.2871976 C22.112125,11.0083065 21.917875,10.6671472 21.917875,10.3005544 L21.917875,7.59583669 L26.07325,7.59583669 L26.07325,10.3005544 Z M24.770375,27.4418347 L18.006625,27.4418347 L18.006625,18.9909073 C18.006625,18.756744 17.75725,18.4594355 17.47725,18.4594355 L9.65475,18.4594355 C9.37475,18.4594355 9.1245,18.756744 9.1245,18.9909073 L9.1245,27.4418347 L2.3625,27.4418347 L2.3625,12.7614617 L2.50425,12.7842641 C2.715125,12.8184677 2.94175,12.8228528 3.136875,12.8228528 C3.94275,12.8228528 4.711875,12.5737802 5.303375,12.122994 C5.425875,12.0291532 5.541375,11.9239113 5.65425,11.800252 L5.744375,11.7029032 L5.833625,11.800252 C5.9465,11.9239113 6.061125,12.0291532 6.1845,12.122994 C6.776,12.5737802 7.54425,12.8228528 8.351,12.8228528 C9.158625,12.8228528 9.926875,12.5737802 10.518375,12.122994 C10.640875,12.0291532 10.756375,11.9239113 10.868375,11.800252 L10.959375,11.7029032 L11.048625,11.800252 C11.1615,11.9239113 11.277,12.0291532 11.3995,12.122994 C11.991,12.5737802 12.760125,12.8228528 13.566,12.8228528 C14.371875,12.8228528 15.14275,12.5737802 15.7325,12.122994 C15.85675,12.0291532 15.9705,11.9239113 16.083375,11.800252 L16.174375,11.7029032 L16.263625,11.800252 C16.377375,11.9239113 16.49025,12.0291532 16.6145,12.122994 C17.205125,12.5737802 17.975125,12.8228528 18.781,12.8228528 C19.58775,12.8228528 20.356,12.5737802 20.9475,12.122994 C21.070875,12.0291532 21.1855,11.9239113 21.298375,11.800252 L21.3885,11.7029032 L21.47775,11.800252 C21.590625,11.9239113 21.706125,12.0291532 21.828625,12.122994 C22.420125,12.5737802 23.190125,12.8228528 23.996,12.8228528 C24.19025,12.8228528 24.416875,12.8184677 24.62775,12.7842641 L24.770375,12.7614617 L24.770375,27.4418347 Z M14.095375,27.4418347 L16.947,27.4418347 L16.947,19.521502 L14.095375,19.521502 L14.095375,27.4418347 Z M10.185,27.4418347 L13.036625,27.4418347 L13.036625,19.521502 L10.185,19.521502 L10.185,27.4418347 Z M1.616125,11.2871976 C1.250375,11.0083065 1.05875,10.6671472 1.05875,10.3005544 L1.05875,7.59583669 L5.214125,7.59583669 L5.214125,10.3005544 C5.214125,10.6671472 5.021625,11.0083065 4.65675,11.2871976 C4.262125,11.5880141 3.70825,11.7616633 3.136875,11.7616633 C2.564625,11.7616633 2.01075,11.5880141 1.616125,11.2871976 L1.616125,11.2871976 Z M5.046125,1.06206653 L7.368375,1.06206653 L5.247375,6.53464718 L1.505875,6.53464718 L5.046125,1.06206653 Z M10.429125,7.59583669 L10.429125,10.3005544 C10.429125,10.6671472 10.236625,11.0083065 9.870875,11.2871976 C9.477125,11.5880141 8.92325,11.7616633 8.351,11.7616633 C7.779625,11.7616633 7.22575,11.5880141 6.83025,11.2871976 C6.46625,11.0083065 6.27375,10.6671472 6.27375,10.3005544 L6.27375,7.59583669 L10.429125,7.59583669 Z M11.367125,1.06206653 L10.451,6.53464718 L6.400625,6.53464718 L8.5225,1.06206653 L11.367125,1.06206653 Z M11.48875,7.59583669 L15.644125,7.59583669 L15.644125,10.3005544 C15.644125,10.6671472 15.45075,11.0083065 15.085875,11.2871976 C14.69125,11.5880141 14.137375,11.7616633 13.566,11.7616633 C12.994625,11.7616633 12.44075,11.5880141 12.04525,11.2871976 C11.68125,11.0083065 11.48875,10.6671472 11.48875,10.3005544 L11.48875,7.59583669 Z M12.43375,1.06206653 L14.699125,1.06206653 L15.60475,6.53464718 L11.52725,6.53464718 L12.43375,1.06206653 Z M20.85825,7.59583669 L20.85825,10.3005544 C20.85825,10.6671472 20.66575,11.0083065 20.30175,11.2871976 C19.90625,11.5880141 19.352375,11.7616633 18.781,11.7616633 C18.209625,11.7616633 17.65575,11.5880141 17.261125,11.2871976 C16.89625,11.0083065 16.702875,10.6671472 16.702875,10.3005544 L16.702875,7.59583669 L20.85825,7.59583669 Z M18.610375,1.06206653 L20.731375,6.53464718 L16.681875,6.53464718 L15.764875,1.06206653 L18.610375,1.06206653 Z M22.085875,1.06206653 L25.626125,6.53464718 L21.884625,6.53464718 L19.763625,1.06206653 L22.085875,1.06206653 Z M27.010375,6.71355847 L22.813875,0.241179435 C22.7045,0.0719153226 22.570625,0 22.36675,0 L4.766125,0 C4.564875,0 4.396,0.121905242 4.318125,0.241179435 L0.1225,6.71355847 C0.037625,6.84511089 0,6.95298387 0,7.06611895 L0,10.3005544 C0,10.9881351 0.35175,11.6520363 0.9695,12.122994 C1.057,12.1896472 1.14975,12.2519153 1.24425,12.3106754 L1.302875,12.3466331 L1.302875,27.9733065 C1.302875,28.2443044 1.560125,28.5030242 1.83225,28.5030242 L25.298875,28.5030242 C25.571875,28.5030242 25.829125,28.2443044 25.829125,27.9733065 L25.829125,12.3466331 L25.88775,12.3106754 C25.98225,12.2519153 26.075,12.1896472 26.163375,12.122994 C26.779375,11.6520363 27.132875,10.9881351 27.132875,10.3005544 L27.132875,7.06611895 C27.111,6.9275504 27.09875,6.85037298 27.010375,6.71355847 L27.010375,6.71355847 Z" id="path-1"></path>
    </defs>
    <g id="Symbols" stroke="none" stroke-width="1" fill="none" fill-rule="evenodd">
        <g id="Icone/Foncé/magasin">
            <g>
                <mask id="mask-2" fill="white">
                    <use xlink:href="#path-1"></use>
                </mask>
                <g></g>
                <g id="couleur/Gris-Up" mask="url(#mask-2)" fill="#4E5B59" fill-rule="nonzero">
                    <g transform="translate(-1.000000, -1.000000)" id="Rectangle">
                        <polygon points="0 0 30 0 30 30 0 30"></polygon>
                    </g>
                </g>
            </g>
        </g>
    </g>
</svg>