<?xml version="1.0" encoding="UTF-8"?>
<svg width="24px" height="24px" viewBox="0 0 24 24" version="1.1" xmlns="http://www.w3.org/2000/svg" xmlns:xlink="http://www.w3.org/1999/xlink">
    <!-- Generator: Sketch 51.3 (57544) - http://www.bohemiancoding.com/sketch -->
    <title>0: Icons / Dark / Magnify</title>
    <desc>Created with Sketch.</desc>
    <defs></defs>
    <g id="0:-Icons-/-Dark-/-Magnify" stroke="none" stroke-width="1" fill="none" fill-rule="evenodd">
        <path d="M10.0976033,18.3422289 C5.37888674,18.3422289 1.55365055,14.5837599 1.55365055,9.94006267 C1.55365055,5.29636547 5.37888674,1.53039455 10.0976033,1.53039455 C14.8163198,1.53039455 18.6423062,5.29636547 18.6423062,9.94006267 C18.6423062,14.5837599 14.8163198,18.3422289 10.0976033,18.3422289 L10.0976033,18.3422289 Z M23.7721288,22.6933506 L17.5762814,16.5942782 C19.1981995,14.8313237 20.1952066,12.5057241 20.1952066,9.94006267 C20.1952066,4.44864692 15.6745411,0 10.0976033,0 C4.52066548,0 0,4.44864692 0,9.94006267 C0,15.4239765 4.52066548,19.8726234 10.0976033,19.8726234 C12.5072245,19.8726234 14.7172943,19.0399087 16.4532419,17.6520509 L22.6738456,23.7736291 C22.9776739,24.0737065 23.4690506,24.0737065 23.7721288,23.7736291 C24.0759571,23.4810537 24.0759571,22.993428 23.7721288,22.6933506 L23.7721288,22.6933506 Z" id="Fill-19" fill="#ADADAD"></path>
    </g>
</svg>