<?xml version="1.0" encoding="UTF-8"?>
<svg width="24px" height="24px" viewBox="0 0 24 24" version="1.1" xmlns="http://www.w3.org/2000/svg" xmlns:xlink="http://www.w3.org/1999/xlink">
    <!-- Generator: Sketch 51.3 (57544) - http://www.bohemiancoding.com/sketch -->
    <title>0: Icons / Dark / Mail</title>
    <desc>Created with Sketch.</desc>
    <defs></defs>
    <g id="0:-Icons-/-Dark-/-Mail" stroke="none" stroke-width="1" fill="none" fill-rule="evenodd">
        <path d="M22.5,18 C22.5,18.15225 22.47075,18.29625 22.42875,18.4335 L15.75,11.25 L22.5,6 L22.5,18 L22.5,18 Z M2.667,19.4595 L9.435,12.2475 L12,14.18625 L14.454,12.2355 L21.333,19.4595 C21.22575,19.48425 2.77425,19.48425 2.667,19.4595 L2.667,19.4595 Z M1.5,18 L1.5,6 L8.25,11.25 L1.57125,18.4335 C1.52925,18.29625 1.5,18.15225 1.5,18 L1.5,18 Z M21.75,4.5 L12,12 L2.25,4.5 L21.75,4.5 L21.75,4.5 Z M21,3 L3,3 C1.34325,3 0,4.34325 0,6 L0,18 C0,19.65675 1.34325,21 3,21 L21,21 C22.65675,21 24,19.65675 24,18 L24,6 C24,4.34325 22.65675,3 21,3 L21,3 Z" id="Fill-186" fill="#000000"></path>
    </g>
</svg>