<?xml version="1.0" encoding="UTF-8"?>
<svg width="24px" height="24px" viewBox="0 0 24 24" version="1.1" xmlns="http://www.w3.org/2000/svg" xmlns:xlink="http://www.w3.org/1999/xlink">
    <!-- Generator: Sketch 51.3 (57544) - http://www.bohemiancoding.com/sketch -->
    <title>0: Icons / Dark / Map</title>
    <desc>Created with Sketch.</desc>
    <defs></defs>
    <g id="0:-Icons-/-Dark-/-Map" stroke="none" stroke-width="1" fill="none" fill-rule="evenodd">
        <path d="M18,12.75 C18,13.16475 18.336,13.5 18.75,13.5 C19.164,13.5 19.5,13.16475 19.5,12.75 L19.5,6.75 C19.5,6.336 19.164,6 18.75,6 C18.336,6 18,6.336 18,6.75 L18,12.75 L18,12.75 Z M22.5,19.875 L18,16.5 L12,21 L6,18.75 L1.5,21.5625 L1.5,6.5625 L6,3.75 L12,6 L18,1.5 L22.5,4.875 L22.5,19.875 L22.5,19.875 Z M18,0 L12,4.5 L6,2.25 L0,6 L0,24 L6,20.25 L12,22.5 L18,18 L24,22.5 L24,4.5 L18,0 L18,0 Z M12.75,9.75 C12.336,9.75 12,10.086 12,10.5 L12,15 C12,15.41475 12.336,15.75 12.75,15.75 C13.164,15.75 13.5,15.41475 13.5,15 L13.5,10.5 C13.5,10.086 13.164,9.75 12.75,9.75 L12.75,9.75 Z M6.75,7.5 C6.336,7.5 6,7.836 6,8.25 L6,15.75 C6,16.16475 6.336,16.5 6.75,16.5 C7.164,16.5 7.5,16.16475 7.5,15.75 L7.5,8.25 C7.5,7.836 7.164,7.5 6.75,7.5 L6.75,7.5 Z" id="Fill-160" fill="#000000"></path>
    </g>
</svg>