<?xml version="1.0" encoding="UTF-8"?>
<svg width="24px" height="24px" viewBox="0 0 24 24" version="1.1" xmlns="http://www.w3.org/2000/svg" xmlns:xlink="http://www.w3.org/1999/xlink">
    <!-- Generator: Sketch 51.3 (57544) - http://www.bohemiancoding.com/sketch -->
    <title>0: Icons / Dark / Meal</title>
    <desc>Created with Sketch.</desc>
    <defs></defs>
    <g id="0:-Icons-/-Dark-/-Meal" stroke="none" stroke-width="1" fill="none" fill-rule="evenodd">
        <path d="M1.5,17 C1.5,11.201 6.201,6.5 12,6.5 C17.799,6.5 22.5,11.201 22.5,17 L1.5,17 L1.5,17 Z M12.75,5 L12.75,3.5 L14.25,3.5 C14.66475,3.5 15,3.16475 15,2.75 C15,2.336 14.66475,2 14.25,2 L9.75,2 C9.33525,2 9,2.336 9,2.75 C9,3.16475 9.33525,3.5 9.75,3.5 L11.25,3.5 C11.25,3.5 11.24475,5.0615 11.25,5 C4.974,5.38925 0,10.62575 0,17 L0,17.75 C0,18.16475 0.33525,18.5 0.75,18.5 L23.25,18.5 C23.66475,18.5 24,18.16475 24,17.75 L24,17 C24,10.62575 19.026,5.38925 12.75,5 L12.75,5 Z M23.25,20 L0.75,20 C0.33525,20 0,20.336 0,20.75 C0,21.16475 0.33525,21.5 0.75,21.5 L23.25,21.5 C23.66475,21.5 24,21.16475 24,20.75 C24,20.336 23.66475,20 23.25,20 L23.25,20 Z" id="Fill-155" fill="#000000"></path>
    </g>
</svg>