<?xml version="1.0" encoding="iso-8859-1"?>
<!-- Generator: Adobe Illustrator 19.0.0, SVG Export Plug-In . SVG Version: 6.00 Build 0)  -->
<svg version="1.1" id="Layer_1" xmlns="http://www.w3.org/2000/svg" xmlns:xlink="http://www.w3.org/1999/xlink" x="0px" y="0px"
	 viewBox="0 0 202.621 202.621" style="enable-background:new 0 0 202.621 202.621;" xml:space="preserve">
<g>
	<g>
		<g>
			<path d="M15.573,54.552h171.475c8.586,0,15.573-6.992,15.573-15.586s-6.987-15.586-15.573-15.586H15.573
				C6.987,23.379,0,30.371,0,38.966C0,47.561,6.987,54.552,15.573,54.552z M15.573,31.172h171.475c4.29,0,7.78,3.495,7.78,7.793
				c0,4.298-3.489,7.793-7.78,7.793H15.573c-4.29,0-7.78-3.495-7.78-7.793C7.793,34.667,11.282,31.172,15.573,31.172z"/>
			<path d="M187.048,85.724H15.573C6.987,85.724,0,92.716,0,101.31s6.987,15.586,15.573,15.586h171.475
				c8.586,0,15.573-6.992,15.573-15.586S195.634,85.724,187.048,85.724z M187.048,109.103H15.573c-4.29,0-7.78-3.495-7.78-7.793
				s3.489-7.793,7.78-7.793h171.475c4.29,0,7.78,3.495,7.78,7.793S191.338,109.103,187.048,109.103z"/>
			<path d="M187.048,148.069H15.573C6.987,148.069,0,155.061,0,163.655s6.987,15.586,15.573,15.586h171.475
				c8.586,0,15.573-6.992,15.573-15.586S195.634,148.069,187.048,148.069z M187.048,171.448H15.573c-4.29,0-7.78-3.495-7.78-7.793
				c0-4.298,3.489-7.793,7.78-7.793h171.475c4.29,0,7.78,3.495,7.78,7.793C194.828,167.953,191.338,171.448,187.048,171.448z"/>
		</g>
	</g>
</g>
<g>
</g>
<g>
</g>
<g>
</g>
<g>
</g>
<g>
</g>
<g>
</g>
<g>
</g>
<g>
</g>
<g>
</g>
<g>
</g>
<g>
</g>
<g>
</g>
<g>
</g>
<g>
</g>
<g>
</g>
</svg>
