<?xml version="1.0" encoding="UTF-8"?>
<svg width="24px" height="24px" viewBox="0 0 24 24" version="1.1" xmlns="http://www.w3.org/2000/svg" xmlns:xlink="http://www.w3.org/1999/xlink">
    <!-- Generator: Sketch 51.3 (57544) - http://www.bohemiancoding.com/sketch -->
    <title>0: Icons / Dark / Microphone On</title>
    <desc>Created with Sketch.</desc>
    <defs></defs>
    <g id="0:-Icons-/-Dark-/-Microphone-On" stroke="none" stroke-width="1" fill="none" fill-rule="evenodd">
        <path d="M8.5,5.25 C8.5,3.1785 10.17925,1.5 12.25,1.5 C14.32075,1.5 16,3.1785 16,5.25 L16,12.75 C16,14.8215 14.32075,16.5 12.25,16.5 C10.17925,16.5 8.5,14.8215 8.5,12.75 L8.5,5.25 L8.5,5.25 Z M12.25,18 C15.1495,18 17.5,15.6495 17.5,12.75 L17.5,5.25 C17.5,2.3505 15.1495,0 12.25,0 C9.3505,0 7,2.3505 7,5.25 L7,12.75 C7,15.6495 9.3505,18 12.25,18 L12.25,18 Z M20.5,14.25 L19,14.25 C18.31675,17.25525 15.4615,19.5 12.25,19.5 C9.0385,19.5 6.18325,17.25525 5.5,14.25 L4,14.25 C4.66225,17.84925 7.79725,20.6325 11.5,20.96625 L11.5,22.5 L10.75,22.5 C10.336,22.5 10,22.836 10,23.25 C10,23.66475 10.336,24 10.75,24 L13.75,24 C14.164,24 14.5,23.66475 14.5,23.25 C14.5,22.836 14.164,22.5 13.75,22.5 L13,22.5 L13,20.96625 C16.70275,20.6325 19.83775,17.84925 20.5,14.25 L20.5,14.25 Z" id="Fill-182" fill="#000000"></path>
    </g>
</svg>