<?xml version="1.0" encoding="UTF-8"?>
<svg width="24px" height="24px" viewBox="0 0 24 24" version="1.1" xmlns="http://www.w3.org/2000/svg" xmlns:xlink="http://www.w3.org/1999/xlink">
    <!-- Generator: Sketch 51.3 (57544) - http://www.bohemiancoding.com/sketch -->
    <title>0: Icons / Dark / Microphone Off</title>
    <desc>Created with Sketch.</desc>
    <defs></defs>
    <g id="0:-Icons-/-Dark-/-Microphone-Off" stroke="none" stroke-width="1" fill="none" fill-rule="evenodd">
        <path d="M12.7575,19.5 C11.30325,19.5 9.9345,19.0215 8.7945,18.2385 L7.74,19.3065 C8.9655,20.21475 10.4265,20.82375 12.0075,20.96625 L12.0075,22.5 L11.2575,22.5 C10.8435,22.5 10.5075,22.836 10.5075,23.25 C10.5075,23.66475 10.8435,24 11.2575,24 L14.2575,24 C14.6715,24 15.0075,23.66475 15.0075,23.25 C15.0075,22.836 14.6715,22.5 14.2575,22.5 L13.5075,22.5 L13.5075,20.96625 C17.211,20.6325 20.34525,17.84925 21.0075,14.25 L19.5075,14.25 C18.82425,17.25525 15.969,19.5 12.7575,19.5 L12.7575,19.5 Z M12.7575,16.5 C12.1095,16.5 11.508,16.32075 10.97625,16.03125 L9.8835,17.1375 C10.71,17.679 11.69475,18 12.7575,18 C15.657,18 18.0075,15.6495 18.0075,12.75 L18.0075,8.91525 L16.5075,10.43325 L16.5075,12.75 C16.5075,14.8215 14.82825,16.5 12.7575,16.5 L12.7575,16.5 Z M9.0075,5.25 C9.0075,3.1785 10.68675,1.5 12.7575,1.5 C14.388,1.5 15.76125,2.547 16.278,4.0005 L17.406,2.859 C16.53375,1.1685 14.79075,0 12.7575,0 C9.858,0 7.5075,2.3505 7.5075,5.25 L7.5075,12.75 C7.5075,12.78975 9.0075,11.35875 9.0075,11.35875 L9.0075,5.25 L9.0075,5.25 Z M20.69025,2.25975 L3,19.19775 L4.071,20.25375 L21.768,3.32475 L20.69025,2.25975 L20.69025,2.25975 Z M6.04275,14.35875 C6.03375,14.32125 6.01575,14.2875 6.0075,14.25 L4.5075,14.25 C4.58925,14.697 4.71075,15.13125 4.866,15.54975 L6.04275,14.35875 L6.04275,14.35875 Z" id="Fill-181" fill="#000000"></path>
    </g>
</svg>