<svg xmlns="http://www.w3.org/2000/svg" xmlns:xlink="http://www.w3.org/1999/xlink" viewBox="0 0 24 25" version="1.1">
    <!-- Generator: Sketch 54 (76480) - https://sketchapp.com -->
    <title>Icone/Foncé/mobilup</title>
    <desc>Created with Sketch.</desc>
    <g id="Page-2" stroke="none" stroke-width="1" fill-rule="evenodd">
        <g id="comportement--" transform="translate(-108.000000, -474.000000)">
            <g id="Icone/Foncé/mobilup" transform="translate(108.000000, 474.000000)">
                <g id="Plan-de-travail-2">
                    <path d="M12,24.74 L3,24.74 C1.4536027,24.74 0.2,23.4863973 0.2,21.94 L0.2,2.94 C0.2,1.3936027 1.4536027,0.14 3,0.14 L12,0.14 C12.7426062,0.14 13.4547971,0.434999153 13.979899,0.960101013 C14.5050008,1.48520287 14.8,2.19739383 14.8,2.94 L14.8,21.94 C14.7945146,23.4841195 13.5441195,24.7345146 12,24.74 L12,24.74 Z M3,1.74 C2.3372583,1.74 1.8,2.2772583 1.8,2.94 L1.8,21.94 C1.8,22.6027417 2.3372583,23.14 3,23.14 L12,23.14 C12.6627417,23.14 13.2,22.6027417 13.2,21.94 L13.2,2.94 C13.2,2.2772583 12.6627417,1.74 12,1.74 L3,1.74 Z" id="Shape" fill-rule="nonzero"/>
                    <path d="M3.17,13.7461286 L3.41427481,12.9338454 L4.58984733,12.9338454 C4.58984733,12.7713887 4.58984733,12.6089321 4.58984733,12.4464755 C4.58222677,12.3038057 4.58222677,12.1608504 4.58984733,12.0181807 L3.17,12.0181807 L3.41427481,11.1911287 L4.68145038,11.1911287 C4.7976105,10.5418991 5.05239315,9.92322069 5.42954198,9.37456811 C5.9894415,8.51925906 6.9631535,8.0009213 8.00969466,8.00107107 C8.82786981,7.96163655 9.62196133,8.27539562 10.1776336,8.85766062 C10.6754495,9.38783296 10.9763033,10.0634443 11.0325954,10.7776027 L10.0554962,10.7776027 C9.97530663,10.2877932 9.74069773,9.83389278 9.38374046,9.4779496 C9.0093419,9.14923935 8.51457293,8.97906425 8.00969466,9.00534847 C7.30309565,8.99471496 6.63804716,9.32747613 6.23870229,9.89147559 C5.97652703,10.2646303 5.7995689,10.687549 5.71961832,11.1320536 L9.06312977,11.1320536 L8.80358779,11.9591055 L5.61274809,11.9591055 C5.61274809,12.1510998 5.61274809,12.3578627 5.61274809,12.5793945 L5.61274809,12.8747702 L9.06312977,12.8747702 L8.80358779,13.6870534 L5.75015267,13.6870534 C5.82674711,14.1530711 5.99797933,14.5998037 6.25396947,15.0014753 C6.63706742,15.6015185 7.32734752,15.9523682 8.05549618,15.91714 C8.76291107,15.9332253 9.41665627,15.553783 9.7348855,14.9424002 C9.96250295,14.5216562 10.1172291,14.0676415 10.1929008,13.5984407 L11.17,13.5984407 C11.1075978,14.4117865 10.8056059,15.1908092 10.299771,15.8432961 C9.73877014,16.6015801 8.82009474,17.0348144 7.8570229,16.9952613 C7.03958208,17.0052229 6.25653746,16.6775178 5.70435115,16.0943654 C5.10970434,15.4363981 4.74152797,14.6156876 4.65091603,13.7461286 L3.17,13.7461286 Z" id="Path" fill-rule="nonzero"/>
                    <rect id="Rectangle" fill-rule="nonzero" x="2.63" y="0.94" width="9.8" height="2" rx="1"/>
                    <path d="M18.4,17.94 C18.2864879,17.9437673 18.1757494,17.904473 18.09,17.83 C17.9855162,17.7458318 17.919243,17.6232034 17.906079,17.4896824 C17.8929149,17.3561613 17.9339647,17.2229518 18.02,17.12 C20.0256637,14.7065501 20.0172436,11.2037794 18,8.8 C17.914499,8.69870321 17.8736866,8.56708719 17.8868766,8.43518766 C17.9000665,8.30328812 17.9661333,8.18236002 18.07,8.1 C18.1700193,8.01335928 18.3008287,7.97085504 18.4326723,7.98215592 C18.564516,7.99345681 18.6861841,8.05760198 18.77,8.16 C21.0902783,10.9393991 21.0902783,14.9806009 18.77,17.76 C18.6782134,17.8703181 18.5434499,17.9358787 18.4,17.94 Z" id="Path" fill-rule="nonzero"/>
                    <path d="M20.66,20.17 C20.5397033,20.16788 20.42356,20.1256461 20.33,20.05 C20.1382167,19.8521863 20.1382167,19.5378137 20.33,19.34 C23.5490401,15.6804946 23.5490401,10.1995054 20.33,6.54 C20.1382167,6.34218632 20.1382167,6.02781368 20.33,5.83 C20.5278137,5.63821671 20.8421863,5.63821671 21.04,5.83 C24.6086965,9.88504032 24.5915331,15.965172 21,20 C20.9121827,20.097545 20.7907264,20.1582732 20.66,20.17 Z" id="Path" fill-rule="nonzero"/>
                    <path d="M16.14,15.65 C16.0365321,15.6495201 15.9355598,15.6181838 15.85,15.56 C15.7407762,15.4834629 15.6666571,15.3664608 15.6441223,15.2350076 C15.6215875,15.1035544 15.6525047,14.9685461 15.73,14.86 C16.5513969,13.711776 16.5513969,12.168224 15.73,11.02 C15.6525047,10.9114539 15.6215875,10.7764456 15.6441223,10.6449924 C15.6666571,10.5135392 15.7407762,10.3965371 15.85,10.32 C16.0774233,10.1642674 16.3874317,10.2174117 16.55,10.44 C17.6094955,11.938287 17.6094955,13.941713 16.55,15.44 C16.4568079,15.5738815 16.3031019,15.652609 16.14,15.65 Z" id="Path" fill-rule="nonzero"/>
                </g>
            </g>
        </g>
    </g>
</svg>