<?xml version="1.0" encoding="UTF-8"?>
<svg width="24px" height="24px" viewBox="0 0 24 24" version="1.1" xmlns="http://www.w3.org/2000/svg" xmlns:xlink="http://www.w3.org/1999/xlink">
    <!-- Generator: Sketch 51.3 (57544) - http://www.bohemiancoding.com/sketch -->
    <title>0: Icons / Dark / Moon</title>
    <desc>Created with Sketch.</desc>
    <defs></defs>
    <g id="0:-Icons-/-Dark-/-Moon" stroke="none" stroke-width="1" fill="none" fill-rule="evenodd">
        <path d="M10.6725,22.5 C6.96525,22.23075 1.53525,17.799 1.53525,12 C1.53525,6.20175 6.849,1.8255 10.6725,1.5 C11.823,1.4025 11.21475,1.40625 12.279,1.5 C9.77625,3.078 6.912,7.4715 6.912,12 C6.912,16.5285 8.9955,20.71425 12.279,22.5 C11.268,22.59375 11.7735,22.5795 10.6725,22.5 L10.6725,22.5 Z M8.442,12 C8.442,6.825 11.80125,2.427 16.5,0.74325 C15.18225,0.27075 13.76475,0 12.279,0 C5.4975,0 0,5.373 0,12 C0,18.62775 5.4975,24 12.279,24 C13.76475,24 15.18225,23.72925 16.5,23.25675 C11.80125,21.573 8.442,17.17575 8.442,12 L8.442,12 Z" id="Fill-73" fill="#000000"></path>
    </g>
</svg>