<?xml version="1.0" encoding="UTF-8"?>
<svg width="24px" height="24px" viewBox="0 0 24 24" version="1.1" xmlns="http://www.w3.org/2000/svg" xmlns:xlink="http://www.w3.org/1999/xlink">
    <!-- Generator: Sketch 51.3 (57544) - http://www.bohemiancoding.com/sketch -->
    <title>0: Icons / Dark / More</title>
    <desc>Created with Sketch.</desc>
    <defs></defs>
    <g id="0:-Icons-/-Dark-/-More" stroke="none" stroke-width="1" fill="none" fill-rule="evenodd">
        <path d="M6.5,19 C5.67157288,19 5,18.3284271 5,17.5 C5,16.6715729 5.67157288,16 6.5,16 C7.32842712,16 8,16.6715729 8,17.5 C8,18.3284271 7.32842712,19 6.5,19 Z M12.5,19 C11.6715729,19 11,18.3284271 11,17.5 C11,16.6715729 11.6715729,16 12.5,16 C13.3284271,16 14,16.6715729 14,17.5 C14,18.3284271 13.3284271,19 12.5,19 Z M18.5,19 C17.6715729,19 17,18.3284271 17,17.5 C17,16.6715729 17.6715729,16 18.5,16 C19.3284271,16 20,16.6715729 20,17.5 C20,18.3284271 19.3284271,19 18.5,19 Z" id="Combined-Shape" fill="#000000"></path>
    </g>
</svg>