<?xml version="1.0" encoding="UTF-8"?>
<svg width="24px" height="24px" viewBox="0 0 24 24" version="1.1" xmlns="http://www.w3.org/2000/svg" xmlns:xlink="http://www.w3.org/1999/xlink">
    <!-- Generator: Sketch 51.3 (57544) - http://www.bohemiancoding.com/sketch -->
    <title>0: Icons / Dark / Move To Right</title>
    <desc>Created with Sketch.</desc>
    <defs></defs>
    <g id="0:-Icons-/-Dark-/-Move-To-Right" stroke="none" stroke-width="1" fill="none" fill-rule="evenodd">
        <path d="M21.125,2 L6.75,2 C5.16228125,2 3.875,3.28728125 3.875,4.875 L3.875,7.75 L5.3125,7.75 L5.3125,4.875 C5.3125,4.0815 5.9565,3.4375 6.75,3.4375 L21.125,3.4375 C21.9185,3.4375 22.5625,4.0815 22.5625,4.875 L22.5625,19.25 C22.5625,20.0435 21.9185,20.6875 21.125,20.6875 L6.75,20.6875 C5.9565,20.6875 5.3125,20.0435 5.3125,19.25 L5.3125,16.375 L3.875,16.375 L3.875,19.25 C3.875,20.8377188 5.16228125,22.125 6.75,22.125 L21.125,22.125 C22.7127188,22.125 24,20.8377188 24,19.25 L24,4.875 C24,3.28728125 22.7127188,2 21.125,2 L21.125,2 Z M13.4652813,16.5496562 C13.1849688,16.8299687 13.1849688,17.2856562 13.4652813,17.5659687 C13.7455938,17.847 14.2012813,17.847 14.4823125,17.5659687 L19.4409687,12.6073125 C19.5904688,12.4570937 19.6544375,12.258 19.644375,12.0625 C19.6544375,11.867 19.5904688,11.6679062 19.4409687,11.5184062 L14.4823125,6.55975 C14.2012813,6.27871875 13.7455938,6.27871875 13.4652813,6.55975 C13.1849688,6.83934375 13.1849688,7.29503125 13.4652813,7.5760625 L17.2336875,11.34375 L1.71875,11.34375 C1.32128125,11.34375 1,11.66575 1,12.0625 C1,12.4599687 1.32128125,12.78125 1.71875,12.78125 L17.2336875,12.78125 L13.4652813,16.5496562 L13.4652813,16.5496562 Z" id="Fill-57" fill="#000000"></path>
    </g>
</svg>