<?xml version="1.0" encoding="UTF-8"?>
<svg width="24px" height="24px" viewBox="0 0 24 24" version="1.1" xmlns="http://www.w3.org/2000/svg" xmlns:xlink="http://www.w3.org/1999/xlink">
    <!-- Generator: Sketch 51.3 (57544) - http://www.bohemiancoding.com/sketch -->
    <title>0: Icons / Dark / Move To Left</title>
    <desc>Created with Sketch.</desc>
    <defs></defs>
    <g id="0:-Icons-/-Dark-/-Move-To-Left" stroke="none" stroke-width="1" fill="none" fill-rule="evenodd">
        <path d="M18.6875,19.25 C18.6875,20.0435 18.0435,20.6875 17.25,20.6875 L2.875,20.6875 C2.0815,20.6875 1.4375,20.0435 1.4375,19.25 L1.4375,4.875 C1.4375,4.0815 2.0815,3.4375 2.875,3.4375 L17.25,3.4375 C18.0435,3.4375 18.6875,4.0815 18.6875,4.875 L18.6875,7.03125 L20.125,7.03125 L20.125,4.875 C20.125,3.28728125 18.8377188,2 17.25,2 L2.875,2 C1.28728125,2 0,3.28728125 0,4.875 L0,19.25 C0,20.8377188 1.28728125,22.125 2.875,22.125 L17.25,22.125 C18.8377188,22.125 20.125,20.8377188 20.125,19.25 L20.125,17.09375 L18.6875,17.09375 L18.6875,19.25 L18.6875,19.25 Z M22.28125,11.34375 L6.7663125,11.34375 L10.5347187,7.57534375 C10.81575,7.29503125 10.81575,6.83934375 10.5347187,6.55903125 C10.2544062,6.278 9.79871875,6.278 9.5176875,6.55903125 L4.55903125,11.5176875 C4.40953125,11.6679062 4.3455625,11.867 4.355625,12.0625 C4.3455625,12.258 4.40953125,12.4570937 4.55903125,12.6073125 L9.5176875,17.5659687 C9.79871875,17.847 10.2544062,17.847 10.5347187,17.5659687 C10.81575,17.2856562 10.81575,16.8299687 10.5347187,16.5489375 L6.7663125,12.78125 L22.28125,12.78125 C22.6787187,12.78125 23,12.4599687 23,12.0625 C23,11.66575 22.6787187,11.34375 22.28125,11.34375 L22.28125,11.34375 Z" id="Fill-56" fill="#000000"></path>
    </g>
</svg>