<?xml version="1.0" encoding="UTF-8"?>
<svg width="24px" height="24px" viewBox="0 0 24 24" version="1.1" xmlns="http://www.w3.org/2000/svg" xmlns:xlink="http://www.w3.org/1999/xlink">
    <!-- Generator: Sketch 51.3 (57544) - http://www.bohemiancoding.com/sketch -->
    <title>0: Icons / Dark / Move To Bottom</title>
    <desc>Created with Sketch.</desc>
    <defs></defs>
    <g id="0:-Icons-/-Dark-/-Move-To-Bottom" stroke="none" stroke-width="1" fill="none" fill-rule="evenodd">
        <path d="M19.25,3.875 L17.09375,3.875 L17.09375,5.3125 L19.25,5.3125 C20.0435,5.3125 20.6875,5.9565 20.6875,6.75 L20.6875,21.125 C20.6875,21.9185 20.0435,22.5625 19.25,22.5625 L4.875,22.5625 C4.0815,22.5625 3.4375,21.9185 3.4375,21.125 L3.4375,6.75 C3.4375,5.9565 4.0815,5.3125 4.875,5.3125 L7.03125,5.3125 L7.03125,3.875 L4.875,3.875 C3.28728125,3.875 2,5.16228125 2,6.75 L2,21.125 C2,22.7127188 3.28728125,24 4.875,24 L19.25,24 C20.8377188,24 22.125,22.7127188 22.125,21.125 L22.125,6.75 C22.125,5.16228125 20.8377188,3.875 19.25,3.875 L19.25,3.875 Z M6.55903125,14.4823125 L11.5176875,19.4409687 C11.6679063,19.5904688 11.867,19.6544375 12.0625,19.6436562 C12.258,19.6544375 12.4570937,19.5904688 12.6073125,19.4409687 L17.5659688,14.4823125 C17.847,14.2012813 17.847,13.7455938 17.5659688,13.4652813 C17.2856563,13.1849687 16.8299688,13.1849687 16.5489375,13.4652813 L12.78125,17.2336875 L12.78125,1.71875 C12.78125,1.32128125 12.4599687,1 12.0625,1 C11.66575,1 11.34375,1.32128125 11.34375,1.71875 L11.34375,17.2336875 L7.57534375,13.4652813 C7.29503125,13.1849687 6.83934375,13.1849687 6.55903125,13.4652813 C6.278,13.7455938 6.278,14.2012813 6.55903125,14.4823125 L6.55903125,14.4823125 Z" id="Fill-54" fill="#000000"></path>
    </g>
</svg>