<?xml version="1.0" encoding="UTF-8"?>
<svg width="24px" height="24px" viewBox="0 0 24 24" version="1.1" xmlns="http://www.w3.org/2000/svg" xmlns:xlink="http://www.w3.org/1999/xlink">
    <!-- Generator: Sketch 51.3 (57544) - http://www.bohemiancoding.com/sketch -->
    <title>0: Icons / Dark / Move To Top</title>
    <desc>Created with Sketch.</desc>
    <defs></defs>
    <g id="0:-Icons-/-Dark-/-Move-To-Top" stroke="none" stroke-width="1" fill="none" fill-rule="evenodd">
        <path d="M19.1428571,0 L4.85714286,0 C3.27928571,0 2,1.27928571 2,2.85714286 L2,17.1428571 C2,18.7207143 3.27928571,20 4.85714286,20 L7,20 L7,18.5714286 L4.85714286,18.5714286 C4.06857143,18.5714286 3.42857143,17.9314286 3.42857143,17.1428571 L3.42857143,2.85714286 C3.42857143,2.06857143 4.06857143,1.42857143 4.85714286,1.42857143 L19.1428571,1.42857143 C19.9314286,1.42857143 20.5714286,2.06857143 20.5714286,2.85714286 L20.5714286,17.1428571 C20.5714286,17.9314286 19.9314286,18.5714286 19.1428571,18.5714286 L17,18.5714286 L17,20 L19.1428571,20 C20.7207143,20 22,18.7207143 22,17.1428571 L22,2.85714286 C22,1.27928571 20.7207143,0 19.1428571,0 L19.1428571,0 Z M17.4692857,9.45928571 L12.5414286,4.53071429 C12.3921429,4.38214286 12.1942857,4.31857143 12,4.32857143 C11.8057143,4.31857143 11.6078571,4.38214286 11.4592857,4.53071429 L6.53071429,9.45928571 C6.25142857,9.73785714 6.25142857,10.1907143 6.53071429,10.4692857 C6.80928571,10.7485714 7.26214286,10.7485714 7.54142857,10.4692857 L11.2857143,6.72428571 L11.2857143,22.1428571 C11.2857143,22.5378571 11.605,22.8571429 12,22.8571429 C12.3942857,22.8571429 12.7142857,22.5378571 12.7142857,22.1428571 L12.7142857,6.72428571 L16.4592857,10.4692857 C16.7378571,10.7485714 17.1907143,10.7485714 17.4692857,10.4692857 C17.7485714,10.1907143 17.7485714,9.73785714 17.4692857,9.45928571 L17.4692857,9.45928571 Z" id="Fill-55" fill="#000000"></path>
    </g>
</svg>