<?xml version="1.0" encoding="UTF-8"?>
<svg width="24px" height="24px" viewBox="0 0 24 24" version="1.1" xmlns="http://www.w3.org/2000/svg" xmlns:xlink="http://www.w3.org/1999/xlink">
    <!-- Generator: Sketch 51.3 (57544) - http://www.bohemiancoding.com/sketch -->
    <title>0: Icons / Dark / Multiple Document</title>
    <desc>Created with Sketch.</desc>
    <defs></defs>
    <g id="0:-Icons-/-Dark-/-Multiple-Document" stroke="none" stroke-width="1" fill="none" fill-rule="evenodd">
        <path d="M19.25,6 C18.45125,6 17.75,4.54875 17.75,3.7695 L17.75,1.52325 L17.75,1.52175 L21.5,6 L19.25,6 L19.25,6 Z M21.5,18 C21.5,18.76425 20.7875,19.5 20,19.5 L8.75,19.5 C7.9625,19.5 7.25,18.76425 7.25,18 L7.25,3 C7.25,2.23575 7.9625,1.5 8.75,1.5 L16.25,1.5 C16.238,3.228 16.25,4.51875 16.25,4.51875 C16.25,6.07725 17.6525,7.5 19.25,7.5 L21.5,7.5 L21.5,18 L21.5,18 Z M16.25,22.5 L5,22.5 C4.2125,22.5 3.5,21.76425 3.5,21 L3.5,6 C3.5,5.23575 4.14125,4.524 4.92875,4.524 L5.75,4.5 L5.75,18 C5.75,19.54425 7.163,21 8.75,21 L17.75,21 C17.75,21.76425 17.03675,22.5 16.25,22.5 L16.25,22.5 Z M17.75,0 L8.75,0 C7.163,0 5.75,1.45575 5.75,3 L4.88375,3.02025 C3.29675,3.02025 2,4.45575 2,6 L2,21 C2,22.54425 3.413,24 5,24 L16.25,24 C17.837,24 19.25,22.54425 19.25,21 L20,21 C21.587,21 23,19.54425 23,18 L23,6.01725 L17.75,0 L17.75,0 Z" id="Fill-220" fill="#000000"></path>
    </g>
</svg>