<?xml version="1.0" encoding="UTF-8"?>
<svg width="24px" height="24px" viewBox="0 0 24 24" version="1.1" xmlns="http://www.w3.org/2000/svg" xmlns:xlink="http://www.w3.org/1999/xlink">
    <!-- Generator: Sketch 51.3 (57544) - http://www.bohemiancoding.com/sketch -->
    <title>0: Icons / Dark / Music</title>
    <desc>Created with Sketch.</desc>
    <defs></defs>
    <g id="0:-Icons-/-Dark-/-Music" stroke="none" stroke-width="1" fill="none" fill-rule="evenodd">
        <path d="M20.3647804,18.3836818 C18.2191836,19.5839265 15.5915398,19.4085004 14.5607237,18.1107967 C13.529158,16.813093 14.4572673,14.8316771 16.6313521,13.68466 C18.8061865,12.5383926 20.7943495,12.4911624 21.9825993,13.5519659 C23.2615609,14.6929855 22.1655223,17.378355 20.3647804,18.3836818 L20.3647804,18.3836818 Z M7.50694325,21.2414787 C5.33660692,22.4192329 2.85964967,22.4432228 1.81458962,21.1470185 C0.770279255,19.8515639 1.68714327,17.8544046 3.86347708,16.687146 C6.0390612,15.5198874 7.95000673,15.5641188 9.23571547,16.5154683 C10.6451221,17.5582793 9.35491529,20.238401 7.50694325,21.2414787 L7.50694325,21.2414787 Z M23.2503156,1 C23.1371133,1 23.0321574,1.02923769 22.9361978,1.07421876 L10.5056808,3.99873759 C10.0911054,3.99873759 9.75599644,4.3345962 9.75599644,4.74842199 L9.75599644,15.2455029 C8.18090953,14.221434 5.64922531,14.2229334 3.39117591,15.4239278 C0.540126145,16.9405393 -0.769572498,19.7653502 0.464408021,21.7355208 C1.69913822,23.7049417 5.01049421,24.072287 7.86079429,22.5564252 C9.69827075,21.5788367 10.9667367,19.7278659 11.2553652,18.2427411 L11.2553652,5.32193055 L22.5006312,2.67554463 L22.5006312,12.2467653 C20.9255443,11.2226964 18.3938601,11.2241958 16.1358107,12.4251902 C13.2847609,13.9418018 11.9750623,16.7666126 13.2090428,18.7367832 C14.443773,20.7062041 17.8840747,21.1680097 20.74562,19.6746383 C22.888218,18.5568589 23.8283223,16.8228389 24,15.2440036 L24,1.7496844 C24,1.33510893 23.6648911,1 23.2503156,1 L23.2503156,1 Z" id="Fill-113" fill="#000000"></path>
    </g>
</svg>