<?xml version="1.0" encoding="UTF-8"?>
<svg width="20px" height="17px" viewBox="0 0 20 17" version="1.1" xmlns="http://www.w3.org/2000/svg" xmlns:xlink="http://www.w3.org/1999/xlink">
    <g id="BMB" stroke="none" stroke-width="1" fill="none" fill-rule="evenodd">
        <g id="02_00_fiche_bénéficiaire" transform="translate(-400.000000, -1612.000000)" fill="#4E5B59">
            <g id="Group-17" transform="translate(339.000000, 1598.000000)">
                <g id="Group-25" transform="translate(54.000000, 0.000000)">
                    <g id="PICTO/NFC" transform="translate(7.000000, 14.000000)">
                        <g id="Group-10">
                            <path d="M3.26012903,5.95232258 C1.96787097,5.95232258 0.916258065,6.99554839 0.916258065,8.27748387 C0.916258065,9.55877419 1.96787097,10.602 3.26012903,10.602 C4.5523871,10.602 5.60464516,9.55877419 5.60464516,8.27748387 C5.60464516,6.99554839 4.5523871,5.95232258 3.26012903,5.95232258 M3.26012903,11.518129 C1.46206452,11.518129 0.000129032258,10.0645806 0.000129032258,8.27748387 C0.000129032258,6.48974194 1.46206452,5.03619355 3.26012903,5.03619355 C5.05754839,5.03619355 6.52012903,6.48974194 6.52012903,8.27748387 C6.52012903,10.0645806 5.05754839,11.518129 3.26012903,11.518129" id="Fill-1"></path>
                            <path d="M9.26941935,4.43645161 C9.15522581,4.43645161 9.03070968,4.47129032 8.89780645,4.55903226 C8.73587097,4.66612903 8.62103226,4.83451613 8.58296774,5.0216129 C8.54167742,5.22419355 8.59135484,5.43903226 8.72619355,5.64354839 C9.84748387,7.33580645 9.84619355,9.06225806 8.72103226,10.7745161 C8.44812903,11.1912903 8.50812903,11.6106452 8.87845161,11.8687097 C9.20877419,12.0990323 9.63587097,11.9783871 9.91974194,11.5783871 C10.6003871,10.6164516 10.9739355,9.51129032 10.9978065,8.38225806 C10.9965161,7.02612903 10.655871,5.90612903 9.92554839,4.8583871 C9.82232258,4.71 9.58812903,4.43645161 9.26941935,4.43645161" id="Fill-3"></path>
                            <g id="Group-7" transform="translate(15.483871, 0.349806)">
                                <path d="M1.40122581,0.318774194 C1.34509677,0.302645161 1.28767742,0.295548387 1.22896774,0.295548387 C1.09929032,0.295548387 0.965741935,0.333612903 0.835419355,0.409096774 C0.487032258,0.611032258 0.404451613,1.05425806 0.639935484,1.46329032 C1.738,3.36780645 2.46703226,7.67877419 2.24316129,9.40587097 C2.01929032,11.1329677 1.47090323,12.7910323 0.611548387,14.3349032 C0.521225806,14.4974839 0.470258065,14.6955484 0.481225806,14.8394194 C0.509612903,15.1897419 0.71283871,15.3974839 1.10316129,15.4742581 C1.37606452,15.5284516 1.66767742,15.3516774 1.85348387,15.025871 C3.43412903,12.2484516 4.04832258,9.25877419 3.67929032,6.14006452 C3.46058065,4.28974194 2.87219355,2.52006452 1.88187097,0.731032258 C1.76251613,0.515548387 1.59606452,0.372322581 1.40122581,0.318774194 Z" id="Fill-5"></path>
                            </g>
                            <path d="M14.955871,7.35193548 C14.8416774,5.82354839 14.3668387,4.35451613 13.5429677,2.98612903 C13.4326452,2.80290323 13.2616774,2.67516129 13.0610323,2.62741935 C13.0049032,2.61322581 12.948129,2.60677419 12.8926452,2.60677419 C12.7668387,2.60677419 12.6449032,2.64096774 12.5378065,2.70741935 C12.1487742,2.95 12.068129,3.33322581 12.3178065,3.75903226 C13.6894194,6.10225806 13.9249032,8.59967742 13.0178065,11.1809677 C12.8790968,11.5745161 12.6874839,11.9454839 12.5023226,12.3035484 C12.4216774,12.4596774 12.3410323,12.6158065 12.2649032,12.7732258 C12.0687742,13.1790323 12.1855484,13.5919355 12.5487742,13.7777419 C12.9132903,13.9648387 13.2971613,13.8409677 13.5255484,13.4622581 C14.472,11.8925806 14.9823226,10.1409677 15.0423226,8.25709677 L15.0145806,7.9816129 C14.9932903,7.77129032 14.9713548,7.56225806 14.955871,7.35193548" id="Fill-8"></path>
                        </g>
                    </g>
                </g>
            </g>
        </g>
    </g>
</svg>