<?xml version="1.0" encoding="UTF-8"?>
<svg width="30px" height="30px" viewBox="0 0 30 30" version="1.1" xmlns="http://www.w3.org/2000/svg" xmlns:xlink="http://www.w3.org/1999/xlink">
    <!-- Generator: Sketch 52.6 (67491) - http://www.bohemiancoding.com/sketch -->
    <title>PICTO/NOTIFICATION</title>
    <desc>Created with Sketch.</desc>
    <defs>
        <path d="M3.641,8.337 L3.641,14.348 L0.636,20.359 L7.474,20.359 C7.821,22.074 9.337,23.364 11.155,23.364 C12.972,23.364 14.488,22.074 14.836,20.359 L21.674,20.359 L18.668,14.348 L18.668,8.337 C18.668,4.188 15.304,0.823 11.155,0.823 C7.005,0.823 3.641,4.188 3.641,8.337 Z M5.144,14.348 L5.144,8.337 C5.144,5.018 7.835,2.326 11.155,2.326 C14.474,2.326 17.166,5.018 17.166,8.337 L17.166,14.348 L19.42,18.856 L2.889,18.856 L5.144,14.348 Z M9.039,20.359 L13.271,20.359 C12.96,21.233 12.135,21.862 11.155,21.862 C10.174,21.862 9.35,21.233 9.039,20.359 Z" id="path-n"></path>
    </defs>
    <g id="PICTO/NOTIFICATION" stroke="none" stroke-width="1" fill="none" fill-rule="evenodd">
        <g id="Group-6" transform="translate(4.000000, 0.000000)">
            <g id="Group-3" transform="translate(0.000000, 6.391600)">
                <mask id="mask-n" fill="white">
                    <use xlink:href="#path-n"></use>
                </mask>
                <polygon id="Fill-1" fill="#979797" mask="url(#mask-n)" points="-5 29 27.31 29 27.31 -4.812 -5 -4.812"></polygon>
            </g>
            <path d="M11.276,1.2206 C9.561,1.2206 8.165,2.6166 8.165,4.3316 C8.165,6.0466 9.561,7.4426 11.276,7.4426 C12.991,7.4426 14.387,6.0466 14.387,4.3316 C14.387,2.6166 12.991,1.2206 11.276,1.2206 M11.276,8.6626 C8.887,8.6626 6.944,6.7206 6.944,4.3316 C6.944,1.9426 8.887,-0.0004 11.276,-0.0004 C13.665,-0.0004 15.608,1.9426 15.608,4.3316 C15.608,6.7206 13.665,8.6626 11.276,8.6626" id="Fill-4" fill="#979797"></path>
        </g>
    </g>
</svg>