<?xml version="1.0" encoding="UTF-8"?>
<svg width="30px" height="30px" viewBox="0 0 30 30" version="1.1" xmlns="http://www.w3.org/2000/svg" xmlns:xlink="http://www.w3.org/1999/xlink">
    <defs>
        <path d="M3.641,8.337 L3.641,14.348 L0.636,20.359 L7.474,20.359 C7.821,22.074 9.337,23.364 11.155,23.364 C12.972,23.364 14.488,22.074 14.836,20.359 L21.674,20.359 L18.668,14.348 L18.668,8.337 C18.668,4.188 15.304,0.823 11.155,0.823 C7.005,0.823 3.641,4.188 3.641,8.337 Z M5.144,14.348 L5.144,8.337 C5.144,5.018 7.835,2.326 11.155,2.326 C14.474,2.326 17.166,5.018 17.166,8.337 L17.166,14.348 L19.42,18.856 L2.889,18.856 L5.144,14.348 Z M9.039,20.359 L13.271,20.359 C12.96,21.233 12.135,21.862 11.155,21.862 C10.174,21.862 9.35,21.233 9.039,20.359 Z" id="path-n"></path>
    </defs>
    <g id="PICTO/NOTIFICATION" stroke="none" stroke-width="1" fill="none" fill-rule="evenodd">
        <path d="M14.6,29.47 C8.73257012,29.4699874 3.44345592,25.9339211 1.20090058,20.5119584 C-1.04165476,15.0899958 0.204412144,8.85094042 4.35760578,4.70633959 C8.51079943,0.561738764 14.7524221,-0.671403721 20.1697286,1.58237627 C25.587035,3.83615626 29.1121395,9.13258268 29.1,15 C29.0724872,22.991843 22.5918828,29.4590392 14.6,29.47 Z M14.6,1.47 C7.14806516,1.4700184 1.10554471,7.50808941 1.10003702,14.9600222 C1.09452933,22.411955 7.12811777,28.4589514 14.5800444,28.4699852 C22.0319711,28.481019 28.0834401,22.4519164 28.1,15 C28.1055281,7.53700995 22.0629839,1.48103788 14.6,1.47 Z" id="Shape"/>
        <g id="Group-6" transform="translate(8.000000, 5.000000), rotate(30,10,10), scale(0.7)">
            <g id="Group-3" transform="translate(0.000000, 6.391600)">
                <mask id="mask-n">
                    <use xlink:href="#path-n"></use>
                </mask>
                 <mask id="mask-n">
                    <use ></use>
                </mask>
                <path d="M3.641,8.337 L3.641,14.348 L0.636,20.359 L7.474,20.359 C7.821,22.074 9.337,23.364 11.155,23.364 C12.972,23.364 14.488,22.074 14.836,20.359 L21.674,20.359 L18.668,14.348 L18.668,8.337 C18.668,4.188 15.304,0.823 11.155,0.823 C7.005,0.823 3.641,4.188 3.641,8.337 Z M5.144,14.348 L5.144,8.337 C5.144,5.018 7.835,2.326 11.155,2.326 C14.474,2.326 17.166,5.018 17.166,8.337 L17.166,14.348 L19.42,18.856 L2.889,18.856 L5.144,14.348 Z M9.039,20.359 L13.271,20.359 C12.96,21.233 12.135,21.862 11.155,21.862 C10.174,21.862 9.35,21.233 9.039,20.359 Z" id="path-n"></path>
                <polygon id="Fill-1" mask="url(#mask-n)" points="-5 29 27.31 29 27.31 -4.812 -5 -4.812"></polygon>
            </g>
            <path d="M11.276,1.2206 C9.561,1.2206 8.165,2.6166 8.165,4.3316 C8.165,6.0466 9.561,7.4426 11.276,7.4426 C12.991,7.4426 14.387,6.0466 14.387,4.3316 C14.387,2.6166 12.991,1.2206 11.276,1.2206 M11.276,8.6626 C8.887,8.6626 6.944,6.7206 6.944,4.3316 C6.944,1.9426 8.887,-0.0004 11.276,-0.0004 C13.665,-0.0004 15.608,1.9426 15.608,4.3316 C15.608,6.7206 13.665,8.6626 11.276,8.6626" id="Fill-4" fill="#979797"></path>
        </g>
    </g>
</svg>