<svg xmlns="http://www.w3.org/2000/svg" xmlns:xlink="http://www.w3.org/1999/xlink" width="26" height="39" viewBox="0 0 26 39">
  <defs>
    <clipPath id="clip-path">
      <path id="Icone_Up_perfect" data-name="Icone/Up/perfect" d="M8.986,39a.714.714,0,0,1-.647-.387c-.247-.508-.443-.981-.633-1.437a15.088,15.088,0,0,0-3.827-5.663C.044,27.686,0,24.608,0,24.479v-.13c1.113-6.536,1.571-6.72,1.874-6.842a1.447,1.447,0,0,1,.356-.049,1.438,1.438,0,0,1,.355.049,2.63,2.63,0,0,0,.582.323.34.34,0,0,0,.065-.1.333.333,0,0,1,.065-.1c.023-.023.124-.132.276-.3.713-.771,2.6-2.811,3.343-3.446.774-.628,3.837-1.017,6.231-1.017a11.237,11.237,0,0,1,1.784.113L12.993,9.827a.063.063,0,0,1-.065-.065c-.125-.187-1.552-2.907-1.939-3.937C9.979,3.053,12.708.322,12.928.211A.635.635,0,0,1,13.34,0a.337.337,0,0,1,.107.017.573.573,0,0,1,.517.323l2.715,4.388V4.341A3.768,3.768,0,0,1,18,1.09,4.755,4.755,0,0,1,20.492.017a1.23,1.23,0,0,1,.517.129A.413.413,0,0,1,21.333.6l.647,6.065a4.767,4.767,0,0,1,2.877-.978c.1,0,.2,0,.291.012a.831.831,0,0,1,.646.774l-.451,9.745c0,.023-.2,2.33-.26,3.615.077.343.17.724.268,1.127.234.96.5,2.048.637,3a17.28,17.28,0,0,1-.341,3.179l0,.019q-.052.348-.109.738c-.1.6-.193,1.165-.286,1.712-.577,3.392-.994,5.842-.1,7.9a.74.74,0,0,1-.388.969.718.718,0,0,1-.323.064c-.378,0-.6-.13-.647-.387-1.03-2.382-.653-4.708-.082-8.229.111-.685.226-1.392.341-2.163.08-.664.17-1.324.25-1.906.113-.827.2-1.48.2-1.708a20.389,20.389,0,0,0-1.034-4.841c-.2-.529-1.178-2.678-1.81-4a.063.063,0,0,1-.065-.065v-.065c-.149-.323-.287-.613-.408-.869-.19-.4-.327-.69-.367-.809-.093-.232-.853-1.3-1.733-2.53-.345-.483-.7-.983-1.047-1.473a.063.063,0,0,1-.065-.065L13.317,1.953a3.612,3.612,0,0,0-.97,3.357c.272.761,1.286,2.725,1.667,3.464.073.141.124.24.144.28l4.59,7.421.846.9c.723.766,1.292,1.368,1.481,1.557a.724.724,0,0,1-.065,1.034.787.787,0,0,1-.487.185.775.775,0,0,1-.546-.25c-.715-.712-1.577-1.64-2.329-2.454l-.064-.063c-.858-.9-1.858-1.921-2.973-3.034a6.117,6.117,0,0,0-1.246-.094c-1.994,0-5.244.428-5.608.738a38.064,38.064,0,0,0-3.039,3.163,2.6,2.6,0,0,0,1.487.839,1.559,1.559,0,0,0,.221.016,1.528,1.528,0,0,0,1.007-.4,5.923,5.923,0,0,1,3.785-1.474A5.52,5.52,0,0,1,15,18.669a.341.341,0,0,1,.065.1.341.341,0,0,0,.065.1L17.2,23.316a.4.4,0,0,1,.065.453l-.97,3.357a.76.76,0,0,1-.388.388L10.86,29.9a1.432,1.432,0,0,1-.347.049.934.934,0,0,1-.3-.049c-.009-.009-.055-.038-.14-.091a23.945,23.945,0,0,1-4.449-3.588,4.787,4.787,0,0,1-1.359-4.066c.136-1.216.082-2.027-1.809-3.033a49.016,49.016,0,0,0-1.1,5.421l0,.015a11.669,11.669,0,0,0,3.488,5.988,15.473,15.473,0,0,1,3.983,5.7c.236.53.479,1.078.8,1.72a.824.824,0,0,1-.323.968.938.938,0,0,0-.159.032A.94.94,0,0,1,8.986,39Zm-3.3-18.847a4.809,4.809,0,0,1,.129,1.937,3.129,3.129,0,0,0,.9,2.97,22.272,22.272,0,0,0,4.009,3.226l4.4-2.065.841-2.776L14.029,19.38l-.006,0a4.745,4.745,0,0,0-2.8-1.047,4.215,4.215,0,0,0-2.755,1.115,3.129,3.129,0,0,1-2.093.786c-.1,0-.2,0-.3-.012a1.291,1.291,0,0,1-.255-.041A.808.808,0,0,0,5.689,20.153Zm18.618-13.1h0a2.455,2.455,0,0,0-2.068,1.615l.194,1.612c0,.1.09,1.049.185,2.05.085.892.172,1.815.2,2.211.163.325.313.647.458.958.2.429.389.834.577,1.172a4.38,4.38,0,0,0,.065-.646l.387-8.972Zm-4.33-5.487h0A2.46,2.46,0,0,0,18.1,4.212c.034.342.051.885.068,1.46.016.519.032,1.054.062,1.509l.841,1.355a31.791,31.791,0,0,1,1.939,2.9,6.123,6.123,0,0,0-.065-.9l-.194-1.678V8.795l-.775-7.23Z" fill="none"/>
    </clipPath>
  </defs>
  <g id="services" transform="translate(0 1904.895)">
    <g id="Groupe_21066" data-name="Groupe 21066" transform="translate(12810.816 -24.285)">
      <g id="Groupe_21639" data-name="Groupe 21639" transform="translate(-4.363 -1880.608)">
        <g id="Icone-Up-perfect" transform="translate(-12806.453 -0.001)">
          <g id="Groupe_119" data-name="Groupe 119" transform="translate(0 0)">
            <path id="Icone_Up_perfect-2" data-name="Icone/Up/perfect" d="M8.986,39a.714.714,0,0,1-.647-.387c-.247-.508-.443-.981-.633-1.437a15.088,15.088,0,0,0-3.827-5.663C.044,27.686,0,24.608,0,24.479v-.13c1.113-6.536,1.571-6.72,1.874-6.842a1.447,1.447,0,0,1,.356-.049,1.438,1.438,0,0,1,.355.049,2.63,2.63,0,0,0,.582.323.34.34,0,0,0,.065-.1.333.333,0,0,1,.065-.1c.023-.023.124-.132.276-.3.713-.771,2.6-2.811,3.343-3.446.774-.628,3.837-1.017,6.231-1.017a11.237,11.237,0,0,1,1.784.113L12.993,9.827a.063.063,0,0,1-.065-.065c-.125-.187-1.552-2.907-1.939-3.937C9.979,3.053,12.708.322,12.928.211A.635.635,0,0,1,13.34,0a.337.337,0,0,1,.107.017.573.573,0,0,1,.517.323l2.715,4.388V4.341A3.768,3.768,0,0,1,18,1.09,4.755,4.755,0,0,1,20.492.017a1.23,1.23,0,0,1,.517.129A.413.413,0,0,1,21.333.6l.647,6.065a4.767,4.767,0,0,1,2.877-.978c.1,0,.2,0,.291.012a.831.831,0,0,1,.646.774l-.451,9.745c0,.023-.2,2.33-.26,3.615.077.343.17.724.268,1.127.234.96.5,2.048.637,3a17.28,17.28,0,0,1-.341,3.179l0,.019q-.052.348-.109.738c-.1.6-.193,1.165-.286,1.712-.577,3.392-.994,5.842-.1,7.9a.74.74,0,0,1-.388.969.718.718,0,0,1-.323.064c-.378,0-.6-.13-.647-.387-1.03-2.382-.653-4.708-.082-8.229.111-.685.226-1.392.341-2.163.08-.664.17-1.324.25-1.906.113-.827.2-1.48.2-1.708a20.389,20.389,0,0,0-1.034-4.841c-.2-.529-1.178-2.678-1.81-4a.063.063,0,0,1-.065-.065v-.065c-.149-.323-.287-.613-.408-.869-.19-.4-.327-.69-.367-.809-.093-.232-.853-1.3-1.733-2.53-.345-.483-.7-.983-1.047-1.473a.063.063,0,0,1-.065-.065L13.317,1.953a3.612,3.612,0,0,0-.97,3.357c.272.761,1.286,2.725,1.667,3.464.073.141.124.24.144.28l4.59,7.421.846.9c.723.766,1.292,1.368,1.481,1.557a.724.724,0,0,1-.065,1.034.787.787,0,0,1-.487.185.775.775,0,0,1-.546-.25c-.715-.712-1.577-1.64-2.329-2.454l-.064-.063c-.858-.9-1.858-1.921-2.973-3.034a6.117,6.117,0,0,0-1.246-.094c-1.994,0-5.244.428-5.608.738a38.064,38.064,0,0,0-3.039,3.163,2.6,2.6,0,0,0,1.487.839,1.559,1.559,0,0,0,.221.016,1.528,1.528,0,0,0,1.007-.4,5.923,5.923,0,0,1,3.785-1.474A5.52,5.52,0,0,1,15,18.669a.341.341,0,0,1,.065.1.341.341,0,0,0,.065.1L17.2,23.316a.4.4,0,0,1,.065.453l-.97,3.357a.76.76,0,0,1-.388.388L10.86,29.9a1.432,1.432,0,0,1-.347.049.934.934,0,0,1-.3-.049c-.009-.009-.055-.038-.14-.091a23.945,23.945,0,0,1-4.449-3.588,4.787,4.787,0,0,1-1.359-4.066c.136-1.216.082-2.027-1.809-3.033a49.016,49.016,0,0,0-1.1,5.421l0,.015a11.669,11.669,0,0,0,3.488,5.988,15.473,15.473,0,0,1,3.983,5.7c.236.53.479,1.078.8,1.72a.824.824,0,0,1-.323.968.938.938,0,0,0-.159.032A.94.94,0,0,1,8.986,39Zm-3.3-18.847a4.809,4.809,0,0,1,.129,1.937,3.129,3.129,0,0,0,.9,2.97,22.272,22.272,0,0,0,4.009,3.226l4.4-2.065.841-2.776L14.029,19.38l-.006,0a4.745,4.745,0,0,0-2.8-1.047,4.215,4.215,0,0,0-2.755,1.115,3.129,3.129,0,0,1-2.093.786c-.1,0-.2,0-.3-.012a1.291,1.291,0,0,1-.255-.041A.808.808,0,0,0,5.689,20.153Zm18.618-13.1h0a2.455,2.455,0,0,0-2.068,1.615l.194,1.612c0,.1.09,1.049.185,2.05.085.892.172,1.815.2,2.211.163.325.313.647.458.958.2.429.389.834.577,1.172a4.38,4.38,0,0,0,.065-.646l.387-8.972Zm-4.33-5.487h0A2.46,2.46,0,0,0,18.1,4.212c.034.342.051.885.068,1.46.016.519.032,1.054.062,1.509l.841,1.355a31.791,31.791,0,0,1,1.939,2.9,6.123,6.123,0,0,0-.065-.9l-.194-1.678V8.795l-.775-7.23Z" fill="none"/>
          </g>
        </g>
      </g>
    </g>
  </g>
</svg>
