<?xml version="1.0" encoding="UTF-8"?>
<svg width="20px" height="24px" viewBox="0 0 20 24" version="1.1" xmlns="http://www.w3.org/2000/svg" xmlns:xlink="http://www.w3.org/1999/xlink">
    <!-- Generator: Sketch 62 (91390) - https://sketch.com -->
    <title>on-off_icon-icons.com_67976@1,5x</title>
    <desc>Created with Sketch.</desc>
    <g id="1---DashBoard" stroke="none" stroke-width="1" fill="none" fill-rule="evenodd">
        <g id="01_02-Dashboard--Change-Compte" transform="translate(-1220.000000, -106.000000)" fill="#4E5B59" fill-rule="nonzero">
            <g id="menu-compte" transform="translate(1195.000000, 56.000000)">
                <g id="on-off_icon-icons.com_67976" transform="translate(25.000000, 50.000000)">
                    <path d="M9.98811534,11.2444821 C9.61120533,11.2444821 9.35993199,10.9932087 9.35993199,10.6162987 L9.35993199,0.816638361 C9.35993199,0.439728348 9.61120533,0.188455006 9.98811534,0.188455006 C10.3650254,0.188455006 10.6162987,0.439728348 10.6162987,0.816638361 L10.6162987,10.5534804 C10.6162987,10.9303904 10.302207,11.2444821 9.98811534,11.2444821 Z" id="Path"></path>
                    <path d="M9.98811534,23.4312391 C4.7741935,23.4312391 0.565365019,19.2224107 0.565365019,14.0084888 C0.565365019,9.86247867 3.32937178,6.15619688 7.28692692,4.9626485 C7.60101859,4.83701183 7.97792861,5.02546684 8.04074694,5.40237685 C8.16638361,5.71646853 7.97792861,6.09337854 7.60101859,6.15619688 C4.14601014,7.16129025 1.75891339,10.4278437 1.75891339,14.0084888 C1.75891339,18.531409 5.40237685,22.1748724 9.92529701,22.1748724 C14.4482172,22.1748724 18.0916806,18.531409 18.0916806,14.0084888 C18.0916806,10.4278437 15.8302205,7.28692692 12.3752121,6.21901521 C12.0611204,6.09337854 11.8726654,5.77928686 11.9354837,5.40237685 C12.0611204,5.08828517 12.3752121,4.89983017 12.7521221,4.9626485 C16.7096772,6.21901521 19.3480473,9.79966034 19.3480473,13.9456705 C19.4108657,19.2224107 15.2020372,23.4312391 9.98811534,23.4312391 Z" id="Path"></path>
                </g>
            </g>
        </g>
    </g>
</svg>