<svg xmlns="http://www.w3.org/2000/svg" xmlns:xlink="http://www.w3.org/1999/xlink" width="16px" height="18px" viewBox="0 0 16 18" version="1.1">
    <title>Icone / V1 / Foncé / Cadenas@1,5x</title>
    <defs>
        <path d="M8.89177662,0.00102151254 C11.8582244,-0.0539598706 14.3109931,2.11740344 14.3708751,4.85082096 L14.3708751,4.85082096 L14.3708751,6.92767248 C15.4596396,7.24311312 16.2002172,8.17338207 16.1999999,9.22525218 L16.1999999,9.22525218 L16.1999999,15.5920562 C16.1999999,16.9220438 15.0300131,18 13.5869647,18 L13.5869647,18 L4.41085742,18 C2.96846221,17.9991974 1.80000005,16.9214418 1.80000005,15.5920562 L1.80000005,15.5920562 L1.80000005,9.22525218 C1.79978239,8.17338207 2.54036001,7.24311312 3.62912451,6.92767248 L3.62912451,6.92767248 L3.62912451,4.85082096 C3.68704678,2.19485896 6.00959922,0.0545982618 8.89177662,0.00102151254 Z M13.5869647,8.33256327 L4.28068051,8.33256327 C3.79966436,8.33256327 3.42506989,8.81732476 3.42506989,9.26058708 L3.42506989,9.26058708 L3.42506989,15.5920562 C3.42506989,16.0353185 3.79966436,16.4322913 4.28068051,16.4322913 L4.28068051,16.4322913 L13.5869647,16.4322913 C14.0679808,16.4322913 14.4863772,16.0353185 14.4863772,15.5920562 L14.4863772,15.5920562 L14.4863772,9.26058708 C14.4863772,8.81732476 14.0679808,8.33256327 13.5869647,8.33256327 L13.5869647,8.33256327 Z M9,10.8 C9.49705627,10.8 9.9,11.2029437 9.9,11.7 C9.9,12.0327714 9.71939687,12.3233607 9.45086131,12.4790971 L9.45,13.95 C9.45,14.1985281 9.24852814,14.4 9,14.4 C8.75147186,14.4 8.55,14.1985281 8.55,13.95 L8.55015629,12.4796864 C8.28105949,12.3240944 8.1,12.0331916 8.1,11.7 C8.1,11.2029437 8.50294373,10.8 9,10.8 Z M8.98790137,1.43502071 C6.98413917,1.43722799 5.21135178,3.0043294 5.20895649,4.85082096 L5.20895649,4.85082096 L5.20895649,6.69615173 L12.7668462,6.69615173 L12.7668462,4.85082096 C12.764451,3.0043294 10.9916636,1.43722799 8.98790137,1.43502071 Z" id="path-pdl-1"/>
    </defs>
    <g id="Import-Fichier" stroke="none" stroke-width="1" fill="none" fill-rule="evenodd">
        <g id="01-00-Import_UpDéjeuner">
            <g id="Group-pdl--2">
                <g id="Icone-/-V1-/-Foncé-/-Cadenas">
                    <mask id="mask-pdl-2" fill="white">
                        <use xlink:href="#path-pdl-1"/>
                    </mask>
                    <g id="Combined-Shape"/>
                    <g id="Group-pdl-" mask="url(#mask-pdl-2)" fill="#6DBD8E" fill-rule="nonzero">
                        <g id="🎨-color">
                            <polygon id="Rectangle" points="0 0 18 0 18 18 0 18"/>
                        </g>
                    </g>
                </g>
            </g>
        </g>
    </g>
</svg>