<svg xmlns="http://www.w3.org/2000/svg" xmlns:xlink="http://www.w3.org/1999/xlink" width="28px" height="30px" viewBox="0 0 28 30" version="1.1">
    <!-- Generator: Sketch 52.6 (67491) - http://www.bohemiancoding.com/sketch -->
    <title>Group 3</title>
    <desc>Created with Sketch.</desc>
                <path d="M26.9226449,8.2101674 L26.9226449,21.8129279 L14.5159706,28.6046419 L14.5159706,15.0012148 L15.8552955,14.2719121 L18.0511982,13.0632964 L18.1172509,15.3345341 C18.1263859,15.6105224 18.3702189,15.8265133 18.6611321,15.817847 C18.7475628,15.8145138 18.8318855,15.7918481 18.9077759,15.7511832 L22.7282951,13.6466051 C22.893427,13.5572756 22.9932088,13.3899493 22.9918035,13.2092902 L22.9918035,10.3554104 L26.9226449,8.20950076 L26.9226449,8.2101674 Z M13.9889539,14.1259183 L1.62584632,7.35620336 L5.24891003,5.50228143 L5.27139607,5.50228143 L17.6780704,12.1053367 L13.9889539,14.1259183 Z M13.4619373,28.6053085 L1.05456029,21.8135945 L1.05456029,8.2101674 L13.4619373,15.0018814 L13.4619373,28.6053085 Z M8.98229588,3.64769286 L21.4332396,10.0434235 L19.9618091,10.856056 L18.753887,11.5226946 L6.36899605,4.96030425 L8.98229588,3.64769286 Z M21.9377702,10.9393858 L21.9377702,12.9179691 L19.1487981,14.4599042 L19.1052314,12.4806542 L21.784584,11.0227156 L21.9377702,10.9393858 Z M14.07679,1.06446831 L26.3956282,7.33553756 L22.5968923,9.41811653 L22.5090562,9.46011476 L10.0798959,3.08504989 L14.07679,1.06446831 Z M27.9766781,7.50153057 C28.0307852,7.33487093 27.9893265,7.15287859 27.8670587,7.02221742 C27.8600318,7.00821801 27.8523022,6.9942186 27.8445726,6.98021919 L27.8227893,6.98021919 L27.8227893,6.9595534 C27.7904656,6.92755474 27.7539258,6.89955592 27.7131698,6.87622357 L14.3395957,0.0645104213 C14.246138,0.0151791654 14.1393293,-0.00681990821 14.0318179,0.00184639351 L14.0325206,0.00184639351 C13.970684,0.012512611 13.9109555,0.033845046 13.8568484,0.0645104213 L5.79841271,4.10567358 L5.05145446,4.48032447 C5.00367162,4.50232354 4.95869953,4.52965572 4.92005165,4.56365429 L0.286521378,6.87689021 L0.286521378,6.89688937 C0.228900892,6.92288827 0.176199229,6.95822012 0.13263252,7.00155163 L0.13263252,7.02221742 C0.0644717019,7.09221448 0.0187969267,7.17887749 0.000527016636,7.2722069 L0.000527016636,7.29287269 C0.000527016636,7.30753874 0.000527016636,7.32087151 0.000527016636,7.33487093 C-0.000175672212,7.35553672 -0.000175672212,7.37620252 0.000527016636,7.39686831 L0.000527016636,22.0842498 C-0.000175672212,22.2649089 0.0996061443,22.4315685 0.264035335,22.5222314 L13.6158261,29.8552559 C13.6298799,29.8619223 13.6446364,29.8692553 13.6593929,29.8759217 L13.6811762,29.8959209 C13.6889058,29.9032539 13.6959327,29.9105869 13.7036623,29.9172533 L13.7254456,29.9172533 C13.7324725,29.9239197 13.7394994,29.9312527 13.747229,29.9379191 C13.7542559,29.9452521 13.7619854,29.9512519 13.7690123,29.9585849 L13.7914984,29.9585849 L13.8132817,29.9585849 C13.8203086,29.9652513 13.8273355,29.9725843 13.8350651,29.978584 C13.8498215,29.9792507 13.8638753,29.9792507 13.8793345,29.978584 C13.8856587,29.9792507 13.8933882,29.9792507 13.9011178,29.978584 C13.9081447,29.9792507 13.9151716,29.9792507 13.9229012,29.978584 C13.9299281,29.9859171 13.9376576,29.9932501 13.9446845,29.9999165 L13.9671706,29.9999165 C14.0423583,30.0012498 14.1168433,29.9865837 14.1864095,29.9585849 C14.201166,29.9519185 14.2159224,29.9452521 14.2306789,29.9379191 C14.2377058,29.9312527 14.2447327,29.9239197 14.2524622,29.9172533 L14.296029,29.8959209 C14.318515,29.884588 14.341001,29.869922 14.3620817,29.8552559 L27.7131698,22.5222314 C27.8768963,22.4315685 27.9780835,22.2649089 27.9766781,22.0842498 L27.9766781,7.50153057 Z" id="Fill-1"/>

</svg>