<?xml version="1.0" encoding="UTF-8"?>
<svg width="24px" height="24px" viewBox="0 0 24 24" version="1.1" xmlns="http://www.w3.org/2000/svg" xmlns:xlink="http://www.w3.org/1999/xlink">
    <!-- Generator: Sketch 51.3 (57544) - http://www.bohemiancoding.com/sketch -->
    <title>0: Icons / Dark / Pause</title>
    <desc>Created with Sketch.</desc>
    <defs></defs>
    <g id="0:-Icons-/-Dark-/-Pause" stroke="none" stroke-width="1" fill="none" fill-rule="evenodd">
        <path d="M8.14285714,21.4285714 C8.14285714,21.9025714 7.75971429,22.2857143 7.28571429,22.2857143 L5.57142857,22.2857143 C5.09742857,22.2857143 4.71428571,21.9025714 4.71428571,21.4285714 L4.71428571,2.57142857 C4.71428571,2.09828571 5.09742857,1.71428571 5.57142857,1.71428571 L7.28571429,1.71428571 C7.75971429,1.71428571 8.14285714,2.09828571 8.14285714,2.57142857 L8.14285714,21.4285714 L8.14285714,21.4285714 Z M8.14285714,0 L4.71428571,0 C3.768,0 3,0.768 3,1.71428571 L3,22.2857143 C3,23.232 3.768,24 4.71428571,24 L8.14285714,24 C9.08914286,24 9.85714286,23.232 9.85714286,22.2857143 L9.85714286,1.71428571 C9.85714286,0.768 9.08914286,0 8.14285714,0 L8.14285714,0 Z M18.4285714,21.4285714 C18.4285714,21.9025714 18.0454286,22.2857143 17.5714286,22.2857143 L15.8571429,22.2857143 C15.3831429,22.2857143 15,21.9025714 15,21.4285714 L15,2.57142857 C15,2.09828571 15.3831429,1.71428571 15.8571429,1.71428571 L17.5714286,1.71428571 C18.0454286,1.71428571 18.4285714,2.09828571 18.4285714,2.57142857 L18.4285714,21.4285714 L18.4285714,21.4285714 Z M18.4285714,0 L15,0 C14.0537143,0 13.2857143,0.768 13.2857143,1.71428571 L13.2857143,22.2857143 C13.2857143,23.232 14.0537143,24 15,24 L18.4285714,24 C19.3748571,24 20.1428571,23.232 20.1428571,22.2857143 L20.1428571,1.71428571 C20.1428571,0.768 19.3748571,0 18.4285714,0 L18.4285714,0 Z" id="Fill-125" fill="#000000"></path>
    </g>
</svg>