<?xml version="1.0" encoding="UTF-8"?>
<svg width="30px" height="30px" viewBox="0 0 30 30" version="1.1" xmlns="http://www.w3.org/2000/svg" xmlns:xlink="http://www.w3.org/1999/xlink">
    <!-- Generator: Sketch 53.2 (72643) - https://sketchapp.com -->
    <title>Icone/Foncé/modifier</title>
    <desc>Created with Sketch.</desc>
    <g id="Icone/Foncé/modifier" stroke="none" stroke-width="1" fill="none" fill-rule="evenodd">
        <path d="M26.8095714,7.78009524 L25.9195714,8.66580952 L21.0476667,3.79438095 L21.928619,2.91342857 C23.2724286,1.56819048 25.4524286,1.5672381 26.7981429,2.91104762 C28.143381,4.25485714 28.1443333,6.43485714 26.8000476,7.78009524 L26.8095714,7.78009524 Z M9.61909524,24.9710476 L4.74290476,20.094381 L19.7000476,5.142 L24.5719524,10.0134286 L9.61909524,24.9710476 Z M3.90480952,21.9705714 L7.71433333,25.7800952 L2.34766667,27.3610476 L3.90480952,21.9705714 Z M28.1481429,1.56580952 C26.0595714,-0.521809524 22.6738571,-0.521809524 20.5862381,1.56580952 L2.82385714,19.3277143 C2.70957143,19.4415238 2.6262381,19.5824762 2.58147619,19.7372381 L0.0381428571,28.494381 C-0.109,28.999619 0.181,29.5281905 0.686238095,29.6753333 C0.860047619,29.7262857 1.04528571,29.7262857 1.21909524,29.6753333 L9.9762381,27.1329524 C10.1314762,27.0877143 10.2719524,27.0039048 10.3857619,26.889619 L28.1481429,9.142 C30.2400476,7.05390476 30.2429048,3.66485714 28.1543333,1.57247619 C28.1524286,1.57057143 28.1500476,1.56819048 28.1481429,1.56580952 L28.1481429,1.56580952 Z" id="Fill-1" fill="#4E5B59"></path>
    </g>
</svg>