<?xml version="1.0" encoding="UTF-8"?>
<svg width="24px" height="24px" viewBox="0 0 24 24" version="1.1" xmlns="http://www.w3.org/2000/svg" xmlns:xlink="http://www.w3.org/1999/xlink">
    <!-- Generator: Sketch 51.3 (57544) - http://www.bohemiancoding.com/sketch -->
    <title>0: Icons / Dark / Phone</title>
    <desc>Created with Sketch.</desc>
    <defs></defs>
    <g id="0:-Icons-/-Dark-/-Phone" stroke="none" stroke-width="1" fill="none" fill-rule="evenodd">
        <path d="M22.1739625,5.99752031 C20.8615526,8.49109916 17.9472305,12.3295122 15.5076921,14.8609193 C12.6952749,17.9026223 6.06528877,22.0621897 6.06528877,22.0621897 C5.5534489,22.3308477 4.13295817,22.3509199 3.74232322,21.9610569 L2.32878054,20.5513743 C2.03696233,20.0634666 1.90572134,19.4983583 2.32878054,19.1416916 L5.15663791,17.0263956 C5.63528152,16.7029252 6.17954563,16.6373047 6.57018059,17.0263956 L8.31259775,18.7634088 C8.72253285,18.4754506 15.2675983,14.1861862 18.9083778,8.28111357 L17.1242723,6.50164012 C16.7336374,6.11254918 16.8000299,5.56905708 17.1242723,5.09118547 L19.2449724,2.27182016 C19.6356073,1.75071623 20.2686521,1.88195722 20.658515,2.27182016 L22.0728297,3.68150282 C22.6271299,4.20183475 22.4665527,5.41465591 22.1739625,5.99752031 L22.1739625,5.99752031 Z M23.2841069,2.67480721 L21.0622741,0.459150469 C20.4493015,-0.153050156 19.4541859,-0.153050156 18.8404413,0.459150469 L15.5076921,4.89046395 C14.9989403,5.64008161 14.8947195,6.49392007 15.5076921,7.10612069 L16.8679664,8.46253494 C15.8597268,9.81354515 14.6492216,11.2865323 13.2866313,12.6452625 C11.7457077,14.1815542 10.0318547,15.5781127 8.4909311,16.7253134 L7.17620516,15.4152195 C6.56323253,14.8030188 5.70707806,14.9064676 4.95437238,15.4152195 L0.510706803,18.7387046 C-0.234278826,19.2520885 -0.103037835,20.3421607 0.510706803,20.9543613 L2.73253959,23.1692461 C3.96002886,24.3936473 5.55576492,24.0014683 7.17620516,23.1692461 C7.17620516,23.1692461 12.0807582,20.4239933 16.2796979,16.2366337 C20.2292798,12.2978599 23.2841069,7.10612069 23.2841069,7.10612069 C23.9210117,5.35907149 24.5115961,3.89843646 23.2841069,2.67480721 L23.2841069,2.67480721 Z" id="Fill-179" fill="#000000"></path>
    </g>
</svg>