<?xml version="1.0" encoding="UTF-8"?>
<svg width="24px" height="24px" viewBox="0 0 24 24" version="1.1" xmlns="http://www.w3.org/2000/svg" xmlns:xlink="http://www.w3.org/1999/xlink">
    <!-- Generator: Sketch 51.3 (57544) - http://www.bohemiancoding.com/sketch -->
    <title>0: Icons / Dark / Photo Camera</title>
    <desc>Created with Sketch.</desc>
    <defs></defs>
    <g id="0:-Icons-/-Dark-/-Photo-Camera" stroke="none" stroke-width="1" fill="none" fill-rule="evenodd">
        <path d="M12,18.5 C9.51525,18.5 7.5,16.48475 7.5,14 C7.5,11.51525 9.51525,9.5 12,9.5 C14.48475,9.5 16.5,11.51525 16.5,14 C16.5,16.48475 14.48475,18.5 12,18.5 L12,18.5 Z M12,8 C8.6865,8 6,10.6865 6,14 C6,17.3135 8.6865,20 12,20 C15.3135,20 18,17.3135 18,14 C18,10.6865 15.3135,8 12,8 L12,8 Z M22.5,20 C22.5,20.828 21.828,21.5 21,21.5 L3,21.5 C2.172,21.5 1.5,20.828 1.5,20 L1.5,8 C1.5,7.172 2.172,6.5 3,6.5 L6,6.5 L6.75,5 C7.28025,4.12775 7.422,3.5 8.25,3.5 L15.75,3.5 C16.578,3.5 16.71975,4.12775 17.25,5 L18,6.5 L21,6.5 C21.828,6.5 22.5,7.172 22.5,8 L22.5,20 L22.5,20 Z M21,5 L18.75,5 L18,3.5 C17.55825,2.62775 17.328,2 16.5,2 L7.5,2 C6.672,2 6.3975,2.7155 6,3.5 L5.25,5 L3,5 C1.34325,5 0,6.34325 0,8 L0,20 C0,21.65675 1.34325,23 3,23 L21,23 C22.65675,23 24,21.65675 24,20 L24,8 C24,6.34325 22.65675,5 21,5 L21,5 Z" id="Fill-149" fill="#000000"></path>
    </g>
</svg>