<?xml version="1.0" encoding="UTF-8"?>
<svg width="24px" height="24px" viewBox="0 0 24 24" version="1.1" xmlns="http://www.w3.org/2000/svg" xmlns:xlink="http://www.w3.org/1999/xlink">
    <!-- Generator: Sketch 51.3 (57544) - http://www.bohemiancoding.com/sketch -->
    <title>0: Icons / Dark / Pie Chart</title>
    <desc>Created with Sketch.</desc>
    <defs></defs>
    <g id="0:-Icons-/-Dark-/-Pie-Chart" stroke="none" stroke-width="1" fill="none" fill-rule="evenodd">
        <path d="M21.41325,16.20975 L11.25,12.75 L11.25,1.5 C17.08425,1.47075 22.41675,6.5115 22.41675,12.42825 C22.41675,13.97175 22.01325,15.1425 21.41325,16.20975 L21.41325,16.20975 Z M10.875,22.5 C5.69775,22.5 1.5,18.303 1.5,13.125 C1.5,8.4075 5.18775,4.4085 9.75,3.75 L9.75,13.82175 L19.28175,17.14125 C18.0135,20.346 14.37225,22.5 10.875,22.5 L10.875,22.5 Z M11.25,0 L9.75,0 L9.75,2.25 C4.29075,2.84175 0,7.5195 0,13.125 C0,19.131 4.869,24 10.875,24 C15.3045,24 19.10925,21.34725 20.8035,17.54775 L22.5,18 C23.31975,16.65375 24,14.74275 24,12.42825 C24,5.56425 18.00375,0 11.25,0 L11.25,0 Z" id="Fill-204" fill="#000000"></path>
    </g>
</svg>