<?xml version="1.0" encoding="UTF-8"?>
<svg width="24px" height="24px" viewBox="0 0 24 24" version="1.1" xmlns="http://www.w3.org/2000/svg" xmlns:xlink="http://www.w3.org/1999/xlink">
    <!-- Generator: Sketch 51.3 (57544) - http://www.bohemiancoding.com/sketch -->
    <title>0: Icons / Dark / Plus</title>
    <desc>Created with Sketch.</desc>
    <defs></defs>
    <g id="0:-Icons-/-Dark-/-Plus" stroke="none" stroke-width="1" fill="none" fill-rule="evenodd">
        <path d="M22.2857143,13.7142857 L13.7142857,13.7142857 L13.7142857,22.2857143 C13.7142857,23.2285714 12.9462857,24 12,24 C11.0537143,24 10.2857143,23.2285714 10.2857143,22.2857143 L10.2857143,13.7142857 L1.71428571,13.7142857 C0.768,13.7142857 0,12.9428571 0,12 C0,11.0571429 0.768,10.2857143 1.71428571,10.2857143 L10.2857143,10.2857143 L10.2857143,1.71428571 C10.2857143,0.771428571 11.0537143,0 12,0 C12.9462857,0 13.7142857,0.771428571 13.7142857,1.71428571 L13.7142857,10.2857143 L22.2857143,10.2857143 C23.232,10.2857143 24,11.0571429 24,12 C24,12.9428571 23.232,13.7142857 22.2857143,13.7142857 L22.2857143,13.7142857 Z" id="Fill-37" fill="#000000"></path>
    </g>
</svg>