<?xml version="1.0" encoding="UTF-8"?>
<svg width="24px" height="24px" viewBox="0 0 24 24" version="1.1" xmlns="http://www.w3.org/2000/svg" xmlns:xlink="http://www.w3.org/1999/xlink">
    <!-- Generator: Sketch 51.3 (57544) - http://www.bohemiancoding.com/sketch -->
    <title>0: Icons / Dark / Presentation</title>
    <desc>Created with Sketch.</desc>
    <defs></defs>
    <g id="0:-Icons-/-Dark-/-Presentation" stroke="none" stroke-width="1" fill="none" fill-rule="evenodd">
        <path d="M21,15.75 C21,16.67175 20.4045,17.25 19.5,17.25 L4.5,17.25 C3.5955,17.25 3,16.67175 3,15.75 C3,15.75 2.98875,2.44275 2.98875,1.4925 L21.01125,1.4925 C21.01125,3.00525 21,15.75 21,15.75 L21,15.75 Z M0,0 L0,1.5 L1.5,1.5 L1.5,15.75 C1.5,17.5275 2.733,18.75 4.5,18.75 L9,18.75 L6,24 L8.259,23.99025 L11.25,18.75 L12.75,18.75 L15.741,23.99025 L18,24 L15,18.75 L19.5,18.75 C21.267,18.75 22.5,17.5275 22.5,15.75 L22.5,1.5 L24,1.5 L24,0 L0,0 L0,0 Z M7.5,15 C7.91475,15 8.25,14.66475 8.25,14.25 L8.25,11.25 C8.25,10.836 7.91475,10.5 7.5,10.5 C7.08525,10.5 6.75,10.836 6.75,11.25 L6.75,14.25 C6.75,14.66475 7.08525,15 7.5,15 L7.5,15 Z M16.5,15 C16.91475,15 17.25,14.66475 17.25,14.25 L17.25,7.5 C17.25,7.086 16.91475,6.75 16.5,6.75 C16.08525,6.75 15.75,7.086 15.75,7.5 L15.75,14.25 C15.75,14.66475 16.08525,15 16.5,15 L16.5,15 Z M12,15 C12.41475,15 12.75,14.66475 12.75,14.25 L12.75,5.25 C12.75,4.836 12.41475,4.5 12,4.5 C11.58525,4.5 11.25,4.836 11.25,5.25 L11.25,14.25 C11.25,14.66475 11.58525,15 12,15 L12,15 Z" id="Fill-205" fill="#000000"></path>
    </g>
</svg>