<svg xmlns="http://www.w3.org/2000/svg" xmlns:xlink="http://www.w3.org/1999/xlink" viewBox="0 0 25 43" version="1.1">
    <!-- Generator: sketchtool 61 (101010) - https://sketch.com -->
    <title>5427C536-6641-4A85-AD57-22B75180782A@1,5x</title>
    <desc>Created with sketchtool.</desc>
    <defs>
        <path d="M13.254166,0.657981452 C14.0472216,0.26265887 14.9194437,-0.213115326 15.7930548,0.10314274 C16.7458325,0.420787903 17.1416659,1.29188468 17.5388881,2.08530404 C17.776388,2.48062662 17.9361103,2.95778791 18.1736102,3.11591695 C18.4111102,3.19498146 18.8874991,3.27404598 19.363888,3.3531105 C20.237499,3.51123953 21.2694434,3.59169114 21.824999,4.3837234 C22.3791656,5.17575567 22.2208323,6.12730406 22.062499,6.99978793 C21.9833323,7.47417503 21.9041656,8.02901374 21.9833323,8.26759439 C22.062499,8.50478794 22.4597212,8.8224331 22.7763878,9.13869117 C23.4124989,9.69352988 24.0472211,10.3288202 24.0472211,11.358046 C24.0472211,12.3886589 23.3319433,13.0225622 22.6972211,13.6564654 C22.3805545,13.9741105 21.9833323,14.2903686 21.9041656,14.5289493 C21.824999,14.8452073 21.9041656,15.3209815 21.9833323,15.7967557 C22.1416656,16.6678525 22.2999989,17.6194009 21.7444434,18.4128202 C21.1888879,19.2048525 20.1583324,19.3629815 19.2847213,19.4420461 C18.8083324,19.4420461 18.3319436,19.5211106 18.0944436,19.6806267 L18.0944436,19.6806267 L18.0152769,19.7596912 L19.5236102,36.48253 L19.5236102,36.7211106 C19.5236102,37.1968848 19.126388,37.5935945 18.6499991,37.5935945 C18.4916658,37.5935945 18.4111102,37.5935945 18.2527769,37.51453 L18.2527769,37.51453 L14.3638882,35.4533042 L13.0152772,36.6420461 L12.3013883,41.1598203 C12.2222216,41.4774655 11.9847217,41.7937236 11.6666661,41.8727881 L11.6666661,41.8727881 L11.4277772,41.8727881 C11.1902772,41.8727881 10.9513884,41.7937236 10.793055,41.55653 L10.793055,41.55653 L7.69861074,38.0693687 L3.8888887,40.4454655 C3.57083316,40.6049816 3.25416651,40.6049816 2.93611097,40.4454655 C2.61944432,40.2873365 2.46111099,39.8920139 2.54027766,39.5743687 L2.54027766,39.5743687 L5.71388862,19.6806267 C5.47638863,19.6015622 5.07916642,19.6015622 4.76111088,19.5211106 C3.8888887,19.3629815 2.85694431,19.283917 2.30138878,18.4918848 C1.74583325,17.6984654 1.90555546,16.7483041 2.06388879,15.8758202 C2.14305545,15.400046 2.22222212,14.8452073 2.14305545,14.6080138 C2.06388879,14.3708202 1.66666659,14.0531751 1.34861105,13.736917 C0.713888855,13.1016267 -8.68441121e-13,12.4677234 -8.68441121e-13,11.4371105 C-8.68441121e-13,10.4078847 0.713888855,9.7725944 1.34861105,9.13869117 C1.66666659,8.8224331 2.06388879,8.50478794 2.14305545,8.26759439 C2.22222212,7.94994923 2.14305545,7.47417503 2.06388879,6.99978793 C1.90555546,6.12730406 1.74583325,5.17575567 2.30138878,4.3837234 C2.85694431,3.59169114 3.8888887,3.43217501 4.76111088,3.3531105 C5.23749975,3.3531105 5.71388862,3.27404598 5.95277749,3.11591695 C6.19027748,2.95778791 6.34861081,2.48062662 6.58749969,2.08530404 C6.983333,1.29188468 7.3805552,0.420787903 8.33333294,0.10314274 C9.28611067,-0.213115326 10.1583328,0.26265887 10.8722217,0.657981452 C11.3486106,0.896562098 11.8249994,1.13375565 12.0624994,1.13375565 C12.380555,1.13375565 12.8569438,0.896562098 13.254166,0.657981452 Z M7.22222233,21.8209167 L4.68194452,37.9098516 L7.538889,36.0872065 C7.85694456,35.8486258 8.41250013,35.9290774 8.65000013,36.2453355 L8.65000013,36.2453355 L10.8722224,39.177658 L11.4277779,36.166271 L13.5708335,22.6129489 C13.4111113,22.5338844 13.252778,22.5338844 13.1736113,22.4548199 C12.6972224,22.2162392 12.3013891,21.9790457 11.9833335,21.9790457 C11.6666668,21.9790457 11.1902779,22.2162392 10.7930557,22.4548199 C10.3958335,22.6920134 9.84027793,23.0096586 9.36388903,23.0887231 L9.36388903,23.0887231 L8.65000013,23.0887231 C8.57083346,23.0887231 8.49166679,23.0096586 8.41250013,23.0096586 L8.41250013,23.0096586 L8.33333346,23.0096586 C8.25416679,23.0096586 8.25416679,22.9292069 8.17361123,22.9292069 L8.17361123,22.9292069 L8.09444457,22.9292069 C8.09444457,22.9292069 8.09444457,22.8501424 8.0152779,22.8501424 C8.0152779,22.7710779 7.93611123,22.7710779 7.93611123,22.7710779 L7.93611123,22.7710779 L7.85694456,22.6920134 C7.85694456,22.6129489 7.7777779,22.6129489 7.7777779,22.6129489 L7.7777779,22.6129489 L7.69861123,22.5338844 L7.538889,22.3757554 L7.45972234,22.2953037 L7.38055567,22.2162392 L7.38055567,22.1371747 C7.38055567,22.0581102 7.301389,22.0581102 7.301389,21.9790457 C7.301389,21.8999812 7.301389,21.8999812 7.22222233,21.8209167 L7.22222233,21.8209167 Z M16.6666665,22.3757562 C16.4277776,22.6129497 16.1902776,22.7710788 15.8722221,22.8501433 C15.6333332,22.8501433 15.4749999,22.9292078 15.3166665,22.9292078 L15.3166665,22.9292078 L13.5708332,33.7887886 L13.5708332,33.9469176 L13.8888888,33.708337 C14.0472221,33.5502079 14.2055554,33.4711434 14.4444443,33.4711434 C14.6027776,33.4711434 14.6819443,33.4711434 14.8402776,33.5502079 L14.8402776,33.5502079 L17.8569443,35.2951757 Z M15.3166665,1.84672347 C15.0791665,1.76765895 14.5236109,2.08530412 14.1263887,2.32249767 C13.4916665,2.64014284 12.7777776,3.03685253 12.0624999,3.03685253 C11.2694443,3.03685253 10.6347221,2.64014284 9.99999991,2.32249767 C9.60277769,2.08530412 8.96805548,1.76765895 8.80833326,1.84672347 C8.57083327,1.92578798 8.33333327,2.55969123 8.09444439,2.95778801 C7.77777773,3.59169125 7.45972218,4.22559449 6.90416663,4.62091708 C6.34861109,5.01762677 5.63472221,5.09669129 4.92083334,5.1757558 C4.44444446,5.25482032 3.80972225,5.33388484 3.65138892,5.49340097 C3.4916667,5.65153001 3.65138892,6.36588486 3.73055558,6.76120745 C3.88888891,7.39511069 4.04722224,8.10807845 3.80972225,8.82243331 C3.57083336,9.45633655 3.01666671,9.93211075 2.54027783,10.407885 C2.14305561,10.724143 1.66666673,11.1999172 1.66666673,11.4371108 C1.66666673,11.6756914 2.22222228,12.1500785 2.54027783,12.4677237 C3.09583337,12.9434979 3.57083336,13.4983366 3.80972225,14.1322399 C3.96805558,14.7661431 3.88888891,15.4791109 3.73055558,16.1934657 C3.65138892,16.5887883 3.57083336,17.3031432 3.65138892,17.4612722 C3.80972225,17.6194013 4.52361112,17.6984658 4.92083334,17.7789174 C5.63472221,17.8579819 6.34861109,18.0161109 6.90416663,18.4128206 C6.9833333,18.4128206 7.14305552,18.5709497 7.22222218,18.6500142 C7.61805551,19.0467239 7.85694439,19.6015626 8.09444439,20.0759497 C8.25416661,20.3935949 8.4916666,20.9484336 8.7291666,21.1079497 C8.7291666,21.1870142 8.80833326,21.1870142 8.80833326,21.1870142 L8.80833326,21.1870142 L8.96805548,21.1870142 C9.28611103,21.1079497 9.60277769,20.9484336 9.99999991,20.71124 C10.6347221,20.3935949 11.348611,19.9968852 12.0624999,19.9968852 C12.8569443,19.9968852 13.4916665,20.3935949 14.1263887,20.71124 C14.4444443,20.8693691 14.6819443,21.0274981 14.9194443,21.1079497 C15.0791665,21.1870142 15.1583331,21.1870142 15.2374998,21.1870142 C15.4749998,21.1079497 15.7930554,20.4726594 15.9513887,20.0759497 C16.1111109,19.6806271 16.2694442,19.3629819 16.5069442,19.0467239 C16.7458331,18.7290787 16.9041664,18.4918851 17.1416664,18.3337561 C17.697222,17.8579819 18.4111109,17.7789174 19.1263886,17.6984658 C19.6027775,17.6194013 20.2374997,17.5403367 20.395833,17.3822077 C20.5541664,17.2240787 20.395833,16.5097238 20.3166664,16.1130141 C20.1583331,15.4791109 19.9999997,14.7661431 20.2374997,14.0531754 C20.4749997,13.4192721 21.0305553,12.9434979 21.5069441,12.4677237 C21.8249997,12.1500785 22.4597219,11.8338205 22.4597219,11.5966269 C22.4597219,11.3580463 21.9041664,10.8822721 21.5861108,10.566014 C21.0305553,10.0902398 20.5541664,9.53540107 20.3166664,8.90149783 C20.1583331,8.26759459 20.2374997,7.55462683 20.395833,6.84027197 C20.4749997,6.44494938 20.5541664,5.73059453 20.4749997,5.57246549 C20.3166664,5.41433645 19.6027775,5.33388484 19.2055553,5.25482032 C18.4916664,5.09669129 17.7763887,5.01762677 17.222222,4.62091708 C16.6666667,4.22559449 16.3486109,3.59169125 16.0319442,2.95778801 C15.7930554,2.55969123 15.5541665,1.92578798 15.3166665,1.84672347 Z M12.1416662,3.90836524 C16.2694438,3.90836524 19.6819437,7.316462 19.7611103,11.4375265 C19.7611103,13.4196878 18.9666659,15.2423329 17.6180549,16.6682684 C17.0624993,17.2231071 16.4277771,17.6988813 15.793055,18.095591 C14.6819439,18.6504297 13.4124995,18.9666877 12.1416662,18.9666877 C10.8722218,18.9666877 9.60277763,18.6504297 8.49166636,18.0165265 C7.7777775,17.6198168 7.22222197,17.1440426 6.66666643,16.5892039 C5.31666649,15.1632684 4.60277763,13.3406233 4.60277763,11.4375265 C4.60277763,7.23739748 8.01527749,3.90836524 12.1416662,3.90836524 Z M12.0624998,5.65194584 C8.88888874,5.65194584 6.26944436,8.26662318 6.26944436,11.4375263 C6.26944436,12.9439134 6.8249999,14.2907843 7.85694432,15.4004617 C8.25416653,15.8762358 8.72916652,16.1924939 9.2055554,16.510139 C10.9513887,17.4616874 13.0944442,17.4616874 14.8402775,16.510139 C15.395833,16.1924939 15.8722219,15.7971713 16.2694444,15.4004617 C17.3805552,14.2907843 17.9361107,12.9439134 17.8569441,11.4375263 C17.8569441,8.18755867 15.2374997,5.65194584 12.0624998,5.65194584 Z" id="path-price"/>
    </defs>
    <g id="price" stroke="none" stroke-width="1" fill="none" fill-rule="evenodd">
        <g id="Icone/Up/price">
            <mask id="mask-price" fill="white">
                <use xlink:href="#path-price"/>
            </mask>
            <g id="Combined-Shape"/>
            <g id="🎨-color-couleur/Gris-U" mask="url(#mask-price)" fill="#4E5B59" fill-rule="nonzero">
                <polygon id="Rectangle" points="0 0 25 0 25 43 0 43"/>
            </g>
        </g>
    </g>
</svg>