<?xml version="1.0" encoding="UTF-8"?>
<svg width="24px" height="24px" viewBox="0 0 24 24" version="1.1" xmlns="http://www.w3.org/2000/svg" xmlns:xlink="http://www.w3.org/1999/xlink">
    <!-- Generator: Sketch 51.3 (57544) - http://www.bohemiancoding.com/sketch -->
    <title>0: Icons / Dark / Printer</title>
    <desc>Created with Sketch.</desc>
    <defs></defs>
    <g id="0:-Icons-/-Dark-/-Printer" stroke="none" stroke-width="1" fill="none" fill-rule="evenodd">
        <path d="M22.5,17.75 C22.5,18.578 21.828,19.25 21,19.25 L19.3935,19.25 C19.05975,17.9585 17.8965,17 16.5,17 L7.5,17 C6.1035,17 4.94025,17.9585 4.6065,19.25 L3,19.25 C2.172,19.25 1.5,18.578 1.5,17.75 L1.5,16.25 C1.5,15.422 2.172,14.75 3,14.75 L21,14.75 C21.828,14.75 22.5,15.422 22.5,16.25 L22.5,17.75 L22.5,17.75 Z M16.5,21.5 L7.5,21.5 C6.672,21.5 6,20.828 6,20 C6,19.172 6.672,18.5 7.5,18.5 L16.5,18.5 C17.328,18.5 18,19.172 18,20 C18,20.828 17.328,21.5 16.5,21.5 L16.5,21.5 Z M6,5 C6,4.172 6.672,3.5 7.5,3.5 L16.5,3.5 C17.328,3.5 18,4.172 18,5 L18,13.25 L6,13.25 L6,5 L6,5 Z M21,13.25 L19.5,13.25 L19.5,5 C19.5,3.34325 18.15675,2 16.5,2 L7.5,2 C5.84325,2 4.5,3.34325 4.5,5 L4.5,13.25 L3,13.25 C1.34325,13.25 0,14.59325 0,16.25 L0,17.75 C0,19.40675 1.34325,20.75 3,20.75 L4.6065,20.75 C4.94025,22.04225 6.1035,23 7.5,23 L16.5,23 C17.8965,23 19.05975,22.04225 19.3935,20.75 L21,20.75 C22.65675,20.75 24,19.40675 24,17.75 L24,16.25 C24,14.59325 22.65675,13.25 21,13.25 L21,13.25 Z" id="Fill-202" fill="#000000"></path>
    </g>
</svg>