<svg xmlns="http://www.w3.org/2000/svg" xmlns:xlink="http://www.w3.org/1999/xlink" width="23px" height="30px" viewBox="0 0 23 30" version="1.1">
    <!-- Generator: Sketch 54 (76480) - https://sketchapp.com -->
    <title>Icone/Foncé/Utilisateur</title>
    <desc>Created with Sketch.</desc>
    <g id="Page-1" stroke="none" stroke-width="1" fill-rule="evenodd">
        <g id="iPhone-8" transform="translate(-30.000000, -343.000000)" fill="">
            <g id="Icone/Foncé/Utilisateur" transform="translate(30.000000, 343.000000)">
                <g id="Plan-de-travail-3">
                    <path d="M11.5,14 C8,14 5,10.14 5,5.74 C5,1.5 8.5,0 11.5,0 C14.5,0 18,1.5 18,5.74 C18,10.14 15,14 11.5,14 Z M11.5,1 C10.58,1 6,1.23 6,5.74 C6,9.61 8.57,13 11.5,13 C14.43,13 17,9.61 17,5.74 C17,1.23 12.42,1 11.5,1 Z" id="Shape" fill-rule="nonzero"/>
                    <path d="M0.5,29 C0.36739614,29.0016165 0.240280335,28.9471383 0.15,28.85 C0.0528616545,28.7597197 -0.00161654756,28.6326039 -2.74221834e-16,28.5 L-2.74221834e-16,22.32 C0.0187703357,19.2548129 2.3163173,16.682932 5.36,16.32 L8,16 C8.1827563,15.9821029 8.36140218,16.0619234 8.47,16.21 C9.20854862,17.1288261 10.3425847,17.6382128 11.52,17.58 C12.705442,17.6390341 13.8472437,17.1257812 14.59,16.2 C14.6875723,16.0725202 14.8394729,15.9984223 15,16 L17.6,16.33 C20.6436827,16.692932 22.9412297,19.2648129 22.96,22.33 L22.96,28.51 C22.96,28.7861424 22.7361424,29.01 22.46,29.01 L0.5,29 Z M7.81,17.05 L5.48,17.34 C2.94341415,17.646056 1.02677938,19.7851574 1,22.34 L1,28 L22,28 L22,22.3 C21.9820522,19.7417352 20.0609534,17.5976517 17.52,17.3 L15.2,17 C14.2526085,18.0409436 12.8968109,18.6146908 11.49,18.57 C10.1011297,18.6199698 8.75877679,18.0655197 7.81,17.05 Z" id="Shape" fill-rule="nonzero"/>
                </g>
            </g>
        </g>
    </g>
</svg>