<svg xmlns="http://www.w3.org/2000/svg" xmlns:xlink="http://www.w3.org/1999/xlink" width="18px" height="23px" viewBox="0 0 18 23" version="1.1">
    <title>0479A891-7284-446C-AE04-978C0BEE1DCE@1,5x</title>
    <g id="Point-de-Livraison" stroke="none" stroke-width="1" fill="none" fill-rule="evenodd">
        <g id="13_002-contact-Existant" transform="translate(-534.000000, -282.000000)" fill="#4E5B59" fill-rule="nonzero">
            <g id="synthèse-commande-copy-3" transform="translate(520.000000, 272.000000)">
                <g id="Icone/Foncé/Localisation" transform="translate(14.066907, 10.000000)">
                    <path d="M13.5375909,10.191736 C15.9822121,10.8621381 17.1868894,13.5396735 17.1868894,16.2506069 L17.1868894,16.2506069 L17.1868894,20.8969902 C17.1868894,20.8969902 13.858197,23.0002444 8.59304394,23.0002444 C3.32949394,23.0002444 1.63424829e-13,20.8969902 1.63424829e-13,20.8969902 L1.63424829e-13,20.8969902 L1.63424829e-13,16.2506069 C1.63424829e-13,13.5478194 1.30967576,11.266986 3.74307576,10.5884381 C4.58867424,12.0603902 6.63173636,13.055811 8.4215197,13.055811 L8.4215197,13.055811 L8.73972121,13.055811 C10.5327106,13.055811 12.6935955,11.6669465 13.5375909,10.191736 Z M13.8525864,11.1676069 C12.6759621,12.7014673 10.5214894,13.8703944 8.73972121,13.8703944 L8.73972121,13.8703944 L8.4215197,13.8703944 C6.51551667,13.8703944 4.52775909,12.9262923 3.43288939,11.5569777 C1.77455455,12.2648506 0.801515152,13.9771048 0.801515152,16.2506069 L0.801515152,16.2506069 L0.801515152,20.4139423 C1.34494242,20.6957881 2.47427727,21.2032735 4.0308197,21.6048631 L4.0308197,21.6048631 L4.0308197,15.8921902 C4.0308197,15.6665506 4.21035909,15.4848985 4.43157727,15.4848985 C4.65279545,15.4848985 4.83233485,15.6665506 4.83233485,15.8921902 L4.83233485,15.8921902 L4.83233485,21.7148319 C4.83233485,21.7417131 4.82191515,21.765336 4.81710606,21.7914027 C5.91277727,22.0211152 7.17756818,22.185661 8.59304394,22.185661 C10.2008833,22.185661 11.6107485,21.9754985 12.7993955,21.6944673 L12.7993955,21.6944673 L12.7993955,15.8921902 C12.7993955,15.6665506 12.9789348,15.4848985 13.200153,15.4848985 C13.4221727,15.4848985 13.6009106,15.6665506 13.6009106,15.8921902 L13.6009106,15.8921902 L13.6009106,21.4924506 C14.9330288,21.1128548 15.8924424,20.6689069 16.3853742,20.4139423 L16.3853742,20.4139423 L16.3853742,16.2506069 C16.3853742,14.3721777 15.7104985,12.0188465 13.8525864,11.1676069 Z M8.43309288,0 C11.3972492,0 13.7997595,2.40268401 13.7997595,5.36627876 C13.7997595,8.33064932 11.3972492,10.7333333 8.43309288,10.7333333 C5.46971233,10.7333333 3.06642621,8.33064932 3.06642621,5.36627876 C3.06642621,2.40268401 5.46971233,0 8.43309288,0 Z M8.43309288,0.775810143 C5.90180734,0.775810143 3.84218028,2.83558607 3.84218028,5.36627876 C3.84218028,7.89852307 5.90180734,9.95752319 8.43309288,9.95752319 C10.9651542,9.95752319 13.0240055,7.89852307 13.0240055,5.36627876 C13.0240055,2.83558607 10.9651542,0.775810143 8.43309288,0.775810143 Z" id="Combined-Shape"/>
                </g>
            </g>
        </g>
    </g>
</svg>