<?xml version="1.0" encoding="utf-8"?>
<!-- Generator: Adobe Illustrator 23.0.1, SVG Export Plug-In . SVG Version: 6.00 Build 0)  -->
<svg version="1.0" id="Calque_1" xmlns="http://www.w3.org/2000/svg" xmlns:xlink="http://www.w3.org/1999/xlink" x="0px" y="0px"
	 viewBox="0 0 21 27" style="enable-background:new 0 0 21 27;" xml:space="preserve">
<path d="M5.4,5.3L5.4,5.3l-3.8,0L0,23.4v0C0,25.4,1.7,27,3.9,27h13.2c2.1,0,3.9-1.6,3.9-3.5L19.4,5.3h-3.8v0c0-2.9-2.3-5.3-5.1-5.3
	S5.4,2.4,5.4,5.3z M15.6,6.6h2.7l1.5,16.9c0,1.2-1.2,2.2-2.6,2.2H3.9c-1.4,0-2.6-1-2.6-2.2L2.7,6.6h2.7 M6.6,6.6h7.7 M10.5,1.3
	c2.1,0,3.9,1.8,3.9,4v0H6.6v0C6.6,3.1,8.4,1.3,10.5,1.3z"/>
</svg>
