<?xml version="1.0" encoding="UTF-8"?>
<svg width="24px" height="24px" viewBox="0 0 24 24" version="1.1" xmlns="http://www.w3.org/2000/svg" xmlns:xlink="http://www.w3.org/1999/xlink">
    <!-- Generator: Sketch 51.3 (57544) - http://www.bohemiancoding.com/sketch -->
    <title>0: Icons / Dark / Purse</title>
    <desc>Created with Sketch.</desc>
    <defs></defs>
    <g id="0:-Icons-/-Dark-/-Purse" stroke="none" stroke-width="1" fill="none" fill-rule="evenodd">
        <path d="M21.9057046,13.5471477 L18.172543,13.5471477 C17.760402,13.5471477 17.4259107,13.881639 17.4259107,14.29378 L17.4259107,17.2803092 C17.4259107,17.6931969 17.760402,18.0269415 18.172543,18.0269415 L21.9057046,18.0269415 L21.9057046,21.7601031 C21.9057046,22.1729907 21.5712133,22.5067354 21.1590723,22.5067354 L3.23989692,22.5067354 C2.82775589,22.5067354 2.49326461,22.1729907 2.49326461,21.7601031 L2.49326461,7.57408926 L21.1590723,7.57408926 C21.5712133,7.57408926 21.9057046,7.9078339 21.9057046,8.32072157 L21.9057046,13.5471477 L21.9057046,13.5471477 Z M21.9057046,15.7870446 L21.9057046,16.5336769 L18.9191754,16.5336769 L18.9191754,15.7870446 L18.9191754,15.0404123 L21.9057046,15.0404123 L21.9057046,15.7870446 L21.9057046,15.7870446 Z M20.41244,1.60103081 L20.41244,6.08082465 L5.85310999,6.08082465 L20.41244,1.60103081 L20.41244,1.60103081 Z M21.9057046,6.08082465 L21.9057046,0.854398505 C21.9057046,0.441510839 21.7294994,0.213041353 21.3457303,0.0614749953 C21.050064,-0.0557462768 20.7626105,0.01443716 20.41244,0.107766198 L1,6.08082465 L1,22.5067354 C1,23.3310175 1.66898255,24 2.49326461,24 L21.9057046,24 C22.7299866,24 23.3989692,23.3310175 23.3989692,22.5067354 L23.3989692,7.57408926 C23.3989692,6.7498072 22.7299866,6.08082465 21.9057046,6.08082465 L21.9057046,6.08082465 Z" id="Fill-89" fill="#000000"></path>
    </g>
</svg>