<?xml version="1.0" encoding="UTF-8"?>
<svg width="24px" height="24px" viewBox="0 0 24 24" version="1.1" xmlns="http://www.w3.org/2000/svg" xmlns:xlink="http://www.w3.org/1999/xlink">
    <!-- Generator: Sketch 51.3 (57544) - http://www.bohemiancoding.com/sketch -->
    <title>0: Icons / Dark / Radio</title>
    <desc>Created with Sketch.</desc>
    <defs></defs>
    <g id="0:-Icons-/-Dark-/-Radio" stroke="none" stroke-width="1" fill="none" fill-rule="evenodd">
        <path d="M22.5,19.0067396 C22.5,19.8347396 21.828,20.5067396 21,20.5067396 L3,20.5067396 C2.172,20.5067396 1.5,19.8347396 1.5,19.0067396 L1.5,8.50673962 C1.5,7.67873962 2.172,7.00673962 3,7.00673962 L21,7.00673962 C21.828,7.00673962 22.5,7.67873962 22.5,8.50673962 L22.5,19.0067396 L22.5,19.0067396 Z M21,5.50673962 L19.425,5.50673962 L11.5245,1.09673962 C11.166,0.897239623 10.707,1.01648962 10.5,1.36073962 C10.293,1.70498962 10.416,2.14523962 10.7745,2.34398962 L16.48125,5.50673962 L3,5.50673962 C1.34325,5.50673962 0,6.84998962 0,8.50673962 L0,19.0067396 C0,20.6634896 1.34325,22.0067396 3,22.0067396 L21,22.0067396 C22.65675,22.0067396 24,20.6634896 24,19.0067396 L24,8.50673962 C24,6.84998962 22.65675,5.50673962 21,5.50673962 L21,5.50673962 Z M15.75,16.7567396 C14.09325,16.7567396 12.75,15.4134896 12.75,13.7567396 C12.75,12.0999896 14.09325,10.7567396 15.75,10.7567396 C17.40675,10.7567396 18.75,12.0999896 18.75,13.7567396 C18.75,15.4134896 17.40675,16.7567396 15.75,16.7567396 L15.75,16.7567396 Z M15.75,9.25673962 C13.26525,9.25673962 11.25,11.2719896 11.25,13.7567396 C11.25,16.2422396 13.26525,18.2567396 15.75,18.2567396 C18.23475,18.2567396 20.25,16.2422396 20.25,13.7567396 C20.25,11.2719896 18.23475,9.25673962 15.75,9.25673962 L15.75,9.25673962 Z M8.25,13.0067396 L3.75,13.0067396 C3.33525,13.0067396 3,13.3419896 3,13.7567396 C3,14.1714896 3.33525,14.5067396 3.75,14.5067396 L8.25,14.5067396 C8.66475,14.5067396 9,14.1714896 9,13.7567396 C9,13.3419896 8.66475,13.0067396 8.25,13.0067396 L8.25,13.0067396 Z M8.25,16.0067396 L3.75,16.0067396 C3.33525,16.0067396 3,16.3427396 3,16.7567396 C3,17.1714896 3.33525,17.5067396 3.75,17.5067396 L8.25,17.5067396 C8.66475,17.5067396 9,17.1714896 9,16.7567396 C9,16.3427396 8.66475,16.0067396 8.25,16.0067396 L8.25,16.0067396 Z M8.25,10.0067396 L3.75,10.0067396 C3.33525,10.0067396 3,10.3419896 3,10.7567396 C3,11.1714896 3.33525,11.5067396 3.75,11.5067396 L8.25,11.5067396 C8.66475,11.5067396 9,11.1714896 9,10.7567396 C9,10.3419896 8.66475,10.0067396 8.25,10.0067396 L8.25,10.0067396 Z" id="Fill-138" fill="#000000"></path>
    </g>
</svg>