<?xml version="1.0" encoding="UTF-8"?>
<svg width="24px" height="24px" viewBox="0 0 24 24" version="1.1" xmlns="http://www.w3.org/2000/svg" xmlns:xlink="http://www.w3.org/1999/xlink">
    <!-- Generator: Sketch 51.3 (57544) - http://www.bohemiancoding.com/sketch -->
    <title>0: Icons / Dark / Repeat</title>
    <desc>Created with Sketch.</desc>
    <defs></defs>
    <g id="0:-Icons-/-Dark-/-Repeat" stroke="none" stroke-width="1" fill="none" fill-rule="evenodd">
        <path d="M23.7541377,10.2450941 L21.6231556,10.2450941 C20.899836,5.57687175 16.8717327,2 11.9966334,2 C8.23762002,2 4.98080783,4.12798384 3.35202696,7.24013211 L4.74919564,7.79854985 C6.15011209,5.23657423 8.87024361,3.49910803 11.9966334,3.49910803 C16.0419764,3.49910803 19.4007279,6.40812715 20.1075574,10.2450941 L17.5470809,10.2450941 C17.3147191,10.4707099 17.0928511,10.6093774 17.4256531,10.999895 L20.2214896,13.843703 C20.4538513,14.0685692 20.8293779,14.0685692 21.0602405,13.843703 L23.8755654,10.999895 C24.1071776,10.7742793 23.9857498,10.4707099 23.7541377,10.2450941 L23.7541377,10.2450941 Z M11.9966334,19.9892963 C8.21963073,19.9892963 5.03927305,17.4528055 4.0603555,13.9928642 L6.4971556,13.9928642 C6.72951735,13.767998 6.85019554,13.4636791 6.61933291,13.2388129 L3.80400803,10.3942554 C3.57239584,10.1693892 3.19686928,10.1693892 2.96525709,10.3942554 L0.168671066,13.2388129 C-0.163381362,13.6293305 0.0584866261,13.767998 0.290098816,13.9928642 L2.52451933,13.9928642 C3.54091457,18.2878087 7.38687622,21.4884044 11.9966334,21.4884044 C15.5045462,21.4884044 18.5702221,19.6325086 20.2889495,16.8561605 L18.8775392,16.2924959 C17.4001683,18.5194209 14.871173,19.9892963 11.9966334,19.9892963 L11.9966334,19.9892963 Z" id="Fill-116" fill="#000000"></path>
    </g>
</svg>