<?xml version="1.0" encoding="UTF-8"?>
<svg width="24px" height="24px" viewBox="0 0 24 24" version="1.1" xmlns="http://www.w3.org/2000/svg" xmlns:xlink="http://www.w3.org/1999/xlink">
    <!-- Generator: Sketch 51.3 (57544) - http://www.bohemiancoding.com/sketch -->
    <title>0: Icons / Dark / Rewind</title>
    <desc>Created with Sketch.</desc>
    <defs></defs>
    <g id="0:-Icons-/-Dark-/-Rewind" stroke="none" stroke-width="1" fill="none" fill-rule="evenodd">
        <path d="M22.4982059,20.904265 L13.4898492,14.6047148 L13.4898492,20.904265 L1.47945685,12.5048648 L13.4898492,4.10546457 L13.4898492,10.4050147 L22.4982059,4.10546457 L22.4982059,20.904265 L22.4982059,20.904265 Z M22.1869782,2.2845946 L14.991242,7.44797589 L14.991242,3.46876004 C14.991242,1.7243846 14.0238111,1.83162694 13.1793714,2.2845946 L0.439281132,11.4256918 C-0.146427044,12.0211493 -0.146427044,12.9885802 0.439281132,13.5847877 L13.1793714,22.725135 C13.9533161,23.2260992 14.991242,22.9808667 14.991242,21.4937229 L14.991242,17.5625036 L22.1869782,22.725135 C22.9609229,23.2260992 23.9756004,23.0041151 23.9995987,21.4704746 L23.9995987,3.51600666 C24.0228471,1.81812791 23.0314179,1.83162694 22.1869782,2.2845946 L22.1869782,2.2845946 Z" id="Fill-122" fill="#000000"></path>
    </g>
</svg>