<svg xmlns="http://www.w3.org/2000/svg" xmlns:xlink="http://www.w3.org/1999/xlink" width="30px" height="31px" viewBox="0 0 30 31" version="1.1">
    <title>CE64178D-048C-451D-98EC-016E38DD1F10@1,5x</title>
    <g id="Compte-client" stroke="none" stroke-width="1" fill="none" fill-rule="evenodd">
        <g id="11_01-Compte" transform="translate(-356.000000, -644.000000)" fill="#4E5B59" fill-rule="nonzero">
            <g id="RIB" transform="translate(341.000000, 575.000000)">
                <g id="L1" transform="translate(14.999700, 62.000000)">
                    <g id="-Icone-/-V2-/Coffre" transform="translate(0.000000, 7.500600)">
                        <path d="M27.273,0 C28.779,0 30,1.22 30,2.727 L30,2.727 L30,27.272 C30,28.778 28.779,30 27.273,30 L27.273,30 L2.728,30 C1.222,30 0,28.778 0,27.272 L0,27.272 L0,2.727 C0,1.22 1.222,0 2.728,0 L2.728,0 Z M27.273,1 L2.728,1 C1.775,1 1,1.774 1,2.727 L1,2.727 L1,27.272 C1,28.224 1.775,29 2.728,29 L2.728,29 L27.273,29 C28.226,29 29,28.224 29,27.272 L29,27.272 L29,2.727 C29,1.774 28.226,1 27.273,1 L27.273,1 Z M25.1851,3.2951 C26.0221,3.2951 26.7041,3.9771 26.7041,4.8141 L26.7041,4.8141 L26.7041,25.1851 C26.7041,26.0221 26.0221,26.7041 25.1851,26.7041 L25.1851,26.7041 L4.8141,26.7041 C3.9771,26.7041 3.2961,26.0221 3.2961,25.1851 L3.2961,25.1851 L3.2961,23.5831 C2.7091,23.3441 2.3501,22.7181 2.4721,22.0711 C2.5601,21.5991 2.8831,21.2311 3.2961,21.0611 L3.2961,21.0611 L3.2961,9.9461 C2.7991,9.7421 2.4481,9.2551 2.4481,8.6851 C2.4481,8.1151 2.7991,7.6271 3.2961,7.4241 L3.2961,7.4241 L3.2961,4.8141 C3.2961,3.9771 3.9771,3.2951 4.8141,3.2951 L4.8141,3.2951 Z M25.1851,4.2951 L4.8141,4.2951 C4.5281,4.2951 4.2961,4.5281 4.2961,4.8141 L4.2961,4.8141 L4.2961,7.4141 C4.8091,7.6101 5.1761,8.1031 5.1761,8.6851 C5.1761,9.2671 4.8091,9.7601 4.2961,9.9561 L4.2961,9.9561 L4.2961,21.0491 C4.9011,21.2791 5.2761,21.9131 5.1521,22.5721 C5.0621,23.0561 4.7251,23.4281 4.2961,23.5911 L4.2961,23.5911 L4.2961,25.1851 C4.2961,25.4711 4.5281,25.7041 4.8141,25.7041 L4.8141,25.7041 L25.1851,25.7041 C25.4721,25.7041 25.7041,25.4711 25.7041,25.1851 L25.7041,25.1851 L25.7041,4.8141 C25.7041,4.5281 25.4721,4.2951 25.1851,4.2951 L25.1851,4.2951 Z M14.3955,7.5212 C14.6345,7.5212 14.8285,7.7142 14.8285,7.9532 L14.8285,7.9532 L14.8285,11.6882 C16.1695,11.8762 17.2385,12.9102 17.4685,14.2382 C17.4905,14.2352 17.5105,14.2252 17.5335,14.2252 L17.5335,14.2252 L21.6245,14.2252 C21.8635,14.2252 22.0565,14.4182 22.0565,14.6582 C22.0565,14.8972 21.8635,15.0902 21.6245,15.0902 L21.6245,15.0902 L17.5335,15.0902 C17.5185,15.0902 17.5055,15.0832 17.4915,15.0812 C17.3475,16.5152 16.2445,17.6582 14.8285,17.8562 L14.8285,17.8562 L14.8285,21.9362 C14.8285,22.1752 14.6345,22.3692 14.3955,22.3692 C14.1565,22.3692 13.9625,22.1752 13.9625,21.9362 L13.9625,21.9362 L13.9625,17.8562 C12.5485,17.6582 11.4475,16.5202 11.2995,15.0902 L11.2995,15.0902 L7.3055,15.0902 C7.0665,15.0902 6.8735,14.8972 6.8735,14.6582 C6.8735,14.4182 7.0665,14.2252 7.3055,14.2252 L7.3055,14.2252 L11.3235,14.2252 C11.5585,12.9032 12.6245,11.8752 13.9625,11.6882 L13.9625,11.6882 L13.9625,7.9532 C13.9625,7.7142 14.1565,7.5212 14.3955,7.5212 Z M14.5015,12.4552 C14.4665,12.4642 14.4335,12.4772 14.3955,12.4772 C14.3575,12.4772 14.3245,12.4642 14.2895,12.4552 C13.0565,12.5122 12.0685,13.5252 12.0685,14.7722 C12.0685,16.0552 13.1125,17.0992 14.3955,17.0992 C15.6785,17.0992 16.7215,16.0552 16.7215,14.7722 C16.7215,13.5252 15.7345,12.5122 14.5015,12.4552 Z" id="Combined-Shape"/>
                    </g>
                </g>
            </g>
        </g>
    </g>
</svg>