<?xml version="1.0" encoding="UTF-8"?>
<svg width="24px" height="24px" viewBox="0 0 24 24" version="1.1" xmlns="http://www.w3.org/2000/svg" xmlns:xlink="http://www.w3.org/1999/xlink">
    <!-- Generator: Sketch 51.3 (57544) - http://www.bohemiancoding.com/sketch -->
    <title>0: Icons / Dark / Sandclock</title>
    <desc>Created with Sketch.</desc>
    <defs></defs>
    <g id="0:-Icons-/-Dark-/-Sandclock" stroke="none" stroke-width="1" fill="none" fill-rule="evenodd">
        <path d="M16.75,22.5 L7.75,22.5 L7.75,17.25 C7.75,15.1785 9.51325,13.5 11.6875,13.5 L12.8125,13.5 C14.98675,13.5 16.75,15.1785 16.75,17.25 L16.75,22.5 L16.75,22.5 Z M7.75,6.75 L7.75,1.5 L16.75,1.5 L16.75,6.75 C16.75,8.8215 14.98675,10.5 12.8125,10.5 L11.6875,10.5 C9.51325,10.5 7.75,8.8215 7.75,6.75 L7.75,6.75 Z M19.75,22.5 L18.25,22.5 L18.25,17.25 C18.25,14.3505 15.8995,12 13,12 C15.8995,12 18.25,9.6495 18.25,6.75 L18.25,1.5 L19.75,1.5 C20.16475,1.5 20.5,1.16475 20.5,0.75 C20.5,0.336 20.16475,0 19.75,0 L4.75,0 C4.33525,0 4,0.336 4,0.75 C4,1.16475 4.33525,1.5 4.75,1.5 L6.25,1.5 L6.25,6.75 C6.25,9.6495 8.6005,12 11.5,12 C8.6005,12 6.25,14.3505 6.25,17.25 L6.25,22.5 L4.75,22.5 C4.33525,22.5 4,22.836 4,23.25 C4,23.66475 4.33525,24 4.75,24 L19.75,24 C20.16475,24 20.5,23.66475 20.5,23.25 C20.5,22.836 20.16475,22.5 19.75,22.5 L19.75,22.5 Z" id="Fill-163" fill="#000000"></path>
    </g>
</svg>