<?xml version="1.0" encoding="UTF-8"?>
<svg width="24px" height="24px" viewBox="0 0 24 24" version="1.1" xmlns="http://www.w3.org/2000/svg" xmlns:xlink="http://www.w3.org/1999/xlink">
    <!-- Generator: Sketch 51.3 (57544) - http://www.bohemiancoding.com/sketch -->
    <title>0: Icons / Dark / Scale Up</title>
    <desc>Created with Sketch.</desc>
    <defs></defs>
    <g id="0:-Icons-/-Dark-/-Scale-Up" stroke="none" stroke-width="1" fill="none" fill-rule="evenodd">
        <path d="M22.2857129,20.5714288 C22.2857129,21.503143 21.5031415,22.2857144 20.5714273,22.2857144 L3.37285694,22.3140001 C2.44114271,22.3140001 1.6859999,21.5588573 1.6859999,20.6271431 L1.71428561,3.42857269 C1.71428561,2.49685846 2.49685699,1.71428708 3.42857122,1.71428708 L12.8571421,1.71428708 L12.8571421,1.47486976e-06 L3.42857122,1.47486976e-06 C1.5659999,1.47486976e-06 0,1.90371564 0,3.76628696 L0,20.6271431 C0,22.4897144 1.51028562,24 3.37285694,24 L20.233713,24 C22.0962844,24 23.9999985,22.4340001 23.9999985,20.5714288 L23.9999985,11.1428579 L22.2857129,11.1428579 L22.2857129,20.5714288 L22.2857129,20.5714288 Z M23.1248557,1.47486976e-06 L17.1428561,1.47486976e-06 C16.6568561,0.000858617674 16.2865704,0.393430022 16.2857133,0.857144279 C16.2848561,1.32085854 16.6568561,1.71514423 17.1428561,1.71428708 L20.9099987,1.68685851 L7.97828522,14.0202863 C7.6354281,14.3468577 7.6354281,14.8757148 7.97828522,15.2022863 C8.31942806,15.5288577 8.8748566,15.5288577 9.21685658,15.2022863 L22.2608558,2.76171559 L22.2857129,6.85714391 C22.2848558,7.32085817 22.6568558,7.71514386 23.1428557,7.71428672 C23.6288557,7.71342957 23.9991414,7.32085817 23.9999985,6.85714391 L23.9999985,0.835715709 C24.0008557,0.372001452 23.6108557,-0.000855667935 23.1248557,1.47486976e-06 L23.1248557,1.47486976e-06 Z" id="Fill-58" fill="#000000"></path>
    </g>
</svg>