<?xml version="1.0" encoding="UTF-8"?>
<svg width="24px" height="24px" viewBox="0 0 24 24" version="1.1" xmlns="http://www.w3.org/2000/svg" xmlns:xlink="http://www.w3.org/1999/xlink">
    <!-- Generator: Sketch 51.3 (57544) - http://www.bohemiancoding.com/sketch -->
    <title>0: Icons / Dark / Scale Down</title>
    <desc>Created with Sketch.</desc>
    <defs></defs>
    <g id="0:-Icons-/-Dark-/-Scale-Down" stroke="none" stroke-width="1" fill="none" fill-rule="evenodd">
        <path d="M9.42857143,9.42857143 C9.42942857,8.95285714 9.04714286,8.57057143 8.57142857,8.57142857 C8.09571429,8.57228571 7.71514286,8.95285714 7.71428571,9.42857143 L7.71428571,15.4285714 C7.71428571,15.9042857 8.09571429,16.2865714 8.57142857,16.2857143 L14.5714286,16.2857143 C15.0471429,16.2848571 15.4277143,15.9051429 15.4285714,15.4285714 C15.4294286,14.952 15.0471429,14.5705714 14.5714286,14.5714286 L10.722,14.5714286 L23.394,1.90028571 C23.7291429,1.56514286 23.7291429,1.02171429 23.394,0.687428571 C23.0588571,0.353142857 22.5162857,0.353142857 22.182,0.687428571 L9.42857143,13.4408571 L9.42857143,9.42857143 L9.42857143,9.42857143 Z M22.2857143,11.1428571 L22.2857143,20.5714286 C22.2857143,21.5031429 21.5022857,22.2857143 20.5714286,22.2857143 L3.37285714,22.314 C2.44114286,22.314 1.686,21.5588571 1.686,20.6271429 L1.71428571,3.42857143 C1.71428571,2.49685714 2.49771429,1.71428571 3.42857143,1.71428571 L12.8571429,1.71428571 L12.8571429,0 L3.42857143,0 C1.566,0 0,1.90371429 0,3.76628571 L0,20.6271429 C0,22.4897143 1.51028571,24 3.37285714,24 L20.2337143,24 C22.0962857,24 24,22.434 24,20.5714286 L24,11.1428571 L22.2857143,11.1428571 L22.2857143,11.1428571 Z" id="Fill-59" fill="#000000"></path>
    </g>
</svg>