<?xml version="1.0" encoding="UTF-8"?>
<svg width="24px" height="24px" viewBox="0 0 24 24" version="1.1" xmlns="http://www.w3.org/2000/svg" xmlns:xlink="http://www.w3.org/1999/xlink">
    <!-- Generator: Sketch 51.3 (57544) - http://www.bohemiancoding.com/sketch -->
    <title>0: Icons / Dark / Scale</title>
    <desc>Created with Sketch.</desc>
    <defs></defs>
    <g id="0:-Icons-/-Dark-/-Scale" stroke="none" stroke-width="1" fill="none" fill-rule="evenodd">
        <path d="M21,22.5 C20.172,22.5 19.5,21.828 19.5,21 C19.5,20.172 20.172,19.5 21,19.5 C21.828,19.5 22.5,20.172 22.5,21 C22.5,21.828 21.828,22.5 21,22.5 L21,22.5 Z M18.1065,20.25 L5.8935,20.25 C5.622,19.2 4.80075,18.37875 3.75,18.1065 L3.75,5.8935 C4.80075,5.622 5.622,4.8 5.8935,3.75 L18.1065,3.75 C18.378,4.8 19.19925,5.622 20.25,5.8935 L20.25,18.1065 C19.19925,18.37875 18.378,19.2 18.1065,20.25 L18.1065,20.25 Z M3,22.5 C2.172,22.5 1.5,21.828 1.5,21 C1.5,20.172 2.172,19.5 3,19.5 C3.828,19.5 4.5,20.172 4.5,21 C4.5,21.828 3.828,22.5 3,22.5 L3,22.5 Z M1.5,3 C1.5,2.172 2.172,1.5 3,1.5 C3.828,1.5 4.5,2.172 4.5,3 C4.5,3.828 3.828,4.5 3,4.5 C2.172,4.5 1.5,3.828 1.5,3 L1.5,3 Z M21,1.5 C21.828,1.5 22.5,2.172 22.5,3 C22.5,3.828 21.828,4.5 21,4.5 C20.172,4.5 19.5,3.828 19.5,3 C19.5,2.172 20.172,1.5 21,1.5 L21,1.5 Z M21.75,18.1065 L21.75,5.8935 C23.0415,5.55975 24,4.3965 24,3 C24,1.34325 22.65675,0 21,0 C19.6035,0 18.44025,0.9585 18.1065,2.25 L5.8935,2.25 C5.55975,0.9585 4.3965,0 3,0 C1.34325,0 0,1.34325 0,3 C0,4.3965 0.9585,5.55975 2.25,5.8935 L2.25,18.1065 C0.9585,18.441 0,19.60425 0,21 C0,22.65675 1.34325,24 3,24 C4.3965,24 5.55975,23.04225 5.8935,21.75 L18.1065,21.75 C18.44025,23.04225 19.6035,24 21,24 C22.65675,24 24,22.65675 24,21 C24,19.60425 23.0415,18.441 21.75,18.1065 L21.75,18.1065 Z" id="Fill-69" fill="#000000"></path>
    </g>
</svg>