<svg xmlns="http://www.w3.org/2000/svg" xmlns:xlink="http://www.w3.org/1999/xlink" width="14px" height="14px" viewBox="0 0 14 14" version="1.1">
    <!-- Generator: sketchtool 63.1 (101010) - https://sketch.com -->
    <title>B97338C2-2D5F-4ACA-AD3B-39D2E9BC1560@1,5x</title>
    <desc>Created with sketchtool.</desc>
    <g id="Master-Page" stroke="none" stroke-width="1" fill="none" fill-rule="evenodd">
        <g id="Mahmoud-Compo" transform="translate(-423.000000, -431.000000)" fill="#979797">
            <g id="Formulaire/Elements-de-base/input/Recherche/renseigné" transform="translate(408.000000, 416.000000)">
                <g id="Group-2">
                    <g id="Placeholder" transform="translate(15.000000, 15.000000)">
                        <path d="M9.22217758,3.03262628 C7.51263244,1.32308115 4.74217142,1.32308115 3.03262628,3.03262628 C1.32308115,4.74217142 1.32308115,7.51263244 3.03262628,9.22217758 C4.74217142,10.9317227 7.51263244,10.9317227 9.22217758,9.22217758 C10.9317227,7.51263244 10.9317227,4.74217142 9.22217758,3.03262628 M13.7739619,13.7739619 C13.4317027,14.1153457 12.8776105,14.1153457 12.5353513,13.7739619 L9.77889581,11.016631 C7.37870494,12.8110844 3.97537084,12.6412679 1.79489109,10.4599128 C-0.598297031,8.06759998 -0.598297031,4.18807922 1.79489109,1.79489109 C4.18720388,-0.598297031 8.06759998,-0.598297031 10.4599128,1.79489109 C12.6412679,3.97537084 12.8110844,7.37870494 11.016631,9.77889581 L13.7739619,12.5362267 C14.1153457,12.8776105 14.1153457,13.4317027 13.7739619,13.7739619" id="Search-icon"/>
                    </g>
                </g>
            </g>
        </g>
    </g>
</svg>