<?xml version="1.0" encoding="UTF-8"?>
<svg width="24px" height="24px" viewBox="0 0 24 24" version="1.1" xmlns="http://www.w3.org/2000/svg" xmlns:xlink="http://www.w3.org/1999/xlink">
    <!-- Generator: Sketch 51.3 (57544) - http://www.bohemiancoding.com/sketch -->
    <title>0: Icons / Dark / Send</title>
    <desc>Created with Sketch.</desc>
    <defs></defs>
    <g id="0:-Icons-/-Dark-/-Send" stroke="none" stroke-width="1" fill="none" fill-rule="evenodd">
        <path d="M11.9709228,21.0072693 C11.9709228,21.0072693 9.63060736,16.5002169 8.97819207,15.0218079 L21.0052285,3.63371948 L11.9709228,21.0072693 L11.9709228,21.0072693 Z M2.99273069,11.2808946 L20.2009321,3.05088518 L8.23000939,14.2736253 C8.22701666,14.2706325 2.99273069,11.2808946 2.99273069,11.2808946 L2.99273069,11.2808946 Z M23.1936628,0.0581544891 C22.3287637,0.479381334 0,11.2808946 0,11.2808946 C0,11.2808946 7.52073222,15.8141334 7.48182672,15.7699906 C7.46910762,15.7557751 11.9709228,24 11.9709228,24 C11.9709228,24 23.7547998,1.1804285 23.9418455,0.806337161 C24.1056975,0.338722991 23.7547998,-0.175278505 23.1936628,0.0581544891 L23.1936628,0.0581544891 Z" id="Fill-183" fill="#000000"></path>
    </g>
</svg>