<?xml version="1.0" encoding="UTF-8"?>
<svg width="24px" height="24px" viewBox="0 0 24 24" version="1.1" xmlns="http://www.w3.org/2000/svg" xmlns:xlink="http://www.w3.org/1999/xlink">
    <!-- Generator: Sketch 51.3 (57544) - http://www.bohemiancoding.com/sketch -->
    <title>0: Icons / Dark / Settings</title>
    <desc>Created with Sketch.</desc>
    <defs></defs>
    <g id="0:-Icons-/-Dark-/-Settings" stroke="none" stroke-width="1" fill="none" fill-rule="evenodd">
        <path d="M22.0163098,16.9078704 L21.2226783,18.2935254 C21.0034697,18.6767406 20.5186504,18.8071458 20.1386354,18.586337 L17.934548,17.3030861 C16.8161036,18.5759366 15.3032436,19.4879727 13.5863755,19.8399867 L13.5863755,21.6008565 C13.5863755,22.0432741 13.2319615,22.4008883 12.7935441,22.4008883 L11.2062812,22.4008883 C10.7678638,22.4008883 10.4134497,22.0432741 10.4134497,21.6008565 L10.4134497,19.8399867 C8.69658165,19.4879727 7.18372167,18.5759366 6.06527732,17.3030861 L3.86118992,18.586337 C3.48117485,18.8071458 2.99635563,18.6767406 2.77714693,18.2935254 L1.98351546,16.9078704 C1.76430677,16.5254553 1.89471194,16.0358359 2.27392698,15.8158271 L4.48681473,14.526176 C4.22360429,13.7309445 4.06599804,12.8853109 4.06599804,12.0004759 C4.06599804,11.1156408 4.22360429,10.2708073 4.48681473,9.4747757 L2.27392698,8.18592459 C1.89471194,7.96511584 1.76430677,7.47629645 1.98351546,7.09308126 L2.77714693,5.70742631 C2.99635563,5.32501115 3.48117485,5.19380595 3.86118992,5.4146147 L6.06527732,6.69786559 C7.18372167,5.42501512 8.69658165,4.51297895 10.4134497,4.16096499 L10.4134497,2.40009517 C10.4134497,1.95767763 10.7678638,1.60006345 11.2062812,1.60006345 L12.7935441,1.60006345 C13.2319615,1.60006345 13.5863755,1.95767763 13.5863755,2.40009517 L13.5863755,4.16096499 C15.3032436,4.51297895 16.8161036,5.42501512 17.934548,6.69786559 L20.1386354,5.4146147 C20.5186504,5.19380595 21.0034697,5.32501115 21.2226783,5.70742631 L22.0163098,7.09308126 C22.2355185,7.47629645 22.1051133,7.96511584 21.7258983,8.18592459 L19.5130106,9.4747757 C19.776221,10.2708073 19.9338272,11.1156408 19.9338272,12.0004759 C19.9338272,12.8853109 19.776221,13.7309445 19.5130106,14.526176 L21.7258983,15.8158271 C22.1051133,16.0358359 22.2355185,16.5254553 22.0163098,16.9078704 L22.0163098,16.9078704 Z M23.206757,14.829388 L21.3482833,13.7477451 C21.4522875,13.1797226 21.5210902,12.5996996 21.5210902,12.0004759 C21.5210902,11.4020521 21.4522875,10.8212291 21.3482833,10.2532066 L23.206757,9.17156368 C23.9659871,8.72994617 24.2251974,7.75070734 23.78678,6.98587701 L22.2003171,4.21456712 C21.7626998,3.44973679 20.7914612,3.18652635 20.0330312,3.6289439 L18.1553567,4.7209872 C17.278522,3.96895738 16.2816824,3.35373298 15.1736385,2.95771728 L15.1736385,1.60006345 C15.1736385,0.716828424 14.4632103,0 13.5863755,0 L10.4134497,0 C9.53661496,0 8.82618679,0.716828424 8.82618679,1.60006345 L8.82618679,2.95771728 C7.71814286,3.35373298 6.72130333,3.96895738 5.84446856,4.7209872 L3.96679411,3.6289439 C3.20836403,3.18652635 2.23712552,3.44973679 1.79950817,4.21456712 L0.21304526,6.98587701 C-0.225372124,7.75070734 0.0346381857,8.72994617 0.793068259,9.17156368 L2.65154195,10.2532066 C2.54753783,10.8212291 2.4787351,11.4020521 2.4787351,12.0004759 C2.4787351,12.5996996 2.54753783,13.1797226 2.65154195,13.7477451 L0.793068259,14.829388 C0.0346381857,15.2710055 -0.225372124,16.2502444 0.21304526,17.0150747 L1.79950817,19.7863846 C2.23712552,20.5512149 3.20836403,20.8144253 3.96679411,20.3720078 L5.84446856,19.2799645 C6.72130333,20.0319943 7.71814286,20.6480187 8.82618679,21.0432344 L8.82618679,22.4008883 C8.82618679,23.2841233 9.53661496,24.0009517 10.4134497,24.0009517 L13.5863755,24.0009517 C14.4632103,24.0009517 15.1736385,23.2841233 15.1736385,22.4008883 L15.1736385,21.0432344 C16.2816824,20.6480187 17.278522,20.0319943 18.1553567,19.2799645 L20.0330312,20.3720078 C20.7914612,20.8144253 21.7626998,20.5512149 22.2003171,19.7863846 L23.78678,17.0150747 C24.2251974,16.2502444 23.9659871,15.2710055 23.206757,14.829388 L23.206757,14.829388 Z M11.9999126,14.400571 C10.6854605,14.400571 9.61981826,13.3261284 9.61981826,12.0004759 C9.61981826,10.6756233 10.6854605,9.60038068 11.9999126,9.60038068 C13.3143648,9.60038068 14.380007,10.6756233 14.380007,12.0004759 C14.380007,13.3261284 13.3143648,14.400571 11.9999126,14.400571 L11.9999126,14.400571 Z M11.9999126,8.00031723 C9.80862575,8.00031723 8.03335536,9.79078823 8.03335536,12.0004759 C8.03335536,14.2101635 9.80862575,16.0006345 11.9999126,16.0006345 C14.1911995,16.0006345 15.96727,14.2101635 15.96727,12.0004759 C15.96727,9.79078823 14.1911995,8.00031723 11.9999126,8.00031723 L11.9999126,8.00031723 Z" id="Fill-172" fill="#000000"></path>
    </g>
</svg>