<?xml version="1.0" encoding="UTF-8"?>
<svg width="24px" height="24px" viewBox="0 0 24 24" version="1.1" xmlns="http://www.w3.org/2000/svg" xmlns:xlink="http://www.w3.org/1999/xlink">
    <!-- Generator: Sketch 51.3 (57544) - http://www.bohemiancoding.com/sketch -->
    <title>0: Icons / Dark / Share</title>
    <desc>Created with Sketch.</desc>
    <defs></defs>
    <g id="0:-Icons-/-Dark-/-Share" stroke="none" stroke-width="1" fill="none" fill-rule="evenodd">
        <path d="M18.5384615,22.1538462 C17.0089231,22.1538462 15.7692308,20.9141538 15.7692308,19.3846154 C15.7692308,17.8550769 17.0089231,16.6153846 18.5384615,16.6153846 C20.068,16.6153846 21.3076923,17.8550769 21.3076923,19.3846154 C21.3076923,20.9141538 20.068,22.1538462 18.5384615,22.1538462 L18.5384615,22.1538462 Z M5.61538462,14.7692308 C4.08584615,14.7692308 2.84615385,13.5295385 2.84615385,12 C2.84615385,10.4713846 4.08584615,9.23076923 5.61538462,9.23076923 C7.14492308,9.23076923 8.38461538,10.4713846 8.38461538,12 C8.38461538,13.5295385 7.14492308,14.7692308 5.61538462,14.7692308 L5.61538462,14.7692308 Z M18.5384615,1.84615385 C20.068,1.84615385 21.3076923,3.08584615 21.3076923,4.61538462 C21.3076923,6.14492308 20.068,7.38461538 18.5384615,7.38461538 C17.0089231,7.38461538 15.7692308,6.14492308 15.7692308,4.61538462 C15.7692308,3.08584615 17.0089231,1.84615385 18.5384615,1.84615385 L18.5384615,1.84615385 Z M18.5384615,14.7692308 C16.9046154,14.7692308 15.4784615,15.6230769 14.6578462,16.9033846 L9.71476923,14.0787692 C10.0341538,13.4510769 10.2307692,12.7513846 10.2307692,12 C10.2307692,11.5356923 10.1412308,11.0963077 10.0138462,10.6735385 L15.1563077,7.73538462 C15.9990769,8.64923077 17.1972308,9.23076923 18.5384615,9.23076923 C21.088,9.23076923 23.1538462,7.16492308 23.1538462,4.61538462 C23.1538462,2.06584615 21.088,0 18.5384615,0 C15.9889231,0 13.9230769,2.06584615 13.9230769,4.61538462 C13.9230769,5.07969231 14.0126154,5.51907692 14.14,5.94276923 L8.99753846,8.88 C8.15476923,7.96707692 6.95661538,7.38461538 5.61538462,7.38461538 C3.06584615,7.38461538 1,9.45046154 1,12 C1,14.5495385 3.06584615,16.6153846 5.61538462,16.6153846 C6.66769231,16.6153846 7.62676923,16.2498462 8.40307692,15.6572308 L8.38461538,15.6923077 L13.9738462,18.8861538 C13.9553846,19.0523077 13.9230769,19.2129231 13.9230769,19.3846154 C13.9230769,21.9341538 15.9889231,24 18.5384615,24 C21.088,24 23.1538462,21.9341538 23.1538462,19.3846154 C23.1538462,16.8350769 21.088,14.7692308 18.5384615,14.7692308 L18.5384615,14.7692308 Z" id="Fill-98" fill="#000000"></path>
    </g>
</svg>