<?xml version="1.0" encoding="UTF-8"?>
<svg width="24px" height="24px" viewBox="0 0 24 24" version="1.1" xmlns="http://www.w3.org/2000/svg" xmlns:xlink="http://www.w3.org/1999/xlink">
    <!-- Generator: Sketch 51.3 (57544) - http://www.bohemiancoding.com/sketch -->
    <title>0: Icons / Dark / Shrink</title>
    <desc>Created with Sketch.</desc>
    <defs></defs>
    <g id="0:-Icons-/-Dark-/-Shrink" stroke="none" stroke-width="1" fill="none" fill-rule="evenodd">
        <path d="M22.5,21 C22.5,21.825 21.828,22.5 21,22.5 L3,22.5 C2.172,22.5 1.5,21.825 1.5,21 L1.5,3 C1.5,2.172 2.172,1.5 3,1.5 L21,1.5 C21.828,1.5 22.5,2.172 22.5,3 L22.5,21 L22.5,21 Z M21,0 L3,0 C1.34325,0 0,1.34325 0,3 L0,21 C0,22.6575 1.34325,24 3,24 L21,24 C22.65675,24 24,22.6575 24,21 L24,3 C24,1.34325 22.65675,0 21,0 L21,0 Z M20.25,9.75 L15.279,9.75 L20.3775,4.65075 L19.317,3.59025 L14.22675,8.68125 L14.25,3.75 C14.25,3.33525 13.914,3 13.5,3 C13.086,3 12.75,3.33525 12.75,3.75 L12.75,10.5 C12.75,10.722 12.84225,10.90125 12.987,11.02425 C13.12275,11.16375 13.31175,11.25 13.521,11.25 L20.25,11.25 C20.664,11.25 21,10.91475 21,10.5 C21,10.086 20.664,9.75 20.25,9.75 L20.25,9.75 Z M10.479,12.75 L3.75,12.75 C3.336,12.75 3,13.0875 3,13.5 C3,13.9125 3.336,14.25 3.75,14.25 L8.721,14.25 L3.6225,19.35 L4.683,20.4075 L9.774,15.3225 L9.75,20.25 C9.75,20.6625 10.086,21 10.5,21 C10.914,21 11.25,20.6625 11.25,20.25 L11.25,13.5 C11.25,13.275 11.15775,13.095 11.013,12.975 C10.8765,12.84 10.68825,12.75 10.479,12.75 L10.479,12.75 Z" id="Fill-52" fill="#000000"></path>
    </g>
</svg>