<?xml version="1.0" encoding="UTF-8"?>
<svg width="24px" height="24px" viewBox="0 0 24 24" version="1.1" xmlns="http://www.w3.org/2000/svg" xmlns:xlink="http://www.w3.org/1999/xlink">
    <!-- Generator: Sketch 51.3 (57544) - http://www.bohemiancoding.com/sketch -->
    <title>0: Icons / Dark / Shuffle</title>
    <desc>Created with Sketch.</desc>
    <defs></defs>
    <g id="0:-Icons-/-Dark-/-Shuffle" stroke="none" stroke-width="1" fill="none" fill-rule="evenodd">
        <path d="M20.0289689,15.4816004 C19.764026,15.2193248 18.9363018,15.2877831 18.6704699,15.5509479 L18.6704699,18.0012248 L15.1141899,18.0012248 L11.9713275,13.6990151 L10.8528774,15.1490882 L14.2251199,19.6984594 L18.6704699,19.6984594 L18.6704699,22.2518684 C18.9363018,22.5141441 19.764026,22.3976759 20.0289689,22.1345112 L23.8012929,19.2832637 C24.0662357,19.0209881 24.0662357,18.5960126 23.8012929,18.3328479 L20.0289689,15.4816004 L20.0289689,15.4816004 Z M18.6704699,6.44331483 L18.6704699,8.83313498 C18.9363018,9.09452156 19.764026,9.20387717 20.0289689,8.94249059 L23.8012929,6.09124311 C24.0662357,5.82807839 24.0662357,5.40221387 23.8012929,5.13993822 L20.0289689,2.28780167 C19.764026,2.02552602 18.9363018,1.87438412 18.6704699,2.13665977 L18.6704699,4.66517484 L14.2251199,4.66517484 L4.44534998,18.0012248 L0.889069996,18.0012248 C0.397414288,18.0012248 0,18.3328479 0,18.8191692 C0,19.3046014 0.397414288,19.7793648 0.889069996,19.7793648 L5.33441997,19.7793648 L15.1141899,6.44331483 L18.6704699,6.44331483 L18.6704699,6.44331483 Z M0.889069996,6.44331483 L4.44534998,6.44331483 L7.56420752,10.713518 L8.68265758,9.26344486 C8.68265758,9.26344486 5.56024375,4.95234445 5.33441997,4.66517484 L0.889069996,4.66517484 C0.397414288,4.66517484 0,5.13993822 0,5.62537043 C0,6.11169172 0.397414288,6.44331483 0.889069996,6.44331483 L0.889069996,6.44331483 Z" id="Fill-117" fill="#000000"></path>
    </g>
</svg>