<?xml version="1.0" encoding="UTF-8"?>
<svg width="24px" height="24px" viewBox="0 0 24 24" version="1.1" xmlns="http://www.w3.org/2000/svg" xmlns:xlink="http://www.w3.org/1999/xlink">
    <!-- Generator: Sketch 51.3 (57544) - http://www.bohemiancoding.com/sketch -->
    <title>0: Icons / Dark / Smartphone</title>
    <desc>Created with Sketch.</desc>
    <defs></defs>
    <g id="0:-Icons-/-Dark-/-Smartphone" stroke="none" stroke-width="1" fill="none" fill-rule="evenodd">
        <path d="M11.625,21.75 C12.246,21.75 12.75,21.246 12.75,20.625 C12.75,20.004 12.246,19.5 11.625,19.5 C11.004,19.5 10.5,20.004 10.5,20.625 C10.5,21.246 11.004,21.75 11.625,21.75 L11.625,21.75 Z M18.75,3.75 L4.5,3.75 L4.5,3 C4.5,2.172 5.172,1.5 6,1.5 L17.25,1.5 C18.078,1.5 18.75,2.172 18.75,3 L18.75,3.75 L18.75,3.75 Z M4.5,5.25 L18.75,5.25 L18.75,17.25 L4.5,17.25 L4.5,5.25 Z M18.75,21 C18.75,21.828 18.078,22.5 17.25,22.5 L6,22.5 C5.172,22.5 4.5,21.828 4.5,21 L4.5,18.75 L18.75,18.75 L18.75,21 L18.75,21 Z M17.25,0 L6,0 C4.34325,0 3,1.34325 3,3 L3,21 C3,22.65675 4.34325,24 6,24 L17.25,24 C18.90675,24 20.25,22.65675 20.25,21 L20.25,3 C20.25,1.34325 18.90675,0 17.25,0 L17.25,0 Z" id="Fill-144" fill="#000000"></path>
    </g>
</svg>