<?xml version="1.0" encoding="UTF-8"?>
<svg width="24px" height="24px" viewBox="0 0 24 24" version="1.1" xmlns="http://www.w3.org/2000/svg" xmlns:xlink="http://www.w3.org/1999/xlink">
    <!-- Generator: Sketch 51.3 (57544) - http://www.bohemiancoding.com/sketch -->
    <title>0: Icons / Dark / Sound Medium</title>
    <desc>Created with Sketch.</desc>
    <defs></defs>
    <g id="0:-Icons-/-Dark-/-Sound-Medium" stroke="none" stroke-width="1" fill="none" fill-rule="evenodd">
        <path d="M15.2,6.0808 L15.2,7.6808 C17.0256,8.0512 18.4,9.6648 18.4,11.6 C18.4,13.5352 17.0256,15.1488 15.2,15.5192 L15.2,17.1192 C17.9104,16.728 20,14.4184 20,11.6 C20,8.7816 17.9104,6.472 15.2,6.0808 L15.2,6.0808 Z M11.2,19.6 L5.6,16.1 L5.6,7.1 L11.2,3.6 L11.2,19.6 L11.2,19.6 Z M4,14 C4,14.4424 3.6416,14.8 3.2,14.8 L2.4,14.8 C1.9584,14.8 1.6,14.4424 1.6,14 L1.6,9.2 C1.6,8.7584 1.9584,8.4 2.4,8.4 L3.2,8.4 C3.6416,8.4 4,8.7584 4,9.2 L4,14 L4,14 Z M11.2,2 L4,6.8 L1.6,6.8 C0.7168,6.8 0,7.5168 0,8.4 L0,14.8 C0,15.6832 0.7168,16.4 1.6,16.4 L4,16.4 L11.2,21.2 C12.0832,21.2 12.8,20.4832 12.8,19.6 L12.8,3.6 C12.8,2.7168 12.0832,2 11.2,2 L11.2,2 Z" id="Fill-130" fill="#000000"></path>
    </g>
</svg>