<?xml version="1.0" encoding="UTF-8"?>
<svg width="24px" height="24px" viewBox="0 0 24 24" version="1.1" xmlns="http://www.w3.org/2000/svg" xmlns:xlink="http://www.w3.org/1999/xlink">
    <!-- Generator: Sketch 51.3 (57544) - http://www.bohemiancoding.com/sketch -->
    <title>0: Icons / Dark / Sound</title>
    <desc>Created with Sketch.</desc>
    <defs></defs>
    <g id="0:-Icons-/-Dark-/-Sound" stroke="none" stroke-width="1" fill="none" fill-rule="evenodd">
        <path d="M22.5,19 L17.25,15.25 L17.25,6.25 L22.5,2.5 L22.5,19 L22.5,19 Z M15.75,14.5 L13.5,14.5 L13.5,7 L15.75,7 L15.75,14.5 L15.75,14.5 Z M12,14.5 L6,14.5 C4.509,14.5 1.5,14.0635 1.5,10.75 C1.5,7.4365 4.4595,6.95125 6,7 L12,7 L12,14.5 L12,14.5 Z M8.25,21.25 C8.25,21.66475 7.914,22 7.5,22 L6.75,22 C6.336,22 6,21.66475 6,21.25 L6,16 L8.25,16 L8.25,21.25 L8.25,21.25 Z M22.5,1 L15.75,5.5 L6,5.5 C2.6865,5.5 0,7.4365 0,10.75 C0,13.54975 1.9065,15.50425 4.5,16 C4.53375,16.2025 4.5,22 4.5,22 C4.5,22.828 5.172,23.5 6,23.5 L8.25,23.5 C9.078,23.5 9.75,22.828 9.75,22 L9.75,16 L15.75,16 L22.5,20.5 C23.328,20.5 24,19.828 24,19 L24,2.5 C24,1.672 23.328,1 22.5,1 L22.5,1 Z" id="Fill-180" fill="#000000"></path>
    </g>
</svg>