<?xml version="1.0" encoding="UTF-8"?>
<svg width="24px" height="24px" viewBox="0 0 24 24" version="1.1" xmlns="http://www.w3.org/2000/svg" xmlns:xlink="http://www.w3.org/1999/xlink">
    <!-- Generator: Sketch 51.3 (57544) - http://www.bohemiancoding.com/sketch -->
    <title>0: Icons / Dark / Sound Low</title>
    <desc>Created with Sketch.</desc>
    <defs></defs>
    <g id="0:-Icons-/-Dark-/-Sound-Low" stroke="none" stroke-width="1" fill="none" fill-rule="evenodd">
        <path d="M17.2000004,19.6000007 L11.6000002,16.1000006 L11.6000002,7.1000002 L17.2000004,3.60000006 L17.2000004,19.6000007 L17.2000004,19.6000007 Z M10.0000002,14.0000005 C10.0000002,14.4424005 9.64160014,14.8000005 9.20000013,14.8000005 L8.4000001,14.8000005 C7.95840008,14.8000005 7.60000006,14.4424005 7.60000006,14.0000005 L7.60000006,9.20000029 C7.60000006,8.75840027 7.95840008,8.40000025 8.4000001,8.40000025 L9.20000013,8.40000025 C9.64160014,8.40000025 10.0000002,8.75840027 10.0000002,9.20000029 L10.0000002,14.0000005 L10.0000002,14.0000005 Z M17.2000004,2 L10.0000002,6.80000019 L7.60000006,6.80000019 C6.71680003,6.80000019 6,7.51680022 6,8.40000025 L6,14.8000005 C6,15.6832005 6.71680003,16.4000006 7.60000006,16.4000006 L10.0000002,16.4000006 L17.2000004,21.2000008 C18.0832005,21.2000008 18.8000005,20.4832007 18.8000005,19.6000007 L18.8000005,3.60000006 C18.8000005,2.71680003 18.0832005,2 17.2000004,2 L17.2000004,2 Z" id="Fill-131" fill="#000000"></path>
    </g>
</svg>