<?xml version="1.0" encoding="UTF-8"?>
<svg width="24px" height="24px" viewBox="0 0 24 24" version="1.1" xmlns="http://www.w3.org/2000/svg" xmlns:xlink="http://www.w3.org/1999/xlink">
    <!-- Generator: Sketch 51.3 (57544) - http://www.bohemiancoding.com/sketch -->
    <title>0: Icons / Dark / Sound High</title>
    <desc>Created with Sketch.</desc>
    <defs></defs>
    <g id="0:-Icons-/-Dark-/-Sound-High" stroke="none" stroke-width="1" fill="none" fill-rule="evenodd">
        <path d="M10.8387097,19.5690323 L5.41935484,16.1819355 L5.41935484,7.47225806 L10.8387097,4.08516129 L10.8387097,19.5690323 L10.8387097,19.5690323 Z M3.87096774,14.1496774 C3.87096774,14.5778065 3.52412903,14.923871 3.09677419,14.923871 L2.32258065,14.923871 C1.89522581,14.923871 1.5483871,14.5778065 1.5483871,14.1496774 L1.5483871,9.50451613 C1.5483871,9.07716129 1.89522581,8.73032258 2.32258065,8.73032258 L3.09677419,8.73032258 C3.52412903,8.73032258 3.87096774,9.07716129 3.87096774,9.50451613 L3.87096774,14.1496774 L3.87096774,14.1496774 Z M10.8387097,2.53677419 L3.87096774,7.18193548 L1.5483871,7.18193548 C0.693677419,7.18193548 0,7.8756129 0,8.73032258 L0,14.923871 C0,15.7785806 0.693677419,16.4722581 1.5483871,16.4722581 L3.87096774,16.4722581 L10.8387097,21.1174194 C11.6934194,21.1174194 12.3870968,20.4237419 12.3870968,19.5690323 L12.3870968,4.08516129 C12.3870968,3.23045161 11.6934194,2.53677419 10.8387097,2.53677419 L10.8387097,2.53677419 Z M19.3548387,11.8270968 C19.3548387,9.0996129 17.3326452,6.86451613 14.7096774,6.48593548 L14.7096774,8.03432258 C16.4763871,8.39277419 17.8064516,9.95432258 17.8064516,11.8270968 C17.8064516,13.699871 16.4763871,15.2614194 14.7096774,15.619871 L14.7096774,17.1682581 C17.3326452,16.7896774 19.3548387,14.5545806 19.3548387,11.8270968 L19.3548387,11.8270968 Z M14.7096774,1 L14.7096774,2.58941935 C19.2557419,3.46503226 22.4516129,7.17264516 22.4516129,11.8270968 C22.4516129,16.4552258 19.3548387,20.0405161 14.7096774,21.0647742 L14.7096774,22.6549677 C19.9556129,21.8869677 24,17.3571613 24,11.8270968 C24,6.29703226 19.9556129,1.76722581 14.7096774,1 L14.7096774,1 Z" id="Fill-129" fill="#000000"></path>
    </g>
</svg>