<?xml version="1.0" encoding="UTF-8"?>
<svg width="24px" height="24px" viewBox="0 0 24 24" version="1.1" xmlns="http://www.w3.org/2000/svg" xmlns:xlink="http://www.w3.org/1999/xlink">
    <!-- Generator: Sketch 51.3 (57544) - http://www.bohemiancoding.com/sketch -->
    <title>0: Icons / Dark / Sound Mute</title>
    <desc>Created with Sketch.</desc>
    <defs></defs>
    <g id="0:-Icons-/-Dark-/-Sound-Mute" stroke="none" stroke-width="1" fill="none" fill-rule="evenodd">
        <path d="M11.2059605,19.6093666 L5.60298027,16.1075039 L5.60298027,7.10271418 L11.2059605,3.60085151 L11.2059605,19.6093666 L11.2059605,19.6093666 Z M4.00212877,14.0063863 C4.00212877,14.4490217 3.64433845,14.806812 3.20170301,14.806812 L2.40127726,14.806812 C1.95864182,14.806812 1.60085151,14.4490217 1.60085151,14.0063863 L1.60085151,9.20383178 C1.60085151,8.76199676 1.95864182,8.40340602 2.40127726,8.40340602 L3.20170301,8.40340602 C3.64433845,8.40340602 4.00212877,8.76199676 4.00212877,9.20383178 L4.00212877,14.0063863 L4.00212877,14.0063863 Z M11.2059605,2 L4.00212877,6.80255452 L1.60085151,6.80255452 C0.717181475,6.80255452 0,7.51973599 0,8.40340602 L0,14.806812 C0,15.6904821 0.717181475,16.4076636 1.60085151,16.4076636 L4.00212877,16.4076636 L11.2059605,21.2102181 C12.0896306,21.2102181 12.806812,20.4930366 12.806812,19.6093666 L12.806812,3.60085151 C12.806812,2.71718147 12.0896306,2 11.2059605,2 L11.2059605,2 Z M20.3660329,11.605109 L23.7062095,8.26493237 C24.0664011,7.90474078 24.100019,7.35324744 23.7814495,7.03387756 C23.4620797,6.71530811 22.9105863,6.74892599 22.5503947,7.10911758 L19.2102181,10.4492942 L15.8700414,7.10911758 C15.5098498,6.74892599 14.9583565,6.71530811 14.6389866,7.03387756 C14.3204171,7.35324744 14.354035,7.90474078 14.7142266,8.26493237 L18.0544033,11.605109 L14.7142266,14.9452857 C14.354035,15.3054773 14.3204171,15.8569706 14.6389866,16.1763405 C14.9583565,16.49491 15.5098498,16.4612921 15.8700414,16.1011005 L19.2102181,12.7609238 L22.5503947,16.1011005 C22.9105863,16.4612921 23.4620797,16.49491 23.7814495,16.1763405 C24.100019,15.8569706 24.0664011,15.3054773 23.7062095,14.9452857 L20.3660329,11.605109 L20.3660329,11.605109 Z" id="Fill-128" fill="#000000"></path>
    </g>
</svg>