<?xml version="1.0" encoding="UTF-8"?>
<svg width="24px" height="24px" viewBox="0 0 24 24" version="1.1" xmlns="http://www.w3.org/2000/svg" xmlns:xlink="http://www.w3.org/1999/xlink">
    <!-- Generator: Sketch 51.3 (57544) - http://www.bohemiancoding.com/sketch -->
    <title>0: Icons / Dark / Spoon</title>
    <desc>Created with Sketch.</desc>
    <defs></defs>
    <g id="0:-Icons-/-Dark-/-Spoon" stroke="none" stroke-width="1" fill="none" fill-rule="evenodd">
        <path d="M12.25,10.5 C10.17925,10.5 8.5,8.48475 8.5,6 C8.5,3.51525 10.17925,1.5 12.25,1.5 C14.32075,1.5 16,3.51525 16,6 C16,8.48475 14.32075,10.5 12.25,10.5 L12.25,10.5 Z M17.5,6 C17.5,2.6865 15.1495,0 12.25,0 C9.3505,0 7,2.6865 7,6 C7,9.027 8.9635,11.52375 11.5135,11.934 C11.51125,11.9565 11.5,11.97675 11.5,12 L11.5,23.25 C11.5,23.66475 11.836,24 12.25,24 C12.664,24 13,23.66475 13,23.25 L13,12 C13,11.97675 12.98875,11.9565 12.9865,11.934 C15.5365,11.52375 17.5,9.027 17.5,6 L17.5,6 Z" id="Fill-150" fill="#000000"></path>
    </g>
</svg>