<?xml version="1.0" encoding="UTF-8"?>
<svg width="24px" height="24px" viewBox="0 0 24 24" version="1.1" xmlns="http://www.w3.org/2000/svg" xmlns:xlink="http://www.w3.org/1999/xlink">
    <!-- Generator: Sketch 51.3 (57544) - http://www.bohemiancoding.com/sketch -->
    <title>0: Icons / Dark / Stack</title>
    <desc>Created with Sketch.</desc>
    <defs></defs>
    <g id="0:-Icons-/-Dark-/-Stack" stroke="none" stroke-width="1" fill="none" fill-rule="evenodd">
        <path d="M0.68625,13.7782809 L10.869,18.3547809 C11.76825,18.7792809 12.15675,18.7792809 13.13175,18.3547809 L23.31375,13.7782809 C23.81625,13.5435309 24,12.4417809 24,11.8485309 C23.34525,12.1762809 22.41825,12.6435309 22.40025,12.6480309 L12,17.4420309 L1.59975,12.6480309 C1.63575,12.6697809 0.6795,12.2370309 0,11.8485309 C0,12.4290309 0.1455,13.4910309 0.68625,13.7782809 L0.68625,13.7782809 Z M12,22.2367809 L1.59975,17.4420309 C1.63575,17.4645309 0.6795,17.0317809 0,16.6432809 C0,17.2230309 0.1455,18.2850309 0.68625,18.5722809 L10.869,23.1495309 C11.76825,23.5740309 12.15675,23.5740309 13.13175,23.1495309 L23.31375,18.5722809 C23.81625,18.3382809 24,17.2365309 24,16.6432809 C23.34525,16.9702809 22.41825,17.4382809 22.40025,17.4420309 L12,22.2367809 L12,22.2367809 Z M12,2.25903093 L22.40025,7.85253093 L12,12.2355309 L1.59975,7.85253093 L12,2.25903093 L12,2.25903093 Z M0.68625,8.98278093 L10.869,13.5607809 C11.76825,13.9845309 12.15675,13.9845309 13.13175,13.5607809 L23.31375,8.98278093 C24.06375,8.63328093 24.0885,7.14753093 23.31375,6.72228093 L13.13175,1.34628093 C12.3315,0.872280929 11.76825,0.897030929 10.869,1.34628093 L0.68625,6.72228093 C-0.0885,7.22178093 -0.11325,8.55903093 0.68625,8.98278093 L0.68625,8.98278093 Z M12,2.25903093 C12.075,2.34678093 12.0555,2.27778093 12,2.25903093 L12,2.25903093 Z" id="Fill-201" fill="#000000"></path>
    </g>
</svg>