<?xml version="1.0" encoding="UTF-8"?>
<svg width="22px" height="26px" viewBox="0 0 22 26" version="1.1" xmlns="http://www.w3.org/2000/svg" xmlns:xlink="http://www.w3.org/1999/xlink">
    <title>D6488D21-0EFF-4BB7-97E9-C2B34FC53C73@1,5x</title>
    <defs>
        <path d="M1.93818331,6.68712457 C1.64176023,7.32923996 1.34533715,8.51493226 2.18533715,10.2442015 C2.28387561,10.4905476 2.53102946,10.639163 2.77818331,10.6884323 L9.74291408,11.8248553 L11.5214525,12.1212784 C11.9164141,12.1705476 12.3113756,12.0720092 12.6077987,11.8741246 L19.6726833,7.42777842 C20.0175679,7.18143226 20.4626064,7.32923996 20.7097602,7.67493226 C20.7590295,7.77427842 20.8082987,7.87281688 20.8082987,7.97135534 C20.9068372,8.26858611 20.8575679,8.66354765 20.5118756,8.86062457 L13.2006448,13.4055092 C12.8056833,13.652663 12.4107218,13.7019323 11.966491,13.652663 L2.58029869,12.3684323 C2.38241408,12.319163 2.18533715,12.4669707 2.085991,12.6640476 C1.78956792,13.3069707 1.54241408,14.492663 2.38241408,16.2211246 C2.48095254,16.4682784 2.72810638,16.6160861 2.97526023,16.6653553 L9.94079869,17.70324 L11.7185295,17.9503938 C12.1142987,17.999663 12.5092602,17.9011246 12.8056833,17.70324 L19.820491,13.1583553 C20.1169141,12.9612784 20.5611448,13.0105476 20.7590295,13.2577015 L20.8082987,13.3069707 L20.8575679,13.35624 C21.1047218,13.7019323 20.9561064,14.146163 20.6104141,14.3933169 L15.1277987,17.9503938 L13.0528372,19.2346246 C12.7564141,19.4325092 12.459991,19.4817784 12.1142987,19.4325092 L12.0650295,19.4325092 L10.286491,19.1853553 L9.99006792,19.1360861 L9.64437561,19.0868169 L2.58029869,18.0489323 C2.48095254,17.999663 2.38241408,17.999663 2.28387561,17.999663 C2.18533715,18.0489323 2.13526023,18.0982015 2.085991,18.2468169 C1.78956792,18.8889323 1.54241408,20.0746246 2.38241408,21.8030861 C2.48095254,22.05024 2.72810638,22.1988553 2.97526023,22.2481246 L9.94079869,23.3344707 L11.7185295,23.5816246 C12.1142987,23.6308938 12.5092602,23.5323553 12.8056833,23.3344707 L19.820491,18.7895861 C20.1661833,18.54324 20.6104141,18.6910476 20.8575679,19.0375476 C21.1047218,19.3824323 20.9561064,19.8274707 20.6104141,20.0746246 L15.1277987,23.6308938 L13.0528372,24.9151246 C12.7564141,25.1130092 12.459991,25.1622784 12.1142987,25.1130092 L12.0650295,25.1130092 L10.2856833,24.8658553 L9.99006792,24.8165861 L9.64437561,24.7673169 L2.579491,23.73024 C2.28387561,23.6809707 1.98745254,23.5323553 1.78956792,23.3344707 C0.110375614,21.8523553 0.110375614,19.6788553 0.356721768,18.6910476 C0.505337153,17.9503938 0.80176023,17.2582015 0.998837153,16.86324 L0.998837153,16.8139707 C0.0602986913,15.4312015 0.110375614,13.8505476 0.258183307,13.0598169 C0.406798691,12.319163 0.703221768,11.6269707 0.900298691,11.2320092 C0.949567922,11.18274 0.998837153,11.132663 0.998837153,11.0341246 C-0.136778232,9.55200919 -0.087509001,7.77427842 0.110375614,6.93427842 C0.307452537,6.19362457 0.603875614,5.50143226 0.80176023,5.10647073 C0.900298691,4.95785534 0.998837153,4.85931688 1.14745254,4.81004765 L9.94079869,0.166624572 C10.1871448,0.0188168795 10.4843756,-0.0312600436 10.779991,0.0188168795 L20.1661833,1.55020149 C20.8575679,1.64873996 21.0554525,2.58727842 20.4133372,2.98223996 L13.0035679,7.42777842 C12.6077987,7.67493226 12.1635679,7.72500919 11.7185295,7.67493226 L2.33314485,6.2428938 C2.23460638,6.39070149 2.03672177,6.48923996 1.93818331,6.68712457" id="path-1"></path>
    </defs>
    <g id="Composant-Master" stroke="none" stroke-width="1" fill="none" fill-rule="evenodd">
        <g id="Divers" transform="translate(-116.000000, -484.000000)">
            <g id="Bouton-side" transform="translate(107.500000, 391.000000)">
                <g id="Bouton-Docup" transform="translate(0.000000, 86.000000)">
                    <g id="Icone/Up/books" transform="translate(9.000000, 7.000000)">
                        <mask id="mask-2" fill="white">
                            <use xlink:href="#path-1"></use>
                        </mask>
                        <g></g>
                        <g id="🎨-color" mask="url(#mask-2)" fill="#FFFFFF" fill-rule="nonzero">
                            <polygon id="Rectangle" points="0 0 21 0 21 25.8461538 0 25.8461538"></polygon>
                        </g>
                    </g>
                </g>
            </g>
        </g>
    </g>
</svg>