<svg xmlns="http://www.w3.org/2000/svg" xmlns:xlink="http://www.w3.org/1999/xlink" viewBox="0 0 23 17" version="1.1">
    <!-- Generator: Sketch 53.2 (72643) - https://sketchapp.com -->
    <title>Icone/Foncé/Graphique</title>
    <desc>Created with Sketch.</desc>
    <g id="Page-1" stroke="none" stroke-width="1" fill-rule="evenodd">
        <g id="iPhone-8" transform="translate(-45.000000, -35.000000)">
            <g id="Icone/Foncé/Graphique" transform="translate(45.000000, 35.000000)">
                <g id="DIAGRAMMEOK">
                    <path d="M7.01614884,16.3302305 L7.01614884,16.3302305 C6.80931054,16.3259891 6.62644516,16.1948031 6.55614884,16.0002305 L2.68614884,7.5902305 L0.95614884,10.9202305 C0.879637152,11.0906741 0.714483377,11.2042425 0.52794646,11.2146849 C0.341409543,11.2251273 0.164612185,11.1307014 0.0695551825,10.9698623 C-0.0255018195,10.8090231 -0.0229587056,10.6086059 0.0761488401,10.4502305 L2.26614884,6.2202305 C2.36918773,6.07000708 2.54452897,5.98614823 2.72614884,6.0002305 C2.91526422,6.00776466 3.08465496,6.11940855 3.16614884,6.2902305 L7.01614884,14.7402305 L15.3461488,0.250230501 C15.4432886,0.0901558496 15.6189883,-0.00533309687 15.8061488,0.000230500528 C15.9978288,0.0104209108 16.1659071,0.131593628 16.2361488,0.310230501 L18.7961488,6.4102305 L21.5461488,1.4102305 C21.6318926,1.25303363 21.7949866,1.15352148 21.9739949,1.1491793 C22.1530033,1.14483713 22.3207303,1.23632462 22.413995,1.38917931 C22.5072596,1.542034 22.5118926,1.73303364 22.4261488,1.8902305 L19.1761488,7.8002305 C19.0832839,7.97083256 18.9000183,8.07221352 18.7061488,8.0602305 C18.5144689,8.05004009 18.3463906,7.92886737 18.2761488,7.7502305 L15.7061488,1.6302305 L7.44614884,16.0802305 C7.35737269,16.2340028 7.19370437,16.3291588 7.01614884,16.3302305 Z" id="Path" fill-rule="nonzero"/>
                </g>
            </g>
        </g>
    </g>
</svg>