<svg xmlns="http://www.w3.org/2000/svg" width="73" height="62" viewBox="0 0 73 62">
  <g id="Polygone_4" transform="translate(73) rotate(90)" fill="#fff">
    <path d="M 52.9334716796875 72.5 L 9.06654167175293 72.5 C 7.215871810913086 72.5 5.501251697540283 71.57860565185547 4.479921817779541 70.03528594970703 C 3.458601951599121 68.49197387695312 3.28072190284729 66.55362701416016 4.004091739654541 64.85020446777344 L 25.93755149841309 13.20042705535889 C 26.81510162353516 11.13394641876221 28.75491142272949 9.850226402282715 31.00000190734863 9.850226402282715 C 33.24508285522461 9.850226402282715 35.18490219116211 11.13394641876221 36.06245040893555 13.20042705535889 L 57.99591064453125 64.85020446777344 C 58.71928024291992 66.55362701416016 58.54140090942383 68.49197387695312 57.52008056640625 70.03529357910156 C 56.49875259399414 71.57861328125 54.78413009643555 72.5 52.9334716796875 72.5 Z" stroke="none"/>
    <path d="M 30.99999237060547 10.35022735595703 C 28.95901107788086 10.35022735595703 27.19554138183594 11.51725006103516 26.39777374267578 13.39585876464844 L 4.464313507080078 65.04562377929688 C 3.796890258789062 66.61731719970703 3.954551696777344 68.33540344238281 4.896892547607422 69.75935363769531 C 5.8392333984375 71.18331909179688 7.359001159667969 72 9.066532135009766 72 L 52.93346405029297 72 C 54.6409912109375 72 56.16077041625977 71.18331909179688 57.10311126708984 69.75935363769531 C 58.04545211791992 68.33540344238281 58.2031135559082 66.61731719970703 57.53569030761719 65.04562377929688 L 35.60222244262695 13.39585876464844 C 34.80445098876953 11.51725006103516 33.04098129272461 10.35022735595703 30.99999237060547 10.35022735595703 M 30.99999618530273 9.350227355957031 C 33.24398803710938 9.350227355957031 35.48798370361328 10.5684814453125 36.52265930175781 13.00498962402344 L 58.45613098144531 64.65475463867188 C 60.13648223876953 68.61170959472656 57.232421875 73 52.93346405029297 73 L 9.066532135009766 73 C 4.767581939697266 73 1.863521575927734 68.61170959472656 3.543872833251953 64.65475463867188 L 25.47733306884766 13.00498962402344 C 26.51201248168945 10.5684814453125 28.75600433349609 9.350227355957031 30.99999618530273 9.350227355957031 Z" stroke="none" fill="#707070"/>
  </g>
</svg>
