<?xml version="1.0" encoding="UTF-8"?>
<svg width="24px" height="24px" viewBox="0 0 24 24" version="1.1" xmlns="http://www.w3.org/2000/svg" xmlns:xlink="http://www.w3.org/1999/xlink">
    <!-- Generator: Sketch 51.3 (57544) - http://www.bohemiancoding.com/sketch -->
    <title>0: Icons / Dark / Step Forward</title>
    <desc>Created with Sketch.</desc>
    <defs></defs>
    <g id="0:-Icons-/-Dark-/-Step-Forward" stroke="none" stroke-width="1" fill="none" fill-rule="evenodd">
        <path d="M15.5768579,17.4738157 L15.5768579,12.8746543 C15.5768579,12.8746543 13.5513427,12.8575252 12.9903649,12.8575252 C9.41894906,12.8575252 4.56285128,15.6410028 2.71462218,18.0133821 C2.74202873,14.7931127 6.94208226,7.90721741 12.9903649,7.71879739 C13.4365778,7.7016683 15.5768579,7.72736194 15.5768579,7.72736194 L15.5768579,3.09394237 L22.134731,10.2881613 L15.5768579,17.4738157 L15.5768579,17.4738157 Z M23.8801856,9.63725578 L15.3250602,0.250512981 C14.9859042,-0.0835043269 14.4360603,-0.0835043269 14.0969043,0.250512981 C13.9016326,0.447497547 13.8322598,0.704433937 13.8613792,0.961370327 L13.8613792,6.01445267 C6.75880096,6.01445267 1,11.7698278 1,18.8698367 C1,20.6940851 1.38369168,22.4241235 2.06714247,24 C3.08204122,18.638594 8.19421893,14.5704345 13.8468195,14.5704345 C13.8468195,14.861629 13.8613792,19.6149523 13.8613792,19.6149523 C13.8322598,19.8633241 13.9016326,20.1288251 14.0969043,20.3172451 C14.0986172,20.3258096 14.102043,20.3258096 14.1037559,20.3258096 C14.2596307,20.488536 14.4763137,20.5913106 14.7195468,20.5913106 C14.9859042,20.5913106 15.2145776,20.4628424 15.3721652,20.2658578 L23.8801856,10.9390668 C24.0608975,10.7592113 24.1379784,10.5194041 24.125988,10.2881613 C24.1379784,10.048354 24.0608975,9.81711125 23.8801856,9.63725578 L23.8801856,9.63725578 Z" id="Fill-11" fill="#000000"></path>
    </g>
</svg>