<?xml version="1.0" encoding="UTF-8"?>
<svg width="24px" height="24px" viewBox="0 0 24 24" version="1.1" xmlns="http://www.w3.org/2000/svg" xmlns:xlink="http://www.w3.org/1999/xlink">
    <!-- Generator: Sketch 51.3 (57544) - http://www.bohemiancoding.com/sketch -->
    <title>0: Icons / Dark / Step Back</title>
    <desc>Created with Sketch.</desc>
    <defs></defs>
    <g id="0:-Icons-/-Dark-/-Step-Back" stroke="none" stroke-width="1" fill="none" fill-rule="evenodd">
        <path d="M11.1368293,12.8575252 C10.576708,12.8575252 8.55033633,12.8746543 8.55033633,12.8746543 L8.55033633,17.4738157 L1.99246319,10.2881613 L8.55033633,3.09394237 L8.55033633,7.72736194 C8.55033633,7.72736194 10.6914729,7.7016683 11.1368293,7.71879739 C17.185112,7.90721741 21.3851655,14.7931127 21.412572,18.0133821 C19.5643429,15.6410028 14.7082451,12.8575252 11.1368293,12.8575252 L11.1368293,12.8575252 Z M10.265815,6.01445267 L10.265815,0.961370327 C10.2949344,0.704433937 10.2255616,0.447497547 10.0302899,0.250512981 C9.6911339,-0.0835043269 9.14129002,-0.0835043269 8.80213399,0.250512981 L0.247008642,9.63725578 C0.0662967145,9.81711125 -0.0107842026,10.048354 0.00120616229,10.2881613 C-0.0107842026,10.5194041 0.0662967145,10.7592113 0.247008642,10.9390668 L8.75502898,20.2658578 C8.91261664,20.4628424 9.14129002,20.5913106 9.40764741,20.5913106 C9.65088053,20.5913106 9.86756355,20.488536 10.0234383,20.3258096 C10.0251512,20.3258096 10.028577,20.3258096 10.0302899,20.3172451 C10.2255616,20.1288251 10.2949344,19.8633241 10.265815,19.6149523 C10.265815,19.6149523 10.2803747,14.861629 10.2803747,14.5704345 C15.9329753,14.5704345 21.045153,18.638594 22.0600517,24 C22.7435025,22.4241235 23.1271942,20.6940851 23.1271942,18.8698367 C23.1271942,11.7698278 17.3683932,6.01445267 10.265815,6.01445267 L10.265815,6.01445267 Z" id="Fill-12" fill="#000000"></path>
    </g>
</svg>