<svg xmlns="http://www.w3.org/2000/svg" xmlns:xlink="http://www.w3.org/1999/xlink" width="32px" height="33px" viewBox="0 0 32 33" version="1.1">
    <!-- Generator: Sketch 55.1 (78136) - https://sketchapp.com -->
    <title>Icone/Up/store</title>
    <desc>Created with Sketch.</desc>
    <g id="Icone/Up/store" stroke="none" stroke-width="1" fill="none" fill-rule="evenodd">
        <path d="M29.798,11.745 C29.798,12.163 29.579,12.552 29.162,12.87 C28.711,13.213 28.077,13.411 27.424,13.411 C26.772,13.411 26.137,13.213 25.687,12.87 C25.271,12.552 25.049,12.163 25.049,11.745 L25.049,8.661 L29.798,8.661 L29.798,11.745 Z M28.309,31.29 L20.579,31.29 L20.579,21.654 C20.579,21.387 20.294,21.048 19.974,21.048 L11.034,21.048 C10.714,21.048 10.428,21.387 10.428,21.654 L10.428,31.29 L2.7,31.29 L2.7,14.551 L2.862,14.577 C3.103,14.616 3.362,14.621 3.585,14.621 C4.506,14.621 5.385,14.337 6.061,13.823 C6.201,13.716 6.333,13.596 6.462,13.455 L6.565,13.344 L6.667,13.455 C6.796,13.596 6.927,13.716 7.068,13.823 C7.744,14.337 8.622,14.621 9.544,14.621 C10.467,14.621 11.345,14.337 12.021,13.823 C12.161,13.716 12.293,13.596 12.421,13.455 L12.525,13.344 L12.627,13.455 C12.756,13.596 12.888,13.716 13.028,13.823 C13.704,14.337 14.583,14.621 15.504,14.621 C16.425,14.621 17.306,14.337 17.98,13.823 C18.122,13.716 18.252,13.596 18.381,13.455 L18.485,13.344 L18.587,13.455 C18.717,13.596 18.846,13.716 18.988,13.823 C19.663,14.337 20.543,14.621 21.464,14.621 C22.386,14.621 23.264,14.337 23.94,13.823 C24.081,13.716 24.212,13.596 24.341,13.455 L24.444,13.344 L24.546,13.455 C24.675,13.596 24.807,13.716 24.947,13.823 C25.623,14.337 26.503,14.621 27.424,14.621 C27.646,14.621 27.905,14.616 28.146,14.577 L28.309,14.551 L28.309,31.29 Z M16.109,31.29 L19.368,31.29 L19.368,22.259 L16.109,22.259 L16.109,31.29 Z M11.64,31.29 L14.899,31.29 L14.899,22.259 L11.64,22.259 L11.64,31.29 Z M1.847,12.87 C1.429,12.552 1.21,12.163 1.21,11.745 L1.21,8.661 L5.959,8.661 L5.959,11.745 C5.959,12.163 5.739,12.552 5.322,12.87 C4.871,13.213 4.238,13.411 3.585,13.411 C2.931,13.411 2.298,13.213 1.847,12.87 L1.847,12.87 Z M5.767,1.211 L8.421,1.211 L5.997,7.451 L1.721,7.451 L5.767,1.211 Z M11.919,8.661 L11.919,11.745 C11.919,12.163 11.699,12.552 11.281,12.87 C10.831,13.213 10.198,13.411 9.544,13.411 C8.891,13.411 8.258,13.213 7.806,12.87 C7.39,12.552 7.17,12.163 7.17,11.745 L7.17,8.661 L11.919,8.661 Z M12.991,1.211 L11.944,7.451 L7.315,7.451 L9.74,1.211 L12.991,1.211 Z M13.13,8.661 L17.879,8.661 L17.879,11.745 C17.879,12.163 17.658,12.552 17.241,12.87 C16.79,13.213 16.157,13.411 15.504,13.411 C14.851,13.411 14.218,13.213 13.766,12.87 C13.35,12.552 13.13,12.163 13.13,11.745 L13.13,8.661 Z M14.21,1.211 L16.799,1.211 L17.834,7.451 L13.174,7.451 L14.21,1.211 Z M23.838,8.661 L23.838,11.745 C23.838,12.163 23.618,12.552 23.202,12.87 C22.75,13.213 22.117,13.411 21.464,13.411 C20.811,13.411 20.178,13.213 19.727,12.87 C19.31,12.552 19.089,12.163 19.089,11.745 L19.089,8.661 L23.838,8.661 Z M21.269,1.211 L23.693,7.451 L19.065,7.451 L18.017,1.211 L21.269,1.211 Z M25.241,1.211 L29.287,7.451 L25.011,7.451 L22.587,1.211 L25.241,1.211 Z M30.869,7.655 L26.073,0.275 C25.948,0.082 25.795,0 25.562,0 L5.447,0 C5.217,0 5.024,0.139 4.935,0.275 L0.14,7.655 C0.043,7.805 0,7.928 0,8.057 L0,11.745 C0,12.529 0.402,13.286 1.108,13.823 C1.208,13.899 1.314,13.97 1.422,14.037 L1.489,14.078 L1.489,31.896 C1.489,32.205 1.783,32.5 2.094,32.5 L28.913,32.5 C29.225,32.5 29.519,32.205 29.519,31.896 L29.519,14.078 L29.586,14.037 C29.694,13.97 29.8,13.899 29.901,13.823 C30.605,13.286 31.009,12.529 31.009,11.745 L31.009,8.057 C30.984,7.899 30.97,7.811 30.869,7.655 L30.869,7.655 Z" id="Fill-31" fill="#4E5B59"/>
    </g>
</svg>