<?xml version="1.0" encoding="UTF-8"?>
<svg width="24px" height="24px" viewBox="0 0 24 24" version="1.1" xmlns="http://www.w3.org/2000/svg" xmlns:xlink="http://www.w3.org/1999/xlink">
    <!-- Generator: Sketch 51.3 (57544) - http://www.bohemiancoding.com/sketch -->
    <title>0: Icons / Dark / Switch On</title>
    <desc>Created with Sketch.</desc>
    <defs></defs>
    <g id="0:-Icons-/-Dark-/-Switch-On" stroke="none" stroke-width="1" fill="none" fill-rule="evenodd">
        <path d="M7.5,15.5 C5.84325,15.5 4.5,14.15675 4.5,12.5 C4.5,10.84325 5.84325,9.5 7.5,9.5 C9.15675,9.5 10.5,10.84325 10.5,12.5 C10.5,14.15675 9.15675,15.5 7.5,15.5 L7.5,15.5 Z M7.5,8 C5.01525,8 3,10.01525 3,12.5 C3,14.98475 5.01525,17 7.5,17 C9.9855,17 12,14.98475 12,12.5 C12,10.01525 9.9855,8 7.5,8 L7.5,8 Z M16.5,18.5 L7.5,18.5 C4.1865,18.5 1.5,15.8135 1.5,12.5 C1.5,9.1865 4.1865,6.5 7.5,6.5 L16.5,6.5 C19.8135,6.5 22.5,9.1865 22.5,12.5 C22.5,15.8135 19.8135,18.5 16.5,18.5 L16.5,18.5 Z M16.5,5 L7.5,5 C3.35775,5 0,8.3585 0,12.5 C0,16.6415 3.35775,20 7.5,20 L16.5,20 C20.64225,20 24,16.6415 24,12.5 C24,8.3585 20.64225,5 16.5,5 L16.5,5 Z" id="Fill-170" fill="#000000"></path>
    </g>
</svg>