<?xml version="1.0" encoding="UTF-8"?>
<svg width="24px" height="24px" viewBox="0 0 24 24" version="1.1" xmlns="http://www.w3.org/2000/svg" xmlns:xlink="http://www.w3.org/1999/xlink">
    <!-- Generator: Sketch 51.3 (57544) - http://www.bohemiancoding.com/sketch -->
    <title>0: Icons / Dark / Tag</title>
    <desc>Created with Sketch.</desc>
    <defs></defs>
    <g id="0:-Icons-/-Dark-/-Tag" stroke="none" stroke-width="1" fill="none" fill-rule="evenodd">
        <path d="M12.200617,10.9485884 C11.3774064,10.9485884 10.7093912,10.2610801 10.7093912,9.4131282 C10.7093912,8.56517631 11.3774064,7.87766801 12.200617,7.87766801 C13.0238276,7.87766801 13.6918427,8.56517631 13.6918427,9.4131282 C13.6918427,10.2610801 13.0238276,10.9485884 12.200617,10.9485884 L12.200617,10.9485884 Z M12.200617,6.34220782 C10.5534461,6.34220782 9.21891523,7.71722441 9.21891523,9.4131282 C9.21891523,11.1097817 10.5534461,12.4847983 12.200617,12.4847983 C13.8477879,12.4847983 15.1823187,11.1097817 15.1823187,9.4131282 C15.1823187,7.71722441 13.8477879,6.34220782 12.200617,6.34220782 L12.200617,6.34220782 Z M18.9947284,21.0010543 C18.9947284,21.8490062 18.3192159,22.5005272 17.4952556,22.5005272 L6.99894568,22.5005272 C6.17498536,22.5005272 5.490476,21.7770315 5.490476,20.9290796 L5.49947284,9.00527158 C5.49947284,8.51269476 5.56694912,8.21205045 5.83535476,7.93464798 L11.6773009,1.91951267 C11.9464563,1.6421102 12.3828029,1.6421102 12.6512086,1.91951267 L18.4931548,7.93464798 C18.7615604,8.21205045 18.9947284,8.46396189 18.9947284,9.00527158 L18.9947284,21.0010543 L18.9947284,21.0010543 Z M19.9536413,7.43382405 L13.1377875,0.415541411 C12.6002265,-0.138513804 11.7290328,-0.138513804 11.190722,0.415541411 L4.37486821,7.43382405 C3.98875395,7.83118435 3.99925026,8.11308524 4.01049631,8.64614784 L4,8.64614784 L4,20.9290796 C4,22.6249834 5.33528057,24 6.98245148,24 L17.4187825,24 C19.0659534,24 20.4012339,22.6249834 20.4012339,20.9290796 L20.4012339,9.4131282 C20.4012339,8.52319107 20.4912023,7.98787926 19.9536413,7.43382405 L19.9536413,7.43382405 Z" id="Fill-88" fill="#000000"></path>
    </g>
</svg>