<?xml version="1.0" encoding="UTF-8"?>
<svg width="24px" height="24px" viewBox="0 0 24 24" version="1.1" xmlns="http://www.w3.org/2000/svg" xmlns:xlink="http://www.w3.org/1999/xlink">
    <!-- Generator: Sketch 51.3 (57544) - http://www.bohemiancoding.com/sketch -->
    <title>0: Icons / Dark / Thumb</title>
    <desc>Created with Sketch.</desc>
    <defs></defs>
    <g id="0:-Icons-/-Dark-/-Thumb" stroke="none" stroke-width="1" fill="none" fill-rule="evenodd">
        <path d="M3,19 C3,19.553 3.448,20 4,20 C4.552,20 5,19.553 5,19 C5,18.447 4.552,18 4,18 C3.448,18 3,18.447 3,19 Z M21.7207542,18.7426123 L14.7719441,18.6660621 L14.7561837,20.1670471 L21.0858376,20.2375934 C21.0175428,20.3666781 20.9537509,20.4980143 20.8802026,20.625598 L20.0328966,22.1093217 C19.896307,22.3472279 19.6411395,22.4950749 19.3672097,22.4950749 L10.2712405,22.4950749 C10.0400888,22.4950749 9.80893711,22.4402889 9.60180118,22.336721 L7.48916476,21.280778 L7.48916476,10.863942 C7.48916476,10.7108415 7.465149,10.5629945 7.42987586,10.4196504 C8.34397573,10.256043 9.17026799,9.77422684 9.76240658,9.03349073 C11.1943463,7.2428156 12.2397824,5.2179868 12.8701961,3.0137903 L13.1651396,1.98486507 C13.2491948,1.68842053 13.523875,1.48128459 13.8323275,1.48128459 L14.2991338,1.48128459 C14.6826355,1.48128459 14.9940899,1.79348948 14.9940899,2.17624066 L14.9940899,3.04606148 C14.9940899,4.90052847 14.6451109,6.71371838 13.9569092,8.43384721 C13.7722881,8.89464961 13.828575,9.41774289 14.1070077,9.82901279 C14.3869414,10.2410332 14.8499953,10.4871947 15.3475718,10.4871947 L20.996529,10.4871947 C21.8250727,10.4871947 22.499015,11.161137 22.499015,11.9896807 L22.499015,12.5780669 L14.7719441,12.4932612 L14.7561837,13.9942462 L22.499015,14.0798024 L22.499015,14.5293474 C22.499015,14.8813284 22.4787517,15.2318084 22.4479815,15.5815379 L14.7719441,15.4959817 L14.7561837,16.9969668 L22.2265862,17.0795209 C22.1012539,17.670909 21.9301417,18.2495388 21.7200038,18.8154101 L21.7207542,18.7426123 Z M5.98817974,22.1183277 C5.98817974,22.3262141 5.81931893,22.4950749 5.6114325,22.4950749 L1.87698177,22.4950749 C1.66984584,22.4950749 1.50098502,22.3262141 1.50098502,22.1183277 L1.50098502,10.863942 C1.50098502,10.6560555 1.66984584,10.4871947 1.87698177,10.4871947 L4.48719472,10.4871947 L5.6114325,10.4871947 C5.81931893,10.4871947 5.98817974,10.6560555 5.98817974,10.863942 L5.98817974,22.1183277 Z M15.3505738,8.99071266 C16.1093217,7.0927171 16.4950749,5.09265455 16.4950749,3.04606148 L16.4950749,2.17624066 C16.4950749,0.964945746 15.5104287,-0.0197004284 14.2991338,-0.0197004284 L13.8323275,-0.0197004284 C12.8574377,-0.0197004284 11.9891179,0.635479533 11.721192,1.57209419 L11.426999,2.60176991 C10.8521217,4.61233935 9.89749523,6.4608024 8.59088777,8.09537509 C8.13834079,8.66124644 7.46289753,8.9862097 6.73867225,8.9862097 L5.6114325,8.9862097 L4.48719472,8.9862097 L1.87698177,8.9862097 C0.842052597,8.9862097 0,9.82901279 0,10.863942 L0,22.1183277 C0,23.1540073 0.842052597,23.9960599 1.87698177,23.9960599 L5.6114325,23.9960599 C6.37618437,23.9960599 7.03361581,23.5352575 7.3255574,22.8770756 L8.93011038,23.6793521 C9.34513274,23.886488 9.80818662,23.9960599 10.2712405,23.9960599 L19.3672097,23.9960599 C20.1784921,23.9960599 20.9327371,23.5585228 21.3357516,22.8545608 L22.1830576,21.3708371 C23.3718378,19.2919729 24,16.9249195 24,14.5293474 L24,11.9896807 C24,10.3333438 22.6528659,8.9862097 20.996529,8.9862097 L15.3505738,8.99071266 Z" id="Fill-1" fill="#000000"></path>
    </g>
</svg>