<?xml version="1.0" encoding="UTF-8"?>
<svg width="24px" height="24px" viewBox="0 0 24 24" version="1.1" xmlns="http://www.w3.org/2000/svg" xmlns:xlink="http://www.w3.org/1999/xlink">
    <!-- Generator: Sketch 51.3 (57544) - http://www.bohemiancoding.com/sketch -->
    <title>0: Icons / Dark / Timer</title>
    <desc>Created with Sketch.</desc>
    <defs></defs>
    <g id="0:-Icons-/-Dark-/-Timer" stroke="none" stroke-width="1" fill="none" fill-rule="evenodd">
        <path d="M20.25,0 L18.75,0 L18.75,1.5 L20.25,1.5 C21.49275,1.5 22.5,2.50725 22.5,3.75 L22.5,5.25 L24,5.25 L24,3.75 C24,1.6785 22.3215,0 20.25,0 L20.25,0 Z M12,21 C7.02975,21 3,16.971 3,12 C3,7.02975 7.02975,3 12,3 C16.97025,3 21,7.02975 21,12 C21,16.971 16.97025,21 12,21 L12,21 Z M22.5,12 C22.5,6.20175 17.799,1.5 12,1.5 C6.201,1.5 1.5,6.20175 1.5,12 C1.5,15.97725 3.71175,19.43625 6.972,21.21825 L4.5,24 L6.75,24 L8.76375,21.98625 C9.78375,22.317 10.86975,22.5 12,22.5 C13.13025,22.5 14.21625,22.317 15.23625,21.98625 L17.25,24 L19.5,24 L17.02875,21.21825 C20.28825,19.43625 22.5,15.97725 22.5,12 L22.5,12 Z M17.25,11.25 L12.75,11.25 L12.75,6 C12.75,5.58525 12.41475,5.25 12,5.25 C11.58525,5.25 11.25,5.58525 11.25,6 L11.25,12 C11.25,12.41475 11.58525,12.75 12,12.75 L17.25,12.75 C17.66475,12.75 18,12.41475 18,12 C18,11.586 17.66475,11.25 17.25,11.25 L17.25,11.25 Z M1.5,3.75 C1.5,2.50725 2.50725,1.5 3.75,1.5 L5.25,1.5 L5.25,0 L3.75,0 C1.6785,0 0,1.6785 0,3.75 L0,5.25 L1.5,5.25 L1.5,3.75 L1.5,3.75 Z" id="Fill-167" fill="#000000"></path>
    </g>
</svg>