<?xml version="1.0" encoding="UTF-8"?>
<svg width="24px" height="24px" viewBox="0 0 24 24" version="1.1" xmlns="http://www.w3.org/2000/svg" xmlns:xlink="http://www.w3.org/1999/xlink">
    <!-- Generator: Sketch 51.3 (57544) - http://www.bohemiancoding.com/sketch -->
    <title>0: Icons / Dark / Top-Aligned Text</title>
    <desc>Created with Sketch.</desc>
    <defs></defs>
    <g id="0:-Icons-/-Dark-/-Top-Aligned-Text" stroke="none" stroke-width="1" fill="none" fill-rule="evenodd">
        <path d="M22.0065978,9.43835735 L11.0080126,9.43835735 C10.5735685,9.43835735 10.2223994,9.79031207 10.2223994,10.2247562 C10.2223994,10.6584147 10.5735685,10.9985852 11.0080126,10.9985852 L22.0065978,11.011155 C22.4410419,11.011155 22.792211,10.6584147 22.792211,10.2247562 C22.792211,9.79031207 22.4410419,9.43835735 22.0065978,9.43835735 L22.0065978,9.43835735 Z M22.0065978,4.71917867 L11.0080126,4.71917867 C10.5735685,4.71917867 10.2223994,5.0711334 10.2223994,5.50557752 C10.2223994,5.94002163 10.5735685,6.28490584 11.0080126,6.28490584 L22.0065978,6.28490584 C22.4410419,6.28490584 22.792211,5.94002163 22.792211,5.50557752 C22.792211,5.0711334 22.4410419,4.71917867 22.0065978,4.71917867 L22.0065978,4.71917867 Z M22.0065978,14.157536 L15.721692,14.157536 C15.2872478,14.157536 14.9360787,14.5094907 14.9360787,14.9431492 C14.9360787,15.3775934 15.2872478,15.7122646 15.721692,15.7122646 L22.0065978,15.7122646 C22.4410419,15.7122646 22.792211,15.3775934 22.792211,14.9431492 C22.792211,14.5094907 22.4410419,14.157536 22.0065978,14.157536 L22.0065978,14.157536 Z M22.0065978,18.8759291 L12.579239,18.8759291 C12.1447949,18.8759291 11.7936258,19.2286694 11.7936258,19.6623279 C11.7936258,20.096772 12.1447949,20.4487268 12.579239,20.4487268 L22.0065978,20.425944 C22.4410419,20.425944 22.792211,20.096772 22.792211,19.6623279 C22.792211,19.2286694 22.4410419,18.8759291 22.0065978,18.8759291 L22.0065978,18.8759291 Z M11.0080126,1.57279769 L22.0065978,1.57122646 C22.4410419,1.57122646 22.792211,1.22084296 22.792211,0.786398843 C22.792211,0.351954727 22.4410419,0 22.0065978,0 L11.0080126,0 C10.5735685,0 10.2223994,0.351954727 10.2223994,0.786398843 C10.2223994,1.22084296 10.5735685,1.57279769 11.0080126,1.57279769 L11.0080126,1.57279769 Z M12.3333421,14.379079 C12.0253817,14.0695473 11.5257317,14.0695473 11.2185569,14.379079 L7.07994643,19.1406807 L7.07994643,0 L5.50871997,0 L5.50871997,19.1689628 L1.34575546,14.379079 C1.03858069,14.0695473 0.538930676,14.0695473 0.23097029,14.379079 C-0.0769900965,14.6886106 -0.0769900965,15.1898318 0.23097029,15.4993634 L5.68469733,21.7748419 C5.84967611,21.9398207 6.06729098,22.0105259 6.28176339,21.9987417 C6.49702141,22.0105259 6.71463628,21.9398207 6.87961506,21.7748419 L12.3333421,15.4993634 C12.6413025,15.1898318 12.6413025,14.6886106 12.3333421,14.379079 L12.3333421,14.379079 Z" id="Fill-195" fill="#000000"></path>
    </g>
</svg>