<?xml version="1.0" encoding="UTF-8"?>
<svg width="24px" height="24px" viewBox="0 0 24 24" version="1.1" xmlns="http://www.w3.org/2000/svg" xmlns:xlink="http://www.w3.org/1999/xlink">
    <!-- Generator: Sketch 51.3 (57544) - http://www.bohemiancoding.com/sketch -->
    <title>0: Icons / Dark / Trash Can</title>
    <desc>Created with Sketch.</desc>
    <defs></defs>
    <g id="0:-Icons-/-Dark-/-Trash-Can" stroke="none" stroke-width="1" fill="none" fill-rule="evenodd">
        <path d="M19.25,6 L4.25,6 C3.836,6 3.5,5.66475 3.5,5.25 C3.5,4.836 3.836,4.5 4.25,4.5 L19.25,4.5 C19.664,4.5 20,4.836 20,5.25 C20,5.66475 19.664,6 19.25,6 L19.25,6 Z M18.5,21 C18.5,21.828 17.828,22.5 17,22.5 L6.5,22.5 C5.672,22.5 5,21.828 5,21 L5,7.5 L18.5,7.5 L18.5,21 L18.5,21 Z M9.5,2.25 C9.5,1.83525 9.836,1.5 10.25,1.5 L13.25,1.5 C13.664,1.5 14,1.83525 14,2.25 L14,3 L9.5,3 L9.5,2.25 L9.5,2.25 Z M20,3 L15.5,3 L15.5,1.5 C15.5,0.672 14.828,0 14,0 L9.5,0 C8.672,0 8,0.672 8,1.5 L8,3 L3.5,3 C2.672,3 2,3.672 2,4.5 L2,6 C2,6.828 2.672,7.5 3.5,7.5 L3.5,21 C3.5,22.65675 4.84325,24 6.5,24 L17,24 C18.65675,24 20,22.65675 20,21 L20,7.5 C20.828,7.5 21.5,6.828 21.5,6 L21.5,4.5 C21.5,3.672 20.828,3 20,3 L20,3 Z M11.75,21 C12.164,21 12.5,20.66475 12.5,20.25 L12.5,11.25 C12.5,10.836 12.164,10.5 11.75,10.5 C11.336,10.5 11,10.836 11,11.25 L11,20.25 C11,20.66475 11.336,21 11.75,21 L11.75,21 Z M8,21 C8.414,21 8.75,20.66475 8.75,20.25 L8.75,11.25 C8.75,10.836 8.414,10.5 8,10.5 C7.586,10.5 7.25,10.836 7.25,11.25 L7.25,20.25 C7.25,20.66475 7.586,21 8,21 L8,21 Z M15.5,21 C15.914,21 16.25,20.66475 16.25,20.25 L16.25,11.25 C16.25,10.836 15.914,10.5 15.5,10.5 C15.086,10.5 14.75,10.836 14.75,11.25 L14.75,20.25 C14.75,20.66475 15.086,21 15.5,21 L15.5,21 Z" id="Fill-199" fill="#C50E1F"></path>
    </g>
</svg>