<?xml version="1.0" encoding="UTF-8"?>
<svg width="24px" height="24px" viewBox="0 0 24 24" version="1.1" xmlns="http://www.w3.org/2000/svg" xmlns:xlink="http://www.w3.org/1999/xlink">
    <!-- Generator: Sketch 51.3 (57544) - http://www.bohemiancoding.com/sketch -->
    <title>0: Icons / Dark / TV</title>
    <desc>Created with Sketch.</desc>
    <defs></defs>
    <g id="0:-Icons-/-Dark-/-TV" stroke="none" stroke-width="1" fill="none" fill-rule="evenodd">
        <path d="M22.5,20.9915731 C22.5,21.8195731 21.828,22.4915731 21,22.4915731 L3,22.4915731 C2.172,22.4915731 1.5,21.8195731 1.5,20.9915731 L1.5,8.99157309 C1.5,8.16357309 2.172,7.49157309 3,7.49157309 L21,7.49157309 C21.828,7.49157309 22.5,8.16357309 22.5,8.99157309 L22.5,20.9915731 L22.5,20.9915731 Z M21,5.99157309 L14.0595,5.99157309 L20.6385,1.46532309 C20.98575,1.22607309 21.08475,0.73257309 20.85975,0.36357309 C20.6355,-0.00542690988 20.17125,-0.11117691 19.82325,0.12807309 C19.82325,0.12807309 12.61575,5.10432309 12.00675,5.47182309 L4.17675,0.12807309 C3.8295,-0.11117691 3.3645,-0.00542690988 3.14025,0.36357309 C2.91525,0.73257309 3.01425,1.22607309 3.3615,1.46532309 L9.9405,5.99157309 L3,5.99157309 C1.34325,5.99157309 0,7.33482309 0,8.99157309 L0,20.9915731 C0,22.6483231 1.34325,23.9915731 3,23.9915731 L21,23.9915731 C22.65675,23.9915731 24,22.6483231 24,20.9915731 L24,8.99157309 C24,7.33482309 22.65675,5.99157309 21,5.99157309 L21,5.99157309 Z M20.25,17.2415731 L17.25,17.2415731 C16.83525,17.2415731 16.5,17.5768231 16.5,17.9915731 C16.5,18.4063231 16.83525,18.7415731 17.25,18.7415731 L20.25,18.7415731 C20.66475,18.7415731 21,18.4063231 21,17.9915731 C21,17.5768231 20.66475,17.2415731 20.25,17.2415731 L20.25,17.2415731 Z M13.5,18.7415731 C13.5,19.1563231 13.16475,19.4915731 12.75,19.4915731 L5.25,19.4915731 C4.83525,19.4915731 4.5,19.1563231 4.5,18.7415731 L4.5,11.2415731 C4.5,10.8275731 4.83525,10.4915731 5.25,10.4915731 L12.75,10.4915731 C13.16475,10.4915731 13.5,10.8275731 13.5,11.2415731 L13.5,18.7415731 L13.5,18.7415731 Z M13.5,8.99157309 L4.5,8.99157309 C3.672,8.99157309 3,9.66357309 3,10.4915731 L3,19.4915731 C3,20.3195731 3.672,20.9915731 4.5,20.9915731 L13.5,20.9915731 C14.328,20.9915731 15,20.3195731 15,19.4915731 L15,10.4915731 C15,9.66357309 14.328,8.99157309 13.5,8.99157309 L13.5,8.99157309 Z M20.25,19.4915731 L17.25,19.4915731 C16.83525,19.4915731 16.5,19.8268231 16.5,20.2415731 C16.5,20.6563231 16.83525,20.9915731 17.25,20.9915731 L20.25,20.9915731 C20.66475,20.9915731 21,20.6563231 21,20.2415731 C21,19.8268231 20.66475,19.4915731 20.25,19.4915731 L20.25,19.4915731 Z M18,10.4915731 L19.5,10.4915731 L19.5,11.9915731 L18,11.9915731 L18,10.4915731 Z M18.75,8.99157309 C17.50725,8.99157309 16.5,9.99882309 16.5,11.2415731 C16.5,12.4843231 17.50725,13.4915731 18.75,13.4915731 C19.99275,13.4915731 21,12.4843231 21,11.2415731 C21,9.99882309 19.99275,8.99157309 18.75,8.99157309 L18.75,8.99157309 Z" id="Fill-137" fill="#000000"></path>
    </g>
</svg>