<?xml version="1.0" encoding="UTF-8"?>
<svg width="25px" height="17px" viewBox="0 0 25 17" version="1.1" xmlns="http://www.w3.org/2000/svg" xmlns:xlink="http://www.w3.org/1999/xlink">
    <defs>
        <path d="M19.6696712,4.43551064 C21.7639021,4.43551064 23.4671988,5.8860483 23.4671988,7.66965049 C23.4671988,8.04249996 23.1581329,8.34491932 22.7765395,8.34491932 C22.3957702,8.34491932 22.0867043,8.04249996 22.0867043,7.66965049 C22.0867043,6.63120961 21.0020889,5.78631712 19.6693965,5.78631712 L19.6693965,5.78631712 L19.5814844,5.78631712 C18.2485173,5.78631712 17.1641767,6.63094079 17.1641767,7.66965049 L17.1641767,7.66965049 L17.1641767,10.379328 C17.2482426,10.3723387 17.3323085,10.3666936 17.4185723,10.3666936 L17.4185723,10.3666936 L21.8314845,10.3666936 C23.535056,10.3666936 24.9215945,11.723414 24.9215945,13.3908872 L24.9215945,13.3908872 L24.9215945,17.7083604 C24.9215945,19.3755647 23.535056,20.7322852 21.8314845,20.7322852 L21.8314845,20.7322852 L17.4185723,20.7322852 C15.7150008,20.7322852 14.3284623,19.3755647 14.3284623,17.7083604 L14.3284623,17.7083604 L14.3284623,13.3908872 C14.3284623,12.3115861 14.9114293,11.3648119 15.7836821,10.8298656 L15.7836821,10.8298656 L15.7836821,7.66965049 C15.7836821,5.8860483 17.4872536,4.43551064 19.5817591,4.43551064 L19.5817591,4.43551064 Z M12.9175828,11.5368009 C13.2986268,11.5368009 13.6076927,11.8392202 13.6076927,12.2120697 C13.6076927,12.5851879 13.2986268,12.8876073 12.9175828,12.8876073 L12.9175828,12.8876073 L4.45521991,12.8876073 C2.76016492,12.8876073 1.38076927,14.2368008 1.38076927,15.8951341 C1.38076927,17.5534674 2.75989019,18.9026609 4.45521991,18.9026609 L4.45521991,18.9026609 L12.9175828,18.9026609 C13.2986268,18.9026609 13.6076927,19.2050803 13.6076927,19.5784674 C13.6076927,19.9513168 13.2986268,20.2537362 12.9175828,20.2537362 L12.9175828,20.2537362 L4.45521991,20.2537362 C1.99862643,20.2537362 -3.28626015e-13,18.2983599 -3.28626015e-13,15.8951341 C-3.28626015e-13,13.4919084 1.99862643,11.5368009 4.45521991,11.5368009 L4.45521991,11.5368009 Z M21.8312093,11.7174999 L17.4185721,11.7174999 C16.475715,11.7174999 15.7089568,12.4683064 15.7089568,13.390887 L15.7089568,13.390887 L15.7089568,17.7083603 C15.7089568,18.6312098 16.475715,19.3814786 17.4185721,19.3814786 L17.4185721,19.3814786 L21.8312093,19.3814786 C22.7743411,19.3814786 23.5410993,18.6312098 23.5410993,17.7083603 L23.5410993,17.7083603 L23.5410993,13.390887 C23.5410993,12.4683064 22.7743411,11.7174999 21.8312093,11.7174999 L21.8312093,11.7174999 Z M5.15903855,13.5618814 C5.54035725,13.5618814 5.84942319,13.8643007 5.84942319,14.2376878 L5.84942319,14.2376878 L5.84942319,15.0274728 L6.59557707,14.7261287 C6.94777488,14.5841932 7.35134632,14.7481717 7.496676,15.0930642 C7.64200567,15.4379566 7.47414853,15.8328491 7.12195071,15.9750534 L7.12195071,15.9750534 L6.29337925,16.309462 L6.868654,16.9820426 C7.11343423,17.2677953 7.07469796,17.6936017 6.78239026,17.9333867 C6.65326938,18.0393007 6.49612651,18.0909136 6.33980783,18.0909136 C6.14228035,18.0909136 5.94667594,18.0086555 5.81013748,17.8492469 L5.81013748,17.8492469 L5.23458801,17.1766663 L4.75217041,17.9164512 C4.620577,18.1180641 4.39750007,18.228548 4.16947808,18.228548 C4.042555,18.228548 3.91398357,18.1944082 3.79887367,18.1223652 C3.47744509,17.9218275 3.38321432,17.5043544 3.58815938,17.1895695 L3.58815938,17.1895695 L4.07030225,16.4497846 L3.20354398,16.2231717 C2.8354121,16.1266663 2.6170055,15.756505 2.71535715,15.39629 C2.81398353,15.0358061 3.19173079,14.8210211 3.56068685,14.9186018 L3.56068685,14.9186018 L4.46865391,15.156505 L4.46865391,14.2376878 C4.46865391,13.8643007 4.77771986,13.5618814 5.15903855,13.5618814 Z M10.864643,13.5618814 C11.2456869,13.5618814 11.5547528,13.8643007 11.5547528,14.2376878 L11.5547528,14.2376878 L11.5547528,15.0274728 L12.3017308,14.7261287 C12.6542033,14.5847308 13.0577748,14.7487093 13.2031044,15.0930642 C13.3478846,15.4379566 13.1800275,15.8328491 12.8278297,15.9750534 L12.8278297,15.9750534 L11.9987089,16.309462 L12.5742583,16.9820426 C12.8193132,17.2672577 12.780577,17.6936017 12.4879946,17.9333867 C12.3594231,18.0393007 12.2014561,18.0909136 12.0456869,18.0909136 C11.8484341,18.0909136 11.6522803,18.0091931 11.5160166,17.8492469 L11.5160166,17.8492469 L10.9399177,17.1763975 L10.4575001,17.9164512 C10.3259067,18.1180641 10.1028298,18.228548 9.87480784,18.228548 C9.74788477,18.228548 9.61931335,18.1944082 9.50420346,18.1223652 C9.1827749,17.9218275 9.08826941,17.5043544 9.29348918,17.1895695 L9.29348918,17.1895695 L9.7753573,16.4497846 L8.90997271,16.2231717 C8.54184086,16.1266663 8.32315955,15.756505 8.42178592,15.3957523 C8.52041229,15.0358061 8.89870898,14.8220964 9.26711556,14.9186018 L9.26711556,14.9186018 L10.1742584,15.156505 L10.1742584,14.2376878 C10.1742584,13.8643007 10.4833243,13.5618814 10.864643,13.5618814 Z M19.6248073,13.9721235 C20.0058512,13.9721235 20.3149172,14.2745428 20.3149172,14.6481987 L20.3149172,14.6481987 L20.3149172,16.3143277 C20.3149172,16.6879836 20.0058512,16.9904029 19.6248073,16.9904029 C19.2432138,16.9904029 18.9341479,16.6879836 18.9338732,16.3143277 L18.9338732,16.3143277 L18.9338732,14.6481987 C18.9338732,14.2745428 19.2429391,13.9721235 19.6248073,13.9721235 Z" id="path-123"></path>
    </defs>
    <g id="Page-12" stroke="none" stroke-width="1" fill="none" fill-rule="evenodd">
        <g id="01_01_Gestion-du-compte" transform="translate(-158.000000, -246.000000)">
            <g id="Group" transform="translate(141.000000, 100.000000)">
                <g id="Icone/Foncé/clés-Icone/Foncé/mot-de-passe" transform="translate(17.000000, 142.000000)">
                    <mask id="mask-231" fill="white">
                        <use xlink:href="#path-123"></use>
                    </mask>
                    <path d="M19.6696712,4.43551064 C21.7639021,4.43551064 23.4671988,5.8860483 23.4671988,7.66965049 C23.4671988,8.04249996 23.1581329,8.34491932 22.7765395,8.34491932 C22.3957702,8.34491932 22.0867043,8.04249996 22.0867043,7.66965049 C22.0867043,6.63120961 21.0020889,5.78631712 19.6693965,5.78631712 L19.6693965,5.78631712 L19.5814844,5.78631712 C18.2485173,5.78631712 17.1641767,6.63094079 17.1641767,7.66965049 L17.1641767,7.66965049 L17.1641767,10.379328 C17.2482426,10.3723387 17.3323085,10.3666936 17.4185723,10.3666936 L17.4185723,10.3666936 L21.8314845,10.3666936 C23.535056,10.3666936 24.9215945,11.723414 24.9215945,13.3908872 L24.9215945,13.3908872 L24.9215945,17.7083604 C24.9215945,19.3755647 23.535056,20.7322852 21.8314845,20.7322852 L21.8314845,20.7322852 L17.4185723,20.7322852 C15.7150008,20.7322852 14.3284623,19.3755647 14.3284623,17.7083604 L14.3284623,17.7083604 L14.3284623,13.3908872 C14.3284623,12.3115861 14.9114293,11.3648119 15.7836821,10.8298656 L15.7836821,10.8298656 L15.7836821,7.66965049 C15.7836821,5.8860483 17.4872536,4.43551064 19.5817591,4.43551064 L19.5817591,4.43551064 Z M12.9175828,11.5368009 C13.2986268,11.5368009 13.6076927,11.8392202 13.6076927,12.2120697 C13.6076927,12.5851879 13.2986268,12.8876073 12.9175828,12.8876073 L12.9175828,12.8876073 L4.45521991,12.8876073 C2.76016492,12.8876073 1.38076927,14.2368008 1.38076927,15.8951341 C1.38076927,17.5534674 2.75989019,18.9026609 4.45521991,18.9026609 L4.45521991,18.9026609 L12.9175828,18.9026609 C13.2986268,18.9026609 13.6076927,19.2050803 13.6076927,19.5784674 C13.6076927,19.9513168 13.2986268,20.2537362 12.9175828,20.2537362 L12.9175828,20.2537362 L4.45521991,20.2537362 C1.99862643,20.2537362 -3.28626015e-13,18.2983599 -3.28626015e-13,15.8951341 C-3.28626015e-13,13.4919084 1.99862643,11.5368009 4.45521991,11.5368009 L4.45521991,11.5368009 Z M21.8312093,11.7174999 L17.4185721,11.7174999 C16.475715,11.7174999 15.7089568,12.4683064 15.7089568,13.390887 L15.7089568,13.390887 L15.7089568,17.7083603 C15.7089568,18.6312098 16.475715,19.3814786 17.4185721,19.3814786 L17.4185721,19.3814786 L21.8312093,19.3814786 C22.7743411,19.3814786 23.5410993,18.6312098 23.5410993,17.7083603 L23.5410993,17.7083603 L23.5410993,13.390887 C23.5410993,12.4683064 22.7743411,11.7174999 21.8312093,11.7174999 L21.8312093,11.7174999 Z M5.15903855,13.5618814 C5.54035725,13.5618814 5.84942319,13.8643007 5.84942319,14.2376878 L5.84942319,14.2376878 L5.84942319,15.0274728 L6.59557707,14.7261287 C6.94777488,14.5841932 7.35134632,14.7481717 7.496676,15.0930642 C7.64200567,15.4379566 7.47414853,15.8328491 7.12195071,15.9750534 L7.12195071,15.9750534 L6.29337925,16.309462 L6.868654,16.9820426 C7.11343423,17.2677953 7.07469796,17.6936017 6.78239026,17.9333867 C6.65326938,18.0393007 6.49612651,18.0909136 6.33980783,18.0909136 C6.14228035,18.0909136 5.94667594,18.0086555 5.81013748,17.8492469 L5.81013748,17.8492469 L5.23458801,17.1766663 L4.75217041,17.9164512 C4.620577,18.1180641 4.39750007,18.228548 4.16947808,18.228548 C4.042555,18.228548 3.91398357,18.1944082 3.79887367,18.1223652 C3.47744509,17.9218275 3.38321432,17.5043544 3.58815938,17.1895695 L3.58815938,17.1895695 L4.07030225,16.4497846 L3.20354398,16.2231717 C2.8354121,16.1266663 2.6170055,15.756505 2.71535715,15.39629 C2.81398353,15.0358061 3.19173079,14.8210211 3.56068685,14.9186018 L3.56068685,14.9186018 L4.46865391,15.156505 L4.46865391,14.2376878 C4.46865391,13.8643007 4.77771986,13.5618814 5.15903855,13.5618814 Z M10.864643,13.5618814 C11.2456869,13.5618814 11.5547528,13.8643007 11.5547528,14.2376878 L11.5547528,14.2376878 L11.5547528,15.0274728 L12.3017308,14.7261287 C12.6542033,14.5847308 13.0577748,14.7487093 13.2031044,15.0930642 C13.3478846,15.4379566 13.1800275,15.8328491 12.8278297,15.9750534 L12.8278297,15.9750534 L11.9987089,16.309462 L12.5742583,16.9820426 C12.8193132,17.2672577 12.780577,17.6936017 12.4879946,17.9333867 C12.3594231,18.0393007 12.2014561,18.0909136 12.0456869,18.0909136 C11.8484341,18.0909136 11.6522803,18.0091931 11.5160166,17.8492469 L11.5160166,17.8492469 L10.9399177,17.1763975 L10.4575001,17.9164512 C10.3259067,18.1180641 10.1028298,18.228548 9.87480784,18.228548 C9.74788477,18.228548 9.61931335,18.1944082 9.50420346,18.1223652 C9.1827749,17.9218275 9.08826941,17.5043544 9.29348918,17.1895695 L9.29348918,17.1895695 L9.7753573,16.4497846 L8.90997271,16.2231717 C8.54184086,16.1266663 8.32315955,15.756505 8.42178592,15.3957523 C8.52041229,15.0358061 8.89870898,14.8220964 9.26711556,14.9186018 L9.26711556,14.9186018 L10.1742584,15.156505 L10.1742584,14.2376878 C10.1742584,13.8643007 10.4833243,13.5618814 10.864643,13.5618814 Z M19.6248073,13.9721235 C20.0058512,13.9721235 20.3149172,14.2745428 20.3149172,14.6481987 L20.3149172,14.6481987 L20.3149172,16.3143277 C20.3149172,16.6879836 20.0058512,16.9904029 19.6248073,16.9904029 C19.2432138,16.9904029 18.9341479,16.6879836 18.9338732,16.3143277 L18.9338732,16.3143277 L18.9338732,14.6481987 C18.9338732,14.2745428 19.2429391,13.9721235 19.6248073,13.9721235 Z" id="path-123"></path>
                    <g id="Icone/Foncé/mot-de-passe"></g>
                    <g id="🎨-color-couleur/Gris-Up" mask="url(#mask-231)" fill="#4E5B59" fill-rule="nonzero">
                        <polygon id="Rectangle" points="0 0 25 0 25 25 0 25"></polygon>
                    </g>
                </g>
            </g>
        </g>
    </g>
</svg>