<?xml version="1.0" encoding="UTF-8"?>
<svg width="24px" height="24px" viewBox="0 0 24 24" version="1.1" xmlns="http://www.w3.org/2000/svg" xmlns:xlink="http://www.w3.org/1999/xlink">
    <!-- Generator: Sketch 51.3 (57544) - http://www.bohemiancoding.com/sketch -->
    <title>0: Icons / Dark / Upload</title>
    <desc>Created with Sketch.</desc>
    <defs></defs>
    <g id="0:-Icons-/-Dark-/-Upload" stroke="none" stroke-width="1" fill="none" fill-rule="evenodd">
        <path d="M8.5856,8.16288137 L11.2,4.99488137 L11.2,16.4012814 C11.2,16.8444814 11.5576,17.2028814 12,17.2028814 C12.4424,17.2028814 12.8,16.8444814 12.8,16.4012814 L12.8,4.96448137 L15.4392,8.16288137 C15.752,8.47888137 16.2608,8.47888137 16.5752,8.16288137 C16.888,7.84848137 16.888,7.33728137 16.5752,7.02208137 L12.6208,2.22928137 C12.4528,2.06128137 12.2312,1.98928137 12.0128,2.00128137 C11.7936,1.98928137 11.572,2.06128137 11.4048,2.22928137 L7.4504,7.02208137 C7.1368,7.33728137 7.1368,7.84848137 7.4504,8.16288137 C7.764,8.47888137 8.2728,8.47888137 8.5856,8.16288137 L8.5856,8.16288137 Z M23.2,14.8028814 C22.7576,14.8028814 22.4,15.1612814 22.4,15.6028814 L22.4,21.2028814 L1.6,21.2028814 L1.6,15.6028814 C1.6,15.1612814 1.2424,14.8028814 0.8,14.8028814 C0.3576,14.8028814 0,15.1612814 0,15.6028814 L0,22.0028814 C0,22.4452814 0.3576,22.8028814 0.8,22.8028814 L23.2,22.8028814 C23.6424,22.8028814 24,22.4452814 24,22.0028814 L24,15.6028814 C24,15.1612814 23.6424,14.8028814 23.2,14.8028814 L23.2,14.8028814 Z" id="Fill-103" fill="#000000"></path>
    </g>
</svg>