<svg xmlns="http://www.w3.org/2000/svg" id="Profil" width="24" height="24" viewBox="0 0 24 24">
  <path id="Union_10" data-name="Union 10" d="M4.688,21.515,4.663,21.5l-.026-.02-.045-.035h0q-.3-.238-.591-.5H4a12,12,0,1,1,15.2.652l-.018.013-.027.02L19,21.748h0a12,12,0,0,1-14.312-.233ZM12,23a10.968,10.968,0,0,0,3.5-.568v-4.7a.5.5,0,1,1,1,0v4.306A10.939,10.939,0,0,0,19,20.487V16.5a2.5,2.5,0,0,0-1.75-2.385,7.568,7.568,0,0,1-10.1-.09A2.5,2.5,0,0,0,5,16.5v3.987a10.918,10.918,0,0,0,2.5,1.555V17.735a.5.5,0,1,1,1,0v4.7A10.962,10.962,0,0,0,12,23ZM7.718,1.864A10.995,10.995,0,0,0,4,19.55V16.5A3.5,3.5,0,0,1,7.5,13h.026a6.579,6.579,0,0,0,9.42.029A3.506,3.506,0,0,1,20,16.5v3.05A11,11,0,0,0,7.718,1.864ZM7.5,8.75a4.75,4.75,0,1,1,4.749,4.75A4.75,4.75,0,0,1,7.5,8.75Zm1,0A3.75,3.75,0,1,0,12.249,5,3.753,3.753,0,0,0,8.5,8.75Z"/>
</svg>