<?xml version="1.0" encoding="UTF-8"?>
<svg width="24px" height="24px" viewBox="0 0 24 24" version="1.1" xmlns="http://www.w3.org/2000/svg" xmlns:xlink="http://www.w3.org/1999/xlink">
    <!-- Generator: Sketch 51.3 (57544) - http://www.bohemiancoding.com/sketch -->
    <title>0: Icons / Dark / Video Camera</title>
    <desc>Created with Sketch.</desc>
    <defs></defs>
    <g id="0:-Icons-/-Dark-/-Video-Camera" stroke="none" stroke-width="1" fill="none" fill-rule="evenodd">
        <path d="M22.5,21.5 L18,17.75 L18,15.5 L22.5,12.5 L22.5,21.5 L22.5,21.5 Z M14.25,11.009 C12.174,11.009 10.49175,9.326 10.49175,7.25 C10.49175,5.174 12.174,3.49175 14.25,3.49175 C16.326,3.49175 18.00825,5.174 18.00825,7.25 C18.00825,9.326 16.326,11.009 14.25,11.009 L14.25,11.009 Z M16.5,20 C16.5,20.828 15.828,21.5 15,21.5 L3,21.5 C2.172,21.5 1.5,20.828 1.5,20 L1.5,14 C1.5,13.172 2.172,12.5 3,12.5 L15,12.5 C15.828,12.5 16.5,13.172 16.5,14 L16.5,20 L16.5,20 Z M1.5,8 C1.5,6.34325 2.84325,5 4.5,5 C6.15675,5 7.5,6.34325 7.5,8 C7.5,9.65675 6.15675,11 4.5,11 C2.84325,11 1.5,9.65675 1.5,8 L1.5,8 Z M22.5,11 L18,14 C18,13.0895 17.586,12.284 16.9455,11.73425 C18.4695,10.81475 19.5,9.1595 19.5,7.25 C19.5,4.3505 17.1495,2 14.25,2 C11.3505,2 9,4.3505 9,7.25 C9,8.7215 9.609,10.04675 10.58325,11 L7.83225,11 C8.55,10.20275 9,9.158 9,8 C9,5.51525 6.98475,3.5 4.5,3.5 C2.01525,3.5 0,5.51525 0,8 C0,9.35675 0.612,10.5575 1.5615,11.38325 C0.63525,11.89325 0,12.8675 0,14 L0,20 C0,21.65675 1.34325,23 3,23 L15,23 C16.65675,23 18,21.65675 18,20 L18,19.25 L22.5,23 C23.328,23 24,22.328 24,21.5 L24,12.5 C24,11.672 23.328,11 22.5,11 L22.5,11 Z" id="Fill-140" fill="#000000"></path>
    </g>
</svg>