<svg xmlns="http://www.w3.org/2000/svg" xmlns:xlink="http://www.w3.org/1999/xlink" width="20px" height="18px" viewBox="0 0 20 18" version="1.1">
    <defs>
        <path d="M9.008,1.87406306 C9.82881081,1.35703604 10.9136757,1.60325225 11.4307027,2.42433333 L11.4307027,2.42433333 L19.6117838,15.4621712 C19.7939459,15.747036 19.8898919,16.0789279 19.8882905,16.417036 C19.8831351,17.3873063 19.0928649,18.1697387 18.1225946,18.1648964 L18.1225946,18.1648964 L1.76583784,18.1648964 C1.42772973,18.1664955 1.09610811,18.0705495 0.810972973,17.8883874 C-0.0065945946,17.3662252 -0.245783784,16.2797387 0.276648649,15.4621712 L0.276648649,15.4621712 L8.45772973,2.42433333 C8.59772973,2.20217117 8.78583784,2.01406306 9.008,1.87406306 Z M10.4452973,2.55811712 C10.0031351,2.28054955 9.41908108,2.41406306 9.14151351,2.85676577 L9.14151351,2.85676577 L0.952324324,15.8946036 C0.856108108,16.0481171 0.805837838,16.225955 0.807678229,16.407036 C0.812864865,16.9291982 1.2407027,17.3483874 1.76313514,17.3432989 L1.76313514,17.3432989 L18.1252973,17.3432989 C18.4701622,17.3451441 18.788,17.157036 18.9523243,16.8540631 C19.120973,16.5524414 19.1093514,16.1827117 18.9225946,15.8919009 L18.9225946,15.8919009 L10.7442162,2.85676577 C10.6685405,2.73595495 10.5663784,2.63379279 10.4452973,2.55811712 Z M9.94421622,14.1323604 C10.1742162,14.1323604 10.3604324,14.3185766 10.3604324,14.5485766 C10.3604324,14.7785766 10.1742162,14.9647928 9.94421622,14.9647928 C9.71421622,14.9647928 9.528,14.7785766 9.528,14.5485766 C9.528,14.3185766 9.71421622,14.1323604 9.94421622,14.1323604 Z M9.94156757,6.00546847 C10.1653514,6.00546847 10.346973,6.18709009 10.346973,6.41087387 L10.346973,6.41087387 L10.346973,12.6568198 C10.346973,12.8806036 10.1653514,13.0622252 9.94156757,13.0622252 L9.94156757,13.0622252 C9.71508108,13.0606036 9.53454054,12.8779009 9.53616216,12.6541171 L9.53616216,12.6541171 L9.53616216,6.41087387 C9.53616216,6.18709009 9.71751351,6.00546847 9.94156757,6.00546847 Z" id="path-warning"/>
    </defs>
    <g id="Import-Fichier" stroke="none" stroke-width="1" fill="none" fill-rule="evenodd">
        <g id="03_02_Fichier-avec-Info">
            <g id="Group-warning">
                <g id="Formulaire/Elements-de-base/Tableau-warning/Ligne-impaire" >
                    <g id="Formulaire/Elements-de-base/Etiquette/bleu/puce-" >
                        <mask id="mask-warning">
                            <use xlink:href="#path-warning"/>
                        </mask>
                        <g id="Combined-Shape"/>
                        <g id="Group" mask="url(#mask-warning)" fill="#C47400" fill-rule="nonzero">
                            <g id="🎨-color">
                                <polygon id="Rectangle" points="0 0 20 0 20 20 0 20"/>
                            </g>
                        </g>
                    </g>
                </g>
            </g>
        </g>
    </g>
</svg>