<?xml version="1.0" encoding="UTF-8"?>
<svg width="24px" height="24px" viewBox="0 0 24 24" version="1.1" xmlns="http://www.w3.org/2000/svg" xmlns:xlink="http://www.w3.org/1999/xlink">
    <!-- Generator: Sketch 51.3 (57544) - http://www.bohemiancoding.com/sketch -->
    <title>0: Icons / Dark / Weather Snow</title>
    <desc>Created with Sketch.</desc>
    <defs></defs>
    <g id="0:-Icons-/-Dark-/-Weather-Snow" stroke="none" stroke-width="1" fill="none" fill-rule="evenodd">
        <path d="M16.5,16.5 L6.75,16.5 C2.9925,16.4565 1.5,13.58325 1.5,12 C1.5,9.954 3.31725,7.6575 6,7.5 C5.976,4.45275 7.86225,1.5 11.25,1.5 C13.821,1.5 15.52425,3.075 16.1385,5.259 C19.6065,5.09925 22.5,7.54275 22.5,10.5 C22.5,13.64925 20.232,16.5 16.5,16.5 L16.5,16.5 Z M17.30025,3.77175 C16.19925,1.53975 13.90725,0 11.25,0 C7.68825,0 4.7775,2.7615 4.52475,6.25875 C1.9065,7.00575 0,9.2925 0,12 C0,15.195 2.655,17.81625 6,18 L17.25,18 C20.92725,18 24,14.81025 24,10.875 C24,6.756 21.03675,3.993 17.30025,3.77175 L17.30025,3.77175 Z M17.25,19.5 C16.83525,19.5 16.5,19.836 16.5,20.25 C16.5,20.66475 16.83525,21 17.25,21 C17.66475,21 18,20.66475 18,20.25 C18,19.836 17.66475,19.5 17.25,19.5 L17.25,19.5 Z M14.25,22.5 C13.83525,22.5 13.5,22.836 13.5,23.25 C13.5,23.66475 13.83525,24 14.25,24 C14.66475,24 15,23.66475 15,23.25 C15,22.836 14.66475,22.5 14.25,22.5 L14.25,22.5 Z M9.75,22.5 C9.33525,22.5 9,22.836 9,23.25 C9,23.66475 9.33525,24 9.75,24 C10.16475,24 10.5,23.66475 10.5,23.25 C10.5,22.836 10.16475,22.5 9.75,22.5 L9.75,22.5 Z M8.25,19.5 C7.83525,19.5 7.5,19.836 7.5,20.25 C7.5,20.66475 7.83525,21 8.25,21 C8.66475,21 9,20.66475 9,20.25 C9,19.836 8.66475,19.5 8.25,19.5 L8.25,19.5 Z M12.75,19.5 C12.33525,19.5 12,19.836 12,20.25 C12,20.66475 12.33525,21 12.75,21 C13.16475,21 13.5,20.66475 13.5,20.25 C13.5,19.836 13.16475,19.5 12.75,19.5 L12.75,19.5 Z" id="Fill-83" fill="#000000"></path>
    </g>
</svg>