<?xml version="1.0" encoding="UTF-8"?>
<svg width="24px" height="24px" viewBox="0 0 24 24" version="1.1" xmlns="http://www.w3.org/2000/svg" xmlns:xlink="http://www.w3.org/1999/xlink">
    <!-- Generator: Sketch 51.3 (57544) - http://www.bohemiancoding.com/sketch -->
    <title>0: Icons / Dark / Weather Wind Force</title>
    <desc>Created with Sketch.</desc>
    <defs></defs>
    <g id="0:-Icons-/-Dark-/-Weather-Wind-Force" stroke="none" stroke-width="1" fill="none" fill-rule="evenodd">
        <path d="M22.4,8.0528 C22.4,8.7016 22.348,8.8 21.6,8.8 L19.2,9.04 L19.2,2.96 L21.6,3.2 C22.348,3.2 22.4,3.2984 22.4,3.9472 L22.4,8.0528 L22.4,8.0528 Z M17.6,9.2 L12.8,9.68 L12.8,2.32 L17.6,2.8 L17.6,9.2 L17.6,9.2 Z M11.2,9.84 L5.6,10.4 C4.852,10.4 4.8,10.2488 4.8,9.6 L4.8,2.4 C4.8,1.752 4.852,1.6 5.6,1.6 L11.2,2.16 L11.2,9.84 L11.2,9.84 Z M22.4,1.6 L4.8,0 C3.9168,0 3.2,0.7168 3.2,1.6 L3.2,10.4 C3.2,11.2832 3.9168,12 4.8,12 L22.4,10.4 C23.2832,10.4 24,9.6832 24,8.8 L24,3.2 C24,2.3168 23.2832,1.6 22.4,1.6 L22.4,1.6 Z M0.8,0 C0.3576,0 0,0.3584 0,0.8 L0,23.2 C0,23.6424 0.3576,24 0.8,24 C1.2424,24 1.6,23.6424 1.6,23.2 L1.6,0.8 C1.6,0.3584 1.2424,0 0.8,0 L0.8,0 Z" id="Fill-85" fill="#000000"></path>
    </g>
</svg>