<?xml version="1.0" encoding="UTF-8"?>
<svg width="24px" height="24px" viewBox="0 0 24 24" version="1.1" xmlns="http://www.w3.org/2000/svg" xmlns:xlink="http://www.w3.org/1999/xlink">
    <!-- Generator: Sketch 51.3 (57544) - http://www.bohemiancoding.com/sketch -->
    <title>0: Icons / Dark / Weather Cloud</title>
    <desc>Created with Sketch.</desc>
    <defs></defs>
    <g id="0:-Icons-/-Dark-/-Weather-Cloud" stroke="none" stroke-width="1" fill="none" fill-rule="evenodd">
        <path d="M16.5,16.5 L6,16.5 C6,16.5 1.47225,16.03575 1.5,12 C1.51575,9.723 3.516,7.63725 6,7.5 C6,4.3935 7.9875,1.5 11.25,1.5 C13.82475,1.5 15.54225,3.072 16.1535,5.2605 C19.86975,5.0985 22.383,8.0385 22.5,10.5 C22.6575,13.80975 19.20075,16.5 16.5,16.5 L16.5,16.5 Z M17.30025,3.771 C16.19925,1.53975 13.90725,0 11.25,0 C7.68825,0 4.7775,2.7615 4.52475,6.25875 C1.9065,7.005 0,9.2925 0,12 C0,15.195 2.655,17.79825 6,17.98275 C6,17.98275 16.37325,18 16.5,18 C20.43525,18 24,14.81025 24,10.875 C24,7.083 21.03675,3.99225 17.30025,3.771 L17.30025,3.771 Z" id="Fill-84" fill="#000000"></path>
    </g>
</svg>