<?xml version="1.0" encoding="UTF-8"?>
<svg width="24px" height="24px" viewBox="0 0 24 24" version="1.1" xmlns="http://www.w3.org/2000/svg" xmlns:xlink="http://www.w3.org/1999/xlink">
    <!-- Generator: Sketch 51.3 (57544) - http://www.bohemiancoding.com/sketch -->
    <title>0: Icons / Dark / Weather Sunset</title>
    <desc>Created with Sketch.</desc>
    <defs></defs>
    <g id="0:-Icons-/-Dark-/-Weather-Sunset" stroke="none" stroke-width="1" fill="none" fill-rule="evenodd">
        <path d="M22.4,19.6 L1.6,19.6 C1.1584,19.6 0.8,19.9584 0.8,20.4 C0.8,20.8424 1.1584,21.2 1.6,21.2 L22.4,21.2 C22.8416,21.2 23.2,20.8424 23.2,20.4 C23.2,19.9584 22.8416,19.6 22.4,19.6 L22.4,19.6 Z M2.4,8.7312 C2.7128,9.044 3.2192,9.044 3.5312,8.7312 C3.844,8.4184 3.844,7.9128 3.5312,7.6 L2.4,6.4688 C2.0872,6.156 1.5816,6.156 1.2688,6.4688 C0.956,6.7816 0.956,7.2872 1.2688,7.6 L2.4,8.7312 L2.4,8.7312 Z M23.2,16.4 L0.8,16.4 C0.3584,16.4 0,16.7576 0,17.2 C0,17.6424 0.3584,18 0.8,18 L23.2,18 C23.6416,18 24,17.6424 24,17.2 C24,16.7576 23.6416,16.4 23.2,16.4 L23.2,16.4 Z M20,22.8 L4,22.8 C3.5584,22.8 3.2,23.1584 3.2,23.6 C3.2,24.0424 3.5584,24.4 4,24.4 L20,24.4 C20.4416,24.4 20.8,24.0424 20.8,23.6 C20.8,23.1584 20.4416,22.8 20,22.8 L20,22.8 Z M12,5.2 C12.4416,5.2 12.8,4.8424 12.8,4.4 L12.8,2.8 C12.8,2.3576 12.4416,2 12,2 C11.5584,2 11.2,2.3576 11.2,2.8 L11.2,4.4 C11.2,4.8424 11.5584,5.2 12,5.2 L12,5.2 Z M21.6,8.7312 L22.7312,7.6 C23.044,7.2872 23.044,6.7816 22.7312,6.4688 C22.4192,6.156 21.9128,6.156 21.6,6.4688 L20.4688,7.6 C20.156,7.9128 20.156,8.4184 20.4688,8.7312 C20.7816,9.044 21.2872,9.044 21.6,8.7312 L21.6,8.7312 Z M4.1744,14.8 C4.9168,11.1504 8.1288,8.4 12,8.4 C15.8712,8.4 19.0832,11.1504 19.8256,14.8 L21.5088,14.8 C20.8944,10.2872 16.8768,6.8 12,6.8 C7.1232,6.8 3.1056,10.2872 2.4912,14.8 L4.1744,14.8 L4.1744,14.8 Z" id="Fill-79" fill="#000000"></path>
    </g>
</svg>