<?xml version="1.0" encoding="UTF-8"?>
<svg width="24px" height="24px" viewBox="0 0 24 24" version="1.1" xmlns="http://www.w3.org/2000/svg" xmlns:xlink="http://www.w3.org/1999/xlink">
    <!-- Generator: Sketch 51.3 (57544) - http://www.bohemiancoding.com/sketch -->
    <title>0: Icons / Dark / Weather Sunshine</title>
    <desc>Created with Sketch.</desc>
    <defs></defs>
    <g id="0:-Icons-/-Dark-/-Weather-Sunshine" stroke="none" stroke-width="1" fill="none" fill-rule="evenodd">
        <path d="M12,17.2485 C9.10125,17.2485 6.7515,14.89875 6.7515,12 C6.7515,9.10125 9.10125,6.7515 12,6.7515 C14.89875,6.7515 17.2485,9.10125 17.2485,12 C17.2485,14.89875 14.89875,17.2485 12,17.2485 L12,17.2485 Z M12,5.2455 C8.2695,5.2455 5.2455,8.2695 5.2455,12 C5.2455,15.7305 8.2695,18.7545 12,18.7545 C15.7305,18.7545 18.7545,15.7305 18.7545,12 C18.7545,8.2695 15.7305,5.2455 12,5.2455 L12,5.2455 Z M5.5575,17.39175 L3.98175,18.96825 C3.6915,19.2585 3.6915,19.72875 3.98175,20.01825 C4.27125,20.3085 4.7415,20.3085 5.03175,20.01825 L6.60825,18.4425 C6.89775,18.15225 6.89775,17.682 6.60825,17.39175 C6.318,17.10225 5.84775,17.10225 5.5575,17.39175 L5.5575,17.39175 Z M23.25,11.25 L21,11.25 C20.58525,11.25 20.25,11.58525 20.25,12 C20.25,12.41475 20.58525,12.75 21,12.75 L23.25,12.75 C23.66475,12.75 24,12.41475 24,12 C24,11.58525 23.66475,11.25 23.25,11.25 L23.25,11.25 Z M18.894,17.8335 C18.6015,17.541 18.12675,17.541 17.8335,17.8335 C17.541,18.12675 17.541,18.6015 17.8335,18.894 L19.42425,20.48475 C19.7175,20.778 20.19225,20.778 20.48475,20.48475 C20.778,20.193 20.778,19.7175 20.48475,19.42425 L18.894,17.8335 L18.894,17.8335 Z M12,20.25 C11.58525,20.25 11.25,20.58525 11.25,21 L11.25,23.25 C11.25,23.66475 11.58525,24 12,24 C12.41475,24 12.75,23.66475 12.75,23.25 L12.75,21 C12.75,20.58525 12.41475,20.25 12,20.25 L12,20.25 Z M12,3.75 C12.41475,3.75 12.75,3.41475 12.75,3 L12.75,0.75 C12.75,0.33525 12.41475,0 12,0 C11.58525,0 11.25,0.33525 11.25,0.75 L11.25,3 C11.25,3.41475 11.58525,3.75 12,3.75 L12,3.75 Z M5.106,6.1665 C5.3985,6.459 5.87325,6.459 6.1665,6.1665 C6.459,5.87325 6.459,5.3985 6.1665,5.106 L4.57575,3.51525 C4.2825,3.222 3.80775,3.222 3.51525,3.51525 C3.222,3.80775 3.222,4.2825 3.51525,4.57575 L5.106,6.1665 L5.106,6.1665 Z M19.21575,5.83425 L20.79225,4.25925 C21.08175,3.96825 21.08175,3.498 20.79225,3.20775 C20.502,2.91825 20.03175,2.91825 19.74075,3.20775 L18.16575,4.78425 C17.8755,5.0745 17.8755,5.54475 18.16575,5.83425 C18.45525,6.12525 18.9255,6.12525 19.21575,5.83425 L19.21575,5.83425 Z M3,11.25 L0.75,11.25 C0.33525,11.25 0,11.58525 0,12 C0,12.41475 0.33525,12.75 0.75,12.75 L3,12.75 C3.41475,12.75 3.75,12.41475 3.75,12 C3.75,11.58525 3.41475,11.25 3,11.25 L3,11.25 Z" id="Fill-76" fill="#000000"></path>
    </g>
</svg>