<?xml version="1.0" encoding="UTF-8"?>
<svg width="24px" height="24px" viewBox="0 0 24 24" version="1.1" xmlns="http://www.w3.org/2000/svg" xmlns:xlink="http://www.w3.org/1999/xlink">
    <!-- Generator: Sketch 51.3 (57544) - http://www.bohemiancoding.com/sketch -->
    <title>0: Icons / Dark / Weather Sunrise</title>
    <desc>Created with Sketch.</desc>
    <defs></defs>
    <g id="0:-Icons-/-Dark-/-Weather-Sunrise" stroke="none" stroke-width="1" fill="none" fill-rule="evenodd">
        <path d="M4.1744,15.8 C4.9168,12.1504 8.1288,9.4 12,9.4 C15.8712,9.4 19.0832,12.1504 19.8256,15.8 L21.5088,15.8 C20.8944,11.2872 16.8768,7.8 12,7.8 C7.1232,7.8 3.1056,11.2872 2.4912,15.8 L4.1744,15.8 L4.1744,15.8 Z M23.2,17.4 L0.8,17.4 C0.3584,17.4 0,17.7576 0,18.2 C0,18.6424 0.3584,19 0.8,19 L23.2,19 C23.6416,19 24,18.6424 24,18.2 C24,17.7576 23.6416,17.4 23.2,17.4 L23.2,17.4 Z M2.4,9.7312 C2.7128,10.044 3.2192,10.044 3.5312,9.7312 C3.844,9.4184 3.844,8.9128 3.5312,8.6 L2.4,7.4688 C2.0872,7.156 1.5816,7.156 1.2688,7.4688 C0.956,7.7816 0.956,8.2872 1.2688,8.6 L2.4,9.7312 L2.4,9.7312 Z M21.6,9.7312 L22.7312,8.6 C23.044,8.2872 23.044,7.7816 22.7312,7.4688 C22.4184,7.156 21.9128,7.156 21.6,7.4688 L20.4688,8.6 C20.156,8.9128 20.156,9.4184 20.4688,9.7312 C20.7816,10.044 21.2872,10.044 21.6,9.7312 L21.6,9.7312 Z M12,6.2 C12.4416,6.2 12.8,5.8424 12.8,5.4 L12.8,3.8 C12.8,3.3584 12.4416,3 12,3 C11.5584,3 11.2,3.3584 11.2,3.8 L11.2,5.4 C11.2,5.8424 11.5584,6.2 12,6.2 L12,6.2 Z" id="Fill-80" fill="#000000"></path>
    </g>
</svg>