<?xml version="1.0" encoding="UTF-8"?>
<svg width="24px" height="24px" viewBox="0 0 24 24" version="1.1" xmlns="http://www.w3.org/2000/svg" xmlns:xlink="http://www.w3.org/1999/xlink">
    <!-- Generator: Sketch 51.3 (57544) - http://www.bohemiancoding.com/sketch -->
    <title>0: Icons / Dark / Weather Rain</title>
    <desc>Created with Sketch.</desc>
    <defs></defs>
    <g id="0:-Icons-/-Dark-/-Weather-Rain" stroke="none" stroke-width="1" fill="none" fill-rule="evenodd">
        <path d="M16.5,16.5 L6,16.5 C6,16.5 1.4715,16.03575 1.5,12 C1.51575,9.723 3.60975,7.6875 6,7.5 C6,4.3935 7.98825,1.5 11.25,1.5 C13.82475,1.5 15.54225,3.072 16.15425,5.2605 C19.86975,5.0985 22.383,8.0385 22.5,10.5 C22.6575,13.80975 19.20075,16.5 16.5,16.5 L16.5,16.5 Z M17.30025,3.771 C16.19925,1.53975 13.90725,0 11.25,0 C7.6875,0 4.7775,2.7615 4.52475,6.25875 C1.9065,7.005 0,9.2925 0,12 C0,15.195 2.655,17.79825 6,17.98275 C6,17.98275 16.37325,18 16.5,18 C20.43525,18 24,14.81025 24,10.875 C24,7.08375 21.036,3.99225 17.30025,3.771 L17.30025,3.771 Z M18.75,20.25 C18.336,20.25 18,20.58525 18,21 L18,23.25 C18,23.66475 18.336,24 18.75,24 C19.164,24 19.5,23.66475 19.5,23.25 L19.5,21 C19.5,20.58525 19.164,20.25 18.75,20.25 L18.75,20.25 Z M14.25,20.25 C13.836,20.25 13.5,20.58525 13.5,21 L13.5,23.25 C13.5,23.66475 13.836,24 14.25,24 C14.664,24 15,23.66475 15,23.25 L15,21 C15,20.58525 14.664,20.25 14.25,20.25 L14.25,20.25 Z M5.25,20.25 C4.836,20.25 4.5,20.58525 4.5,21 L4.5,23.25 C4.5,23.66475 4.836,24 5.25,24 C5.664,24 6,23.66475 6,23.25 L6,21 C6,20.58525 5.664,20.25 5.25,20.25 L5.25,20.25 Z M9.75,20.25 C9.336,20.25 9,20.58525 9,21 L9,23.25 C9,23.66475 9.336,24 9.75,24 C10.164,24 10.5,23.66475 10.5,23.25 L10.5,21 C10.5,20.58525 10.164,20.25 9.75,20.25 L9.75,20.25 Z" id="Fill-81" fill="#000000"></path>
    </g>
</svg>