<?xml version="1.0" encoding="UTF-8"?>
<svg width="24px" height="24px" viewBox="0 0 24 24" version="1.1" xmlns="http://www.w3.org/2000/svg" xmlns:xlink="http://www.w3.org/1999/xlink">
    <!-- Generator: Sketch 51.3 (57544) - http://www.bohemiancoding.com/sketch -->
    <title>0: Icons / Dark / Weather Wind</title>
    <desc>Created with Sketch.</desc>
    <defs></defs>
    <g id="0:-Icons-/-Dark-/-Weather-Wind" stroke="none" stroke-width="1" fill="none" fill-rule="evenodd">
        <path d="M18.8571429,13 L0.857142857,13 C0.383142857,13 0,13.3831429 0,13.8571429 C0,14.3311429 0.383142857,14.7142857 0.857142857,14.7142857 L17.8568571,14.7142857 C20.3031429,14.7142857 22.2857143,16.2494286 22.2857143,18.1428571 C22.2857143,20.0362857 20.8208571,21.5714286 17.1428571,21.5714286 L17.1428571,23.2857143 L18.8571429,23.2857143 C21.6968571,23.2857143 24,20.9825714 24,18.1428571 C24,15.3031429 21.6968571,13 18.8571429,13 L18.8571429,13 Z M12.0017143,16.4285714 L12,16.4285714 L5.14285714,16.4285714 C4.66885714,16.4285714 4.28571429,16.8125714 4.28571429,17.2857143 C4.28571429,17.7597143 4.66885714,18.1428571 5.14285714,18.1428571 L12,18.1428571 C12.9462857,18.1428571 13.7142857,18.9108571 13.7142857,19.8571429 C13.7142857,20.8034286 12.9462857,21.5714286 12,21.5714286 L12,23.2857143 C13.8934286,23.2857143 15.4285714,21.7505714 15.4285714,19.8571429 C15.4285714,17.9645714 13.8942857,16.4302857 12.0017143,16.4285714 L12.0017143,16.4285714 Z M7.71428571,7.85714286 L18,7.85714286 C18.474,7.85714286 18.8571429,7.474 18.8571429,7 C18.8571429,6.52685714 18.474,6.14285714 18,6.14285714 L7.71428571,6.14285714 C7.24028571,6.14285714 6.85714286,6.52685714 6.85714286,7 C6.85714286,7.474 7.24028571,7.85714286 7.71428571,7.85714286 L7.71428571,7.85714286 Z M3.42857143,11.2857143 L18.8571429,11.2857143 C21.6968571,11.2857143 24,8.98257143 24,6.14285714 C24,3.30314286 21.6968571,1 18.8571429,1 L18.8571429,2.71428571 C21.276,3.16942857 22.2857143,4.24942857 22.2857143,6.14285714 C22.2857143,8.03628571 20.3031429,9.57142857 17.8568571,9.57142857 L3.42857143,9.57142857 C2.95457143,9.57142857 2.57142857,9.95542857 2.57142857,10.4285714 C2.57142857,10.9025714 2.95457143,11.2857143 3.42857143,11.2857143 L3.42857143,11.2857143 Z" id="Fill-75" fill="#000000"></path>
    </g>
</svg>