<?xml version="1.0" encoding="UTF-8"?>
<svg width="24px" height="24px" viewBox="0 0 24 24" version="1.1" xmlns="http://www.w3.org/2000/svg" xmlns:xlink="http://www.w3.org/1999/xlink">
    <!-- Generator: Sketch 51.3 (57544) - http://www.bohemiancoding.com/sketch -->
    <title>0: Icons / Dark / Window</title>
    <desc>Created with Sketch.</desc>
    <defs></defs>
    <g id="0:-Icons-/-Dark-/-Window" stroke="none" stroke-width="1" fill="none" fill-rule="evenodd">
        <path d="M6.75,3 C6.336,3 6,3.336 6,3.75 C6,4.16475 6.336,4.5 6.75,4.5 C7.164,4.5 7.5,4.16475 7.5,3.75 C7.5,3.336 7.164,3 6.75,3 L6.75,3 Z M9.75,3 C9.336,3 9,3.336 9,3.75 C9,4.16475 9.336,4.5 9.75,4.5 C10.164,4.5 10.5,4.16475 10.5,3.75 C10.5,3.336 10.164,3 9.75,3 L9.75,3 Z M22.5,6 L1.5,6 L1.5,3 C1.5,2.172 2.172,1.5 3,1.5 L21,1.5 C21.828,1.5 22.5,2.172 22.5,3 L22.5,6 L22.5,6 Z M22.5,21 C22.5,21.828 21.828,22.5 21,22.5 L3,22.5 C2.172,22.5 1.5,21.828 1.5,21 L1.5,7.5 L22.5,7.5 L22.5,21 L22.5,21 Z M21,0 L3,0 C1.34325,0 0,1.34325 0,3 L0,21 C0,22.65675 1.34325,24 3,24 L21,24 C22.65675,24 24,22.65675 24,21 L24,3 C24,1.34325 22.65675,0 21,0 L21,0 Z M3.75,3 C3.336,3 3,3.336 3,3.75 C3,4.16475 3.336,4.5 3.75,4.5 C4.164,4.5 4.5,4.16475 4.5,3.75 C4.5,3.336 4.164,3 3.75,3 L3.75,3 Z" id="Fill-109" fill="#000000"></path>
    </g>
</svg>