<?xml version="1.0" encoding="UTF-8"?>
<svg width="24px" height="24px" viewBox="0 0 24 24" version="1.1" xmlns="http://www.w3.org/2000/svg" xmlns:xlink="http://www.w3.org/1999/xlink">
    <!-- Generator: Sketch 51.3 (57544) - http://www.bohemiancoding.com/sketch -->
    <title>0: Icons / Dark / World</title>
    <desc>Created with Sketch.</desc>
    <defs></defs>
    <g id="0:-Icons-/-Dark-/-World" stroke="none" stroke-width="1" fill="none" fill-rule="evenodd">
        <path d="M20.697,17.87175 C19.26075,17.394 17.7165,17.037 16.09125,16.806 C16.3125,15.50625 16.43025,14.14425 16.46775,12.75 L22.4715,12.75 C22.33725,14.64075 21.702,16.3905 20.697,17.87175 L20.697,17.87175 Z M14.5755,22.16925 C15.075,20.9625 15.48375,19.65825 15.798,18.28425 C17.1465,18.48375 18.4395,18.7785 19.66425,19.1655 C18.31125,20.60775 16.55475,21.669 14.5755,22.16925 L14.5755,22.16925 Z M12.72825,22.46325 C12.48675,22.4805 12.246,22.5 12,22.5 C11.754,22.5 11.514,22.4805 11.27175,22.46325 C10.6335,21.13425 10.11675,19.65525 9.73425,18.0855 C10.47975,18.02025 11.235,17.982 12,17.982 C12.765,17.982 13.52025,18.02025 14.2665,18.0855 C13.88325,19.65525 13.3665,21.13425 12.72825,22.46325 L12.72825,22.46325 Z M4.33575,19.1655 C5.5605,18.7785 6.8535,18.48375 8.202,18.28425 C8.51625,19.65825 8.925,20.9625 9.4245,22.16925 C7.44525,21.669 5.6895,20.60775 4.33575,19.1655 L4.33575,19.1655 Z M3.303,17.87175 C2.298,16.3905 1.66275,14.64075 1.5285,12.75 L7.53225,12.75 C7.56975,14.14425 7.6875,15.50625 7.90875,16.806 C6.2835,17.037 4.73925,17.394 3.303,17.87175 L3.303,17.87175 Z M3.303,6.12825 C4.73925,6.606 6.2835,6.96375 7.90875,7.194 C7.6875,8.49375 7.56975,9.85575 7.53225,11.25 L1.5285,11.25 C1.66275,9.35925 2.298,7.6095 3.303,6.12825 L3.303,6.12825 Z M9.4245,1.83075 C8.925,3.0375 8.51625,4.34175 8.202,5.71575 C6.8535,5.517 5.5605,5.2215 4.33575,4.8345 C5.6895,3.39225 7.44525,2.331 9.4245,1.83075 L9.4245,1.83075 Z M11.27175,1.53675 C11.514,1.52025 11.754,1.5 12,1.5 C12.246,1.5 12.48675,1.52025 12.72825,1.53675 C13.3665,2.86575 13.88325,4.3455 14.2665,5.9145 C13.52025,5.97975 12.765,6.018 12,6.018 C11.235,6.018 10.47975,5.97975 9.73425,5.9145 C10.11675,4.3455 10.6335,2.86575 11.27175,1.53675 L11.27175,1.53675 Z M14.9655,12.75 C14.925,14.07075 14.805,15.36975 14.57925,16.617 C13.73475,16.5435 12.876,16.5 12,16.5 C11.124,16.5 10.26525,16.5435 9.4215,16.617 C9.195,15.36975 9.075,14.07075 9.03525,12.75 L14.9655,12.75 L14.9655,12.75 Z M9.03525,11.25 C9.075,9.92925 9.195,8.63025 9.4215,7.383 C10.26525,7.4565 11.124,7.5 12,7.5 C12.876,7.5 13.73475,7.4565 14.5785,7.383 C14.805,8.63025 14.925,9.92925 14.9655,11.25 L9.03525,11.25 L9.03525,11.25 Z M19.66425,4.8345 C18.4395,5.2215 17.1465,5.517 15.798,5.71575 C15.48375,4.34175 15.075,3.0375 14.5755,1.83075 C16.55475,2.331 18.31125,3.39225 19.66425,4.8345 L19.66425,4.8345 Z M20.697,6.12825 C21.702,7.6095 22.33725,9.35925 22.4715,11.25 L16.46775,11.25 C16.43025,9.85575 16.3125,8.49375 16.09125,7.194 C17.7165,6.96375 19.26075,6.606 20.697,6.12825 L20.697,6.12825 Z M12,0 C5.373,0 0,5.37225 0,12 C0,18.62775 5.373,24 12,24 C18.627,24 24,18.62775 24,12 C24,5.37225 18.627,0 12,0 L12,0 Z" id="Fill-110" fill="#000000"></path>
    </g>
</svg>