<svg xmlns="http://www.w3.org/2000/svg" xmlns:xlink="http://www.w3.org/1999/xlink" width="80px" height="80px" viewBox="0 0 80 80" version="1.1">
    <!-- Generator: Sketch 52.6 (67491) - http://www.bohemiancoding.com/sketch -->
    <title>Logo Moyen</title>
    <desc>Created with Sketch.</desc>
    <g id="UIKit-Corporate" stroke="none" stroke-width="1" fill="none" fill-rule="evenodd">
        <g id="0-:-Fundamentals" transform="translate(-280.000000, -2567.000000)">
            <g id="Logo-Moyen" transform="translate(280.000000, 2567.000000)">
                <polygon id="Fill-1" fill="#F59100" points="0 79.8490141 79.8478873 79.8490141 79.8478873 0 0 0"/>
                <g id="Group-6" transform="translate(13.000000, 17.000000)" fill="#FEFEFE">
                    <path d="M18.2713803,23.3621408 C18.2713803,27.4787606 17.3677183,30.6410141 12.7496901,30.6410141 C7.57898592,30.6410141 7.02687324,26.9260845 7.02687324,23.9142535 L7.02687324,0.315380282 L0.400394366,1.77566197 L0.400394366,24.8686197 C0.400394366,33.6528451 6.52490141,37.0162254 12.4482817,37.0162254 C20.1806761,37.0162254 24.8978592,32.0472113 24.8978592,25.8212958 L24.8978592,0.315380282 L18.2713803,1.77566197 L18.2713803,23.3621408 Z" id="Fill-2"/>
                    <path d="M41.2015775,31.1933521 C36.935662,31.1933521 33.8224225,27.6294085 33.8224225,23.4620845 C33.8224225,19.2958873 36.935662,15.7308169 41.2015775,15.7308169 C45.4686197,15.7308169 48.5818592,19.2958873 48.5818592,23.4620845 C48.5818592,27.6294085 45.4686197,31.1933521 41.2015775,31.1933521 M41.6100282,9.93419718 C38.940169,9.93419718 36.507493,10.7409577 34.4432676,12.1770141 L34.4432676,8.42321127 L28.0500282,9.96969014 L28.0500282,45.2491268 L34.4258028,43.7877183 L34.4258028,34.7584225 C36.4832676,36.1815211 38.9536901,37.0119437 41.6100282,37.0119437 C48.7942535,37.0119437 54.6179155,30.9499718 54.6179155,23.4733521 C54.6179155,15.9956056 48.7942535,9.93419718 41.6100282,9.93419718" id="Fill-4"/>
                </g>
            </g>
        </g>
    </g>
</svg>